<svg width="117" height="115" viewBox="0 0 117 115" fill="none" xmlns="http://www.w3.org/2000/svg">
<rect width="117" height="115" rx="6" fill="#583EF6"/>
<mask id="mask0_1607_44428" style="mask-type:alpha" maskUnits="userSpaceOnUse" x="0" y="0" width="117" height="115">
<rect width="117" height="115" rx="6" fill="url(#paint0_linear_1607_44428)"/>
</mask>
<g mask="url(#mask0_1607_44428)">
<path d="M47.7333 69.0245C47.7333 69.0245 47.6072 72.3408 48.3637 74.3016C49.1203 76.2624 48.7294 80.4425 48.4835 81.1738C48.2376 81.9052 49.2212 84.3704 49.2212 84.3704L46.8884 87.5606C46.8884 87.5606 44.19 83.5066 42.8407 81.2999C41.4915 79.0933 39.5055 77.1262 40.1423 75.8967C40.7791 74.6673 42.7146 72.2147 42.8407 71.6032C42.9668 70.9916 44.1017 70.38 44.1017 70.38L46.0625 74.7934C46.0625 74.7934 46.4282 71.6032 46.4282 70.1341C46.4282 68.6651 47.3613 67.9212 47.7333 69.0245Z" fill="white"/>
<path opacity="0.15" d="M47.7333 69.0245C47.7333 69.0245 47.6072 72.3408 48.3637 74.3016C49.1203 76.2624 48.7294 80.4425 48.4835 81.1738C48.2376 81.9052 49.2212 84.3704 49.2212 84.3704L46.8884 87.5606C46.8884 87.5606 44.19 83.5066 42.8407 81.2999C41.4915 79.0933 39.5055 77.1262 40.1423 75.8967C40.7791 74.6673 42.7146 72.2147 42.8407 71.6032C42.9668 70.9916 44.1017 70.38 44.1017 70.38L46.0625 74.7934C46.0625 74.7934 46.4282 71.6032 46.4282 70.1341C46.4282 68.6651 47.3613 67.9212 47.7333 69.0245Z" fill="black" stroke="#263238" stroke-linecap="round" stroke-linejoin="round"/>
<path d="M47.7333 69.0245C47.7333 69.0245 47.6072 72.3408 48.3637 74.3016C49.1203 76.2624 48.7294 80.4425 48.4835 81.1738C48.2376 81.9052 49.2212 84.3704 49.2212 84.3704L46.8884 87.5606C46.8884 87.5606 44.19 83.5066 42.8407 81.2999C41.4915 79.0933 39.5055 77.1262 40.1423 75.8967C40.7791 74.6673 42.7146 72.2147 42.8407 71.6032C42.9668 70.9916 44.1017 70.38 44.1017 70.38L46.0625 74.7934C46.0625 74.7934 46.4282 71.6032 46.4282 70.1341C46.4282 68.6651 47.3613 67.9212 47.7333 69.0245Z" stroke="#263238" stroke-linecap="round" stroke-linejoin="round"/>
<path d="M49.6941 83.6516L44.7827 88.5567C44.7827 88.5567 60.2483 114.211 61.8435 114.942C63.4386 115.674 69.4533 110.762 69.4533 110.762L73.5073 88.418C73.5073 88.418 68.0978 91.3245 66.2568 94.3887C64.4158 97.4528 63.1927 97.7491 63.1927 97.7491L49.6941 83.6516Z" fill="white"/>
<path d="M64.1257 104.678C64.6112 104.678 65.103 102.554 65.103 101.412C65.103 100.271 67.7132 102.396 67.7132 102.396L70.6449 98.4806L71.5969 98.9409L69.4533 110.756C69.4533 110.756 63.4385 115.661 61.8434 114.924C60.2483 114.186 46.4534 91.2995 44.9214 88.7712C48.6916 91.9678 63.697 104.678 64.1257 104.678Z" fill="#583EF6"/>
<path opacity="0.5" d="M64.1257 104.678C64.6112 104.678 65.103 102.554 65.103 101.412C65.103 100.271 67.7132 102.396 67.7132 102.396L70.6449 98.4806L71.5969 98.9409L69.4533 110.756C69.4533 110.756 63.4385 115.661 61.8434 114.924C60.2483 114.186 46.4534 91.2995 44.9214 88.7712C48.6916 91.9678 63.697 104.678 64.1257 104.678Z" fill="white"/>
<path d="M49.6941 83.6516L44.7827 88.5567C44.7827 88.5567 60.2483 114.211 61.8435 114.942C63.4386 115.674 69.4533 110.762 69.4533 110.762L73.5073 88.418C73.5073 88.418 68.0978 91.3245 66.2568 94.3887C64.4158 97.4528 63.1927 97.7491 63.1927 97.7491L49.6941 83.6516Z" stroke="#263238" stroke-linecap="round" stroke-linejoin="round"/>
<path d="M65.475 105.8C65.1598 102.963 63.1927 97.7429 63.1927 97.7429C63.1927 97.7429 65.7903 101.387 66.5784 103.279" stroke="#263238" stroke-linecap="round" stroke-linejoin="round"/>
<path d="M96.2045 80.1588C96.2045 80.1588 101.973 85.4359 102.465 85.8331C102.957 86.2303 107.377 93.4367 108.6 96.2612C109.823 99.0858 108.726 104.363 107.969 108.871C107.213 113.379 102.446 127.892 102.446 127.892L103.676 164.586C103.676 164.586 95.2084 168.148 90.4356 169C85.6629 169.851 78.0404 169.491 78.0404 169.491L76.4453 161.516L74.4845 169.119C74.4845 169.119 67.0007 168.262 63.5646 164.46L67.7321 117.698L70.0649 96.7089C70.0649 96.7089 70.6953 91.665 71.9058 89.471C73.1164 87.2769 79.7616 82.9644 84.4272 81.2747C89.0927 79.585 96.2045 80.1588 96.2045 80.1588Z" fill="white"/>
<path d="M91.3562 112.023L103.587 105.504L103.07 100.794C103.07 100.794 107.333 100.126 106.355 97.3519C105.378 94.5778 101.444 89.326 100.643 87.5543C99.8424 85.7827 95.4291 82.5105 95.4291 82.5105L93.67 80.0642C95.1895 80.0642 96.1919 80.1651 96.1919 80.1651C96.1919 80.1651 101.961 85.4422 102.453 85.8394C102.944 86.2366 107.364 93.443 108.587 96.2675C109.81 99.0921 108.713 104.369 107.957 108.877C107.2 113.385 102.434 127.899 102.434 127.899L103.663 164.593C103.663 164.593 101.652 165.437 99.0354 166.402C99.3948 152.998 100.038 127.533 99.7983 127.174C99.4704 126.688 93.7646 118.858 92.138 117.086C90.5113 115.314 99.3065 117.571 98.821 117.25C98.3356 116.928 91.3562 112.023 91.3562 112.023Z" fill="#583EF6"/>
<path opacity="0.5" d="M91.3562 112.023L103.587 105.504L103.07 100.794C103.07 100.794 107.333 100.126 106.355 97.3519C105.378 94.5778 101.444 89.326 100.643 87.5543C99.8424 85.7827 95.4291 82.5105 95.4291 82.5105L93.67 80.0642C95.1895 80.0642 96.1919 80.1651 96.1919 80.1651C96.1919 80.1651 101.961 85.4422 102.453 85.8394C102.944 86.2366 107.364 93.443 108.587 96.2675C109.81 99.0921 108.713 104.369 107.957 108.877C107.2 113.385 102.434 127.899 102.434 127.899L103.663 164.593C103.663 164.593 101.652 165.437 99.0354 166.402C99.3948 152.998 100.038 127.533 99.7983 127.174C99.4704 126.688 93.7646 118.858 92.138 117.086C90.5113 115.314 99.3065 117.571 98.821 117.25C98.3356 116.928 91.3562 112.023 91.3562 112.023Z" fill="white"/>
<path d="M79.6608 106.191C79.6608 106.191 75.4429 146.718 76.4453 161.528L79.6608 106.191Z" fill="white"/>
<path d="M79.6608 106.191C79.6608 106.191 75.4429 146.718 76.4453 161.528" stroke="#263238" stroke-linecap="round" stroke-linejoin="round"/>
<path d="M96.2045 80.1588C96.2045 80.1588 101.973 85.4359 102.465 85.8331C102.957 86.2303 107.377 93.4367 108.6 96.2612C109.823 99.0858 108.726 104.363 107.969 108.871C107.213 113.379 102.446 127.892 102.446 127.892L103.676 164.586C103.676 164.586 95.2084 168.148 90.4356 169C85.6629 169.851 78.0404 169.491 78.0404 169.491L76.4453 161.516L74.4845 169.119C74.4845 169.119 67.0007 168.262 63.5646 164.46L67.7321 117.698L70.0649 96.7089C70.0649 96.7089 70.6953 91.665 71.9058 89.471C73.1164 87.2769 79.7616 82.9644 84.4272 81.2747C89.0927 79.585 96.2045 80.1588 96.2045 80.1588Z" stroke="#263238" stroke-linecap="round" stroke-linejoin="round"/>
<path d="M96.9421 81.1297C96.9421 81.1297 86.0222 94.2626 84.1812 97.6987C82.3402 101.135 79.6355 105.309 79.6355 105.309C79.6355 105.309 79.5157 93.6447 81.1108 88.2478C82.7059 82.8509 84.4208 81.8799 84.4208 81.8799C85.3296 80.9481 86.4565 80.2577 87.6994 79.8713C88.9423 79.4849 90.262 79.4147 91.5389 79.667C96.2045 80.4046 96.9421 81.1297 96.9421 81.1297Z" fill="white" stroke="#263238" stroke-linecap="round" stroke-linejoin="round"/>
<path d="M79.9255 96.3181L82.5861 90.8392V86.0539L86.2681 82.271L86.6338 88.4056L83.9353 91.476L82.6744 100.372C81.1423 102.995 79.6166 105.347 79.6166 105.347C79.6166 105.347 79.5913 100.946 79.9255 96.3181Z" fill="#263238" stroke="#263238" stroke-linecap="round" stroke-linejoin="round"/>
<path d="M84.673 85.0703L81.1108 88.2605L84.1813 80.8965C84.1813 80.8965 85.5305 84.3326 84.673 85.0703Z" fill="white" stroke="#263238" stroke-linecap="round" stroke-linejoin="round"/>
<path d="M92.4028 53.0356C92.4028 53.0356 97.3079 55.2486 99.3948 59.1765C101.482 63.1044 98.4175 67.8897 97.434 69.1129C96.7283 69.9592 95.9475 70.7399 95.1012 71.4456L94.1177 72.549L93.9979 78.072L85.0514 85.6819L82.5988 77.8261C82.5988 77.8261 78.425 76.9686 77.8072 75.3735C77.1893 73.7784 79.0366 63.9618 79.5284 61.9948C80.0202 60.0277 81.4892 56.2322 81.4892 56.2322C81.4892 56.2322 81.0037 54.3912 83.8219 52.67C86.6402 50.9488 92.4028 53.0356 92.4028 53.0356Z" fill="white"/>
<g opacity="0.15">
<path opacity="0.15" d="M92.4028 53.0356C92.4028 53.0356 97.3079 55.2486 99.3948 59.1765C101.482 63.1044 98.4175 67.8897 97.434 69.1129C96.7283 69.9592 95.9475 70.7399 95.1012 71.4456L94.1177 72.549L93.9979 78.072L85.0514 85.6819L82.5988 77.8261C82.5988 77.8261 78.425 76.9686 77.8072 75.3735C77.1893 73.7784 79.0366 63.9618 79.5284 61.9948C80.0202 60.0277 81.4892 56.2322 81.4892 56.2322C81.4892 56.2322 81.0037 54.3912 83.8219 52.67C86.6402 50.9488 92.4028 53.0356 92.4028 53.0356Z" fill="black"/>
<g opacity="0.15">
<path opacity="0.15" d="M89.0675 73.3749C89.5592 70.9286 87.5985 64.5482 89.698 60.3303C91.3813 56.9572 96.2549 57.1779 98.1842 57.4364C98.6411 57.9719 99.0385 58.5553 99.3695 59.1765C101.456 63.1044 98.3923 67.8897 97.4087 69.1129C96.703 69.9592 95.9222 70.7399 95.0759 71.4456L94.0924 72.549L93.9726 78.072L91.5011 80.1715C91.5011 79.4653 91.5011 78.9105 91.5011 78.589C91.5011 77.5108 86.6086 77.4478 85.3035 76.9623C83.9984 76.4769 88.582 75.8212 89.0675 73.3749Z" fill="black"/>
<path opacity="0.5" d="M89.0675 73.3749C89.5592 70.9286 87.5985 64.5482 89.698 60.3303C91.3813 56.9572 96.2549 57.1779 98.1842 57.4364C98.6411 57.9719 99.0385 58.5553 99.3695 59.1765C101.456 63.1044 98.3923 67.8897 97.4087 69.1129C96.703 69.9592 95.9222 70.7399 95.0759 71.4456L94.0924 72.549L93.9726 78.072L91.5011 80.1715C91.5011 79.4653 91.5011 78.9105 91.5011 78.589C91.5011 77.5108 86.6086 77.4478 85.3035 76.9623C83.9984 76.4769 88.582 75.8212 89.0675 73.3749Z" fill="black"/>
</g>
</g>
<g style="mix-blend-mode:multiply" opacity="0.22">
<path d="M89.0675 73.3749C89.5592 70.9286 87.5985 64.5482 89.698 60.3303C91.3813 56.9572 96.2549 57.1779 98.1842 57.4364C98.6411 57.9719 99.0385 58.5553 99.3695 59.1765C101.456 63.1044 98.3923 67.8897 97.4087 69.1129C96.703 69.9592 95.9222 70.7399 95.0759 71.4456L94.0924 72.549L93.9726 78.072L91.5011 80.1715C91.5011 79.4653 91.5011 78.9105 91.5011 78.589C91.5011 77.5108 86.6086 77.4478 85.3035 76.9623C83.9984 76.4769 88.582 75.8212 89.0675 73.3749Z" fill="black"/>
</g>
<path d="M92.4028 53.0356C92.4028 53.0356 97.3079 55.2486 99.3948 59.1765C101.482 63.1044 98.4175 67.8897 97.434 69.1129C96.7283 69.9592 95.9475 70.7399 95.1012 71.4456L94.1177 72.549L93.9979 78.072L85.0514 85.6819L82.5988 77.8261C82.5988 77.8261 78.425 76.9686 77.8072 75.3735C77.1893 73.7784 79.0366 63.9618 79.5284 61.9948C80.0202 60.0277 81.4892 56.2322 81.4892 56.2322C81.4892 56.2322 81.0037 54.3912 83.8219 52.67C86.6402 50.9488 92.4028 53.0356 92.4028 53.0356Z" stroke="#263238" stroke-linecap="round" stroke-linejoin="round"/>
<path d="M91.0535 72.7949C91.0535 72.7949 90.5617 74.762 89.7042 75.2538C87.7207 76.3797 85.4785 76.9706 83.1977 76.9687" stroke="#263238" stroke-linecap="round" stroke-linejoin="round"/>
<path d="M79.5158 61.9946L80.2534 63.3439C80.2534 63.3439 77.3091 66.0486 77.4289 66.78C77.5487 67.5113 79.8814 68.3814 79.8814 68.3814" fill="white"/>
<path opacity="0.15" d="M79.5158 61.9946L80.2534 63.3439C80.2534 63.3439 77.3091 66.0486 77.4289 66.78C77.5487 67.5113 79.8814 68.3814 79.8814 68.3814" fill="black"/>
<path d="M79.5158 61.9946L80.2534 63.3439C80.2534 63.3439 77.3091 66.0486 77.4289 66.78C77.5487 67.5113 79.8814 68.3814 79.8814 68.3814" stroke="#263238" stroke-linecap="round" stroke-linejoin="round"/>
<path d="M83.2734 64.668L83.0779 65.1597L84.6982 65.8028L82.996 65.765" stroke="#263238" stroke-linecap="round" stroke-linejoin="round"/>
<path d="M83.0339 62.8962C83.0339 62.8962 85.1018 62.3287 85.9656 64.0626" stroke="#263238" stroke-linecap="round" stroke-linejoin="round"/>
<path d="M78.7466 70.1025C79.6882 70.372 80.6612 70.5161 81.6405 70.5313" stroke="#263238" stroke-linecap="round" stroke-linejoin="round"/>
<path d="M88.8342 56.9635C85.5242 55.0027 81.4702 56.2259 81.4702 56.2259C81.4702 56.2259 80.9847 54.3912 83.803 52.67C86.6212 50.9488 92.3964 53.0356 92.3964 53.0356C92.3964 53.0356 97.3015 55.2486 99.3884 59.1765C101.475 63.1044 98.4112 67.8897 97.4276 69.1129C96.7219 69.9592 95.9412 70.7399 95.0949 71.4456L94.1113 72.549V72.9966C92.119 72.757 91.7912 72.4292 91.7912 72.4292C92.0669 72.4356 92.3408 72.3826 92.5943 72.2738C92.8478 72.165 93.0749 72.003 93.2602 71.7987C94.1176 71.061 95.7127 69.8316 95.3471 68.1167C94.9814 66.4018 93.5061 66.3955 92.7684 67.0071C92.0307 67.6186 92.0307 67.7447 91.1733 67.379C90.3158 67.0134 91.5453 64.8004 91.5453 64.8004L90.2843 63.9429C89.0549 63.0855 88.6892 62.1019 89.6538 61.2445C90.6185 60.387 92.1568 58.9306 88.8342 56.9635Z" fill="#263238" stroke="#263238" stroke-linecap="round" stroke-linejoin="round"/>
<path d="M95.2209 76.8489L96.9421 81.1424L87.1256 90.5933L84.5469 85.5621L95.2209 76.8489Z" fill="white" stroke="#263238" stroke-linecap="round" stroke-linejoin="round"/>
<path d="M69.4532 46.693C69.4532 46.693 63.0728 57.9848 62.0892 63.3818C61.1057 68.7787 59.2647 75.8968 59.2647 75.8968L43.1875 74.0558C43.1875 74.0558 45.5203 59.0882 46.9704 54.057C48.4205 49.0257 48.8113 47.9161 48.8113 47.9161C48.8113 47.9161 66.7674 46.0751 69.4532 46.693Z" fill="#263238" stroke="#263238" stroke-linecap="round" stroke-linejoin="round"/>
<path d="M67.2404 84.3703C67.2404 84.3703 66.6099 79.957 66.6099 79.5787C66.6099 79.2004 66.7675 72.9335 66.7675 72.9335C66.7675 72.9335 64.4347 67.8896 64.0627 67.6563C63.6908 67.4231 59.7692 65.4497 59.5233 66.3071C59.2774 67.1646 60.3807 67.5366 60.7527 67.9022C61.1247 68.2679 62.7135 69.0056 62.8396 69.3776C62.9657 69.7495 63.6971 72.5678 63.6971 72.5678C63.6971 72.5678 60.5068 70.1152 59.6494 70.1152C58.7919 70.1152 58.0543 72.076 58.0543 72.076C58.0543 72.076 56.9446 73.6711 56.9446 74.5286C56.9446 75.386 56.6988 76.3696 57.3166 76.9874C57.9345 77.6053 58.1741 78.0908 59.0315 78.0908C59.889 78.0908 60.9986 79.0743 60.9986 79.8057C60.9986 80.537 60.9986 82.9959 61.7363 83.7336C62.8755 84.6922 64.0623 85.5928 65.2922 86.432L67.2404 84.3703Z" fill="white"/>
<path opacity="0.15" d="M67.2404 84.3703C67.2404 84.3703 66.6099 79.957 66.6099 79.5787C66.6099 79.2004 66.7675 72.9335 66.7675 72.9335C66.7675 72.9335 64.4347 67.8896 64.0627 67.6563C63.6908 67.4231 59.7692 65.4497 59.5233 66.3071C59.2774 67.1646 60.3807 67.5366 60.7527 67.9022C61.1247 68.2679 62.7135 69.0056 62.8396 69.3776C62.9657 69.7495 63.6971 72.5678 63.6971 72.5678C63.6971 72.5678 60.5068 70.1152 59.6494 70.1152C58.7919 70.1152 58.0543 72.076 58.0543 72.076C58.0543 72.076 56.9446 73.6711 56.9446 74.5286C56.9446 75.386 56.6988 76.3696 57.3166 76.9874C57.9345 77.6053 58.1741 78.0908 59.0315 78.0908C59.889 78.0908 60.9986 79.0743 60.9986 79.8057C60.9986 80.537 60.9986 82.9959 61.7363 83.7336C62.8755 84.6922 64.0623 85.5928 65.2922 86.432L67.2404 84.3703Z" fill="black" stroke="#263238" stroke-linecap="round" stroke-linejoin="round"/>
<path d="M67.2404 84.3703C67.2404 84.3703 66.6099 79.957 66.6099 79.5787C66.6099 79.2004 66.7675 72.9335 66.7675 72.9335C66.7675 72.9335 64.4347 67.8896 64.0627 67.6563C63.6908 67.4231 59.7692 65.4497 59.5233 66.3071C59.2774 67.1646 60.3807 67.5366 60.7527 67.9022C61.1247 68.2679 62.7135 69.0056 62.8396 69.3776C62.9657 69.7495 63.6971 72.5678 63.6971 72.5678C63.6971 72.5678 60.5068 70.1152 59.6494 70.1152C58.7919 70.1152 58.0543 72.076 58.0543 72.076C58.0543 72.076 56.9446 73.6711 56.9446 74.5286C56.9446 75.386 56.6988 76.3696 57.3166 76.9874C57.9345 77.6053 58.1741 78.0908 59.0315 78.0908C59.889 78.0908 60.9986 79.0743 60.9986 79.8057C60.9986 80.537 60.9986 82.9959 61.7363 83.7336C62.8755 84.6922 64.0623 85.5928 65.2922 86.432L67.2404 84.3703Z" stroke="#263238" stroke-linecap="round" stroke-linejoin="round"/>
<path d="M56.9319 74.5476L61.1057 76.5147" stroke="#263238" stroke-linecap="round" stroke-linejoin="round"/>
<path d="M58.0416 72.095L61.9631 74.4277" stroke="#263238" stroke-linecap="round" stroke-linejoin="round"/>
<path d="M42.576 70.9917C42.576 70.9917 45.2744 72.5869 45.2744 73.3245C45.2744 74.0622 44.6439 74.182 43.8054 73.8163C42.9668 73.4506 41.3465 72.9525 41.3465 72.0951C41.3465 71.2376 41.7185 70.8656 42.576 70.9917Z" fill="white"/>
<path opacity="0.15" d="M42.576 70.9917C42.576 70.9917 45.2744 72.5869 45.2744 73.3245C45.2744 74.0622 44.6439 74.182 43.8054 73.8163C42.9668 73.4506 41.3465 72.9525 41.3465 72.0951C41.3465 71.2376 41.7185 70.8656 42.576 70.9917Z" fill="black" stroke="#263238" stroke-linecap="round" stroke-linejoin="round"/>
<path d="M42.576 70.9917C42.576 70.9917 45.2744 72.5869 45.2744 73.3245C45.2744 74.0622 44.6439 74.182 43.8054 73.8163C42.9668 73.4506 41.3465 72.9525 41.3465 72.0951C41.3465 71.2376 41.7185 70.8656 42.576 70.9917Z" stroke="#263238" stroke-linecap="round" stroke-linejoin="round"/>
<path d="M43.0678 69.2704C43.0678 69.2704 45.6464 69.9009 45.7662 70.8655C45.886 71.8302 42.576 71.1114 41.8383 70.8655C41.1007 70.6196 41.1007 68.9047 43.0678 69.2704Z" fill="white"/>
<path opacity="0.15" d="M43.0678 69.2704C43.0678 69.2704 45.6464 69.9009 45.7662 70.8655C45.886 71.8302 42.576 71.1114 41.8383 70.8655C41.1007 70.6196 41.1007 68.9047 43.0678 69.2704Z" fill="black" stroke="#263238" stroke-linecap="round" stroke-linejoin="round"/>
<path d="M43.0678 69.2704C43.0678 69.2704 45.6464 69.9009 45.7662 70.8655C45.886 71.8302 42.576 71.1114 41.8383 70.8655C41.1007 70.6196 41.1007 68.9047 43.0678 69.2704Z" stroke="#263238" stroke-linecap="round" stroke-linejoin="round"/>
<path d="M41.7185 72.9336C41.7185 72.9336 44.7826 74.4089 44.9087 74.9007C45.0348 75.3925 45.2744 76.1238 44.0513 76.1238C42.8281 76.1238 40.4891 74.9007 40.3693 74.0369C40.2495 73.1732 40.7349 72.9336 41.7185 72.9336Z" fill="white"/>
<path opacity="0.15" d="M41.7185 72.9336C41.7185 72.9336 44.7826 74.4089 44.9087 74.9007C45.0348 75.3925 45.2744 76.1238 44.0513 76.1238C42.8281 76.1238 40.4891 74.9007 40.3693 74.0369C40.2495 73.1732 40.7349 72.9336 41.7185 72.9336Z" fill="black" stroke="#263238" stroke-linecap="round" stroke-linejoin="round"/>
<path d="M41.7185 72.9336C41.7185 72.9336 44.7826 74.4089 44.9087 74.9007C45.0348 75.3925 45.2744 76.1238 44.0513 76.1238C42.8281 76.1238 40.4891 74.9007 40.3693 74.0369C40.2495 73.1732 40.7349 72.9336 41.7185 72.9336Z" stroke="#263238" stroke-linecap="round" stroke-linejoin="round"/>
<path d="M40.7538 74.6736C40.7538 74.6736 43.591 75.9724 43.7045 76.4074C43.818 76.8424 44.0449 77.4918 42.9101 77.4918C41.7752 77.4918 39.619 76.4074 39.5055 75.6508C39.392 74.8943 39.8459 74.6736 40.7538 74.6736Z" fill="white"/>
<path opacity="0.15" d="M40.7538 74.6736C40.7538 74.6736 43.591 75.9724 43.7045 76.4074C43.818 76.8424 44.0449 77.4918 42.9101 77.4918C41.7752 77.4918 39.619 76.4074 39.5055 75.6508C39.392 74.8943 39.8459 74.6736 40.7538 74.6736Z" fill="black" stroke="#263238" stroke-linecap="round" stroke-linejoin="round"/>
<path d="M40.7538 74.6736C40.7538 74.6736 43.591 75.9724 43.7045 76.4074C43.818 76.8424 44.0449 77.4918 42.9101 77.4918C41.7752 77.4918 39.619 76.4074 39.5055 75.6508C39.392 74.8943 39.8459 74.6736 40.7538 74.6736Z" stroke="#263238" stroke-linecap="round" stroke-linejoin="round"/>
<path d="M64.7626 48.3008C64.7626 48.3008 59.6431 57.2221 58.6974 60.8473C57.7516 64.4726 56.9635 74.5602 56.9635 74.5602L46.7183 73.2993C46.7183 73.2993 47.0335 64.1573 48.4521 59.744C49.8707 55.3306 50.974 49.6563 50.974 49.6563L64.7626 48.3008Z" fill="#7D7D7D"/>
<path d="M56.27 61.7551C56.27 61.7551 57.4427 63.9366 56.7744 64.8634C56.106 65.7902 54.5109 66.2063 54.3407 66.4585C54.1705 66.7107 52.9978 73.8414 52.9978 73.8414L49.3914 73.5073C49.3914 73.5073 51.1505 66.8746 50.7344 65.62C50.3183 64.3653 49.3032 63.1863 50.3119 62.0956C51.3207 61.0049 52.9158 60.2483 53.9183 60.4122C54.7875 60.6903 55.5887 61.1478 56.27 61.7551Z" fill="white"/>
<path d="M59.5421 49.0825C59.5421 49.0825 56.6041 56.6483 56.8563 57.9786C57.1085 59.3089 57.7831 61.503 56.2699 61.7615C54.7568 62.02 54.0885 60.5888 53.5841 60.6707C53.0797 60.7527 52.2412 62.3478 51.4846 61.4273C50.728 60.5068 49.9777 58.9937 51.2324 57.4805C52.487 55.9674 53.4139 55.1351 54.0885 53.54C54.6036 52.2205 55.0518 50.8759 55.4314 49.5112L59.5421 49.0825Z" fill="white"/>
<path d="M96.8223 88.2919C96.8223 88.2919 94.9813 88.2919 92.7684 90.259C90.5554 92.2261 82.6807 100.202 82.6807 100.202L67.3411 83.5066L62.2973 88.2919L80.4992 114.923C81.3666 115.219 82.2827 115.345 83.1977 115.295C84.5469 115.169 105.164 104.987 105.164 104.987" fill="white"/>
<path d="M85.6439 111.197C88.4181 111.197 97.7113 105.977 100.643 103.695C101.634 102.892 102.456 101.902 103.064 100.782L105.164 104.987C105.164 104.987 84.5469 115.169 83.1977 115.296C82.2827 115.345 81.3666 115.219 80.4992 114.924L67.3474 95.6309C72.0886 100.284 83.4625 111.197 85.6439 111.197Z" fill="#583EF6"/>
<path opacity="0.5" d="M85.6439 111.197C88.4181 111.197 97.7113 105.977 100.643 103.695C101.634 102.892 102.456 101.902 103.064 100.782L105.164 104.987C105.164 104.987 84.5469 115.169 83.1977 115.296C82.2827 115.345 81.3666 115.219 80.4992 114.924L67.3474 95.6309C72.0886 100.284 83.4625 111.197 85.6439 111.197Z" fill="white"/>
<path d="M96.8223 88.2919C96.8223 88.2919 94.9813 88.2919 92.7684 90.259C90.5554 92.2261 82.6807 100.202 82.6807 100.202L67.3411 83.5066L62.2973 88.2919L80.4992 114.923C81.3666 115.219 82.2827 115.345 83.1977 115.295C84.5469 115.169 105.164 104.987 105.164 104.987" stroke="#263238" stroke-linecap="round" stroke-linejoin="round"/>
<path d="M96.8224 109.281L103.568 109.155" stroke="#263238" stroke-linecap="round" stroke-linejoin="round"/>
<path d="M82.7059 99.9622C82.7059 99.9622 86.596 104.615 87.0688 107.137" stroke="#263238" stroke-linecap="round" stroke-linejoin="round"/>
<path d="M83.9165 100.441C83.9165 100.441 87.2265 103.436 88.0146 105.012" stroke="#263238" stroke-linecap="round" stroke-linejoin="round"/>
</g>
<path d="M15.8594 18.3516H11.3594V23H9.01562V11.625H16.4219V13.5234H11.3594V16.4609H15.8594V18.3516ZM20.0156 23H17.75V14.5469H20.0156V23ZM17.6172 12.3594C17.6172 12.0208 17.7292 11.7422 17.9531 11.5234C18.1823 11.3047 18.4922 11.1953 18.8828 11.1953C19.2682 11.1953 19.5755 11.3047 19.8047 11.5234C20.0339 11.7422 20.1484 12.0208 20.1484 12.3594C20.1484 12.7031 20.0312 12.9844 19.7969 13.2031C19.5677 13.4219 19.263 13.5312 18.8828 13.5312C18.5026 13.5312 18.1953 13.4219 17.9609 13.2031C17.7318 12.9844 17.6172 12.7031 17.6172 12.3594ZM26.6328 16.6641C26.3255 16.6224 26.0547 16.6016 25.8203 16.6016C24.9661 16.6016 24.4062 16.8906 24.1406 17.4688V23H21.8828V14.5469H24.0156L24.0781 15.5547C24.5312 14.7786 25.1589 14.3906 25.9609 14.3906C26.2109 14.3906 26.4453 14.4245 26.6641 14.4922L26.6328 16.6641ZM32.3047 20.6641C32.3047 20.388 32.1667 20.1719 31.8906 20.0156C31.6198 19.8542 31.1823 19.7109 30.5781 19.5859C28.5677 19.1641 27.5625 18.3099 27.5625 17.0234C27.5625 16.2734 27.8724 15.6484 28.4922 15.1484C29.1172 14.6432 29.9323 14.3906 30.9375 14.3906C32.0104 14.3906 32.8672 14.6432 33.5078 15.1484C34.1536 15.6536 34.4766 16.3099 34.4766 17.1172H32.2188C32.2188 16.7943 32.1146 16.5286 31.9062 16.3203C31.6979 16.1068 31.3724 16 30.9297 16C30.5495 16 30.2552 16.0859 30.0469 16.2578C29.8385 16.4297 29.7344 16.6484 29.7344 16.9141C29.7344 17.1641 29.8516 17.3672 30.0859 17.5234C30.3255 17.6745 30.7266 17.8073 31.2891 17.9219C31.8516 18.0312 32.3255 18.1562 32.7109 18.2969C33.9036 18.7344 34.5 19.4922 34.5 20.5703C34.5 21.3411 34.1693 21.9661 33.5078 22.4453C32.8464 22.9193 31.9922 23.1562 30.9453 23.1562C30.237 23.1562 29.6068 23.0312 29.0547 22.7812C28.5078 22.526 28.0781 22.1797 27.7656 21.7422C27.4531 21.2995 27.2969 20.8229 27.2969 20.3125H29.4375C29.4583 20.7135 29.6068 21.0208 29.8828 21.2344C30.1589 21.4479 30.5286 21.5547 30.9922 21.5547C31.4245 21.5547 31.75 21.474 31.9688 21.3125C32.1927 21.1458 32.3047 20.9297 32.3047 20.6641ZM38.6641 12.4688V14.5469H40.1094V16.2031H38.6641V20.4219C38.6641 20.7344 38.724 20.9583 38.8438 21.0938C38.9635 21.2292 39.1927 21.2969 39.5312 21.2969C39.7812 21.2969 40.0026 21.2786 40.1953 21.2422V22.9531C39.7526 23.0885 39.2969 23.1562 38.8281 23.1562C37.2448 23.1562 36.4375 22.3568 36.4062 20.7578V16.2031H35.1719V14.5469H36.4062V12.4688H38.6641ZM13.7656 42C13.6615 41.7969 13.5859 41.5443 13.5391 41.2422C12.9922 41.8516 12.2812 42.1562 11.4062 42.1562C10.5781 42.1562 9.89062 41.9167 9.34375 41.4375C8.80208 40.9583 8.53125 40.3542 8.53125 39.625C8.53125 38.7292 8.86198 38.0417 9.52344 37.5625C10.1901 37.0833 11.151 36.8411 12.4062 36.8359H13.4453V36.3516C13.4453 35.9609 13.3438 35.6484 13.1406 35.4141C12.9427 35.1797 12.6276 35.0625 12.1953 35.0625C11.8151 35.0625 11.5156 35.1536 11.2969 35.3359C11.0833 35.5182 10.9766 35.7682 10.9766 36.0859H8.71875C8.71875 35.5964 8.86979 35.1432 9.17188 34.7266C9.47396 34.3099 9.90104 33.9844 10.4531 33.75C11.0052 33.5104 11.625 33.3906 12.3125 33.3906C13.3542 33.3906 14.1797 33.6536 14.7891 34.1797C15.4036 34.7005 15.7109 35.4349 15.7109 36.3828V40.0469C15.7161 40.849 15.8281 41.4557 16.0469 41.8672V42H13.7656ZM11.8984 40.4297C12.2318 40.4297 12.5391 40.3568 12.8203 40.2109C13.1016 40.0599 13.3099 39.8594 13.4453 39.6094V38.1562H12.6016C11.4714 38.1562 10.8698 38.5469 10.7969 39.3281L10.7891 39.4609C10.7891 39.7422 10.888 39.974 11.0859 40.1562C11.2839 40.3385 11.5547 40.4297 11.8984 40.4297ZM25.0547 37.8516C25.0547 39.1536 24.7578 40.1979 24.1641 40.9844C23.5755 41.7656 22.7786 42.1562 21.7734 42.1562C20.9193 42.1562 20.2292 41.8594 19.7031 41.2656V45.25H17.4453V33.5469H19.5391L19.6172 34.375C20.1641 33.7188 20.8776 33.3906 21.7578 33.3906C22.7995 33.3906 23.6094 33.776 24.1875 34.5469C24.7656 35.3177 25.0547 36.3802 25.0547 37.7344V37.8516ZM22.7969 37.6875C22.7969 36.901 22.6562 36.2943 22.375 35.8672C22.099 35.4401 21.6953 35.2266 21.1641 35.2266C20.4557 35.2266 19.9688 35.4974 19.7031 36.0391V39.5C19.9792 40.0573 20.4714 40.3359 21.1797 40.3359C22.2578 40.3359 22.7969 39.4531 22.7969 37.6875ZM34.0703 37.8516C34.0703 39.1536 33.7734 40.1979 33.1797 40.9844C32.5911 41.7656 31.7943 42.1562 30.7891 42.1562C29.9349 42.1562 29.2448 41.8594 28.7188 41.2656V45.25H26.4609V33.5469H28.5547L28.6328 34.375C29.1797 33.7188 29.8932 33.3906 30.7734 33.3906C31.8151 33.3906 32.625 33.776 33.2031 34.5469C33.7812 35.3177 34.0703 36.3802 34.0703 37.7344V37.8516ZM31.8125 37.6875C31.8125 36.901 31.6719 36.2943 31.3906 35.8672C31.1146 35.4401 30.7109 35.2266 30.1797 35.2266C29.4714 35.2266 28.9844 35.4974 28.7188 36.0391V39.5C28.9948 40.0573 29.487 40.3359 30.1953 40.3359C31.2734 40.3359 31.8125 39.4531 31.8125 37.6875ZM35.125 37.6953C35.125 36.8568 35.2865 36.1094 35.6094 35.4531C35.9323 34.7969 36.3958 34.2891 37 33.9297C37.6094 33.5703 38.3151 33.3906 39.1172 33.3906C40.2578 33.3906 41.1875 33.7396 41.9062 34.4375C42.6302 35.1354 43.0339 36.0833 43.1172 37.2812L43.1328 37.8594C43.1328 39.1562 42.7708 40.1979 42.0469 40.9844C41.3229 41.7656 40.3516 42.1562 39.1328 42.1562C37.9141 42.1562 36.9401 41.7656 36.2109 40.9844C35.487 40.2031 35.125 39.1406 35.125 37.7969V37.6953ZM37.3828 37.8594C37.3828 38.6615 37.5339 39.276 37.8359 39.7031C38.138 40.125 38.5703 40.3359 39.1328 40.3359C39.6797 40.3359 40.1068 40.1276 40.4141 39.7109C40.7214 39.2891 40.875 38.6172 40.875 37.6953C40.875 36.9089 40.7214 36.2995 40.4141 35.8672C40.1068 35.4349 39.6745 35.2188 39.1172 35.2188C38.5651 35.2188 38.138 35.4349 37.8359 35.8672C37.5339 36.2943 37.3828 36.9583 37.3828 37.8594ZM46.9062 42H44.6406V33.5469H46.9062V42ZM44.5078 31.3594C44.5078 31.0208 44.6198 30.7422 44.8438 30.5234C45.0729 30.3047 45.3828 30.1953 45.7734 30.1953C46.1589 30.1953 46.4661 30.3047 46.6953 30.5234C46.9245 30.7422 47.0391 31.0208 47.0391 31.3594C47.0391 31.7031 46.9219 31.9844 46.6875 32.2031C46.4583 32.4219 46.1536 32.5312 45.7734 32.5312C45.3932 32.5312 45.0859 32.4219 44.8516 32.2031C44.6224 31.9844 44.5078 31.7031 44.5078 31.3594ZM50.8516 33.5469L50.9219 34.5234C51.526 33.7682 52.3359 33.3906 53.3516 33.3906C54.2474 33.3906 54.9141 33.6536 55.3516 34.1797C55.7891 34.7057 56.013 35.4922 56.0234 36.5391V42H53.7656V36.5938C53.7656 36.1146 53.6615 35.7682 53.4531 35.5547C53.2448 35.3359 52.8984 35.2266 52.4141 35.2266C51.7786 35.2266 51.3021 35.4974 50.9844 36.0391V42H48.7266V33.5469H50.8516ZM60.4453 31.4688V33.5469H61.8906V35.2031H60.4453V39.4219C60.4453 39.7344 60.5052 39.9583 60.625 40.0938C60.7448 40.2292 60.974 40.2969 61.3125 40.2969C61.5625 40.2969 61.7839 40.2786 61.9766 40.2422V41.9531C61.5339 42.0885 61.0781 42.1562 60.6094 42.1562C59.026 42.1562 58.2188 41.3568 58.1875 39.7578V35.2031H56.9531V33.5469H58.1875V31.4688H60.4453ZM65.2656 33.5469L65.3359 34.4922C65.9349 33.7578 66.7448 33.3906 67.7656 33.3906C68.8542 33.3906 69.6016 33.8203 70.0078 34.6797C70.6016 33.8203 71.4479 33.3906 72.5469 33.3906C73.4635 33.3906 74.1458 33.6589 74.5938 34.1953C75.0417 34.7266 75.2656 35.5286 75.2656 36.6016V42H73V36.6094C73 36.1302 72.9062 35.7812 72.7188 35.5625C72.5312 35.3385 72.2005 35.2266 71.7266 35.2266C71.0495 35.2266 70.5807 35.5495 70.3203 36.1953L70.3281 42H68.0703V36.6172C68.0703 36.1276 67.974 35.7734 67.7812 35.5547C67.5885 35.3359 67.2604 35.2266 66.7969 35.2266C66.1562 35.2266 65.6927 35.4922 65.4062 36.0234V42H63.1484V33.5469H65.2656ZM80.8984 42.1562C79.6589 42.1562 78.6484 41.776 77.8672 41.0156C77.0911 40.2552 76.7031 39.2422 76.7031 37.9766V37.7578C76.7031 36.9089 76.8672 36.151 77.1953 35.4844C77.5234 34.8125 77.987 34.2969 78.5859 33.9375C79.1901 33.5729 79.8776 33.3906 80.6484 33.3906C81.8047 33.3906 82.7135 33.7552 83.375 34.4844C84.0417 35.2135 84.375 36.2474 84.375 37.5859V38.5078H78.9922C79.0651 39.0599 79.2839 39.5026 79.6484 39.8359C80.0182 40.1693 80.4844 40.3359 81.0469 40.3359C81.9167 40.3359 82.5964 40.0208 83.0859 39.3906L84.1953 40.6328C83.8568 41.112 83.3984 41.487 82.8203 41.7578C82.2422 42.0234 81.6016 42.1562 80.8984 42.1562ZM80.6406 35.2188C80.1927 35.2188 79.8281 35.3698 79.5469 35.6719C79.2708 35.974 79.0938 36.4062 79.0156 36.9688H82.1562V36.7891C82.1458 36.2891 82.0104 35.9036 81.75 35.6328C81.4896 35.3568 81.1198 35.2188 80.6406 35.2188ZM87.7422 33.5469L87.8125 34.5234C88.4167 33.7682 89.2266 33.3906 90.2422 33.3906C91.138 33.3906 91.8047 33.6536 92.2422 34.1797C92.6797 34.7057 92.9036 35.4922 92.9141 36.5391V42H90.6562V36.5938C90.6562 36.1146 90.5521 35.7682 90.3438 35.5547C90.1354 35.3359 89.7891 35.2266 89.3047 35.2266C88.6693 35.2266 88.1927 35.4974 87.875 36.0391V42H85.6172V33.5469H87.7422ZM97.3359 31.4688V33.5469H98.7812V35.2031H97.3359V39.4219C97.3359 39.7344 97.3958 39.9583 97.5156 40.0938C97.6354 40.2292 97.8646 40.2969 98.2031 40.2969C98.4531 40.2969 98.6745 40.2786 98.8672 40.2422V41.9531C98.4245 42.0885 97.9688 42.1562 97.5 42.1562C95.9167 42.1562 95.1094 41.3568 95.0781 39.7578V35.2031H93.8438V33.5469H95.0781V31.4688H97.3359ZM14.2578 61H12V52.2969L9.30469 53.1328V51.2969L14.0156 49.6094H14.2578V61ZM25.6172 56.2969C25.6172 57.8698 25.2917 59.0729 24.6406 59.9062C23.9896 60.7396 23.0365 61.1562 21.7812 61.1562C20.5417 61.1562 19.5938 60.7474 18.9375 59.9297C18.2812 59.112 17.9453 57.9401 17.9297 56.4141V54.3203C17.9297 52.7318 18.2578 51.526 18.9141 50.7031C19.5755 49.8802 20.526 49.4688 21.7656 49.4688C23.0052 49.4688 23.9531 49.8776 24.6094 50.6953C25.2656 51.5078 25.6016 52.6771 25.6172 54.2031V56.2969ZM23.3594 54C23.3594 53.0573 23.2292 52.3724 22.9688 51.9453C22.7135 51.513 22.3125 51.2969 21.7656 51.2969C21.2344 51.2969 20.8411 51.5026 20.5859 51.9141C20.3359 52.3203 20.2031 52.9583 20.1875 53.8281V56.5938C20.1875 57.5208 20.3125 58.2109 20.5625 58.6641C20.8177 59.112 21.224 59.3359 21.7812 59.3359C22.3333 59.3359 22.7318 59.1198 22.9766 58.6875C23.2214 58.2552 23.349 57.5938 23.3594 56.7031V54ZM32.6328 61H30.375V52.2969L27.6797 53.1328V51.2969L32.3906 49.6094H32.6328V61Z" fill="#F9F8FC"/>
<defs>
<linearGradient id="paint0_linear_1607_44428" x1="0" y1="57.5" x2="117" y2="57.5" gradientUnits="userSpaceOnUse">
<stop stop-color="#A1C4FD"/>
<stop offset="1" stop-color="#C2E9FB"/>
</linearGradient>
</defs>
</svg>
