<svg width="352" height="30" viewBox="0 0 352 30" fill="none" xmlns="http://www.w3.org/2000/svg">
<rect x="0.513428" y="0.84375" width="71" height="29" rx="14.5" fill="#EBE5FB"/>
<path d="M17.3181 19.8438H15.9988L10.988 12.1738V19.8438H9.6687V9.89062H10.988L16.0125 17.5947V9.89062H17.3181V19.8438ZM24.0173 19.1123C23.5251 19.6911 22.8028 19.9805 21.8503 19.9805C21.0619 19.9805 20.4604 19.7526 20.0457 19.2969C19.6355 18.8366 19.4281 18.1576 19.4236 17.2598V12.4473H20.6882V17.2256C20.6882 18.3467 21.144 18.9072 22.0554 18.9072C23.0216 18.9072 23.6641 18.5472 23.9832 17.8271V12.4473H25.2478V19.8438H24.0447L24.0173 19.1123ZM28.8914 10.6562V12.4473H30.2722V13.4248H28.8914V18.0117C28.8914 18.3079 28.9529 18.5312 29.0759 18.6816C29.199 18.8275 29.4086 18.9004 29.7048 18.9004C29.8507 18.9004 30.0512 18.873 30.3064 18.8184V19.8438C29.9737 19.9349 29.6501 19.9805 29.3357 19.9805C28.7706 19.9805 28.3445 19.8096 28.0574 19.4678C27.7703 19.126 27.6267 18.6406 27.6267 18.0117V13.4248H26.28V12.4473H27.6267V10.6562H28.8914ZM35.3308 13.582C35.1394 13.5501 34.932 13.5342 34.7087 13.5342C33.8793 13.5342 33.3165 13.8874 33.0203 14.5938V19.8438H31.7556V12.4473H32.9861L33.0066 13.3018C33.4213 12.641 34.0092 12.3105 34.7703 12.3105C35.0164 12.3105 35.2032 12.3424 35.3308 12.4062V13.582ZM37.8738 19.8438H36.6091V12.4473H37.8738V19.8438ZM36.5066 10.4854C36.5066 10.2803 36.5681 10.1071 36.6912 9.96582C36.8188 9.82454 37.0056 9.75391 37.2517 9.75391C37.4978 9.75391 37.6847 9.82454 37.8123 9.96582C37.9399 10.1071 38.0037 10.2803 38.0037 10.4854C38.0037 10.6904 37.9399 10.8613 37.8123 10.998C37.6847 11.1348 37.4978 11.2031 37.2517 11.2031C37.0056 11.2031 36.8188 11.1348 36.6912 10.998C36.5681 10.8613 36.5066 10.6904 36.5066 10.4854ZM41.6199 10.6562V12.4473H43.0007V13.4248H41.6199V18.0117C41.6199 18.3079 41.6814 18.5312 41.8044 18.6816C41.9275 18.8275 42.1371 18.9004 42.4333 18.9004C42.5792 18.9004 42.7797 18.873 43.0349 18.8184V19.8438C42.7022 19.9349 42.3787 19.9805 42.0642 19.9805C41.4991 19.9805 41.073 19.8096 40.7859 19.4678C40.4988 19.126 40.3552 18.6406 40.3552 18.0117V13.4248H39.0085V12.4473H40.3552V10.6562H41.6199ZM45.8582 19.8438H44.5935V12.4473H45.8582V19.8438ZM44.491 10.4854C44.491 10.2803 44.5525 10.1071 44.6755 9.96582C44.8031 9.82454 44.99 9.75391 45.2361 9.75391C45.4822 9.75391 45.669 9.82454 45.7966 9.96582C45.9242 10.1071 45.988 10.2803 45.988 10.4854C45.988 10.6904 45.9242 10.8613 45.7966 10.998C45.669 11.1348 45.4822 11.2031 45.2361 11.2031C44.99 11.2031 44.8031 11.1348 44.6755 10.998C44.5525 10.8613 44.491 10.6904 44.491 10.4854ZM47.5535 16.0771C47.5535 15.3525 47.6947 14.7008 47.9773 14.1221C48.2644 13.5433 48.6609 13.0967 49.1667 12.7822C49.6772 12.4678 50.2582 12.3105 50.9099 12.3105C51.9171 12.3105 52.7306 12.6592 53.3503 13.3564C53.9747 14.0537 54.2869 14.9811 54.2869 16.1387V16.2275C54.2869 16.9476 54.1479 17.5947 53.8699 18.1689C53.5964 18.7386 53.2022 19.1829 52.6873 19.502C52.1768 19.821 51.5889 19.9805 50.9236 19.9805C49.921 19.9805 49.1075 19.6318 48.4832 18.9346C47.8634 18.2373 47.5535 17.3145 47.5535 16.166V16.0771ZM48.825 16.2275C48.825 17.0479 49.0141 17.7064 49.3923 18.2031C49.7751 18.6999 50.2856 18.9482 50.9236 18.9482C51.5662 18.9482 52.0766 18.6976 52.4548 18.1963C52.8331 17.6904 53.0222 16.984 53.0222 16.0771C53.0222 15.266 52.8285 14.6097 52.4412 14.1084C52.0583 13.6025 51.5479 13.3496 50.9099 13.3496C50.2856 13.3496 49.782 13.598 49.3992 14.0947C49.0164 14.5915 48.825 15.3024 48.825 16.2275ZM57.0691 12.4473L57.1101 13.377C57.6752 12.666 58.4135 12.3105 59.325 12.3105C60.8881 12.3105 61.6765 13.1924 61.6902 14.9561V19.8438H60.4255V14.9492C60.421 14.416 60.2979 14.0218 60.0564 13.7666C59.8194 13.5114 59.448 13.3838 58.9421 13.3838C58.532 13.3838 58.172 13.4932 57.8621 13.7119C57.5522 13.9307 57.3106 14.2178 57.1375 14.5732V19.8438H55.8728V12.4473H57.0691Z" fill="#7C7195"/>
<rect x="79.5134" y="0.84375" width="71" height="29" rx="14.5" fill="#EBE5FB"/>
<path d="M95.99 16.6855C95.8669 17.7383 95.4773 18.5518 94.821 19.126C94.1694 19.6956 93.3012 19.9805 92.2166 19.9805C91.0408 19.9805 90.0974 19.5589 89.3865 18.7158C88.6801 17.8727 88.3269 16.7448 88.3269 15.332V14.375C88.3269 13.4499 88.491 12.6364 88.8191 11.9346C89.1518 11.2327 89.6212 10.695 90.2273 10.3213C90.8334 9.94303 91.5352 9.75391 92.3328 9.75391C93.3901 9.75391 94.2377 10.0501 94.8757 10.6426C95.5138 11.2305 95.8852 12.0462 95.99 13.0898H94.6707C94.5567 12.2969 94.3083 11.7227 93.9255 11.3672C93.5473 11.0117 93.0164 10.834 92.3328 10.834C91.4942 10.834 90.8357 11.1439 90.3572 11.7637C89.8832 12.3835 89.6462 13.2653 89.6462 14.4092V15.373C89.6462 16.4531 89.8718 17.3122 90.323 17.9502C90.7742 18.5882 91.4054 18.9072 92.2166 18.9072C92.9457 18.9072 93.504 18.7432 93.8914 18.415C94.2833 18.0824 94.5431 17.5059 94.6707 16.6855H95.99ZM98.8542 13.3428C99.4148 12.6546 100.144 12.3105 101.042 12.3105C102.605 12.3105 103.393 13.1924 103.407 14.9561V19.8438H102.142V14.9492C102.138 14.416 102.015 14.0218 101.773 13.7666C101.536 13.5114 101.165 13.3838 100.659 13.3838C100.249 13.3838 99.8888 13.4932 99.5789 13.7119C99.269 13.9307 99.0274 14.2178 98.8542 14.5732V19.8438H97.5896V9.34375H98.8542V13.3428ZM109.867 19.8438C109.794 19.6979 109.735 19.4382 109.689 19.0645C109.101 19.6751 108.399 19.9805 107.584 19.9805C106.855 19.9805 106.255 19.7754 105.786 19.3652C105.321 18.9505 105.089 18.4264 105.089 17.793C105.089 17.0228 105.38 16.4258 105.964 16.002C106.552 15.5736 107.376 15.3594 108.438 15.3594H109.669V14.7783C109.669 14.3363 109.537 13.9854 109.272 13.7256C109.008 13.4613 108.618 13.3291 108.103 13.3291C107.652 13.3291 107.274 13.443 106.969 13.6709C106.663 13.8988 106.51 14.1745 106.51 14.498H105.239C105.239 14.1289 105.369 13.7734 105.629 13.4316C105.893 13.0853 106.248 12.8118 106.695 12.6113C107.146 12.4108 107.641 12.3105 108.178 12.3105C109.031 12.3105 109.698 12.5247 110.181 12.9531C110.664 13.377 110.915 13.9626 110.933 14.71V18.1143C110.933 18.7933 111.02 19.3333 111.193 19.7344V19.8438H109.867ZM107.768 18.8799C108.165 18.8799 108.541 18.7773 108.896 18.5723C109.252 18.3672 109.509 18.1006 109.669 17.7725V16.2549H108.677C107.128 16.2549 106.353 16.7083 106.353 17.6152C106.353 18.0117 106.485 18.3216 106.75 18.5449C107.014 18.7682 107.354 18.8799 107.768 18.8799ZM114.112 12.4473L114.153 13.377C114.718 12.666 115.456 12.3105 116.368 12.3105C117.931 12.3105 118.719 13.1924 118.733 14.9561V19.8438H117.469V14.9492C117.464 14.416 117.341 14.0218 117.099 13.7666C116.862 13.5114 116.491 13.3838 115.985 13.3838C115.575 13.3838 115.215 13.4932 114.905 13.7119C114.595 13.9307 114.354 14.2178 114.18 14.5732V19.8438H112.916V12.4473H114.112ZM120.34 16.084C120.34 14.931 120.606 14.015 121.139 13.3359C121.673 12.6523 122.379 12.3105 123.259 12.3105C124.161 12.3105 124.865 12.6296 125.371 13.2676L125.432 12.4473H126.588V19.666C126.588 20.623 126.303 21.3773 125.733 21.9287C125.168 22.4801 124.407 22.7559 123.45 22.7559C122.917 22.7559 122.395 22.6419 121.885 22.4141C121.374 22.1862 120.984 21.874 120.716 21.4775L121.372 20.7188C121.914 21.3887 122.577 21.7236 123.361 21.7236C123.976 21.7236 124.455 21.5505 124.797 21.2041C125.143 20.8577 125.316 20.3701 125.316 19.7412V19.1055C124.81 19.6888 124.12 19.9805 123.245 19.9805C122.379 19.9805 121.677 19.6318 121.139 18.9346C120.606 18.2373 120.34 17.2871 120.34 16.084ZM121.611 16.2275C121.611 17.0615 121.782 17.7178 122.124 18.1963C122.466 18.6702 122.944 18.9072 123.559 18.9072C124.357 18.9072 124.942 18.5449 125.316 17.8203V14.4434C124.929 13.737 124.348 13.3838 123.573 13.3838C122.958 13.3838 122.477 13.623 122.131 14.1016C121.784 14.5801 121.611 15.2887 121.611 16.2275ZM131.571 19.9805C130.568 19.9805 129.753 19.6523 129.124 18.9961C128.495 18.3353 128.18 17.4535 128.18 16.3506V16.1182C128.18 15.3844 128.319 14.7305 128.597 14.1562C128.88 13.5775 129.272 13.1263 129.773 12.8027C130.279 12.4746 130.826 12.3105 131.414 12.3105C132.375 12.3105 133.123 12.6273 133.656 13.2607C134.189 13.8942 134.456 14.8011 134.456 15.9814V16.5078H129.445C129.463 17.237 129.675 17.8271 130.081 18.2783C130.491 18.7249 131.01 18.9482 131.639 18.9482C132.086 18.9482 132.464 18.8571 132.774 18.6748C133.084 18.4925 133.355 18.251 133.588 17.9502L134.36 18.5518C133.74 19.5042 132.811 19.9805 131.571 19.9805ZM131.414 13.3496C130.903 13.3496 130.475 13.5365 130.129 13.9102C129.782 14.2793 129.568 14.7988 129.486 15.4688H133.191V15.373C133.155 14.7305 132.982 14.2337 132.672 13.8828C132.362 13.5273 131.942 13.3496 131.414 13.3496ZM140.232 17.8818C140.232 17.54 140.102 17.2757 139.843 17.0889C139.587 16.8975 139.138 16.7334 138.496 16.5967C137.858 16.46 137.35 16.2959 136.971 16.1045C136.598 15.9131 136.32 15.6852 136.137 15.4209C135.96 15.1566 135.871 14.8421 135.871 14.4775C135.871 13.8714 136.126 13.3587 136.636 12.9395C137.151 12.5202 137.808 12.3105 138.605 12.3105C139.444 12.3105 140.123 12.527 140.642 12.96C141.166 13.3929 141.428 13.9466 141.428 14.6211H140.157C140.157 14.2747 140.009 13.9762 139.713 13.7256C139.421 13.4749 139.052 13.3496 138.605 13.3496C138.145 13.3496 137.785 13.4499 137.525 13.6504C137.265 13.8509 137.135 14.113 137.135 14.4365C137.135 14.7419 137.256 14.972 137.498 15.127C137.739 15.2819 138.175 15.43 138.803 15.5713C139.437 15.7126 139.95 15.8812 140.342 16.0771C140.733 16.2731 141.023 16.5101 141.21 16.7881C141.401 17.0615 141.497 17.3965 141.497 17.793C141.497 18.4538 141.233 18.9847 140.704 19.3857C140.175 19.7822 139.489 19.9805 138.646 19.9805C138.054 19.9805 137.53 19.8757 137.074 19.666C136.618 19.4564 136.26 19.1647 136.001 18.791C135.746 18.4128 135.618 18.0049 135.618 17.5674H136.883C136.905 17.9912 137.074 18.3285 137.388 18.5791C137.707 18.8252 138.127 18.9482 138.646 18.9482C139.125 18.9482 139.508 18.8525 139.795 18.6611C140.086 18.4652 140.232 18.2054 140.232 17.8818Z" fill="#7C7195"/>
<rect x="158.513" y="0.84375" width="66" height="29" rx="14.5" fill="#EBE5FB"/>
<path d="M167.669 19.8438V9.89062H170.478C171.344 9.89062 172.11 10.082 172.775 10.4648C173.441 10.8477 173.953 11.3923 174.313 12.0986C174.678 12.805 174.862 13.6162 174.867 14.5322V15.168C174.867 16.1068 174.685 16.9294 174.32 17.6357C173.96 18.3421 173.443 18.8844 172.768 19.2627C172.098 19.641 171.317 19.8346 170.424 19.8438H167.669ZM168.981 10.9707V18.7705H170.362C171.374 18.7705 172.16 18.4561 172.72 17.8271C173.286 17.1982 173.568 16.3027 173.568 15.1406V14.5596C173.568 13.4294 173.302 12.5521 172.768 11.9277C172.24 11.2988 171.488 10.9798 170.512 10.9707H168.981ZM179.727 19.9805C178.725 19.9805 177.909 19.6523 177.28 18.9961C176.651 18.3353 176.337 17.4535 176.337 16.3506V16.1182C176.337 15.3844 176.476 14.7305 176.754 14.1562C177.036 13.5775 177.428 13.1263 177.929 12.8027C178.435 12.4746 178.982 12.3105 179.57 12.3105C180.532 12.3105 181.279 12.6273 181.812 13.2607C182.345 13.8942 182.612 14.8011 182.612 15.9814V16.5078H177.601C177.62 17.237 177.831 17.8271 178.237 18.2783C178.647 18.7249 179.167 18.9482 179.796 18.9482C180.242 18.9482 180.621 18.8571 180.93 18.6748C181.24 18.4925 181.511 18.251 181.744 17.9502L182.516 18.5518C181.897 19.5042 180.967 19.9805 179.727 19.9805ZM179.57 13.3496C179.06 13.3496 178.631 13.5365 178.285 13.9102C177.939 14.2793 177.724 14.7988 177.642 15.4688H181.347V15.373C181.311 14.7305 181.138 14.2337 180.828 13.8828C180.518 13.5273 180.099 13.3496 179.57 13.3496ZM185.456 19.8438H184.191V9.34375H185.456V19.8438ZM188.86 19.8438H187.595V12.4473H188.86V19.8438ZM187.493 10.4854C187.493 10.2803 187.554 10.1071 187.677 9.96582C187.805 9.82454 187.992 9.75391 188.238 9.75391C188.484 9.75391 188.671 9.82454 188.799 9.96582C188.926 10.1071 188.99 10.2803 188.99 10.4854C188.99 10.6904 188.926 10.8613 188.799 10.998C188.671 11.1348 188.484 11.2031 188.238 11.2031C187.992 11.2031 187.805 11.1348 187.677 10.998C187.554 10.8613 187.493 10.6904 187.493 10.4854ZM193.331 18.1279L195.163 12.4473H196.455L193.802 19.8438H192.839L190.159 12.4473H191.451L193.331 18.1279ZM200.645 19.9805C199.643 19.9805 198.827 19.6523 198.198 18.9961C197.569 18.3353 197.255 17.4535 197.255 16.3506V16.1182C197.255 15.3844 197.394 14.7305 197.672 14.1562C197.954 13.5775 198.346 13.1263 198.847 12.8027C199.353 12.4746 199.9 12.3105 200.488 12.3105C201.45 12.3105 202.197 12.6273 202.73 13.2607C203.263 13.8942 203.53 14.8011 203.53 15.9814V16.5078H198.519C198.538 17.237 198.749 17.8271 199.155 18.2783C199.565 18.7249 200.085 18.9482 200.714 18.9482C201.16 18.9482 201.538 18.8571 201.848 18.6748C202.158 18.4925 202.429 18.251 202.662 17.9502L203.434 18.5518C202.815 19.5042 201.885 19.9805 200.645 19.9805ZM200.488 13.3496C199.978 13.3496 199.549 13.5365 199.203 13.9102C198.857 14.2793 198.642 14.7988 198.56 15.4688H202.265V15.373C202.229 14.7305 202.056 14.2337 201.746 13.8828C201.436 13.5273 201.017 13.3496 200.488 13.3496ZM208.575 13.582C208.384 13.5501 208.176 13.5342 207.953 13.5342C207.123 13.5342 206.561 13.8874 206.264 14.5938V19.8438H205V12.4473H206.23L206.251 13.3018C206.665 12.641 207.253 12.3105 208.014 12.3105C208.26 12.3105 208.447 12.3424 208.575 12.4062V13.582ZM212.287 17.9912L214.01 12.4473H215.363L212.389 20.9854C211.929 22.2158 211.198 22.8311 210.195 22.8311L209.956 22.8105L209.484 22.7217V21.6963L209.826 21.7236C210.254 21.7236 210.587 21.637 210.824 21.4639C211.066 21.2907 211.264 20.974 211.419 20.5137L211.699 19.7617L209.06 12.4473H210.441L212.287 17.9912Z" fill="#7C7195"/>
<rect x="232.513" y="0.84375" width="76" height="29" rx="14.5" fill="#EBE5FB"/>
<path d="M247.295 15.2432H242.981V18.7705H247.992V19.8438H241.669V9.89062H247.924V10.9707H242.981V14.1699H247.295V15.2432ZM251.909 15.1475L253.55 12.4473H255.026L252.606 16.1045L255.101 19.8438H253.638L251.929 17.0752L250.22 19.8438H248.751L251.246 16.1045L248.826 12.4473H250.289L251.909 15.1475ZM259.203 18.9482C259.654 18.9482 260.048 18.8115 260.385 18.5381C260.723 18.2646 260.91 17.9229 260.946 17.5127H262.142C262.12 17.9365 261.974 18.3398 261.705 18.7227C261.436 19.1055 261.076 19.4108 260.625 19.6387C260.178 19.8665 259.704 19.9805 259.203 19.9805C258.196 19.9805 257.394 19.6455 256.797 18.9756C256.204 18.3011 255.908 17.3805 255.908 16.2139V16.002C255.908 15.2819 256.04 14.6416 256.304 14.0811C256.569 13.5205 256.947 13.0853 257.439 12.7754C257.936 12.4655 258.522 12.3105 259.196 12.3105C260.025 12.3105 260.714 12.5589 261.26 13.0557C261.812 13.5524 262.106 14.1973 262.142 14.9902H260.946C260.91 14.5117 260.727 14.1198 260.399 13.8145C260.076 13.5046 259.675 13.3496 259.196 13.3496C258.553 13.3496 258.054 13.582 257.699 14.0469C257.348 14.5072 257.173 15.1748 257.173 16.0498V16.2891C257.173 17.1413 257.348 17.7975 257.699 18.2578C258.05 18.7181 258.551 18.9482 259.203 18.9482ZM266.634 19.9805C265.631 19.9805 264.815 19.6523 264.186 18.9961C263.557 18.3353 263.243 17.4535 263.243 16.3506V16.1182C263.243 15.3844 263.382 14.7305 263.66 14.1562C263.942 13.5775 264.334 13.1263 264.836 12.8027C265.342 12.4746 265.888 12.3105 266.476 12.3105C267.438 12.3105 268.185 12.6273 268.719 13.2607C269.252 13.8942 269.518 14.8011 269.518 15.9814V16.5078H264.508C264.526 17.237 264.738 17.8271 265.143 18.2783C265.553 18.7249 266.073 18.9482 266.702 18.9482C267.149 18.9482 267.527 18.8571 267.837 18.6748C268.147 18.4925 268.418 18.251 268.65 17.9502L269.423 18.5518C268.803 19.5042 267.873 19.9805 266.634 19.9805ZM266.476 13.3496C265.966 13.3496 265.538 13.5365 265.191 13.9102C264.845 14.2793 264.631 14.7988 264.549 15.4688H268.254V15.373C268.217 14.7305 268.044 14.2337 267.734 13.8828C267.424 13.5273 267.005 13.3496 266.476 13.3496ZM274.563 13.582C274.372 13.5501 274.164 13.5342 273.941 13.5342C273.112 13.5342 272.549 13.8874 272.253 14.5938V19.8438H270.988V12.4473H272.219L272.239 13.3018C272.654 12.641 273.242 12.3105 274.003 12.3105C274.249 12.3105 274.436 12.3424 274.563 12.4062V13.582ZM278.562 18.9482C279.013 18.9482 279.408 18.8115 279.745 18.5381C280.082 18.2646 280.269 17.9229 280.305 17.5127H281.502C281.479 17.9365 281.333 18.3398 281.064 18.7227C280.795 19.1055 280.435 19.4108 279.984 19.6387C279.538 19.8665 279.064 19.9805 278.562 19.9805C277.555 19.9805 276.753 19.6455 276.156 18.9756C275.564 18.3011 275.267 17.3805 275.267 16.2139V16.002C275.267 15.2819 275.399 14.6416 275.664 14.0811C275.928 13.5205 276.306 13.0853 276.799 12.7754C277.295 12.4655 277.881 12.3105 278.555 12.3105C279.385 12.3105 280.073 12.5589 280.62 13.0557C281.171 13.5524 281.465 14.1973 281.502 14.9902H280.305C280.269 14.5117 280.087 14.1198 279.759 13.8145C279.435 13.5046 279.034 13.3496 278.555 13.3496C277.913 13.3496 277.414 13.582 277.058 14.0469C276.707 14.5072 276.532 15.1748 276.532 16.0498V16.2891C276.532 17.1413 276.707 17.7975 277.058 18.2578C277.409 18.7181 277.911 18.9482 278.562 18.9482ZM284.298 19.8438H283.033V12.4473H284.298V19.8438ZM282.93 10.4854C282.93 10.2803 282.992 10.1071 283.115 9.96582C283.243 9.82454 283.429 9.75391 283.676 9.75391C283.922 9.75391 284.108 9.82454 284.236 9.96582C284.364 10.1071 284.427 10.2803 284.427 10.4854C284.427 10.6904 284.364 10.8613 284.236 10.998C284.108 11.1348 283.922 11.2031 283.676 11.2031C283.429 11.2031 283.243 11.1348 283.115 10.998C282.992 10.8613 282.93 10.6904 282.93 10.4854ZM290.635 17.8818C290.635 17.54 290.505 17.2757 290.245 17.0889C289.99 16.8975 289.541 16.7334 288.898 16.5967C288.26 16.46 287.752 16.2959 287.374 16.1045C287 15.9131 286.722 15.6852 286.54 15.4209C286.362 15.1566 286.273 14.8421 286.273 14.4775C286.273 13.8714 286.528 13.3587 287.039 12.9395C287.554 12.5202 288.21 12.3105 289.008 12.3105C289.846 12.3105 290.525 12.527 291.045 12.96C291.569 13.3929 291.831 13.9466 291.831 14.6211H290.559C290.559 14.2747 290.411 13.9762 290.115 13.7256C289.823 13.4749 289.454 13.3496 289.008 13.3496C288.547 13.3496 288.187 13.4499 287.927 13.6504C287.668 13.8509 287.538 14.113 287.538 14.4365C287.538 14.7419 287.659 14.972 287.9 15.127C288.142 15.2819 288.577 15.43 289.206 15.5713C289.839 15.7126 290.352 15.8812 290.744 16.0771C291.136 16.2731 291.425 16.5101 291.612 16.7881C291.803 17.0615 291.899 17.3965 291.899 17.793C291.899 18.4538 291.635 18.9847 291.106 19.3857C290.578 19.7822 289.892 19.9805 289.049 19.9805C288.456 19.9805 287.932 19.8757 287.476 19.666C287.021 19.4564 286.663 19.1647 286.403 18.791C286.148 18.4128 286.02 18.0049 286.02 17.5674H287.285C287.308 17.9912 287.476 18.3285 287.791 18.5791C288.11 18.8252 288.529 18.9482 289.049 18.9482C289.527 18.9482 289.91 18.8525 290.197 18.6611C290.489 18.4652 290.635 18.2054 290.635 17.8818ZM296.616 19.9805C295.613 19.9805 294.798 19.6523 294.169 18.9961C293.54 18.3353 293.225 17.4535 293.225 16.3506V16.1182C293.225 15.3844 293.364 14.7305 293.642 14.1562C293.925 13.5775 294.317 13.1263 294.818 12.8027C295.324 12.4746 295.871 12.3105 296.459 12.3105C297.42 12.3105 298.168 12.6273 298.701 13.2607C299.234 13.8942 299.501 14.8011 299.501 15.9814V16.5078H294.49C294.508 17.237 294.72 17.8271 295.126 18.2783C295.536 18.7249 296.055 18.9482 296.684 18.9482C297.131 18.9482 297.509 18.8571 297.819 18.6748C298.129 18.4925 298.4 18.251 298.633 17.9502L299.405 18.5518C298.785 19.5042 297.856 19.9805 296.616 19.9805ZM296.459 13.3496C295.948 13.3496 295.52 13.5365 295.174 13.9102C294.827 14.2793 294.613 14.7988 294.531 15.4688H298.236V15.373C298.2 14.7305 298.026 14.2337 297.717 13.8828C297.407 13.5273 296.987 13.3496 296.459 13.3496Z" fill="#7C7195"/>
<rect x="316.513" y="0.84375" width="71" height="29" rx="14.5" fill="#EBE5FB"/>
<path d="M333.318 19.8438H331.999L326.988 12.1738V19.8438H325.669V9.89062H326.988L332.012 17.5947V9.89062H333.318V19.8438ZM340.017 19.1123C339.525 19.6911 338.803 19.9805 337.85 19.9805C337.062 19.9805 336.46 19.7526 336.046 19.2969C335.635 18.8366 335.428 18.1576 335.424 17.2598V12.4473H336.688V17.2256C336.688 18.3467 337.144 18.9072 338.055 18.9072C339.022 18.9072 339.664 18.5472 339.983 17.8271V12.4473H341.248V19.8438H340.045L340.017 19.1123ZM344.891 10.6562V12.4473H346.272V13.4248H344.891V18.0117C344.891 18.3079 344.953 18.5312 345.076 18.6816C345.199 18.8275 345.409 18.9004 345.705 18.9004C345.851 18.9004 346.051 18.873 346.306 18.8184V19.8438C345.974 19.9349 345.65 19.9805 345.336 19.9805C344.771 19.9805 344.344 19.8096 344.057 19.4678C343.77 19.126 343.627 18.6406 343.627 18.0117V13.4248H342.28V12.4473H343.627V10.6562H344.891ZM351.331 13.582C351.139 13.5501 350.932 13.5342 350.709 13.5342C349.879 13.5342 349.316 13.8874 349.02 14.5938V19.8438H347.756V12.4473H348.986L349.007 13.3018C349.421 12.641 350.009 12.3105 350.77 12.3105C351.016 12.3105 351.203 12.3424 351.331 12.4062V13.582ZM353.874 19.8438H352.609V12.4473H353.874V19.8438ZM352.507 10.4854C352.507 10.2803 352.568 10.1071 352.691 9.96582C352.819 9.82454 353.006 9.75391 353.252 9.75391C353.498 9.75391 353.685 9.82454 353.812 9.96582C353.94 10.1071 354.004 10.2803 354.004 10.4854C354.004 10.6904 353.94 10.8613 353.812 10.998C353.685 11.1348 353.498 11.2031 353.252 11.2031C353.006 11.2031 352.819 11.1348 352.691 10.998C352.568 10.8613 352.507 10.6904 352.507 10.4854ZM357.62 10.6562V12.4473H359.001V13.4248H357.62V18.0117C357.62 18.3079 357.681 18.5312 357.804 18.6816C357.927 18.8275 358.137 18.9004 358.433 18.9004C358.579 18.9004 358.78 18.873 359.035 18.8184V19.8438C358.702 19.9349 358.379 19.9805 358.064 19.9805C357.499 19.9805 357.073 19.8096 356.786 19.4678C356.499 19.126 356.355 18.6406 356.355 18.0117V13.4248H355.009V12.4473H356.355V10.6562H357.62ZM361.858 19.8438H360.594V12.4473H361.858V19.8438ZM360.491 10.4854C360.491 10.2803 360.552 10.1071 360.676 9.96582C360.803 9.82454 360.99 9.75391 361.236 9.75391C361.482 9.75391 361.669 9.82454 361.797 9.96582C361.924 10.1071 361.988 10.2803 361.988 10.4854C361.988 10.6904 361.924 10.8613 361.797 10.998C361.669 11.1348 361.482 11.2031 361.236 11.2031C360.99 11.2031 360.803 11.1348 360.676 10.998C360.552 10.8613 360.491 10.6904 360.491 10.4854ZM363.553 16.0771C363.553 15.3525 363.695 14.7008 363.977 14.1221C364.264 13.5433 364.661 13.0967 365.167 12.7822C365.677 12.4678 366.258 12.3105 366.91 12.3105C367.917 12.3105 368.731 12.6592 369.35 13.3564C369.975 14.0537 370.287 14.9811 370.287 16.1387V16.2275C370.287 16.9476 370.148 17.5947 369.87 18.1689C369.596 18.7386 369.202 19.1829 368.687 19.502C368.177 19.821 367.589 19.9805 366.924 19.9805C365.921 19.9805 365.108 19.6318 364.483 18.9346C363.863 18.2373 363.553 17.3145 363.553 16.166V16.0771ZM364.825 16.2275C364.825 17.0479 365.014 17.7064 365.392 18.2031C365.775 18.6999 366.286 18.9482 366.924 18.9482C367.566 18.9482 368.077 18.6976 368.455 18.1963C368.833 17.6904 369.022 16.984 369.022 16.0771C369.022 15.266 368.829 14.6097 368.441 14.1084C368.058 13.6025 367.548 13.3496 366.91 13.3496C366.286 13.3496 365.782 13.598 365.399 14.0947C365.016 14.5915 364.825 15.3024 364.825 16.2275ZM373.069 12.4473L373.11 13.377C373.675 12.666 374.413 12.3105 375.325 12.3105C376.888 12.3105 377.677 13.1924 377.69 14.9561V19.8438H376.426V14.9492C376.421 14.416 376.298 14.0218 376.056 13.7666C375.819 13.5114 375.448 13.3838 374.942 13.3838C374.532 13.3838 374.172 13.4932 373.862 13.7119C373.552 13.9307 373.311 14.2178 373.137 14.5732V19.8438H371.873V12.4473H373.069Z" fill="#7C7195"/>
</svg>
