<svg width="25" height="24" viewBox="0 0 25 24" fill="none" xmlns="http://www.w3.org/2000/svg">
<path opacity="0.4" d="M16.691 2H8.31C5.27 2 3.5 3.78 3.5 6.83V17.16C3.5 20.26 5.27 22 8.31 22H16.691C19.78 22 21.5 20.26 21.5 17.16V6.83C21.5 3.78 19.78 2 16.691 2" fill="#B6B3BF"/>
<path fill-rule="evenodd" clip-rule="evenodd" d="M8.57996 6.64844V6.65844C8.14896 6.65844 7.79996 7.00844 7.79996 7.43844C7.79996 7.86844 8.14896 8.21844 8.57996 8.21844H11.569C12 8.21844 12.35 7.86844 12.35 7.42744C12.35 6.99844 12 6.64844 11.569 6.64844H8.57996ZM16.4199 12.7368H8.57993C8.14893 12.7368 7.79993 12.3868 7.79993 11.9568C7.79993 11.5268 8.14893 11.1758 8.57993 11.1758H16.4199C16.8499 11.1758 17.1999 11.5268 17.1999 11.9568C17.1999 12.3868 16.8499 12.7368 16.4199 12.7368ZM16.42 17.3084H8.57996C8.27996 17.3484 7.98996 17.1984 7.82996 16.9484C7.66996 16.6884 7.66996 16.3584 7.82996 16.1084C7.98996 15.8484 8.27996 15.7084 8.57996 15.7384H16.42C16.819 15.7784 17.12 16.1184 17.12 16.5284C17.12 16.9274 16.819 17.2684 16.42 17.3084Z" fill="#B6B3BF"/>
</svg>
