<svg width="117" height="115" viewBox="0 0 117 115" fill="none" xmlns="http://www.w3.org/2000/svg">
<rect width="117" height="115" rx="6" fill="#FFC2F0"/>
<mask id="mask0_1607_44003" style="mask-type:alpha" maskUnits="userSpaceOnUse" x="0" y="0" width="117" height="115">
<rect width="117" height="115" rx="6" fill="url(#paint0_linear_1607_44003)"/>
</mask>
<g mask="url(#mask0_1607_44003)">
<path d="M124.122 103.733L105.362 108.98C99.8653 109.313 87.4403 110.134 87.4403 110.134L91.4181 134H105.492H121.273C121.273 134 126.147 126.768 126.65 117.825C126.933 112.994 126.067 108.165 124.122 103.733Z" fill="#263238"/>
<path d="M103.377 113.2C103.317 113.254 103.251 113.301 103.181 113.341L102.603 113.703C102.104 114.028 101.37 114.487 100.52 115.127C99.5103 115.854 98.6228 116.736 97.891 117.742C97.472 118.34 97.1487 119 96.9327 119.698C96.7107 120.454 96.5665 121.231 96.5024 122.016C96.2528 125.253 96.025 128.185 95.8587 130.333C95.7683 131.378 95.696 132.235 95.6453 132.864C95.6164 133.147 95.5947 133.374 95.5766 133.548C95.5727 133.628 95.5606 133.708 95.5405 133.787C95.5309 133.706 95.5309 133.625 95.5405 133.544C95.5405 133.371 95.5586 133.143 95.5694 132.857C95.6092 132.239 95.6598 131.382 95.7249 130.326C95.8695 128.196 96.054 125.263 96.3143 122.009C96.3814 121.212 96.5292 120.425 96.7555 119.658C96.9787 118.944 97.3131 118.269 97.7463 117.659C98.4959 116.643 99.4059 115.756 100.44 115.033C101.308 114.404 102.053 113.948 102.567 113.656C102.823 113.504 103.022 113.388 103.16 113.312C103.228 113.267 103.301 113.23 103.377 113.2Z" fill="#455A64"/>
<path d="M88.0333 77.6173C88.0333 77.6173 79.8645 85.3161 77.8214 90.4799C75.7783 95.6437 73.8436 100.782 75.8361 106.391C77.4959 111.009 81.5424 116.827 87.8923 118.288C92.0219 119.243 125.138 105.064 125.138 105.064C125.138 105.064 125.464 100.909 123.526 97.6073C121.822 94.7144 121.898 62.3862 121.942 54.6296C121.944 54.1145 121.822 53.6065 121.587 53.1484C121.351 52.6903 121.009 52.2954 120.589 51.997L115.053 48.0771L103.698 48.3664C103.698 48.3664 94.8027 58.271 93.1899 59.7753C91.5771 61.2796 81.0397 69.6582 88.0333 77.6173Z" fill="#FFA5E8"/>
<path d="M106.349 81.0814C106.349 81.0814 106.298 81.1031 106.197 81.1284C106.096 81.1537 105.944 81.1898 105.745 81.2188C105.188 81.3059 104.624 81.3422 104.06 81.3273C102.179 81.286 100.35 80.7005 98.794 79.6416C97.2384 78.5827 96.0229 77.0958 95.2946 75.3606C95.0709 74.8421 94.8978 74.3032 94.7775 73.7515C94.7304 73.5562 94.7124 73.3899 94.6943 73.2994C94.6848 73.2456 94.6848 73.1905 94.6943 73.1367C94.6943 73.1367 94.7558 73.3501 94.8606 73.7334C95.0071 74.2722 95.197 74.7982 95.4284 75.3064C96.1755 76.9975 97.3816 78.4454 98.9098 79.486C100.438 80.5265 102.227 81.118 104.075 81.1935C104.633 81.221 105.193 81.2052 105.749 81.1464C105.947 81.1124 106.148 81.0907 106.349 81.0814Z" fill="#263238"/>
<g opacity="0.3">
<path opacity="0.3" d="M96.6 77.5413C97.8041 79.6458 99.4314 81.6275 101.663 82.6038C103.894 83.5802 106.783 83.2873 108.349 81.4322C108.349 81.4322 104.874 81.3671 102.798 81.1321C100.722 80.897 97.6342 79.3602 96.6072 77.5413" fill="black"/>
</g>
<path d="M80.1863 105.215C80.1863 105.215 80.0598 105.403 79.7271 105.469C79.5081 105.519 79.2789 105.502 79.07 105.419C78.861 105.337 78.6823 105.192 78.5574 105.005C78.4326 104.818 78.3676 104.598 78.3711 104.373C78.3746 104.148 78.4465 103.93 78.5771 103.747C78.7688 103.465 78.9858 103.404 78.9894 103.422C78.993 103.44 78.8303 103.548 78.6929 103.816C78.6009 103.983 78.5545 104.171 78.5583 104.361C78.5621 104.552 78.616 104.738 78.7146 104.901C78.8292 105.053 78.9807 105.173 79.1548 105.249C79.3289 105.326 79.5197 105.356 79.709 105.338C79.8705 105.308 80.03 105.266 80.1863 105.215Z" fill="#263238"/>
<path d="M82.1825 77.7908C82.1825 77.6534 82.5441 76.3443 83.4626 75.9321C84.3811 75.5199 86.8943 75.8019 86.8943 75.8019L88.6626 78.1524C88.6626 78.1524 88.4565 79.1541 86.9955 78.8937C86.9955 78.8937 89.7908 80.9332 89.6859 81.8553C89.6594 82.121 89.5786 82.3784 89.4486 82.6117C89.3186 82.8449 89.1422 83.049 88.9302 83.2114C88.9302 83.2114 90.2392 83.9671 89.8089 84.8965C89.7044 85.1509 89.5127 85.3598 89.2682 85.4857C89.0237 85.6116 88.7423 85.6463 88.4745 85.5836C88.4745 85.5836 88.6807 87.0517 87.0859 86.7299C85.4912 86.408 83.148 85.3051 83.148 85.3051C83.1135 85.4193 83.1039 85.5397 83.12 85.6579C83.1361 85.7762 83.1774 85.8896 83.2413 85.9904C83.3051 86.0913 83.3898 86.1772 83.4898 86.2424C83.5897 86.3076 83.7026 86.3505 83.8206 86.3683C84.3909 86.4959 84.9211 86.7616 85.3647 87.1421C85.3647 87.1421 85.4623 88.3174 84.41 88.151C83.3577 87.9847 82.3705 88.0606 81.4231 87.3952C80.4757 86.7299 79.568 86.484 79.7705 85.5293C79.973 84.5747 80.1321 84.4047 80.1321 84.4047C80.1321 84.4047 79.5644 83.1318 80.1104 82.4954L80.6565 81.8553C80.6565 81.8553 79.9585 80.6114 80.5986 79.8954C81.2387 79.1794 82.074 78.3838 82.074 78.3838L82.1825 77.7908Z" fill="#C78976"/>
<path d="M88.9446 83.1863C88.6467 83.0503 88.3601 82.8907 88.0876 82.709C87.5669 82.398 86.8509 81.9858 86.0481 81.5157C85.2453 81.0456 84.5112 80.6659 83.9797 80.3802C83.6823 80.242 83.3979 80.0774 83.1299 79.8884C83.444 79.9776 83.7482 80.0988 84.0375 80.25C84.5872 80.5068 85.3357 80.8865 86.1421 81.3349C86.9485 81.7833 87.6573 82.2389 88.1599 82.5788C88.443 82.7519 88.7062 82.9556 88.9446 83.1863Z" fill="#BF654E"/>
<path d="M88.6878 85.6126C87.6508 85.1674 86.6381 84.6677 85.6539 84.1156C84.6429 83.6155 83.6603 83.0602 82.7103 82.4521C83.7493 82.893 84.7623 83.3928 85.7443 83.9492C86.7561 84.4476 87.7388 85.003 88.6878 85.6126Z" fill="#BF654E"/>
<path d="M87.1546 79.0564C86.5834 78.8525 86.0346 78.5908 85.5165 78.2754C84.9691 78.0136 84.4493 77.6974 83.9652 77.3315C84.5377 77.5336 85.0879 77.7941 85.6069 78.109C86.1544 78.3701 86.6731 78.6876 87.1546 79.0564Z" fill="#BF654E"/>
<path d="M119.031 12.827C119.298 11.7133 119.139 10.4042 118.26 9.6376C117.49 8.965 116.329 8.86375 115.317 9.0988C114.611 9.25161 113.952 9.57046 113.394 10.0289C112.837 10.4874 112.396 11.0722 112.109 11.735C111.849 12.3994 111.797 13.1275 111.961 13.8221C112.125 14.5167 112.498 15.1447 113.028 15.6223L115.849 16.2877C116.599 16.1596 117.294 15.8097 117.844 15.2831C118.393 14.7566 118.773 14.0775 118.933 13.3333C118.962 13.1235 119.005 12.9427 119.031 12.827Z" fill="#263238"/>
<path d="M117.324 16.0451C117.107 15.8631 116.844 15.7453 116.565 15.705C116.285 15.6648 115.999 15.7036 115.74 15.8173C115.814 15.5771 115.821 15.3211 115.759 15.0775C115.697 14.8339 115.569 14.6121 115.389 14.4364C115.209 14.2608 114.985 14.1381 114.74 14.0818C114.495 14.0256 114.239 14.038 114.001 14.1177C113.755 14.2008 113.502 14.3527 113.259 14.2695C112.898 14.1394 112.898 13.6259 112.753 13.2606C112.692 13.1065 112.595 12.9695 112.469 12.8615C112.343 12.7535 112.193 12.6778 112.031 12.641C111.87 12.6041 111.702 12.6073 111.541 12.65C111.381 12.6928 111.234 12.774 111.112 12.8866C110.991 12.9991 110.898 13.1397 110.843 13.296C110.788 13.4523 110.772 13.6197 110.796 13.7837C110.82 13.9477 110.884 14.1033 110.982 14.2371C111.079 14.3709 111.208 14.4789 111.357 14.5516C112.916 14.9132 114.5 15.9727 115.765 16.9563C116.012 17.176 116.291 17.3554 116.593 17.4879C116.746 17.5527 116.914 17.5738 117.078 17.5489C117.242 17.524 117.396 17.4541 117.523 17.3469C117.874 17.0106 117.7 16.3669 117.324 16.0451Z" fill="#FFA5E8"/>
<path d="M98.2056 49.2706C98.2056 49.238 98.5672 49.1766 99.0554 48.909C99.7169 48.59 100.273 48.0879 100.658 47.4623C101.042 46.8367 101.239 46.1139 101.225 45.3796C101.225 44.8155 101.117 44.4756 101.145 44.4647C101.174 44.4539 101.196 44.5443 101.243 44.6998C101.305 44.9205 101.344 45.1472 101.359 45.376C101.409 46.1423 101.219 46.9052 100.817 47.5594C100.415 48.2135 99.8195 48.7268 99.1132 49.0283C98.9028 49.1221 98.6818 49.1901 98.4551 49.2308C98.3755 49.2609 98.2906 49.2744 98.2056 49.2706Z" fill="#263238"/>
<path d="M105.488 14.9785C104.347 14.3973 103.13 13.9798 101.872 13.7382C100.672 13.4814 99.341 13.6225 98.3718 14.3963C97.1134 15.4161 96.8386 17.2169 95.8839 18.5259C95.2656 19.3757 94.3796 19.9724 93.5949 20.6775C92.8102 21.3827 92.0725 22.2361 91.9351 23.2775C91.8194 24.1309 92.1196 24.988 92.0617 25.845C91.917 27.9532 89.6678 29.6528 90.0222 31.7393C90.2862 33.2725 91.8809 34.2706 92.2895 35.7749C92.5354 36.6753 92.3148 37.6372 92.4378 38.5629C92.6495 39.7612 93.2927 40.8404 94.2458 41.5969C95.1904 42.3449 96.2425 42.9459 97.3666 43.3796C98.6394 43.9268 99.9388 44.409 101.265 44.8261C102.049 45.072 103.029 45.2491 103.579 44.638C103.966 44.2113 103.962 43.5713 103.941 42.9963C103.471 33.6161 103.084 24.0622 105.488 14.9785Z" fill="#263238"/>
<path d="M115.057 49.2451L115.151 22.9667C115.135 22.4278 114.918 21.9145 114.541 21.5287C114.165 21.1428 113.657 20.9126 113.119 20.8838L105.402 17.7739L103.384 17.9981C98.8384 17.9981 95.6816 22.9884 95.6346 26.6768C95.5803 30.7631 95.678 35.7569 96.3144 38.7764C97.5909 44.8407 102.317 45.3867 102.317 45.3867C102.317 45.3867 102.263 47.0429 102.212 49.0751L98.8131 59.9705L115.057 49.2451Z" fill="#C78976"/>
<path d="M98.0282 30.1448C98.0375 30.3491 98.1256 30.5419 98.2739 30.6828C98.4222 30.8236 98.6192 30.9017 98.8238 30.9005C98.924 30.9034 99.0239 30.8862 99.1174 30.8499C99.2109 30.8137 99.2963 30.7591 99.3684 30.6893C99.4405 30.6196 99.4979 30.5361 99.5373 30.4438C99.5767 30.3515 99.5972 30.2523 99.5976 30.152C99.5892 29.9473 99.5014 29.754 99.3529 29.613C99.2044 29.4719 99.0068 29.3942 98.802 29.3962C98.7019 29.3938 98.6023 29.4113 98.509 29.4478C98.4156 29.4843 98.3305 29.5389 98.2585 29.6085C98.1865 29.6782 98.129 29.7615 98.0895 29.8535C98.05 29.9456 98.0291 30.0446 98.0282 30.1448Z" fill="#263238"/>
<path d="M96.7699 28.6041C96.8531 28.7415 97.5836 28.3184 98.4912 28.4667C99.3988 28.6149 99.9847 29.2261 100.104 29.1176C100.162 29.0706 100.104 28.8319 99.84 28.5499C99.5077 28.1914 99.064 27.9556 98.581 27.8808C98.0979 27.806 97.6037 27.8965 97.1785 28.1376C96.8603 28.3329 96.7265 28.539 96.7699 28.6041Z" fill="#263238"/>
<path d="M102.4 35.363C101.948 35.247 101.483 35.1863 101.015 35.1822C100.798 35.1822 100.592 35.1388 100.549 34.9941C100.524 34.7791 100.563 34.5616 100.661 34.3685C100.839 33.8333 101.025 33.2753 101.218 32.6943C101.984 30.3148 102.53 28.3549 102.433 28.3296C102.335 28.3043 101.637 30.2064 100.867 32.5858C100.683 33.1716 100.505 33.7321 100.339 34.2673C100.217 34.5337 100.193 34.8345 100.27 35.1171C100.305 35.1907 100.355 35.2558 100.417 35.3077C100.48 35.3596 100.553 35.397 100.632 35.4172C100.751 35.4407 100.872 35.4517 100.994 35.4498C101.464 35.4786 101.937 35.4494 102.4 35.363Z" fill="#263238"/>
<path d="M102.317 45.3793C105.198 45.2781 107.995 44.3793 110.395 42.783C110.395 42.783 108.428 47.1223 102.277 46.8656L102.317 45.3793Z" fill="#BF654E"/>
<path d="M102.859 37.3771C103.01 37.1671 103.211 36.9988 103.445 36.8881C103.678 36.7774 103.936 36.7279 104.194 36.7443C104.381 36.7526 104.564 36.7981 104.733 36.8782C104.902 36.9583 105.053 37.0714 105.177 37.2108C105.297 37.3457 105.372 37.5141 105.393 37.6933C105.414 37.8726 105.379 38.0538 105.293 38.2124C105.166 38.3697 104.995 38.4857 104.802 38.5456C104.609 38.6055 104.402 38.6066 104.208 38.5487C103.803 38.4284 103.425 38.228 103.098 37.9593C103 37.8963 102.914 37.8153 102.845 37.7206C102.814 37.674 102.798 37.6193 102.798 37.5633C102.798 37.5074 102.814 37.4527 102.845 37.406" fill="#BF654E"/>
<path d="M104.913 35.8147C104.772 35.8147 104.819 36.7296 104.067 37.4203C103.315 38.1109 102.335 38.0567 102.335 38.1833C102.335 38.2411 102.559 38.3532 102.975 38.3424C103.512 38.3225 104.024 38.1137 104.422 37.7529C104.805 37.4073 105.038 36.9261 105.072 36.4114C105.087 36.0353 104.975 35.8147 104.913 35.8147Z" fill="#263238"/>
<path d="M96.8458 25.9826C97.023 26.1634 97.663 25.932 98.4513 25.885C99.2397 25.8379 99.8978 25.9392 100.05 25.7331C100.111 25.6318 99.999 25.4438 99.6881 25.2774C99.2786 25.0729 98.8203 24.9865 98.3646 25.0279C97.9103 25.0544 97.4734 25.2114 97.1061 25.4799C96.8494 25.6897 96.7662 25.8922 96.8458 25.9826Z" fill="#263238"/>
<path d="M107.81 30.0294C107.814 30.2339 107.738 30.4318 107.598 30.5811C107.458 30.7304 107.266 30.8192 107.061 30.8286C106.962 30.838 106.861 30.8273 106.766 30.7973C106.671 30.7673 106.582 30.7185 106.506 30.6538C106.43 30.5891 106.368 30.5098 106.323 30.4206C106.278 30.3313 106.251 30.234 106.244 30.1343C106.238 30.0309 106.253 29.9274 106.287 29.8297C106.322 29.732 106.375 29.6421 106.444 29.5651C106.513 29.4881 106.597 29.4256 106.691 29.3812C106.784 29.3367 106.886 29.3112 106.989 29.3062C107.091 29.2967 107.194 29.3083 107.291 29.34C107.389 29.3718 107.478 29.4231 107.555 29.4908C107.632 29.5585 107.694 29.6412 107.738 29.7338C107.782 29.8264 107.806 29.927 107.81 30.0294Z" fill="#263238"/>
<path d="M108.862 25.4474C108.674 25.6427 107.922 25.4474 107.022 25.4474C106.121 25.4474 105.362 25.5993 105.185 25.4004C105.109 25.3028 105.225 25.1075 105.546 24.9231C106.008 24.6897 106.52 24.5754 107.036 24.5904C107.55 24.5848 108.056 24.7092 108.508 24.952C108.837 25.1582 108.946 25.3534 108.862 25.4474Z" fill="#263238"/>
<path d="M105.872 17.4558C108.927 21.6144 112.182 26.3154 115.342 30.3871C115.888 28.3549 116.402 25.2848 116.022 23.2127C115.678 21.1114 114.57 19.211 112.912 17.8753C111.234 16.5988 108.247 16.3348 106.295 17.1195" fill="#263238"/>
<path d="M113.932 33.2837C113.91 32.8281 114.384 31.7288 114.829 31.6384C116.022 31.3889 118.192 31.378 118.365 34.4264C118.601 38.5922 114.366 37.9702 114.355 37.8509C114.344 37.7316 114.008 34.8712 113.932 33.2837Z" fill="#C78976"/>
<path d="M115.538 36.216C115.556 36.216 115.614 36.263 115.74 36.31C115.916 36.3746 116.111 36.3681 116.283 36.2919C116.713 36.1039 117.046 35.3843 117.006 34.6321C116.997 34.2746 116.908 33.9235 116.745 33.6051C116.698 33.4772 116.621 33.3624 116.521 33.2705C116.42 33.1786 116.299 33.1123 116.167 33.0772C116.082 33.0585 115.994 33.0708 115.917 33.112C115.841 33.1531 115.782 33.2204 115.751 33.3014C115.7 33.4207 115.751 33.5039 115.711 33.5111C115.671 33.5183 115.617 33.446 115.642 33.2725C115.659 33.1675 115.711 33.0716 115.791 33.0012C115.845 32.9549 115.907 32.9197 115.975 32.898C116.043 32.8763 116.114 32.8683 116.185 32.8747C116.358 32.8986 116.521 32.9664 116.661 33.0714C116.8 33.1765 116.91 33.3154 116.98 33.475C117.178 33.8271 117.287 34.2215 117.299 34.6249C117.32 35.4638 116.937 36.2738 116.34 36.4836C116.231 36.5227 116.113 36.5365 115.998 36.5239C115.882 36.5114 115.77 36.4729 115.671 36.4112C115.552 36.3172 115.523 36.2232 115.538 36.216Z" fill="#BF654E"/>
<path d="M104.541 16.2876C101.977 16.4865 98.9793 17.2784 97.381 19.2926C95.7827 21.3068 94.8678 23.7947 94.3254 26.3115C93.8668 28.7168 93.5672 31.1497 93.4286 33.5944C93.2997 34.7062 93.2864 35.8284 93.3888 36.9429C93.4949 38.0641 93.9473 39.1245 94.6834 39.9769C94.2241 38.9897 95.2041 37.3226 95.1101 35.8219L95.7429 33.3232C95.638 31.3379 96.4046 30.5532 96.4661 29.6094C96.5131 28.8862 96.1877 28.2244 95.949 27.5555C95.7103 26.8865 95.5512 26.109 95.902 25.487C96.2528 24.8651 97.1134 24.5613 97.5799 23.961C98.1115 23.2776 98.0681 22.294 98.5165 21.5527C99.1457 20.5221 100.491 20.2617 101.554 19.6868C102.932 18.9418 104.664 18.2403 104.895 16.6781L104.541 16.2876Z" fill="#263238"/>
<path d="M108.566 28.5824C108.479 28.7199 107.741 28.2787 106.808 28.4161C105.875 28.5535 105.268 29.161 105.148 29.0489C105.091 29.0019 105.148 28.7596 105.427 28.4776C105.776 28.1169 106.235 27.8839 106.732 27.8158C107.226 27.7455 107.73 27.8477 108.157 28.1051C108.479 28.2931 108.616 28.5029 108.566 28.5824Z" fill="#263238"/>
<path d="M105.81 35.645C105.759 35.645 105.669 35.4931 105.485 35.3774C105.3 35.2617 105.123 35.2436 105.123 35.193C105.123 35.1424 105.354 35.0592 105.604 35.2219C105.854 35.3846 105.861 35.6414 105.81 35.645Z" fill="#BF654E"/>
<path d="M121.822 34.5167C121.797 33.3306 120.842 32.347 120.64 31.1645C120.47 30.1737 120.709 29.1684 120.832 28.1704C121.09 25.7123 120.637 23.2316 119.526 21.0238C118.415 18.8159 116.693 16.9737 114.565 15.7164C112.843 14.8102 111.003 14.1505 109.097 13.7565C108.369 13.5381 107.606 13.4596 106.848 13.525C106.469 13.5639 106.107 13.7007 105.797 13.9219C105.487 14.1432 105.24 14.4414 105.08 14.7871C104.19 16.0202 103.832 17.9222 104.541 19.2674C105.579 21.2346 108.464 21.5528 109.64 23.4441C110.898 25.4691 109.614 28.2788 110.641 30.4341C111.292 31.8082 112.251 32.224 112.768 33.6524C113.032 34.3756 112.641 36.0969 113.039 36.7587C113.607 37.7025 114.124 38.6969 115.093 39.2068L115.075 43.6799C117.657 42.7831 121.949 39.977 121.822 34.5167Z" fill="#263238"/>
<path d="M120.249 28.6405C120.182 28.6572 120.113 28.6645 120.043 28.6622C119.845 28.6622 119.648 28.6279 119.461 28.561C118.782 28.273 118.221 27.763 117.87 27.1145C117.624 26.6808 117.404 26.2328 117.212 25.7729C117.002 25.2521 116.728 24.7591 116.398 24.3048C116.017 23.8215 115.509 23.4545 114.93 23.2452C114.301 23.0232 113.652 22.861 112.992 22.7607C110.633 22.3646 108.423 21.3417 106.595 19.7991C106.045 19.3348 105.537 18.8217 105.08 18.2658C104.91 18.0742 104.801 17.9042 104.718 17.803C104.675 17.7494 104.637 17.6912 104.606 17.6294C104.606 17.6294 104.794 17.8391 105.134 18.2152C105.609 18.7485 106.125 19.2431 106.678 19.6942C107.498 20.363 108.392 20.9345 109.343 21.3974C110.507 21.9656 111.747 22.3626 113.024 22.5763C113.697 22.6793 114.358 22.8452 114.999 23.0717C115.606 23.2975 116.138 23.6882 116.536 24.1999C116.87 24.6685 117.145 25.1761 117.357 25.7114C117.541 26.1671 117.75 26.6126 117.982 27.0458C118.311 27.68 118.84 28.1883 119.486 28.4922C119.732 28.5807 119.989 28.6307 120.249 28.6405Z" fill="#455A64"/>
<path d="M120.213 23.05C120.12 22.8388 120.01 22.6356 119.884 22.4425C119.486 21.9528 118.947 21.5979 118.34 21.4263C117.927 21.2918 117.5 21.2068 117.067 21.1732C116.597 21.137 116.095 21.1298 115.559 21.1045C114.995 21.0877 114.434 21.0052 113.889 20.8586C113.3 20.6797 112.761 20.3651 112.316 19.9401C111.886 19.5187 111.478 19.0757 111.093 18.613C110.738 18.1914 110.336 17.8106 109.896 17.4775C108.619 16.5469 107.059 16.0869 105.481 16.1757C105.033 16.201 104.79 16.2553 104.787 16.2336C104.842 16.2092 104.901 16.1933 104.96 16.1866C105.131 16.148 105.304 16.1203 105.478 16.1034C106.116 16.0381 106.762 16.071 107.39 16.201C108.331 16.3865 109.221 16.7739 109.998 17.3365C110.902 17.9585 111.56 18.9746 112.442 19.7991C112.866 20.2053 113.379 20.5073 113.939 20.6814C114.472 20.8268 115.019 20.9105 115.57 20.9309C116.098 20.9598 116.604 20.9743 117.082 21.0177C117.526 21.0584 117.963 21.1531 118.384 21.2998C119.006 21.4878 119.552 21.8675 119.946 22.3846C120.083 22.5837 120.175 22.811 120.213 23.05Z" fill="white"/>
<path d="M120.105 46.0954C120.013 46.1431 119.912 46.1679 119.808 46.1677C119.526 46.1863 119.244 46.1341 118.987 46.0158C118.609 45.842 118.267 45.5964 117.982 45.2926C117.637 44.9265 117.339 44.5183 117.096 44.0776C116.652 43.2771 116.393 42.3876 116.337 41.474C116.315 41.1984 116.315 40.9215 116.337 40.6459C116.339 40.5442 116.36 40.4437 116.398 40.3494C116.431 40.3494 116.38 40.7797 116.456 41.4631C116.548 42.351 116.816 43.2115 117.244 43.9944C117.641 44.7886 118.26 45.4496 119.027 45.8965C119.363 46.0552 119.734 46.1237 120.105 46.0954Z" fill="#263238"/>
<path d="M121.949 49.1729C121.825 49.2382 121.692 49.2846 121.555 49.3103C121.18 49.4005 120.792 49.4238 120.408 49.379C119.136 49.2039 117.983 48.5366 117.197 47.5203C116.447 46.5026 115.935 45.3301 115.697 44.0886C115.592 43.6185 115.53 43.2352 115.498 42.9676C115.47 42.8308 115.459 42.6912 115.465 42.5518C115.498 42.5518 115.592 43.134 115.827 44.0561C116.097 45.265 116.614 46.405 117.346 47.4046C118.105 48.3827 119.205 49.0396 120.427 49.2452C120.935 49.3015 121.448 49.2771 121.949 49.1729Z" fill="#263238"/>
<path d="M119.049 10.1403C119.049 10.1728 118.575 10.0318 117.809 10.0282C116.81 10.0205 115.827 10.2843 114.966 10.7912C114.115 11.3127 113.429 12.0651 112.988 12.9609C112.821 13.3419 112.675 13.7318 112.551 14.1289C112.545 14.0144 112.557 13.8996 112.587 13.789C112.649 13.4856 112.744 13.1898 112.869 12.9066C113.287 11.9608 113.985 11.1658 114.869 10.6285C115.759 10.1062 116.782 9.85491 117.812 9.90524C118.121 9.91666 118.428 9.96152 118.727 10.039C118.839 10.0541 118.948 10.0883 119.049 10.1403Z" fill="#455A64"/>
<path d="M118.018 15.3585C117.989 15.3585 118.018 15.0294 117.993 14.5123C117.939 13.8406 117.742 13.1882 117.414 12.5994C117.079 12.0139 116.626 11.5042 116.084 11.1023C115.668 10.7913 115.36 10.6539 115.386 10.625C115.665 10.6922 115.929 10.8152 116.16 10.9866C116.745 11.3707 117.231 11.8888 117.577 12.4982C117.922 13.1093 118.111 13.7962 118.127 14.4979C118.153 14.7892 118.116 15.0828 118.018 15.3585Z" fill="#455A64"/>
<path d="M110.081 32.2348C109.854 32.1785 109.63 32.1084 109.412 32.0251C108.874 31.8774 108.315 31.8247 107.759 31.8696C107.204 31.9202 106.663 32.0696 106.161 32.3107C105.959 32.4273 105.752 32.5335 105.539 32.629C105.689 32.4491 105.875 32.3025 106.085 32.1987C106.59 31.9133 107.151 31.7395 107.729 31.689C108.308 31.6385 108.89 31.7124 109.437 31.9057C109.673 31.9677 109.893 32.0799 110.081 32.2348Z" fill="#BF654E"/>
<path d="M110.063 65.655C109.853 63.4853 109.842 68.2188 110.063 65.655V65.655Z" fill="#C78976"/>
<path d="M124.115 64.7114C124.014 62.2705 123.508 57.0705 120.861 54.1197C117.682 50.5904 113.936 50.9411 111.542 55.0454C109.101 59.2293 110.24 63.5759 110.063 65.6552L113.024 90.14C113.024 90.14 100.325 113.016 96.6796 114.835L102.465 117.615C106.693 115.858 121.096 100.157 125.16 92.3241C126.845 89.0913 124.216 67.1559 124.115 64.7114Z" fill="#C78976"/>
<path d="M109.886 73.289L125.561 70.1321C125.561 70.1321 124.271 60.3324 122.546 55.5699C121.2 51.8634 117.027 50.4712 117.027 50.4712L110.135 54.6189C110.135 54.6189 108.956 60.195 109.05 65.2973C109.144 70.3997 109.886 73.289 109.886 73.289Z" fill="#FFA5E8"/>
<path d="M118.539 52.1238C118.452 52.1473 118.362 52.1619 118.271 52.1672L117.505 52.2539C116.568 52.3521 115.64 52.5201 114.728 52.7566C113.369 53.0854 112.145 53.8239 111.22 54.872C110.207 56.0726 109.625 57.7649 109.43 59.573C109.235 61.381 109.43 63.124 109.477 64.7043L109.679 68.9062C109.73 70.0851 109.77 71.047 109.799 71.7376C109.799 72.0607 109.806 72.3174 109.821 72.5079C109.829 72.5981 109.829 72.6889 109.821 72.7791C109.8 72.6913 109.789 72.6016 109.788 72.5115C109.788 72.3162 109.752 72.0631 109.73 71.7413C109.687 71.0542 109.625 70.0923 109.549 68.9098C109.473 67.7274 109.397 66.2881 109.307 64.7079C109.217 63.1276 109.021 61.3883 109.246 59.5513C109.47 57.7143 110.041 55.993 111.09 54.7635C111.587 54.1866 112.185 53.7051 112.854 53.3424C113.436 53.0273 114.054 52.7844 114.695 52.6192C115.616 52.3894 116.555 52.2394 117.501 52.1708C117.837 52.1418 118.094 52.1274 118.271 52.1165C118.361 52.1112 118.45 52.1136 118.539 52.1238Z" fill="#263238"/>
<path d="M84.8873 116.834C84.8873 116.834 85.2742 114.513 86.67 114.621C88.0659 114.729 88.2322 114.831 89.1218 114.357C90.0113 113.883 90.5682 112.549 92.9151 112.509C95.262 112.469 97.598 113.511 98.936 112.987L103.843 116.834C103.843 116.834 99.3265 120.732 97.8764 121.314C96.4264 121.897 92.9693 122.038 92.4125 121.842C91.8556 121.647 88.0731 120.732 87.6717 120.523C87.2703 120.313 84.0556 118.837 83.9941 118.353C83.9326 117.868 84.5727 117.456 85.0319 117.565C85.4912 117.673 87.8887 118.288 89.0097 117.702C89.4664 117.428 89.9514 117.203 90.4561 117.033L84.8873 116.834Z" fill="#C78976"/>
</g>
<path d="M18.2734 23H15.9297V18.125H11.3594V23H9.01562V11.625H11.3594V16.2344H15.9297V11.625H18.2734V23ZM19.8281 18.6953C19.8281 17.8568 19.9896 17.1094 20.3125 16.4531C20.6354 15.7969 21.099 15.2891 21.7031 14.9297C22.3125 14.5703 23.0182 14.3906 23.8203 14.3906C24.9609 14.3906 25.8906 14.7396 26.6094 15.4375C27.3333 16.1354 27.737 17.0833 27.8203 18.2812L27.8359 18.8594C27.8359 20.1562 27.474 21.1979 26.75 21.9844C26.026 22.7656 25.0547 23.1562 23.8359 23.1562C22.6172 23.1562 21.6432 22.7656 20.9141 21.9844C20.1901 21.2031 19.8281 20.1406 19.8281 18.7969V18.6953ZM22.0859 18.8594C22.0859 19.6615 22.237 20.276 22.5391 20.7031C22.8411 21.125 23.2734 21.3359 23.8359 21.3359C24.3828 21.3359 24.8099 21.1276 25.1172 20.7109C25.4245 20.2891 25.5781 19.6172 25.5781 18.6953C25.5781 17.9089 25.4245 17.2995 25.1172 16.8672C24.8099 16.4349 24.3776 16.2188 23.8203 16.2188C23.2682 16.2188 22.8411 16.4349 22.5391 16.8672C22.237 17.2943 22.0859 17.9583 22.0859 18.8594ZM36.5781 19.9297L37.6875 14.5469H39.8672L37.7109 23H35.8203L34.2188 17.6797L32.6172 23H30.7344L28.5781 14.5469H30.7578L31.8594 19.9219L33.4062 14.5469H35.0391L36.5781 19.9297ZM48.1328 19.8047L49.6953 14.5469H52.1172L48.7188 24.3125L48.5312 24.7578C48.026 25.862 47.1927 26.4141 46.0312 26.4141C45.7031 26.4141 45.3698 26.3646 45.0312 26.2656V24.5547L45.375 24.5625C45.8021 24.5625 46.1198 24.4974 46.3281 24.3672C46.5417 24.237 46.7083 24.0208 46.8281 23.7188L47.0938 23.0234L44.1328 14.5469H46.5625L48.1328 19.8047ZM52.5312 18.6953C52.5312 17.8568 52.6927 17.1094 53.0156 16.4531C53.3385 15.7969 53.8021 15.2891 54.4062 14.9297C55.0156 14.5703 55.7214 14.3906 56.5234 14.3906C57.6641 14.3906 58.5938 14.7396 59.3125 15.4375C60.0365 16.1354 60.4401 17.0833 60.5234 18.2812L60.5391 18.8594C60.5391 20.1562 60.1771 21.1979 59.4531 21.9844C58.7292 22.7656 57.7578 23.1562 56.5391 23.1562C55.3203 23.1562 54.3464 22.7656 53.6172 21.9844C52.8932 21.2031 52.5312 20.1406 52.5312 18.7969V18.6953ZM54.7891 18.8594C54.7891 19.6615 54.9401 20.276 55.2422 20.7031C55.5443 21.125 55.9766 21.3359 56.5391 21.3359C57.0859 21.3359 57.513 21.1276 57.8203 20.7109C58.1276 20.2891 58.2812 19.6172 58.2812 18.6953C58.2812 17.9089 58.1276 17.2995 57.8203 16.8672C57.513 16.4349 57.0807 16.2188 56.5234 16.2188C55.9714 16.2188 55.5443 16.4349 55.2422 16.8672C54.9401 17.2943 54.7891 17.9583 54.7891 18.8594ZM66.9922 22.1406C66.4349 22.8177 65.6641 23.1562 64.6797 23.1562C63.7734 23.1562 63.0807 22.8958 62.6016 22.375C62.1276 21.8542 61.8854 21.0911 61.875 20.0859V14.5469H64.1328V20.0078C64.1328 20.888 64.5339 21.3281 65.3359 21.3281C66.1016 21.3281 66.6276 21.0625 66.9141 20.5312V14.5469H69.1797V23H67.0547L66.9922 22.1406ZM75.6328 16.6641C75.3255 16.6224 75.0547 16.6016 74.8203 16.6016C73.9661 16.6016 73.4062 16.8906 73.1406 17.4688V23H70.8828V14.5469H73.0156L73.0781 15.5547C73.5312 14.7786 74.1589 14.3906 74.9609 14.3906C75.2109 14.3906 75.4453 14.4245 75.6641 14.4922L75.6328 16.6641ZM16.4844 37.8516C16.4844 39.2057 16.1953 40.263 15.6172 41.0234C15.0391 41.7786 14.2318 42.1562 13.1953 42.1562C12.2786 42.1562 11.5469 41.8047 11 41.1016L10.8984 42H8.86719V30H11.125V34.3047C11.6458 33.6953 12.3307 33.3906 13.1797 33.3906C14.2109 33.3906 15.0182 33.7708 15.6016 34.5312C16.1901 35.2865 16.4844 36.3516 16.4844 37.7266V37.8516ZM14.2266 37.6875C14.2266 36.8333 14.0911 36.2109 13.8203 35.8203C13.5495 35.4245 13.1458 35.2266 12.6094 35.2266C11.8906 35.2266 11.3958 35.5208 11.125 36.1094V39.4453C11.401 40.0391 11.901 40.3359 12.625 40.3359C13.3542 40.3359 13.8333 39.9766 14.0625 39.2578C14.1719 38.9141 14.2266 38.3906 14.2266 37.6875ZM21.7734 42.1562C20.5339 42.1562 19.5234 41.776 18.7422 41.0156C17.9661 40.2552 17.5781 39.2422 17.5781 37.9766V37.7578C17.5781 36.9089 17.7422 36.151 18.0703 35.4844C18.3984 34.8125 18.862 34.2969 19.4609 33.9375C20.0651 33.5729 20.7526 33.3906 21.5234 33.3906C22.6797 33.3906 23.5885 33.7552 24.25 34.4844C24.9167 35.2135 25.25 36.2474 25.25 37.5859V38.5078H19.8672C19.9401 39.0599 20.1589 39.5026 20.5234 39.8359C20.8932 40.1693 21.3594 40.3359 21.9219 40.3359C22.7917 40.3359 23.4714 40.0208 23.9609 39.3906L25.0703 40.6328C24.7318 41.112 24.2734 41.487 23.6953 41.7578C23.1172 42.0234 22.4766 42.1562 21.7734 42.1562ZM21.5156 35.2188C21.0677 35.2188 20.7031 35.3698 20.4219 35.6719C20.1458 35.974 19.9688 36.4062 19.8906 36.9688H23.0312V36.7891C23.0208 36.2891 22.8854 35.9036 22.625 35.6328C22.3646 35.3568 21.9948 35.2188 21.5156 35.2188ZM28.9219 42H26.6562V30H28.9219V42ZM33.1719 42H30.9062V30H33.1719V42ZM38.1953 38.8047L39.7578 33.5469H42.1797L38.7812 43.3125L38.5938 43.7578C38.0885 44.862 37.2552 45.4141 36.0938 45.4141C35.7656 45.4141 35.4323 45.3646 35.0938 45.2656V43.5547L35.4375 43.5625C35.8646 43.5625 36.1823 43.4974 36.3906 43.3672C36.6042 43.237 36.7708 43.0208 36.8906 42.7188L37.1562 42.0234L34.1953 33.5469H36.625L38.1953 38.8047ZM46.7266 37.7109C46.7266 36.4141 47.0339 35.3698 47.6484 34.5781C48.2682 33.7865 49.1016 33.3906 50.1484 33.3906C51.0755 33.3906 51.7969 33.7083 52.3125 34.3438L52.4062 33.5469H54.4531V41.7188C54.4531 42.4583 54.2839 43.1016 53.9453 43.6484C53.612 44.1953 53.1406 44.612 52.5312 44.8984C51.9219 45.1849 51.2083 45.3281 50.3906 45.3281C49.7708 45.3281 49.1667 45.2031 48.5781 44.9531C47.9896 44.7083 47.5443 44.3906 47.2422 44L48.2422 42.625C48.8047 43.2552 49.487 43.5703 50.2891 43.5703C50.888 43.5703 51.3542 43.4089 51.6875 43.0859C52.0208 42.7682 52.1875 42.3151 52.1875 41.7266V41.2734C51.6667 41.862 50.9818 42.1562 50.1328 42.1562C49.1172 42.1562 48.2943 41.7604 47.6641 40.9688C47.0391 40.1719 46.7266 39.1172 46.7266 37.8047V37.7109ZM48.9844 37.875C48.9844 38.6406 49.138 39.2422 49.4453 39.6797C49.7526 40.112 50.1745 40.3281 50.7109 40.3281C51.3984 40.3281 51.8906 40.0703 52.1875 39.5547V36C51.8854 35.4844 51.3984 35.2266 50.7266 35.2266C50.1849 35.2266 49.7578 35.4479 49.4453 35.8906C49.138 36.3333 48.9844 36.9948 48.9844 37.875ZM60.9453 35.6641C60.638 35.6224 60.3672 35.6016 60.1328 35.6016C59.2786 35.6016 58.7188 35.8906 58.4531 36.4688V42H56.1953V33.5469H58.3281L58.3906 34.5547C58.8438 33.7786 59.4714 33.3906 60.2734 33.3906C60.5234 33.3906 60.7578 33.4245 60.9766 33.4922L60.9453 35.6641ZM61.4062 37.6953C61.4062 36.8568 61.5677 36.1094 61.8906 35.4531C62.2135 34.7969 62.6771 34.2891 63.2812 33.9297C63.8906 33.5703 64.5964 33.3906 65.3984 33.3906C66.5391 33.3906 67.4688 33.7396 68.1875 34.4375C68.9115 35.1354 69.3151 36.0833 69.3984 37.2812L69.4141 37.8594C69.4141 39.1562 69.0521 40.1979 68.3281 40.9844C67.6042 41.7656 66.6328 42.1562 65.4141 42.1562C64.1953 42.1562 63.2214 41.7656 62.4922 40.9844C61.7682 40.2031 61.4062 39.1406 61.4062 37.7969V37.6953ZM63.6641 37.8594C63.6641 38.6615 63.8151 39.276 64.1172 39.7031C64.4193 40.125 64.8516 40.3359 65.4141 40.3359C65.9609 40.3359 66.388 40.1276 66.6953 39.7109C67.0026 39.2891 67.1562 38.6172 67.1562 37.6953C67.1562 36.9089 67.0026 36.2995 66.6953 35.8672C66.388 35.4349 65.9557 35.2188 65.3984 35.2188C64.8464 35.2188 64.4193 35.4349 64.1172 35.8672C63.8151 36.2943 63.6641 36.9583 63.6641 37.8594ZM78.1562 38.9297L79.2656 33.5469H81.4453L79.2891 42H77.3984L75.7969 36.6797L74.1953 42H72.3125L70.1562 33.5469H72.3359L73.4375 38.9219L74.9844 33.5469H76.6172L78.1562 38.9297ZM87.1484 39.6641C87.1484 39.388 87.0104 39.1719 86.7344 39.0156C86.4635 38.8542 86.026 38.7109 85.4219 38.5859C83.4115 38.1641 82.4062 37.3099 82.4062 36.0234C82.4062 35.2734 82.7161 34.6484 83.3359 34.1484C83.9609 33.6432 84.776 33.3906 85.7812 33.3906C86.8542 33.3906 87.7109 33.6432 88.3516 34.1484C88.9974 34.6536 89.3203 35.3099 89.3203 36.1172H87.0625C87.0625 35.7943 86.9583 35.5286 86.75 35.3203C86.5417 35.1068 86.2161 35 85.7734 35C85.3932 35 85.099 35.0859 84.8906 35.2578C84.6823 35.4297 84.5781 35.6484 84.5781 35.9141C84.5781 36.1641 84.6953 36.3672 84.9297 36.5234C85.1693 36.6745 85.5703 36.8073 86.1328 36.9219C86.6953 37.0312 87.1693 37.1562 87.5547 37.2969C88.7474 37.7344 89.3438 38.4922 89.3438 39.5703C89.3438 40.3411 89.013 40.9661 88.3516 41.4453C87.6901 41.9193 86.8359 42.1562 85.7891 42.1562C85.0807 42.1562 84.4505 42.0312 83.8984 41.7812C83.3516 41.526 82.9219 41.1797 82.6094 40.7422C82.2969 40.2995 82.1406 39.8229 82.1406 39.3125H84.2812C84.3021 39.7135 84.4505 40.0208 84.7266 40.2344C85.0026 40.4479 85.3724 40.5547 85.8359 40.5547C86.2682 40.5547 86.5938 40.474 86.8125 40.3125C87.0365 40.1458 87.1484 39.9297 87.1484 39.6641Z" fill="#0C0029"/>
<defs>
<linearGradient id="paint0_linear_1607_44003" x1="0" y1="57.5" x2="117" y2="57.5" gradientUnits="userSpaceOnUse">
<stop stop-color="#A1C4FD"/>
<stop offset="1" stop-color="#C2E9FB"/>
</linearGradient>
</defs>
</svg>
