<svg width="25" height="24" viewBox="0 0 25 24" fill="none" xmlns="http://www.w3.org/2000/svg">
<path d="M22.7929 10.767C22.7929 13.1977 21.7788 15.3833 20.1175 16.9749C19.9076 16.835 19.6804 16.7301 19.4529 16.6427C19.0682 16.5027 18.6486 16.4154 18.2289 16.4154C16.7076 16.4154 15.4311 17.3773 14.959 18.7061C14.8716 18.9334 14.8191 19.1782 14.7841 19.4232C14.4868 19.4581 14.1897 19.4757 13.8748 19.4757C13.5601 19.4757 13.2628 19.4581 12.9655 19.4232C12.9305 19.1784 12.878 18.9336 12.7906 18.7061C12.3185 17.3771 11.042 16.4154 9.52068 16.4154C9.08358 16.4154 8.68124 16.5029 8.29665 16.6427C8.05185 16.7301 7.84199 16.835 7.63211 16.9749C5.98836 15.4011 4.95665 13.1978 4.95665 10.767L4.95683 8.651H2.57871C2.40379 8.651 2.24644 8.5286 2.2115 8.35369C2.17656 8.12645 2.35147 7.95154 2.56114 7.95154H5.30648C5.49878 7.95154 5.65612 8.10889 5.65612 8.30118L5.6563 10.4171H22.7579V10.767H22.7929Z" fill="#B6B3BF"/>
<path d="M9.53866 17.1146C8.01735 17.1146 6.77576 18.3213 6.77576 19.8075C6.77576 21.2938 8.01735 22.5003 9.53866 22.5003C11.06 22.5003 12.3016 21.2936 12.3016 19.8075C12.3014 18.3213 11.0598 17.1146 9.53866 17.1146Z" fill="#B6B3BF" fill-opacity="0.4"/>
<path d="M18.2289 17.1146C16.7076 17.1146 15.4661 18.3213 15.4661 19.8075C15.4661 21.2938 16.7076 22.5003 18.2289 22.5003C19.7502 22.5003 20.9918 21.2936 20.9918 19.8075C20.9743 18.3213 19.7502 17.1146 18.2289 17.1146Z" fill="#B6B3BF" fill-opacity="0.4"/>
<path d="M14.2248 1.49969H12.721C12.5287 1.49969 12.3714 1.65704 12.3714 1.84933V9.71818H22.7756C22.6007 5.15434 18.8236 1.49992 14.2248 1.49992L14.2248 1.49969Z" fill="#B6B3BF" fill-opacity="0.4"/>
</svg>
