<svg width="295" height="130" viewBox="0 0 295 130" fill="none" xmlns="http://www.w3.org/2000/svg">
<rect y="0.629883" width="139.527" height="128.436" rx="3.64479" fill="url(#paint0_linear_1607_39964)"/>
<mask id="mask0_1607_39964" style="mask-type:alpha" maskUnits="userSpaceOnUse" x="0" y="0" width="140" height="130">
<rect y="0.629883" width="139.527" height="128.436" rx="3.64479" fill="url(#paint1_linear_1607_39964)"/>
</mask>
<g mask="url(#mask0_1607_39964)">
<g style="mix-blend-mode:overlay" opacity="0.64">
<path d="M128.831 39.6282C128.831 39.6282 126.324 30.9143 109.42 30.866C92.5163 30.8176 82.6175 46.1334 82.6175 46.1334C82.6175 46.1334 75.5319 39.467 66.9631 43.9166C58.3943 48.3663 58.4266 50.8894 58.4266 50.8894H36.4202" stroke="#263238" stroke-width="0.0125952" stroke-linecap="round" stroke-linejoin="round"/>
<path d="M72.5979 84.3423L15.2604 81.7628C8.9567 62.6906 -14.8876 70.6628 -14.8876 70.6628C-23.9159 50.8893 -44.9469 60.3126 -44.9469 60.3126C-44.9469 60.3126 -55.6679 41.2484 -76.8118 45.2386C-97.9557 49.2288 -102.301 66.1003 -102.301 66.1003L-116.899 66.6566" stroke="#263238" stroke-width="0.0125952" stroke-linecap="round" stroke-linejoin="round"/>
<path d="M96.837 127.033C93.9028 132.305 90.7348 137.464 87.3492 142.462C85.8176 144.735 84.2377 146.96 82.6255 149.16C79.7397 153.057 76.7168 156.84 73.5569 160.51C72.552 161.692 71.5229 162.861 70.4696 164.017C68.0728 166.671 65.6062 169.246 63.0696 171.739L61.6509 173.126C48.1089 186.314 32.3864 197.06 15.1795 204.886C-16.6612 219.186 -56.829 222.33 -93.5708 213.858C-95.723 213.358 -97.8673 212.826 -100.02 212.245C-101.583 211.815 -103.139 211.369 -104.687 210.907C-106.353 210.407 -108.011 209.87 -109.66 209.295C-110.467 209.029 -111.273 208.747 -112.079 208.489C-115.65 207.231 -119.172 205.845 -122.614 204.346L-123.759 203.838C-135.452 198.697 -146.368 191.943 -156.188 183.774" stroke="#263238" stroke-width="0.0125952" stroke-miterlimit="10"/>
<path d="M69.3329 98.6666C69.3329 98.6666 82.5368 103.132 80.6183 113.217C80.586 113.217 65.3589 116.046 69.3329 98.6666Z" fill="#263238"/>
<path d="M95.3618 107.872C95.3618 107.872 105.454 99.5935 116.32 107.872C116.272 107.888 105.793 118.311 95.3618 107.872Z" fill="#263238"/>
<path d="M122.14 80.4569C122.14 80.4569 119.351 100.609 102.899 90.6863C102.899 90.6863 112.193 77.7243 122.14 80.4569Z" fill="#263238"/>
<path d="M103.012 64.0287C103.012 64.0287 115.184 75.1931 101.907 84.1085C101.907 84.1085 94.1044 73.3713 103.012 64.0287Z" fill="#263238"/>
<path d="M81.255 77.1519C81.255 77.1519 96.9658 79.4735 93.3464 93.6608C93.3786 93.6527 77.9016 90.3799 81.255 77.1519Z" fill="#263238"/>
<path d="M81.3844 129.016C81.3844 129.016 78.6921 118.682 89.1713 105.446C99.6505 92.2098 105.1 80.2071 103.834 70.4614" stroke="#263238" stroke-width="0.0125952" stroke-linecap="round" stroke-linejoin="round"/>
<path d="M85.3181 82.2303C85.3181 82.2303 93.5806 88.1955 94.3141 98.449" stroke="#263238" stroke-width="0.0125952" stroke-linecap="round" stroke-linejoin="round"/>
<path d="M115.313 87.0669C115.313 87.0669 108.179 92.9595 99.3843 89.9044" stroke="#263238" stroke-width="0.0125952" stroke-linecap="round" stroke-linejoin="round"/>
<path d="M109.896 108.485C109.896 108.485 94.1287 109.001 88.6392 106.139" stroke="#263238" stroke-width="0.0125952" stroke-linecap="round" stroke-linejoin="round"/>
<path d="M72.5974 104.253C72.5974 104.253 77.0551 112.797 83.6893 114.353" stroke="#263238" stroke-width="0.0125952" stroke-linecap="round" stroke-linejoin="round"/>
<path d="M103.116 80.1829C103.958 77.0151 104.201 73.7183 103.834 70.4614" stroke="white" stroke-width="0.0125952" stroke-linecap="round" stroke-linejoin="round"/>
<path d="M85.3181 82.2303C88.5129 84.7079 91.0305 87.9519 92.6374 91.6617" stroke="white" stroke-width="0.0125952" stroke-linecap="round" stroke-linejoin="round"/>
<path d="M115.313 87.0669C112.774 89.0062 109.768 90.2409 106.599 90.646" stroke="white" stroke-width="0.0125952" stroke-linecap="round" stroke-linejoin="round"/>
<path d="M109.896 108.485C106.024 108.599 102.149 108.5 98.2881 108.187" stroke="white" stroke-width="0.0125952" stroke-linecap="round" stroke-linejoin="round"/>
<path d="M72.5974 104.253C74.0988 106.977 76.0471 109.429 78.361 111.508" stroke="white" stroke-width="0.0125952" stroke-linecap="round" stroke-linejoin="round"/>
<path d="M45.2631 152.925C55.0733 157.842 59.7084 167.58 61.643 173.126L63.0617 171.739C65.5982 169.24 68.0649 166.666 70.4617 164.017C71.5096 162.867 72.5387 161.698 73.549 160.51C74.0165 158.64 74.5486 156.665 75.1612 154.626C75.6771 152.86 76.2494 151.047 76.8701 149.209C77.5392 147.218 78.2647 145.178 79.0627 143.195C79.7479 141.462 80.4814 139.729 81.2714 138.028C82.0614 136.327 82.7627 134.61 83.2947 133.111C85.5195 126.815 85.3744 122.866 84.1975 120.858C82.8594 118.585 80.2074 118.779 78.1679 120.858C77.7204 121.329 77.3158 121.839 76.9588 122.382C75.2226 125.204 73.775 128.193 72.6381 131.305C70.5503 136.618 69.0268 141.785 69.0268 141.785C69.0268 141.785 71.4048 124.389 70.7357 115.087C70.2601 108.557 69.5669 102.705 68.3175 98.5538C66.9229 94.0477 64.827 91.5488 61.5462 92.363C56.9676 93.4996 59.1763 104.454 60.6273 119.27C61.1351 124.421 61.5462 130.048 61.5462 135.892C61.561 139.97 61.3376 144.045 60.8772 148.096C60.8772 148.096 60.6273 147.685 60.2001 146.944C58.0156 143.147 51.0831 130.62 48.4553 119.714C45.3196 106.687 36.6057 112.153 39.3948 123.817C42.1838 135.481 53.6788 142.164 57.9349 154.835C57.9349 154.835 43.2318 140.737 38.363 146.097C35.5739 149.128 42.337 151.466 45.2631 152.925Z" fill="#92E3A9" stroke="#263238" stroke-width="0.0125952" stroke-linecap="round" stroke-linejoin="round"/>
<path opacity="0.2" d="M45.2631 152.925C55.0733 157.842 59.7084 167.58 61.643 173.126L63.0617 171.739C65.5982 169.24 68.0649 166.666 70.4617 164.017C71.5096 162.867 72.5387 161.698 73.549 160.51C74.0165 158.64 74.5486 156.665 75.1612 154.626C75.6771 152.86 76.2494 151.047 76.8701 149.209C77.5392 147.218 78.2647 145.178 79.0627 143.195C79.7479 141.462 80.4814 139.729 81.2714 138.028C82.0614 136.327 82.7627 134.61 83.2947 133.111C85.5195 126.815 85.3744 122.866 84.1975 120.858C82.8594 118.585 80.2074 118.779 78.1679 120.858C77.7204 121.329 77.3158 121.839 76.9588 122.382C75.2226 125.204 73.775 128.193 72.6381 131.305C70.5503 136.618 69.0268 141.785 69.0268 141.785C69.0268 141.785 71.4048 124.389 70.7357 115.087C70.2601 108.557 69.5669 102.705 68.3175 98.5538C66.9229 94.0477 64.827 91.5488 61.5462 92.363C56.9676 93.4996 59.1763 104.454 60.6273 119.27C61.1351 124.421 61.5462 130.048 61.5462 135.892C61.561 139.97 61.3376 144.045 60.8772 148.096C60.8772 148.096 60.6273 147.685 60.2001 146.944C58.0156 143.147 51.0831 130.62 48.4553 119.714C45.3196 106.687 36.6057 112.153 39.3948 123.817C42.1838 135.481 53.6788 142.164 57.9349 154.835C57.9349 154.835 43.2318 140.737 38.363 146.097C35.5739 149.128 42.337 151.466 45.2631 152.925Z" fill="black" fill-opacity="0.7" stroke="#263238" stroke-width="0.0125952" stroke-miterlimit="10"/>
<path d="M55.8147 132.208C57.7587 136.959 59.1988 141.9 60.1111 146.952C61.598 155.043 62.1391 163.281 61.7233 171.497L63.005 171.747C65.5416 169.248 68.0082 166.674 70.405 164.025C71.4529 162.875 72.482 161.706 73.4923 160.518C76.6522 156.853 79.6751 153.07 82.5609 149.168C84.1731 146.968 85.7853 144.743 87.2846 142.47C83.367 144.138 79.1269 147.306 76.8054 149.225C75.6849 150.128 74.9997 150.74 74.9997 150.74C76.0346 148.077 77.388 145.549 79.0302 143.211C84.5358 135.15 92.1857 129.395 94.6765 120.399C97.9009 108.839 89.3724 103.068 85.7692 115.982C85.3178 117.594 84.7696 119.206 84.157 120.874C79.8605 132.402 72.3316 143.905 72.3316 143.905C74.4196 136.87 75.9505 129.681 76.9102 122.406C79.3285 105.148 78.8529 88.276 73.6858 88.1873C69.7118 88.1148 68.3092 91.7744 68.2688 98.5779C68.2996 102.516 68.5364 106.45 68.9782 110.363C70.3969 124.623 66.3503 145.146 66.3503 145.146C66.3503 145.146 64.0691 126.187 60.5787 119.295C60.2817 118.68 59.9079 118.106 59.4663 117.586C55.3552 113.063 48.3422 114.321 55.8147 132.208Z" fill="#92E3A9" stroke="#263238" stroke-width="0.0125952" stroke-linecap="round" stroke-linejoin="round"/>
<path d="M59.845 131.386C66.2131 146.484 66.2051 168.337 66.2051 168.337C66.2051 168.337 75.717 125.09 73.8468 106.76" stroke="#263238" stroke-width="0.0125952" stroke-linecap="round" stroke-linejoin="round"/>
<path d="M88.6714 123.293C88.6714 123.293 78.5629 143.687 69.5024 151.417" stroke="#263238" stroke-width="0.0125952" stroke-linecap="round" stroke-linejoin="round"/>
<path d="M-112.062 208.497C-70.8146 223.087 -22.1184 221.636 15.1715 204.894C36.3074 195.414 54.9201 181.211 70.4616 164.025L56.621 149.741H41.3052L34.5259 128.041C34.5259 128.041 -73.3377 126.485 -83.164 127.073C-92.9903 127.662 -100.35 141.583 -100.35 141.583L-88.4197 160.559L-104.219 184L-112.062 208.497Z" fill="#BFBFBF"/>
<path opacity="0.3" d="M41.3049 149.741C41.3049 149.741 15.2278 162.904 14.5668 162.187C13.9058 161.469 -2.88519 155.98 -2.88519 155.98L-13.5095 159.317L-2.85294 145.807L25.5619 144.944L34.5579 128.016L41.3049 149.741Z" fill="black" fill-opacity="0.7"/>
<path d="M-2.87695 145.815L25.5379 144.944L34.5339 128.041" stroke="#263238" stroke-width="0.0125952" stroke-linecap="round" stroke-linejoin="round"/>
<path d="M-112.062 208.497C-70.8146 223.087 -22.1184 221.636 15.1715 204.894C36.3074 195.414 54.9201 181.211 70.4616 164.025L56.621 149.741H41.3052L34.5259 128.041C34.5259 128.041 -73.3377 126.485 -83.164 127.073C-92.9903 127.662 -100.35 141.583 -100.35 141.583L-88.4197 160.559L-104.219 184L-112.062 208.497Z" stroke="#263238" stroke-width="0.0125952" stroke-miterlimit="10"/>
</g>
</g>
<path d="M39.8887 88.0657V78.1125H43.375C44.5827 78.1125 45.4987 78.345 46.123 78.8098C46.7474 79.2701 47.0596 79.9469 47.0596 80.8401C47.0596 81.3277 46.9342 81.7584 46.6836 82.1321C46.4329 82.5012 46.0843 82.7724 45.6377 82.9456C46.1481 83.0732 46.5492 83.3306 46.8408 83.718C47.137 84.1054 47.2852 84.5793 47.2852 85.1399C47.2852 86.0969 46.9798 86.8215 46.3691 87.3137C45.7585 87.8059 44.888 88.0566 43.7578 88.0657H39.8887ZM41.9395 83.7317V86.4182H43.6963C44.1794 86.4182 44.5553 86.3043 44.8242 86.0764C45.0977 85.844 45.2344 85.525 45.2344 85.1194C45.2344 84.2079 44.7627 83.7454 43.8193 83.7317H41.9395ZM41.9395 82.2825H43.457C44.4915 82.2642 45.0088 81.8518 45.0088 81.0452C45.0088 80.594 44.8766 80.2704 44.6123 80.0745C44.3525 79.8739 43.9401 79.7737 43.375 79.7737H41.9395V82.2825ZM52.8564 82.5217C52.5876 82.4853 52.3506 82.467 52.1455 82.467C51.3981 82.467 50.9082 82.72 50.6758 83.2258V88.0657H48.7002V80.6692H50.5664L50.6211 81.551C51.0176 80.872 51.5667 80.5325 52.2686 80.5325C52.4873 80.5325 52.6924 80.5621 52.8838 80.6213L52.8564 82.5217ZM57.0811 88.2024C55.9964 88.2024 55.1123 87.8697 54.4287 87.2043C53.7497 86.539 53.4102 85.6526 53.4102 84.5452V84.3538C53.4102 83.6109 53.5537 82.9478 53.8408 82.3645C54.1279 81.7766 54.5335 81.3254 55.0576 81.011C55.5863 80.692 56.1878 80.5325 56.8623 80.5325C57.874 80.5325 58.6693 80.8515 59.248 81.4895C59.8314 82.1275 60.123 83.0321 60.123 84.2034V85.01H55.4131C55.4769 85.4931 55.6683 85.8805 55.9873 86.1721C56.3109 86.4638 56.7188 86.6096 57.2109 86.6096C57.972 86.6096 58.5667 86.3339 58.9951 85.7825L59.9658 86.8694C59.6696 87.2887 59.2686 87.6168 58.7627 87.8538C58.2568 88.0862 57.6963 88.2024 57.0811 88.2024ZM56.8555 82.1321C56.4635 82.1321 56.1445 82.2642 55.8984 82.5286C55.6569 82.7929 55.502 83.1711 55.4336 83.6633H58.1816V83.5061C58.1725 83.0686 58.054 82.7314 57.8262 82.4944C57.5983 82.2528 57.2747 82.1321 56.8555 82.1321ZM65.5371 88.0657C65.446 87.8879 65.3799 87.6669 65.3389 87.4026C64.8604 87.9358 64.2383 88.2024 63.4727 88.2024C62.748 88.2024 62.1465 87.9928 61.668 87.5735C61.194 87.1542 60.957 86.6256 60.957 85.9875C60.957 85.2037 61.2464 84.6021 61.8252 84.1829C62.4085 83.7636 63.2493 83.5517 64.3477 83.5471H65.2568V83.1233C65.2568 82.7815 65.168 82.5081 64.9902 82.303C64.8171 82.0979 64.5413 81.9954 64.1631 81.9954C63.8304 81.9954 63.5684 82.0751 63.377 82.2346C63.1901 82.3941 63.0967 82.6129 63.0967 82.8909H61.1211C61.1211 82.4625 61.2533 82.066 61.5176 81.7014C61.7819 81.3368 62.1556 81.052 62.6387 80.8469C63.1217 80.6373 63.6641 80.5325 64.2656 80.5325C65.1771 80.5325 65.8994 80.7626 66.4326 81.2229C66.9704 81.6786 67.2393 82.3212 67.2393 83.1506V86.3567C67.2438 87.0585 67.3418 87.5894 67.5332 87.9495V88.0657H65.5371ZM63.9033 86.6917C64.195 86.6917 64.4639 86.6278 64.71 86.5002C64.9561 86.3681 65.1383 86.1926 65.2568 85.9739V84.7024H64.5186C63.5296 84.7024 63.0033 85.0442 62.9395 85.7278L62.9326 85.844C62.9326 86.0901 63.0192 86.2929 63.1924 86.4524C63.3656 86.6119 63.6025 86.6917 63.9033 86.6917ZM71.1221 78.8508V80.6692H72.3867V82.1184H71.1221V85.8098C71.1221 86.0833 71.1745 86.2792 71.2793 86.3977C71.3841 86.5162 71.5846 86.5754 71.8809 86.5754C72.0996 86.5754 72.2933 86.5595 72.4619 86.5276V88.0247C72.0745 88.1431 71.6758 88.2024 71.2656 88.2024C69.8802 88.2024 69.1738 87.5028 69.1465 86.1038V82.1184H68.0664V80.6692H69.1465V78.8508H71.1221ZM75.415 81.4758C75.9391 80.8469 76.5977 80.5325 77.3906 80.5325C78.9948 80.5325 79.8083 81.4644 79.8311 83.3284V88.0657H77.8555V83.3831C77.8555 82.9592 77.7643 82.6471 77.582 82.4465C77.3997 82.2415 77.0967 82.1389 76.6729 82.1389C76.0941 82.1389 75.6748 82.3622 75.415 82.8088V88.0657H73.4395V77.5657H75.415V81.4758ZM83.4062 88.0657H81.4238V80.6692H83.4062V88.0657ZM81.3076 78.7551C81.3076 78.4589 81.4056 78.2151 81.6016 78.0237C81.8021 77.8323 82.0732 77.7366 82.415 77.7366C82.7523 77.7366 83.0212 77.8323 83.2217 78.0237C83.4222 78.2151 83.5225 78.4589 83.5225 78.7551C83.5225 79.0559 83.4199 79.302 83.2148 79.4934C83.0143 79.6848 82.7477 79.7805 82.415 79.7805C82.0824 79.7805 81.8135 79.6848 81.6084 79.4934C81.4079 79.302 81.3076 79.0559 81.3076 78.7551ZM86.8584 80.6692L86.9199 81.5237C87.4486 80.8629 88.1572 80.5325 89.0459 80.5325C89.8298 80.5325 90.4131 80.7626 90.7959 81.2229C91.1787 81.6832 91.3747 82.3713 91.3838 83.2874V88.0657H89.4082V83.3352C89.4082 82.9159 89.3171 82.6129 89.1348 82.426C88.9525 82.2346 88.6494 82.1389 88.2256 82.1389C87.6696 82.1389 87.2526 82.3759 86.9746 82.8499V88.0657H84.999V80.6692H86.8584ZM92.6006 84.3127C92.6006 83.178 92.8695 82.2642 93.4072 81.5715C93.9495 80.8788 94.6787 80.5325 95.5947 80.5325C96.4059 80.5325 97.0371 80.8105 97.4883 81.3665L97.5703 80.6692H99.3613V87.8196C99.3613 88.4667 99.2132 89.0295 98.917 89.5081C98.6253 89.9866 98.2129 90.3512 97.6797 90.6018C97.1465 90.8525 96.5221 90.9778 95.8066 90.9778C95.2643 90.9778 94.7357 90.8684 94.2207 90.6497C93.7057 90.4355 93.3161 90.1575 93.0518 89.8157L93.9268 88.6125C94.4189 89.164 95.016 89.4397 95.7178 89.4397C96.2419 89.4397 96.6497 89.2984 96.9414 89.0159C97.2331 88.7379 97.3789 88.3414 97.3789 87.8264V87.4299C96.9232 87.9449 96.3239 88.2024 95.5811 88.2024C94.6924 88.2024 93.9723 87.856 93.4209 87.1633C92.874 86.4661 92.6006 85.5432 92.6006 84.3948V84.3127ZM94.5762 84.4563C94.5762 85.1262 94.7106 85.6526 94.9795 86.0354C95.2484 86.4137 95.6175 86.6028 96.0869 86.6028C96.6885 86.6028 97.1191 86.3772 97.3789 85.926V82.8157C97.1146 82.3645 96.6885 82.1389 96.1006 82.1389C95.6266 82.1389 95.2529 82.3326 94.9795 82.72C94.7106 83.1073 94.5762 83.6861 94.5762 84.4563Z" fill="white"/>
<path d="M83.3347 61.7323C83.3334 67.0657 83.3334 67.0657 78.0014 67.0657C72.6681 67.0657 71.3347 63.0657 71.3347 59.0657C71.3347 58.5617 71.3107 57.8417 71.3001 56.999L73.9974 58.5577L74.0001 59.0657C74.0001 62.767 75.0881 64.399 78.0001 64.399C79.5201 64.399 80.1467 64.3897 80.6174 64.3483C80.6574 63.8803 80.6667 63.2523 80.6667 61.7323C80.6667 57.459 79.7294 53.6883 78.2201 51.199C77.1028 49.3563 76.0694 48.7417 75.5107 48.9283C75.1201 49.059 74.7041 49.795 74.4027 51.0923L72.0161 49.715C72.5081 48.119 73.3254 46.847 74.6667 46.399C78.6667 45.0657 83.3374 51.7323 83.3334 61.7323H83.3347ZM65.3334 46.399C66.6761 46.847 67.4934 48.119 67.9854 49.715L65.5987 51.0923C65.2974 49.795 64.8801 49.059 64.4907 48.9283C63.9307 48.7417 62.8974 49.355 61.7814 51.1977C60.2707 53.6883 59.3334 57.459 59.3334 61.7323C59.3334 63.2523 59.3427 63.879 59.3841 64.3483C59.8521 64.3897 60.4801 64.399 62.0001 64.399C64.9121 64.399 66.0001 62.767 66.0001 59.0657L66.0054 58.5563L68.7027 56.999C68.6894 57.843 68.6667 58.5617 68.6667 59.0657C68.6667 63.0657 67.3334 67.0657 62.0001 67.0657C56.6667 67.0657 56.6667 67.0657 56.6667 61.7323C56.6667 51.7323 61.3334 45.0657 65.3334 46.399ZM71.3334 41.7323V51.6283L77.5947 55.2443L76.2614 57.5537L70.0001 53.939L63.7387 57.5537L62.4054 55.2443L68.6667 51.6283V41.7323H71.3334Z" fill="#F9F8FC"/>
<rect x="155.473" y="0.629883" width="139.527" height="128.436" rx="3.64479" fill="url(#paint2_linear_1607_39964)"/>
<mask id="mask1_1607_39964" style="mask-type:alpha" maskUnits="userSpaceOnUse" x="155" y="0" width="141" height="130">
<rect x="155.473" y="0.629883" width="139.527" height="128.436" rx="3.64479" fill="url(#paint3_linear_1607_39964)"/>
</mask>
<g mask="url(#mask1_1607_39964)">
<g style="mix-blend-mode:overlay" opacity="0.4">
<path d="M166.287 104.811C168.071 105.589 172.422 105.5 172.422 105.5C172.422 105.5 171.493 102.649 171.41 102.477C170.453 100.48 167.43 97.1825 164.972 97.5129C164.566 97.5791 164.178 97.7302 163.834 97.9565C163.49 98.1829 163.198 98.4792 162.976 98.8262C162.755 99.1732 162.609 99.5631 162.548 99.9703C162.488 100.378 162.514 100.793 162.625 101.19C163.031 102.883 164.773 104.15 166.287 104.811Z" fill="#92E3A9"/>
<path d="M167.795 117.418C169.641 117.686 173.524 116.564 173.834 116.467C174.472 118.691 175.259 120.869 176.188 122.988C176.718 124.227 177.297 125.452 177.889 126.678C177.538 126.162 177.2 125.7 177.166 125.638C175.713 123.965 171.933 121.583 169.647 122.547C169.274 122.72 168.94 122.969 168.669 123.279C168.397 123.588 168.194 123.952 168.072 124.345C167.95 124.738 167.912 125.153 167.96 125.562C168.009 125.971 168.142 126.365 168.353 126.719C169.193 128.255 171.21 129.012 172.849 129.246C174.488 129.48 177.841 128.599 178.715 128.351C178.949 128.819 179.176 129.287 179.404 129.728C180.526 131.973 181.662 134.203 182.702 136.42C183.073 137.205 183.39 137.99 183.741 138.775C183.424 138.314 183.156 137.928 183.108 137.873C181.662 136.2 177.882 133.811 175.596 134.782C175.222 134.954 174.887 135.202 174.615 135.512C174.343 135.821 174.139 136.185 174.016 136.578C173.894 136.972 173.855 137.386 173.903 137.796C173.951 138.205 174.084 138.6 174.295 138.954C175.142 140.483 177.159 141.24 178.798 141.481C180.436 141.722 183.459 140.916 184.505 140.627C184.829 141.44 185.146 142.252 185.421 143.051C185.6 143.601 185.807 144.125 185.951 144.689C186.096 145.254 186.254 145.791 186.413 146.335C186.66 147.395 186.929 148.49 187.156 149.529C187.314 150.252 187.452 150.941 187.597 151.636C187.239 150.851 186.509 149.337 186.433 149.213C185.249 147.34 181.875 144.393 179.472 145.02C179.076 145.133 178.708 145.328 178.392 145.592C178.076 145.857 177.819 146.184 177.638 146.554C177.457 146.924 177.356 147.328 177.341 147.74C177.326 148.152 177.398 148.562 177.551 148.944C178.157 150.59 180.037 151.643 181.614 152.132C183.356 152.662 187.211 152.173 187.693 152.132C187.927 153.282 188.141 154.404 188.32 155.471C188.705 157.626 189.008 159.602 189.229 161.255H190.847C190.571 159.513 190.22 157.468 189.766 155.196C189.538 154.025 189.27 152.779 188.981 151.505C190.141 151.041 191.272 150.508 192.368 149.908C193.642 151.285 196.892 152.896 197.312 153.096C196.871 154.184 196.43 155.237 195.997 156.229C195.177 158.108 194.399 159.795 193.697 161.255H195.439C196.04 159.924 196.678 158.439 197.353 156.8C197.8 155.698 198.269 154.507 198.73 153.282C199.198 153.385 203.012 154.156 204.789 153.757C206.407 153.392 208.355 152.476 209.078 150.886C209.261 150.517 209.364 150.113 209.38 149.702C209.397 149.29 209.327 148.88 209.174 148.497C209.021 148.115 208.79 147.768 208.495 147.481C208.199 147.194 207.847 146.972 207.46 146.831C205.112 146.039 201.525 148.71 200.21 150.493C200.134 150.597 199.418 151.829 198.978 152.614C199.164 152.111 199.356 151.629 199.542 151.113C199.914 150.087 200.231 149.048 200.63 147.946C200.795 147.409 200.961 146.858 201.126 146.307C201.291 145.756 201.415 145.164 201.567 144.593C201.883 143.216 202.145 141.839 202.372 140.462C203.267 140.785 206.469 141.901 208.128 141.784C209.787 141.667 211.846 141.061 212.796 139.594C213.033 139.257 213.196 138.874 213.275 138.469C213.354 138.065 213.346 137.649 213.254 137.247C213.161 136.846 212.984 136.468 212.736 136.14C212.487 135.811 212.172 135.538 211.811 135.339C209.608 134.203 205.656 136.303 204.093 137.859C203.99 137.963 202.992 139.236 202.455 139.925C202.586 139.085 202.723 138.252 202.826 137.398C203.136 134.94 203.364 132.441 203.611 129.955C203.68 129.191 203.77 128.427 203.845 127.669C204.162 127.786 207.935 129.191 209.794 129.046C211.44 128.936 213.512 128.358 214.469 126.864C214.705 126.526 214.867 126.142 214.944 125.738C215.022 125.333 215.014 124.917 214.92 124.516C214.827 124.115 214.65 123.738 214.402 123.409C214.153 123.081 213.838 122.808 213.478 122.609C211.274 121.473 207.329 123.566 205.76 125.129C205.642 125.246 204.204 127.043 203.859 127.518C204.038 125.845 204.231 124.172 204.486 122.54C204.822 120.33 205.298 118.143 205.911 115.992C206.062 116.047 209.994 117.535 211.894 117.369C213.547 117.252 215.612 116.646 216.569 115.18C216.805 114.842 216.967 114.459 217.045 114.055C217.124 113.651 217.116 113.235 217.023 112.833C216.93 112.432 216.754 112.055 216.507 111.726C216.259 111.398 215.945 111.125 215.584 110.925C213.381 109.789 209.429 111.889 207.859 113.452C207.736 113.569 206.193 115.517 205.939 115.875C205.973 115.751 206 115.621 206.035 115.497C206.712 113.357 207.581 111.283 208.631 109.3C209.195 108.199 209.794 107.173 210.4 106.188C211.089 106.539 214.338 108.109 216.066 108.185C217.795 108.26 219.839 107.875 220.948 106.519C221.221 106.21 221.425 105.847 221.548 105.453C221.671 105.06 221.71 104.645 221.661 104.236C221.613 103.827 221.48 103.432 221.269 103.078C221.058 102.724 220.775 102.418 220.438 102.181C218.373 100.804 214.242 102.463 212.486 103.84C212.39 103.916 211.515 104.784 210.889 105.424C211.171 104.983 211.453 104.529 211.729 104.116C212.768 102.553 213.794 101.183 214.751 99.9847C215.288 99.2962 215.784 98.6972 216.259 98.1395C217.134 98.1395 220.638 98.0155 222.173 97.2995C223.709 96.5834 225.382 95.2822 225.74 93.5678C225.839 93.1684 225.854 92.7524 225.781 92.3471C225.709 91.9419 225.552 91.5564 225.321 91.2159C225.09 90.8754 224.789 90.5875 224.439 90.3711C224.089 90.1547 223.697 90.0146 223.289 89.96C220.824 89.6915 217.898 93.0721 216.996 95.0963C216.92 95.2684 216.011 98.1395 216.06 98.1395H216.115C215.646 98.6696 215.151 99.2411 214.627 99.8814C213.657 101.066 212.562 102.415 211.509 103.957C210.33 105.609 209.25 107.329 208.273 109.107C207.173 111.087 206.251 113.161 205.519 115.304V115.38C205.519 114.657 205.519 112.626 205.477 112.467C205.195 110.271 203.35 106.202 200.912 105.747C200.506 105.684 200.091 105.707 199.694 105.815C199.297 105.922 198.928 106.112 198.609 106.372C198.29 106.631 198.029 106.955 197.844 107.322C197.658 107.689 197.552 108.091 197.532 108.501C197.387 110.243 198.654 111.992 199.887 113.094C201.264 114.333 205.14 115.538 205.443 115.634C204.75 117.84 204.205 120.09 203.811 122.368C203.577 123.697 203.377 125.039 203.198 126.389C203.198 125.762 203.198 125.198 203.164 125.122C202.882 122.926 201.043 118.85 198.606 118.395C198.199 118.332 197.784 118.355 197.387 118.462C196.99 118.57 196.619 118.76 196.3 119.019C195.981 119.279 195.719 119.603 195.533 119.969C195.347 120.336 195.24 120.738 195.219 121.149C195.074 122.891 196.341 124.64 197.573 125.742C198.806 126.843 202.097 127.952 202.964 128.227C202.902 128.75 202.833 129.267 202.771 129.783C202.475 132.269 202.186 134.754 201.835 137.185C201.711 138.038 201.553 138.878 201.401 139.718C201.401 139.161 201.401 138.686 201.401 138.617C201.119 136.42 199.274 132.344 196.837 131.897C196.43 131.833 196.015 131.855 195.617 131.962C195.22 132.069 194.85 132.258 194.531 132.518C194.212 132.778 193.951 133.103 193.766 133.47C193.581 133.837 193.475 134.24 193.456 134.651C193.311 136.393 194.578 138.142 195.811 139.243C197.043 140.345 200.011 141.343 201.043 141.674C200.864 142.527 200.685 143.388 200.472 144.207C200.313 144.765 200.196 145.309 200.004 145.86C199.811 146.411 199.652 146.954 199.48 147.491C199.109 148.517 198.73 149.557 198.344 150.562C198.076 151.251 197.814 151.939 197.546 152.566C197.683 151.712 197.911 150.046 197.911 149.901C197.884 147.953 197.358 146.045 196.382 144.359C196.389 144.142 196.375 143.926 196.341 143.712C196.29 143.303 196.154 142.909 195.94 142.556C195.727 142.203 195.442 141.9 195.104 141.664C194.765 141.429 194.381 141.268 193.976 141.191C193.571 141.115 193.155 141.124 192.754 141.219C190.358 141.86 188.843 146.039 188.726 148.276C188.726 148.407 188.809 149.832 188.877 150.727C188.753 150.204 188.643 149.702 188.512 149.165C188.258 148.104 187.975 147.051 187.679 145.922C187.514 145.385 187.349 144.834 187.184 144.283C187.018 143.732 186.798 143.168 186.605 142.61C186.13 141.316 185.586 140.021 185.015 138.734C185.937 138.513 189.222 137.673 190.523 136.668C191.824 135.663 193.229 134.011 193.215 132.262C193.226 131.85 193.15 131.441 192.993 131.061C192.835 130.681 192.599 130.338 192.301 130.055C192.002 129.772 191.647 129.554 191.259 129.418C190.871 129.281 190.458 129.227 190.048 129.26C187.583 129.528 185.442 133.453 184.994 135.622C184.994 135.752 184.822 137.35 184.76 138.224C184.409 137.453 184.072 136.682 183.679 135.911C182.578 133.694 181.393 131.484 180.237 129.274L179.176 127.208C179.507 127.132 183.431 126.224 184.905 125.088C186.22 124.082 187.611 122.437 187.597 120.688C187.608 120.276 187.532 119.867 187.374 119.486C187.217 119.106 186.981 118.762 186.683 118.479C186.384 118.195 186.029 117.977 185.641 117.84C185.253 117.702 184.84 117.647 184.43 117.679C181.965 117.948 179.824 121.879 179.376 124.048C179.342 124.206 179.135 126.499 179.114 127.084C178.336 125.59 177.579 124.096 176.891 122.588C175.948 120.559 175.138 118.471 174.467 116.337C174.625 116.302 178.722 115.373 180.23 114.209C181.545 113.204 182.936 111.558 182.922 109.81C182.933 109.398 182.857 108.989 182.7 108.609C182.542 108.229 182.306 107.886 182.008 107.603C181.709 107.319 181.354 107.102 180.966 106.965C180.578 106.828 180.165 106.775 179.755 106.808C177.29 107.069 175.149 111.001 174.701 113.17C174.667 113.335 174.446 115.8 174.439 116.254L174.309 115.882C173.696 113.723 173.277 111.513 173.056 109.279C172.918 108.047 172.856 106.863 172.821 105.713C173.599 105.617 177.166 105.142 178.639 104.247C180.113 103.351 181.621 101.906 181.8 100.164C181.855 99.7557 181.824 99.3406 181.708 98.9454C181.593 98.5503 181.396 98.1837 181.129 97.8696C180.863 97.5554 180.534 97.3007 180.163 97.1218C179.792 96.943 179.388 96.844 178.977 96.8313C176.498 96.8313 173.944 100.494 173.262 102.601C173.221 102.718 172.973 103.923 172.808 104.804C172.808 104.281 172.808 103.744 172.808 103.248C172.808 101.369 172.932 99.6542 173.049 98.1326C173.124 97.2719 173.207 96.4939 173.29 95.7641C173.978 95.2684 176.877 93.2442 177.758 91.7983C178.639 90.3525 179.321 88.3558 178.681 86.724C178.543 86.3355 178.325 85.9805 178.04 85.682C177.756 85.3835 177.412 85.1483 177.03 84.9918C176.649 84.8352 176.239 84.7608 175.827 84.7733C175.415 84.7859 175.01 84.8852 174.639 85.0647C172.436 86.2008 171.885 90.6348 172.222 92.8173C172.257 93.0101 173.09 95.9018 173.124 95.8743H173.166C173.069 96.5628 172.973 97.327 172.89 98.1463C172.739 99.6679 172.58 101.382 172.539 103.269C172.467 105.296 172.515 107.326 172.684 109.348C172.86 111.612 173.236 113.856 173.806 116.054C173.806 116.054 173.806 116.109 173.806 116.13C173.414 115.517 172.264 113.844 172.167 113.727C170.715 112.047 166.935 109.665 164.649 110.636C164.274 110.806 163.939 111.054 163.666 111.363C163.394 111.671 163.189 112.034 163.066 112.427C162.943 112.821 162.905 113.235 162.953 113.644C163.002 114.053 163.136 114.448 163.348 114.801C164.139 116.419 166.157 117.177 167.795 117.418Z" fill="#92E3A9"/>
<path d="M210.31 105.768C210.345 105.768 211.102 102.876 211.123 102.69C211.433 100.494 210.73 96.0808 208.5 94.9999C208.124 94.8308 207.717 94.7428 207.305 94.7416C206.892 94.7404 206.485 94.8261 206.108 94.9931C205.731 95.16 205.394 95.4045 205.118 95.7105C204.842 96.0166 204.634 96.3773 204.506 96.7693C203.907 98.4149 204.665 100.432 205.567 101.816C206.62 103.448 210.304 105.768 210.31 105.768Z" fill="#92E3A9"/>
<path d="M238.415 104.811C240.192 105.589 244.543 105.5 244.55 105.5C244.557 105.5 243.613 102.649 243.531 102.477C242.574 100.48 239.558 97.1825 237.1 97.5129C236.694 97.5792 236.306 97.7304 235.962 97.9566C235.617 98.1828 235.325 98.479 235.103 98.8259C234.88 99.1727 234.734 99.5624 234.672 99.9697C234.611 100.377 234.636 100.793 234.746 101.19C235.152 102.883 236.901 104.15 238.415 104.811Z" fill="#92E3A9"/>
<path d="M239.916 117.418C241.761 117.686 245.644 116.564 245.954 116.467C246.593 118.691 247.38 120.869 248.309 122.988C248.846 124.227 249.424 125.452 250.016 126.678C249.658 126.162 249.328 125.7 249.287 125.638C247.841 123.965 244.054 121.583 241.775 122.547C241.4 122.719 241.066 122.968 240.794 123.277C240.522 123.587 240.318 123.95 240.195 124.343C240.073 124.737 240.034 125.152 240.082 125.561C240.13 125.97 240.263 126.365 240.474 126.719C241.314 128.255 243.338 129.012 244.97 129.246C246.601 129.48 249.961 128.599 250.843 128.351C251.077 128.819 251.297 129.287 251.531 129.728C252.653 131.973 253.783 134.203 254.829 136.42C255.194 137.205 255.518 137.99 255.869 138.775C255.552 138.314 255.284 137.928 255.235 137.873C253.789 136.2 250.003 133.811 247.724 134.782C247.349 134.954 247.015 135.202 246.743 135.512C246.471 135.821 246.267 136.185 246.144 136.578C246.021 136.972 245.983 137.386 246.031 137.796C246.079 138.205 246.212 138.6 246.422 138.954C247.262 140.483 249.28 141.24 250.918 141.481C252.557 141.722 255.586 140.916 256.626 140.627C256.95 141.44 257.273 142.252 257.549 143.051C257.721 143.601 257.927 144.125 258.072 144.689C258.217 145.254 258.382 145.791 258.533 146.335C258.788 147.395 259.057 148.49 259.277 149.529C259.435 150.252 259.573 150.941 259.717 151.636C259.359 150.851 258.63 149.337 258.554 149.213C257.377 147.34 253.996 144.393 251.593 145.02C251.198 145.134 250.83 145.329 250.515 145.594C250.2 145.859 249.944 146.186 249.763 146.556C249.583 146.926 249.482 147.33 249.468 147.741C249.453 148.153 249.525 148.563 249.679 148.944C250.278 150.59 252.158 151.643 253.741 152.132C255.483 152.662 259.339 152.173 259.821 152.132C260.048 153.282 260.261 154.404 260.447 155.471C260.826 157.626 261.136 159.602 261.349 161.255H262.967C262.692 159.513 262.341 157.468 261.893 155.196C261.659 154.025 261.391 152.779 261.101 151.505C262.27 151.041 263.411 150.508 264.516 149.908C265.783 151.285 269.033 152.896 269.46 153.096C269.012 154.184 268.572 155.237 268.138 156.229C267.325 158.108 266.547 159.795 265.845 161.255H267.587C268.179 159.926 268.826 158.439 269.494 156.8C269.949 155.698 270.41 154.507 270.871 153.282C271.333 153.385 275.154 154.156 276.93 153.757C278.541 153.392 280.497 152.476 281.219 150.886C281.401 150.517 281.503 150.113 281.519 149.702C281.535 149.291 281.465 148.881 281.312 148.498C281.16 148.116 280.929 147.77 280.634 147.483C280.339 147.196 279.987 146.973 279.601 146.831C277.247 146.039 273.66 148.71 272.345 150.493C272.269 150.597 271.553 151.829 271.119 152.614C271.305 152.111 271.491 151.629 271.677 151.113C272.056 150.087 272.4 149.048 272.772 147.946L273.26 146.307C273.439 145.763 273.556 145.164 273.701 144.593C274.025 143.216 274.279 141.839 274.513 140.462C275.409 140.785 278.603 141.901 280.262 141.784C281.922 141.667 283.98 141.061 284.937 139.594C285.173 139.257 285.335 138.874 285.414 138.469C285.492 138.065 285.484 137.649 285.392 137.248C285.299 136.847 285.123 136.47 284.875 136.141C284.627 135.812 284.313 135.539 283.953 135.339C281.75 134.203 277.798 136.303 276.228 137.859C276.131 137.963 275.133 139.236 274.596 139.925C274.727 139.085 274.858 138.252 274.968 137.398C275.271 134.94 275.505 132.441 275.746 129.955C275.822 129.191 275.904 128.427 275.987 127.669C276.304 127.787 280.077 129.191 281.929 129.046C283.581 128.936 285.647 128.358 286.604 126.864C286.839 126.526 287.002 126.143 287.08 125.739C287.158 125.335 287.151 124.919 287.058 124.517C286.965 124.116 286.789 123.739 286.541 123.41C286.293 123.082 285.979 122.809 285.619 122.609C283.416 121.473 279.464 123.566 277.894 125.129C277.777 125.246 276.338 127.043 276.001 127.518C276.173 125.845 276.366 124.172 276.62 122.54C276.955 120.329 277.433 118.142 278.052 115.992C278.197 116.048 282.128 117.535 284.035 117.369C285.681 117.252 287.753 116.647 288.704 115.18C288.94 114.843 289.104 114.46 289.182 114.055C289.261 113.651 289.254 113.234 289.161 112.833C289.068 112.431 288.892 112.054 288.643 111.725C288.395 111.397 288.08 111.124 287.719 110.925C285.516 109.789 281.564 111.889 279.994 113.452C279.877 113.569 278.328 115.517 278.073 115.875C278.114 115.751 278.135 115.621 278.176 115.497C278.851 113.358 279.718 111.284 280.765 109.3C281.33 108.199 281.929 107.173 282.541 106.188C283.23 106.539 286.48 108.109 288.201 108.185C289.922 108.261 291.974 107.875 293.089 106.519C293.361 106.209 293.564 105.845 293.685 105.452C293.807 105.058 293.845 104.644 293.796 104.235C293.748 103.826 293.614 103.432 293.403 103.078C293.192 102.724 292.909 102.419 292.573 102.181C290.507 100.804 286.376 102.463 284.621 103.84C284.524 103.916 283.657 104.784 283.03 105.424C283.306 104.983 283.588 104.529 283.87 104.116C284.903 102.553 285.936 101.183 286.886 99.9847C287.423 99.2962 287.926 98.6972 288.401 98.1395C289.268 98.1395 292.779 98.0156 294.308 97.2995C295.836 96.5835 297.516 95.2822 297.881 93.5678C297.98 93.1684 297.993 92.7528 297.92 92.348C297.848 91.9431 297.691 91.5581 297.46 91.2179C297.228 90.8776 296.928 90.5898 296.579 90.3731C296.229 90.1564 295.838 90.0157 295.43 89.9601C292.965 89.6915 290.032 93.0721 289.13 95.0963C289.055 95.2684 288.153 98.1395 288.194 98.1395H288.249C287.781 98.6696 287.292 99.2411 286.762 99.8814C285.798 101.066 284.696 102.415 283.643 103.957C282.467 105.61 281.389 107.329 280.414 109.107C279.314 111.087 278.393 113.161 277.66 115.304V115.38C277.66 114.657 277.66 112.626 277.619 112.467C277.336 110.271 275.498 106.202 273.061 105.747C272.654 105.684 272.239 105.707 271.841 105.815C271.444 105.922 271.074 106.112 270.755 106.371C270.435 106.631 270.174 106.955 269.988 107.322C269.802 107.689 269.694 108.091 269.673 108.501C269.536 110.243 270.796 111.992 272.028 113.094C273.405 114.333 277.281 115.538 277.591 115.634C276.898 117.84 276.353 120.09 275.959 122.368C275.718 123.697 275.526 125.039 275.347 126.389C275.347 125.762 275.347 125.198 275.347 125.122C275.064 122.926 273.219 118.85 270.782 118.395C270.375 118.332 269.96 118.355 269.564 118.462C269.167 118.57 268.797 118.76 268.478 119.019C268.159 119.279 267.899 119.603 267.713 119.97C267.528 120.337 267.421 120.739 267.401 121.149C267.257 122.891 268.523 124.64 269.756 125.742C270.988 126.843 274.279 127.952 275.147 128.227C275.085 128.75 275.009 129.267 274.947 129.783C274.651 132.269 274.369 134.754 274.011 137.185C273.887 138.038 273.735 138.878 273.584 139.718C273.584 139.161 273.584 138.686 273.584 138.617C273.302 136.42 271.463 132.344 269.026 131.897C268.619 131.833 268.204 131.855 267.806 131.962C267.408 132.069 267.037 132.258 266.718 132.518C266.398 132.778 266.137 133.102 265.951 133.47C265.765 133.837 265.659 134.24 265.639 134.651C265.494 136.393 266.761 138.142 267.993 139.243C269.226 140.345 272.2 141.343 273.233 141.674C273.047 142.527 272.868 143.388 272.654 144.207C272.496 144.765 272.386 145.309 272.193 145.86C272 146.411 271.842 146.954 271.67 147.492C271.291 148.517 270.919 149.557 270.527 150.562C270.265 151.251 269.997 151.939 269.735 152.566C269.866 151.712 270.093 150.046 270.1 149.901C270.073 147.953 269.547 146.045 268.572 144.359C268.578 144.142 268.564 143.926 268.53 143.712C268.479 143.303 268.341 142.91 268.128 142.558C267.915 142.206 267.63 141.902 267.291 141.667C266.953 141.432 266.569 141.271 266.165 141.194C265.76 141.117 265.344 141.125 264.943 141.219C262.547 141.86 261.026 146.039 260.915 148.276C260.915 148.407 260.991 149.832 261.06 150.728C260.936 150.204 260.826 149.702 260.695 149.165C260.447 148.104 260.165 147.051 259.862 145.922C259.704 145.385 259.538 144.834 259.366 144.283C259.194 143.732 258.981 143.168 258.788 142.61C258.313 141.316 257.776 140.021 257.198 138.734C258.127 138.513 261.404 137.673 262.706 136.668C264.007 135.663 265.405 134.011 265.391 132.262C265.403 131.85 265.328 131.44 265.171 131.06C265.014 130.679 264.778 130.336 264.479 130.052C264.18 129.769 263.824 129.552 263.436 129.415C263.047 129.279 262.634 129.226 262.224 129.26C259.759 129.528 257.624 133.453 257.177 135.622C257.177 135.753 256.998 137.35 256.936 138.224C256.585 137.453 256.247 136.682 255.855 135.911C254.753 133.694 253.569 131.484 252.412 129.274L251.352 127.208C251.683 127.132 255.6 126.224 257.081 125.088C258.389 124.082 259.779 122.437 259.773 120.688C259.784 120.276 259.708 119.866 259.55 119.485C259.392 119.103 259.156 118.76 258.856 118.476C258.557 118.192 258.201 117.975 257.812 117.837C257.423 117.7 257.01 117.646 256.599 117.679C254.134 117.948 251.999 121.879 251.552 124.048C251.552 124.206 251.311 126.499 251.283 127.084C250.512 125.59 249.748 124.096 249.059 122.588C248.119 120.559 247.312 118.471 246.643 116.337C246.794 116.302 250.891 115.373 252.406 114.209C253.714 113.204 255.104 111.558 255.098 109.81C255.108 109.398 255.031 108.989 254.873 108.608C254.714 108.228 254.478 107.885 254.179 107.602C253.879 107.319 253.524 107.102 253.136 106.965C252.747 106.829 252.334 106.775 251.924 106.808C249.459 107.069 247.324 111.001 246.877 113.17C246.842 113.335 246.615 115.8 246.608 116.254C246.574 116.13 246.519 116.006 246.484 115.882C245.87 113.723 245.448 111.513 245.224 109.28C245.087 108.047 245.025 106.863 244.99 105.713C245.768 105.617 249.335 105.142 250.815 104.247C252.295 103.351 253.789 101.906 253.968 100.164C254.025 99.7561 253.994 99.3412 253.88 98.946C253.765 98.5508 253.569 98.1842 253.303 97.8699C253.038 97.5556 252.709 97.3007 252.338 97.1218C251.968 96.9429 251.564 96.8439 251.152 96.8313C248.674 96.8313 246.113 100.494 245.431 102.601C245.431 102.718 245.149 103.923 244.977 104.804C244.977 104.281 244.977 103.744 244.977 103.248C244.977 101.369 245.094 99.6542 245.211 98.1326C245.286 97.272 245.369 96.494 245.459 95.7641C246.147 95.2684 249.039 93.2442 249.92 91.7984C250.801 90.3525 251.49 88.3558 250.843 86.7241C250.706 86.3358 250.488 85.9809 250.204 85.6824C249.921 85.384 249.577 85.1487 249.196 84.9921C248.816 84.8355 248.406 84.761 247.994 84.7735C247.583 84.7861 247.179 84.8853 246.808 85.0648C244.605 86.2008 244.054 90.6348 244.391 92.8174C244.391 93.0101 245.252 95.9019 245.293 95.8743H245.335C245.238 96.5628 245.142 97.3271 245.052 98.1464C244.901 99.668 244.742 101.382 244.701 103.269C244.632 105.296 244.68 107.326 244.846 109.348C245.021 111.613 245.399 113.857 245.975 116.054V116.13C245.589 115.517 244.44 113.844 244.336 113.727C242.89 112.047 239.104 109.665 236.825 110.636C236.45 110.806 236.115 111.054 235.842 111.363C235.569 111.671 235.365 112.034 235.242 112.427C235.119 112.821 235.081 113.235 235.129 113.644C235.178 114.053 235.312 114.448 235.523 114.801C236.288 116.419 238.277 117.177 239.916 117.418Z" fill="#92E3A9"/>
<path d="M282.417 105.768C282.459 105.768 283.209 102.876 283.237 102.69C283.54 100.494 282.844 96.0808 280.607 94.9999C280.231 94.8309 279.825 94.7429 279.413 94.7418C279.001 94.7407 278.594 94.8264 278.218 94.9934C277.842 95.1604 277.505 95.4049 277.23 95.7109C276.954 96.0169 276.747 96.3776 276.62 96.7693C276.021 98.4149 276.779 100.432 277.674 101.816C278.748 103.448 282.417 105.768 282.417 105.768Z" fill="#92E3A9"/>
<path d="M284.056 126.196C285.165 126.685 287.864 126.623 287.864 126.623C287.864 126.623 287.285 124.853 287.237 124.743C286.645 123.504 284.765 121.452 283.237 121.659C282.985 121.701 282.744 121.795 282.531 121.936C282.317 122.077 282.136 122.261 281.998 122.477C281.861 122.692 281.77 122.934 281.732 123.187C281.694 123.44 281.709 123.698 281.777 123.945C282.032 125.005 283.106 125.79 284.056 126.196Z" fill="#92E3A9"/>
<path d="M284.993 134.031C286.135 134.196 288.545 133.494 288.738 133.439C289.137 134.819 289.627 136.172 290.205 137.488C290.535 138.259 290.893 139.016 291.265 139.78C291.044 139.457 290.845 139.174 290.81 139.133C289.908 138.093 287.561 136.613 286.142 137.219C285.909 137.325 285.702 137.479 285.532 137.671C285.363 137.863 285.236 138.089 285.16 138.333C285.084 138.578 285.061 138.835 285.091 139.089C285.121 139.343 285.205 139.588 285.337 139.808C285.86 140.758 287.113 141.226 288.132 141.378C289.151 141.529 291.23 140.971 291.774 140.82L292.208 141.687C292.897 143.064 293.585 144.441 294.274 145.818C294.508 146.3 294.714 146.789 294.921 147.278C294.728 146.989 294.556 146.748 294.528 146.72C293.626 145.681 291.279 144.194 289.86 144.799C289.628 144.906 289.421 145.061 289.252 145.253C289.084 145.445 288.957 145.671 288.881 145.915C288.805 146.159 288.782 146.416 288.811 146.67C288.841 146.924 288.924 147.168 289.055 147.388C289.578 148.338 290.831 148.813 291.85 148.958C293.052 148.966 294.248 148.787 295.396 148.428C295.595 148.93 295.795 149.44 295.967 149.936C296.071 150.28 296.201 150.624 296.291 150.948C296.38 151.271 296.484 151.636 296.58 151.974C296.738 152.662 296.904 153.309 297.041 153.957C297.138 154.404 297.227 154.838 297.317 155.265C297.09 154.783 296.628 153.84 296.594 153.764C295.857 152.6 293.757 150.783 292.27 151.161C292.024 151.231 291.796 151.353 291.599 151.517C291.403 151.681 291.244 151.885 291.132 152.115C291.019 152.344 290.957 152.595 290.947 152.851C290.938 153.107 290.983 153.361 291.079 153.599C291.451 154.618 292.621 155.272 293.599 155.575C294.577 155.877 297.041 155.575 297.372 155.575C297.516 156.263 297.654 156.986 297.764 157.64C298.005 159.017 298.184 160.188 298.329 161.234H299.334C299.162 160.153 298.942 158.879 298.646 157.475C298.501 156.745 298.336 155.974 298.157 155.182C298.862 154.888 299.552 154.558 300.222 154.191C301.15 154.988 302.183 155.653 303.293 156.167C303.018 156.855 302.742 157.502 302.474 158.115C301.971 159.279 301.489 160.325 301.048 161.234H302.129C302.501 160.408 302.901 159.485 303.321 158.48C303.603 157.792 303.885 157.062 304.174 156.297C304.463 156.359 306.832 156.841 307.94 156.594C308.939 156.366 310.157 155.795 310.605 154.81C310.718 154.581 310.782 154.33 310.792 154.075C310.802 153.819 310.758 153.564 310.664 153.326C310.569 153.089 310.425 152.874 310.242 152.695C310.059 152.517 309.84 152.379 309.6 152.29C308.14 151.802 305.909 153.454 305.097 154.562C305.049 154.631 304.601 155.396 304.333 155.884C304.45 155.575 304.56 155.272 304.677 154.948C304.911 154.315 305.124 153.674 305.365 152.986C305.462 152.648 305.565 152.297 305.668 151.967C305.772 151.636 305.847 151.278 305.944 150.9C306.143 150.067 306.302 149.213 306.446 148.345C307.588 148.803 308.793 149.082 310.02 149.171C311.039 149.096 312.326 148.717 312.918 147.794C313.066 147.585 313.168 147.347 313.217 147.095C313.267 146.844 313.262 146.585 313.204 146.335C313.147 146.085 313.037 145.851 312.882 145.647C312.727 145.443 312.53 145.274 312.305 145.151C310.928 144.462 308.484 145.75 307.486 146.72C307.424 146.782 306.797 147.553 306.467 147.987C306.55 147.464 306.632 146.948 306.701 146.417C306.887 144.889 307.032 143.34 307.183 141.791C307.231 141.323 307.279 140.847 307.335 140.372C307.527 140.448 309.875 141.323 311.025 141.24C312.051 141.171 313.338 140.792 313.93 139.863C314.077 139.653 314.178 139.415 314.227 139.164C314.276 138.912 314.271 138.654 314.213 138.404C314.155 138.155 314.046 137.921 313.892 137.716C313.737 137.512 313.542 137.343 313.318 137.219C311.941 136.531 309.496 137.811 308.498 138.782C308.422 138.858 307.534 139.973 307.321 140.269C307.431 139.229 307.548 138.204 307.706 137.178C307.916 135.804 308.212 134.445 308.594 133.109C308.691 133.143 311.128 134.066 312.312 133.983C313.331 133.914 314.619 133.536 315.211 132.606C315.359 132.397 315.461 132.159 315.51 131.907C315.559 131.656 315.555 131.396 315.497 131.147C315.439 130.897 315.329 130.662 315.174 130.458C315.019 130.254 314.823 130.085 314.598 129.962C313.221 129.274 310.777 130.554 309.779 131.525C309.703 131.601 308.739 132.806 308.581 133.033C308.581 132.957 308.622 132.875 308.643 132.799C309.066 131.471 309.605 130.183 310.254 128.95C310.605 128.262 310.942 127.628 311.355 127.015C311.789 127.236 313.8 128.213 314.874 128.255C315.948 128.296 317.215 128.062 317.91 127.222C318.079 127.03 318.206 126.804 318.282 126.56C318.358 126.315 318.381 126.058 318.351 125.803C318.32 125.549 318.236 125.305 318.105 125.085C317.973 124.866 317.796 124.676 317.586 124.53C316.306 123.676 313.724 124.702 312.65 125.556C312.588 125.604 312.051 126.148 311.658 126.54L312.182 125.728C312.822 124.757 313.476 123.91 314.054 123.16C314.392 122.74 314.702 122.368 314.998 122.017C315.535 122.017 317.717 121.941 318.667 121.494C319.617 121.046 320.657 120.24 320.884 119.18C320.946 118.932 320.954 118.674 320.909 118.422C320.864 118.17 320.767 117.931 320.623 117.719C320.48 117.508 320.293 117.328 320.076 117.194C319.859 117.059 319.616 116.971 319.363 116.936C317.827 116.77 316.01 118.87 315.452 120.123C315.404 120.234 314.839 122.017 314.867 122.017H314.901C314.612 122.347 314.309 122.705 313.979 123.098C313.38 123.834 312.712 124.674 312.044 125.631C311.311 126.658 310.639 127.727 310.033 128.833C309.347 130.067 308.774 131.359 308.319 132.696C308.318 132.712 308.318 132.728 308.319 132.744C308.319 132.289 308.319 131.029 308.319 130.933C308.147 129.556 307.004 127.036 305.489 126.754C305.236 126.715 304.978 126.73 304.731 126.797C304.484 126.864 304.254 126.982 304.055 127.143C303.857 127.305 303.695 127.506 303.579 127.734C303.463 127.963 303.396 128.213 303.382 128.468C303.3 129.556 304.071 130.637 304.849 131.325C305.627 132.014 308.113 132.84 308.292 132.902C307.861 134.271 307.523 135.667 307.279 137.081C307.135 137.908 307.011 138.741 306.901 139.581C306.901 139.188 306.901 138.844 306.901 138.789C306.722 137.412 305.579 134.899 304.064 134.616C303.814 134.583 303.56 134.601 303.317 134.671C303.075 134.741 302.85 134.86 302.655 135.021C302.461 135.182 302.303 135.381 302.19 135.607C302.077 135.832 302.012 136.079 301.999 136.331C301.909 137.412 302.687 138.5 303.458 139.181C304.229 139.863 306.267 140.558 306.811 140.73L306.687 141.694C306.501 143.237 306.329 144.779 306.109 146.287C306.026 146.824 305.93 147.34 305.84 147.863C305.84 147.519 305.84 147.223 305.84 147.175C305.661 145.798 304.519 143.278 303.004 142.996C302.754 142.962 302.5 142.98 302.257 143.05C302.015 143.12 301.789 143.239 301.595 143.4C301.401 143.561 301.242 143.761 301.129 143.986C301.016 144.212 300.951 144.458 300.938 144.71C300.849 145.798 301.627 146.879 302.405 147.567C303.403 148.236 304.499 148.745 305.655 149.075C305.544 149.605 305.427 150.142 305.297 150.652C305.2 150.996 305.124 151.34 305.007 151.678C304.89 152.015 304.794 152.366 304.684 152.69C304.45 153.323 304.216 153.984 303.995 154.597C303.83 155.024 303.665 155.43 303.5 155.843C303.582 155.313 303.727 154.273 303.727 154.184C303.711 152.974 303.384 151.788 302.777 150.741C302.791 150.606 302.791 150.47 302.777 150.335C302.745 150.081 302.66 149.836 302.527 149.617C302.395 149.398 302.217 149.209 302.007 149.063C301.796 148.917 301.558 148.816 301.306 148.769C301.054 148.721 300.795 148.727 300.546 148.786C299.059 149.185 298.115 151.795 298.047 153.172C298.047 153.254 298.095 154.136 298.136 154.693C298.06 154.37 297.991 154.053 297.909 153.722C297.757 153.034 297.578 152.414 297.392 151.705C297.289 151.375 297.193 151.017 297.083 150.693C296.972 150.369 296.849 150.005 296.725 149.647C296.435 148.848 296.098 148.042 295.74 147.244C296.312 147.106 298.349 146.59 299.183 145.956C300.016 145.323 300.863 144.311 300.856 143.202C300.862 142.946 300.815 142.692 300.717 142.456C300.619 142.22 300.472 142.007 300.287 141.831C300.101 141.655 299.88 141.52 299.639 141.435C299.398 141.349 299.142 141.316 298.887 141.336C297.358 141.502 296.029 143.939 295.747 145.288C295.747 145.371 295.644 146.362 295.602 146.906C295.382 146.424 295.169 145.949 294.914 145.467C294.225 144.09 293.496 142.713 292.766 141.336L292.112 140.076C292.318 140.028 294.749 139.464 295.671 138.761C296.484 138.135 297.344 137.109 297.337 136.007C297.344 135.752 297.297 135.497 297.199 135.261C297.101 135.025 296.954 134.812 296.768 134.636C296.583 134.46 296.362 134.325 296.121 134.24C295.88 134.155 295.623 134.121 295.368 134.141C293.84 134.314 292.511 136.751 292.236 138.093C292.236 138.197 292.084 139.622 292.07 139.987C291.588 139.057 291.113 138.128 290.693 137.191C290.109 135.931 289.607 134.634 289.192 133.308C289.289 133.308 291.829 132.709 292.773 131.986C293.585 131.367 294.453 130.341 294.446 129.232C294.451 128.977 294.403 128.723 294.305 128.487C294.206 128.252 294.06 128.039 293.874 127.863C293.689 127.688 293.469 127.553 293.228 127.467C292.987 127.381 292.731 127.347 292.477 127.367C290.941 127.532 289.612 129.969 289.337 131.319C289.337 131.422 289.179 132.957 289.172 133.233C289.172 133.157 289.117 133.081 289.096 133.005C288.714 131.654 288.451 130.272 288.311 128.874C288.228 128.103 288.187 127.373 288.167 126.65C288.648 126.595 290.865 126.299 291.781 125.742C292.697 125.184 293.633 124.289 293.743 123.208C293.778 122.955 293.76 122.698 293.688 122.452C293.617 122.207 293.495 121.98 293.33 121.785C293.165 121.59 292.961 121.432 292.731 121.321C292.501 121.211 292.25 121.15 291.995 121.142C290.452 121.142 288.862 123.414 288.442 124.723C288.442 124.792 288.263 125.542 288.16 126.1C288.16 125.776 288.16 125.411 288.16 125.129C288.16 123.965 288.235 122.898 288.304 121.955C288.352 121.418 288.401 120.936 288.456 120.481C288.903 120.179 290.686 118.919 291.21 118.017C291.733 117.115 292.18 115.875 291.781 114.863C291.695 114.623 291.56 114.403 291.384 114.218C291.207 114.033 290.994 113.887 290.757 113.79C290.521 113.694 290.267 113.648 290.011 113.656C289.756 113.664 289.505 113.726 289.275 113.837C287.898 114.526 287.547 117.28 287.774 118.657C287.774 118.774 288.311 120.578 288.332 120.557C288.27 120.991 288.215 121.452 288.16 121.969C288.063 122.912 287.967 123.979 287.939 125.15C287.899 126.408 287.929 127.668 288.029 128.923C288.134 130.329 288.364 131.723 288.717 133.088C288.714 133.104 288.714 133.12 288.717 133.136C288.476 132.758 287.76 131.718 287.698 131.642C286.796 130.602 284.449 129.122 283.03 129.721C282.798 129.828 282.591 129.983 282.422 130.175C282.254 130.367 282.127 130.592 282.051 130.836C281.975 131.08 281.952 131.338 281.981 131.592C282.011 131.845 282.094 132.09 282.225 132.31C282.72 133.412 283.974 133.88 284.993 134.031Z" fill="#92E3A9"/>
</g>
</g>
<path d="M213.509 83.5969L215.58 79.1125H217.822L214.555 85.4563V89.0657H212.47V85.4563L209.202 79.1125H211.451L213.509 83.5969ZM217.843 85.2991C217.843 84.5653 217.984 83.9114 218.267 83.3372C218.549 82.7629 218.955 82.3186 219.483 82.0042C220.017 81.6897 220.634 81.5325 221.336 81.5325C222.334 81.5325 223.147 81.8378 223.776 82.4485C224.41 83.0592 224.763 83.8886 224.836 84.9368L224.85 85.4426C224.85 86.5774 224.533 87.4889 223.899 88.177C223.266 88.8606 222.416 89.2024 221.35 89.2024C220.283 89.2024 219.431 88.8606 218.793 88.177C218.16 87.4934 217.843 86.5637 217.843 85.3879V85.2991ZM219.818 85.4426C219.818 86.1444 219.951 86.6822 220.215 87.0559C220.479 87.425 220.857 87.6096 221.35 87.6096C221.828 87.6096 222.202 87.4273 222.471 87.0627C222.74 86.6936 222.874 86.1057 222.874 85.2991C222.874 84.6109 222.74 84.0777 222.471 83.6995C222.202 83.3212 221.824 83.1321 221.336 83.1321C220.853 83.1321 220.479 83.3212 220.215 83.6995C219.951 84.0732 219.818 84.6542 219.818 85.4426ZM225.779 85.3127C225.779 84.178 226.048 83.2642 226.586 82.5715C227.128 81.8788 227.857 81.5325 228.773 81.5325C229.585 81.5325 230.216 81.8105 230.667 82.3665L230.749 81.6692H232.54V88.8196C232.54 89.4667 232.392 90.0295 232.096 90.5081C231.804 90.9866 231.392 91.3512 230.858 91.6018C230.325 91.8525 229.701 91.9778 228.985 91.9778C228.443 91.9778 227.914 91.8684 227.399 91.6497C226.884 91.4355 226.495 91.1575 226.23 90.8157L227.105 89.6125C227.598 90.164 228.195 90.4397 228.896 90.4397C229.421 90.4397 229.828 90.2984 230.12 90.0159C230.412 89.7379 230.558 89.3414 230.558 88.8264V88.4299C230.102 88.9449 229.503 89.2024 228.76 89.2024C227.871 89.2024 227.151 88.856 226.6 88.1633C226.053 87.4661 225.779 86.5432 225.779 85.3948V85.3127ZM227.755 85.4563C227.755 86.1262 227.889 86.6526 228.158 87.0354C228.427 87.4137 228.796 87.6028 229.266 87.6028C229.867 87.6028 230.298 87.3772 230.558 86.926V83.8157C230.293 83.3645 229.867 83.1389 229.279 83.1389C228.805 83.1389 228.432 83.3326 228.158 83.72C227.889 84.1073 227.755 84.6861 227.755 85.4563ZM238.351 89.0657C238.259 88.8879 238.193 88.6669 238.152 88.4026C237.674 88.9358 237.052 89.2024 236.286 89.2024C235.562 89.2024 234.96 88.9928 234.481 88.5735C234.007 88.1542 233.771 87.6256 233.771 86.9875C233.771 86.2037 234.06 85.6021 234.639 85.1829C235.222 84.7636 236.063 84.5517 237.161 84.5471H238.07V84.1233C238.07 83.7815 237.981 83.5081 237.804 83.303C237.631 83.0979 237.355 82.9954 236.977 82.9954C236.644 82.9954 236.382 83.0751 236.19 83.2346C236.004 83.3941 235.91 83.6129 235.91 83.8909H233.935C233.935 83.4625 234.067 83.066 234.331 82.7014C234.595 82.3368 234.969 82.052 235.452 81.8469C235.935 81.6373 236.478 81.5325 237.079 81.5325C237.991 81.5325 238.713 81.7626 239.246 82.2229C239.784 82.6786 240.053 83.3212 240.053 84.1506V87.3567C240.057 88.0585 240.155 88.5894 240.347 88.9495V89.0657H238.351ZM236.717 87.6917C237.008 87.6917 237.277 87.6278 237.523 87.5002C237.77 87.3681 237.952 87.1926 238.07 86.9739V85.7024H237.332C236.343 85.7024 235.817 86.0442 235.753 86.7278L235.746 86.844C235.746 87.0901 235.833 87.2929 236.006 87.4524C236.179 87.6119 236.416 87.6917 236.717 87.6917Z" fill="white"/>
<path d="M228.642 59.3214L229.858 61.9351C229.858 61.9351 235.322 63.0953 235.322 65.855C235.322 67.8157 232.891 67.8157 232.891 67.8157H226.417L223.229 66.0449" stroke="#F9F8FC" stroke-width="2.5" stroke-linecap="round" stroke-linejoin="round"/>
<path d="M221.358 59.3214L220.144 61.9351C220.144 61.9351 214.678 63.0953 214.678 65.855C214.678 67.8157 217.109 67.8157 217.109 67.8157H220.042L223.229 66.0449L227.125 63.5657" stroke="#F9F8FC" stroke-width="2.5" stroke-linecap="round" stroke-linejoin="round"/>
<path d="M212.25 60.6275C212.25 60.6275 215.286 59.9744 217.108 59.3213C218.928 50.1725 224.391 50.8256 225 50.8256C225.608 50.8256 231.072 50.1725 232.892 59.3213C234.714 59.973 237.75 60.6275 237.75 60.6275" stroke="#F9F8FC" stroke-width="2.5" stroke-linecap="round" stroke-linejoin="round"/>
<path d="M225 47.9823C225.752 47.9823 226.472 47.6838 227.004 47.1525C227.535 46.6211 227.833 45.9005 227.833 45.149C227.833 44.3976 227.535 43.6769 227.004 43.1455C226.472 42.6142 225.752 42.3157 225 42.3157C224.249 42.3157 223.528 42.6142 222.997 43.1455C222.465 43.6769 222.167 44.3976 222.167 45.149C222.167 45.9005 222.465 46.6211 222.997 47.1525C223.528 47.6838 224.249 47.9823 225 47.9823Z" stroke="#F9F8FC" stroke-width="2.5" stroke-linecap="round" stroke-linejoin="round"/>
<defs>
<linearGradient id="paint0_linear_1607_39964" x1="0" y1="0.629883" x2="127.996" y2="139.68" gradientUnits="userSpaceOnUse">
<stop stop-color="#72EDF2"/>
<stop offset="1" stop-color="#5151E5"/>
</linearGradient>
<linearGradient id="paint1_linear_1607_39964" x1="0" y1="0.629883" x2="127.996" y2="139.68" gradientUnits="userSpaceOnUse">
<stop stop-color="#72EDF2"/>
<stop offset="1" stop-color="#5151E5"/>
</linearGradient>
<linearGradient id="paint2_linear_1607_39964" x1="155.473" y1="0.629883" x2="283.47" y2="139.68" gradientUnits="userSpaceOnUse">
<stop stop-color="#FFD3A5"/>
<stop offset="1" stop-color="#FD6585"/>
</linearGradient>
<linearGradient id="paint3_linear_1607_39964" x1="155.473" y1="0.629883" x2="283.47" y2="139.68" gradientUnits="userSpaceOnUse">
<stop stop-color="#FFD3A5"/>
<stop offset="1" stop-color="#FD6585"/>
</linearGradient>
</defs>
</svg>
