<svg width="361" height="107" viewBox="0 0 361 107" fill="none" xmlns="http://www.w3.org/2000/svg">
<g filter="url(#filter0_d_1607_44722)">
<rect x="17" y="17.2905" width="327" height="71.7635" rx="6" fill="white"/>
</g>
<rect x="33" y="70.2905" width="295" height="3" rx="1.5" fill="#DDD1FB"/>
<rect x="32.936" y="70.146" width="188" height="3" rx="1.5" fill="#692CFF"/>
<path d="M34.1426 50.2905V37.4937H38.625C40.1777 37.4937 41.3555 37.7925 42.1582 38.3901C42.9609 38.9819 43.3623 39.8521 43.3623 41.0005C43.3623 41.6274 43.2012 42.1812 42.8789 42.6616C42.5566 43.1362 42.1084 43.4849 41.5342 43.7075C42.1904 43.8716 42.7061 44.2026 43.0811 44.7007C43.4619 45.1987 43.6523 45.8081 43.6523 46.5288C43.6523 47.7593 43.2598 48.6909 42.4746 49.3237C41.6895 49.9565 40.5703 50.2788 39.1172 50.2905H34.1426ZM36.7793 44.7183V48.1724H39.0381C39.6592 48.1724 40.1426 48.0259 40.4883 47.7329C40.8398 47.4341 41.0156 47.0239 41.0156 46.5024C41.0156 45.3306 40.4092 44.7358 39.1963 44.7183H36.7793ZM36.7793 42.855H38.7305C40.0605 42.8315 40.7256 42.3013 40.7256 41.2642C40.7256 40.6841 40.5557 40.2681 40.2158 40.0161C39.8818 39.7583 39.3516 39.6294 38.625 39.6294H36.7793V42.855ZM50.9824 50.2905C50.8652 50.062 50.7803 49.7778 50.7275 49.438C50.1123 50.1235 49.3125 50.4663 48.3281 50.4663C47.3965 50.4663 46.623 50.1968 46.0078 49.6577C45.3984 49.1187 45.0938 48.439 45.0938 47.6187C45.0938 46.6108 45.4658 45.8374 46.21 45.2983C46.96 44.7593 48.041 44.4868 49.4531 44.481H50.6221V43.936C50.6221 43.4966 50.5078 43.145 50.2793 42.8813C50.0566 42.6177 49.7021 42.4858 49.2158 42.4858C48.7881 42.4858 48.4512 42.5884 48.2051 42.7935C47.9648 42.9985 47.8447 43.2798 47.8447 43.6372H45.3047C45.3047 43.0864 45.4746 42.5767 45.8145 42.1079C46.1543 41.6392 46.6348 41.2729 47.2559 41.0093C47.877 40.7397 48.5742 40.605 49.3477 40.605C50.5195 40.605 51.4482 40.9009 52.1338 41.4927C52.8252 42.0786 53.1709 42.9048 53.1709 43.9712V48.0933C53.1768 48.9956 53.3027 49.6782 53.5488 50.1411V50.2905H50.9824ZM48.8818 48.5239C49.2568 48.5239 49.6025 48.4419 49.9189 48.2778C50.2354 48.1079 50.4697 47.8823 50.6221 47.6011V45.9663H49.6729C48.4014 45.9663 47.7246 46.4058 47.6426 47.2847L47.6338 47.4341C47.6338 47.7505 47.7451 48.0112 47.9678 48.2163C48.1904 48.4214 48.4951 48.5239 48.8818 48.5239ZM63.6914 45.6235C63.6914 47.147 63.3662 48.3364 62.7158 49.1919C62.0654 50.0415 61.1572 50.4663 59.9912 50.4663C58.96 50.4663 58.1367 50.0708 57.5215 49.2798L57.4072 50.2905H55.1221V36.7905H57.6621V41.6333C58.248 40.9478 59.0186 40.605 59.9736 40.605C61.1338 40.605 62.042 41.0327 62.6982 41.8882C63.3604 42.7378 63.6914 43.936 63.6914 45.4829V45.6235ZM61.1514 45.439C61.1514 44.478 60.999 43.7778 60.6943 43.3384C60.3896 42.8931 59.9355 42.6704 59.332 42.6704C58.5234 42.6704 57.9668 43.0015 57.6621 43.6636V47.4165C57.9727 48.0845 58.5352 48.4185 59.3496 48.4185C60.1699 48.4185 60.709 48.0142 60.9668 47.2056C61.0898 46.8188 61.1514 46.23 61.1514 45.439ZM68.71 46.6958L70.4678 40.7808H73.1924L69.3691 51.7671L69.1582 52.2681C68.5898 53.5103 67.6523 54.1313 66.3457 54.1313C65.9766 54.1313 65.6016 54.0757 65.2207 53.9644V52.0396L65.6074 52.0483C66.0879 52.0483 66.4453 51.9751 66.6797 51.8286C66.9199 51.6821 67.1074 51.439 67.2422 51.0991L67.541 50.3169L64.21 40.7808H66.9434L68.71 46.6958ZM82.6318 48.4185C83.1006 48.4185 83.4814 48.2896 83.7744 48.0317C84.0674 47.7739 84.2197 47.4312 84.2314 47.0034H86.6133C86.6074 47.6479 86.4316 48.2397 86.0859 48.7788C85.7402 49.312 85.2656 49.728 84.6621 50.0269C84.0645 50.3198 83.4023 50.4663 82.6758 50.4663C81.3164 50.4663 80.2441 50.0356 79.459 49.1743C78.6738 48.3071 78.2812 47.1118 78.2812 45.5884V45.4214C78.2812 43.9565 78.6709 42.7876 79.4502 41.9146C80.2295 41.0415 81.2988 40.605 82.6582 40.605C83.8477 40.605 84.7998 40.9448 85.5146 41.6245C86.2354 42.2983 86.6016 43.1978 86.6133 44.3228H84.2314C84.2197 43.8306 84.0674 43.4321 83.7744 43.1274C83.4814 42.8169 83.0947 42.6616 82.6143 42.6616C82.0225 42.6616 81.5742 42.8784 81.2695 43.312C80.9707 43.7397 80.8213 44.437 80.8213 45.4038V45.6675C80.8213 46.646 80.9707 47.3491 81.2695 47.7769C81.5684 48.2046 82.0225 48.4185 82.6318 48.4185ZM93.5742 50.2905C93.457 50.062 93.3721 49.7778 93.3193 49.438C92.7041 50.1235 91.9043 50.4663 90.9199 50.4663C89.9883 50.4663 89.2148 50.1968 88.5996 49.6577C87.9902 49.1187 87.6855 48.439 87.6855 47.6187C87.6855 46.6108 88.0576 45.8374 88.8018 45.2983C89.5518 44.7593 90.6328 44.4868 92.0449 44.481H93.2139V43.936C93.2139 43.4966 93.0996 43.145 92.8711 42.8813C92.6484 42.6177 92.2939 42.4858 91.8076 42.4858C91.3799 42.4858 91.043 42.5884 90.7969 42.7935C90.5566 42.9985 90.4365 43.2798 90.4365 43.6372H87.8965C87.8965 43.0864 88.0664 42.5767 88.4062 42.1079C88.7461 41.6392 89.2266 41.2729 89.8477 41.0093C90.4688 40.7397 91.166 40.605 91.9395 40.605C93.1113 40.605 94.04 40.9009 94.7256 41.4927C95.417 42.0786 95.7627 42.9048 95.7627 43.9712V48.0933C95.7686 48.9956 95.8945 49.6782 96.1406 50.1411V50.2905H93.5742ZM91.4736 48.5239C91.8486 48.5239 92.1943 48.4419 92.5107 48.2778C92.8271 48.1079 93.0615 47.8823 93.2139 47.6011V45.9663H92.2646C90.9932 45.9663 90.3164 46.4058 90.2344 47.2847L90.2256 47.4341C90.2256 47.7505 90.3369 48.0112 90.5596 48.2163C90.7822 48.4214 91.0869 48.5239 91.4736 48.5239ZM103.058 43.1626C102.712 43.1157 102.407 43.0923 102.144 43.0923C101.183 43.0923 100.553 43.4175 100.254 44.0679V50.2905H97.7139V40.7808H100.113L100.184 41.9146C100.693 41.0415 101.399 40.605 102.302 40.605C102.583 40.605 102.847 40.6431 103.093 40.7192L103.058 43.1626ZM108.489 50.4663C107.095 50.4663 105.958 50.0386 105.079 49.1831C104.206 48.3276 103.77 47.188 103.77 45.7642V45.5181C103.77 44.563 103.954 43.7104 104.323 42.9604C104.692 42.2046 105.214 41.6245 105.888 41.2202C106.567 40.8101 107.341 40.605 108.208 40.605C109.509 40.605 110.531 41.0151 111.275 41.8354C112.025 42.6558 112.4 43.8188 112.4 45.3247V46.3618H106.345C106.427 46.9829 106.673 47.481 107.083 47.856C107.499 48.231 108.023 48.4185 108.656 48.4185C109.635 48.4185 110.399 48.064 110.95 47.355L112.198 48.7524C111.817 49.2915 111.302 49.7134 110.651 50.0181C110.001 50.3169 109.28 50.4663 108.489 50.4663ZM108.199 42.6616C107.695 42.6616 107.285 42.8315 106.969 43.1714C106.658 43.5112 106.459 43.9976 106.371 44.6304H109.904V44.4282C109.893 43.8657 109.74 43.4321 109.447 43.1274C109.154 42.8169 108.738 42.6616 108.199 42.6616Z" fill="#0C0029"/>
<path d="M307.739 42.6089V43.5288H307.54C306.696 43.5444 306.024 43.7944 305.524 44.2788C305.024 44.7632 304.735 45.4448 304.657 46.3237C305.106 45.8081 305.719 45.5503 306.497 45.5503C307.239 45.5503 307.831 45.812 308.272 46.3354C308.717 46.8589 308.94 47.5347 308.94 48.3628C308.94 49.2417 308.7 49.9448 308.219 50.4722C307.743 50.9995 307.102 51.2632 306.297 51.2632C305.481 51.2632 304.819 50.9507 304.311 50.3257C303.803 49.6968 303.549 48.8882 303.549 47.8999V47.4839C303.549 45.9136 303.883 44.7144 304.551 43.8862C305.223 43.0542 306.221 42.6284 307.545 42.6089H307.739ZM306.315 46.4526C305.944 46.4526 305.602 46.564 305.29 46.7866C304.977 47.0093 304.76 47.2886 304.639 47.6245V48.0229C304.639 48.7261 304.797 49.2925 305.114 49.7222C305.43 50.1519 305.825 50.3667 306.297 50.3667C306.786 50.3667 307.168 50.187 307.446 49.8276C307.727 49.4683 307.868 48.9976 307.868 48.4155C307.868 47.8296 307.725 47.3569 307.44 46.9976C307.159 46.6343 306.784 46.4526 306.315 46.4526ZM310.551 51.8784H309.62L313.182 42.6147H314.108L310.551 51.8784ZM318.731 51.146H317.641V43.9214L315.456 44.7241V43.7397L318.561 42.5737H318.731V51.146ZM327.256 47.5073C327.256 48.7769 327.04 49.7202 326.606 50.3374C326.172 50.9546 325.495 51.2632 324.573 51.2632C323.663 51.2632 322.989 50.9624 322.551 50.3608C322.114 49.7554 321.887 48.853 321.872 47.6538V46.2065C321.872 44.9526 322.088 44.021 322.522 43.4116C322.956 42.8022 323.635 42.4976 324.561 42.4976C325.479 42.4976 326.155 42.7925 326.588 43.3823C327.022 43.9683 327.245 44.8745 327.256 46.1011V47.5073ZM326.172 46.0249C326.172 45.1069 326.043 44.439 325.786 44.021C325.528 43.5991 325.12 43.3882 324.561 43.3882C324.006 43.3882 323.602 43.5972 323.348 44.0151C323.094 44.4331 322.963 45.0757 322.956 45.9429V47.6772C322.956 48.5991 323.088 49.2808 323.354 49.7222C323.624 50.1597 324.03 50.3784 324.573 50.3784C325.108 50.3784 325.504 50.1714 325.762 49.7573C326.024 49.3433 326.161 48.6909 326.172 47.8003V46.0249Z" fill="#7C7195"/>
<defs>
<filter id="filter0_d_1607_44722" x="0" y="0.290527" width="361" height="105.763" filterUnits="userSpaceOnUse" color-interpolation-filters="sRGB">
<feFlood flood-opacity="0" result="BackgroundImageFix"/>
<feColorMatrix in="SourceAlpha" type="matrix" values="0 0 0 0 0 0 0 0 0 0 0 0 0 0 0 0 0 0 127 0" result="hardAlpha"/>
<feMorphology radius="6" operator="dilate" in="SourceAlpha" result="effect1_dropShadow_1607_44722"/>
<feOffset/>
<feGaussianBlur stdDeviation="5.5"/>
<feComposite in2="hardAlpha" operator="out"/>
<feColorMatrix type="matrix" values="0 0 0 0 0.34902 0 0 0 0 0.27451 0 0 0 0 0.698039 0 0 0 0.06 0"/>
<feBlend mode="normal" in2="BackgroundImageFix" result="effect1_dropShadow_1607_44722"/>
<feBlend mode="normal" in="SourceGraphic" in2="effect1_dropShadow_1607_44722" result="shape"/>
</filter>
</defs>
</svg>
