<svg width="25" height="24" viewBox="0 0 25 24" fill="none" xmlns="http://www.w3.org/2000/svg">
<path d="M9.84933 14.8594C5.88553 14.8594 2.5 15.4717 2.5 17.919C2.5 20.3682 5.864 21.0016 9.84933 21.0016C13.8131 21.0016 17.1987 20.3893 17.1987 17.942C17.1987 15.4928 13.8347 14.8594 9.84933 14.8594" fill="#B6B3BF"/>
<path opacity="0.4" d="M9.84935 12.5248C12.549 12.5248 14.7124 10.4062 14.7124 7.76241C14.7124 5.11865 12.549 3 9.84935 3C7.15072 3 4.98633 5.11865 4.98633 7.76241C4.98633 10.4062 7.15072 12.5248 9.84935 12.5248" fill="#B6B3BF"/>
<path opacity="0.4" d="M16.6734 7.8502C16.6734 9.19651 16.2605 10.4528 15.5364 11.4963C15.4611 11.6036 15.5276 11.7483 15.6587 11.7713C15.8407 11.801 16.0276 11.8192 16.2184 11.823C18.1167 11.8719 19.8202 10.6751 20.2908 8.87263C20.9885 6.1982 18.9415 3.79688 16.3339 3.79688C16.0511 3.79688 15.7801 3.82562 15.5159 3.87832C15.4797 3.88599 15.4405 3.90324 15.421 3.9339C15.3955 3.97319 15.4141 4.02398 15.4395 4.05751C16.2233 5.13361 16.6734 6.44351 16.6734 7.8502" fill="#B6B3BF"/>
<path d="M22.2791 15.1678C21.9317 14.4424 21.0932 13.9451 19.8172 13.7007C19.2155 13.557 17.5853 13.3529 16.0697 13.3816C16.0472 13.3845 16.0344 13.3998 16.0325 13.4094C16.0295 13.4248 16.0364 13.4478 16.0658 13.464C16.7663 13.8033 19.4738 15.2789 19.1333 18.3913C19.1186 18.5273 19.2292 18.6423 19.3671 18.6232C20.0335 18.5302 21.7478 18.169 22.2791 17.0459C22.5736 16.4518 22.5736 15.7619 22.2791 15.1678" fill="#B6B3BF"/>
</svg>
