<svg width="361" height="107" viewBox="0 0 361 107" fill="none" xmlns="http://www.w3.org/2000/svg">
<g filter="url(#filter0_d_1607_44704)">
<rect x="17" y="17.7634" width="327" height="71.7635" rx="6" fill="white"/>
</g>
<rect x="33" y="70.7634" width="295" height="3" rx="1.5" fill="#DDD1FB"/>
<rect x="32.936" y="71.1458" width="241" height="3" rx="1.5" fill="#692CFF"/>
<path d="M44.1885 46.5007C44.0889 47.8777 43.5791 48.9617 42.6592 49.7527C41.7451 50.5437 40.5381 50.9392 39.0381 50.9392C37.3975 50.9392 36.1055 50.3884 35.1621 49.2869C34.2246 48.1794 33.7559 46.6619 33.7559 44.7341V43.9519C33.7559 42.7214 33.9727 41.6375 34.4062 40.7C34.8398 39.7625 35.458 39.0447 36.2607 38.5466C37.0693 38.0427 38.0068 37.7908 39.0732 37.7908C40.5498 37.7908 41.7393 38.1863 42.6416 38.9773C43.5439 39.7683 44.0654 40.8787 44.2061 42.3083H41.5693C41.5049 41.4822 41.2734 40.8845 40.875 40.5154C40.4824 40.1404 39.8818 39.9529 39.0732 39.9529C38.1943 39.9529 37.5352 40.2693 37.0957 40.9021C36.6621 41.5291 36.4395 42.5046 36.4277 43.8289V44.7957C36.4277 46.1785 36.6357 47.1892 37.0518 47.8279C37.4736 48.4666 38.1357 48.7859 39.0381 48.7859C39.8525 48.7859 40.459 48.6013 40.8574 48.2322C41.2617 47.8572 41.4932 47.28 41.5518 46.5007H44.1885ZM45.3574 45.9207C45.3574 44.9773 45.5391 44.1365 45.9023 43.3982C46.2656 42.6599 46.7871 42.0886 47.4668 41.6843C48.1523 41.28 48.9463 41.0779 49.8486 41.0779C51.1318 41.0779 52.1777 41.4705 52.9863 42.2556C53.8008 43.0408 54.2549 44.1072 54.3486 45.4548L54.3662 46.1052C54.3662 47.5642 53.959 48.7361 53.1445 49.6208C52.3301 50.4998 51.2373 50.9392 49.8662 50.9392C48.4951 50.9392 47.3994 50.4998 46.5791 49.6208C45.7646 48.7419 45.3574 47.5466 45.3574 46.0349V45.9207ZM47.8975 46.1052C47.8975 47.0076 48.0674 47.699 48.4072 48.1794C48.7471 48.6541 49.2334 48.8914 49.8662 48.8914C50.4814 48.8914 50.9619 48.657 51.3076 48.1882C51.6533 47.7136 51.8262 46.9578 51.8262 45.9207C51.8262 45.0359 51.6533 44.3503 51.3076 43.864C50.9619 43.3777 50.4756 43.1345 49.8486 43.1345C49.2275 43.1345 48.7471 43.3777 48.4072 43.864C48.0674 44.3445 47.8975 45.0916 47.8975 46.1052ZM58.3125 41.2537L58.3916 42.3171C59.0654 41.491 59.9766 41.0779 61.125 41.0779C62.3496 41.0779 63.1904 41.5613 63.6475 42.5281C64.3154 41.5613 65.2676 41.0779 66.5039 41.0779C67.5352 41.0779 68.3027 41.3796 68.8066 41.9832C69.3105 42.5808 69.5625 43.4832 69.5625 44.6902V50.7634H67.0137V44.699C67.0137 44.1599 66.9082 43.7673 66.6973 43.5212C66.4863 43.2693 66.1143 43.1433 65.5811 43.1433C64.8193 43.1433 64.292 43.5066 63.999 44.2332L64.0078 50.7634H61.4678V44.7078C61.4678 44.157 61.3594 43.7585 61.1426 43.5125C60.9258 43.2664 60.5566 43.1433 60.0352 43.1433C59.3145 43.1433 58.793 43.4421 58.4707 44.0398V50.7634H55.9307V41.2537H58.3125ZM80.083 46.0964C80.083 47.5613 79.749 48.7361 79.0811 49.6208C78.4189 50.4998 77.5225 50.9392 76.3916 50.9392C75.4307 50.9392 74.6543 50.6052 74.0625 49.9373V54.4197H71.5225V41.2537H73.8779L73.9658 42.1853C74.5811 41.447 75.3838 41.0779 76.374 41.0779C77.5459 41.0779 78.457 41.5115 79.1074 42.3787C79.7578 43.2458 80.083 44.4412 80.083 45.9646V46.0964ZM77.543 45.9119C77.543 45.0271 77.3848 44.3445 77.0684 43.864C76.7578 43.3835 76.3037 43.1433 75.7061 43.1433C74.9092 43.1433 74.3613 43.448 74.0625 44.0574V47.9509C74.373 48.5779 74.9268 48.8914 75.7236 48.8914C76.9365 48.8914 77.543 47.8982 77.543 45.9119ZM87.1758 50.7634C87.0586 50.5349 86.9736 50.2507 86.9209 49.9109C86.3057 50.5964 85.5059 50.9392 84.5215 50.9392C83.5898 50.9392 82.8164 50.6697 82.2012 50.1306C81.5918 49.5916 81.2871 48.9119 81.2871 48.0916C81.2871 47.0837 81.6592 46.3103 82.4033 45.7712C83.1533 45.2322 84.2344 44.9597 85.6465 44.9539H86.8154V44.4089C86.8154 43.9695 86.7012 43.6179 86.4727 43.3542C86.25 43.0906 85.8955 42.9587 85.4092 42.9587C84.9814 42.9587 84.6445 43.0613 84.3984 43.2664C84.1582 43.4714 84.0381 43.7527 84.0381 44.1101H81.498C81.498 43.5593 81.668 43.0496 82.0078 42.5808C82.3477 42.1121 82.8281 41.7458 83.4492 41.4822C84.0703 41.2126 84.7676 41.0779 85.541 41.0779C86.7129 41.0779 87.6416 41.3738 88.3271 41.9656C89.0186 42.5515 89.3643 43.3777 89.3643 44.4441V48.5662C89.3701 49.4685 89.4961 50.1511 89.7422 50.614V50.7634H87.1758ZM85.0752 48.9968C85.4502 48.9968 85.7959 48.9148 86.1123 48.7507C86.4287 48.5808 86.6631 48.3552 86.8154 48.074V46.4392H85.8662C84.5947 46.4392 83.918 46.8787 83.8359 47.7576L83.8271 47.907C83.8271 48.2234 83.9385 48.4841 84.1611 48.6892C84.3838 48.8943 84.6885 48.9968 85.0752 48.9968ZM93.6533 41.2537L93.7324 42.3523C94.4121 41.5027 95.3232 41.0779 96.4658 41.0779C97.4736 41.0779 98.2236 41.3738 98.7158 41.9656C99.208 42.5574 99.46 43.4421 99.4717 44.6199V50.7634H96.9316V44.6814C96.9316 44.1423 96.8145 43.7527 96.5801 43.5125C96.3457 43.2664 95.9561 43.1433 95.4111 43.1433C94.6963 43.1433 94.1602 43.448 93.8027 44.0574V50.7634H91.2627V41.2537H93.6533ZM104.086 50.7634H101.537V41.2537H104.086V50.7634ZM101.388 38.7927C101.388 38.4119 101.514 38.0984 101.766 37.8523C102.023 37.6062 102.372 37.4832 102.812 37.4832C103.245 37.4832 103.591 37.6062 103.849 37.8523C104.106 38.0984 104.235 38.4119 104.235 38.7927C104.235 39.1794 104.104 39.4958 103.84 39.7419C103.582 39.988 103.239 40.1111 102.812 40.1111C102.384 40.1111 102.038 39.988 101.774 39.7419C101.517 39.4958 101.388 39.1794 101.388 38.7927ZM105.791 45.9207C105.791 44.9773 105.973 44.1365 106.336 43.3982C106.699 42.6599 107.221 42.0886 107.9 41.6843C108.586 41.28 109.38 41.0779 110.282 41.0779C111.565 41.0779 112.611 41.4705 113.42 42.2556C114.234 43.0408 114.688 44.1072 114.782 45.4548L114.8 46.1052C114.8 47.5642 114.393 48.7361 113.578 49.6208C112.764 50.4998 111.671 50.9392 110.3 50.9392C108.929 50.9392 107.833 50.4998 107.013 49.6208C106.198 48.7419 105.791 47.5466 105.791 46.0349V45.9207ZM108.331 46.1052C108.331 47.0076 108.501 47.699 108.841 48.1794C109.181 48.6541 109.667 48.8914 110.3 48.8914C110.915 48.8914 111.396 48.657 111.741 48.1882C112.087 47.7136 112.26 46.9578 112.26 45.9207C112.26 45.0359 112.087 44.3503 111.741 43.864C111.396 43.3777 110.909 43.1345 110.282 43.1345C109.661 43.1345 109.181 43.3777 108.841 43.864C108.501 44.3445 108.331 45.0916 108.331 46.1052ZM118.702 41.2537L118.781 42.3523C119.461 41.5027 120.372 41.0779 121.515 41.0779C122.522 41.0779 123.272 41.3738 123.765 41.9656C124.257 42.5574 124.509 43.4421 124.521 44.6199V50.7634H121.98V44.6814C121.98 44.1423 121.863 43.7527 121.629 43.5125C121.395 43.2664 121.005 43.1433 120.46 43.1433C119.745 43.1433 119.209 43.448 118.852 44.0574V50.7634H116.312V41.2537H118.702Z" fill="#0C0029"/>
<path d="M300.208 51.7634H299.118V44.5388L296.932 45.3416V44.3572L300.038 43.1912H300.208V51.7634ZM308.973 51.7634H303.383V50.9841L306.336 47.7029C306.774 47.2068 307.075 46.8044 307.239 46.4958C307.407 46.1833 307.491 45.8611 307.491 45.5291C307.491 45.0837 307.356 44.7185 307.086 44.4333C306.817 44.1482 306.458 44.0056 306.008 44.0056C305.469 44.0056 305.049 44.1599 304.749 44.4685C304.452 44.7732 304.303 45.199 304.303 45.7458H303.219C303.219 44.9607 303.471 44.3259 303.975 43.8416C304.483 43.3572 305.161 43.115 306.008 43.115C306.801 43.115 307.428 43.324 307.889 43.7419C308.35 44.156 308.581 44.7087 308.581 45.4001C308.581 46.24 308.045 47.24 306.975 48.4001L304.69 50.8787H308.973V51.7634ZM310.45 52.4958H309.518L313.081 43.2322H314.006L310.45 52.4958ZM318.629 51.7634H317.54V44.5388L315.354 45.3416V44.3572L318.459 43.1912H318.629V51.7634ZM322.303 47.4861L322.737 43.2322H327.108V44.2341H323.657L323.399 46.5603C323.817 46.3142 324.292 46.1912 324.823 46.1912C325.6 46.1912 326.217 46.449 326.674 46.9646C327.131 47.4763 327.36 48.1697 327.36 49.0447C327.36 49.9236 327.122 50.6169 326.645 51.1248C326.172 51.6287 325.51 51.8806 324.659 51.8806C323.905 51.8806 323.29 51.6716 322.813 51.2537C322.336 50.8357 322.065 50.2576 321.999 49.5193H323.024C323.09 50.0076 323.264 50.3767 323.545 50.6267C323.827 50.8728 324.198 50.9958 324.659 50.9958C325.163 50.9958 325.557 50.824 325.842 50.4802C326.131 50.1365 326.276 49.6619 326.276 49.0564C326.276 48.4861 326.12 48.0291 325.807 47.6853C325.499 47.3376 325.086 47.1638 324.571 47.1638C324.098 47.1638 323.727 47.2673 323.458 47.4744L323.17 47.7087L322.303 47.4861Z" fill="#7C7195"/>
<defs>
<filter id="filter0_d_1607_44704" x="0" y="0.763428" width="361" height="105.763" filterUnits="userSpaceOnUse" color-interpolation-filters="sRGB">
<feFlood flood-opacity="0" result="BackgroundImageFix"/>
<feColorMatrix in="SourceAlpha" type="matrix" values="0 0 0 0 0 0 0 0 0 0 0 0 0 0 0 0 0 0 127 0" result="hardAlpha"/>
<feMorphology radius="6" operator="dilate" in="SourceAlpha" result="effect1_dropShadow_1607_44704"/>
<feOffset/>
<feGaussianBlur stdDeviation="5.5"/>
<feComposite in2="hardAlpha" operator="out"/>
<feColorMatrix type="matrix" values="0 0 0 0 0.34902 0 0 0 0 0.27451 0 0 0 0 0.698039 0 0 0 0.06 0"/>
<feBlend mode="normal" in2="BackgroundImageFix" result="effect1_dropShadow_1607_44704"/>
<feBlend mode="normal" in="SourceGraphic" in2="effect1_dropShadow_1607_44704" result="shape"/>
</filter>
</defs>
</svg>
