<svg width="140" height="129" viewBox="0 0 140 129" fill="none" xmlns="http://www.w3.org/2000/svg">
<rect y="0.0656738" width="139.527" height="128.564" rx="3.64479" fill="url(#paint0_linear_1607_40648)"/>
<mask id="mask0_1607_40648" style="mask-type:alpha" maskUnits="userSpaceOnUse" x="0" y="0" width="140" height="129">
<rect y="0.0656738" width="139.527" height="128.564" rx="3.64479" fill="url(#paint1_linear_1607_40648)"/>
</mask>
<g mask="url(#mask0_1607_40648)">
<g style="mix-blend-mode:overlay" opacity="0.2">
<path d="M86.2803 18.5518C86.2803 18.5518 84.2989 29.4931 85.1338 37.0947C85.9688 44.6963 86.38 56.1485 86.6168 63.775C86.8535 71.4016 85.1214 80.5733 85.3706 86.7294C85.6198 92.8854 85.8566 101.397 85.7071 105.522C85.5575 109.646 81.4826 128.563 82.0683 145.872C82.654 163.181 92.9971 191.893 92.9971 191.893C92.9971 191.893 97.421 201.439 97.6951 209.651C97.9693 217.863 102.568 232.082 105.085 237.303C107.602 242.525 120.886 287.885 122.17 299.886C123.453 311.886 121.547 316.347 121.547 316.347C121.547 316.347 113.546 331.887 111.839 333.42C110.132 334.953 103.116 338.118 100.86 339.077C98.6049 340.037 99.1781 341.483 100.088 342.33C100.997 343.177 106.854 342.691 106.854 342.691C106.854 342.691 116.251 342.38 120.338 341.657C124.425 340.934 128.974 336.672 130.644 333.669C132.314 330.666 145.361 326.13 147.268 321.656C149.174 317.182 143.753 312.933 141.622 310.69C139.491 308.447 135.329 289.754 135.08 282.115C134.831 274.476 135.304 253.915 132.388 236.979C129.472 220.044 125.734 204.891 125.734 204.891C125.734 204.891 126.469 182.846 127.491 178.397C128.513 173.948 150.532 120.937 152.8 109.709C155.069 98.4807 159.804 82.1559 156.539 71.4016C153.274 60.6472 146.657 48.2354 146.732 41.7678C146.806 35.3002 151.966 22.7887 151.966 22.7887C151.966 22.7887 154.931 14.7634 154.807 10.9502C154.682 7.13692 155.779 5.04337 140.326 -0.265287C124.874 -5.57394 96.5985 0.906103 92.1996 1.05564C87.8006 1.20518 86.0809 12.6948 86.2803 18.5518Z" fill="white" stroke="#263238" stroke-linecap="round" stroke-linejoin="round"/>
<path d="M131.766 81.645C131.766 81.645 127.541 95.7889 126.631 103.752C125.722 111.715 115.815 128.588 109.185 139.978C102.555 151.368 94.2311 175.431 91.7388 187.556C89.2464 199.682 86.3554 211.233 88.5984 216.742C90.8415 222.25 98.5677 233.141 98.9042 234.898C99.2407 236.655 125.996 289.505 127.715 297.082C129.435 304.658 132.326 312.198 132.7 315.413C133.074 318.628 124.189 333.32 123.13 336.597C122.07 339.875 116.238 341.582 115.727 343.9C115.216 346.218 121.049 344.598 122.519 344.847C123.989 345.096 131.641 345.42 134.831 344.137C138.021 342.853 141.635 336.859 144.501 334.716C147.367 332.572 150.408 326.877 153.536 323.837C156.664 320.796 158.521 315.737 156.975 312.559C155.43 309.381 147.33 305.244 146.047 302.054C144.763 298.864 141.386 276.657 140.551 269.342C139.716 262.027 140.813 243.908 134.158 229.153C127.504 214.399 121.921 210.797 121.921 210.797C121.921 210.797 121.51 207.283 121.46 205.813C121.41 204.342 145.498 180.777 151.094 172.652C156.689 164.527 169.375 148.277 169.911 146.782C170.446 145.286 183.382 136.937 183.008 116.974C182.634 97.0102 162.396 72.3984 157.898 69.6195C155.264 68.027 152.99 65.9053 151.218 63.3887" fill="white"/>
<path d="M131.766 81.645C131.766 81.645 127.541 95.7889 126.631 103.752C125.722 111.715 115.815 128.588 109.185 139.978C102.555 151.368 94.2311 175.431 91.7388 187.556C89.2464 199.682 86.3554 211.233 88.5984 216.742C90.8415 222.25 98.5677 233.141 98.9042 234.898C99.2407 236.655 125.996 289.505 127.715 297.082C129.435 304.658 132.326 312.198 132.7 315.413C133.074 318.628 124.189 333.32 123.13 336.597C122.07 339.875 116.238 341.582 115.727 343.9C115.216 346.218 121.049 344.598 122.519 344.847C123.989 345.096 131.641 345.42 134.831 344.137C138.021 342.853 141.635 336.859 144.501 334.716C147.367 332.572 150.408 326.877 153.536 323.837C156.664 320.796 158.521 315.737 156.975 312.559C155.43 309.381 147.33 305.244 146.047 302.054C144.763 298.864 141.386 276.657 140.551 269.342C139.716 262.027 140.813 243.908 134.158 229.153C127.504 214.399 121.921 210.797 121.921 210.797C121.921 210.797 121.51 207.283 121.46 205.813C121.41 204.342 145.498 180.777 151.094 172.652C156.689 164.527 169.375 148.277 169.911 146.782C170.446 145.286 183.382 136.937 183.008 116.974C182.634 97.0102 162.396 72.3984 157.898 69.6195C155.264 68.027 152.99 65.9053 151.218 63.3887" stroke="#263238" stroke-linecap="round" stroke-linejoin="round"/>
<path d="M126.095 107.677C127.005 105.958 127.852 102.169 131.703 97.2095C144.09 81.2836 169.923 83.0531 169.923 83.0531L156.003 66.0305C156.003 66.0305 126.644 91.9507 113.347 94.5303C89.9191 99.0414 85.3208 90.7918 85.3208 90.7918C85.1784 93.7545 85.2451 96.7236 85.5202 99.6769C85.5202 101.92 94.4676 109.123 106.817 117.123C113.883 121.697 116.899 120.862 119.441 121.198C121.098 117.809 125.397 109.061 126.095 107.677Z" fill="#E2B0FF" stroke="#263238" stroke-linecap="round" stroke-linejoin="round"/>
<path d="M122.12 -68.9912C123.951 -66.3639 125.521 -63.5632 126.805 -60.6294C128.052 -57.1527 128.313 -50.4109 128.313 -50.4109C128.313 -50.4109 111.054 -48.6538 106.779 -44.3919C102.505 -40.1301 99.6639 -29.1763 98.829 -27.6809C97.994 -26.1855 81.769 -19.7678 77.6442 -10.2346C73.5194 -0.701462 78.2548 8.24599 80.7098 11.3988C82.2084 13.3157 83.9464 15.0328 85.8814 16.508L86.2427 18.5517C86.2427 18.5517 118.381 31.0134 151.878 22.8136C154.793 18.468 157.107 13.7479 158.757 8.78183C160.863 1.66624 164.028 -9.31246 164.028 -9.31246C164.028 -9.31246 174.583 -27.2821 173.998 -37.2514C173.412 -47.2207 165.897 -51.3705 161.411 -53.5762C156.925 -55.7819 154.881 -55.7071 153.934 -56.2554C152.987 -56.8037 141.946 -73.1908 140.351 -77.8265C138.756 -82.4622 122.12 -68.9912 122.12 -68.9912Z" fill="white" stroke="#263238" stroke-linecap="round" stroke-linejoin="round"/>
<path d="M81.7815 16.5579C69.3199 25.0442 51.6991 50.4037 55.6121 72.3237C65.382 128.027 135.977 115.391 143.728 65.5071" fill="white"/>
<path d="M81.7815 16.5579C69.3199 25.0442 51.6991 50.4037 55.6121 72.3237C65.382 128.027 135.977 115.391 143.728 65.5071" stroke="#263238" stroke-linecap="round" stroke-linejoin="round"/>
<path d="M120.446 82.4587C117.514 79.1506 115.549 84.1567 115.549 84.1567C115.013 82.3719 114.366 80.6218 113.614 78.9164C114.482 79.5598 115.484 80 116.546 80.2045C120.182 80.4387 124.316 71.8025 120.915 69.0506C117.514 66.2987 116.399 71.539 116.399 71.539C116.399 71.539 110.536 59.6532 105.61 60.4143C100.684 61.1755 100.714 67.0599 100.714 67.6161L99.7167 67.2941C91.9177 65.0984 92.4455 60.1216 94.0874 56.5207C95.2519 56.8967 96.4497 57.1614 97.6644 57.3112L98.9251 59.9459C99.0094 60.1196 99.1354 60.2698 99.2919 60.3831C99.4483 60.4964 99.6304 60.5693 99.8219 60.5954C100.013 60.6214 100.208 60.5999 100.39 60.5325C100.571 60.4652 100.732 60.3542 100.86 60.2094L103.558 57.1062C106.547 56.6059 109.227 54.9692 111.034 52.5393C112.062 51.0619 112.712 49.3554 112.927 47.5691C113.141 45.7828 112.914 43.9712 112.265 42.2929C111.806 41.0518 111.196 39.8718 110.448 38.7798C108.999 36.681 106.997 35.0233 104.663 33.9899C102.33 32.9566 99.755 32.5879 97.2245 32.9248C95.3396 32.8949 93.4797 33.3573 91.8288 34.2662C90.178 35.1751 88.7937 36.4989 87.813 38.1065C81.3921 41.7074 68.4036 51.1926 72.1271 67.3819C72.4203 68.67 72.7429 69.8703 73.124 71.0413C79.1931 89.5141 96.1398 94.93 101.476 92.7051C104.17 91.4112 106.268 89.1388 107.34 86.3523C109.126 88.9236 111.446 91.0804 114.142 92.6758C117.748 93.5541 123.319 85.7376 120.446 82.4587Z" fill="#B86EE3"/>
<path d="M56.1605 76.9719C56.1605 76.9719 52.9828 79.8007 52.5591 81.0469C52.1354 82.293 55.9611 86.2309 57.9924 88.0379C60.0236 89.8448 60.8336 89.1345 59.5501 86.3306C58.7549 84.5993 57.8258 82.9326 56.7711 81.3459L56.1605 76.9719Z" fill="white" stroke="#263238" stroke-linecap="round" stroke-linejoin="round"/>
<path d="M56.4346 72.9094C56.4346 72.9094 52.8955 75.2647 52.3098 76.4485C51.7241 77.6324 54.9641 82.0562 56.7337 84.1124C58.5032 86.1686 59.388 85.5954 58.5033 82.642C57.9528 80.8213 57.2612 79.0464 56.4346 77.3333V72.9094Z" fill="white" stroke="#263238" stroke-linecap="round" stroke-linejoin="round"/>
<path d="M55.2508 69.3702C55.2508 69.3702 51.7117 71.738 51.126 72.9094C50.5403 74.0808 53.7803 78.5171 55.5499 80.5733C57.3194 82.6294 58.2042 82.0562 57.3194 79.1028C56.769 77.2821 56.0774 75.5072 55.2508 73.7941V69.3702Z" fill="white" stroke="#263238" stroke-linecap="round" stroke-linejoin="round"/>
<path d="M54.9265 64.4354C54.9265 64.4354 51.4621 66.9277 50.9013 68.0867C50.3406 69.2456 53.7052 73.6072 55.5371 75.5637C57.3689 77.5201 58.2288 76.9594 57.2568 74.0433C56.6606 72.2393 55.9231 70.4851 55.0511 68.797L54.9265 64.4354Z" fill="white" stroke="#263238" stroke-linecap="round" stroke-linejoin="round"/>
<path d="M55.4376 59.5754C55.4376 59.5754 53.2693 58.6532 52.3472 59.2639C51.425 59.8745 49.4062 63.912 48.7831 65.1582C48.16 66.4044 48.6336 67.3265 50.6399 66.4044C51.9125 65.7678 52.9443 64.7359 53.5809 63.4634L54.9766 63.775L55.4376 59.5754Z" fill="white" stroke="#263238" stroke-linecap="round" stroke-linejoin="round"/>
<path d="M63.7124 63.1769C63.5504 64.7097 62.9772 65.906 62.4662 65.8437C61.9553 65.7814 61.5939 64.4978 61.7559 62.965C61.9179 61.4322 62.4912 60.2359 63.0021 60.2982C63.513 60.3605 63.8744 61.6441 63.7124 63.1769Z" fill="white" stroke="#263238" stroke-linecap="round" stroke-linejoin="round"/>
<path d="M73.1957 -10.6209C64.2857 -0.90081 65.6066 15.1747 78.8658 19.3618C84 20.9818 88.5858 17.7418 88.5858 17.7418L86.2804 18.5518C86.2804 18.5518 118.419 31.0134 151.916 22.8137C154.831 18.468 157.145 13.7479 158.795 8.78187C159.704 5.69138 160.826 1.87814 161.786 -1.44912C155.679 -3.03175 144.75 -6.93224 144.501 -14.5214C144.19 -23.7804 153.025 -49.5884 155.218 -55.8317C154.785 -55.9124 154.365 -56.0551 153.972 -56.2554C153.693 -56.5148 153.443 -56.803 153.224 -57.1152H152.477C152.477 -57.1152 147.816 -47.2705 144.551 -39.2203C141.286 -31.1701 132.924 -18.0355 122.756 -14.7083C112.587 -11.381 99.7889 -16.5775 104.25 -23.4314C108.711 -30.2853 128.314 -50.386 128.314 -50.386C128.314 -50.386 126.307 -50.1741 123.478 -49.738L98.8293 -27.6809C97.9819 -26.1855 80.1992 -18.2723 73.1957 -10.6209Z" fill="#E2B0FF" stroke="#263238" stroke-linecap="round" stroke-linejoin="round"/>
<path d="M143.791 15.2619C141.622 18.7361 138.631 21.6224 135.082 23.6655C131.532 25.7086 127.534 26.8456 123.441 26.9759C111.453 27.3746 101.546 21.5176 100.736 7.47339" fill="#E2B0FF"/>
<path d="M143.791 15.2619C141.622 18.7361 138.631 21.6224 135.082 23.6655C131.532 25.7086 127.534 26.8456 123.441 26.9759C111.453 27.3746 101.546 21.5176 100.736 7.47339" stroke="#263238" stroke-linecap="round" stroke-linejoin="round"/>
<path d="M165.636 -23.6933C165.636 -23.6933 176.515 -5.54911 177.449 -4.11602C178.384 -2.68293 198.697 25.1314 198.697 25.1314C198.697 25.1314 181.25 47.1636 174.932 52.3601C171.093 55.5275 166.832 58.1447 162.271 60.1361C162.271 60.1361 149.56 57.6438 145.735 57.4569C142.394 57.2028 139.051 57.9259 136.114 59.538C133.223 61.1081 129.173 62.7032 130.693 64.4229C132.214 66.1426 134.208 64.0117 135.678 63.0771C136.978 62.2013 138.47 61.6501 140.027 61.4695C141.273 61.4695 146.507 61.8309 146.507 61.8309C146.507 61.8309 137.198 64.4977 136.351 65.4074C135.504 66.3171 131.192 69.3951 132.401 70.2425C133.043 70.6044 133.781 70.7569 134.514 70.6787C135.247 70.6005 135.937 70.2955 136.488 69.8064C137.635 68.8842 139.641 67.314 139.641 67.314L145.76 65.9308C145.76 65.9308 138.283 70.5915 136.588 72.6975C134.893 74.8035 136.7 75.925 137.572 75.601C138.445 75.277 140.999 72.847 142.445 71.9248C143.89 71.0027 151.417 68.0991 151.417 68.0991C151.417 68.0991 141.448 75.7755 141.124 76.6603C140.8 77.545 142.669 78.6666 144.09 77.4453C145.51 76.2241 155.305 69.9684 155.305 69.9684C155.305 69.9684 162.433 72.3735 168.776 68.9341C171.268 67.5508 177.499 64.5226 177.499 64.5226C177.499 64.5226 203.669 48.6714 212.504 39.5994C221.339 30.5273 223.271 28.0848 222.299 25.4679C221.327 22.8509 206.099 -12.9513 203.544 -17.8612C200.989 -22.7711 199.669 -27.033 194.422 -34.4975C189.176 -41.962 181.126 -55.0966 160.053 -52.9158" fill="white"/>
<path d="M165.636 -23.6933C165.636 -23.6933 176.515 -5.54911 177.449 -4.11602C178.384 -2.68293 198.697 25.1314 198.697 25.1314C198.697 25.1314 181.25 47.1636 174.932 52.3601C171.093 55.5275 166.832 58.1447 162.271 60.1361C162.271 60.1361 149.56 57.6438 145.735 57.4569C142.394 57.2028 139.051 57.9259 136.114 59.538C133.223 61.1081 129.173 62.7032 130.693 64.4229C132.214 66.1427 134.208 64.0117 135.678 63.0771C136.978 62.2013 138.47 61.6501 140.027 61.4695C141.273 61.4695 146.507 61.8309 146.507 61.8309C146.507 61.8309 137.198 64.4977 136.351 65.4074C135.504 66.3171 131.192 69.3951 132.401 70.2425C133.043 70.6044 133.781 70.7569 134.514 70.6787C135.247 70.6005 135.937 70.2955 136.488 69.8064C137.635 68.8842 139.641 67.314 139.641 67.314L145.76 65.9308C145.76 65.9308 138.283 70.5915 136.588 72.6975C134.893 74.8035 136.7 75.925 137.572 75.601C138.445 75.277 140.999 72.847 142.445 71.9248C143.89 71.0027 151.417 68.0991 151.417 68.0991C151.417 68.0991 141.448 75.7755 141.124 76.6603C140.8 77.545 142.669 78.6666 144.09 77.4453C145.51 76.2241 155.305 69.9684 155.305 69.9684C155.305 69.9684 162.433 72.3735 168.776 68.934C171.268 67.5508 177.499 64.5226 177.499 64.5226C177.499 64.5226 203.669 48.6714 212.504 39.5994C221.339 30.5273 223.271 28.0848 222.299 25.4679C221.327 22.8509 206.099 -12.9513 203.544 -17.8612C200.989 -22.7711 199.669 -27.033 194.422 -34.4975C189.176 -41.962 181.126 -55.0966 160.053 -52.9158" stroke="#263238" stroke-linecap="round" stroke-linejoin="round"/>
<path d="M89.9937 -116.096C89.9937 -116.096 93.8069 -103.896 103.701 -102.102C113.596 -100.307 125.31 -104.594 128.014 -99.9335C130.718 -95.2728 135.703 -86.1634 140.875 -84.2069C140.875 -84.2069 136.575 -72.9914 139.404 -64.6047C142.233 -56.2181 153.461 -51.0465 154.832 -48.5417C156.202 -46.0369 150.32 -42.8592 149.074 -27.5065C147.828 -12.1537 153.324 -2.13457 159.866 2.73793C166.408 7.61043 177.711 2.13976 177.711 2.13976C177.711 2.13976 169.935 -1.42427 174.795 -8.81401C179.655 -16.2038 200.877 -16.9141 201.613 -33.1017C202.348 -49.2894 194.946 -54.5607 195.718 -56.7165C196.491 -58.8724 208.292 -62.237 205.251 -77.0165C202.211 -91.796 180.328 -95.709 178.06 -101.616C171.979 -117.006 166.645 -136.384 151.405 -145.306C140.762 -151.537 115.577 -156.31 106.007 -145.556C106.007 -145.556 100.225 -140.259 99.0907 -135.973" fill="#263238"/>
<path d="M89.9937 -116.096C89.9937 -116.096 93.8069 -103.896 103.701 -102.102C113.596 -100.307 125.31 -104.594 128.014 -99.9335C130.718 -95.2728 135.703 -86.1634 140.875 -84.2069C140.875 -84.2069 136.575 -72.9914 139.404 -64.6047C142.233 -56.2181 153.461 -51.0465 154.832 -48.5417C156.202 -46.0369 150.32 -42.8592 149.074 -27.5065C147.828 -12.1537 153.324 -2.13457 159.866 2.73792C166.408 7.61042 177.711 2.13975 177.711 2.13975C177.711 2.13975 169.935 -1.42427 174.795 -8.81401C179.655 -16.2038 200.877 -16.9141 201.613 -33.1017C202.348 -49.2894 194.946 -54.5607 195.718 -56.7165C196.491 -58.8724 208.292 -62.237 205.251 -77.0165C202.211 -91.796 180.328 -95.709 178.06 -101.616C171.979 -117.006 166.645 -136.384 151.405 -145.306C140.762 -151.537 115.577 -156.31 106.007 -145.556C106.007 -145.556 100.225 -140.259 99.0907 -135.973" stroke="#263238" stroke-linecap="round" stroke-linejoin="round"/>
</g>
</g>
<path d="M23.563 85.8196C23.4855 86.8905 23.089 87.7336 22.3735 88.3489C21.6626 88.9641 20.7238 89.2717 19.5571 89.2717C18.2811 89.2717 17.2762 88.8433 16.5425 87.9866C15.8133 87.1252 15.4487 85.9449 15.4487 84.4456V83.8372C15.4487 82.8801 15.6174 82.037 15.9546 81.3079C16.2918 80.5787 16.7726 80.0204 17.397 79.6331C18.0259 79.2411 18.755 79.0452 19.5845 79.0452C20.7329 79.0452 21.658 79.3528 22.3599 79.968C23.0617 80.5833 23.4673 81.4469 23.5767 82.5588H21.5259C21.4757 81.9163 21.2957 81.4514 20.9858 81.1643C20.6805 80.8726 20.2134 80.7268 19.5845 80.7268C18.9009 80.7268 18.3882 80.9729 18.0464 81.4651C17.7091 81.9527 17.536 82.7115 17.5269 83.7415V84.4934C17.5269 85.5689 17.6886 86.3551 18.0122 86.8518C18.3403 87.3486 18.8553 87.5969 19.5571 87.5969C20.1906 87.5969 20.6623 87.4534 20.9722 87.1663C21.2866 86.8746 21.4666 86.4257 21.5122 85.8196H23.563ZM24.4722 85.3684C24.4722 84.6347 24.6134 83.9807 24.896 83.4065C25.1785 82.8323 25.5841 82.3879 26.1128 82.0735C26.646 81.759 27.2635 81.6018 27.9653 81.6018C28.9634 81.6018 29.7769 81.9071 30.4058 82.5178C31.0392 83.1285 31.3924 83.9579 31.4653 85.0061L31.479 85.512C31.479 86.6467 31.1623 87.5582 30.5288 88.2463C29.8953 88.9299 29.0454 89.2717 27.979 89.2717C26.9126 89.2717 26.0604 88.9299 25.4224 88.2463C24.7889 87.5627 24.4722 86.6331 24.4722 85.4573V85.3684ZM26.4478 85.512C26.4478 86.2138 26.5799 86.7515 26.8442 87.1252C27.1086 87.4944 27.4868 87.679 27.979 87.679C28.4575 87.679 28.8312 87.4967 29.1001 87.1321C29.369 86.7629 29.5034 86.175 29.5034 85.3684C29.5034 84.6803 29.369 84.1471 29.1001 83.7688C28.8312 83.3905 28.453 83.2014 27.9653 83.2014C27.4823 83.2014 27.1086 83.3905 26.8442 83.7688C26.5799 84.1425 26.4478 84.7236 26.4478 85.512ZM34.5142 81.7385L34.5757 82.593C35.1043 81.9322 35.813 81.6018 36.7017 81.6018C37.4855 81.6018 38.0688 81.8319 38.4517 82.2922C38.8345 82.7525 39.0304 83.4407 39.0396 84.3567V89.135H37.064V84.4045C37.064 83.9853 36.9728 83.6822 36.7905 83.4954C36.6082 83.304 36.3052 83.2083 35.8813 83.2083C35.3254 83.2083 34.9084 83.4452 34.6304 83.9192V89.135H32.6548V81.7385H34.5142ZM42.9087 79.9202V81.7385H44.1733V83.1877H42.9087V86.8792C42.9087 87.1526 42.9611 87.3486 43.0659 87.467C43.1707 87.5855 43.3713 87.6448 43.6675 87.6448C43.8862 87.6448 44.0799 87.6288 44.2485 87.5969V89.094C43.8612 89.2125 43.4624 89.2717 43.0522 89.2717C41.6668 89.2717 40.9604 88.5722 40.9331 87.1731V83.1877H39.853V81.7385H40.9331V79.9202H42.9087ZM49.4302 83.5911C49.1613 83.5546 48.9243 83.5364 48.7192 83.5364C47.9718 83.5364 47.4819 83.7893 47.2495 84.2952V89.135H45.2739V81.7385H47.1401L47.1948 82.6204C47.5913 81.9413 48.1405 81.6018 48.8423 81.6018C49.061 81.6018 49.2661 81.6314 49.4575 81.6907L49.4302 83.5911ZM54.4683 89.135C54.3771 88.9573 54.311 88.7362 54.27 88.4719C53.7915 89.0051 53.1694 89.2717 52.4038 89.2717C51.6792 89.2717 51.0776 89.0621 50.5991 88.6428C50.1252 88.2236 49.8882 87.6949 49.8882 87.0569C49.8882 86.273 50.1776 85.6715 50.7563 85.2522C51.3397 84.8329 52.1805 84.621 53.2788 84.6165H54.188V84.1926C54.188 83.8508 54.0991 83.5774 53.9214 83.3723C53.7482 83.1672 53.4725 83.0647 53.0942 83.0647C52.7616 83.0647 52.4995 83.1444 52.3081 83.304C52.1213 83.4635 52.0278 83.6822 52.0278 83.9602H50.0522C50.0522 83.5318 50.1844 83.1353 50.4487 82.7708C50.7131 82.4062 51.0868 82.1213 51.5698 81.9163C52.0529 81.7066 52.5952 81.6018 53.1968 81.6018C54.1082 81.6018 54.8306 81.8319 55.3638 82.2922C55.9015 82.748 56.1704 83.3905 56.1704 84.22V87.426C56.175 88.1278 56.2729 88.6588 56.4644 89.0188V89.135H54.4683ZM52.8345 87.761C53.1261 87.761 53.395 87.6972 53.6411 87.5696C53.8872 87.4374 54.0695 87.262 54.188 87.0432V85.7717H53.4497C52.4608 85.7717 51.9344 86.1135 51.8706 86.7971L51.8638 86.9133C51.8638 87.1594 51.9504 87.3622 52.1235 87.5217C52.2967 87.6812 52.5337 87.761 52.8345 87.761ZM60.7642 87.679C61.1287 87.679 61.425 87.5787 61.6528 87.3782C61.8807 87.1777 61.9992 86.9111 62.0083 86.5784H63.8608C63.8563 87.0797 63.7196 87.54 63.4507 87.9592C63.1818 88.3739 62.8127 88.6975 62.3433 88.9299C61.8784 89.1578 61.3634 89.2717 60.7983 89.2717C59.741 89.2717 58.9071 88.9368 58.2964 88.2668C57.6857 87.5924 57.3804 86.6627 57.3804 85.4778V85.3479C57.3804 84.2086 57.6834 83.2994 58.2896 82.6204C58.8957 81.9413 59.7274 81.6018 60.7847 81.6018C61.7098 81.6018 62.4504 81.8661 63.0063 82.3948C63.5669 82.9189 63.8517 83.6184 63.8608 84.4934H62.0083C61.9992 84.1106 61.8807 83.8007 61.6528 83.5637C61.425 83.3222 61.1242 83.2014 60.7505 83.2014C60.2902 83.2014 59.9416 83.37 59.7046 83.7073C59.4722 84.04 59.356 84.5823 59.356 85.3342V85.5393C59.356 86.3004 59.4722 86.8472 59.7046 87.1799C59.937 87.5126 60.2902 87.679 60.7642 87.679ZM67.354 79.9202V81.7385H68.6187V83.1877H67.354V86.8792C67.354 87.1526 67.4064 87.3486 67.5112 87.467C67.616 87.5855 67.8166 87.6448 68.1128 87.6448C68.3315 87.6448 68.5252 87.6288 68.6938 87.5969V89.094C68.3065 89.2125 67.9077 89.2717 67.4976 89.2717C66.1121 89.2717 65.4058 88.5722 65.3784 87.1731V83.1877H64.2983V81.7385H65.3784V79.9202H67.354ZM71.8042 89.135H69.8218V81.7385H71.8042V89.135ZM69.7056 79.8245C69.7056 79.5282 69.8035 79.2844 69.9995 79.093C70.2 78.9016 70.4712 78.8059 70.813 78.8059C71.1502 78.8059 71.4191 78.9016 71.6196 79.093C71.8201 79.2844 71.9204 79.5282 71.9204 79.8245C71.9204 80.1252 71.8179 80.3713 71.6128 80.5627C71.4123 80.7542 71.1457 80.8499 70.813 80.8499C70.4803 80.8499 70.2114 80.7542 70.0063 80.5627C69.8058 80.3713 69.7056 80.1252 69.7056 79.8245ZM73.1304 85.3684C73.1304 84.6347 73.2716 83.9807 73.5542 83.4065C73.8368 82.8323 74.2424 82.3879 74.771 82.0735C75.3042 81.759 75.9217 81.6018 76.6235 81.6018C77.6216 81.6018 78.4351 81.9071 79.064 82.5178C79.6974 83.1285 80.0506 83.9579 80.1235 85.0061L80.1372 85.512C80.1372 86.6467 79.8205 87.5582 79.187 88.2463C78.5535 88.9299 77.7036 89.2717 76.6372 89.2717C75.5708 89.2717 74.7186 88.9299 74.0806 88.2463C73.4471 87.5627 73.1304 86.6331 73.1304 85.4573V85.3684ZM75.106 85.512C75.106 86.2138 75.2381 86.7515 75.5024 87.1252C75.7668 87.4944 76.145 87.679 76.6372 87.679C77.1157 87.679 77.4894 87.4967 77.7583 87.1321C78.0272 86.7629 78.1616 86.175 78.1616 85.3684C78.1616 84.6803 78.0272 84.1471 77.7583 83.7688C77.4894 83.3905 77.1112 83.2014 76.6235 83.2014C76.1405 83.2014 75.7668 83.3905 75.5024 83.7688C75.2381 84.1425 75.106 84.7236 75.106 85.512ZM83.1724 81.7385L83.2339 82.593C83.7625 81.9322 84.4712 81.6018 85.3599 81.6018C86.1437 81.6018 86.7271 81.8319 87.1099 82.2922C87.4927 82.7525 87.6886 83.4407 87.6978 84.3567V89.135H85.7222V84.4045C85.7222 83.9853 85.631 83.6822 85.4487 83.4954C85.2664 83.304 84.9634 83.2083 84.5396 83.2083C83.9836 83.2083 83.5666 83.4452 83.2886 83.9192V89.135H81.313V81.7385H83.1724ZM95.0532 79.9202V81.7385H96.3179V83.1877H95.0532V86.8792C95.0532 87.1526 95.1056 87.3486 95.2104 87.467C95.3153 87.5855 95.5158 87.6448 95.812 87.6448C96.0308 87.6448 96.2244 87.6288 96.3931 87.5969V89.094C96.0057 89.2125 95.6069 89.2717 95.1968 89.2717C93.8114 89.2717 93.105 88.5722 93.0776 87.1731V83.1877H91.9976V81.7385H93.0776V79.9202H95.0532ZM99.5034 89.135H97.521V81.7385H99.5034V89.135ZM97.4048 79.8245C97.4048 79.5282 97.5028 79.2844 97.6987 79.093C97.8993 78.9016 98.1704 78.8059 98.5122 78.8059C98.8494 78.8059 99.1183 78.9016 99.3188 79.093C99.5194 79.2844 99.6196 79.5282 99.6196 79.8245C99.6196 80.1252 99.5171 80.3713 99.312 80.5627C99.1115 80.7542 98.8449 80.8499 98.5122 80.8499C98.1795 80.8499 97.9106 80.7542 97.7056 80.5627C97.505 80.3713 97.4048 80.1252 97.4048 79.8245ZM102.99 81.7385L103.051 82.5657C103.575 81.9231 104.284 81.6018 105.177 81.6018C106.13 81.6018 106.784 81.9778 107.139 82.7297C107.659 81.9778 108.399 81.6018 109.361 81.6018C110.163 81.6018 110.76 81.8365 111.152 82.3059C111.544 82.7708 111.74 83.4726 111.74 84.4114V89.135H109.757V84.4182C109.757 83.9989 109.675 83.6936 109.511 83.5022C109.347 83.3062 109.058 83.2083 108.643 83.2083C108.051 83.2083 107.64 83.4908 107.413 84.0559L107.419 89.135H105.444V84.425C105.444 83.9967 105.36 83.6868 105.191 83.4954C105.022 83.304 104.735 83.2083 104.33 83.2083C103.769 83.2083 103.363 83.4407 103.113 83.9055V89.135H101.137V81.7385H102.99ZM116.668 89.2717C115.584 89.2717 114.7 88.939 114.016 88.2737C113.337 87.6083 112.998 86.7219 112.998 85.6145V85.4231C112.998 84.6803 113.141 84.0172 113.428 83.4338C113.715 82.8459 114.121 82.3948 114.645 82.0803C115.174 81.7613 115.775 81.6018 116.45 81.6018C117.461 81.6018 118.257 81.9208 118.835 82.5588C119.419 83.1969 119.71 84.1015 119.71 85.2727V86.0793H115C115.064 86.5624 115.256 86.9498 115.575 87.2415C115.898 87.5331 116.306 87.679 116.798 87.679C117.559 87.679 118.154 87.4032 118.583 86.8518L119.553 87.9387C119.257 88.358 118.856 88.6861 118.35 88.9231C117.844 89.1555 117.284 89.2717 116.668 89.2717ZM116.443 83.2014C116.051 83.2014 115.732 83.3336 115.486 83.5979C115.244 83.8622 115.089 84.2405 115.021 84.7327H117.769V84.5754C117.76 84.1379 117.641 83.8007 117.414 83.5637C117.186 83.3222 116.862 83.2014 116.443 83.2014ZM124.995 83.5911C124.726 83.5546 124.489 83.5364 124.284 83.5364C123.536 83.5364 123.046 83.7893 122.814 84.2952V89.135H120.838V81.7385H122.705L122.759 82.6204C123.156 81.9413 123.705 81.6018 124.407 81.6018C124.625 81.6018 124.831 81.6314 125.022 81.6907L124.995 83.5911Z" fill="white"/>
<mask id="path-25-outside-1_1607_40648" maskUnits="userSpaceOnUse" x="53.5269" y="34.135" width="32" height="36" fill="black">
<rect fill="white" x="53.5269" y="34.135" width="32" height="36"/>
<path d="M82.4482 62.4546C80.8965 60.7012 79.8568 63.3546 79.8568 63.3546C79.5728 62.4086 79.2308 61.4809 78.8327 60.577C79.2922 60.918 79.8225 61.1514 80.3844 61.2598C82.3085 61.3839 84.4965 56.8063 82.6965 55.3477C80.8964 53.889 80.3068 56.6666 80.3068 56.6666C80.3068 56.6666 77.2033 50.3666 74.5964 50.77C71.9895 51.1735 72.005 54.2925 72.005 54.5873L71.4774 54.4166C67.3498 53.2528 67.6291 50.6149 68.4981 48.7062C69.1144 48.9055 69.7483 49.0458 70.3912 49.1252L71.0584 50.5218C71.1031 50.6138 71.1698 50.6934 71.2526 50.7535C71.3354 50.8135 71.4317 50.8522 71.5331 50.866C71.6345 50.8798 71.7377 50.8684 71.8335 50.8327C71.9294 50.797 72.0149 50.7382 72.0826 50.6614L73.5102 49.0166C75.0924 48.7514 76.5106 47.8838 77.4671 46.5959C78.0113 45.8128 78.3553 44.9083 78.4689 43.9614C78.5825 43.0146 78.4623 42.0544 78.1188 41.1648C77.8759 40.5069 77.5528 39.8815 77.1568 39.3027C76.39 38.1902 75.3305 37.3116 74.0954 36.7638C72.8602 36.2161 71.4977 36.0207 70.1584 36.1992C69.1608 36.1834 68.1764 36.4285 67.3027 36.9103C66.429 37.392 65.6964 38.0937 65.1774 38.9458C61.7791 40.8545 54.9049 45.8821 56.8756 54.4632C57.0307 55.1459 57.2014 55.7822 57.4032 56.4029C60.6153 66.1943 69.5843 69.065 72.4085 67.8857C73.8343 67.1999 74.9444 65.9954 75.5119 64.5184C76.4572 65.8813 77.6851 67.0245 79.112 67.8702C81.0206 68.3357 83.9689 64.1926 82.4482 62.4546Z"/>
</mask>
<path d="M82.4482 62.4546L83.9534 61.1376L83.9459 61.1292L82.4482 62.4546ZM79.8568 63.3546L77.9412 63.9296L79.6061 69.4766L81.7189 64.0843L79.8568 63.3546ZM78.8327 60.577L80.0245 58.971L73.9561 54.4675L77.0023 61.3832L78.8327 60.577ZM80.3844 61.2598L80.0055 63.2236L80.1296 63.2475L80.2556 63.2556L80.3844 61.2598ZM80.3068 56.6666L78.5127 57.5505L81.0642 62.73L82.2632 57.082L80.3068 56.6666ZM72.005 54.5873L71.3893 56.4902L74.005 57.3365V54.5873H72.005ZM71.4774 54.4166L72.0931 52.5137L72.0568 52.502L72.0202 52.4917L71.4774 54.4166ZM68.4981 48.7062L69.1134 46.8032L67.4167 46.2546L66.6779 47.8775L68.4981 48.7062ZM70.3912 49.1252L72.1958 48.263L71.7235 47.2745L70.6363 47.1403L70.3912 49.1252ZM71.0584 50.5218L69.2538 51.384L69.2588 51.3943L71.0584 50.5218ZM72.0826 50.6614L73.5829 51.9839L73.588 51.9782L73.593 51.9724L72.0826 50.6614ZM73.5102 49.0166L73.1796 47.0441L72.4708 47.1629L71.9997 47.7056L73.5102 49.0166ZM77.4671 46.5959L79.0727 47.7884L79.0915 47.7631L79.1095 47.7372L77.4671 46.5959ZM78.1188 41.1648L76.2427 41.8577L76.2478 41.8715L76.2531 41.8852L78.1188 41.1648ZM77.1568 39.3027L78.8075 38.1734L78.8035 38.1677L77.1568 39.3027ZM70.1584 36.1992L70.1267 38.199L70.2753 38.2013L70.4227 38.1817L70.1584 36.1992ZM65.1774 38.9458L66.1568 40.6896L66.6132 40.4333L66.8855 39.9862L65.1774 38.9458ZM56.8756 54.4632L58.8258 54.0199L58.8248 54.0155L56.8756 54.4632ZM57.4032 56.4029L55.5011 57.021L55.5028 57.0263L57.4032 56.4029ZM72.4085 67.8857L73.1791 69.7313L73.2278 69.7109L73.2754 69.688L72.4085 67.8857ZM75.5119 64.5184L77.1553 63.3786L75.0009 60.2724L73.645 63.8011L75.5119 64.5184ZM79.112 67.8702L78.0922 69.5907L78.3486 69.7426L78.638 69.8132L79.112 67.8702ZM83.9459 61.1292C83.3307 60.434 82.4674 59.848 81.3748 59.8556C80.33 59.8628 79.5842 60.414 79.1717 60.8177C78.7472 61.2331 78.4583 61.6994 78.2909 62.0038C78.2015 62.1664 78.1324 62.3094 78.0841 62.4156C78.0597 62.4692 78.0401 62.5146 78.0253 62.5499C78.0178 62.5676 78.0115 62.5828 78.0064 62.5954C78.0039 62.6017 78.0016 62.6073 77.9997 62.6123C77.9987 62.6147 77.9978 62.617 77.9969 62.6191C77.9965 62.6202 77.9961 62.6212 77.9957 62.6222C77.9955 62.6227 77.9953 62.6234 77.9952 62.6236C77.9949 62.6243 77.9946 62.625 79.8568 63.3546C81.7189 64.0843 81.7187 64.0849 81.7184 64.0856C81.7184 64.0858 81.7181 64.0864 81.7179 64.0868C81.7176 64.0876 81.7173 64.0884 81.717 64.0891C81.7164 64.0906 81.7159 64.092 81.7154 64.0932C81.7145 64.0956 81.7137 64.0974 81.7132 64.0987C81.7121 64.1014 81.7119 64.1019 81.7124 64.1006C81.7136 64.0979 81.7178 64.088 81.7249 64.0724C81.7394 64.0404 81.7637 63.9898 81.796 63.931C81.8721 63.7928 81.9401 63.7052 81.9694 63.6765C82.0108 63.636 81.8159 63.8526 81.4025 63.8555C80.9413 63.8586 80.7898 63.5985 80.9505 63.7801L83.9459 61.1292ZM81.7724 62.7797C81.4648 61.7549 81.0943 60.75 80.663 59.7708L77.0023 61.3832C77.3674 62.2119 77.6809 63.0623 77.9412 63.9296L81.7724 62.7797ZM77.6408 62.1831C78.3411 62.7028 79.1492 63.0584 80.0055 63.2236L80.7633 59.296C80.4958 59.2444 80.2433 59.1333 80.0245 58.971L77.6408 62.1831ZM80.2556 63.2556C81.5512 63.3392 82.5753 62.6385 83.2036 62.0286C83.8743 61.3775 84.4098 60.5371 84.775 59.6858C85.1387 58.8379 85.3926 57.8413 85.3644 56.8475C85.3361 55.8504 85.0047 54.6439 83.9556 53.7938L81.4373 56.9015C81.2882 56.7808 81.3584 56.6935 81.366 56.961C81.3737 57.2318 81.2978 57.6454 81.099 58.1088C80.9017 58.5686 80.6419 58.9406 80.4175 59.1585C80.1506 59.4175 80.1797 59.2424 80.5132 59.2639L80.2556 63.2556ZM83.9556 53.7938C83.2361 53.2107 82.2874 52.7768 81.2108 52.9698C80.1858 53.1535 79.5458 53.8209 79.2091 54.2838C78.8616 54.7617 78.6545 55.2666 78.5399 55.593C78.4787 55.7674 78.4343 55.9191 78.4041 56.0312C78.3889 56.0878 78.3771 56.1356 78.3682 56.1726C78.3638 56.1912 78.3601 56.2072 78.3572 56.2204C78.3557 56.2269 78.3544 56.2328 78.3533 56.238C78.3527 56.2406 78.3522 56.243 78.3517 56.2452C78.3515 56.2463 78.3512 56.2474 78.351 56.2484C78.3509 56.2489 78.3508 56.2497 78.3507 56.2499C78.3505 56.2506 78.3504 56.2513 80.3068 56.6666C82.2632 57.082 82.2631 57.0827 82.2629 57.0833C82.2629 57.0835 82.2627 57.0842 82.2626 57.0846C82.2625 57.0855 82.2623 57.0863 82.2621 57.0871C82.2618 57.0886 82.2615 57.09 82.2612 57.0913C82.2607 57.0938 82.2602 57.0957 82.2599 57.0971C82.2593 57.0998 82.2592 57.1004 82.2595 57.099C82.2602 57.0961 82.2627 57.0856 82.2672 57.0691C82.2763 57.035 82.292 56.9811 82.3142 56.9178C82.3664 56.7691 82.4192 56.6707 82.4441 56.6365C82.4798 56.5874 82.3247 56.8339 81.9166 56.907C81.4568 56.9894 81.2568 56.7553 81.4373 56.9015L83.9556 53.7938ZM80.3068 56.6666C82.1009 55.7828 82.1008 55.7825 82.1006 55.7821C82.1005 55.782 82.1003 55.7816 82.1002 55.7813C82.0999 55.7807 82.0995 55.78 82.0991 55.7792C82.0983 55.7775 82.0973 55.7756 82.0961 55.7732C82.0938 55.7684 82.0907 55.7622 82.0868 55.7544C82.0791 55.739 82.0684 55.7177 82.0548 55.6909C82.0276 55.6374 81.9889 55.5619 81.9395 55.4677C81.8407 55.2795 81.6987 55.0153 81.5205 54.7013C81.1666 54.0779 80.6576 53.2362 80.0502 52.3956C79.455 51.5719 78.7033 50.6621 77.8491 49.9685C77.0494 49.3192 75.7911 48.5613 74.2905 48.7936L74.9023 52.7465C74.7052 52.777 74.8124 52.6554 75.3278 53.0738C75.7886 53.448 76.3016 54.0376 76.8082 54.7385C77.3025 55.4225 77.7323 56.1306 78.0418 56.6759C78.1953 56.9462 78.3161 57.171 78.3972 57.3258C78.4378 57.4031 78.4683 57.4625 78.4878 57.5011C78.4976 57.5204 78.5046 57.5344 78.5088 57.5427C78.5109 57.5469 78.5123 57.5497 78.5129 57.551C78.5133 57.5516 78.5134 57.5519 78.5134 57.5518C78.5133 57.5518 78.5133 57.5517 78.5132 57.5514C78.5131 57.5513 78.513 57.5511 78.5129 57.551C78.5128 57.5507 78.5127 57.5505 80.3068 56.6666ZM74.2905 48.7936C72.0296 49.1435 70.9243 50.7411 70.4482 52.0231C69.9946 53.2446 70.005 54.4021 70.005 54.5873H74.005C74.005 54.4777 74.0076 53.9283 74.198 53.4157C74.2873 53.1751 74.3902 53.0219 74.4833 52.9317C74.555 52.8622 74.6649 52.7833 74.9023 52.7465L74.2905 48.7936ZM72.6206 52.6844L72.0931 52.5137L70.8618 56.3195L71.3893 56.4902L72.6206 52.6844ZM72.0202 52.4917C70.342 52.0185 70.0779 51.4136 70.017 51.2253C69.9087 50.8905 69.9591 50.324 70.3183 49.535L66.6779 47.8775C66.1681 48.9971 65.6444 50.7039 66.2111 52.4562C66.8252 54.355 68.4852 55.6509 70.9347 56.3416L72.0202 52.4917ZM67.8827 50.6092C68.6196 50.8475 69.3775 51.0152 70.1461 51.1101L70.6363 47.1403C70.1192 47.0764 69.6092 46.9636 69.1134 46.8032L67.8827 50.6092ZM68.5866 49.9874L69.2538 51.384L72.8631 49.6596L72.1958 48.263L68.5866 49.9874ZM69.2588 51.3943C69.4473 51.7831 69.7289 52.1191 70.0784 52.3725L72.4267 49.1344C72.6106 49.2677 72.7588 49.4445 72.8581 49.6493L69.2588 51.3943ZM70.0784 52.3725C70.428 52.626 70.8349 52.7893 71.2629 52.8477L71.8033 48.8843C72.0286 48.9151 72.2428 49.001 72.4267 49.1344L70.0784 52.3725ZM71.2629 52.8477C71.6908 52.906 72.1266 52.8577 72.5313 52.707L71.1357 48.9584C71.3487 48.8791 71.5781 48.8536 71.8033 48.8843L71.2629 52.8477ZM72.5313 52.707C72.9361 52.5563 73.2973 52.3079 73.5829 51.9839L70.5822 49.3389C70.7326 49.1684 70.9227 49.0377 71.1357 48.9584L72.5313 52.707ZM73.593 51.9724L75.0206 50.3275L71.9997 47.7056L70.5722 49.3505L73.593 51.9724ZM73.8408 50.9891C75.9329 50.6384 77.8079 49.4913 79.0727 47.7884L75.8615 45.4034C75.2132 46.2763 74.252 46.8643 73.1796 47.0441L73.8408 50.9891ZM79.1095 47.7372C79.8402 46.6857 80.3021 45.4711 80.4546 44.1997L76.4831 43.7232C76.4085 44.3454 76.1824 44.9399 75.8248 45.4545L79.1095 47.7372ZM80.4546 44.1997C80.6072 42.9284 80.4458 41.639 79.9846 40.4444L76.2531 41.8852C76.4788 42.4698 76.5578 43.1009 76.4831 43.7232L80.4546 44.1997ZM79.995 40.4719C79.6951 39.6599 79.2962 38.8879 78.8075 38.1734L75.5061 40.432C75.8093 40.8751 76.0567 41.354 76.2427 41.8577L79.995 40.4719ZM78.8035 38.1677C77.8274 36.7515 76.4785 35.6328 74.9061 34.9355L73.2846 38.5921C74.1824 38.9903 74.9527 39.629 75.51 40.4377L78.8035 38.1677ZM74.9061 34.9355C73.3337 34.2383 71.5991 33.9895 69.8942 34.2168L70.4227 38.1817C71.3963 38.0519 72.3867 38.194 73.2846 38.5921L74.9061 34.9355ZM70.1902 34.1995C68.8441 34.1781 67.5159 34.5088 66.337 35.1589L68.2685 38.6617C68.837 38.3482 69.4775 38.1887 70.1267 38.199L70.1902 34.1995ZM66.337 35.1589C65.1581 35.8089 64.1696 36.7557 63.4693 37.9054L66.8855 39.9862C67.2232 39.4317 67.6999 38.9751 68.2685 38.6617L66.337 35.1589ZM64.198 37.202C62.3793 38.2235 59.5387 40.1246 57.4044 43.014C55.2261 45.963 53.7875 49.9521 54.9263 54.9108L58.8248 54.0155C57.9929 50.3931 59.0061 47.5779 60.6218 45.3906C62.2815 43.1438 64.5772 41.5768 66.1568 40.6896L64.198 37.202ZM54.9253 54.9064C55.0913 55.637 55.2774 56.3328 55.5011 57.021L59.3052 55.7847C59.1255 55.2315 58.9701 54.6549 58.8258 54.0199L54.9253 54.9064ZM55.5028 57.0263C57.2706 62.415 60.6475 65.9528 64.0239 67.9743C65.7041 68.9802 67.4044 69.6232 68.9339 69.9275C70.3975 70.2187 71.9462 70.2461 73.1791 69.7313L71.6378 66.0401C71.4586 66.115 70.8272 66.2258 69.7144 66.0044C68.6675 65.7961 67.3953 65.3306 66.0787 64.5424C63.4615 62.9755 60.7479 60.1822 59.3035 55.7794L55.5028 57.0263ZM73.2754 69.688C75.1607 68.7812 76.6285 67.1886 77.3789 65.2358L73.645 63.8011C73.2604 64.8021 72.508 65.6185 71.5415 66.0834L73.2754 69.688ZM73.8686 65.6583C74.9776 67.2573 76.4182 68.5985 78.0922 69.5907L80.1317 66.1497C78.952 65.4505 77.9369 64.5054 77.1553 63.3786L73.8686 65.6583ZM78.638 69.8132C79.8989 70.1208 81.0318 69.6194 81.7678 69.1248C82.5487 68.6001 83.2268 67.8639 83.7372 67.0874C84.2455 66.3144 84.6701 65.3758 84.8154 64.3916C84.9611 63.4049 84.8445 62.1561 83.9534 61.1376L80.943 63.7716C80.8122 63.6221 80.8974 63.543 80.8583 63.8073C80.8189 64.0743 80.6722 64.4682 80.3949 64.89C80.1198 65.3084 79.798 65.6293 79.5368 65.8047C79.2307 66.0105 79.2793 65.8524 79.5859 65.9271L78.638 69.8132Z" fill="#F9F8FC" mask="url(#path-25-outside-1_1607_40648)"/>
<defs>
<linearGradient id="paint0_linear_1607_40648" x1="0" y1="0.0656738" x2="128.135" y2="139.127" gradientUnits="userSpaceOnUse">
<stop stop-color="#E2B0FF"/>
<stop offset="1" stop-color="#9F44D3"/>
</linearGradient>
<linearGradient id="paint1_linear_1607_40648" x1="0" y1="0.0656738" x2="128.135" y2="139.127" gradientUnits="userSpaceOnUse">
<stop stop-color="#E2B0FF"/>
<stop offset="1" stop-color="#9F44D3"/>
</linearGradient>
</defs>
</svg>
