<svg width="117" height="115" viewBox="0 0 117 115" fill="none" xmlns="http://www.w3.org/2000/svg">
<rect y="-0.15625" width="117" height="115" rx="6" fill="#FFCC88"/>
<mask id="mask0_1607_42313" style="mask-type:alpha" maskUnits="userSpaceOnUse" x="0" y="-1" width="117" height="116">
<rect y="-0.15625" width="117" height="115" rx="6" fill="url(#paint0_linear_1607_42313)"/>
</mask>
<g mask="url(#mask0_1607_42313)">
<path d="M82.8615 102.046C82.8615 102.046 96.5478 104.087 104.72 104.653C112.892 105.219 119.414 103.499 123.236 106.14C127.058 108.782 127.394 116.696 124.743 122.376C122.091 128.057 119.868 130.097 115.707 131.616C111.546 133.136 101.16 133.811 85.0205 132.256C68.8809 130.702 60.7887 125.079 57.9708 119.245C55.1529 113.411 55.4536 110.845 56.5315 110.03C57.6094 109.214 60.3985 108.29 60.3985 108.29C60.3985 108.29 59.2534 103.012 63.7121 99.8586C66.6867 97.7508 75.5273 99.9034 82.8615 102.046Z" fill="white"/>
<path d="M121.582 127.574C121.582 127.574 120.018 128.44 117.383 128.271C114.747 128.101 112.585 125.072 109.815 122.498C107.045 119.923 96.3622 117.453 85.8263 116.99C75.2905 116.526 66.8337 114.348 62.279 112.633C57.7244 110.919 55.8692 111.936 55.8692 112.979C55.8692 114.022 57.5836 118.736 58.396 120.169C60.4239 123.764 63.971 126.502 68.209 128.223C72.447 129.944 78.7896 131.421 86.0694 132.358C93.3492 133.296 103.341 133.027 106.818 132.864C110.295 132.701 116.925 132.49 121.582 127.574Z" fill="#FFCC88"/>
<path opacity="0.5" d="M121.582 127.574C121.582 127.574 120.018 128.44 117.383 128.271C114.747 128.101 112.585 125.072 109.815 122.498C107.045 119.923 96.3622 117.453 85.8263 116.99C75.2905 116.526 66.8337 114.348 62.279 112.633C57.7244 110.919 55.8692 111.936 55.8692 112.979C55.8692 114.022 57.4013 118.813 58.396 120.169C60.8333 123.502 63.971 126.502 68.209 128.223C72.447 129.944 78.7896 131.421 86.0694 132.358C93.3492 133.296 103.341 133.027 106.818 132.864C110.295 132.701 116.925 132.49 121.582 127.574Z" fill="white"/>
<path d="M82.8615 102.046C82.8615 102.046 96.5478 104.087 104.72 104.653C112.892 105.219 119.414 103.499 123.236 106.14C127.058 108.782 127.394 116.696 124.743 122.376C122.091 128.057 119.868 130.097 115.707 131.616C111.546 133.136 101.16 133.811 85.0205 132.256C68.8809 130.702 60.7887 125.079 57.9708 119.245C55.1529 113.411 55.4536 110.845 56.5315 110.03C57.6094 109.214 60.3985 108.29 60.3985 108.29C60.3985 108.29 59.2534 103.012 63.7121 99.8586C66.6867 97.7508 75.5273 99.9034 82.8615 102.046Z" stroke="#263238" stroke-width="0.371783" stroke-miterlimit="10"/>
<path d="M62.4038 109.563C61.9481 109.388 61.5219 109.144 61.1404 108.84L62.4038 109.563Z" fill="white"/>
<path d="M62.4038 109.563C61.9481 109.388 61.5219 109.144 61.1404 108.84" stroke="#263238" stroke-width="0.371783" stroke-miterlimit="10"/>
<path d="M122.644 111.114C122.6 112.074 123.089 113.9 122.836 115.483C121.995 120.777 120.489 123.243 117.46 123.409C114.431 123.575 112.601 118.128 109.332 117.53C106.063 116.932 95.6619 116.548 79.4872 113.801C71.0975 112.374 66.4757 111.095 63.9713 110.193" fill="white"/>
<path d="M122.644 111.114C122.6 112.074 123.089 113.9 122.836 115.483C121.995 120.777 120.489 123.243 117.46 123.409C114.431 123.575 112.601 118.128 109.332 117.53C106.063 116.932 95.6619 116.548 79.4872 113.801C71.0975 112.374 66.4757 111.095 63.9713 110.193" stroke="#263238" stroke-width="0.371783" stroke-miterlimit="10"/>
<path d="M67.0639 115.301C66.7985 115.576 66.5074 116.1 66.6481 116.238C66.7889 116.375 67.307 116.068 67.5725 115.793C67.838 115.518 67.9403 115.189 67.7996 115.051C67.6589 114.914 67.323 115.029 67.0639 115.301Z" fill="white" stroke="#263238" stroke-width="0.371783" stroke-miterlimit="10"/>
<path d="M61.4348 115.416C61.5723 115.774 61.9274 116.257 62.1097 116.187C62.292 116.117 62.2344 115.522 62.1097 115.163C61.9849 114.805 61.7131 114.575 61.5308 114.645C61.3484 114.716 61.3069 115.061 61.4348 115.416Z" fill="white" stroke="#263238" stroke-width="0.371783" stroke-miterlimit="10"/>
<path d="M100.047 103.62C100.047 103.62 102.548 100.287 102.155 97.7888C101.761 95.2908 103.94 94.0722 104.534 94.8814C105.129 95.6906 104.518 97.5393 105.875 96.6374C107.231 95.7354 107.077 92.3866 108.142 91.2191C109.207 90.0517 110.253 91.539 110.001 92.1115C109.748 92.684 110.477 93.3493 111.568 92.7512C112.659 92.1531 113.756 85.6601 115.944 87.6528C118.131 89.6454 114.866 91.491 115.995 91.7085C117.124 91.926 120.741 88.5516 121.752 89.2041C122.763 89.8565 120.05 91.6573 120.767 92.0443C121.483 92.4313 123.53 91.3566 124.02 92.8727C124.509 94.3888 120.821 93.4389 120.895 94.8366C120.968 96.2343 123.099 97.1107 122.593 98.2526C122.088 99.3945 118.435 99.2825 118.79 100.664C119.145 102.046 119.222 104 117.415 104.224C115.608 104.448 113.206 103.86 113.96 105.085C114.715 106.31 113.519 107.621 111.421 107.579C109.323 107.538 107.685 108.446 108.158 109.697C108.632 110.947 106.428 111.597 105.28 111.088C104.131 110.58 102.558 109.678 102.2 110.954C101.841 112.23 100.709 112 99.6984 111.347C98.6876 110.695 97.5618 110.468 97.1875 111.466C96.8133 112.463 94.3729 111.037 94.3729 111.037C94.3729 111.037 91.7405 111.578 91.1744 111.325C90.6082 111.072 90.9793 110.074 91.9228 109.332C92.8664 108.59 94.8622 106.399 95.1213 105.83C95.3804 105.26 96.8389 103.652 97.2771 104.051C97.7153 104.451 99.8071 104.477 100.047 103.62Z" fill="#FFCC88" stroke="#263238" stroke-width="0.371783" stroke-miterlimit="10"/>
<path d="M116.887 96.5194C117.323 96.1189 117.733 95.6916 118.115 95.24" stroke="#263238" stroke-width="0.371783" stroke-miterlimit="10"/>
<path d="M99.6152 107.18C100.412 106.841 101.214 106.508 101.985 106.195C105.523 104.755 111.453 101.035 115.265 97.9265" stroke="#263238" stroke-width="0.371783" stroke-miterlimit="10"/>
<path d="M91.6926 110.724C91.6926 110.724 94.4177 109.444 97.6482 108.027" stroke="#263238" stroke-width="0.371783" stroke-miterlimit="10"/>
<path d="M67.2402 96.1802C67.2402 96.1802 71.2703 95.7325 72.7768 93.7846C74.2833 91.8367 76.615 92.5692 76.4231 93.5351C76.2311 94.501 74.5295 95.2943 76.0744 95.6525C77.6193 96.0107 79.887 93.6694 81.4223 93.6438C82.9576 93.6183 82.6057 95.355 82.03 95.5629C81.4543 95.7708 81.4735 96.7272 82.6313 97.0918C83.7892 97.4564 89.1179 93.9125 89.1627 96.7944C89.2074 99.6762 85.7307 98.5791 86.3224 99.5323C86.9141 100.485 91.7278 100.789 91.9357 101.941C92.1436 103.092 89.0571 102.369 89.265 103.137C89.4729 103.905 91.5967 104.637 90.8643 105.993C90.1318 107.349 88.3374 104.113 87.3907 105.088C86.4439 106.064 87.2468 108.165 86.1113 108.568C84.9758 108.971 82.6153 106.329 81.8637 107.484C81.112 108.638 79.7911 110.017 78.4285 108.885C77.0659 107.752 75.8697 105.661 75.5147 107.01C75.1597 108.36 73.4229 108.389 72.0507 106.873C70.6786 105.357 68.9418 104.81 68.3852 105.971C67.8287 107.132 65.8872 106.012 65.4842 104.867C65.0812 103.722 64.6686 101.989 63.5267 102.59C62.3849 103.191 61.7899 102.235 61.5788 101.084C61.3677 99.9321 60.776 98.9821 59.8229 99.3819C58.8697 99.7818 58.246 97.1014 58.246 97.1014C58.246 97.1014 56.1094 95.5981 55.9079 95.0256C55.7064 94.4531 56.6596 94.066 57.827 94.226C58.9945 94.3859 61.8635 94.3539 62.436 94.1524C63.0086 93.9509 65.126 93.9157 65.1356 94.4914C65.1452 95.0672 66.4789 96.5833 67.2402 96.1802Z" fill="#FFCC88" stroke="#263238" stroke-width="0.371783" stroke-miterlimit="10"/>
<path d="M83.5077 103.371C84.0818 103.407 84.6576 103.407 85.2317 103.371" stroke="#263238" stroke-width="0.371783" stroke-miterlimit="10"/>
<path d="M64.4349 98.2463C65.2057 98.5822 65.9766 98.9276 66.7122 99.2635C70.093 100.815 76.6819 102.532 81.4253 103.159" stroke="#263238" stroke-width="0.371783" stroke-miterlimit="10"/>
<path d="M56.6497 95.0061C56.6497 95.0061 59.3748 96.084 62.5349 97.4274" stroke="#263238" stroke-width="0.371783" stroke-miterlimit="10"/>
<path d="M95.7002 17.1101C95.7002 17.1101 96.3015 12.8402 99.7974 11.7367C103.293 10.6332 106.994 13.0417 108.6 15.1814C110.205 17.3212 110.391 19.7873 109.444 21.2234C108.497 22.6595 105.772 25.3175 102.27 25.9732C98.7675 26.6289 96.9988 24.7545 96.2439 23.0785C95.3629 21.2159 95.1702 19.1013 95.7002 17.1101Z" fill="#FFCC88" stroke="#263238" stroke-width="0.371783" stroke-miterlimit="10"/>
<path d="M96.5447 17.3085C96.5447 17.3085 97.0756 13.5535 100.149 12.5844C103.223 11.6152 106.476 13.7326 107.887 15.6133C109.297 17.4941 109.463 19.6626 108.629 20.926C107.794 22.1894 105.401 24.5243 102.324 25.0841C99.2474 25.6438 97.6897 24.0158 97.0245 22.5413C96.2539 20.9078 96.084 19.0549 96.5447 17.3085Z" fill="white"/>
<path d="M102.033 15.2166C102.033 15.2166 101.809 14.3722 102.436 13.9372C103.063 13.5022 104.675 14.0267 106.313 15.3125C107.95 16.5983 108.194 18.8309 108.075 19.3938C107.957 19.9567 106.175 19.7648 106.175 19.7648L105.929 20.3597C105.929 20.3597 106.834 21.3193 106.757 21.7863C106.681 22.2532 104.375 23.7309 102.28 24.2331C100.185 24.7353 99.0075 23.4815 99.081 23.0561C99.1851 22.6484 99.321 22.2495 99.4872 21.863L99.3497 21.2713C99.3497 21.2713 97.9935 21.2937 97.6033 20.6636C97.2131 20.0335 97.5074 17.4459 98.2078 16.0801C98.9083 14.7144 100.508 14.3498 100.808 14.5129C101.109 14.676 101.416 15.3925 101.416 15.3925C101.631 15.3735 101.84 15.3138 102.033 15.2166Z" fill="#FFCC88"/>
<path d="M100.671 17.2605C100.671 17.2605 101.339 16.656 101.077 16.2786C100.815 15.9012 100.309 15.8244 100.597 15.319C100.885 14.8137 102.196 14.8265 102.414 15.076C102.631 15.3254 102.123 15.463 102.129 15.8436C102.136 16.2242 102.308 16.4353 103.089 16.7616C103.869 17.0878 104.557 18.4728 104.733 18.9781C104.909 19.4835 105.171 19.8193 105.635 19.5986C106.099 19.3779 106.518 19.2468 106.486 19.8417C106.454 20.4366 105.747 21.377 105.449 21.2139C105.152 21.0507 105.273 20.8332 105.104 20.8364C104.934 20.8396 103.079 21.5049 102.318 21.5593C101.557 21.6137 101.083 21.0284 100.789 21.2043C100.495 21.3802 100.636 22.3078 100.172 22.3557C99.708 22.4037 98.6365 21.6617 98.8412 21.1915C99.0459 20.7213 99.3945 21.3514 99.8903 20.6253C100.386 19.8993 99.9383 18.4216 100.14 17.8235C100.341 17.2253 100.671 17.2605 100.671 17.2605Z" fill="white"/>
<path d="M103.485 15.885C103.22 16.16 102.929 16.6846 103.07 16.8221C103.21 16.9597 103.728 16.6526 103.994 16.3775C104.259 16.1025 104.362 15.773 104.221 15.6355C104.08 15.4979 103.751 15.6099 103.485 15.885Z" fill="white"/>
<path d="M99.9191 16.6849C100.217 16.9248 100.767 17.1647 100.879 17.0047C100.991 16.8448 100.648 16.365 100.351 16.1283C100.053 15.8917 99.7112 15.8085 99.5929 15.9684C99.4745 16.1283 99.6216 16.445 99.9191 16.6849Z" fill="white"/>
<path d="M104.681 21.9752C104.579 21.6106 104.269 21.0956 104.08 21.15C103.891 21.2043 103.898 21.7897 104.003 22.1703C104.109 22.5509 104.342 22.7908 104.531 22.7364C104.72 22.6821 104.787 22.343 104.681 21.9752Z" fill="white"/>
<path d="M103.332 22.3047C103.277 21.9272 103.041 21.3739 102.849 21.4027C102.657 21.4315 102.577 22.0232 102.628 22.4006C102.679 22.778 102.881 23.0659 103.076 23.0403C103.271 23.0147 103.383 22.6981 103.332 22.3047Z" fill="white"/>
<path d="M101.496 22.4835C101.656 22.1381 101.755 21.5464 101.579 21.4632C101.403 21.3801 101.013 21.8406 100.853 22.1861C100.693 22.5315 100.706 22.8802 100.885 22.9633C101.064 23.0465 101.336 22.8322 101.496 22.4835Z" fill="white"/>
<path d="M99.2026 17.9004C99.5544 18.0539 100.162 18.1371 100.226 17.958C100.29 17.7789 99.8359 17.4014 99.4841 17.2511C99.1322 17.1008 98.7868 17.1232 98.71 17.3023C98.6333 17.4814 98.8539 17.7469 99.2026 17.9004Z" fill="white"/>
<path d="M99.2314 19.7873C99.6152 19.8065 100.191 19.6753 100.207 19.4674C100.223 19.2595 99.6472 19.0868 99.2474 19.0676C98.8476 19.0484 98.5501 19.1955 98.5437 19.3875C98.5373 19.5794 98.8508 19.7713 99.2314 19.7873Z" fill="white"/>
<path d="M104.518 16.8414C104.253 17.1165 103.962 17.641 104.103 17.7786C104.243 17.9161 104.742 17.6091 105.024 17.3372C105.305 17.0653 105.392 16.7295 105.254 16.5919C105.117 16.4544 104.784 16.5695 104.518 16.8414Z" fill="white"/>
<path d="M105.446 18.22C105.126 18.4343 104.736 18.8885 104.845 19.0516C104.953 19.2147 105.523 19.0196 105.839 18.8085C106.156 18.5974 106.326 18.2904 106.217 18.1273C106.108 17.9641 105.75 18.0121 105.446 18.22Z" fill="white"/>
<path d="M76.0743 41.5211C76.0743 41.5211 72.5272 39.6852 72.6327 36.2916C72.7383 32.898 75.9719 30.4 78.3356 29.6515C80.6993 28.9031 82.9127 29.4948 83.8754 30.7614C84.8382 32.028 86.3351 35.2233 85.8361 38.4857C85.3371 41.7482 83.159 42.7238 81.4606 42.8709C79.5621 43.0712 77.654 42.593 76.0743 41.5211Z" fill="#FFCC88" stroke="#263238" stroke-width="0.371783" stroke-miterlimit="10"/>
<path d="M76.5092 40.8398C76.5092 40.8398 73.3874 39.2406 73.4802 36.2436C73.5729 33.2466 76.4196 31.0652 78.4954 30.4063C80.5712 29.7474 82.5191 30.2656 83.3667 31.3819C84.2143 32.4981 85.5289 35.3064 85.0875 38.1755C84.6461 41.0445 82.7366 41.8985 81.2493 42.0137C79.5801 42.1968 77.9001 41.7807 76.5092 40.8398Z" fill="white"/>
<path d="M76.3588 35.4025C76.3588 35.4025 75.5527 35.3417 75.364 34.6605C75.1753 33.9792 76.1317 32.7222 77.7565 31.6923C79.3813 30.6623 81.4156 31.1293 81.8634 31.4012C82.3112 31.6731 81.6043 33.1764 81.6043 33.1764L82.0521 33.5698C82.0521 33.5698 83.1652 33.074 83.5522 33.2851C83.9392 33.4962 84.5117 35.9623 84.3134 37.9613C84.1151 39.9604 82.6534 40.5937 82.308 40.3954C81.9822 40.1804 81.6742 39.9398 81.3868 39.6757L80.8303 39.6149C80.8303 39.6149 80.4336 40.8048 79.7652 40.9551C79.0967 41.1054 76.9217 40.0531 75.927 39.036C74.9322 38.0189 75.1178 36.4772 75.3544 36.2821C75.5911 36.087 76.314 36.0198 76.314 36.0198C76.3676 35.8187 76.3827 35.6093 76.3588 35.4025Z" fill="#FFCC88"/>
<path d="M77.7375 37.2256C77.7375 37.2256 77.4176 36.4547 77.005 36.5667C76.5924 36.6786 76.3654 37.1008 76.0135 36.6914C75.6617 36.282 76.0743 35.1433 76.3589 35.0314C76.6436 34.9195 76.6052 35.4024 76.9411 35.5144C77.2769 35.6263 77.5136 35.5368 78.0318 34.9642C78.5499 34.3917 79.9796 34.2062 80.4754 34.2062C80.9712 34.2062 81.3454 34.0815 81.2942 33.6081C81.243 33.1347 81.2558 32.7285 81.7644 32.9396C82.273 33.1507 82.8839 34.0527 82.6472 34.2638C82.4105 34.4749 82.2634 34.3021 82.2122 34.4525C82.161 34.6028 82.177 36.4259 81.9947 37.1072C81.8124 37.7885 81.1503 38.0252 81.2143 38.3354C81.2782 38.6457 82.1322 38.8056 82.0331 39.2278C81.9339 39.65 80.9552 40.3601 80.6065 40.037C80.2579 39.714 80.9264 39.6021 80.4338 38.9464C79.9413 38.2907 78.5147 38.2267 78.0606 37.8685C77.6064 37.5102 77.7375 37.2256 77.7375 37.2256Z" fill="white"/>
<path d="M77.3855 34.3371C77.5454 34.6569 77.9165 35.0695 78.0796 34.9768C78.2427 34.884 78.1308 34.3371 77.974 34.0364C77.8173 33.7357 77.555 33.5278 77.3951 33.6078C77.2352 33.6878 77.2288 34.0204 77.3855 34.3371Z" fill="white"/>
<path d="M76.9793 37.702C77.28 37.5133 77.6574 37.1071 77.5614 36.9535C77.4655 36.8 76.9217 36.9535 76.6339 37.1454C76.346 37.3374 76.1669 37.6092 76.2629 37.7628C76.3588 37.9163 76.6946 37.8875 76.9793 37.702Z" fill="white"/>
<path d="M83.079 35.153C82.7272 35.1338 82.1803 35.2489 82.1707 35.428C82.1611 35.6071 82.6856 35.7895 83.0406 35.8087C83.3957 35.8278 83.6803 35.6999 83.6995 35.5208C83.7187 35.3417 83.4309 35.1722 83.079 35.153Z" fill="white"/>
<path d="M82.951 36.4514C82.6056 36.3811 82.049 36.4195 82.0138 36.5954C81.9787 36.7713 82.4744 37.024 82.8231 37.0943C83.1717 37.1647 83.4628 37.0752 83.5139 36.896C83.5651 36.7169 83.2996 36.5058 82.951 36.4514Z" fill="white"/>
<path d="M82.5479 38.099C82.2952 37.8527 81.8059 37.584 81.6811 37.7119C81.5564 37.8399 81.8378 38.3228 82.0905 38.5691C82.3432 38.8154 82.6535 38.9082 82.7782 38.7802C82.9029 38.6523 82.8006 38.3452 82.5479 38.099Z" fill="white"/>
<path d="M77.8366 38.6903C78.0765 38.4312 78.3323 37.9354 78.198 37.8139C78.0637 37.6924 77.5935 37.9866 77.3536 38.2457C77.1137 38.5048 77.0338 38.815 77.1617 38.9398C77.2896 39.0645 77.5967 38.9558 77.8366 38.6903Z" fill="white"/>
<path d="M79.5 39.2503C79.6311 38.9305 79.6951 38.3707 79.5255 38.2908C79.356 38.2108 79.0234 38.665 78.8858 38.9944C78.7483 39.3239 78.7835 39.6341 78.953 39.7109C79.1225 39.7877 79.3656 39.5798 79.5 39.2503Z" fill="white"/>
<path d="M78.5403 33.7294C78.697 34.0492 79.0681 34.4586 79.2312 34.3691C79.3943 34.2795 79.2856 33.7294 79.1256 33.4095C78.9657 33.0897 78.7098 32.9042 78.5467 32.9841C78.3836 33.0641 78.3804 33.4127 78.5403 33.7294Z" fill="white"/>
<path d="M80.0277 33.3523C80.1173 33.6945 80.3955 34.1743 80.5683 34.1295C80.741 34.0847 80.7506 33.5282 80.661 33.17C80.5715 32.8117 80.3572 32.5879 80.1844 32.6326C80.0117 32.6774 79.9382 33.0101 80.0277 33.3523Z" fill="white"/>
<path d="M92.9718 84.2914C97.868 84.2148 102.739 83.5708 107.487 82.3723C118.841 79.4937 126.003 74.3409 126.303 74.1234C127.766 73.063 128.748 71.465 129.033 69.6808C129.317 67.8966 128.881 66.0724 127.821 64.6095C126.761 63.1466 125.163 62.1649 123.378 61.8803C121.594 61.5956 119.77 62.0314 118.307 63.0918C118.166 63.191 112.515 67.1379 103.594 69.3001C91.8364 72.1499 80.0851 70.7106 68.6729 65.0205C67.0565 64.2146 65.1861 64.0839 63.4733 64.657C61.7605 65.2302 60.3455 66.4602 59.5396 68.0767C58.7337 69.6931 58.603 71.5634 59.1761 73.2763C59.7493 74.9891 60.9793 76.4041 62.5958 77.21C73.7489 82.7529 84.1664 84.429 92.9718 84.2914Z" fill="#FFCC88" stroke="#263238" stroke-width="0.371783" stroke-miterlimit="10"/>
<path d="M60.5391 72.6714C60.7892 73.4825 61.2018 74.2343 61.7516 74.881C62.3015 75.5276 62.9772 76.0556 63.7376 76.4328C68.4907 78.8241 73.5296 80.5987 78.7322 81.7135" stroke="#263238" stroke-width="0.371783" stroke-miterlimit="10"/>
<path d="M60.6992 68.5066C60.4654 69.0947 60.322 69.7147 60.2738 70.3457" stroke="#263238" stroke-width="0.371783" stroke-miterlimit="10"/>
<path d="M113.877 78.2204C114.417 77.9901 114.935 77.7598 115.432 77.5295" stroke="#263238" stroke-width="0.371783" stroke-miterlimit="10"/>
<path d="M81.1374 82.1705C89.1146 83.5175 97.2852 83.1842 105.126 81.1918C107.627 80.5538 110.085 79.7546 112.483 78.7993" stroke="#263238" stroke-width="0.371783" stroke-miterlimit="10"/>
<path opacity="0.2" d="M117.485 64.2784C117.485 64.2784 116.554 65.8488 117.677 68.8234C118.8 71.798 119.276 72.2682 118.451 72.2842C117.626 72.3002 116.138 69.9269 115.863 67.5376C115.588 65.1483 116.641 64.1792 117.485 64.2784Z" fill="black"/>
<path opacity="0.2" d="M111.066 67.1571C111.066 67.1571 110.135 68.7276 111.261 71.7022C112.387 74.6768 112.86 75.1502 112.035 75.163C111.21 75.1757 109.722 72.8057 109.444 70.4164C109.166 68.0271 110.228 67.0356 111.066 67.1571Z" fill="black"/>
<path opacity="0.2" d="M104.167 69.6488C104.167 69.6488 103.236 71.2192 104.362 74.1938C105.488 77.1684 105.961 77.6386 105.136 77.6514C104.311 77.6642 102.823 75.2941 102.545 72.9048C102.267 70.5156 103.325 69.54 104.167 69.6488Z" fill="black"/>
<path opacity="0.2" d="M97.3538 70.8897C97.3538 70.8897 96.2407 72.3386 97.0084 75.4252C97.776 78.5117 98.2046 79.0363 97.3698 78.9435C96.535 78.8507 95.3516 76.3303 95.358 73.9251C95.3643 71.5198 96.5318 70.6754 97.3538 70.8897Z" fill="black"/>
<path opacity="0.2" d="M90.6787 71.3342C90.6787 71.3342 89.4345 72.6744 89.9015 75.8121C90.3685 78.9498 90.7459 79.5224 89.9239 79.356C89.1019 79.1897 88.1647 76.5638 88.4014 74.1681C88.6381 71.7724 89.8791 71.0527 90.6787 71.3342Z" fill="black"/>
<path opacity="0.2" d="M82.7783 70.9312C82.7783 70.9312 81.3422 72.0603 81.3166 75.2428C81.291 78.4253 81.5757 79.0362 80.7889 78.7611C80.002 78.486 79.4839 75.7257 80.0884 73.3972C80.6929 71.0687 82.0331 70.5314 82.7783 70.9312Z" fill="black"/>
<path opacity="0.2" d="M74.6252 68.7884C74.6252 68.7884 73.0516 69.7128 72.6038 72.8633C72.156 76.0138 72.3511 76.6599 71.6123 76.2665C70.8734 75.8731 70.7231 73.0872 71.6314 70.8579C72.5398 68.6285 73.9408 68.2895 74.6252 68.7884Z" fill="black"/>
<path d="M113.266 24.9817C116.724 24.9241 119.568 27.4093 119.619 30.5279C119.67 33.6464 116.906 36.2212 113.449 36.2852C109.991 36.3491 107.151 33.8575 107.1 30.739C107.049 27.6205 109.812 25.0361 113.266 24.9817ZM113.884 35.8118C116.804 35.7638 119.139 33.6688 119.097 31.126C119.056 28.5832 116.657 26.5649 113.737 26.6129C110.816 26.6609 108.485 28.7591 108.523 31.2987C108.561 33.8383 110.967 35.8566 113.884 35.8118Z" fill="white" stroke="#263238" stroke-width="0.371783" stroke-linecap="round" stroke-linejoin="round"/>
<path d="M110.356 25.7622L110.679 26.226" stroke="#263238" stroke-width="0.371783" stroke-linecap="round" stroke-linejoin="round"/>
<path d="M108.776 26.9585L109.054 27.2304" stroke="#263238" stroke-width="0.371783" stroke-linecap="round" stroke-linejoin="round"/>
<path d="M107.477 28.7786L107.951 29.0824" stroke="#263238" stroke-width="0.371783" stroke-linecap="round" stroke-linejoin="round"/>
<path d="M112.924 25.0969L112.972 25.5639" stroke="#263238" stroke-width="0.371783" stroke-linecap="round" stroke-linejoin="round"/>
<path d="M115.704 25.4807L115.71 25.7526" stroke="#263238" stroke-width="0.371783" stroke-linecap="round" stroke-linejoin="round"/>
<path d="M107.212 31.7914L107.759 31.7434" stroke="#263238" stroke-width="0.371783" stroke-linecap="round" stroke-linejoin="round"/>
<path d="M111.687 35.5464L111.459 36.0198" stroke="#263238" stroke-width="0.371783" stroke-linecap="round" stroke-linejoin="round"/>
<path d="M109.006 34.1038L108.661 34.3436" stroke="#263238" stroke-width="0.371783" stroke-linecap="round" stroke-linejoin="round"/>
<path d="M96.9862 62.7879C92.6906 61.9627 89.8152 58.1501 90.5636 54.2767C91.3121 50.4033 95.3934 47.9341 99.6889 48.7593C103.985 49.5845 106.854 53.4035 106.108 57.2705C105.363 61.1375 101.288 63.6131 96.9862 62.7879ZM99.0268 49.2263C95.3997 48.529 91.9678 50.5057 91.3505 53.6754C90.7331 56.8451 93.1896 59.9508 96.8135 60.6481C100.437 61.3454 103.869 59.3687 104.49 56.2022C105.11 53.0357 102.651 49.9236 99.0268 49.2263Z" fill="white" stroke="#263238" stroke-width="0.371783" stroke-linecap="round" stroke-linejoin="round"/>
<path d="M100.789 62.5737L100.514 61.918" stroke="#263238" stroke-width="0.371783" stroke-linecap="round" stroke-linejoin="round"/>
<path d="M103.057 61.5022L102.782 61.0959" stroke="#263238" stroke-width="0.371783" stroke-linecap="round" stroke-linejoin="round"/>
<path d="M105.136 59.5864L104.627 59.0874" stroke="#263238" stroke-width="0.371783" stroke-linecap="round" stroke-linejoin="round"/>
<path d="M97.4373 62.7336L97.5012 62.1418" stroke="#263238" stroke-width="0.371783" stroke-linecap="round" stroke-linejoin="round"/>
<path d="M94.0979 61.5375L94.1619 61.1985" stroke="#263238" stroke-width="0.371783" stroke-linecap="round" stroke-linejoin="round"/>
<path d="M106.243 55.9271L105.555 55.8472" stroke="#263238" stroke-width="0.371783" stroke-linecap="round" stroke-linejoin="round"/>
<path d="M101.679 50.1185L102.082 49.594" stroke="#263238" stroke-width="0.371783" stroke-linecap="round" stroke-linejoin="round"/>
<path d="M104.621 52.5978L105.114 52.3899" stroke="#263238" stroke-width="0.371783" stroke-linecap="round" stroke-linejoin="round"/>
<path d="M91.5007 58.8251L91.7246 58.7163" stroke="#263238" stroke-width="0.371783" stroke-linecap="round" stroke-linejoin="round"/>
<path d="M63.9906 85.9578C59.695 85.1326 56.8195 81.3232 57.568 77.4498C58.3164 73.5764 62.3977 71.1072 66.6901 71.9324C70.9825 72.7576 73.8579 76.567 73.1127 80.4404C72.3674 84.3138 68.2829 86.7862 63.9906 85.9578ZM66.028 72.3962C62.4041 71.6989 58.9721 73.6916 58.3516 76.8453C57.7311 79.999 60.1939 83.1239 63.8178 83.8212C67.4417 84.5185 70.8737 82.5258 71.4942 79.3721C72.1147 76.2184 69.6551 73.0967 66.028 72.3962Z" fill="white" stroke="#263238" stroke-width="0.371783" stroke-linecap="round" stroke-linejoin="round"/>
<path d="M67.7937 85.7436L67.5186 85.0879" stroke="#263238" stroke-width="0.371783" stroke-linecap="round" stroke-linejoin="round"/>
<path d="M70.0613 84.6721L69.7862 84.269" stroke="#263238" stroke-width="0.371783" stroke-linecap="round" stroke-linejoin="round"/>
<path d="M72.1404 82.7592L71.6318 82.2603" stroke="#263238" stroke-width="0.371783" stroke-linecap="round" stroke-linejoin="round"/>
<path d="M64.4416 85.9035L64.5056 85.3149" stroke="#263238" stroke-width="0.371783" stroke-linecap="round" stroke-linejoin="round"/>
<path d="M61.1023 84.7074L61.1663 84.3684" stroke="#263238" stroke-width="0.371783" stroke-linecap="round" stroke-linejoin="round"/>
<path d="M73.2471 79.1003L72.5594 79.0171" stroke="#263238" stroke-width="0.371783" stroke-linecap="round" stroke-linejoin="round"/>
<path d="M68.6827 73.2919L69.0857 72.7673" stroke="#263238" stroke-width="0.371783" stroke-linecap="round" stroke-linejoin="round"/>
<path d="M71.6254 75.7706L72.1179 75.5627" stroke="#263238" stroke-width="0.371783" stroke-linecap="round" stroke-linejoin="round"/>
<path d="M58.5051 81.995L58.729 81.8894" stroke="#263238" stroke-width="0.371783" stroke-linecap="round" stroke-linejoin="round"/>
<path d="M57.6574 52.2681C57.6574 52.8022 58.4283 53.2596 58.5178 53.7714C58.6074 54.2831 58.0476 54.9836 58.2172 55.4761C58.3867 55.9687 59.2535 56.1734 59.4966 56.6372C59.7396 57.101 59.423 57.9166 59.7397 58.3484C60.0563 58.7802 60.9423 58.6906 61.3197 59.0585C61.6971 59.4263 61.6396 60.3091 62.0777 60.6129C62.5159 60.9168 63.322 60.5682 63.7985 60.8016C64.2751 61.0351 64.4926 61.8891 64.998 62.0459C65.5033 62.2026 66.1654 61.6141 66.6932 61.6876C67.2209 61.7612 67.6879 62.5064 68.2221 62.5C68.7562 62.4936 69.2136 61.7292 69.7221 61.6396C70.2307 61.5501 70.9344 62.1098 71.4269 61.9403C71.9195 61.7708 72.1274 60.904 72.588 60.6609C73.0486 60.4178 73.8834 60.7345 74.3024 60.4178C74.7214 60.1012 74.6446 59.2152 75.0093 58.8378C75.3739 58.4603 76.2631 58.5179 76.5637 58.0797C76.8644 57.6415 76.5189 56.8355 76.7524 56.3621C76.9859 55.8888 77.8399 55.6649 77.9966 55.1595C78.1534 54.6541 77.5681 53.992 77.6416 53.4643C77.7152 52.9365 78.4604 52.4696 78.4508 51.9354C78.4412 51.4013 77.68 50.9439 77.5936 50.4353C77.5073 49.9268 78.0606 49.2231 77.8943 48.7305C77.728 48.238 76.8548 48.0301 76.6149 47.5695C76.375 47.1089 76.6853 46.2741 76.3718 45.8551C76.0584 45.4361 75.1692 45.5128 74.7918 45.1482C74.4143 44.7836 74.4719 43.8944 74.0337 43.5937C73.5955 43.2931 72.7863 43.6385 72.3129 43.405C71.8395 43.1715 71.6157 42.3176 71.1103 42.1608C70.6049 42.0041 69.9428 42.5894 69.4183 42.5159C68.8937 42.4423 68.4236 41.697 67.8894 41.7066C67.3553 41.7162 66.8979 42.4775 66.3861 42.567C65.8744 42.6566 65.1739 42.0969 64.6813 42.2472C64.1887 42.3975 63.9841 43.2867 63.5203 43.5266C63.0565 43.7665 62.2409 43.453 61.8091 43.7697C61.3773 44.0863 61.4668 44.9691 61.099 45.3465C60.7312 45.7239 59.8484 45.6664 59.5445 46.1046C59.2407 46.5428 59.5893 47.352 59.359 47.8254C59.1287 48.2987 58.2683 48.5226 58.1116 49.028C57.9549 49.5334 58.5434 50.1954 58.4698 50.72C58.3963 51.2445 57.651 51.7339 57.6574 52.2681Z" fill="#FFCC88" stroke="#263238" stroke-width="0.371783" stroke-miterlimit="10"/>
<path d="M57.7087 51.6762C57.7087 52.2104 58.4796 52.6678 58.5691 53.1763C58.6587 53.6849 58.099 54.3886 58.2653 54.8811C58.4316 55.3737 59.3048 55.5816 59.5447 56.0422C59.7846 56.5028 59.4743 57.3376 59.791 57.7566C60.1076 58.1756 60.9904 58.0988 61.3678 58.4634C61.7452 58.8281 61.6877 59.7172 62.1259 60.0179C62.5641 60.3186 63.3733 59.9731 63.8467 60.2066C64.32 60.4401 64.5439 61.2973 65.0493 61.4508C65.5547 61.6044 66.2167 61.0222 66.7413 61.0958C67.2658 61.1694 67.736 61.9146 68.2702 61.905C68.8043 61.8954 69.2617 61.1342 69.7735 61.0478C70.2852 60.9615 70.9857 61.5148 71.4783 61.3485C71.9708 61.1822 72.1755 60.309 72.6393 60.0691C73.1031 59.8292 73.9187 60.1395 74.3505 59.826C74.7823 59.5125 74.6927 58.6234 75.0606 58.2459C75.4284 57.8685 76.3112 57.9261 76.615 57.4879C76.9189 57.0497 76.5703 56.2405 76.8038 55.7671C77.0372 55.2937 77.8912 55.073 78.048 54.5645C78.2047 54.0559 77.6162 53.4002 77.6897 52.8725C77.7633 52.3447 78.5086 51.8777 78.5022 51.3436C78.4958 50.8094 77.7313 50.3521 77.6418 49.8403C77.5522 49.3285 78.1119 48.6281 77.9424 48.1355C77.7729 47.6429 76.9061 47.4382 76.663 46.9744C76.4199 46.5107 76.7366 45.6951 76.4199 45.2633C76.1033 44.8315 75.2173 44.921 74.8399 44.5532C74.4625 44.1854 74.52 43.3026 74.0818 42.9987C73.6436 42.6949 72.8376 43.0435 72.3642 42.8132C71.8909 42.5829 71.667 41.7225 71.1616 41.569C70.6562 41.4155 69.9942 41.9976 69.4664 41.924C68.9387 41.8505 68.4717 41.1052 67.9375 41.1116C67.4034 41.118 66.946 41.8824 66.4374 41.972C65.9289 42.0616 65.2252 41.5018 64.7326 41.6713C64.2401 41.8409 64.0322 42.7077 63.5716 42.9507C63.111 43.1938 62.2762 42.8804 61.8572 43.1938C61.4382 43.5073 61.515 44.3965 61.1503 44.7739C60.7857 45.1513 59.8965 45.0937 59.5959 45.5319C59.2952 45.9701 59.6406 46.7761 59.4071 47.2527C59.1737 47.7293 58.3197 47.9468 58.1629 48.4522C58.0062 48.9575 58.5915 49.6196 58.518 50.1474C58.4444 50.6751 57.6992 51.1421 57.7087 51.6762Z" fill="#FFCC88" stroke="#263238" stroke-width="0.371783" stroke-miterlimit="10"/>
<path d="M58.8602 51.6572C58.8602 52.1338 59.5447 52.54 59.6247 52.9942C59.7046 53.4484 59.2057 54.0721 59.356 54.5071C59.5063 54.9421 60.2772 55.1468 60.4979 55.5402C60.7186 55.9336 60.4339 56.6916 60.7122 57.0659C60.9904 57.4401 61.7805 57.3857 62.1163 57.7056C62.4522 58.0254 62.4074 58.8218 62.7912 59.0905C63.175 59.3592 63.9011 59.0489 64.3201 59.2568C64.7391 59.4647 64.9406 60.2164 65.3916 60.3635C65.8426 60.5106 66.4279 59.9797 66.8949 60.0437C67.3618 60.1076 67.7808 60.7729 68.2542 60.7633C68.7276 60.7537 69.137 60.0788 69.5912 59.9989C70.0454 59.9189 70.6691 60.4179 71.1073 60.2675C71.5455 60.1172 71.7278 59.3464 72.1404 59.1257C72.553 58.905 73.2919 59.1929 73.6629 58.9114C74.0339 58.6299 73.9667 57.8431 74.3026 57.5072C74.6384 57.1714 75.4157 57.2162 75.6843 56.8324C75.953 56.4485 75.6459 55.7257 75.8506 55.3035C76.0553 54.8813 76.8102 54.683 76.9573 54.2352C77.1045 53.7874 76.5767 53.1957 76.6375 52.7287C76.6982 52.2617 77.3635 51.8427 77.3571 51.3693C77.3507 50.896 76.6727 50.4866 76.5927 50.0324C76.5127 49.5782 77.0085 48.9545 76.8614 48.5163C76.7142 48.0781 75.937 47.8958 75.7195 47.4832C75.502 47.0706 75.7835 46.3317 75.502 45.9607C75.2205 45.5897 74.4337 45.6568 74.0979 45.321C73.762 44.9851 73.8068 44.2079 73.423 43.9392C73.0392 43.6706 72.3163 43.9776 71.8941 43.7729C71.4719 43.5682 71.2768 42.8134 70.8258 42.6662C70.3748 42.5191 69.7895 43.0469 69.3193 42.9861C68.8491 42.9253 68.4365 42.2568 67.96 42.2632C67.4834 42.2696 67.0772 42.9509 66.6262 43.0277C66.1752 43.1044 65.5483 42.6119 65.1101 42.7622C64.6719 42.9125 64.4864 43.6834 64.077 43.9009C63.6676 44.1184 62.9255 43.8369 62.5545 44.1184C62.1835 44.3998 62.2347 45.1867 61.9148 45.5225C61.595 45.8583 60.8017 45.8136 60.5299 46.1974C60.258 46.5812 60.5714 47.3041 60.3635 47.7263C60.1556 48.1485 59.404 48.3436 59.2569 48.7946C59.1097 49.2455 59.6407 49.8309 59.5767 50.301C59.5127 50.7712 58.8506 51.1806 58.8602 51.6572Z" fill="white"/>
<path d="M67.2817 49.4502C67.2817 49.4502 66.7699 47.2433 66.9938 46.3989C67.2177 45.5545 69.4791 45.3658 70.3842 46.4564C71.2894 47.5471 69.3735 49.8756 68.833 50.429C68.2924 50.9823 67.9214 50.9215 67.2817 49.4502Z" fill="#FFCC88"/>
<path d="M66.4502 52.8982C66.4502 52.8982 64.6303 54.2543 63.7699 54.3887C62.9095 54.523 61.8252 52.5239 62.4649 51.2573C63.1046 49.9907 66.0024 50.8127 66.7253 51.0878C67.4481 51.3629 67.5409 51.7243 66.4502 52.8982Z" fill="#FFCC88"/>
<path d="M69.9429 51.5005C69.9429 51.5005 72.1818 51.8395 72.8855 52.3577C73.5892 52.8758 72.9303 55.0508 71.5805 55.489C70.2308 55.9272 68.7754 53.2884 68.4588 52.5816C68.1421 51.8747 68.3437 51.5549 69.9429 51.5005Z" fill="#FFCC88"/>
<path d="M107.909 50.9663C107.724 50.7808 107.535 50.592 107.538 50.4449C107.462 50.2227 107.47 49.9803 107.56 49.7636C107.672 49.5493 108.325 49.7636 108.373 49.5653C108.387 49.3469 108.328 49.1299 108.206 48.948C108.104 48.7433 107.928 48.1228 107.999 47.9885C108.069 47.8541 108.063 47.8126 108.318 47.739C108.574 47.6654 109.185 47.9565 109.316 47.7998C109.43 47.6224 109.47 47.408 109.428 47.2016C109.428 46.9873 109.406 46.789 109.534 46.6931C109.757 46.5947 110.001 46.553 110.244 46.5715C110.523 46.5832 110.802 46.5375 111.063 46.4372C111.246 46.3198 111.381 46.1405 111.443 45.9318C111.527 45.7495 111.61 45.5608 111.779 45.5C112.038 45.4642 112.301 45.4816 112.553 45.5512C112.845 45.6226 113.147 45.6421 113.446 45.6088C113.682 45.5506 113.896 45.4237 114.06 45.2442C114.202 45.0851 114.389 44.9734 114.597 44.9243C114.768 44.9283 114.936 44.9653 115.093 45.0331L115.355 45.1354C115.451 45.1738 115.547 45.2154 115.643 45.2506C115.833 45.3273 116.034 45.3738 116.238 45.3881C116.51 45.3832 116.777 45.3188 117.022 45.1994C117.234 45.0907 117.47 45.0368 117.709 45.0427C117.756 45.0502 117.802 45.062 117.847 45.0778C118.035 45.1633 118.212 45.2707 118.374 45.3977C118.571 45.5509 118.786 45.6787 119.014 45.7783L119.149 45.8199C119.437 45.8711 119.733 45.8711 120.022 45.8199C120.277 45.7664 120.541 45.7664 120.796 45.8199C121.01 45.9291 121.192 46.0909 121.327 46.2901C121.484 46.508 121.686 46.69 121.918 46.8242C121.96 46.8456 122.002 46.8638 122.046 46.8786C122.297 46.9594 122.557 47.0088 122.82 47.0257C123.037 47.0415 123.252 47.0801 123.46 47.1409C123.504 47.1559 123.546 47.1763 123.585 47.2016C123.747 47.3384 123.86 47.5251 123.905 47.7326C123.964 47.9659 124.088 48.1776 124.263 48.3435C124.422 48.4624 124.599 48.5542 124.787 48.6154L125.079 48.7145L125.35 48.8105C125.507 48.8558 125.652 48.9343 125.776 49.0408C125.827 49.12 125.861 49.209 125.876 49.302C125.891 49.395 125.886 49.4901 125.862 49.5813C125.819 49.7933 125.851 50.0136 125.952 50.205C126.083 50.4033 126.966 50.4769 127.231 50.6304C127.497 50.784 127.206 51.1454 127.266 51.2925C127.327 51.4396 127.132 51.4844 127.023 51.6571C126.891 51.8192 126.823 52.024 126.831 52.2329C126.876 52.4344 127.372 52.5911 127.561 52.783C127.749 52.9749 127.641 53.2052 127.637 53.3523C127.634 53.4995 127.452 53.6178 127.257 53.7522C127.062 53.8865 126.851 54.0368 126.799 54.2287C126.748 54.4206 127.094 54.4174 127.199 54.6317C127.259 54.8895 127.226 55.1602 127.106 55.3962C127.036 55.5273 126.787 55.6073 126.524 55.6808C126.28 55.729 126.052 55.8392 125.862 56.0007C125.75 56.1796 125.71 56.3946 125.75 56.602C125.75 56.8131 125.773 57.0114 125.651 57.1074C125.427 57.2063 125.182 57.2491 124.938 57.2321C124.659 57.2195 124.38 57.2641 124.119 57.3633C123.937 57.4841 123.801 57.6635 123.735 57.8718C123.655 58.0509 123.569 58.2396 123.399 58.2972C123.141 58.3371 122.877 58.3218 122.625 58.2524C122.334 58.1782 122.032 58.1576 121.733 58.1917C121.499 58.2542 121.287 58.3792 121.119 58.5531C120.98 58.7167 120.791 58.8293 120.581 58.8729C120.412 58.8717 120.244 58.8358 120.089 58.7674L119.827 58.665L119.552 58.5563C119.357 58.4785 119.152 58.431 118.944 58.4156C118.672 58.4205 118.405 58.4838 118.16 58.6011C117.948 58.711 117.712 58.766 117.473 58.761C117.427 58.7538 117.382 58.742 117.338 58.7258C117.149 58.6415 116.97 58.534 116.807 58.406C116.604 58.2547 116.384 58.128 116.152 58.0285L116.02 57.987C115.733 57.9357 115.438 57.9357 115.15 57.987C114.894 58.042 114.629 58.042 114.373 57.987C114.16 57.8761 113.978 57.7146 113.842 57.5168C113.685 57.2973 113.482 57.115 113.247 56.9826L113.123 56.9219C112.869 56.8427 112.607 56.7923 112.342 56.7715C112.125 56.758 111.911 56.7205 111.702 56.6596C111.66 56.6449 111.619 56.6256 111.581 56.602C111.42 56.4638 111.308 56.2777 111.261 56.0711C111.2 55.8386 111.076 55.6273 110.903 55.4601C110.741 55.3373 110.559 55.2432 110.365 55.1819L110.084 55.0827L109.812 54.9932C109.656 54.9448 109.511 54.8654 109.387 54.7597C109.337 54.6798 109.304 54.5908 109.29 54.4979C109.276 54.405 109.28 54.3102 109.304 54.2191C109.347 54.0068 109.314 53.786 109.211 53.5954C109.029 53.3826 108.806 53.2086 108.555 53.0837C108.309 52.9397 108.053 52.7894 107.992 52.6423C107.922 52.4135 107.937 52.167 108.034 51.9482C108.149 51.7627 108.379 51.7723 108.354 51.5676C108.261 51.3313 108.108 51.1237 107.909 50.9663Z" fill="#FFCC88" stroke="#263238" stroke-width="0.371783" stroke-miterlimit="10"/>
<path d="M107.96 50.3682C107.771 50.1827 107.583 49.9908 107.589 49.8468C107.596 49.7029 107.775 49.5781 107.967 49.4438C108.158 49.3095 108.376 49.1591 108.424 48.9672C108.438 48.7487 108.38 48.5316 108.258 48.3499C108.152 48.1452 108.047 47.9309 108.117 47.7998C108.187 47.6686 108.437 47.5919 108.699 47.5151C108.944 47.4676 109.172 47.3574 109.361 47.1953C109.475 47.0179 109.515 46.8035 109.473 46.5972C109.473 46.3829 109.451 46.1845 109.575 46.0886C109.8 45.99 110.045 45.9482 110.289 45.967C110.567 45.979 110.845 45.9333 111.104 45.8327C111.288 45.7155 111.425 45.5362 111.488 45.3273C111.571 45.145 111.651 44.9563 111.824 44.8955C112.082 44.8602 112.344 44.8776 112.595 44.9467C112.888 45.0185 113.191 45.038 113.49 45.0043C113.726 44.9435 113.939 44.817 114.104 44.6397C114.247 44.4806 114.434 44.369 114.642 44.3198C114.812 44.3236 114.979 44.3606 115.134 44.4286L115.4 44.5309C115.496 44.5693 115.592 44.6109 115.688 44.6461C115.877 44.7234 116.078 44.7698 116.283 44.7836C116.554 44.7792 116.82 44.7147 117.063 44.5949C117.276 44.4864 117.512 44.4326 117.751 44.4382C117.798 44.445 117.844 44.4568 117.888 44.4734C118.077 44.5573 118.254 44.6648 118.416 44.7932C118.613 44.9462 118.828 45.0741 119.056 45.1738L119.187 45.2154C119.476 45.2666 119.771 45.2666 120.06 45.2154C120.315 45.1603 120.579 45.1603 120.834 45.2154C121.048 45.3253 121.232 45.4869 121.368 45.6856C121.525 45.9042 121.727 46.0864 121.96 46.2197C122.001 46.2417 122.044 46.2599 122.088 46.2741C122.339 46.3537 122.599 46.4031 122.862 46.4212C123.079 46.4373 123.293 46.4759 123.502 46.5364C123.546 46.5501 123.588 46.5706 123.626 46.5972C123.789 46.7339 123.901 46.9206 123.946 47.1281C124.005 47.361 124.129 47.572 124.304 47.7358C124.461 47.8569 124.637 47.95 124.826 48.0109L125.12 48.11L125.389 48.206C125.546 48.2514 125.692 48.3299 125.817 48.4363C125.867 48.5159 125.901 48.6048 125.916 48.6977C125.931 48.7906 125.927 48.8856 125.904 48.9768C125.858 49.1887 125.89 49.4101 125.993 49.6005C126.17 49.8116 126.387 49.9847 126.633 50.1091C126.879 50.2594 127.132 50.4098 127.196 50.5569C127.26 50.704 127.151 50.8767 127.039 51.0526C126.907 51.2143 126.839 51.4197 126.85 51.6284C126.942 51.8616 127.092 52.0675 127.285 52.2265C127.468 52.4088 127.656 52.6007 127.656 52.7447C127.656 52.8886 127.471 53.0133 127.273 53.1477C127.074 53.282 126.87 53.4323 126.818 53.6242C126.802 53.843 126.86 54.0608 126.985 54.2415C127.087 54.4494 127.193 54.6606 127.126 54.7917C127.058 54.9228 126.806 55.0028 126.543 55.0764C126.299 55.1238 126.071 55.2341 125.881 55.3962C125.769 55.5753 125.728 55.7897 125.766 55.9975C125.782 56.2086 125.792 56.4069 125.667 56.5029C125.444 56.6002 125.2 56.643 124.957 56.6276C124.678 56.6147 124.399 56.6594 124.138 56.7588C123.955 56.8783 123.819 57.0565 123.751 57.2641C123.674 57.4464 123.588 57.6352 123.431 57.6927C123.173 57.7327 122.909 57.7174 122.657 57.6479C122.366 57.5744 122.064 57.5527 121.765 57.584C121.531 57.6482 121.319 57.7741 121.151 57.9486C121.012 58.1122 120.823 58.2248 120.613 58.2685C120.444 58.2672 120.276 58.2313 120.121 58.1629L119.859 58.0605L119.583 57.9518C119.388 57.8736 119.182 57.8261 118.973 57.8111C118.702 57.8161 118.436 57.8793 118.192 57.9966C117.979 58.1048 117.743 58.1597 117.504 58.1565C117.458 58.1489 117.412 58.1372 117.367 58.1213C117.178 58.0363 117 57.9289 116.836 57.8015C116.638 57.6511 116.424 57.5244 116.196 57.4241L116.062 57.3825C115.774 57.3312 115.48 57.3312 115.192 57.3825C114.936 57.4375 114.671 57.4375 114.415 57.3825C114.202 57.2723 114.021 57.1106 113.887 56.9123C113.729 56.6936 113.526 56.5114 113.292 56.3781C113.252 56.3575 113.21 56.3394 113.167 56.3238C112.915 56.2446 112.654 56.1942 112.39 56.1734C112.173 56.1599 111.959 56.1224 111.75 56.0615C111.706 56.0471 111.664 56.0267 111.626 56.0007C111.465 55.8636 111.353 55.6786 111.306 55.473C111.243 55.2402 111.118 55.029 110.944 54.8621C110.782 54.7392 110.601 54.6451 110.407 54.5838C110.317 54.5486 110.222 54.5166 110.129 54.4846L109.857 54.3919C109.7 54.3458 109.556 54.2674 109.431 54.1616C109.382 54.0817 109.349 53.9927 109.335 53.8998C109.32 53.8069 109.325 53.7121 109.348 53.621C109.389 53.4086 109.356 53.1889 109.256 52.9973C109.072 52.7845 108.848 52.6105 108.597 52.4856C108.376 52.3869 108.182 52.2353 108.034 52.0442C107.973 51.8971 108.085 51.7243 108.19 51.5452C108.326 51.3851 108.395 51.1789 108.382 50.9695C108.296 50.7357 108.151 50.5284 107.96 50.3682Z" fill="#FFCC88" stroke="#263238" stroke-width="0.371783" stroke-miterlimit="10"/>
<path d="M109.144 50.4832C108.981 50.3201 108.824 50.1634 108.824 50.0258C108.824 49.8883 108.987 49.7891 109.144 49.6708C109.3 49.5524 109.502 49.4245 109.543 49.255C109.556 49.0625 109.504 48.8714 109.396 48.7112C109.307 48.5321 109.211 48.3434 109.275 48.2283C109.339 48.1131 109.563 48.046 109.783 47.982C109.998 47.9395 110.198 47.8438 110.366 47.7037C110.465 47.5483 110.501 47.3602 110.465 47.1792C110.465 46.9936 110.442 46.8177 110.554 46.7346C110.75 46.6466 110.964 46.6092 111.178 46.6258C111.422 46.637 111.666 46.5978 111.894 46.5107C112.055 46.406 112.175 46.249 112.233 46.0661C112.304 45.9062 112.377 45.7462 112.528 45.6887C112.753 45.6543 112.983 45.6684 113.203 45.7302C113.46 45.7937 113.726 45.811 113.989 45.7814C114.196 45.7294 114.383 45.6182 114.527 45.4616C114.653 45.3252 114.818 45.2304 115 45.1897C115.149 45.1936 115.296 45.2261 115.432 45.2856L115.665 45.3752C115.749 45.4104 115.832 45.4456 115.918 45.4744C116.084 45.5434 116.26 45.5845 116.439 45.5959C116.677 45.59 116.91 45.5344 117.124 45.4328C117.311 45.337 117.518 45.2886 117.728 45.292C117.77 45.2987 117.811 45.3094 117.85 45.324C118.015 45.3976 118.17 45.4899 118.314 45.5991C118.489 45.7315 118.682 45.8392 118.886 45.919C118.924 45.9346 118.962 45.9474 119.001 45.9573C119.255 46.0021 119.515 46.0021 119.769 45.9573C119.993 45.9118 120.223 45.9118 120.447 45.9573C120.637 46.0537 120.799 46.1968 120.917 46.3731C121.054 46.5646 121.231 46.724 121.435 46.8401C121.471 46.8599 121.509 46.876 121.547 46.8881C121.768 46.9578 121.995 47.0007 122.226 47.016C122.414 47.0303 122.601 47.0646 122.782 47.1184C122.82 47.1309 122.857 47.1481 122.891 47.1696C123.034 47.2898 123.134 47.4539 123.175 47.6365C123.231 47.8408 123.341 48.0257 123.495 48.1707C123.633 48.2757 123.788 48.3568 123.953 48.4106L124.212 48.5001L124.448 48.5801C124.586 48.6209 124.714 48.6907 124.823 48.7848C124.867 48.8543 124.897 48.9321 124.91 49.0136C124.923 49.095 124.92 49.1782 124.899 49.2582C124.86 49.4442 124.888 49.6382 124.979 49.8051C125.137 49.9935 125.334 50.1462 125.555 50.2529C125.769 50.384 125.993 50.5152 126.048 50.6431C126.102 50.7711 126.006 50.9278 125.91 51.0813C125.794 51.2231 125.734 51.4034 125.744 51.5867C125.825 51.7895 125.956 51.9688 126.124 52.108C126.284 52.2712 126.444 52.4279 126.444 52.5654C126.444 52.703 126.281 52.8021 126.124 52.9205C125.968 53.0388 125.769 53.1667 125.725 53.3363C125.712 53.5288 125.764 53.72 125.872 53.88C125.961 54.0591 126.054 54.2478 125.993 54.363C125.933 54.4781 125.705 54.5453 125.485 54.6125C125.271 54.6521 125.07 54.7457 124.903 54.8843C124.805 55.0417 124.77 55.23 124.804 55.4121C124.804 55.5976 124.823 55.7735 124.717 55.8567C124.516 55.9459 124.296 55.9833 124.077 55.9654C123.833 55.9555 123.589 55.9958 123.361 56.0838C123.199 56.187 123.079 56.3446 123.022 56.5284C122.952 56.6851 122.878 56.8482 122.728 56.9026C122.501 56.9374 122.27 56.9233 122.05 56.861C121.793 56.7982 121.528 56.7798 121.266 56.8066C121.061 56.8616 120.875 56.9723 120.729 57.1265C120.604 57.265 120.438 57.3602 120.255 57.3983C120.106 57.3974 119.959 57.3658 119.823 57.3056C119.747 57.28 119.67 57.248 119.593 57.216L119.353 57.1201C119.181 57.0521 119 57.01 118.816 56.9953C118.578 57.0004 118.345 57.0571 118.131 57.1617C117.944 57.2564 117.737 57.3036 117.527 57.2992C117.486 57.2926 117.447 57.2819 117.409 57.2672C117.242 57.1945 117.085 57.101 116.942 56.9889C116.764 56.8601 116.572 56.7528 116.369 56.6691L116.251 56.6339C115.999 56.5891 115.741 56.5891 115.489 56.6339C115.264 56.6811 115.031 56.6811 114.805 56.6339C114.617 56.5387 114.458 56.3966 114.341 56.2213C114.203 56.0297 114.025 55.8704 113.82 55.7543C113.785 55.7364 113.748 55.7204 113.711 55.7063C113.49 55.6372 113.261 55.5933 113.03 55.5752C112.84 55.5634 112.652 55.5301 112.47 55.476C112.432 55.4635 112.395 55.4463 112.361 55.4249C112.219 55.304 112.12 55.14 112.08 54.9579C112.024 54.7542 111.913 54.5696 111.76 54.4237C111.618 54.3164 111.459 54.2342 111.29 54.1807C111.21 54.1487 111.127 54.1231 111.044 54.0943L110.807 54.0143C110.669 53.9735 110.541 53.9037 110.433 53.8096C110.388 53.7402 110.359 53.6622 110.346 53.5807C110.333 53.4992 110.338 53.4159 110.359 53.3363C110.397 53.1488 110.368 52.9539 110.276 52.7861C110.116 52.6002 109.92 52.448 109.7 52.3383C109.486 52.2104 109.262 52.0793 109.208 51.9513C109.153 51.8234 109.249 51.6666 109.342 51.5163C109.462 51.3751 109.523 51.1928 109.512 51.0078C109.437 50.8039 109.31 50.6231 109.144 50.4832Z" fill="white"/>
<path d="M117.431 52.0476C117.431 52.0732 117.732 54.3665 119.19 54.9038C119.297 54.9475 119.407 54.9807 119.52 55.003C119.928 55.0695 120.347 55.0411 120.743 54.9202C121.139 54.7993 121.502 54.5891 121.803 54.3057C122.075 54.0019 122.123 53.6916 121.912 53.4549C121.413 52.8792 119.485 51.9069 119.405 51.8557H119.389C118.429 51.5198 117.94 51.4271 117.661 51.5358C117.383 51.6446 117.412 51.8557 117.431 52.0476ZM117.92 50.9953L118.016 51.0369C118.258 51.1022 118.513 51.1022 118.755 51.0369C118.787 51.0369 122.194 50.3236 121.589 49.1178C121.336 48.6028 120.63 48.1582 119.939 47.9055C119.753 47.8367 119.563 47.7801 119.369 47.736C118.806 47.6081 118.365 47.6401 118.157 47.816C117.655 48.251 117.402 49.7031 117.39 49.7639V49.7863C117.447 50.4835 117.601 50.845 117.92 50.9953ZM111.843 50.813C111.906 50.9808 112.004 51.1336 112.129 51.2615C112.255 51.3893 112.406 51.4893 112.573 51.555C112.601 51.568 112.631 51.5776 112.662 51.5838C113.542 51.8205 115.63 51.6702 115.72 51.6638H115.752C116.635 51.4687 117.009 51.2959 117.051 51.0593C117.092 50.8226 116.849 50.653 116.638 50.4995C115.881 49.9865 115.07 49.5575 114.22 49.2201C113.539 48.9674 112.857 48.8459 112.397 49.0858C112.1 49.2478 111.876 49.5157 111.769 49.8359C111.661 50.1561 111.679 50.5051 111.818 50.813H111.843Z" fill="#FFCC88"/>
<path d="M88.0464 95.0255C87.7873 95.0575 87.5186 95.0895 87.4067 94.9968C87.2948 94.904 87.0325 94.888 86.8821 94.5586C86.7798 94.3379 87.3491 93.9508 87.2276 93.7941C87.0636 93.6498 86.8569 93.5633 86.6391 93.5478C86.3148 93.4766 86.0115 93.331 85.7531 93.1224C85.6955 92.9849 85.6539 92.9625 85.7531 92.7194C85.8522 92.4763 86.4567 92.1693 86.4184 91.971C86.3485 91.772 86.204 91.608 86.0154 91.5136C85.8426 91.3889 85.6763 91.2769 85.6795 91.1202C85.7364 90.881 85.8543 90.6606 86.0217 90.4805C86.2018 90.2678 86.3367 90.0208 86.4184 89.7544C86.4388 89.5368 86.381 89.3191 86.2552 89.1403C86.143 88.9876 86.0959 88.7967 86.1241 88.6094C86.2534 88.3834 86.4288 88.1872 86.6391 88.0336C86.8755 87.8469 87.0778 87.6208 87.2372 87.3651C87.334 87.1418 87.365 86.8955 87.3267 86.6551C87.2929 86.446 87.3242 86.2317 87.4163 86.041C87.5236 85.9105 87.6549 85.8019 87.8033 85.7211L88.0464 85.5772C88.136 85.526 88.2287 85.4748 88.3151 85.4205C88.4925 85.3174 88.6531 85.188 88.7916 85.0366C88.9481 84.8186 89.057 84.5702 89.1115 84.3074C89.1571 84.0731 89.2592 83.8535 89.409 83.6677C89.444 83.6347 89.4826 83.6057 89.5241 83.5813C89.7051 83.4836 89.8973 83.4084 90.0966 83.3574C90.3408 83.2943 90.5761 83.2008 90.7971 83.0792L90.9122 82.9992C91.1327 82.8052 91.3168 82.5734 91.456 82.3147C91.5718 82.0809 91.7365 81.8748 91.939 81.7102C92.1582 81.6101 92.3989 81.5661 92.6394 81.5823C92.9075 81.5936 93.1749 81.5467 93.4231 81.4447C93.4652 81.4255 93.5059 81.403 93.5446 81.3776C93.762 81.2281 93.9617 81.0543 94.1395 80.8594C94.2817 80.6979 94.4428 80.554 94.6193 80.4308C94.6575 80.4042 94.6996 80.3837 94.744 80.37C94.9519 80.3244 95.1691 80.3491 95.3613 80.4404C95.5825 80.5371 95.8264 80.5692 96.065 80.5332C96.2562 80.4821 96.4377 80.3999 96.6024 80.2901L96.8614 80.1206L97.1013 79.9638C97.2343 79.8692 97.3858 79.8038 97.5459 79.7719C97.6397 79.7813 97.7306 79.8096 97.8131 79.8553C97.8956 79.9009 97.9679 79.9629 98.0257 80.0374C98.1646 80.2051 98.3583 80.3184 98.5726 80.3572C98.8061 80.3764 99.4106 79.7176 99.6889 79.6152C99.9672 79.5129 100.079 79.9542 100.233 79.9958C100.386 80.0374 100.303 80.2197 100.37 80.4148C100.417 80.6187 100.536 80.7985 100.706 80.9202C100.895 81.0097 101.32 80.7155 101.589 80.6835C101.857 80.6515 101.969 80.8818 102.085 80.9746C102.2 81.0673 102.181 81.2944 102.165 81.5215C102.127 81.7392 102.16 81.9631 102.257 82.1612C102.376 82.3147 102.577 82.0461 102.82 82.094C103.063 82.142 103.306 82.5034 103.367 82.6378C103.428 82.7721 103.329 83.028 103.233 83.2775C103.119 83.4975 103.064 83.7432 103.073 83.9907C103.143 84.1906 103.287 84.3557 103.476 84.4513C103.649 84.5697 103.812 84.6848 103.812 84.8415C103.752 85.0789 103.636 85.2984 103.473 85.4812C103.289 85.6917 103.152 85.9394 103.073 86.2073C103.055 86.4242 103.111 86.6408 103.233 86.8214C103.29 86.8956 103.331 86.9807 103.354 87.0716C103.376 87.1624 103.38 87.2569 103.364 87.3492C103.236 87.5762 103.062 87.7735 102.852 87.9281C102.614 88.1109 102.409 88.3339 102.248 88.587C102.154 88.81 102.123 89.0545 102.158 89.2938C102.195 89.5025 102.164 89.7174 102.072 89.908C101.965 90.0386 101.833 90.1472 101.685 90.2278L101.442 90.3685L101.186 90.5189C101.004 90.6235 100.84 90.7563 100.7 90.9123C100.536 91.1293 100.422 91.3792 100.364 91.6447C100.319 91.8792 100.217 92.099 100.066 92.2844C100.032 92.3154 99.9941 92.3433 99.9544 92.3676C99.7718 92.4667 99.5772 92.5419 99.3755 92.5915C99.1311 92.6557 98.8958 92.7503 98.675 92.873L98.5598 92.9497C98.3413 93.1447 98.1583 93.3764 98.0193 93.6342C97.9034 93.8689 97.7375 94.0752 97.5331 94.2387C97.3151 94.3391 97.0753 94.3831 96.8359 94.3667C96.5667 94.3555 96.2984 94.4024 96.049 94.5042L95.9307 94.5682C95.7132 94.7187 95.5136 94.8937 95.3358 95.0895C95.1909 95.2515 95.029 95.3974 94.8528 95.5245C94.8146 95.5483 94.7738 95.5676 94.7312 95.5821C94.5229 95.6253 94.3062 95.5995 94.1139 95.5085C93.8935 95.4135 93.6507 95.3825 93.4135 95.419C93.2157 95.4688 93.0284 95.5533 92.8601 95.6684L92.6138 95.8284L92.374 95.9851C92.2401 96.0804 92.0874 96.1458 91.9262 96.177C91.8328 96.1676 91.7424 96.1392 91.6604 96.0935C91.5785 96.0479 91.5067 95.9859 91.4496 95.9115C91.3102 95.7427 91.1151 95.6293 90.8995 95.5917C90.6199 95.6037 90.3457 95.6722 90.0934 95.7932C89.8798 95.9066 89.6412 95.9649 89.3994 95.9627C89.1763 95.8762 88.9914 95.7129 88.878 95.5021C88.8044 95.2974 88.9516 95.1215 88.7661 95.0287C88.5304 94.9662 88.2826 94.9651 88.0464 95.0255Z" fill="#FFCC88" stroke="#263238" stroke-width="0.371783" stroke-miterlimit="10"/>
<path d="M87.6082 94.616C87.3459 94.648 87.0804 94.6799 86.9685 94.5872C86.8565 94.4944 86.8693 94.2673 86.8853 94.0402C86.9272 93.9344 86.941 93.8196 86.9256 93.7068C86.9101 93.5941 86.8658 93.4872 86.797 93.3965C86.7282 93.3059 86.6372 93.2345 86.5328 93.1892C86.4283 93.144 86.314 93.1264 86.2008 93.1383C85.9737 93.0935 85.7402 93.0455 85.6795 92.908C85.6187 92.7704 85.7211 92.521 85.817 92.2683C85.9315 92.0473 85.9866 91.8004 85.9769 91.5518C85.9353 91.3439 85.7498 91.232 85.5739 91.0944C85.398 90.9569 85.2349 90.8577 85.2381 90.701C85.2971 90.4626 85.4147 90.2427 85.5803 90.0613C85.7613 89.8488 85.8973 89.6018 85.9801 89.3353C85.9987 89.1178 85.941 88.9007 85.817 88.7211C85.7608 88.6464 85.72 88.5613 85.697 88.4707C85.6739 88.3801 85.6691 88.2859 85.6827 88.1934C85.8127 87.9671 85.988 87.77 86.1976 87.6145C86.4356 87.4294 86.6382 87.203 86.7957 86.946C86.893 86.7239 86.9252 86.4788 86.8885 86.2391C86.8518 86.0304 86.882 85.8155 86.9749 85.625C87.0815 85.4939 87.213 85.3852 87.3619 85.3051L87.6082 85.1612C87.6977 85.11 87.7873 85.0589 87.8736 85.0045C88.0515 84.9021 88.2122 84.7726 88.3502 84.6207C88.5082 84.4024 88.6173 84.1525 88.6701 83.8882C88.7154 83.6533 88.8188 83.4334 88.9707 83.2485C89.0046 83.2155 89.0421 83.1865 89.0827 83.1622C89.2644 83.0669 89.4565 82.9928 89.6552 82.9415C89.8997 82.8778 90.1351 82.7832 90.3557 82.66C90.3958 82.6359 90.4343 82.6092 90.4708 82.58C90.692 82.3867 90.8763 82.1548 91.0146 81.8956C91.1325 81.6631 91.2982 81.4582 91.5007 81.2942C91.718 81.1913 91.9582 81.1461 92.198 81.1631C92.4658 81.1743 92.7329 81.1285 92.9816 81.0288L93.1032 80.9616C93.3207 80.811 93.5203 80.6361 93.6981 80.4402C93.8427 80.2811 94.0035 80.1374 94.1779 80.0116C94.2168 79.9863 94.2587 79.9659 94.3026 79.9509C94.5115 79.9045 94.7299 79.9293 94.9231 80.0212C95.1433 80.1173 95.386 80.1494 95.6236 80.114C95.8155 80.0649 95.9974 79.9827 96.1609 79.8709L96.42 79.7014L96.6599 79.5479C96.7921 79.4519 96.9439 79.3863 97.1045 79.356C97.1983 79.364 97.2894 79.3914 97.372 79.4366C97.4546 79.4817 97.5269 79.5436 97.5843 79.6182C97.7227 79.7866 97.9166 79.9 98.1312 79.9381C98.4108 79.9264 98.6851 79.8579 98.9372 79.7366C99.1526 79.6248 99.3918 79.5667 99.6345 79.567C99.788 79.6086 99.8616 79.8037 99.9288 79.9957C99.975 80.2004 100.096 80.3806 100.268 80.501C100.507 80.572 100.76 80.5808 101.003 80.5266C101.263 80.4946 101.528 80.4626 101.643 80.5554C101.758 80.6481 101.739 80.8752 101.723 81.1023C101.685 81.32 101.718 81.5441 101.816 81.742C101.98 81.8897 102.188 81.9786 102.408 81.9947C102.635 82.0395 102.868 82.0875 102.926 82.2218C102.983 82.3561 102.887 82.612 102.791 82.8615C102.679 83.082 102.624 83.3273 102.631 83.5748C102.703 83.7734 102.847 83.9379 103.034 84.0353C103.21 84.1537 103.37 84.2688 103.374 84.4256C103.312 84.6632 103.195 84.8826 103.031 85.0653C102.85 85.2778 102.714 85.5248 102.631 85.7913C102.613 86.0093 102.669 86.2271 102.791 86.4086C102.848 86.4822 102.89 86.5668 102.912 86.6571C102.935 86.7474 102.938 86.8414 102.923 86.9332C102.794 87.1606 102.62 87.3589 102.411 87.5153C102.174 87.7002 101.971 87.9254 101.813 88.1806C101.717 88.403 101.685 88.6478 101.72 88.8875C101.758 89.0961 101.728 89.3116 101.634 89.5016C101.528 89.6338 101.396 89.7427 101.247 89.8214L101.003 89.9654C100.917 90.0133 100.834 90.0645 100.751 90.1157C100.569 90.2202 100.404 90.3518 100.261 90.5059C100.102 90.7235 99.9929 90.9736 99.9415 91.2384C99.8955 91.4731 99.7923 91.6928 99.6409 91.8781C99.6062 91.9101 99.5688 91.939 99.5289 91.9644C99.3464 92.0605 99.1532 92.1346 98.9532 92.1851C98.7082 92.2502 98.4719 92.3447 98.2495 92.4666C98.2112 92.4922 98.1728 92.5178 98.1376 92.5465C97.9184 92.7397 97.7353 92.9704 97.5971 93.2278C97.4791 93.462 97.3122 93.6682 97.1077 93.8323C96.8897 93.933 96.6499 93.977 96.4104 93.9603C96.1414 93.951 95.8735 93.9978 95.6236 94.0978C95.5852 94.1202 95.5468 94.1394 95.5084 94.165C95.2885 94.3137 95.0877 94.4888 94.9103 94.6863C94.7663 94.8482 94.6042 94.993 94.4273 95.1181C94.3885 95.1416 94.3479 95.1619 94.3058 95.1789C94.0974 95.2188 93.8817 95.1931 93.6885 95.1053C93.4683 95.0093 93.2256 94.9771 92.988 95.0126C92.7925 95.0658 92.6068 95.15 92.4379 95.2621L92.1884 95.4252L91.9485 95.5787C91.8155 95.6761 91.6626 95.7427 91.5007 95.7738C91.3216 95.7738 91.1809 95.6427 91.0242 95.5051C90.8856 95.337 90.6917 95.2236 90.4772 95.1853C90.1977 95.1973 89.9235 95.2658 89.6712 95.3868C89.4559 95.4992 89.2168 95.5584 88.9739 95.5595C88.8204 95.5179 88.75 95.3196 88.6797 95.1309C88.6365 94.924 88.515 94.7418 88.3406 94.6224C88.101 94.5577 87.8488 94.5555 87.6082 94.616Z" fill="#FFCC88" stroke="#263238" stroke-width="0.371783" stroke-miterlimit="10"/>
<path d="M88.427 93.7559C88.1999 93.7815 87.9664 93.8103 87.8672 93.7303C87.7681 93.6503 87.7809 93.4552 87.7937 93.2473C87.8307 93.1545 87.8431 93.0536 87.8296 92.9546C87.8161 92.8555 87.7772 92.7616 87.7167 92.6821C87.6561 92.6025 87.576 92.54 87.4841 92.5006C87.3922 92.4612 87.2917 92.4463 87.1923 92.4573C86.9972 92.4189 86.7925 92.3773 86.7382 92.2558C86.6838 92.1343 86.7733 91.9167 86.8565 91.7025C86.9574 91.5048 87.0059 91.2845 86.9972 91.0628C86.9621 90.8836 86.7989 90.7717 86.6454 90.6629C86.4919 90.5542 86.3479 90.455 86.3511 90.3175C86.403 90.1094 86.5052 89.9172 86.6486 89.7578C86.8091 89.5713 86.9289 89.3535 87.0004 89.1181C87.0175 88.9276 86.9665 88.7372 86.8565 88.5807C86.7588 88.446 86.7175 88.2785 86.7414 88.1137C86.8549 87.9158 87.0085 87.7436 87.1923 87.6084C87.3992 87.4445 87.5766 87.2466 87.7169 87.0231C87.8011 86.8266 87.8288 86.6106 87.7969 86.3994C87.7656 86.2166 87.7924 86.0287 87.8736 85.862C87.9672 85.7461 88.0823 85.6495 88.2127 85.5773L88.427 85.4526L88.6637 85.3151C88.818 85.2242 88.9581 85.111 89.0795 84.9792C89.2212 84.7889 89.3214 84.571 89.3737 84.3395C89.4122 84.1327 89.5024 83.939 89.636 83.7766C89.6665 83.7488 89.6997 83.7242 89.7351 83.703C89.8938 83.6173 90.0625 83.5518 90.2373 83.5079C90.4518 83.4527 90.6582 83.37 90.8514 83.2616C90.8868 83.24 90.9209 83.2165 90.9538 83.1913C91.1475 83.0211 91.309 82.8174 91.4303 82.5899C91.5328 82.3857 91.6779 82.2057 91.8557 82.0622C92.0475 81.9727 92.2587 81.9331 92.4699 81.947C92.7049 81.9568 92.9393 81.9164 93.1575 81.8287L93.2631 81.7711C93.4531 81.6382 93.6279 81.4849 93.7844 81.3138C93.9108 81.1727 94.0524 81.0461 94.2066 80.9363C94.2402 80.9141 94.2769 80.8969 94.3154 80.8852C94.4983 80.8438 94.6899 80.8652 94.8591 80.9459C95.0519 81.031 95.2651 81.0588 95.4732 81.0259C95.6415 80.9817 95.8014 80.9104 95.9466 80.8148L96.1737 80.6645L96.3848 80.5301C96.501 80.446 96.6342 80.3881 96.775 80.3606C96.8569 80.3683 96.9363 80.3927 97.0084 80.4323C97.0805 80.4719 97.1437 80.5259 97.194 80.5909C97.3156 80.7374 97.486 80.8351 97.6738 80.866C97.9192 80.8579 98.1601 80.798 98.3807 80.69C98.5702 80.5913 98.7811 80.5408 98.9948 80.5429C99.1291 80.5781 99.1931 80.7476 99.2539 80.9171C99.2943 81.0963 99.399 81.2545 99.5481 81.3617C99.7562 81.4223 99.9761 81.43 100.188 81.3841C100.374 81.3338 100.57 81.3428 100.751 81.4097C100.847 81.4865 100.834 81.6816 100.821 81.8895C100.785 82.0839 100.813 82.2848 100.901 82.462C101.045 82.5916 101.229 82.6693 101.422 82.6827C101.618 82.7211 101.822 82.7627 101.877 82.881C101.931 82.9994 101.841 83.2232 101.758 83.4375C101.657 83.635 101.608 83.8554 101.618 84.0772C101.682 84.251 101.808 84.3947 101.973 84.4803C102.123 84.5826 102.267 84.685 102.267 84.8225C102.214 85.03 102.112 85.2219 101.969 85.3822C101.808 85.5682 101.688 85.7863 101.618 86.0219C101.602 86.2129 101.651 86.4036 101.758 86.5625C101.808 86.6281 101.843 86.703 101.863 86.7826C101.883 86.8623 101.886 86.9452 101.873 87.0263C101.76 87.2253 101.607 87.3986 101.422 87.5348C101.216 87.6977 101.038 87.8945 100.898 88.1169C100.814 88.3134 100.786 88.5294 100.818 88.7407C100.851 88.9234 100.824 89.1119 100.741 89.278C100.649 89.3954 100.534 89.4923 100.402 89.5627L100.188 89.6874L99.9671 89.8185C99.8072 89.9108 99.6626 90.0273 99.5385 90.164C99.3946 90.353 99.2941 90.5714 99.2443 90.8037C99.2052 91.0103 99.115 91.2038 98.982 91.3666C98.9515 91.3944 98.9183 91.4191 98.8828 91.4402C98.7229 91.5254 98.5532 91.5909 98.3775 91.6353C98.1634 91.6931 97.9571 91.7769 97.7634 91.8848C97.7281 91.9053 97.6939 91.9277 97.661 91.9519C97.4692 92.1219 97.309 92.3244 97.1876 92.5501C97.0846 92.7558 96.9384 92.9369 96.759 93.081C96.5686 93.1709 96.358 93.2095 96.1481 93.1929C95.9118 93.1844 95.6764 93.2258 95.4573 93.3145C95.4214 93.3305 95.3872 93.3498 95.3549 93.3721C95.1624 93.503 94.9863 93.6565 94.8303 93.8295C94.704 93.9715 94.5625 94.0991 94.4081 94.2101C94.3735 94.2304 94.3371 94.2475 94.2994 94.2612C94.117 94.2981 93.9276 94.2757 93.7589 94.1973C93.5656 94.1141 93.3529 94.0864 93.1447 94.1173C92.9679 94.162 92.8009 94.239 92.6522 94.3444L92.4315 94.4851L92.2204 94.6195C92.1053 94.7056 91.9716 94.7636 91.8302 94.789C91.6702 94.789 91.5391 94.6771 91.4112 94.5555C91.288 94.4115 91.1182 94.3153 90.9314 94.2836C90.6855 94.2955 90.4443 94.3552 90.2213 94.4596C90.0343 94.5592 89.8255 94.6109 89.6136 94.6099C89.4761 94.5747 89.4153 94.3988 89.3513 94.2325C89.3143 94.0527 89.2087 93.8944 89.0571 93.7911C88.8537 93.7247 88.6365 93.7125 88.427 93.7559Z" fill="white"/>
<path d="M94.7665 88.1905C94.7889 88.1905 96.7784 89.3835 98.0994 88.5647C98.2007 88.5025 98.2951 88.4296 98.3808 88.3472C98.6877 88.066 98.9251 87.7175 99.0744 87.329C99.2237 86.9405 99.2808 86.5226 99.2412 86.1083C99.1677 85.7085 98.9502 85.4846 98.6367 85.5006C97.8755 85.5389 95.9244 86.4601 95.8412 86.4953H95.8252C94.9744 87.0326 94.5938 87.3717 94.5107 87.6595C94.4275 87.9474 94.6034 88.0881 94.7665 88.1905ZM94.2292 87.167C94.2611 87.1518 94.2921 87.1347 94.3219 87.1158C94.5262 86.9704 94.6876 86.7726 94.7889 86.5433C94.7889 86.5145 96.3466 83.396 95.0192 83.1241C94.4563 83.0089 93.679 83.284 93.0457 83.6774C92.8773 83.7806 92.716 83.895 92.5628 84.0197C92.115 84.3875 91.8655 84.7521 91.8783 85.0272C91.9103 85.6893 92.8986 86.7832 92.9402 86.8311C93.5415 87.215 93.9093 87.3077 94.2292 87.167ZM90.3366 91.8528C90.5075 91.9056 90.6874 91.9226 90.8652 91.9028C91.0429 91.883 91.2147 91.8268 91.3697 91.7376L91.4497 91.6832C92.1758 91.1363 93.3432 89.3963 93.3944 89.3228L93.4104 89.2972C93.8006 88.4816 93.8965 88.0786 93.7302 87.8994C93.5639 87.7203 93.2856 87.8099 93.0361 87.8802C92.1612 88.156 91.3192 88.5271 90.5253 88.9869C89.908 89.3675 89.3931 89.8313 89.2971 90.3399C89.2461 90.6769 89.3252 91.0207 89.5182 91.3016C89.7112 91.5825 90.0038 91.7795 90.3366 91.8528Z" fill="#FFCC88"/>
</g>
<path d="M15.4375 20.5H11.3281L10.5469 22.8438H8.05469L12.2891 11.4688H14.4609L18.7188 22.8438H16.2266L15.4375 20.5ZM11.9609 18.6016H14.8047L13.375 14.3438L11.9609 18.6016ZM22.0156 22.8438H19.75V10.8438H22.0156V22.8438ZM26.2656 22.8438H24V10.8438H26.2656V22.8438ZM37.0156 22.8438C36.9115 22.6406 36.8359 22.388 36.7891 22.0859C36.2422 22.6953 35.5312 23 34.6562 23C33.8281 23 33.1406 22.7604 32.5938 22.2812C32.0521 21.8021 31.7812 21.1979 31.7812 20.4688C31.7812 19.5729 32.112 18.8854 32.7734 18.4062C33.4401 17.9271 34.401 17.6849 35.6562 17.6797H36.6953V17.1953C36.6953 16.8047 36.5938 16.4922 36.3906 16.2578C36.1927 16.0234 35.8776 15.9062 35.4453 15.9062C35.0651 15.9062 34.7656 15.9974 34.5469 16.1797C34.3333 16.362 34.2266 16.612 34.2266 16.9297H31.9688C31.9688 16.4401 32.1198 15.987 32.4219 15.5703C32.724 15.1536 33.151 14.8281 33.7031 14.5938C34.2552 14.3542 34.875 14.2344 35.5625 14.2344C36.6042 14.2344 37.4297 14.4974 38.0391 15.0234C38.6536 15.5443 38.9609 16.2786 38.9609 17.2266V20.8906C38.9661 21.6927 39.0781 22.2995 39.2969 22.7109V22.8438H37.0156ZM35.1484 21.2734C35.4818 21.2734 35.7891 21.2005 36.0703 21.0547C36.3516 20.9036 36.5599 20.7031 36.6953 20.4531V19H35.8516C34.7214 19 34.1198 19.3906 34.0469 20.1719L34.0391 20.3047C34.0391 20.5859 34.138 20.8177 34.3359 21C34.5339 21.1823 34.8047 21.2734 35.1484 21.2734ZM48.3125 18.6953C48.3125 20.0495 48.0234 21.1068 47.4453 21.8672C46.8672 22.6224 46.0599 23 45.0234 23C44.1068 23 43.375 22.6484 42.8281 21.9453L42.7266 22.8438H40.6953V10.8438H42.9531V15.1484C43.474 14.5391 44.1589 14.2344 45.0078 14.2344C46.0391 14.2344 46.8464 14.6146 47.4297 15.375C48.0182 16.1302 48.3125 17.1953 48.3125 18.5703V18.6953ZM46.0547 18.5312C46.0547 17.6771 45.9193 17.0547 45.6484 16.6641C45.3776 16.2682 44.974 16.0703 44.4375 16.0703C43.7188 16.0703 43.224 16.3646 42.9531 16.9531V20.2891C43.2292 20.8828 43.7292 21.1797 44.4531 21.1797C45.1823 21.1797 45.6615 20.8203 45.8906 20.1016C46 19.7578 46.0547 19.2344 46.0547 18.5312ZM49.3594 18.5391C49.3594 17.7005 49.5208 16.9531 49.8438 16.2969C50.1667 15.6406 50.6302 15.1328 51.2344 14.7734C51.8438 14.4141 52.5495 14.2344 53.3516 14.2344C54.4922 14.2344 55.4219 14.5833 56.1406 15.2812C56.8646 15.9792 57.2682 16.9271 57.3516 18.125L57.3672 18.7031C57.3672 20 57.0052 21.0417 56.2812 21.8281C55.5573 22.6094 54.5859 23 53.3672 23C52.1484 23 51.1745 22.6094 50.4453 21.8281C49.7214 21.0469 49.3594 19.9844 49.3594 18.6406V18.5391ZM51.6172 18.7031C51.6172 19.5052 51.7682 20.1198 52.0703 20.5469C52.3724 20.9688 52.8047 21.1797 53.3672 21.1797C53.9141 21.1797 54.3411 20.9714 54.6484 20.5547C54.9557 20.1328 55.1094 19.4609 55.1094 18.5391C55.1094 17.7526 54.9557 17.1432 54.6484 16.7109C54.3411 16.2786 53.9089 16.0625 53.3516 16.0625C52.7995 16.0625 52.3724 16.2786 52.0703 16.7109C51.7682 17.138 51.6172 17.8021 51.6172 18.7031ZM63.8203 21.9844C63.263 22.6615 62.4922 23 61.5078 23C60.6016 23 59.9089 22.7396 59.4297 22.2188C58.9557 21.6979 58.7135 20.9349 58.7031 19.9297V14.3906H60.9609V19.8516C60.9609 20.7318 61.362 21.1719 62.1641 21.1719C62.9297 21.1719 63.4557 20.9062 63.7422 20.375V14.3906H66.0078V22.8438H63.8828L63.8203 21.9844ZM70.4141 12.3125V14.3906H71.8594V16.0469H70.4141V20.2656C70.4141 20.5781 70.474 20.8021 70.5938 20.9375C70.7135 21.0729 70.9427 21.1406 71.2812 21.1406C71.5312 21.1406 71.7526 21.1224 71.9453 21.0859V22.7969C71.5026 22.9323 71.0469 23 70.5781 23C68.9948 23 68.1875 22.2005 68.1562 20.6016V16.0469H66.9219V14.3906H68.1562V12.3125H70.4141ZM16.4766 37.6953C16.4766 38.9974 16.1797 40.0417 15.5859 40.8281C14.9974 41.6094 14.2005 42 13.1953 42C12.3411 42 11.651 41.7031 11.125 41.1094V45.0938H8.86719V33.3906H10.9609L11.0391 34.2188C11.5859 33.5625 12.2995 33.2344 13.1797 33.2344C14.2214 33.2344 15.0312 33.6198 15.6094 34.3906C16.1875 35.1615 16.4766 36.224 16.4766 37.5781V37.6953ZM14.2188 37.5312C14.2188 36.7448 14.0781 36.138 13.7969 35.7109C13.5208 35.2839 13.1172 35.0703 12.5859 35.0703C11.8776 35.0703 11.3906 35.3411 11.125 35.8828V39.3438C11.401 39.901 11.8932 40.1797 12.6016 40.1797C13.6797 40.1797 14.2188 39.2969 14.2188 37.5312ZM22.6328 35.5078C22.3255 35.4661 22.0547 35.4453 21.8203 35.4453C20.9661 35.4453 20.4062 35.7344 20.1406 36.3125V41.8438H17.8828V33.3906H20.0156L20.0781 34.3984C20.5312 33.6224 21.1589 33.2344 21.9609 33.2344C22.2109 33.2344 22.4453 33.2682 22.6641 33.3359L22.6328 35.5078ZM27.4609 42C26.2214 42 25.2109 41.6198 24.4297 40.8594C23.6536 40.099 23.2656 39.0859 23.2656 37.8203V37.6016C23.2656 36.7526 23.4297 35.9948 23.7578 35.3281C24.0859 34.6562 24.5495 34.1406 25.1484 33.7812C25.7526 33.4167 26.4401 33.2344 27.2109 33.2344C28.3672 33.2344 29.276 33.599 29.9375 34.3281C30.6042 35.0573 30.9375 36.0911 30.9375 37.4297V38.3516H25.5547C25.6276 38.9036 25.8464 39.3464 26.2109 39.6797C26.5807 40.013 27.0469 40.1797 27.6094 40.1797C28.4792 40.1797 29.1589 39.8646 29.6484 39.2344L30.7578 40.4766C30.4193 40.9557 29.9609 41.3307 29.3828 41.6016C28.8047 41.8672 28.1641 42 27.4609 42ZM27.2031 35.0625C26.7552 35.0625 26.3906 35.2135 26.1094 35.5156C25.8333 35.8177 25.6562 36.25 25.5781 36.8125H28.7188V36.6328C28.7083 36.1328 28.5729 35.7474 28.3125 35.4766C28.0521 35.2005 27.6823 35.0625 27.2031 35.0625ZM31.8984 37.5547C31.8984 36.2578 32.2057 35.2135 32.8203 34.4219C33.4401 33.6302 34.2734 33.2344 35.3203 33.2344C36.2474 33.2344 36.9688 33.5521 37.4844 34.1875L37.5781 33.3906H39.625V41.5625C39.625 42.3021 39.4557 42.9453 39.1172 43.4922C38.7839 44.0391 38.3125 44.4557 37.7031 44.7422C37.0938 45.0286 36.3802 45.1719 35.5625 45.1719C34.9427 45.1719 34.3385 45.0469 33.75 44.7969C33.1615 44.5521 32.7161 44.2344 32.4141 43.8438L33.4141 42.4688C33.9766 43.099 34.6589 43.4141 35.4609 43.4141C36.0599 43.4141 36.526 43.2526 36.8594 42.9297C37.1927 42.612 37.3594 42.1589 37.3594 41.5703V41.1172C36.8385 41.7057 36.1536 42 35.3047 42C34.2891 42 33.4661 41.6042 32.8359 40.8125C32.2109 40.0156 31.8984 38.9609 31.8984 37.6484V37.5547ZM34.1562 37.7188C34.1562 38.4844 34.3099 39.0859 34.6172 39.5234C34.9245 39.9557 35.3464 40.1719 35.8828 40.1719C36.5703 40.1719 37.0625 39.9141 37.3594 39.3984V35.8438C37.0573 35.3281 36.5703 35.0703 35.8984 35.0703C35.3568 35.0703 34.9297 35.2917 34.6172 35.7344C34.3099 36.1771 34.1562 36.8385 34.1562 37.7188ZM43.4453 33.3906L43.5156 34.3672C44.1198 33.612 44.9297 33.2344 45.9453 33.2344C46.8411 33.2344 47.5078 33.4974 47.9453 34.0234C48.3828 34.5495 48.6068 35.3359 48.6172 36.3828V41.8438H46.3594V36.4375C46.3594 35.9583 46.2552 35.612 46.0469 35.3984C45.8385 35.1797 45.4922 35.0703 45.0078 35.0703C44.3724 35.0703 43.8958 35.3411 43.5781 35.8828V41.8438H41.3203V33.3906H43.4453ZM55.2344 41.8438C55.1302 41.6406 55.0547 41.388 55.0078 41.0859C54.4609 41.6953 53.75 42 52.875 42C52.0469 42 51.3594 41.7604 50.8125 41.2812C50.2708 40.8021 50 40.1979 50 39.4688C50 38.5729 50.3307 37.8854 50.9922 37.4062C51.6589 36.9271 52.6198 36.6849 53.875 36.6797H54.9141V36.1953C54.9141 35.8047 54.8125 35.4922 54.6094 35.2578C54.4115 35.0234 54.0964 34.9062 53.6641 34.9062C53.2839 34.9062 52.9844 34.9974 52.7656 35.1797C52.5521 35.362 52.4453 35.612 52.4453 35.9297H50.1875C50.1875 35.4401 50.3385 34.987 50.6406 34.5703C50.9427 34.1536 51.3698 33.8281 51.9219 33.5938C52.474 33.3542 53.0938 33.2344 53.7812 33.2344C54.8229 33.2344 55.6484 33.4974 56.2578 34.0234C56.8724 34.5443 57.1797 35.2786 57.1797 36.2266V39.8906C57.1849 40.6927 57.2969 41.2995 57.5156 41.7109V41.8438H55.2344ZM53.3672 40.2734C53.7005 40.2734 54.0078 40.2005 54.2891 40.0547C54.5703 39.9036 54.7786 39.7031 54.9141 39.4531V38H54.0703C52.9401 38 52.3385 38.3906 52.2656 39.1719L52.2578 39.3047C52.2578 39.5859 52.3568 39.8177 52.5547 40C52.7526 40.1823 53.0234 40.2734 53.3672 40.2734ZM60.9922 33.3906L61.0625 34.3672C61.6667 33.612 62.4766 33.2344 63.4922 33.2344C64.388 33.2344 65.0547 33.4974 65.4922 34.0234C65.9297 34.5495 66.1536 35.3359 66.1641 36.3828V41.8438H63.9062V36.4375C63.9062 35.9583 63.8021 35.612 63.5938 35.3984C63.3854 35.1797 63.0391 35.0703 62.5547 35.0703C61.9193 35.0703 61.4427 35.3411 61.125 35.8828V41.8438H58.8672V33.3906H60.9922ZM71.3984 40.1797C71.8151 40.1797 72.1536 40.0651 72.4141 39.8359C72.6745 39.6068 72.8099 39.3021 72.8203 38.9219H74.9375C74.9323 39.4948 74.776 40.0208 74.4688 40.5C74.1615 40.974 73.7396 41.3438 73.2031 41.6094C72.6719 41.8698 72.0833 42 71.4375 42C70.2292 42 69.276 41.6172 68.5781 40.8516C67.8802 40.0807 67.5312 39.0182 67.5312 37.6641V37.5156C67.5312 36.2135 67.8776 35.1745 68.5703 34.3984C69.263 33.6224 70.2135 33.2344 71.4219 33.2344C72.4792 33.2344 73.3255 33.5365 73.9609 34.1406C74.6016 34.7396 74.9271 35.5391 74.9375 36.5391H72.8203C72.8099 36.1016 72.6745 35.7474 72.4141 35.4766C72.1536 35.2005 71.8099 35.0625 71.3828 35.0625C70.8568 35.0625 70.4583 35.2552 70.1875 35.6406C69.9219 36.0208 69.7891 36.6406 69.7891 37.5V37.7344C69.7891 38.6042 69.9219 39.2292 70.1875 39.6094C70.4531 39.9896 70.8568 40.1797 71.3984 40.1797ZM79.3828 38.6484L80.9453 33.3906H83.3672L79.9688 43.1562L79.7812 43.6016C79.276 44.7057 78.4427 45.2578 77.2812 45.2578C76.9531 45.2578 76.6198 45.2083 76.2812 45.1094V43.3984L76.625 43.4062C77.0521 43.4062 77.3698 43.3411 77.5781 43.2109C77.7917 43.0807 77.9583 42.8646 78.0781 42.5625L78.3438 41.8672L75.3828 33.3906H77.8125L79.3828 38.6484ZM12.3828 59.1797C12.7995 59.1797 13.138 59.0651 13.3984 58.8359C13.6589 58.6068 13.7943 58.3021 13.8047 57.9219H15.9219C15.9167 58.4948 15.7604 59.0208 15.4531 59.5C15.1458 59.974 14.724 60.3438 14.1875 60.6094C13.6562 60.8698 13.0677 61 12.4219 61C11.2135 61 10.2604 60.6172 9.5625 59.8516C8.86458 59.0807 8.51562 58.0182 8.51562 56.6641V56.5156C8.51562 55.2135 8.86198 54.1745 9.55469 53.3984C10.2474 52.6224 11.1979 52.2344 12.4062 52.2344C13.4635 52.2344 14.3099 52.5365 14.9453 53.1406C15.5859 53.7396 15.9115 54.5391 15.9219 55.5391H13.8047C13.7943 55.1016 13.6589 54.7474 13.3984 54.4766C13.138 54.2005 12.7943 54.0625 12.3672 54.0625C11.8411 54.0625 11.4427 54.2552 11.1719 54.6406C10.9062 55.0208 10.7734 55.6406 10.7734 56.5V56.7344C10.7734 57.6042 10.9062 58.2292 11.1719 58.6094C11.4375 58.9896 11.8411 59.1797 12.3828 59.1797ZM21.9609 54.5078C21.6536 54.4661 21.3828 54.4453 21.1484 54.4453C20.2943 54.4453 19.7344 54.7344 19.4688 55.3125V60.8438H17.2109V52.3906H19.3438L19.4062 53.3984C19.8594 52.6224 20.487 52.2344 21.2891 52.2344C21.5391 52.2344 21.7734 52.2682 21.9922 52.3359L21.9609 54.5078ZM27.7188 60.8438C27.6146 60.6406 27.5391 60.388 27.4922 60.0859C26.9453 60.6953 26.2344 61 25.3594 61C24.5312 61 23.8438 60.7604 23.2969 60.2812C22.7552 59.8021 22.4844 59.1979 22.4844 58.4688C22.4844 57.5729 22.8151 56.8854 23.4766 56.4062C24.1432 55.9271 25.1042 55.6849 26.3594 55.6797H27.3984V55.1953C27.3984 54.8047 27.2969 54.4922 27.0938 54.2578C26.8958 54.0234 26.5807 53.9062 26.1484 53.9062C25.7682 53.9062 25.4688 53.9974 25.25 54.1797C25.0365 54.362 24.9297 54.612 24.9297 54.9297H22.6719C22.6719 54.4401 22.8229 53.987 23.125 53.5703C23.4271 53.1536 23.8542 52.8281 24.4062 52.5938C24.9583 52.3542 25.5781 52.2344 26.2656 52.2344C27.3073 52.2344 28.1328 52.4974 28.7422 53.0234C29.3568 53.5443 29.6641 54.2786 29.6641 55.2266V58.8906C29.6693 59.6927 29.7812 60.2995 30 60.7109V60.8438H27.7188ZM25.8516 59.2734C26.1849 59.2734 26.4922 59.2005 26.7734 59.0547C27.0547 58.9036 27.263 58.7031 27.3984 58.4531V57H26.5547C25.4245 57 24.8229 57.3906 24.75 58.1719L24.7422 58.3047C24.7422 58.5859 24.8411 58.8177 25.0391 59C25.237 59.1823 25.5078 59.2734 25.8516 59.2734ZM34.4375 58.0859L36.0078 52.3906H38.3672L35.5156 60.8438H33.3594L30.5078 52.3906H32.8672L34.4375 58.0859ZM41.75 60.8438H39.4844V52.3906H41.75V60.8438ZM39.3516 50.2031C39.3516 49.8646 39.4635 49.5859 39.6875 49.3672C39.9167 49.1484 40.2266 49.0391 40.6172 49.0391C41.0026 49.0391 41.3099 49.1484 41.5391 49.3672C41.7682 49.5859 41.8828 49.8646 41.8828 50.2031C41.8828 50.5469 41.7656 50.8281 41.5312 51.0469C41.3021 51.2656 40.9974 51.375 40.6172 51.375C40.237 51.375 39.9297 51.2656 39.6953 51.0469C39.4661 50.8281 39.3516 50.5469 39.3516 50.2031ZM45.6953 52.3906L45.7656 53.3672C46.3698 52.612 47.1797 52.2344 48.1953 52.2344C49.0911 52.2344 49.7578 52.4974 50.1953 53.0234C50.6328 53.5495 50.8568 54.3359 50.8672 55.3828V60.8438H48.6094V55.4375C48.6094 54.9583 48.5052 54.612 48.2969 54.3984C48.0885 54.1797 47.7422 54.0703 47.2578 54.0703C46.6224 54.0703 46.1458 54.3411 45.8281 54.8828V60.8438H43.5703V52.3906H45.6953ZM52.2578 56.5547C52.2578 55.2578 52.5651 54.2135 53.1797 53.4219C53.7995 52.6302 54.6328 52.2344 55.6797 52.2344C56.6068 52.2344 57.3281 52.5521 57.8438 53.1875L57.9375 52.3906H59.9844V60.5625C59.9844 61.3021 59.8151 61.9453 59.4766 62.4922C59.1432 63.0391 58.6719 63.4557 58.0625 63.7422C57.4531 64.0286 56.7396 64.1719 55.9219 64.1719C55.3021 64.1719 54.6979 64.0469 54.1094 63.7969C53.5208 63.5521 53.0755 63.2344 52.7734 62.8438L53.7734 61.4688C54.3359 62.099 55.0182 62.4141 55.8203 62.4141C56.4193 62.4141 56.8854 62.2526 57.2188 61.9297C57.5521 61.612 57.7188 61.1589 57.7188 60.5703V60.1172C57.1979 60.7057 56.513 61 55.6641 61C54.6484 61 53.8255 60.6042 53.1953 59.8125C52.5703 59.0156 52.2578 57.9609 52.2578 56.6484V56.5547ZM54.5156 56.7188C54.5156 57.4844 54.6693 58.0859 54.9766 58.5234C55.2839 58.9557 55.7057 59.1719 56.2422 59.1719C56.9297 59.1719 57.4219 58.9141 57.7188 58.3984V54.8438C57.4167 54.3281 56.9297 54.0703 56.2578 54.0703C55.7161 54.0703 55.2891 54.2917 54.9766 54.7344C54.6693 55.1771 54.5156 55.8385 54.5156 56.7188ZM66.3047 58.5078C66.3047 58.2318 66.1667 58.0156 65.8906 57.8594C65.6198 57.6979 65.1823 57.5547 64.5781 57.4297C62.5677 57.0078 61.5625 56.1536 61.5625 54.8672C61.5625 54.1172 61.8724 53.4922 62.4922 52.9922C63.1172 52.487 63.9323 52.2344 64.9375 52.2344C66.0104 52.2344 66.8672 52.487 67.5078 52.9922C68.1536 53.4974 68.4766 54.1536 68.4766 54.9609H66.2188C66.2188 54.638 66.1146 54.3724 65.9062 54.1641C65.6979 53.9505 65.3724 53.8438 64.9297 53.8438C64.5495 53.8438 64.2552 53.9297 64.0469 54.1016C63.8385 54.2734 63.7344 54.4922 63.7344 54.7578C63.7344 55.0078 63.8516 55.2109 64.0859 55.3672C64.3255 55.5182 64.7266 55.651 65.2891 55.7656C65.8516 55.875 66.3255 56 66.7109 56.1406C67.9036 56.5781 68.5 57.3359 68.5 58.4141C68.5 59.1849 68.1693 59.8099 67.5078 60.2891C66.8464 60.763 65.9922 61 64.9453 61C64.237 61 63.6068 60.875 63.0547 60.625C62.5078 60.3698 62.0781 60.0234 61.7656 59.5859C61.4531 59.1432 61.2969 58.6667 61.2969 58.1562H63.4375C63.4583 58.5573 63.6068 58.8646 63.8828 59.0781C64.1589 59.2917 64.5286 59.3984 64.9922 59.3984C65.4245 59.3984 65.75 59.3177 65.9688 59.1562C66.1927 58.9896 66.3047 58.7734 66.3047 58.5078Z" fill="#0C0029"/>
<defs>
<linearGradient id="paint0_linear_1607_42313" x1="0" y1="57.3438" x2="117" y2="57.3438" gradientUnits="userSpaceOnUse">
<stop stop-color="#A1C4FD"/>
<stop offset="1" stop-color="#C2E9FB"/>
</linearGradient>
</defs>
</svg>
