<svg width="195" height="194" viewBox="0 0 195 194" fill="none" xmlns="http://www.w3.org/2000/svg">
<path d="M145.55 40.861C145.279 38.4329 143.296 36.6621 140.853 36.6667C130.475 36.6865 103.047 38.4589 87.6913 55.6534C72.336 72.8479 73.6647 100.302 74.8142 110.616C75.0848 113.044 77.0678 114.815 79.5109 114.81C89.889 114.79 117.318 113.018 132.673 95.8234C148.028 78.6289 146.699 51.1753 145.55 40.861Z" fill="#8A81FF"/>
<path d="M26.3124 30.9848C26.4651 28.5465 28.347 26.6647 30.7853 26.5119C42.6325 25.7698 77.2408 25.5535 97.563 45.8757C117.885 66.198 117.669 100.806 116.927 112.653C116.774 115.092 114.892 116.974 112.454 117.126C100.607 117.869 65.9984 118.085 45.6762 97.7626C25.354 77.4403 25.5702 42.8321 26.3124 30.9848Z" fill="#6A5EFF"/>
<path d="M25.835 165.137C25.835 164.276 26.2843 163.686 27.1831 163.367L28.5031 163.002C29.4393 162.684 29.9074 162.104 29.9074 161.261V132.951C29.9074 132.108 29.4393 131.528 28.5031 131.21L27.1831 130.844C26.2843 130.526 25.835 129.936 25.835 129.075C25.835 127.989 26.5277 127.446 27.9133 127.446H44.1186C48.7246 127.446 52.7596 128.345 56.2234 130.142C59.706 131.921 62.4023 134.393 64.3121 137.557C66.2406 140.702 67.2049 144.326 67.2049 148.426C67.2049 151.965 66.381 155.12 64.7334 157.891C63.0857 160.643 60.7265 162.815 57.6558 164.407C54.6039 165.979 50.9715 166.766 46.7586 166.766H27.9133C26.5277 166.766 25.835 166.223 25.835 165.137ZM45.4948 163.311C48.5655 163.311 51.0838 162.104 53.0498 159.688C55.0158 157.254 55.9988 153.453 55.9988 148.286C55.9988 142.874 54.8285 138.624 52.4881 135.535C50.1476 132.445 46.9365 130.901 42.8548 130.901H40.8045V160.447C40.8045 162.356 41.853 163.311 43.9501 163.311H45.4948Z" fill="#3C3253"/>
<path d="M85.264 139.158C88.2972 139.158 90.956 139.757 93.2403 140.955C95.5433 142.154 97.3314 143.829 98.6046 145.983C99.8778 148.117 100.514 150.598 100.514 153.425C100.514 156.084 99.8497 158.481 98.5203 160.615C97.2097 162.731 95.3747 164.407 93.0156 165.642C90.6751 166.878 87.9695 167.496 84.8989 167.496C81.8656 167.496 79.1975 166.897 76.8945 165.699C74.6102 164.482 72.8315 162.806 71.5583 160.671C70.2851 158.518 69.6485 156.047 69.6485 153.257C69.6485 150.56 70.3038 148.154 71.6144 146.039C72.9438 143.904 74.7787 142.228 77.1192 141.011C79.4784 139.776 82.1933 139.158 85.264 139.158ZM87.2861 163.985C88.784 163.704 89.7951 162.619 90.3194 160.727C90.8436 158.836 90.75 156.075 90.0385 152.442C89.3457 148.903 88.3627 146.32 87.0895 144.691C85.835 143.062 84.4308 142.397 82.8767 142.697C81.3788 142.977 80.3677 144.063 79.8435 145.954C79.3192 147.827 79.4128 150.589 80.1243 154.24C80.8171 157.76 81.7907 160.334 83.0452 161.963C84.3184 163.592 85.7321 164.266 87.2861 163.985Z" fill="#3C3253"/>
<path d="M105.232 158.733V146.937C105.232 146.394 105.158 146.011 105.008 145.786C104.858 145.561 104.615 145.402 104.278 145.308L103.238 145.168C102.546 144.981 102.199 144.56 102.199 143.904C102.199 143.511 102.302 143.202 102.508 142.977C102.733 142.753 103.135 142.528 103.716 142.303L109.417 140.141C110.297 139.804 110.99 139.57 111.496 139.439C112.02 139.308 112.469 139.242 112.844 139.242C113.611 139.242 114.182 139.448 114.557 139.86C114.95 140.253 115.147 140.768 115.147 141.405V157.329C115.147 158.733 115.484 159.791 116.158 160.503C116.832 161.214 117.749 161.57 118.91 161.57C120.352 161.57 121.775 161.027 123.179 159.941V146.937C123.179 146.394 123.104 146.011 122.954 145.786C122.805 145.561 122.571 145.402 122.252 145.308L121.185 145.168C120.492 144.981 120.146 144.56 120.146 143.904C120.146 143.511 120.249 143.202 120.455 142.977C120.679 142.753 121.091 142.528 121.691 142.303L127.364 140.141C128.206 139.822 128.88 139.598 129.386 139.467C129.91 139.317 130.416 139.242 130.903 139.242C131.614 139.242 132.157 139.448 132.532 139.86C132.906 140.253 133.093 140.768 133.093 141.405V161.514C133.093 162.207 133.159 162.703 133.29 163.002C133.44 163.283 133.674 163.48 133.992 163.592L134.806 163.873C135.574 164.173 135.958 164.659 135.958 165.333C135.958 166.288 135.34 166.766 134.104 166.766H127.869C126.802 166.766 125.857 166.373 125.033 165.586C124.209 164.781 123.722 163.779 123.572 162.581C121.475 164.397 119.612 165.67 117.983 166.401C116.373 167.131 114.856 167.496 113.433 167.496C110.981 167.496 108.996 166.7 107.479 165.109C105.981 163.499 105.232 161.373 105.232 158.733Z" fill="#3C3253"/>
<path d="M151.292 126.856V161.514C151.292 162.207 151.357 162.703 151.489 163.002C151.638 163.283 151.872 163.48 152.191 163.592L153.005 163.873C153.773 164.173 154.157 164.659 154.157 165.333C154.157 166.288 153.539 166.766 152.303 166.766H140.367C139.131 166.766 138.513 166.288 138.513 165.333C138.513 164.678 138.887 164.191 139.636 163.873L140.507 163.592C140.807 163.48 141.022 163.283 141.153 163.002C141.303 162.703 141.378 162.216 141.378 161.542V132.389C141.378 131.846 141.303 131.462 141.153 131.238C141.003 131.013 140.76 130.854 140.423 130.76L139.384 130.62C138.691 130.433 138.344 130.011 138.344 129.356C138.344 128.963 138.447 128.654 138.653 128.429C138.878 128.204 139.281 127.98 139.861 127.755L145.562 125.592C146.442 125.255 147.135 125.021 147.641 124.89C148.165 124.759 148.614 124.694 148.989 124.694C149.757 124.694 150.328 124.9 150.702 125.312C151.095 125.705 151.292 126.22 151.292 126.856Z" fill="#3C3253"/>
<path d="M156.296 160.84C156.296 158.368 157.4 156.402 159.61 154.942C161.819 153.481 164.909 152.751 168.878 152.751C170.282 152.751 171.527 152.882 172.613 153.144V144.915C172.613 143.904 172.342 143.108 171.799 142.528C171.275 141.948 170.544 141.657 169.608 141.657C168.822 141.657 168.185 141.835 167.698 142.191C167.212 142.547 166.968 142.987 166.968 143.511V146.291C166.968 147.64 166.509 148.688 165.592 149.437C164.674 150.167 163.383 150.532 161.716 150.532C160.256 150.532 159.17 150.214 158.458 149.577C157.747 148.941 157.391 148.061 157.391 146.937C157.391 145.72 157.915 144.522 158.964 143.343C160.012 142.144 161.576 141.152 163.654 140.365C165.732 139.579 168.326 139.186 171.434 139.186C175.141 139.186 177.893 139.897 179.691 141.32C181.507 142.743 182.415 144.681 182.415 147.134V161.149C182.415 162.085 182.808 162.553 183.595 162.553C183.95 162.553 184.222 162.459 184.409 162.272C184.615 162.085 184.802 161.907 184.971 161.739C185.083 161.607 185.205 161.495 185.336 161.401C185.467 161.308 185.617 161.261 185.785 161.261C186.328 161.261 186.6 161.626 186.6 162.356C186.6 163.087 186.338 163.854 185.814 164.659C185.289 165.446 184.512 166.12 183.482 166.682C182.453 167.225 181.17 167.496 179.635 167.496C178.043 167.496 176.695 167.196 175.59 166.597C174.504 165.998 173.802 165.193 173.484 164.182C172.454 165.249 171.172 166.073 169.636 166.653C168.101 167.215 166.491 167.496 164.806 167.496C162.259 167.496 160.2 166.878 158.627 165.642C157.073 164.388 156.296 162.787 156.296 160.84ZM166.35 159.127C166.35 160.437 166.669 161.43 167.305 162.104C167.942 162.778 168.766 163.115 169.777 163.115C170.788 163.115 171.733 162.824 172.613 162.244V155.504C171.883 155.241 171.115 155.11 170.31 155.11C169.075 155.11 168.101 155.466 167.389 156.178C166.697 156.87 166.35 157.853 166.35 159.127Z" fill="#3C3253"/>
</svg>
