
<svg width="362" height="370" viewBox="0 0 362 370" fill="none" xmlns="http://www.w3.org/2000/svg">
<g filter="url(#filter0_d_1607_48477)">
<rect x="17.064" y="17" width="327" height="71.7635" rx="6" fill="white"/>
</g>
<rect x="33.064" y="70" width="295" height="3" rx="1.5" fill="#DDD1FB"/>
<rect x="33" y="70.1458" width="129" height="3" rx="1.5" fill="#692CFF"/>
<path d="M44.3315 48.3828C43.8569 48.9512 43.186 49.3936 42.3188 49.71C41.4517 50.0205 40.4907 50.1758 39.436 50.1758C38.3286 50.1758 37.356 49.9355 36.5181 49.4551C35.686 48.9688 35.0415 48.2656 34.5845 47.3457C34.1333 46.4258 33.9019 45.3447 33.8901 44.1025V43.2324C33.8901 41.9551 34.104 40.8506 34.5317 39.9189C34.9653 38.9814 35.5864 38.2666 36.395 37.7744C37.2095 37.2764 38.1616 37.0273 39.2515 37.0273C40.769 37.0273 41.9556 37.3906 42.811 38.1172C43.6665 38.8379 44.1733 39.8896 44.3315 41.2725H41.7651C41.6479 40.54 41.3872 40.0039 40.9829 39.6641C40.5845 39.3242 40.0337 39.1543 39.3306 39.1543C38.4341 39.1543 37.7515 39.4912 37.2827 40.165C36.814 40.8389 36.5767 41.8408 36.5708 43.1709V43.9883C36.5708 45.3301 36.8257 46.3438 37.3354 47.0293C37.8452 47.7148 38.5923 48.0576 39.5767 48.0576C40.5669 48.0576 41.2729 47.8467 41.6948 47.4248V45.2188H39.2954V43.2764H44.3315V48.3828ZM48.9897 50H46.4409V40.4902H48.9897V50ZM46.2915 38.0293C46.2915 37.6484 46.4175 37.335 46.6694 37.0889C46.9272 36.8428 47.2759 36.7197 47.7153 36.7197C48.1489 36.7197 48.4946 36.8428 48.7524 37.0889C49.0103 37.335 49.1392 37.6484 49.1392 38.0293C49.1392 38.416 49.0073 38.7324 48.7437 38.9785C48.4858 39.2246 48.1431 39.3477 47.7153 39.3477C47.2876 39.3477 46.9419 39.2246 46.6782 38.9785C46.4204 38.7324 46.2915 38.416 46.2915 38.0293ZM54.6499 46.8975L56.4165 40.4902H59.0708L55.8628 50H53.437L50.229 40.4902H52.8833L54.6499 46.8975ZM62.8765 50H60.3276V40.4902H62.8765V50ZM60.1782 38.0293C60.1782 37.6484 60.3042 37.335 60.5562 37.0889C60.814 36.8428 61.1626 36.7197 61.6021 36.7197C62.0356 36.7197 62.3813 36.8428 62.6392 37.0889C62.897 37.335 63.0259 37.6484 63.0259 38.0293C63.0259 38.416 62.894 38.7324 62.6304 38.9785C62.3726 39.2246 62.0298 39.3477 61.6021 39.3477C61.1743 39.3477 60.8286 39.2246 60.5649 38.9785C60.3071 38.7324 60.1782 38.416 60.1782 38.0293ZM67.3149 40.4902L67.394 41.5889C68.0737 40.7393 68.9849 40.3145 70.1274 40.3145C71.1353 40.3145 71.8853 40.6104 72.3774 41.2021C72.8696 41.7939 73.1216 42.6787 73.1333 43.8564V50H70.5933V43.918C70.5933 43.3789 70.4761 42.9893 70.2417 42.749C70.0073 42.5029 69.6177 42.3799 69.0728 42.3799C68.3579 42.3799 67.8218 42.6846 67.4644 43.2939V50H64.9243V40.4902H67.3149ZM74.6978 45.1748C74.6978 43.7158 75.0435 42.541 75.7349 41.6504C76.4321 40.7598 77.3696 40.3145 78.5474 40.3145C79.5903 40.3145 80.4019 40.6719 80.9819 41.3867L81.0874 40.4902H83.3901V49.6836C83.3901 50.5156 83.1997 51.2393 82.8188 51.8545C82.4438 52.4697 81.9136 52.9385 81.228 53.2607C80.5425 53.583 79.7397 53.7441 78.8198 53.7441C78.1226 53.7441 77.4429 53.6035 76.7808 53.3223C76.1187 53.0469 75.6177 52.6895 75.2778 52.25L76.4028 50.7031C77.0356 51.4121 77.8032 51.7666 78.7056 51.7666C79.3794 51.7666 79.9038 51.585 80.2788 51.2217C80.6538 50.8643 80.8413 50.3545 80.8413 49.6924V49.1826C80.2554 49.8447 79.4849 50.1758 78.5298 50.1758C77.3872 50.1758 76.4614 49.7305 75.7524 48.8398C75.0493 47.9434 74.6978 46.7568 74.6978 45.2803V45.1748ZM77.2378 45.3594C77.2378 46.2207 77.4106 46.8975 77.7563 47.3896C78.1021 47.876 78.5767 48.1191 79.1802 48.1191C79.9536 48.1191 80.5073 47.8291 80.8413 47.249V43.25C80.5015 42.6699 79.9536 42.3799 79.1978 42.3799C78.5884 42.3799 78.1079 42.6289 77.7563 43.127C77.4106 43.625 77.2378 44.3691 77.2378 45.3594ZM98.4019 45.333C98.4019 46.8564 98.0767 48.0459 97.4263 48.9014C96.7759 49.751 95.8677 50.1758 94.7017 50.1758C93.6704 50.1758 92.8472 49.7803 92.2319 48.9893L92.1177 50H89.8325V36.5H92.3726V41.3428C92.9585 40.6572 93.729 40.3145 94.6841 40.3145C95.8442 40.3145 96.7524 40.7422 97.4087 41.5977C98.0708 42.4473 98.4019 43.6455 98.4019 45.1924V45.333ZM95.8618 45.1484C95.8618 44.1875 95.7095 43.4873 95.4048 43.0479C95.1001 42.6025 94.646 42.3799 94.0425 42.3799C93.2339 42.3799 92.6772 42.7109 92.3726 43.373V47.126C92.6831 47.7939 93.2456 48.1279 94.0601 48.1279C94.8804 48.1279 95.4194 47.7236 95.6772 46.915C95.8003 46.5283 95.8618 45.9395 95.8618 45.1484ZM102.656 50H100.107V40.4902H102.656V50ZM99.9575 38.0293C99.9575 37.6484 100.083 37.335 100.335 37.0889C100.593 36.8428 100.942 36.7197 101.381 36.7197C101.815 36.7197 102.161 36.8428 102.418 37.0889C102.676 37.335 102.805 37.6484 102.805 38.0293C102.805 38.416 102.673 38.7324 102.41 38.9785C102.152 39.2246 101.809 39.3477 101.381 39.3477C100.954 39.3477 100.608 39.2246 100.344 38.9785C100.086 38.7324 99.9575 38.416 99.9575 38.0293ZM110.1 42.8721C109.754 42.8252 109.45 42.8018 109.186 42.8018C108.225 42.8018 107.595 43.127 107.296 43.7773V50H104.756V40.4902H107.156L107.226 41.624C107.736 40.751 108.442 40.3145 109.344 40.3145C109.625 40.3145 109.889 40.3525 110.135 40.4287L110.1 42.8721ZM114.811 38.1523V40.4902H116.437V42.3535H114.811V47.0996C114.811 47.4512 114.878 47.7031 115.013 47.8555C115.148 48.0078 115.406 48.084 115.787 48.084C116.068 48.084 116.317 48.0635 116.534 48.0225V49.9473C116.036 50.0996 115.523 50.1758 114.996 50.1758C113.214 50.1758 112.306 49.2764 112.271 47.4775V42.3535H110.882V40.4902H112.271V38.1523H114.811ZM120.331 41.5273C121.004 40.7188 121.851 40.3145 122.871 40.3145C124.933 40.3145 125.979 41.5127 126.008 43.9092V50H123.468V43.9795C123.468 43.4346 123.351 43.0332 123.117 42.7754C122.882 42.5117 122.493 42.3799 121.948 42.3799C121.204 42.3799 120.665 42.667 120.331 43.2412V50H117.791V36.5H120.331V41.5273Z" fill="#0C0029"/>
<path d="M302.363 51H296.773V50.2207L299.726 46.9395C300.164 46.4434 300.464 46.041 300.628 45.7324C300.796 45.4199 300.88 45.0977 300.88 44.7656C300.88 44.3203 300.746 43.9551 300.476 43.6699C300.207 43.3848 299.847 43.2422 299.398 43.2422C298.859 43.2422 298.439 43.3965 298.138 43.7051C297.841 44.0098 297.693 44.4355 297.693 44.9824H296.609C296.609 44.1973 296.861 43.5625 297.365 43.0781C297.873 42.5938 298.55 42.3516 299.398 42.3516C300.191 42.3516 300.818 42.5605 301.279 42.9785C301.74 43.3926 301.97 43.9453 301.97 44.6367C301.97 45.4766 301.435 46.4766 300.365 47.6367L298.08 50.1152H302.363V51ZM303.839 51.7324H302.908L306.47 42.4688H307.396L303.839 51.7324ZM308.955 46.7227L309.388 42.4688H313.759V43.4707H310.308L310.05 45.7969C310.468 45.5508 310.943 45.4277 311.474 45.4277C312.251 45.4277 312.869 45.6855 313.326 46.2012C313.783 46.7129 314.011 47.4062 314.011 48.2812C314.011 49.1602 313.773 49.8535 313.296 50.3613C312.824 50.8652 312.162 51.1172 311.31 51.1172C310.556 51.1172 309.941 50.9082 309.464 50.4902C308.988 50.0723 308.716 49.4941 308.65 48.7559H309.675C309.742 49.2441 309.916 49.6133 310.197 49.8633C310.478 50.1094 310.849 50.2324 311.31 50.2324C311.814 50.2324 312.208 50.0605 312.494 49.7168C312.783 49.373 312.927 48.8984 312.927 48.293C312.927 47.7227 312.771 47.2656 312.458 46.9219C312.15 46.5742 311.738 46.4004 311.222 46.4004C310.75 46.4004 310.378 46.5039 310.109 46.7109L309.822 46.9453L308.955 46.7227Z" fill="#7C7195"/>
<g filter="url(#filter1_d_1607_48477)">
<rect x="17.064" y="104.763" width="327" height="71.7635" rx="6" fill="white"/>
</g>
<rect x="33.064" y="157.763" width="295" height="3" rx="1.5" fill="#DDD1FB"/>
<rect x="33" y="158.146" width="241" height="3" rx="1.5" fill="#692CFF"/>
<path d="M44.2524 133.501C44.1528 134.878 43.6431 135.962 42.7231 136.753C41.8091 137.544 40.6021 137.939 39.1021 137.939C37.4614 137.939 36.1694 137.388 35.2261 136.287C34.2886 135.179 33.8198 133.662 33.8198 131.734V130.952C33.8198 129.721 34.0366 128.637 34.4702 127.7C34.9038 126.762 35.522 126.045 36.3247 125.547C37.1333 125.043 38.0708 124.791 39.1372 124.791C40.6138 124.791 41.8032 125.186 42.7056 125.977C43.6079 126.768 44.1294 127.879 44.27 129.308H41.6333C41.5688 128.482 41.3374 127.885 40.939 127.515C40.5464 127.14 39.9458 126.953 39.1372 126.953C38.2583 126.953 37.5991 127.269 37.1597 127.902C36.7261 128.529 36.5034 129.505 36.4917 130.829V131.796C36.4917 133.178 36.6997 134.189 37.1157 134.828C37.5376 135.467 38.1997 135.786 39.1021 135.786C39.9165 135.786 40.5229 135.601 40.9214 135.232C41.3257 134.857 41.5571 134.28 41.6157 133.501H44.2524ZM45.4214 132.921C45.4214 131.977 45.603 131.136 45.9663 130.398C46.3296 129.66 46.8511 129.089 47.5308 128.684C48.2163 128.28 49.0103 128.078 49.9126 128.078C51.1958 128.078 52.2417 128.47 53.0503 129.256C53.8647 130.041 54.3188 131.107 54.4126 132.455L54.4302 133.105C54.4302 134.564 54.0229 135.736 53.2085 136.621C52.394 137.5 51.3013 137.939 49.9302 137.939C48.5591 137.939 47.4634 137.5 46.6431 136.621C45.8286 135.742 45.4214 134.547 45.4214 133.035V132.921ZM47.9614 133.105C47.9614 134.008 48.1313 134.699 48.4712 135.179C48.811 135.654 49.2974 135.891 49.9302 135.891C50.5454 135.891 51.0259 135.657 51.3716 135.188C51.7173 134.714 51.8901 133.958 51.8901 132.921C51.8901 132.036 51.7173 131.35 51.3716 130.864C51.0259 130.378 50.5396 130.135 49.9126 130.135C49.2915 130.135 48.811 130.378 48.4712 130.864C48.1313 131.344 47.9614 132.092 47.9614 133.105ZM58.3765 128.254L58.4556 129.317C59.1294 128.491 60.0405 128.078 61.189 128.078C62.4136 128.078 63.2544 128.561 63.7114 129.528C64.3794 128.561 65.3315 128.078 66.5679 128.078C67.5991 128.078 68.3667 128.38 68.8706 128.983C69.3745 129.581 69.6265 130.483 69.6265 131.69V137.763H67.0776V131.699C67.0776 131.16 66.9722 130.767 66.7612 130.521C66.5503 130.269 66.1782 130.143 65.645 130.143C64.8833 130.143 64.356 130.507 64.063 131.233L64.0718 137.763H61.5317V131.708C61.5317 131.157 61.4233 130.759 61.2065 130.512C60.9897 130.266 60.6206 130.143 60.0991 130.143C59.3784 130.143 58.8569 130.442 58.5347 131.04V137.763H55.9946V128.254H58.3765ZM80.147 133.096C80.147 134.561 79.813 135.736 79.145 136.621C78.4829 137.5 77.5864 137.939 76.4556 137.939C75.4946 137.939 74.7183 137.605 74.1265 136.937V141.42H71.5864V128.254H73.9419L74.0298 129.185C74.645 128.447 75.4478 128.078 76.438 128.078C77.6099 128.078 78.521 128.511 79.1714 129.379C79.8218 130.246 80.147 131.441 80.147 132.965V133.096ZM77.6069 132.912C77.6069 132.027 77.4487 131.344 77.1323 130.864C76.8218 130.384 76.3677 130.143 75.77 130.143C74.9731 130.143 74.4253 130.448 74.1265 131.057V134.951C74.437 135.578 74.9907 135.891 75.7876 135.891C77.0005 135.891 77.6069 134.898 77.6069 132.912ZM87.2397 137.763C87.1226 137.535 87.0376 137.251 86.9849 136.911C86.3696 137.596 85.5698 137.939 84.5854 137.939C83.6538 137.939 82.8804 137.67 82.2651 137.131C81.6558 136.592 81.3511 135.912 81.3511 135.092C81.3511 134.084 81.7231 133.31 82.4673 132.771C83.2173 132.232 84.2983 131.96 85.7104 131.954H86.8794V131.409C86.8794 130.969 86.7651 130.618 86.5366 130.354C86.314 130.091 85.9595 129.959 85.4731 129.959C85.0454 129.959 84.7085 130.061 84.4624 130.266C84.2222 130.471 84.1021 130.753 84.1021 131.11H81.562C81.562 130.559 81.7319 130.05 82.0718 129.581C82.4116 129.112 82.8921 128.746 83.5132 128.482C84.1343 128.213 84.8315 128.078 85.605 128.078C86.7769 128.078 87.7056 128.374 88.3911 128.966C89.0825 129.552 89.4282 130.378 89.4282 131.444V135.566C89.4341 136.469 89.5601 137.151 89.8062 137.614V137.763H87.2397ZM85.1392 135.997C85.5142 135.997 85.8599 135.915 86.1763 135.751C86.4927 135.581 86.7271 135.355 86.8794 135.074V133.439H85.9302C84.6587 133.439 83.9819 133.879 83.8999 134.758L83.8911 134.907C83.8911 135.223 84.0024 135.484 84.2251 135.689C84.4478 135.894 84.7524 135.997 85.1392 135.997ZM93.7173 128.254L93.7964 129.352C94.4761 128.503 95.3872 128.078 96.5298 128.078C97.5376 128.078 98.2876 128.374 98.7798 128.966C99.272 129.557 99.5239 130.442 99.5356 131.62V137.763H96.9956V131.681C96.9956 131.142 96.8784 130.753 96.644 130.512C96.4097 130.266 96.02 130.143 95.4751 130.143C94.7603 130.143 94.2241 130.448 93.8667 131.057V137.763H91.3267V128.254H93.7173ZM104.15 137.763H101.601V128.254H104.15V137.763ZM101.452 125.793C101.452 125.412 101.578 125.098 101.83 124.852C102.087 124.606 102.436 124.483 102.875 124.483C103.309 124.483 103.655 124.606 103.913 124.852C104.17 125.098 104.299 125.412 104.299 125.793C104.299 126.179 104.167 126.496 103.904 126.742C103.646 126.988 103.303 127.111 102.875 127.111C102.448 127.111 102.102 126.988 101.838 126.742C101.581 126.496 101.452 126.179 101.452 125.793ZM105.855 132.921C105.855 131.977 106.037 131.136 106.4 130.398C106.763 129.66 107.285 129.089 107.964 128.684C108.65 128.28 109.444 128.078 110.346 128.078C111.629 128.078 112.675 128.47 113.484 129.256C114.298 130.041 114.752 131.107 114.846 132.455L114.864 133.105C114.864 134.564 114.457 135.736 113.642 136.621C112.828 137.5 111.735 137.939 110.364 137.939C108.993 137.939 107.897 137.5 107.077 136.621C106.262 135.742 105.855 134.547 105.855 133.035V132.921ZM108.395 133.105C108.395 134.008 108.565 134.699 108.905 135.179C109.245 135.654 109.731 135.891 110.364 135.891C110.979 135.891 111.459 135.657 111.805 135.188C112.151 134.714 112.324 133.958 112.324 132.921C112.324 132.036 112.151 131.35 111.805 130.864C111.459 130.378 110.973 130.135 110.346 130.135C109.725 130.135 109.245 130.378 108.905 130.864C108.565 131.344 108.395 132.092 108.395 133.105ZM118.766 128.254L118.845 129.352C119.525 128.503 120.436 128.078 121.579 128.078C122.586 128.078 123.336 128.374 123.829 128.966C124.321 129.557 124.573 130.442 124.584 131.62V137.763H122.044V131.681C122.044 131.142 121.927 130.753 121.693 130.512C121.458 130.266 121.069 130.143 120.524 130.143C119.809 130.143 119.273 130.448 118.916 131.057V137.763H116.375V128.254H118.766Z" fill="#0C0029"/>
<path d="M300.271 138.763H299.182V131.539L296.996 132.342V131.357L300.102 130.191H300.271V138.763ZM309.037 138.763H303.447V137.984L306.4 134.703C306.838 134.207 307.139 133.804 307.303 133.496C307.471 133.183 307.555 132.861 307.555 132.529C307.555 132.084 307.42 131.719 307.15 131.433C306.881 131.148 306.521 131.006 306.072 131.006C305.533 131.006 305.113 131.16 304.812 131.469C304.516 131.773 304.367 132.199 304.367 132.746H303.283C303.283 131.961 303.535 131.326 304.039 130.842C304.547 130.357 305.225 130.115 306.072 130.115C306.865 130.115 307.492 130.324 307.953 130.742C308.414 131.156 308.645 131.709 308.645 132.4C308.645 133.24 308.109 134.24 307.039 135.4L304.754 137.879H309.037V138.763ZM310.514 139.496H309.582L313.145 130.232H314.07L310.514 139.496ZM318.693 138.763H317.604V131.539L315.418 132.342V131.357L318.523 130.191H318.693V138.763ZM322.367 134.486L322.801 130.232H327.172V131.234H323.721L323.463 133.56C323.881 133.314 324.355 133.191 324.887 133.191C325.664 133.191 326.281 133.449 326.738 133.965C327.195 134.476 327.424 135.17 327.424 136.045C327.424 136.924 327.186 137.617 326.709 138.125C326.236 138.629 325.574 138.881 324.723 138.881C323.969 138.881 323.354 138.672 322.877 138.254C322.4 137.836 322.129 137.258 322.062 136.519H323.088C323.154 137.008 323.328 137.377 323.609 137.627C323.891 137.873 324.262 137.996 324.723 137.996C325.227 137.996 325.621 137.824 325.906 137.48C326.195 137.136 326.34 136.662 326.34 136.056C326.34 135.486 326.184 135.029 325.871 134.685C325.562 134.338 325.15 134.164 324.635 134.164C324.162 134.164 323.791 134.267 323.521 134.474L323.234 134.709L322.367 134.486Z" fill="#7C7195"/>
<g filter="url(#filter2_d_1607_48477)">
<rect x="17.064" y="192.527" width="327" height="71.7635" rx="6" fill="white"/>
</g>
<rect x="33.064" y="245.527" width="295" height="3" rx="1.5" fill="#DDD1FB"/>
<rect x="33" y="245.146" width="298" height="3" rx="1.5" fill="#692CFF"/>
<path d="M36.8433 221.018V225.527H34.2065V212.73H39.1987C40.1597 212.73 41.0034 212.906 41.73 213.257C42.4624 213.609 43.0249 214.11 43.4175 214.76C43.8101 215.405 44.0063 216.14 44.0063 216.966C44.0063 218.22 43.5757 219.211 42.7144 219.937C41.8589 220.658 40.6724 221.018 39.1548 221.018H36.8433ZM36.8433 218.882H39.1987C39.896 218.882 40.4263 218.718 40.7896 218.39C41.1587 218.062 41.3433 217.593 41.3433 216.984C41.3433 216.357 41.1587 215.85 40.7896 215.464C40.4204 215.077 39.9106 214.878 39.2603 214.866H36.8433V218.882ZM51.064 225.527C50.9468 225.298 50.8618 225.014 50.8091 224.674C50.1938 225.36 49.394 225.703 48.4097 225.703C47.478 225.703 46.7046 225.433 46.0894 224.894C45.48 224.355 45.1753 223.675 45.1753 222.855C45.1753 221.847 45.5474 221.074 46.2915 220.535C47.0415 219.996 48.1226 219.723 49.5347 219.717H50.7036V219.172C50.7036 218.733 50.5894 218.381 50.3608 218.118C50.1382 217.854 49.7837 217.722 49.2974 217.722C48.8696 217.722 48.5327 217.825 48.2866 218.03C48.0464 218.235 47.9263 218.516 47.9263 218.874H45.3862C45.3862 218.323 45.5562 217.813 45.896 217.344C46.2358 216.876 46.7163 216.509 47.3374 216.246C47.9585 215.976 48.6558 215.841 49.4292 215.841C50.6011 215.841 51.5298 216.137 52.2153 216.729C52.9067 217.315 53.2524 218.141 53.2524 219.208V223.33C53.2583 224.232 53.3843 224.915 53.6304 225.378V225.527H51.064ZM48.9634 223.76C49.3384 223.76 49.6841 223.678 50.0005 223.514C50.3169 223.344 50.5513 223.119 50.7036 222.838V221.203H49.7544C48.4829 221.203 47.8062 221.642 47.7241 222.521L47.7153 222.671C47.7153 222.987 47.8267 223.248 48.0493 223.453C48.272 223.658 48.5767 223.76 48.9634 223.76ZM57.8843 225.527H55.3354V216.017H57.8843V225.527ZM55.186 213.556C55.186 213.175 55.312 212.862 55.564 212.616C55.8218 212.37 56.1704 212.247 56.6099 212.247C57.0435 212.247 57.3892 212.37 57.647 212.616C57.9048 212.862 58.0337 213.175 58.0337 213.556C58.0337 213.943 57.9019 214.259 57.6382 214.505C57.3804 214.752 57.0376 214.875 56.6099 214.875C56.1821 214.875 55.8364 214.752 55.5728 214.505C55.3149 214.259 55.186 213.943 55.186 213.556ZM62.3228 216.017L62.4019 217.116C63.0815 216.266 63.9927 215.841 65.1353 215.841C66.1431 215.841 66.8931 216.137 67.3853 216.729C67.8774 217.321 68.1294 218.206 68.1411 219.383V225.527H65.6011V219.445C65.6011 218.906 65.4839 218.516 65.2495 218.276C65.0151 218.03 64.6255 217.907 64.0806 217.907C63.3657 217.907 62.8296 218.212 62.4722 218.821V225.527H59.9321V216.017H62.3228ZM76.939 216.017L77.0181 217.081C77.6919 216.255 78.603 215.841 79.7515 215.841C80.9761 215.841 81.8169 216.325 82.2739 217.292C82.9419 216.325 83.894 215.841 85.1304 215.841C86.1616 215.841 86.9292 216.143 87.4331 216.747C87.937 217.344 88.189 218.247 88.189 219.454V225.527H85.6401V219.463C85.6401 218.923 85.5347 218.531 85.3237 218.285C85.1128 218.033 84.7407 217.907 84.2075 217.907C83.4458 217.907 82.9185 218.27 82.6255 218.997L82.6343 225.527H80.0942V219.471C80.0942 218.921 79.9858 218.522 79.769 218.276C79.5522 218.03 79.1831 217.907 78.6616 217.907C77.9409 217.907 77.4194 218.206 77.0972 218.803V225.527H74.5571V216.017H76.939ZM95.6597 225.527C95.5425 225.298 95.4575 225.014 95.4048 224.674C94.7896 225.36 93.9897 225.703 93.0054 225.703C92.0737 225.703 91.3003 225.433 90.6851 224.894C90.0757 224.355 89.771 223.675 89.771 222.855C89.771 221.847 90.1431 221.074 90.8872 220.535C91.6372 219.996 92.7183 219.723 94.1304 219.717H95.2993V219.172C95.2993 218.733 95.1851 218.381 94.9565 218.118C94.7339 217.854 94.3794 217.722 93.8931 217.722C93.4653 217.722 93.1284 217.825 92.8823 218.03C92.6421 218.235 92.522 218.516 92.522 218.874H89.9819C89.9819 218.323 90.1519 217.813 90.4917 217.344C90.8315 216.876 91.312 216.509 91.9331 216.246C92.5542 215.976 93.2515 215.841 94.0249 215.841C95.1968 215.841 96.1255 216.137 96.811 216.729C97.5024 217.315 97.8481 218.141 97.8481 219.208V223.33C97.854 224.232 97.98 224.915 98.2261 225.378V225.527H95.6597ZM93.5591 223.76C93.9341 223.76 94.2798 223.678 94.5962 223.514C94.9126 223.344 95.147 223.119 95.2993 222.838V221.203H94.3501C93.0786 221.203 92.4019 221.642 92.3198 222.521L92.311 222.671C92.311 222.987 92.4224 223.248 92.645 223.453C92.8677 223.658 93.1724 223.76 93.5591 223.76ZM102.137 216.017L102.216 217.116C102.896 216.266 103.807 215.841 104.95 215.841C105.958 215.841 106.708 216.137 107.2 216.729C107.692 217.321 107.944 218.206 107.956 219.383V225.527H105.416V219.445C105.416 218.906 105.298 218.516 105.064 218.276C104.83 218.03 104.44 217.907 103.895 217.907C103.18 217.907 102.644 218.212 102.287 218.821V225.527H99.7466V216.017H102.137ZM115.4 225.527C115.283 225.298 115.198 225.014 115.145 224.674C114.53 225.36 113.73 225.703 112.746 225.703C111.814 225.703 111.041 225.433 110.425 224.894C109.816 224.355 109.511 223.675 109.511 222.855C109.511 221.847 109.883 221.074 110.627 220.535C111.377 219.996 112.458 219.723 113.871 219.717H115.04V219.172C115.04 218.733 114.925 218.381 114.697 218.118C114.474 217.854 114.12 217.722 113.633 217.722C113.206 217.722 112.869 217.825 112.623 218.03C112.382 218.235 112.262 218.516 112.262 218.874H109.722C109.722 218.323 109.892 217.813 110.232 217.344C110.572 216.876 111.052 216.509 111.673 216.246C112.294 215.976 112.992 215.841 113.765 215.841C114.937 215.841 115.866 216.137 116.551 216.729C117.243 217.315 117.588 218.141 117.588 219.208V223.33C117.594 224.232 117.72 224.915 117.966 225.378V225.527H115.4ZM113.299 223.76C113.674 223.76 114.02 223.678 114.336 223.514C114.653 223.344 114.887 223.119 115.04 222.838V221.203H114.09C112.819 221.203 112.142 221.642 112.06 222.521L112.051 222.671C112.051 222.987 112.163 223.248 112.385 223.453C112.608 223.658 112.913 223.76 113.299 223.76ZM119.17 220.702C119.17 219.243 119.516 218.068 120.208 217.177C120.905 216.287 121.842 215.841 123.02 215.841C124.063 215.841 124.875 216.199 125.455 216.914L125.56 216.017H127.863V225.211C127.863 226.043 127.672 226.766 127.292 227.381C126.917 227.997 126.386 228.465 125.701 228.788C125.015 229.11 124.212 229.271 123.292 229.271C122.595 229.271 121.916 229.13 121.253 228.849C120.591 228.574 120.09 228.216 119.75 227.777L120.875 226.23C121.508 226.939 122.276 227.294 123.178 227.294C123.852 227.294 124.376 227.112 124.751 226.749C125.126 226.391 125.314 225.881 125.314 225.219V224.71C124.728 225.372 123.958 225.703 123.002 225.703C121.86 225.703 120.934 225.257 120.225 224.367C119.522 223.47 119.17 222.284 119.17 220.807V220.702ZM121.71 220.886C121.71 221.748 121.883 222.424 122.229 222.917C122.575 223.403 123.049 223.646 123.653 223.646C124.426 223.646 124.98 223.356 125.314 222.776V218.777C124.974 218.197 124.426 217.907 123.67 217.907C123.061 217.907 122.581 218.156 122.229 218.654C121.883 219.152 121.71 219.896 121.71 220.886ZM134.2 225.703C132.805 225.703 131.668 225.275 130.79 224.42C129.917 223.564 129.48 222.424 129.48 221.001V220.755C129.48 219.799 129.665 218.947 130.034 218.197C130.403 217.441 130.924 216.861 131.598 216.457C132.278 216.047 133.051 215.841 133.918 215.841C135.219 215.841 136.242 216.252 136.986 217.072C137.736 217.892 138.111 219.055 138.111 220.561V221.598H132.055C132.137 222.219 132.383 222.717 132.793 223.092C133.209 223.467 133.734 223.655 134.367 223.655C135.345 223.655 136.11 223.3 136.661 222.591L137.909 223.989C137.528 224.528 137.012 224.95 136.362 225.255C135.711 225.553 134.991 225.703 134.2 225.703ZM133.91 217.898C133.406 217.898 132.996 218.068 132.679 218.408C132.369 218.748 132.169 219.234 132.082 219.867H135.615V219.665C135.603 219.102 135.451 218.669 135.158 218.364C134.865 218.053 134.449 217.898 133.91 217.898ZM141.943 216.017L142.022 217.081C142.696 216.255 143.607 215.841 144.755 215.841C145.98 215.841 146.821 216.325 147.278 217.292C147.946 216.325 148.898 215.841 150.134 215.841C151.166 215.841 151.933 216.143 152.437 216.747C152.941 217.344 153.193 218.247 153.193 219.454V225.527H150.644V219.463C150.644 218.923 150.539 218.531 150.328 218.285C150.117 218.033 149.745 217.907 149.211 217.907C148.45 217.907 147.922 218.27 147.629 218.997L147.638 225.527H145.098V219.471C145.098 218.921 144.99 218.522 144.773 218.276C144.556 218.03 144.187 217.907 143.666 217.907C142.945 217.907 142.423 218.206 142.101 218.803V225.527H139.561V216.017H141.943ZM159.53 225.703C158.135 225.703 156.999 225.275 156.12 224.42C155.247 223.564 154.81 222.424 154.81 221.001V220.755C154.81 219.799 154.995 218.947 155.364 218.197C155.733 217.441 156.254 216.861 156.928 216.457C157.608 216.047 158.381 215.841 159.249 215.841C160.549 215.841 161.572 216.252 162.316 217.072C163.066 217.892 163.441 219.055 163.441 220.561V221.598H157.385C157.467 222.219 157.713 222.717 158.124 223.092C158.54 223.467 159.064 223.655 159.697 223.655C160.675 223.655 161.44 223.3 161.991 222.591L163.239 223.989C162.858 224.528 162.342 224.95 161.692 225.255C161.042 225.553 160.321 225.703 159.53 225.703ZM159.24 217.898C158.736 217.898 158.326 218.068 158.009 218.408C157.699 218.748 157.5 219.234 157.412 219.867H160.945V219.665C160.933 219.102 160.781 218.669 160.488 218.364C160.195 218.053 159.779 217.898 159.24 217.898ZM167.229 216.017L167.308 217.116C167.988 216.266 168.899 215.841 170.042 215.841C171.049 215.841 171.799 216.137 172.292 216.729C172.784 217.321 173.036 218.206 173.047 219.383V225.527H170.507V219.445C170.507 218.906 170.39 218.516 170.156 218.276C169.921 218.03 169.532 217.907 168.987 217.907C168.272 217.907 167.736 218.212 167.378 218.821V225.527H164.838V216.017H167.229ZM178.022 213.679V216.017H179.648V217.88H178.022V222.627C178.022 222.978 178.089 223.23 178.224 223.382C178.359 223.535 178.617 223.611 178.998 223.611C179.279 223.611 179.528 223.59 179.745 223.549V225.474C179.247 225.627 178.734 225.703 178.207 225.703C176.425 225.703 175.517 224.803 175.482 223.005V217.88H174.093V216.017H175.482V213.679H178.022Z" fill="#0C0029"/>
<path d="M302.299 226.527H296.709V225.748L299.662 222.466C300.1 221.97 300.4 221.568 300.564 221.259C300.732 220.947 300.816 220.625 300.816 220.293C300.816 219.847 300.682 219.482 300.412 219.197C300.143 218.912 299.783 218.769 299.334 218.769C298.795 218.769 298.375 218.923 298.074 219.232C297.777 219.537 297.629 219.963 297.629 220.509H296.545C296.545 219.724 296.797 219.089 297.301 218.605C297.809 218.121 298.486 217.879 299.334 217.879C300.127 217.879 300.754 218.088 301.215 218.505C301.676 218.92 301.906 219.472 301.906 220.164C301.906 221.004 301.371 222.004 300.301 223.164L298.016 225.642H302.299V226.527ZM308.797 222.888C308.797 224.158 308.58 225.101 308.146 225.718C307.713 226.336 307.035 226.644 306.113 226.644C305.203 226.644 304.529 226.343 304.092 225.742C303.654 225.136 303.428 224.234 303.412 223.035V221.588C303.412 220.334 303.629 219.402 304.062 218.793C304.496 218.183 305.176 217.879 306.102 217.879C307.02 217.879 307.695 218.173 308.129 218.763C308.562 219.349 308.785 220.255 308.797 221.482V222.888ZM307.713 221.406C307.713 220.488 307.584 219.82 307.326 219.402C307.068 218.98 306.66 218.769 306.102 218.769C305.547 218.769 305.143 218.978 304.889 219.396C304.635 219.814 304.504 220.457 304.496 221.324V223.058C304.496 223.98 304.629 224.662 304.895 225.103C305.164 225.541 305.57 225.759 306.113 225.759C306.648 225.759 307.045 225.552 307.303 225.138C307.564 224.724 307.701 224.072 307.713 223.181V221.406ZM310.514 227.259H309.582L313.145 217.996H314.07L310.514 227.259ZM320.721 226.527H315.131V225.748L318.084 222.466C318.521 221.97 318.822 221.568 318.986 221.259C319.154 220.947 319.238 220.625 319.238 220.293C319.238 219.847 319.104 219.482 318.834 219.197C318.564 218.912 318.205 218.769 317.756 218.769C317.217 218.769 316.797 218.923 316.496 219.232C316.199 219.537 316.051 219.963 316.051 220.509H314.967C314.967 219.724 315.219 219.089 315.723 218.605C316.23 218.121 316.908 217.879 317.756 217.879C318.549 217.879 319.176 218.088 319.637 218.505C320.098 218.92 320.328 219.472 320.328 220.164C320.328 221.004 319.793 222.004 318.723 223.164L316.438 225.642H320.721V226.527ZM327.219 222.888C327.219 224.158 327.002 225.101 326.568 225.718C326.135 226.336 325.457 226.644 324.535 226.644C323.625 226.644 322.951 226.343 322.514 225.742C322.076 225.136 321.85 224.234 321.834 223.035V221.588C321.834 220.334 322.051 219.402 322.484 218.793C322.918 218.183 323.598 217.879 324.523 217.879C325.441 217.879 326.117 218.173 326.551 218.763C326.984 219.349 327.207 220.255 327.219 221.482V222.888ZM326.135 221.406C326.135 220.488 326.006 219.82 325.748 219.402C325.49 218.98 325.082 218.769 324.523 218.769C323.969 218.769 323.564 218.978 323.311 219.396C323.057 219.814 322.926 220.457 322.918 221.324V223.058C322.918 223.98 323.051 224.662 323.316 225.103C323.586 225.541 323.992 225.759 324.535 225.759C325.07 225.759 325.467 225.552 325.725 225.138C325.986 224.724 326.123 224.072 326.135 223.181V221.406Z" fill="#7C7195"/>
<g filter="url(#filter3_d_1607_48477)">
<rect x="17.064" y="280.29" width="327" height="71.7635" rx="6" fill="white"/>
</g>
<rect x="33.064" y="333.29" width="295" height="3" rx="1.5" fill="#DDD1FB"/>
<rect x="33" y="333.146" width="188" height="3" rx="1.5" fill="#692CFF"/>
<path d="M34.2065 313.29V300.494H38.689C40.2417 300.494 41.4194 300.792 42.2222 301.39C43.0249 301.982 43.4263 302.852 43.4263 304C43.4263 304.627 43.2651 305.181 42.9429 305.661C42.6206 306.136 42.1724 306.485 41.5981 306.707C42.2544 306.871 42.77 307.203 43.145 307.701C43.5259 308.199 43.7163 308.808 43.7163 309.529C43.7163 310.759 43.3237 311.691 42.5386 312.324C41.7534 312.956 40.6343 313.279 39.1812 313.29H34.2065ZM36.8433 307.718V311.172H39.1021C39.7231 311.172 40.2065 311.026 40.5522 310.733C40.9038 310.434 41.0796 310.024 41.0796 309.502C41.0796 308.33 40.4731 307.736 39.2603 307.718H36.8433ZM36.8433 305.855H38.7944C40.1245 305.831 40.7896 305.301 40.7896 304.264C40.7896 303.684 40.6196 303.268 40.2798 303.016C39.9458 302.758 39.4155 302.629 38.689 302.629H36.8433V305.855ZM51.0464 313.29C50.9292 313.062 50.8442 312.778 50.7915 312.438C50.1763 313.123 49.3765 313.466 48.3921 313.466C47.4604 313.466 46.687 313.197 46.0718 312.658C45.4624 312.119 45.1577 311.439 45.1577 310.619C45.1577 309.611 45.5298 308.837 46.2739 308.298C47.0239 307.759 48.105 307.487 49.5171 307.481H50.686V306.936C50.686 306.496 50.5718 306.145 50.3433 305.881C50.1206 305.618 49.7661 305.486 49.2798 305.486C48.8521 305.486 48.5151 305.588 48.269 305.793C48.0288 305.998 47.9087 306.28 47.9087 306.637H45.3687C45.3687 306.086 45.5386 305.577 45.8784 305.108C46.2183 304.639 46.6987 304.273 47.3198 304.009C47.9409 303.74 48.6382 303.605 49.4116 303.605C50.5835 303.605 51.5122 303.901 52.1978 304.493C52.8892 305.078 53.2349 305.905 53.2349 306.971V311.093C53.2407 311.995 53.3667 312.678 53.6128 313.141V313.29H51.0464ZM48.9458 311.524C49.3208 311.524 49.6665 311.442 49.9829 311.278C50.2993 311.108 50.5337 310.882 50.686 310.601V308.966H49.7368C48.4653 308.966 47.7886 309.406 47.7065 310.285L47.6978 310.434C47.6978 310.75 47.8091 311.011 48.0317 311.216C48.2544 311.421 48.5591 311.524 48.9458 311.524ZM63.7554 308.623C63.7554 310.147 63.4302 311.336 62.7798 312.192C62.1294 313.041 61.2212 313.466 60.0552 313.466C59.0239 313.466 58.2007 313.071 57.5854 312.28L57.4712 313.29H55.186V299.79H57.7261V304.633C58.312 303.948 59.0825 303.605 60.0376 303.605C61.1978 303.605 62.106 304.033 62.7622 304.888C63.4243 305.738 63.7554 306.936 63.7554 308.483V308.623ZM61.2153 308.439C61.2153 307.478 61.063 306.778 60.7583 306.338C60.4536 305.893 59.9995 305.67 59.396 305.67C58.5874 305.67 58.0308 306.001 57.7261 306.663V310.416C58.0366 311.084 58.5991 311.418 59.4136 311.418C60.2339 311.418 60.7729 311.014 61.0308 310.205C61.1538 309.819 61.2153 309.23 61.2153 308.439ZM68.7739 309.696L70.5317 303.781H73.2563L69.4331 314.767L69.2222 315.268C68.6538 316.51 67.7163 317.131 66.4097 317.131C66.0405 317.131 65.6655 317.076 65.2847 316.964V315.039L65.6714 315.048C66.1519 315.048 66.5093 314.975 66.7437 314.828C66.9839 314.682 67.1714 314.439 67.3062 314.099L67.605 313.317L64.2739 303.781H67.0073L68.7739 309.696ZM82.6958 311.418C83.1646 311.418 83.5454 311.289 83.8384 311.032C84.1313 310.774 84.2837 310.431 84.2954 310.003H86.6772C86.6714 310.648 86.4956 311.24 86.1499 311.779C85.8042 312.312 85.3296 312.728 84.7261 313.027C84.1284 313.32 83.4663 313.466 82.7397 313.466C81.3804 313.466 80.3081 313.036 79.5229 312.174C78.7378 311.307 78.3452 310.112 78.3452 308.588V308.421C78.3452 306.956 78.7349 305.787 79.5142 304.914C80.2935 304.041 81.3628 303.605 82.7222 303.605C83.9116 303.605 84.8638 303.945 85.5786 304.624C86.2993 305.298 86.6655 306.198 86.6772 307.323H84.2954C84.2837 306.83 84.1313 306.432 83.8384 306.127C83.5454 305.817 83.1587 305.661 82.6782 305.661C82.0864 305.661 81.6382 305.878 81.3335 306.312C81.0347 306.74 80.8853 307.437 80.8853 308.404V308.667C80.8853 309.646 81.0347 310.349 81.3335 310.777C81.6323 311.204 82.0864 311.418 82.6958 311.418ZM93.6382 313.29C93.521 313.062 93.436 312.778 93.3833 312.438C92.7681 313.123 91.9683 313.466 90.9839 313.466C90.0522 313.466 89.2788 313.197 88.6636 312.658C88.0542 312.119 87.7495 311.439 87.7495 310.619C87.7495 309.611 88.1216 308.837 88.8657 308.298C89.6157 307.759 90.6968 307.487 92.1089 307.481H93.2778V306.936C93.2778 306.496 93.1636 306.145 92.9351 305.881C92.7124 305.618 92.3579 305.486 91.8716 305.486C91.4438 305.486 91.1069 305.588 90.8608 305.793C90.6206 305.998 90.5005 306.28 90.5005 306.637H87.9604C87.9604 306.086 88.1304 305.577 88.4702 305.108C88.8101 304.639 89.2905 304.273 89.9116 304.009C90.5327 303.74 91.23 303.605 92.0034 303.605C93.1753 303.605 94.104 303.901 94.7896 304.493C95.481 305.078 95.8267 305.905 95.8267 306.971V311.093C95.8325 311.995 95.9585 312.678 96.2046 313.141V313.29H93.6382ZM91.5376 311.524C91.9126 311.524 92.2583 311.442 92.5747 311.278C92.8911 311.108 93.1255 310.882 93.2778 310.601V308.966H92.3286C91.0571 308.966 90.3804 309.406 90.2983 310.285L90.2896 310.434C90.2896 310.75 90.4009 311.011 90.6235 311.216C90.8462 311.421 91.1509 311.524 91.5376 311.524ZM103.122 306.162C102.776 306.116 102.471 306.092 102.208 306.092C101.247 306.092 100.617 306.417 100.318 307.068V313.29H97.7778V303.781H100.177L100.248 304.914C100.757 304.041 101.463 303.605 102.366 303.605C102.647 303.605 102.911 303.643 103.157 303.719L103.122 306.162ZM108.553 313.466C107.159 313.466 106.022 313.038 105.143 312.183C104.27 311.328 103.833 310.188 103.833 308.764V308.518C103.833 307.563 104.018 306.71 104.387 305.96C104.756 305.204 105.278 304.624 105.952 304.22C106.631 303.81 107.405 303.605 108.272 303.605C109.573 303.605 110.595 304.015 111.339 304.835C112.089 305.656 112.464 306.819 112.464 308.325V309.362H106.409C106.491 309.983 106.737 310.481 107.147 310.856C107.563 311.231 108.087 311.418 108.72 311.418C109.699 311.418 110.463 311.064 111.014 310.355L112.262 311.752C111.881 312.291 111.366 312.713 110.715 313.018C110.065 313.317 109.344 313.466 108.553 313.466ZM108.263 305.661C107.759 305.661 107.349 305.831 107.033 306.171C106.722 306.511 106.523 306.997 106.435 307.63H109.968V307.428C109.957 306.866 109.804 306.432 109.511 306.127C109.218 305.817 108.802 305.661 108.263 305.661Z" fill="#0C0029"/>
<path d="M307.803 305.609V306.529H307.604C306.76 306.544 306.088 306.794 305.588 307.279C305.088 307.763 304.799 308.445 304.721 309.324C305.17 308.808 305.783 308.55 306.561 308.55C307.303 308.55 307.895 308.812 308.336 309.335C308.781 309.859 309.004 310.535 309.004 311.363C309.004 312.242 308.764 312.945 308.283 313.472C307.807 313.999 307.166 314.263 306.361 314.263C305.545 314.263 304.883 313.951 304.375 313.326C303.867 312.697 303.613 311.888 303.613 310.9V310.484C303.613 308.913 303.947 307.714 304.615 306.886C305.287 306.054 306.285 305.628 307.609 305.609H307.803ZM306.379 309.453C306.008 309.453 305.666 309.564 305.354 309.786C305.041 310.009 304.824 310.288 304.703 310.624V311.023C304.703 311.726 304.861 312.292 305.178 312.722C305.494 313.152 305.889 313.367 306.361 313.367C306.85 313.367 307.232 313.187 307.51 312.828C307.791 312.468 307.932 311.997 307.932 311.415C307.932 310.829 307.789 310.357 307.504 309.997C307.223 309.634 306.848 309.453 306.379 309.453ZM310.615 314.878H309.684L313.246 305.615H314.172L310.615 314.878ZM318.795 314.146H317.705V306.921L315.52 307.724V306.74L318.625 305.574H318.795V314.146ZM327.32 310.507C327.32 311.777 327.104 312.72 326.67 313.337C326.236 313.954 325.559 314.263 324.637 314.263C323.727 314.263 323.053 313.962 322.615 313.361C322.178 312.755 321.951 311.853 321.936 310.654V309.206C321.936 307.953 322.152 307.021 322.586 306.411C323.02 305.802 323.699 305.497 324.625 305.497C325.543 305.497 326.219 305.792 326.652 306.382C327.086 306.968 327.309 307.874 327.32 309.101V310.507ZM326.236 309.025C326.236 308.107 326.107 307.439 325.85 307.021C325.592 306.599 325.184 306.388 324.625 306.388C324.07 306.388 323.666 306.597 323.412 307.015C323.158 307.433 323.027 308.076 323.02 308.943V310.677C323.02 311.599 323.152 312.281 323.418 312.722C323.688 313.16 324.094 313.378 324.637 313.378C325.172 313.378 325.568 313.171 325.826 312.757C326.088 312.343 326.225 311.691 326.236 310.8V309.025Z" fill="#7C7195"/>
<defs>
<filter id="filter0_d_1607_48477" x="0.0639648" y="0" width="361" height="105.763" filterUnits="userSpaceOnUse" color-interpolation-filters="sRGB">
<feFlood flood-opacity="0" result="BackgroundImageFix"/>
<feColorMatrix in="SourceAlpha" type="matrix" values="0 0 0 0 0 0 0 0 0 0 0 0 0 0 0 0 0 0 127 0" result="hardAlpha"/>
<feMorphology radius="6" operator="dilate" in="SourceAlpha" result="effect1_dropShadow_1607_48477"/>
<feOffset/>
<feGaussianBlur stdDeviation="5.5"/>
<feComposite in2="hardAlpha" operator="out"/>
<feColorMatrix type="matrix" values="0 0 0 0 0.34902 0 0 0 0 0.27451 0 0 0 0 0.698039 0 0 0 0.06 0"/>
<feBlend mode="normal" in2="BackgroundImageFix" result="effect1_dropShadow_1607_48477"/>
<feBlend mode="normal" in="SourceGraphic" in2="effect1_dropShadow_1607_48477" result="shape"/>
</filter>
<filter id="filter1_d_1607_48477" x="0.0639648" y="87.7634" width="361" height="105.763" filterUnits="userSpaceOnUse" color-interpolation-filters="sRGB">
<feFlood flood-opacity="0" result="BackgroundImageFix"/>
<feColorMatrix in="SourceAlpha" type="matrix" values="0 0 0 0 0 0 0 0 0 0 0 0 0 0 0 0 0 0 127 0" result="hardAlpha"/>
<feMorphology radius="6" operator="dilate" in="SourceAlpha" result="effect1_dropShadow_1607_48477"/>
<feOffset/>
<feGaussianBlur stdDeviation="5.5"/>
<feComposite in2="hardAlpha" operator="out"/>
<feColorMatrix type="matrix" values="0 0 0 0 0.34902 0 0 0 0 0.27451 0 0 0 0 0.698039 0 0 0 0.06 0"/>
<feBlend mode="normal" in2="BackgroundImageFix" result="effect1_dropShadow_1607_48477"/>
<feBlend mode="normal" in="SourceGraphic" in2="effect1_dropShadow_1607_48477" result="shape"/>
</filter>
<filter id="filter2_d_1607_48477" x="0.0639648" y="175.527" width="361" height="105.763" filterUnits="userSpaceOnUse" color-interpolation-filters="sRGB">
<feFlood flood-opacity="0" result="BackgroundImageFix"/>
<feColorMatrix in="SourceAlpha" type="matrix" values="0 0 0 0 0 0 0 0 0 0 0 0 0 0 0 0 0 0 127 0" result="hardAlpha"/>
<feMorphology radius="6" operator="dilate" in="SourceAlpha" result="effect1_dropShadow_1607_48477"/>
<feOffset/>
<feGaussianBlur stdDeviation="5.5"/>
<feComposite in2="hardAlpha" operator="out"/>
<feColorMatrix type="matrix" values="0 0 0 0 0.34902 0 0 0 0 0.27451 0 0 0 0 0.698039 0 0 0 0.06 0"/>
<feBlend mode="normal" in2="BackgroundImageFix" result="effect1_dropShadow_1607_48477"/>
<feBlend mode="normal" in="SourceGraphic" in2="effect1_dropShadow_1607_48477" result="shape"/>
</filter>
<filter id="filter3_d_1607_48477" x="0.0639648" y="263.29" width="361" height="105.763" filterUnits="userSpaceOnUse" color-interpolation-filters="sRGB">
<feFlood flood-opacity="0" result="BackgroundImageFix"/>
<feColorMatrix in="SourceAlpha" type="matrix" values="0 0 0 0 0 0 0 0 0 0 0 0 0 0 0 0 0 0 127 0" result="hardAlpha"/>
<feMorphology radius="6" operator="dilate" in="SourceAlpha" result="effect1_dropShadow_1607_48477"/>
<feOffset/>
<feGaussianBlur stdDeviation="5.5"/>
<feComposite in2="hardAlpha" operator="out"/>
<feColorMatrix type="matrix" values="0 0 0 0 0.34902 0 0 0 0 0.27451 0 0 0 0 0.698039 0 0 0 0.06 0"/>
<feBlend mode="normal" in2="BackgroundImageFix" result="effect1_dropShadow_1607_48477"/>
<feBlend mode="normal" in="SourceGraphic" in2="effect1_dropShadow_1607_48477" result="shape"/>
</filter>
</defs>
</svg>
