<svg width="295" height="274" viewBox="0 0 295 274" fill="none" xmlns="http://www.w3.org/2000/svg">
<rect y="0.0656738" width="139.527" height="128.564" rx="3.64479" fill="url(#paint0_linear_1607_40409)"/>
<mask id="mask0_1607_40409" style="mask-type:alpha" maskUnits="userSpaceOnUse" x="0" y="0" width="140" height="129">
<rect y="0.0656738" width="139.527" height="128.564" rx="3.64479" fill="url(#paint1_linear_1607_40409)"/>
</mask>
<g mask="url(#mask0_1607_40409)">
<g style="mix-blend-mode:overlay" opacity="0.4">
<path d="M65.9181 112.787L80.4004 130.714C82.0029 132.75 84.1738 134.263 86.6378 135.064C89.1018 135.864 91.748 135.914 94.2407 135.208L107.011 131.526C108.737 131.03 110.549 130.899 112.328 131.143C114.108 131.387 115.818 131.999 117.347 132.941L155 156.159H2.4082L46.3189 111.725C47.6164 110.394 49.1836 109.356 50.9154 108.68C52.6472 108.004 54.5034 107.706 56.3596 107.807C58.2159 107.908 60.0291 108.404 61.6777 109.263C63.3263 110.122 64.7721 111.324 65.9181 112.787Z" fill="#FF9D6C"/>
<path opacity="0.8" d="M65.9181 112.787L80.4004 130.714C82.0029 132.75 84.1738 134.263 86.6378 135.064C89.1018 135.864 91.748 135.914 94.2407 135.208L107.011 131.526C108.737 131.03 110.549 130.899 112.328 131.143C114.108 131.387 115.818 131.999 117.347 132.941L155 156.159H2.4082L46.3189 111.725C47.6164 110.394 49.1836 109.356 50.9154 108.68C52.6472 108.004 54.5034 107.706 56.3596 107.807C58.2159 107.908 60.0291 108.404 61.6777 109.263C63.3263 110.122 64.7721 111.324 65.9181 112.787Z" fill="white"/>
<path d="M85.3588 80.0654C84.5265 79.8395 83.4366 79.5303 83.1829 79.4392C82.7628 79.2846 83.4683 77.9608 81.4469 77.5526C79.4256 77.1443 78.4546 77.3782 78.4546 77.3782C78.4546 77.3782 79.4652 75.7254 78.4189 74.5681C78.147 74.2414 77.8121 73.9726 77.4342 73.7779C77.0563 73.5832 76.6431 73.4664 76.2192 73.4346C76.2192 73.4346 75.7198 71.8888 73.0881 72.1425C70.4564 72.3962 71.0469 74.3026 70.5872 75.0556C70.1274 75.8087 68.9265 75.0556 67.8128 75.7294C66.6991 76.4032 67.4402 76.8431 66.5603 77.4416C65.6805 78.0401 65.1058 77.7943 64.4994 77.937C63.893 78.0797 63.9247 78.2065 63.3777 78.595C62.8308 78.9834 62.4978 79.1934 61.1661 79.5145C60.4448 79.6889 59.3984 79.9108 58.5859 80.0654H85.3588Z" fill="#FF9D6C"/>
<path opacity="0.5" d="M85.3588 80.0654C84.5265 79.8395 83.4366 79.5303 83.1829 79.4392C82.7628 79.2846 83.4683 77.9608 81.4469 77.5526C79.4256 77.1443 78.4546 77.3782 78.4546 77.3782C78.4546 77.3782 79.4652 75.7254 78.4189 74.5681C78.147 74.2414 77.8121 73.9726 77.4342 73.7779C77.0563 73.5832 76.6431 73.4664 76.2192 73.4346C76.2192 73.4346 75.7198 71.8888 73.0881 72.1425C70.4564 72.3962 71.0469 74.3026 70.5872 75.0556C70.1274 75.8087 68.9265 75.0556 67.8128 75.7294C66.6991 76.4032 67.4402 76.8431 66.5603 77.4416C65.6805 78.0401 65.1058 77.7943 64.4994 77.937C63.893 78.0797 63.9247 78.2065 63.3777 78.595C62.8308 78.9834 62.4978 79.1934 61.1661 79.5145C60.4448 79.6889 59.3984 79.9108 58.5859 80.0654H85.3588Z" fill="white"/>
<path d="M74.6972 67.8461C72.9295 67.3626 69.5091 66.4153 68.8313 66.1656C67.9078 65.8287 69.4496 62.9315 65.0264 62.0397C60.6033 61.1479 58.4828 61.6433 58.4828 61.6433C58.4828 61.6433 60.6944 58.0247 58.3996 55.4921C56.1048 52.9595 53.584 53.0308 53.584 53.0308C53.584 53.0308 52.4862 49.65 46.7313 50.201C40.9764 50.7519 42.2645 54.9293 41.2618 56.5741C40.259 58.219 37.6233 56.6138 35.166 58.0485C32.7087 59.4833 34.3733 60.49 32.4273 61.7979C30.4812 63.1059 29.2565 62.5668 27.9209 62.8879C26.5852 63.2089 26.6605 63.4745 25.4636 64.3226C24.2666 65.1708 23.5373 65.6306 20.6242 66.336C18.5236 66.8434 15.1547 67.5251 13.4346 67.8501L74.6972 67.8461Z" fill="#FF9D6C"/>
<path opacity="0.5" d="M74.6972 67.8461C72.9295 67.3626 69.5091 66.4153 68.8313 66.1656C67.9078 65.8287 69.4496 62.9315 65.0264 62.0397C60.6033 61.1479 58.4828 61.6433 58.4828 61.6433C58.4828 61.6433 60.6944 58.0247 58.3996 55.4921C56.1048 52.9595 53.584 53.0308 53.584 53.0308C53.584 53.0308 52.4862 49.65 46.7313 50.201C40.9764 50.7519 42.2645 54.9293 41.2618 56.5741C40.259 58.219 37.6233 56.6138 35.166 58.0485C32.7087 59.4833 34.3733 60.49 32.4273 61.7979C30.4812 63.1059 29.2565 62.5668 27.9209 62.8879C26.5852 63.2089 26.6605 63.4745 25.4636 64.3226C24.2666 65.1708 23.5373 65.6306 20.6242 66.336C18.5236 66.8434 15.1547 67.5251 13.4346 67.8501L74.6972 67.8461Z" fill="white"/>
<path d="M83.5131 59.5902C86.9168 58.1636 88.5195 54.2479 87.0929 50.8442C85.6664 47.4405 81.7507 45.8378 78.347 47.2644C74.9433 48.6909 73.3406 52.6066 74.7671 56.0103C76.1937 59.414 80.1094 61.0167 83.5131 59.5902Z" fill="#FF9D6C"/>
<path opacity="0.7" d="M83.5131 59.5902C86.9168 58.1636 88.5195 54.2479 87.0929 50.8442C85.6664 47.4405 81.7507 45.8378 78.347 47.2644C74.9433 48.6909 73.3406 52.6066 74.7671 56.0103C76.1937 59.414 80.1094 61.0167 83.5131 59.5902Z" fill="white"/>
<path d="M147.537 154.756C146.9 153.894 146.179 153.098 145.385 152.378C145.296 152.306 145.198 152.245 145.095 152.196C145.816 151.855 146.498 151.438 147.129 150.951C148.429 149.881 143.629 151.102 141.124 151.787C140.973 151.716 140.815 151.641 140.636 151.565C142.384 150.341 145.963 147.479 146.185 144.431C146.494 140.404 139.051 149.699 139.051 149.699C139.051 149.699 143.391 136.064 140.91 132.347C138.429 128.629 136.574 150.008 136.574 150.008C136.574 150.008 135.971 137.301 132.563 137.61C129.154 137.919 135.662 147.836 134.735 149.386C133.807 150.935 133.803 143.187 130.375 142.568C127.803 142.101 131.762 147.99 133.859 150.892C133.659 150.827 133.453 150.781 133.245 150.753C131.679 150.555 131.093 152.338 128.94 151.942C126.788 151.546 126.4 149.96 123.273 149.746C120.146 149.532 119.361 151.542 118.58 152.54C117.799 153.539 115.647 152.144 114.668 150.559C113.689 148.973 110.954 150.757 109.389 150.559C107.823 150.361 107.237 145.569 104.502 146.369C101.767 147.17 102.544 151.756 102.544 151.756C102.148 153.151 100.784 152.548 100.003 152.548C99.2226 152.548 97.2647 152.35 95.3107 153.147C93.3568 153.943 92.572 156.151 92.572 156.151H153.208L147.537 154.756Z" fill="#FF9D6C"/>
<path opacity="0.6" d="M147.537 154.756C146.9 153.894 146.179 153.098 145.385 152.378C145.296 152.306 145.198 152.245 145.095 152.196C145.816 151.855 146.498 151.438 147.129 150.951C148.429 149.881 143.629 151.102 141.124 151.787C140.973 151.716 140.815 151.641 140.636 151.565C142.384 150.341 145.963 147.479 146.185 144.431C146.494 140.404 139.051 149.699 139.051 149.699C139.051 149.699 143.391 136.064 140.91 132.347C138.429 128.629 136.574 150.008 136.574 150.008C136.574 150.008 135.971 137.301 132.563 137.61C129.154 137.919 135.662 147.836 134.735 149.386C133.807 150.935 133.803 143.187 130.375 142.568C127.803 142.101 131.762 147.99 133.859 150.892C133.659 150.827 133.453 150.781 133.245 150.753C131.679 150.555 131.093 152.338 128.94 151.942C126.788 151.546 126.4 149.96 123.273 149.746C120.146 149.532 119.361 151.542 118.58 152.54C117.799 153.539 115.647 152.144 114.668 150.559C113.689 148.973 110.954 150.757 109.389 150.559C107.823 150.361 107.237 145.569 104.502 146.369C101.767 147.17 102.544 151.756 102.544 151.756C102.148 153.151 100.784 152.548 100.003 152.548C99.2226 152.548 97.2647 152.35 95.3107 153.147C93.3568 153.943 92.572 156.151 92.572 156.151H153.208L147.537 154.756Z" fill="white"/>
<path d="M105.255 154.756C104.619 153.895 103.899 153.098 103.107 152.378C103.016 152.307 102.917 152.246 102.814 152.196C103.534 151.855 104.216 151.438 104.847 150.951C106.147 149.881 101.347 151.102 98.8422 151.787C98.6956 151.716 98.5331 151.641 98.3547 151.565C100.103 150.341 103.682 147.479 103.903 144.431C104.213 140.404 96.7693 149.699 96.7693 149.699C96.7693 149.699 101.109 136.064 98.6282 132.347C96.1471 128.629 94.2922 150.008 94.2922 150.008C94.2922 150.008 93.6699 137.305 90.2614 137.614C86.8528 137.923 93.3608 147.84 92.4333 149.389C91.5059 150.939 91.5019 143.191 88.0934 142.572C85.5211 142.105 89.4806 147.994 91.5772 150.896C91.377 150.831 91.1714 150.785 90.9629 150.757C89.3974 150.559 88.8108 152.342 86.6586 151.946C84.5065 151.55 84.1181 149.964 80.9909 149.75C77.8638 149.536 77.0791 151.546 76.2983 152.544C75.5175 153.543 73.3653 152.148 72.3864 150.563C71.4074 148.977 68.6726 150.761 67.1071 150.563C65.5415 150.364 64.9549 145.573 62.2202 146.373C59.4854 147.174 60.2623 151.76 60.2623 151.76C59.8659 153.155 58.5025 152.552 57.7217 152.552C56.9409 152.552 54.983 152.354 53.029 153.151C51.075 153.947 50.2903 156.155 50.2903 156.155H110.927L105.255 154.756Z" fill="#FF9D6C"/>
<path opacity="0.6" d="M105.255 154.756C104.619 153.895 103.899 153.098 103.107 152.378C103.016 152.307 102.917 152.246 102.814 152.196C103.534 151.855 104.216 151.438 104.847 150.951C106.147 149.881 101.347 151.102 98.8422 151.787C98.6956 151.716 98.5331 151.641 98.3547 151.565C100.103 150.341 103.682 147.479 103.903 144.431C104.213 140.404 96.7693 149.699 96.7693 149.699C96.7693 149.699 101.109 136.064 98.6282 132.347C96.1471 128.629 94.2922 150.008 94.2922 150.008C94.2922 150.008 93.6699 137.305 90.2614 137.614C86.8528 137.923 93.3608 147.84 92.4333 149.389C91.5059 150.939 91.5019 143.191 88.0934 142.572C85.5211 142.105 89.4806 147.994 91.5772 150.896C91.377 150.831 91.1714 150.785 90.9629 150.757C89.3974 150.559 88.8108 152.342 86.6586 151.946C84.5065 151.55 84.1181 149.964 80.9909 149.75C77.8638 149.536 77.0791 151.546 76.2983 152.544C75.5175 153.543 73.3653 152.148 72.3864 150.563C71.4074 148.977 68.6726 150.761 67.1071 150.563C65.5415 150.364 64.9549 145.573 62.2202 146.373C59.4854 147.174 60.2623 151.76 60.2623 151.76C59.8659 153.155 58.5025 152.552 57.7217 152.552C56.9409 152.552 54.983 152.354 53.029 153.151C51.075 153.947 50.2903 156.155 50.2903 156.155H110.927L105.255 154.756Z" fill="white"/>
<path d="M132.341 99.922C131.448 98.5414 130.91 96.9611 130.776 95.322C130.642 93.683 130.915 92.0363 131.572 90.5287C132.223 89.0164 132.561 87.3875 132.563 85.7409C132.553 83.4454 131.905 81.1978 130.692 79.2488C129.933 78.0015 129.46 76.6006 129.309 75.1479C129.159 73.6952 129.333 72.2272 129.82 70.8504C130.345 69.3717 130.614 67.814 130.613 66.2449C130.613 61.2549 127.93 56.8238 123.776 54.0217C123.776 53.871 123.776 53.7244 123.776 53.5738C123.776 46.1741 119.416 40.1735 114.026 40.1735C109.666 40.1735 106.008 44.0854 104.752 49.4875C104.275 51.6662 103.104 53.6314 101.415 55.0878C98.0773 57.886 95.9965 61.8494 95.9965 66.2449C95.9964 67.5181 96.1724 68.7852 96.5197 70.0101C96.9072 71.449 96.9681 72.9564 96.6979 74.4218C96.4277 75.8873 95.8333 77.2738 94.9581 78.4799C93.432 80.5953 92.601 83.1326 92.58 85.7409C92.5831 87.5698 92.999 89.3745 93.7968 91.0202C94.5165 92.5123 94.8569 94.1589 94.7878 95.8141C94.7187 97.4692 94.2421 99.0818 93.4005 100.509C91.9097 102.962 91.1175 105.775 91.1096 108.646C91.1096 118.74 100.931 126.921 113.043 126.921C125.155 126.921 134.973 118.74 134.973 108.646C134.968 105.543 134.053 102.51 132.341 99.922Z" fill="#FF9D6C"/>
<path opacity="0.5" d="M132.341 99.922C131.448 98.5414 130.91 96.9611 130.776 95.322C130.642 93.683 130.915 92.0363 131.572 90.5287C132.223 89.0164 132.561 87.3875 132.563 85.7409C132.553 83.4454 131.905 81.1978 130.692 79.2488C129.933 78.0015 129.46 76.6006 129.309 75.1479C129.159 73.6952 129.333 72.2272 129.82 70.8504C130.345 69.3717 130.614 67.814 130.613 66.2449C130.613 61.2549 127.93 56.8238 123.776 54.0217C123.776 53.871 123.776 53.7244 123.776 53.5738C123.776 46.1741 119.416 40.1735 114.026 40.1735C109.666 40.1735 106.008 44.0854 104.752 49.4875C104.275 51.6662 103.104 53.6314 101.415 55.0878C98.0773 57.886 95.9965 61.8494 95.9965 66.2449C95.9964 67.5181 96.1724 68.7852 96.5197 70.0101C96.9072 71.449 96.9681 72.9564 96.6979 74.4218C96.4277 75.8873 95.8333 77.2738 94.9581 78.4799C93.432 80.5953 92.601 83.1326 92.58 85.7409C92.5831 87.5698 92.999 89.3745 93.7968 91.0202C94.5165 92.5123 94.8569 94.1589 94.7878 95.8141C94.7187 97.4692 94.2421 99.0818 93.4005 100.509C91.9097 102.962 91.1175 105.775 91.1096 108.646C91.1096 118.74 100.931 126.921 113.043 126.921C125.155 126.921 134.973 118.74 134.973 108.646C134.968 105.543 134.053 102.51 132.341 99.922Z" fill="white"/>
<path d="M122.805 102.447L115.203 110.897C115.088 111.02 114.906 110.932 114.898 110.75L114.414 96.9019C114.413 96.8605 114.423 96.8195 114.442 96.7829L120.304 85.3326C120.411 85.1265 120.189 84.9046 120.035 85.0591L114.815 90.2354C114.7 90.3463 114.525 90.2354 114.517 90.0768L114.046 72.3445C114.044 72.2846 114.065 72.2263 114.105 72.182L120.486 65.5869C120.653 65.4125 120.455 65.1073 120.268 65.25L113.756 70.2082C113.642 70.2994 113.487 70.2082 113.479 70.0417L113.083 59.1899C113.088 59.131 113.082 59.0716 113.063 59.0155C113.045 58.9593 113.014 58.9077 112.975 58.8639C112.935 58.8201 112.886 58.7851 112.832 58.7612C112.778 58.7372 112.72 58.7249 112.661 58.7249C112.601 58.7249 112.543 58.7372 112.489 58.7612C112.435 58.7851 112.386 58.8201 112.347 58.8639C112.307 58.9077 112.277 58.9593 112.258 59.0155C112.239 59.0716 112.233 59.131 112.238 59.1899L112.005 69.8911C112.005 70.0774 111.802 70.1686 111.692 70.0299L105.417 62.2457C105.271 62.0634 105.021 62.2853 105.132 62.4993L111.561 75.0555C111.578 75.0887 111.587 75.1252 111.588 75.1625V88.8839C111.588 89.0582 111.418 89.1573 111.299 89.0543L102.183 79.6689C102.009 79.5183 101.787 79.7918 101.942 79.978L111.454 92.5619C111.485 92.6041 111.501 92.656 111.497 92.7085L111.16 110.064C111.16 110.251 110.97 110.342 110.855 110.215L103.757 102.359C103.606 102.193 103.36 102.411 103.479 102.621L110.966 117.662C110.985 117.696 110.994 117.734 110.994 117.773L110.162 156.163C110.162 156.282 110.241 156.163 110.34 156.163H116.313C116.416 156.163 116.495 156.282 116.491 156.163L115.171 117.983C115.169 117.942 115.177 117.901 115.195 117.864L123.102 102.712C123.189 102.502 122.956 102.28 122.805 102.447Z" fill="#FF9D6C"/>
<path opacity="0.7" d="M122.805 102.447L115.203 110.897C115.088 111.02 114.906 110.932 114.898 110.75L114.414 96.9019C114.413 96.8605 114.423 96.8195 114.442 96.7829L120.304 85.3326C120.411 85.1265 120.189 84.9046 120.035 85.0591L114.815 90.2354C114.7 90.3463 114.525 90.2354 114.517 90.0768L114.046 72.3445C114.044 72.2846 114.065 72.2263 114.105 72.182L120.486 65.5869C120.653 65.4125 120.455 65.1073 120.268 65.25L113.756 70.2082C113.642 70.2994 113.487 70.2082 113.479 70.0417L113.083 59.1899C113.088 59.131 113.082 59.0716 113.063 59.0155C113.045 58.9593 113.014 58.9077 112.975 58.8639C112.935 58.8201 112.886 58.7851 112.832 58.7612C112.778 58.7372 112.72 58.7249 112.661 58.7249C112.601 58.7249 112.543 58.7372 112.489 58.7612C112.435 58.7851 112.386 58.8201 112.347 58.8639C112.307 58.9077 112.277 58.9593 112.258 59.0155C112.239 59.0716 112.233 59.131 112.238 59.1899L112.005 69.8911C112.005 70.0774 111.802 70.1686 111.692 70.0299L105.417 62.2457C105.271 62.0634 105.021 62.2853 105.132 62.4993L111.561 75.0555C111.578 75.0887 111.587 75.1252 111.588 75.1625V88.8839C111.588 89.0582 111.418 89.1573 111.299 89.0543L102.183 79.6689C102.009 79.5183 101.787 79.7918 101.942 79.978L111.454 92.5619C111.485 92.6041 111.501 92.656 111.497 92.7085L111.16 110.064C111.16 110.251 110.97 110.342 110.855 110.215L103.757 102.359C103.606 102.193 103.36 102.411 103.479 102.621L110.966 117.662C110.985 117.696 110.994 117.734 110.994 117.773L110.162 156.163C110.162 156.282 110.241 156.163 110.34 156.163H116.313C116.416 156.163 116.495 156.282 116.491 156.163L115.171 117.983C115.169 117.942 115.177 117.901 115.195 117.864L123.102 102.712C123.189 102.502 122.956 102.28 122.805 102.447Z" fill="white"/>
<path d="M34.4921 111.499C33.7251 110.174 33.254 108.699 33.111 107.175C32.968 105.65 33.1566 104.113 33.6638 102.669C34.0489 101.609 34.246 100.49 34.2464 99.3632C34.2401 97.7646 33.8471 96.1913 33.101 94.7775C31.783 92.3215 31.469 89.4501 32.2251 86.7674C32.5231 85.7518 32.674 84.6987 32.6729 83.6403C32.6729 79.6174 30.5089 76.0424 27.1558 73.7793C27.1558 73.6604 27.1558 73.5415 27.1558 73.4186C27.1558 67.4497 23.6363 62.6104 19.2924 62.6104C15.8641 62.6104 12.9509 65.6344 11.8808 69.8476C11.3498 71.8378 10.2475 73.629 8.71008 75C7.47997 76.0805 6.49127 77.4079 5.80838 78.896C5.12549 80.384 4.76373 81.9992 4.74666 83.6363C4.74542 84.3695 4.81711 85.1011 4.96068 85.8201C5.57614 88.6009 5.09333 91.512 3.61312 93.9452C2.56548 95.5574 2.00284 97.4365 1.99208 99.3592C1.99342 100.629 2.24387 101.887 2.72927 103.061C3.30611 104.486 3.56489 106.02 3.48753 107.555C3.41018 109.091 2.99855 110.591 2.28141 111.951C1.32227 113.763 0.818949 115.782 0.814941 117.833C0.814941 125.974 8.74179 132.573 18.5037 132.573C28.2656 132.573 36.1924 125.974 36.1924 117.833C36.1907 115.609 35.6043 113.425 34.4921 111.499Z" fill="#FF9D6C"/>
<path opacity="0.4" d="M34.4921 111.499C33.7251 110.174 33.254 108.699 33.111 107.175C32.968 105.65 33.1566 104.113 33.6638 102.669C34.0489 101.609 34.246 100.49 34.2464 99.3632C34.2401 97.7646 33.8471 96.1913 33.101 94.7775C31.783 92.3215 31.469 89.4501 32.2251 86.7674C32.5231 85.7518 32.674 84.6987 32.6729 83.6403C32.6729 79.6174 30.5089 76.0424 27.1558 73.7793C27.1558 73.6604 27.1558 73.5415 27.1558 73.4186C27.1558 67.4497 23.6363 62.6104 19.2924 62.6104C15.8641 62.6104 12.9509 65.6344 11.8808 69.8476C11.3498 71.8378 10.2475 73.629 8.71008 75C7.47997 76.0805 6.49127 77.4079 5.80838 78.896C5.12549 80.384 4.76373 81.9992 4.74666 83.6363C4.74542 84.3695 4.81711 85.1011 4.96068 85.8201C5.57614 88.6009 5.09333 91.512 3.61312 93.9452C2.56548 95.5574 2.00284 97.4365 1.99208 99.3592C1.99342 100.629 2.24387 101.887 2.72927 103.061C3.30611 104.486 3.56489 106.02 3.48753 107.555C3.41018 109.091 2.99855 110.591 2.28141 111.951C1.32227 113.763 0.818949 115.782 0.814941 117.833C0.814941 125.974 8.74179 132.573 18.5037 132.573C28.2656 132.573 36.1924 125.974 36.1924 117.833C36.1907 115.609 35.6043 113.425 34.4921 111.499Z" fill="white"/>
<path d="M26.375 112.839L20.2436 119.644C20.1524 119.743 20.0018 119.672 19.9979 119.525L19.6015 108.356C19.5977 108.323 19.6047 108.29 19.6213 108.261L24.3616 99.0064C24.4488 98.8439 24.2704 98.6656 24.1436 98.7884L19.9305 102.97C19.8393 103.061 19.6966 102.97 19.6927 102.847L19.2963 88.543C19.2948 88.5185 19.2982 88.4939 19.3064 88.4707C19.3145 88.4476 19.3273 88.4263 19.3439 88.4082L24.4964 83.0893C24.6311 82.9506 24.4726 82.693 24.322 82.8198L19.0704 86.8189C19.0475 86.8338 19.0208 86.8419 18.9934 86.8424C18.966 86.8429 18.9391 86.8358 18.9156 86.8218C18.8921 86.8077 18.8729 86.7874 18.8604 86.7631C18.8478 86.7388 18.8423 86.7114 18.8445 86.6841L18.5393 77.9289C18.5468 77.8798 18.5437 77.8296 18.53 77.7819C18.5163 77.7341 18.4924 77.6899 18.4601 77.6522C18.4277 77.6145 18.3876 77.5842 18.3424 77.5635C18.2973 77.5427 18.2482 77.532 18.1985 77.532C18.1488 77.532 18.0997 77.5427 18.0545 77.5635C18.0094 77.5842 17.9692 77.6145 17.9369 77.6522C17.9045 77.6899 17.8807 77.7341 17.867 77.7819C17.8533 77.8296 17.8501 77.8798 17.8576 77.9289L17.6713 86.5494C17.6713 86.704 17.5088 86.7753 17.4216 86.6643L12.3604 80.3863C12.2415 80.2356 12.0393 80.414 12.1305 80.5923L17.3146 90.7149C17.3268 90.7425 17.3335 90.7721 17.3344 90.8021V101.872C17.3344 102.011 17.1997 102.09 17.1046 102.007L9.76431 94.4366C9.62559 94.3177 9.45517 94.5357 9.57011 94.6863L17.2274 104.852C17.251 104.888 17.2635 104.929 17.2631 104.971L16.9579 118.982C16.9579 119.133 16.8033 119.204 16.7122 119.105L10.989 112.763C10.8661 112.629 10.6759 112.803 10.7631 112.974L16.8311 125.109C16.8371 125.14 16.8371 125.171 16.8311 125.201L16.1613 156.163C16.1613 156.258 16.2247 156.163 16.304 156.163H21.1156C21.1988 156.163 21.2622 156.258 21.2582 156.163L20.1921 125.371C20.1916 125.338 20.1998 125.305 20.2159 125.276L26.589 113.053C26.6881 112.878 26.4979 112.704 26.375 112.839Z" fill="#FF9D6C"/>
<path opacity="0.7" d="M26.375 112.839L20.2436 119.644C20.1524 119.743 20.0018 119.672 19.9979 119.525L19.6015 108.356C19.5977 108.323 19.6047 108.29 19.6213 108.261L24.3616 99.0064C24.4488 98.8439 24.2704 98.6656 24.1436 98.7884L19.9305 102.97C19.8393 103.061 19.6966 102.97 19.6927 102.847L19.2963 88.543C19.2948 88.5185 19.2982 88.4939 19.3064 88.4707C19.3145 88.4476 19.3273 88.4263 19.3439 88.4082L24.4964 83.0893C24.6311 82.9506 24.4726 82.693 24.322 82.8198L19.0704 86.8189C19.0475 86.8338 19.0208 86.8419 18.9934 86.8424C18.966 86.8429 18.9391 86.8358 18.9156 86.8218C18.8921 86.8077 18.8729 86.7874 18.8604 86.7631C18.8478 86.7388 18.8423 86.7114 18.8445 86.6841L18.5393 77.9289C18.5468 77.8798 18.5437 77.8296 18.53 77.7819C18.5163 77.7341 18.4924 77.6899 18.4601 77.6522C18.4277 77.6145 18.3876 77.5842 18.3424 77.5635C18.2973 77.5427 18.2482 77.532 18.1985 77.532C18.1488 77.532 18.0997 77.5427 18.0545 77.5635C18.0094 77.5842 17.9692 77.6145 17.9369 77.6522C17.9045 77.6899 17.8807 77.7341 17.867 77.7819C17.8533 77.8296 17.8501 77.8798 17.8576 77.9289L17.6713 86.5494C17.6713 86.704 17.5088 86.7753 17.4216 86.6643L12.3604 80.3863C12.2415 80.2356 12.0393 80.414 12.1305 80.5923L17.3146 90.7149C17.3268 90.7425 17.3335 90.7721 17.3344 90.8021V101.872C17.3344 102.011 17.1997 102.09 17.1046 102.007L9.76431 94.4366C9.62559 94.3177 9.45517 94.5357 9.57011 94.6863L17.2274 104.852C17.251 104.888 17.2635 104.929 17.2631 104.971L16.9579 118.982C16.9579 119.133 16.8033 119.204 16.7122 119.105L10.989 112.763C10.8661 112.629 10.6759 112.803 10.7631 112.974L16.8311 125.109C16.8371 125.14 16.8371 125.171 16.8311 125.201L16.1613 156.163C16.1613 156.258 16.2247 156.163 16.304 156.163H21.1156C21.1988 156.163 21.2622 156.258 21.2582 156.163L20.1921 125.371C20.1916 125.338 20.1998 125.305 20.2159 125.276L26.589 113.053C26.6881 112.878 26.4979 112.704 26.375 112.839Z" fill="white"/>
</g>
</g>
<path d="M63.7803 86.1946L65.1201 79.1125H67.1641L64.9561 89.0657H62.8916L61.2715 82.4075L59.6514 89.0657H57.5869L55.3789 79.1125H57.4229L58.7695 86.1809L60.4102 79.1125H62.1465L63.7803 86.1946ZM72.2021 89.0657C72.111 88.8879 72.0449 88.6669 72.0039 88.4026C71.5254 88.9358 70.9033 89.2024 70.1377 89.2024C69.4131 89.2024 68.8115 88.9928 68.333 88.5735C67.859 88.1542 67.6221 87.6256 67.6221 86.9875C67.6221 86.2037 67.9115 85.6021 68.4902 85.1829C69.0736 84.7636 69.9144 84.5517 71.0127 84.5471H71.9219V84.1233C71.9219 83.7815 71.833 83.5081 71.6553 83.303C71.4821 83.0979 71.2064 82.9954 70.8281 82.9954C70.4954 82.9954 70.2334 83.0751 70.042 83.2346C69.8551 83.3941 69.7617 83.6129 69.7617 83.8909H67.7861C67.7861 83.4625 67.9183 83.066 68.1826 82.7014C68.4469 82.3368 68.8206 82.052 69.3037 81.8469C69.7868 81.6373 70.3291 81.5325 70.9307 81.5325C71.8421 81.5325 72.5645 81.7626 73.0977 82.2229C73.6354 82.6786 73.9043 83.3212 73.9043 84.1506V87.3567C73.9089 88.0585 74.0068 88.5894 74.1982 88.9495V89.0657H72.2021ZM70.5684 87.6917C70.86 87.6917 71.1289 87.6278 71.375 87.5002C71.6211 87.3681 71.8034 87.1926 71.9219 86.9739V85.7024H71.1836C70.1947 85.7024 69.6683 86.0442 69.6045 86.7278L69.5977 86.844C69.5977 87.0901 69.6842 87.2929 69.8574 87.4524C70.0306 87.6119 70.2676 87.6917 70.5684 87.6917ZM77.5068 89.0657H75.5244V78.5657H77.5068V89.0657ZM81.8271 86.0989L81.1162 86.8098V89.0657H79.1406V78.5657H81.1162V84.3831L81.499 83.8909L83.3926 81.6692H85.7646L83.0918 84.7522L85.9971 89.0657H83.7275L81.8271 86.0989Z" fill="white"/>
<g clip-path="url(#clip0_1607_40409)">
<path d="M71.6245 52.0421L71.2886 53.7216L72.8621 55.2207C72.8623 55.2209 72.8626 55.2212 72.8629 55.2214L72.8631 55.2217L72.1733 55.9457C72.7067 56.4523 73 57.1457 73 57.879V65.399C73 66.1323 72.4 66.7323 71.6667 66.7323C70.9333 66.7323 70.3333 66.1323 70.3333 65.399L71.6245 52.0421ZM71.6245 52.0421C73.0723 53.2003 74.8039 53.9719 76.6562 54.2666L76.6562 54.2666L76.665 54.2679C78.0922 54.482 79.3333 53.3473 79.3333 51.9457C79.3333 50.7821 78.4782 49.835 77.3623 49.6523L71.6245 52.0421ZM73.4592 47.0202L73.4696 47.0386C74.2081 48.3392 75.622 49.3657 77.3611 49.6521L73.4592 47.0202ZM73.4592 47.0202L73.448 47.0023M73.4592 47.0202L73.448 47.0023M73.448 47.0023L72.1147 44.869L72.1145 44.8688M73.448 47.0023L72.1145 44.8688M72.1145 44.8688C71.9943 44.6766 71.8582 44.4965 71.7081 44.3301M72.1145 44.8688L71.7081 44.3301M71.7081 44.3301C73.3904 43.9985 74.6667 42.5092 74.6667 40.7323C74.6667 38.7134 73.019 37.0657 71 37.0657C68.9811 37.0657 67.3333 38.7134 67.3333 40.7323C67.3333 41.6368 67.664 42.4667 68.2106 43.1074L71.7081 44.3301ZM68.1225 58.0077L69.3333 59.1609L61 48.9057H60V48.906V52.0657C60 53.3513 61.0477 54.399 62.3333 54.399C62.9268 54.399 63.4695 54.1758 63.8819 53.809L61.6736 64.9452C61.3694 66.3969 62.5063 67.7323 63.96 67.7323H64.0667C65.1644 67.7323 66.0936 66.9801 66.3459 65.9249L66.346 65.9249L66.3491 65.9113L68.1225 58.0077ZM64.6667 49.8513V49.5497L64.7315 49.5245L64.6667 49.8513Z" stroke="#F9F8FC" stroke-width="2"/>
</g>
<rect y="145" width="139.527" height="128.436" rx="3.64479" fill="url(#paint2_linear_1607_40409)"/>
<mask id="mask1_1607_40409" style="mask-type:alpha" maskUnits="userSpaceOnUse" x="0" y="145" width="140" height="129">
<rect y="145" width="139.527" height="128.436" rx="3.64479" fill="url(#paint3_linear_1607_40409)"/>
</mask>
<g mask="url(#mask1_1607_40409)">
<g style="mix-blend-mode:overlay" opacity="0.46">
<path d="M100.069 167.38H119.671C119.829 167.381 119.983 167.336 120.115 167.249C120.247 167.162 120.35 167.037 120.41 166.892C120.471 166.746 120.487 166.586 120.456 166.431C120.426 166.276 120.349 166.134 120.237 166.023C119.901 165.735 119.492 165.544 119.054 165.473C118.902 165.438 118.763 165.359 118.656 165.245C118.549 165.131 118.479 164.987 118.454 164.833C118.226 163.492 117.325 160.103 113.946 160.033C112.914 159.982 111.89 160.231 110.997 160.751C110.105 161.272 109.383 162.04 108.918 162.962C108.83 163.135 108.682 163.269 108.502 163.34C108.322 163.412 108.122 163.416 107.94 163.351C107.306 163.123 106.331 163.073 105.536 164.357C105.445 164.509 105.306 164.626 105.141 164.691C104.976 164.756 104.795 164.764 104.625 164.715C104.137 164.538 103.605 164.521 103.107 164.666C102.608 164.811 102.169 165.112 101.853 165.523C101.773 165.631 101.666 165.716 101.543 165.769C101.42 165.823 101.285 165.843 101.152 165.828C100.779 165.78 100.402 165.763 100.026 165.778C98.9901 165.832 99.0437 167.38 100.069 167.38Z" stroke="#263238" stroke-width="0.23105" stroke-linecap="round" stroke-linejoin="round"/>
<path d="M14.6003 165.55H44.8407C45.9334 165.55 46.5166 164.209 45.7189 163.459C45.1977 163.018 44.5681 162.725 43.8955 162.611C43.6599 162.558 43.4455 162.436 43.28 162.26C43.1145 162.085 43.0055 161.863 42.967 161.625C42.6318 159.527 41.224 154.328 36.0119 154.221C31.3461 154.127 29.1272 157.056 28.2423 158.739C28.1055 159.005 27.8769 159.212 27.599 159.323C27.3211 159.433 27.0126 159.439 26.7307 159.339C25.7553 159.004 24.2503 158.913 23.0235 160.901C22.8824 161.134 22.6683 161.315 22.4145 161.414C22.1606 161.513 21.881 161.526 21.6191 161.451C20.5264 161.116 18.6896 160.958 17.3421 162.698C17.2189 162.864 17.054 162.996 16.864 163.079C16.674 163.162 16.4655 163.193 16.2595 163.17C15.685 163.096 15.1053 163.07 14.5266 163.093C12.9311 163.167 13.0149 165.55 14.6003 165.55Z" stroke="#263238" stroke-width="0.23105" stroke-linecap="round" stroke-linejoin="round"/>
<path d="M103.696 268.82L78.7686 257.19" stroke="#263238" stroke-width="0.23105" stroke-linecap="round" stroke-linejoin="round"/>
<path d="M110.896 272.179L104.873 269.37" stroke="#263238" stroke-width="0.23105" stroke-linecap="round" stroke-linejoin="round"/>
<path d="M75.5875 261.564L72.4636 257.193" stroke="#263238" stroke-width="0.23105" stroke-linecap="round" stroke-linejoin="round"/>
<path d="M83.1726 272.179L76.3147 262.579" stroke="#263238" stroke-width="0.23105" stroke-linecap="round" stroke-linejoin="round"/>
<path d="M58.2686 268.231L66.1555 257.193" stroke="#263238" stroke-width="0.23105" stroke-linecap="round" stroke-linejoin="round"/>
<path d="M55.4465 272.179L57.2565 269.648" stroke="#263238" stroke-width="0.23105" stroke-linecap="round" stroke-linejoin="round"/>
<path d="M49.8584 261.852L59.8469 257.193" stroke="#263238" stroke-width="0.23105" stroke-linecap="round" stroke-linejoin="round"/>
<path d="M27.7231 272.179L47.9918 262.724" stroke="#263238" stroke-width="0.23105" stroke-linecap="round" stroke-linejoin="round"/>
<path d="M0.429199 272.012L17.3259 267.235L52.8621 257.193" stroke="#263238" stroke-width="0.23105" stroke-linecap="round" stroke-linejoin="round"/>
<path d="M138.619 257.195H129.301H129.167H115.213H113.547H85.328H85.2777H85.0799H78.7751H72.4636H66.1554H59.8472H53.5424H52.862H9.49579H9.46226H0" stroke="#263238" stroke-width="0.23105" stroke-linecap="round" stroke-linejoin="round"/>
<path d="M85.3281 257.193L121.156 267.299L140 272.611" stroke="#263238" stroke-width="0.23105" stroke-linecap="round" stroke-linejoin="round"/>
<path d="M126.827 250.845C126.827 250.845 132.74 250.419 135.69 244.811C138.874 238.748 131.108 224.365 127.139 223.299C122.782 222.126 115.904 233.616 117.311 242.549C118.277 248.636 124.096 250.687 126.827 250.845Z" fill="#43CBFF"/>
<path opacity="0.3" d="M126.827 250.845C126.827 250.845 132.74 250.419 135.69 244.811C138.874 238.748 131.108 224.365 127.139 223.299C122.782 222.126 115.904 233.616 117.311 242.549C118.277 248.636 124.096 250.687 126.827 250.845Z" fill="white"/>
<path d="M130.957 240.531L127.172 244.674C127.172 244.818 127.172 244.959 127.172 245.103C127.199 246.953 127.236 248.867 127.266 250.801C127.266 250.925 127.266 251.052 127.266 251.177C127.286 252.681 127.357 255.893 127.38 257.424C127.382 257.536 127.362 257.646 127.32 257.75C127.279 257.853 127.218 257.947 127.14 258.027C127.062 258.106 126.969 258.169 126.866 258.213C126.764 258.256 126.654 258.279 126.542 258.279C126.429 258.28 126.317 258.259 126.212 258.216C126.107 258.173 126.012 258.109 125.932 258.028C125.853 257.947 125.79 257.851 125.749 257.746C125.707 257.64 125.688 257.528 125.691 257.414L125.838 251.166V250.741L125.858 250.044L125.882 249.001L121.032 243.725C121.421 243.725 120.723 242.995 120.653 242.924L125.956 247.06L126.167 238.031L122.986 234.568C123.261 234.568 122.765 234.052 122.714 233.998L126.197 236.74V236.569L126.388 228.719L126.911 229.292C126.911 229.292 127.015 235.433 127.146 243.125L131.262 239.851C131.205 239.914 130.648 240.534 130.957 240.531Z" fill="white" stroke="#263238" stroke-width="0.23105" stroke-linecap="round" stroke-linejoin="round"/>
<path d="M15.5622 250.808C15.898 250.834 16.2356 250.819 16.5678 250.764C18.2839 250.472 23.2313 249.001 28.6043 241.513C34.4298 233.391 23.3721 208.249 17.1745 202.467C10.9769 196.685 -1.07968 228.27 0.307989 236.271C2.27217 247.399 10.4943 250.392 15.5622 250.808Z" fill="#43CBFF"/>
<path opacity="0.3" d="M15.5622 250.808C15.898 250.834 16.2356 250.819 16.5678 250.764C18.2839 250.472 23.2313 249.001 28.6043 241.513C34.4298 233.391 23.3721 208.249 17.1745 202.467C10.9769 196.685 -1.07968 228.27 0.307989 236.271C2.27217 247.399 10.4943 250.392 15.5622 250.808Z" fill="white"/>
<path d="M27.0192 234.256L17.7647 243.457L18.6362 265.338C18.6443 265.539 18.6117 265.74 18.5403 265.929C18.4688 266.118 18.3601 266.29 18.2205 266.435C18.0809 266.581 17.9133 266.697 17.7279 266.776C17.5425 266.855 17.343 266.896 17.1413 266.897C16.9446 266.897 16.7497 266.859 16.5679 266.783C16.3861 266.708 16.221 266.598 16.0821 266.458C15.9431 266.319 15.8331 266.154 15.7583 265.972C15.6835 265.79 15.6455 265.595 15.6464 265.398C15.6464 260.967 15.7469 247.271 15.8307 231.752L8.73487 224.948C9.27451 224.948 8.30918 224.03 8.21533 223.943L15.8475 229.249C15.9078 217.48 15.9648 208.001 15.9648 208.001L16.6586 207.153L17.0441 219.739L23.5869 215.03C23.4897 215.121 22.5244 216.036 23.064 216.036L17.1111 221.945L17.6675 240.078L27.7633 232.808C27.6292 232.939 26.2449 234.256 27.0192 234.256Z" fill="white" stroke="#263238" stroke-width="0.23105" stroke-linecap="round" stroke-linejoin="round"/>
</g>
</g>
<path d="M48.0557 230.792H46.4219V234.436H44.3711V224.483H48.0693C49.2451 224.483 50.152 224.745 50.79 225.269C51.4281 225.793 51.7471 226.533 51.7471 227.49C51.7471 228.17 51.599 228.737 51.3027 229.193C51.0111 229.644 50.5667 230.004 49.9697 230.273L52.123 234.34V234.436H49.9219L48.0557 230.792ZM46.4219 229.131H48.0762C48.5911 229.131 48.9899 229.001 49.2725 228.741C49.555 228.477 49.6963 228.115 49.6963 227.655C49.6963 227.185 49.5618 226.816 49.293 226.547C49.0286 226.278 48.6208 226.144 48.0693 226.144H46.4219V229.131ZM57.6123 233.684C57.1247 234.276 56.4502 234.573 55.5889 234.573C54.7959 234.573 54.1898 234.345 53.7705 233.889C53.3558 233.433 53.1439 232.766 53.1348 231.886V227.039H55.1104V231.818C55.1104 232.588 55.4613 232.973 56.1631 232.973C56.833 232.973 57.2933 232.74 57.5439 232.276V227.039H59.5264V234.436H57.667L57.6123 233.684ZM62.835 227.039L62.8965 227.894C63.4251 227.233 64.1338 226.903 65.0225 226.903C65.8063 226.903 66.3896 227.133 66.7725 227.593C67.1553 228.053 67.3512 228.741 67.3604 229.657V234.436H65.3848V229.705C65.3848 229.286 65.2936 228.983 65.1113 228.796C64.929 228.605 64.626 228.509 64.2021 228.509C63.6462 228.509 63.2292 228.746 62.9512 229.22V234.436H60.9756V227.039H62.835ZM70.6826 227.039L70.7441 227.894C71.2728 227.233 71.9814 226.903 72.8701 226.903C73.654 226.903 74.2373 227.133 74.6201 227.593C75.0029 228.053 75.1989 228.741 75.208 229.657V234.436H73.2324V229.705C73.2324 229.286 73.1413 228.983 72.959 228.796C72.7767 228.605 72.4736 228.509 72.0498 228.509C71.4938 228.509 71.0768 228.746 70.7988 229.22V234.436H68.8232V227.039H70.6826ZM78.7969 234.436H76.8145V227.039H78.7969V234.436ZM76.6982 225.125C76.6982 224.829 76.7962 224.585 76.9922 224.394C77.1927 224.202 77.4639 224.107 77.8057 224.107C78.1429 224.107 78.4118 224.202 78.6123 224.394C78.8128 224.585 78.9131 224.829 78.9131 225.125C78.9131 225.426 78.8105 225.672 78.6055 225.864C78.4049 226.055 78.1383 226.151 77.8057 226.151C77.473 226.151 77.2041 226.055 76.999 225.864C76.7985 225.672 76.6982 225.426 76.6982 225.125ZM82.249 227.039L82.3105 227.894C82.8392 227.233 83.5479 226.903 84.4365 226.903C85.2204 226.903 85.8037 227.133 86.1865 227.593C86.5693 228.053 86.7653 228.741 86.7744 229.657V234.436H84.7988V229.705C84.7988 229.286 84.7077 228.983 84.5254 228.796C84.3431 228.605 84.04 228.509 83.6162 228.509C83.0602 228.509 82.6432 228.746 82.3652 229.22V234.436H80.3896V227.039H82.249ZM87.9912 230.683C87.9912 229.548 88.2601 228.634 88.7979 227.942C89.3402 227.249 90.0693 226.903 90.9854 226.903C91.7965 226.903 92.4277 227.181 92.8789 227.737L92.9609 227.039H94.752V234.19C94.752 234.837 94.6038 235.4 94.3076 235.878C94.016 236.357 93.6035 236.721 93.0703 236.972C92.5371 237.223 91.9128 237.348 91.1973 237.348C90.6549 237.348 90.1263 237.239 89.6113 237.02C89.0964 236.806 88.7067 236.528 88.4424 236.186L89.3174 234.983C89.8096 235.534 90.4066 235.81 91.1084 235.81C91.6325 235.81 92.0404 235.669 92.332 235.386C92.6237 235.108 92.7695 234.712 92.7695 234.197V233.8C92.3138 234.315 91.7145 234.573 90.9717 234.573C90.083 234.573 89.363 234.226 88.8115 233.533C88.2646 232.836 87.9912 231.913 87.9912 230.765V230.683ZM89.9668 230.826C89.9668 231.496 90.1012 232.023 90.3701 232.406C90.639 232.784 91.0081 232.973 91.4775 232.973C92.0791 232.973 92.5098 232.747 92.7695 232.296V229.186C92.5052 228.735 92.0791 228.509 91.4912 228.509C91.0173 228.509 90.6436 228.703 90.3701 229.09C90.1012 229.477 89.9668 230.056 89.9668 230.826Z" fill="white"/>
<path d="M72.1049 214.296C70.5242 213.801 69.6438 212.118 70.1388 210.538L71.6187 205.811L66.9904 203.079C66.8212 202.979 66.6598 202.87 66.5065 202.754C66.6589 202.871 66.8196 202.98 66.9884 203.08C66.9885 203.08 66.9885 203.08 66.9886 203.08L67.6553 203.473L68.4122 203.92L68.0661 204.728L67.5173 206.009C67.5172 206.01 67.5172 206.01 67.5171 206.01C66.8887 207.482 65.4432 208.435 63.8406 208.435H59C57.3433 208.435 56 207.092 56 205.435C56 203.779 57.3433 202.435 59 202.435H62.5213L63.1865 200.884L64.0735 198.815L64.8241 200.447C64.4152 199.296 64.425 197.998 64.9357 196.805L64.9359 196.804L66.8113 192.429M72.1049 214.296C72.1048 214.296 72.1047 214.296 72.1046 214.296L72.4038 213.342L72.1049 214.296ZM72.1049 214.296C72.4009 214.389 72.7029 214.435 73.0025 214.435C74.2785 214.435 75.4618 213.614 75.8642 212.331L75.8643 212.33L77.8418 206.014L77.8457 206.001L77.8493 205.989C78.3433 204.253 77.6063 202.397 76.0515 201.46L76.0515 201.459L76.0432 201.455L72.9546 199.632M72.9546 199.632L73.7562 197.628M72.9546 199.632L72.636 200.428L71.7075 200.057M72.9546 199.632L72.2157 199.196L71.7075 200.057M73.7562 197.628L74.033 198.193L74.0331 198.194C74.7011 199.558 76.1071 200.435 77.6256 200.435H81C82.6567 200.435 84 199.091 84 197.435C84 195.777 82.6563 194.435 81 194.435H78.8721M73.7562 197.628L74.257 196.376L74.9312 197.754M73.7562 197.628L73.1636 196.416L71.7075 200.057M78.8721 194.435L77.5176 191.668L76.6194 192.107M78.8721 194.435L79.1463 194.996L78.2481 195.435M78.8721 194.435H78.2481V195.435M76.6194 192.107L77.5176 191.667C76.8183 190.238 75.666 189.099 74.2869 188.426M76.6194 192.107C75.8381 190.51 74.4037 189.343 72.7581 188.923M76.6194 192.107L78.2481 195.435M74.2869 188.426C76.3622 188.279 78 186.548 78 184.436C78 182.227 76.2092 180.436 74 180.436C71.7908 180.436 70 182.227 70 184.436C70 185.653 70.5434 186.743 71.4008 187.476M74.2869 188.426C74.1923 188.379 74.0967 188.336 74 188.294C73.6847 188.158 73.3589 188.046 73.025 187.959L71.4008 187.476M74.2869 188.426C74.1922 188.432 74.0965 188.436 74 188.436C73.6348 188.436 73.2811 188.387 72.9449 188.295L72.7581 188.923M71.4008 187.476L68.6007 186.644L68.5752 186.636L68.5493 186.63C66.4875 186.134 64.3362 186.59 62.6546 187.88M71.4008 187.476C71.8362 187.849 72.3526 188.13 72.92 188.288L72.7581 188.923M62.6546 187.88L60.1755 189.78L60.7835 190.574L60.1754 189.78C58.8603 190.788 58.6107 192.671 59.6205 193.987C60.63 195.302 62.5117 195.548 63.8256 194.542L63.8257 194.541L66.3063 192.641L66.3072 192.64C66.4738 192.512 66.6567 192.449 66.8113 192.429M62.6546 187.88L62.6547 187.88L63.2619 188.672L62.6546 187.88ZM66.8113 192.429L67.2298 191.453M66.8113 192.429C66.8935 192.419 66.9677 192.421 67.0271 192.432L67.7996 192.662L65.855 197.198C65.0662 199.041 65.7731 201.199 67.4987 202.218L72.81 205.353L67.2298 191.453M67.2298 191.453C66.7489 191.356 66.162 191.491 65.6981 191.847M67.2298 191.453L65.6981 191.847M76.8875 205.715L74.91 212.031L76.8875 205.715ZM76.8875 205.715C77.2569 204.417 76.7069 203.023 75.535 202.316M76.8875 205.715L75.535 202.316M75.535 202.316L71.7075 200.057M75.535 202.316L74.9312 197.754M74.9312 197.754C75.4312 198.775 76.4888 199.435 77.6256 199.435H81C82.1044 199.435 83 198.539 83 197.435C83 196.33 82.1044 195.435 81 195.435H78.2481M74.9312 197.754L68.3156 187.602M72.7581 188.923L68.3156 187.602M68.3156 187.602C66.5469 187.177 64.705 187.568 63.2631 188.673L60.7838 190.574C59.9069 191.246 59.7406 192.501 60.4137 193.378C61.0869 194.255 62.3413 194.419 63.2175 193.748M68.3156 187.602L63.2175 193.748M63.2175 193.748L65.6981 191.847M63.2175 193.748L65.6981 191.847" stroke="#F9F8FC" stroke-width="2"/>
<rect x="155.473" width="139.527" height="128.436" rx="3.64479" fill="url(#paint4_linear_1607_40409)"/>
<mask id="mask2_1607_40409" style="mask-type:alpha" maskUnits="userSpaceOnUse" x="155" y="0" width="141" height="129">
<rect x="155.473" width="139.527" height="128.436" rx="3.64479" fill="url(#paint5_linear_1607_40409)"/>
</mask>
<g mask="url(#mask2_1607_40409)">
<g style="mix-blend-mode:multiply" opacity="0.46">
<path d="M301 125.398H12.2307" stroke="#263238" stroke-width="0.120111" stroke-linecap="round" stroke-linejoin="round"/>
<path d="M17.4753 31.5805H45.0307V5.18603H62.9431V9.04893H70.5217V1.64606H104.622V7.11543H110.132V-7.36737H167.994V22.567H178.327V30.2928H192.45V18.7041H244.463V26.107H260.307V0.68136H296.814" stroke="#263238" stroke-width="0.120111" stroke-linecap="round" stroke-linejoin="round"/>
<path d="M179.958 53.6093L175.944 57.8932" stroke="#263238" stroke-width="0.120111" stroke-linecap="round" stroke-linejoin="round"/>
<path d="M209.48 22.0683L181.541 51.9169" stroke="#263238" stroke-width="0.120111" stroke-linecap="round" stroke-linejoin="round"/>
<path d="M202.306 37.9614L201.137 39.2123" stroke="#263238" stroke-width="0.120111" stroke-linecap="round" stroke-linejoin="round"/>
<path d="M207.554 32.3531L203.458 36.7311" stroke="#263238" stroke-width="0.120111" stroke-linecap="round" stroke-linejoin="round"/>
<path d="M182.844 46.0674L175.302 54.1243" stroke="#263238" stroke-width="0.120111" stroke-linecap="round" stroke-linejoin="round"/>
<path d="M234.186 2.81927L230.172 7.1073" stroke="#263238" stroke-width="0.120111" stroke-linecap="round" stroke-linejoin="round"/>
<path d="M263.712 -28.7175L235.772 1.12695" stroke="#263238" stroke-width="0.120111" stroke-linecap="round" stroke-linejoin="round"/>
<path d="M237.072 -4.7226L229.531 3.33431" stroke="#263238" stroke-width="0.120111" stroke-linecap="round" stroke-linejoin="round"/>
<path d="M224.695 121.686H221.294V125.394H224.695V121.686Z" fill="#363636" stroke="#263238" stroke-width="0.120111" stroke-linecap="round" stroke-linejoin="round"/>
<path d="M227.066 121.686H223.665V125.394H227.066V121.686Z" fill="#949494" stroke="#263238" stroke-width="0.120111" stroke-linecap="round" stroke-linejoin="round"/>
<path d="M255.655 121.686H252.254V125.394H255.655V121.686Z" fill="#363636" stroke="#263238" stroke-width="0.120111" stroke-linecap="round" stroke-linejoin="round"/>
<path d="M258.026 121.686H254.625V125.394H258.026V121.686Z" fill="#949494" stroke="#263238" stroke-width="0.120111" stroke-linecap="round" stroke-linejoin="round"/>
<path d="M256.399 118.326H218.919V122.414H256.399V118.326Z" fill="#363636" stroke="#263238" stroke-width="0.120111" stroke-linecap="round" stroke-linejoin="round"/>
<path d="M258.77 118.326H221.29V122.414H258.77V118.326Z" fill="#949494" stroke="#263238" stroke-width="0.120111" stroke-linecap="round" stroke-linejoin="round"/>
<path d="M291.026 55.0849H244.933C244.746 55.0951 244.559 55.067 244.383 55.0025C244.208 54.938 244.047 54.8383 243.911 54.7096C243.775 54.5809 243.667 54.4258 243.593 54.2538C243.519 54.0818 243.48 53.8966 243.48 53.7093C243.48 53.5221 243.519 53.3369 243.593 53.1649C243.667 52.9929 243.775 52.8378 243.911 52.7091C244.047 52.5804 244.208 52.4807 244.383 52.4162C244.559 52.3517 244.746 52.3236 244.933 52.3338H291.026C291.213 52.3236 291.4 52.3517 291.576 52.4162C291.752 52.4807 291.913 52.5804 292.048 52.7091C292.184 52.8378 292.293 52.9929 292.367 53.1649C292.441 53.3369 292.479 53.5221 292.479 53.7093C292.479 53.8966 292.441 54.0818 292.367 54.2538C292.293 54.4258 292.184 54.5809 292.048 54.7096C291.913 54.8383 291.752 54.938 291.576 55.0025C291.4 55.067 291.213 55.0951 291.026 55.0849Z" fill="white" stroke="#263238" stroke-width="0.120111" stroke-linecap="round" stroke-linejoin="round"/>
<path d="M291.026 75.1064H233.148C232.784 75.1064 232.435 74.9617 232.177 74.7042C231.919 74.4466 231.775 74.0972 231.775 73.733C231.775 73.3687 231.919 73.0194 232.177 72.7618C232.435 72.5042 232.784 72.3595 233.148 72.3595H291.026C291.39 72.3595 291.74 72.5042 291.997 72.7618C292.255 73.0194 292.4 73.3687 292.4 73.733C292.4 74.0972 292.255 74.4466 291.997 74.7042C291.74 74.9617 291.39 75.1064 291.026 75.1064Z" fill="white" stroke="#263238" stroke-width="0.120111" stroke-linecap="round" stroke-linejoin="round"/>
<path d="M291.026 94.1798H233.148C232.784 94.1798 232.435 94.0351 232.177 93.7775C231.919 93.52 231.775 93.1706 231.775 92.8063C231.775 92.4421 231.919 92.0927 232.177 91.8351C232.435 91.5776 232.784 91.4329 233.148 91.4329H291.026C291.39 91.4329 291.74 91.5776 291.997 91.8351C292.255 92.0927 292.4 92.4421 292.4 92.8063C292.4 93.1706 292.255 93.52 291.997 93.7775C291.74 94.0351 291.39 94.1798 291.026 94.1798Z" fill="white" stroke="#263238" stroke-width="0.120111" stroke-linecap="round" stroke-linejoin="round"/>
<path d="M291.026 113.212H233.148C232.961 113.223 232.774 113.194 232.598 113.13C232.423 113.065 232.262 112.966 232.126 112.837C231.99 112.708 231.882 112.553 231.808 112.381C231.734 112.209 231.696 112.024 231.696 111.837C231.696 111.65 231.734 111.464 231.808 111.292C231.882 111.12 231.99 110.965 232.126 110.837C232.262 110.708 232.423 110.608 232.598 110.544C232.774 110.479 232.961 110.451 233.148 110.461H291.026C291.213 110.451 291.4 110.479 291.576 110.544C291.752 110.608 291.912 110.708 292.048 110.837C292.184 110.965 292.293 111.12 292.367 111.292C292.441 111.464 292.479 111.65 292.479 111.837C292.479 112.024 292.441 112.209 292.367 112.381C292.293 112.553 292.184 112.708 292.048 112.837C291.912 112.966 291.752 113.065 291.576 113.13C291.4 113.194 291.213 113.223 291.026 113.212Z" fill="white" stroke="#263238" stroke-width="0.120111" stroke-linecap="round" stroke-linejoin="round"/>
<path d="M258.325 118.387H254.825L261.39 47.0361H264.889L258.325 118.387Z" fill="white" stroke="#263238" stroke-width="0.120111" stroke-linecap="round" stroke-linejoin="round"/>
<path d="M262.6 118.387H257.352L263.917 47.0361H269.165L262.6 118.387Z" fill="white" stroke="#263238" stroke-width="0.120111" stroke-linecap="round" stroke-linejoin="round"/>
<path d="M280.247 118.387H286.468L279.903 47.0361H273.682L280.247 118.387Z" fill="white" stroke="#263238" stroke-width="0.120111" stroke-linecap="round" stroke-linejoin="round"/>
<path d="M278.693 118.387H281.996L275.431 47.0361H272.125L278.693 118.387Z" fill="white" stroke="#263238" stroke-width="0.120111" stroke-linecap="round" stroke-linejoin="round"/>
<path d="M226.44 118.387H222.941L229.506 47.0361H233.005L226.44 118.387Z" fill="white" stroke="#263238" stroke-width="0.120111" stroke-linecap="round" stroke-linejoin="round"/>
<path d="M230.716 118.387H225.467L232.032 47.0361H237.281L230.716 118.387Z" fill="white" stroke="#263238" stroke-width="0.120111" stroke-linecap="round" stroke-linejoin="round"/>
<path d="M248.583 118.387H254.511L247.946 47.0361H242.019L248.583 118.387Z" fill="white" stroke="#263238" stroke-width="0.120111" stroke-linecap="round" stroke-linejoin="round"/>
<path d="M246.736 118.387H249.315L242.75 47.0361H240.171L246.736 118.387Z" fill="white" stroke="#263238" stroke-width="0.120111" stroke-linecap="round" stroke-linejoin="round"/>
<path d="M214.573 58.5635C217.256 58.5635 219.43 56.3893 219.43 53.7073C219.43 51.0253 217.256 48.8511 214.573 48.8511C211.891 48.8511 209.717 51.0253 209.717 53.7073C209.717 56.3893 211.891 58.5635 214.573 58.5635Z" fill="#363636" stroke="#263238" stroke-width="0.120111" stroke-linecap="round" stroke-linejoin="round"/>
<path d="M215.939 58.5635C218.621 58.5635 220.795 56.3893 220.795 53.7073C220.795 51.0253 218.621 48.8511 215.939 48.8511C213.257 48.8511 211.083 51.0253 211.083 53.7073C211.083 56.3893 213.257 58.5635 215.939 58.5635Z" fill="#949494" stroke="#263238" stroke-width="0.120111" stroke-linecap="round" stroke-linejoin="round"/>
<path d="M226.257 54.3156C226.881 50.4512 224.255 46.8123 220.39 46.1877C216.526 45.5632 212.887 48.1896 212.263 52.0539C211.638 55.9182 214.264 59.5572 218.129 60.1817C221.993 60.8063 225.632 58.1799 226.257 54.3156Z" fill="#363636" stroke="#263238" stroke-width="0.120453" stroke-linecap="round" stroke-linejoin="round"/>
<path d="M227.703 55.131C228.494 51.3086 226.036 47.5688 222.214 46.7779C218.392 45.987 214.652 48.4445 213.861 52.2669C213.07 56.0893 215.528 59.8291 219.35 60.62C223.172 61.4109 226.912 58.9534 227.703 55.131Z" fill="#949494" stroke="#263238" stroke-width="0.120111" stroke-linecap="round" stroke-linejoin="round"/>
<path d="M267.457 55.0849H221.363C221.177 55.0951 220.989 55.067 220.814 55.0025C220.638 54.938 220.477 54.8383 220.341 54.7096C220.205 54.5809 220.097 54.4258 220.023 54.2538C219.949 54.0818 219.911 53.8966 219.911 53.7093C219.911 53.5221 219.949 53.3369 220.023 53.1649C220.097 52.9929 220.205 52.8378 220.341 52.7091C220.477 52.5804 220.638 52.4807 220.814 52.4162C220.989 52.3517 221.177 52.3236 221.363 52.3338H267.457C267.644 52.3236 267.831 52.3517 268.006 52.4162C268.182 52.4807 268.343 52.5804 268.479 52.7091C268.615 52.8378 268.723 52.9929 268.797 53.1649C268.871 53.3369 268.909 53.5221 268.909 53.7093C268.909 53.8966 268.871 54.0818 268.797 54.2538C268.723 54.4258 268.615 54.5809 268.479 54.7096C268.343 54.8383 268.182 54.938 268.006 55.0025C267.831 55.067 267.644 55.0951 267.457 55.0849Z" fill="white" stroke="#263238" stroke-width="0.120111" stroke-linecap="round" stroke-linejoin="round"/>
<path d="M263.904 55.3178L261.157 52.4564C261.113 52.4101 261.056 52.3781 260.993 52.3644C260.93 52.3508 260.865 52.3562 260.805 52.3798C260.745 52.4035 260.694 52.4445 260.658 52.4974C260.622 52.5504 260.602 52.613 260.601 52.6771V56.2253L263.152 59.9737" fill="white"/>
<path d="M263.904 55.3178L261.157 52.4564C261.113 52.4101 261.056 52.3781 260.993 52.3644C260.93 52.3508 260.865 52.3562 260.805 52.3798C260.745 52.4035 260.694 52.4445 260.658 52.4974C260.622 52.5504 260.602 52.613 260.601 52.6771V56.2253L263.152 59.9737" stroke="#263238" stroke-width="0.120111" stroke-linecap="round" stroke-linejoin="round"/>
<path d="M277.246 55.081C278.01 51.2531 275.527 47.5306 271.699 46.7664C267.871 46.0022 264.148 48.4858 263.384 52.3136C262.62 56.1414 265.104 59.864 268.931 60.6282C272.759 61.3924 276.482 58.9088 277.246 55.081Z" fill="#363636" stroke="#263238" stroke-width="0.120111" stroke-linecap="round" stroke-linejoin="round"/>
<path d="M279.29 54.9446C279.968 51.1005 277.401 47.4348 273.557 46.757C269.713 46.0792 266.047 48.646 265.369 52.49C264.691 56.3341 267.258 59.9998 271.102 60.6776C274.946 61.3554 278.612 58.7887 279.29 54.9446Z" fill="#949494" stroke="#263238" stroke-width="0.120111" stroke-linecap="round" stroke-linejoin="round"/>
<path d="M272.317 58.5635C274.999 58.5635 277.173 56.3893 277.173 53.7073C277.173 51.0253 274.999 48.8511 272.317 48.8511C269.635 48.8511 267.46 51.0253 267.46 53.7073C267.46 56.3893 269.635 58.5635 272.317 58.5635Z" fill="#363636" stroke="#263238" stroke-width="0.120111" stroke-linecap="round" stroke-linejoin="round"/>
<path d="M273.682 58.5635C276.364 58.5635 278.539 56.3893 278.539 53.7073C278.539 51.0253 276.364 48.8511 273.682 48.8511C271 48.8511 268.826 51.0253 268.826 53.7073C268.826 56.3893 271 58.5635 273.682 58.5635Z" fill="#949494" stroke="#263238" stroke-width="0.120111" stroke-linecap="round" stroke-linejoin="round"/>
<path d="M281.048 55.0849H273.691C273.339 55.0657 273.008 54.9124 272.765 54.6566C272.523 54.4007 272.388 54.0617 272.388 53.7094C272.388 53.357 272.523 53.018 272.765 52.7622C273.008 52.5063 273.339 52.353 273.691 52.3339H281.048C281.4 52.353 281.731 52.5063 281.974 52.7622C282.216 53.018 282.351 53.357 282.351 53.7094C282.351 54.0617 282.216 54.4007 281.974 54.6566C281.731 54.9124 281.4 55.0657 281.048 55.0849Z" fill="white" stroke="#263238" stroke-width="0.120111" stroke-linecap="round" stroke-linejoin="round"/>
<path d="M213.044 77.3588C215.726 77.3588 217.901 75.1846 217.901 72.5026C217.901 69.8206 215.726 67.6464 213.044 67.6464C210.362 67.6464 208.188 69.8206 208.188 72.5026C208.188 75.1846 210.362 77.3588 213.044 77.3588Z" fill="#363636" stroke="#263238" stroke-width="0.120111" stroke-linecap="round" stroke-linejoin="round"/>
<path d="M214.41 77.3588C217.092 77.3588 219.266 75.1846 219.266 72.5026C219.266 69.8206 217.092 67.6464 214.41 67.6464C211.728 67.6464 209.554 69.8206 209.554 72.5026C209.554 75.1846 211.728 77.3588 214.41 77.3588Z" fill="#949494" stroke="#263238" stroke-width="0.120111" stroke-linecap="round" stroke-linejoin="round"/>
<path d="M217.28 79.5703C221.183 79.5703 224.348 76.406 224.348 72.5026C224.348 68.5992 221.183 65.4349 217.28 65.4349C213.376 65.4349 210.212 68.5992 210.212 72.5026C210.212 76.406 213.376 79.5703 217.28 79.5703Z" fill="#363636" stroke="#263238" stroke-width="0.120111" stroke-linecap="round" stroke-linejoin="round"/>
<path d="M219.266 79.5703C223.17 79.5703 226.334 76.406 226.334 72.5026C226.334 68.5992 223.17 65.4349 219.266 65.4349C215.363 65.4349 212.198 68.5992 212.198 72.5026C212.198 76.406 215.363 79.5703 219.266 79.5703Z" fill="#949494" stroke="#263238" stroke-width="0.120111" stroke-linecap="round" stroke-linejoin="round"/>
<path d="M265.928 73.8802H219.834C219.647 73.8904 219.46 73.8623 219.285 73.7978C219.109 73.7333 218.948 73.6336 218.812 73.5049C218.676 73.3762 218.568 73.2211 218.494 73.0491C218.42 72.8771 218.382 72.6919 218.382 72.5046C218.382 72.3174 218.42 72.1322 218.494 71.9602C218.568 71.7882 218.676 71.6331 218.812 71.5044C218.948 71.3757 219.109 71.276 219.285 71.2115C219.46 71.1469 219.647 71.1189 219.834 71.1291H265.928C266.115 71.1189 266.302 71.1469 266.477 71.2115C266.653 71.276 266.814 71.3757 266.95 71.5044C267.086 71.6331 267.194 71.7882 267.268 71.9602C267.342 72.1322 267.38 72.3174 267.38 72.5046C267.38 72.6919 267.342 72.8771 267.268 73.0491C267.194 73.2211 267.086 73.3762 266.95 73.5049C266.814 73.6336 266.653 73.7333 266.477 73.7978C266.302 73.8623 266.115 73.8904 265.928 73.8802Z" fill="white" stroke="#263238" stroke-width="0.120111" stroke-linecap="round" stroke-linejoin="round"/>
<path d="M262.551 74.0642L259.808 71.2027C259.764 71.1564 259.707 71.1244 259.644 71.1108C259.581 71.0971 259.516 71.1025 259.456 71.1262C259.397 71.1499 259.345 71.1908 259.309 71.2438C259.273 71.2967 259.253 71.3593 259.252 71.4235V74.9675L261.803 78.7201" fill="white"/>
<path d="M262.551 74.0642L259.808 71.2027C259.764 71.1564 259.707 71.1244 259.644 71.1108C259.581 71.0971 259.516 71.1025 259.456 71.1262C259.397 71.1499 259.345 71.1908 259.309 71.2438C259.273 71.2967 259.253 71.3593 259.252 71.4235V74.9675L261.803 78.7201" stroke="#263238" stroke-width="0.120111" stroke-linecap="round" stroke-linejoin="round"/>
<path d="M268.797 79.5703C272.7 79.5703 275.865 76.406 275.865 72.5026C275.865 68.5992 272.7 65.4349 268.797 65.4349C264.894 65.4349 261.729 68.5992 261.729 72.5026C261.729 76.406 264.894 79.5703 268.797 79.5703Z" fill="#363636" stroke="#263238" stroke-width="0.120111" stroke-linecap="round" stroke-linejoin="round"/>
<path d="M270.788 79.5703C274.691 79.5703 277.856 76.406 277.856 72.5026C277.856 68.5992 274.691 65.4349 270.788 65.4349C266.885 65.4349 263.72 68.5992 263.72 72.5026C263.72 76.406 266.885 79.5703 270.788 79.5703Z" fill="#949494" stroke="#263238" stroke-width="0.120111" stroke-linecap="round" stroke-linejoin="round"/>
<path d="M270.788 77.3588C273.47 77.3588 275.644 75.1846 275.644 72.5026C275.644 69.8206 273.47 67.6464 270.788 67.6464C268.106 67.6464 265.932 69.8206 265.932 72.5026C265.932 75.1846 268.106 77.3588 270.788 77.3588Z" fill="#363636" stroke="#263238" stroke-width="0.120111" stroke-linecap="round" stroke-linejoin="round"/>
<path d="M272.153 77.3588C274.835 77.3588 277.009 75.1846 277.009 72.5026C277.009 69.8206 274.835 67.6464 272.153 67.6464C269.471 67.6464 267.297 69.8206 267.297 72.5026C267.297 75.1846 269.471 77.3588 272.153 77.3588Z" fill="#949494" stroke="#263238" stroke-width="0.120111" stroke-linecap="round" stroke-linejoin="round"/>
<path d="M279.519 73.8802H272.161C271.81 73.861 271.478 73.7077 271.236 73.4519C270.994 73.196 270.859 72.857 270.859 72.5047C270.859 72.1523 270.994 71.8133 271.236 71.5575C271.478 71.3016 271.81 71.1483 272.161 71.1292H279.519C279.871 71.1483 280.202 71.3016 280.445 71.5575C280.687 71.8133 280.822 72.1523 280.822 72.5047C280.822 72.857 280.687 73.196 280.445 73.4519C280.202 73.7077 279.871 73.861 279.519 73.8802Z" fill="white" stroke="#263238" stroke-width="0.120111" stroke-linecap="round" stroke-linejoin="round"/>
<path d="M211.516 96.1542C214.198 96.1542 216.372 93.98 216.372 91.298C216.372 88.616 214.198 86.4418 211.516 86.4418C208.834 86.4418 206.66 88.616 206.66 91.298C206.66 93.98 208.834 96.1542 211.516 96.1542Z" fill="#363636" stroke="#263238" stroke-width="0.120111" stroke-linecap="round" stroke-linejoin="round"/>
<path d="M212.881 96.1542C215.563 96.1542 217.737 93.98 217.737 91.298C217.737 88.616 215.563 86.4418 212.881 86.4418C210.199 86.4418 208.025 88.616 208.025 91.298C208.025 93.98 210.199 96.1542 212.881 96.1542Z" fill="#949494" stroke="#263238" stroke-width="0.120111" stroke-linecap="round" stroke-linejoin="round"/>
<path d="M218.423 97.8483C222.036 96.3703 223.766 92.2435 222.288 88.6307C220.81 85.018 216.683 83.2875 213.071 84.7655C209.458 86.2435 207.727 90.3703 209.205 93.9831C210.683 97.5958 214.81 99.3263 218.423 97.8483Z" fill="#363636" stroke="#263238" stroke-width="0.120111" stroke-linecap="round" stroke-linejoin="round"/>
<path d="M222.735 96.2961C225.495 93.536 225.495 89.061 222.735 86.3009C219.975 83.5408 215.5 83.5408 212.74 86.3009C209.979 89.061 209.979 93.536 212.74 96.2961C215.5 99.0562 219.975 99.0562 222.735 96.2961Z" fill="#949494" stroke="#263238" stroke-width="0.120111" stroke-linecap="round" stroke-linejoin="round"/>
<path d="M264.399 92.6756H218.306C218.119 92.6858 217.932 92.6577 217.756 92.5932C217.581 92.5287 217.42 92.429 217.284 92.3003C217.148 92.1716 217.04 92.0165 216.966 91.8445C216.892 91.6725 216.854 91.4873 216.854 91.3C216.854 91.1128 216.892 90.9276 216.966 90.7556C217.04 90.5836 217.148 90.4285 217.284 90.2998C217.42 90.1711 217.581 90.0714 217.756 90.0069C217.932 89.9424 218.119 89.9143 218.306 89.9245H264.399C264.586 89.9143 264.773 89.9424 264.949 90.0069C265.125 90.0714 265.286 90.1711 265.421 90.2998C265.557 90.4285 265.666 90.5836 265.74 90.7556C265.814 90.9276 265.852 91.1128 265.852 91.3C265.852 91.4873 265.814 91.6725 265.74 91.8445C265.666 92.0165 265.557 92.1716 265.421 92.3003C265.286 92.429 265.125 92.5287 264.949 92.5932C264.773 92.6577 264.586 92.6858 264.399 92.6756Z" fill="white" stroke="#263238" stroke-width="0.120111" stroke-linecap="round" stroke-linejoin="round"/>
<path d="M261.051 93.2601L258.308 90.3987C258.264 90.3523 258.207 90.3203 258.144 90.3067C258.081 90.2931 258.016 90.2984 257.956 90.3221C257.897 90.3458 257.845 90.3867 257.809 90.4397C257.773 90.4926 257.753 90.5552 257.752 90.6194V94.1798L260.303 97.9323" fill="white"/>
<path d="M261.051 93.2601L258.308 90.3987C258.264 90.3523 258.207 90.3203 258.144 90.3067C258.081 90.2931 258.016 90.2984 257.956 90.3221C257.897 90.3458 257.845 90.3867 257.809 90.4397C257.773 90.4926 257.753 90.5552 257.752 90.6194V94.1798L260.303 97.9323" stroke="#263238" stroke-width="0.120111" stroke-linecap="round" stroke-linejoin="round"/>
<path d="M272.266 96.2961C275.026 93.536 275.026 89.061 272.266 86.3009C269.506 83.5408 265.031 83.5408 262.271 86.3009C259.51 89.061 259.51 93.536 262.271 96.2961C265.031 99.0562 269.506 99.0562 272.266 96.2961Z" fill="#363636" stroke="#263238" stroke-width="0.120111" stroke-linecap="round" stroke-linejoin="round"/>
<path d="M271.933 97.8504C275.545 96.3724 277.276 92.2456 275.798 88.6328C274.32 85.0201 270.193 83.2896 266.58 84.7676C262.968 86.2456 261.237 90.3724 262.715 93.9851C264.193 97.5979 268.32 99.3284 271.933 97.8504Z" fill="#949494" stroke="#263238" stroke-width="0.120111" stroke-linecap="round" stroke-linejoin="round"/>
<path d="M269.259 96.1542C271.941 96.1542 274.115 93.98 274.115 91.298C274.115 88.616 271.941 86.4418 269.259 86.4418C266.577 86.4418 264.403 88.616 264.403 91.298C264.403 93.98 266.577 96.1542 269.259 96.1542Z" fill="#363636" stroke="#263238" stroke-width="0.120111" stroke-linecap="round" stroke-linejoin="round"/>
<path d="M270.625 96.1542C273.307 96.1542 275.481 93.98 275.481 91.298C275.481 88.616 273.307 86.4418 270.625 86.4418C267.943 86.4418 265.768 88.616 265.768 91.298C265.768 93.98 267.943 96.1542 270.625 96.1542Z" fill="#949494" stroke="#263238" stroke-width="0.120111" stroke-linecap="round" stroke-linejoin="round"/>
<path d="M277.99 92.6756H270.632C270.446 92.6858 270.259 92.6577 270.083 92.5932C269.907 92.5287 269.746 92.429 269.61 92.3003C269.474 92.1716 269.366 92.0165 269.292 91.8445C269.218 91.6725 269.18 91.4873 269.18 91.3C269.18 91.1128 269.218 90.9276 269.292 90.7556C269.366 90.5836 269.474 90.4285 269.61 90.2998C269.746 90.1711 269.907 90.0714 270.083 90.0069C270.259 89.9424 270.446 89.9143 270.632 89.9245H277.99C278.342 89.9437 278.673 90.097 278.916 90.3529C279.158 90.6087 279.293 90.9477 279.293 91.3C279.293 91.6524 279.158 91.9914 278.916 92.2472C278.673 92.5031 278.342 92.6564 277.99 92.6756Z" fill="white" stroke="#263238" stroke-width="0.120111" stroke-linecap="round" stroke-linejoin="round"/>
<path d="M213.422 113.53C215.318 111.634 215.318 108.559 213.422 106.663C211.525 104.766 208.451 104.766 206.554 106.663C204.658 108.559 204.658 111.634 206.554 113.53C208.451 115.427 211.525 115.427 213.422 113.53Z" fill="#363636" stroke="#263238" stroke-width="0.120111" stroke-linecap="round" stroke-linejoin="round"/>
<path d="M216.142 110.87C216.573 108.223 214.776 105.727 212.129 105.296C209.482 104.865 206.987 106.661 206.556 109.308C206.124 111.956 207.921 114.451 210.568 114.882C213.215 115.313 215.711 113.517 216.142 110.87Z" fill="#949494" stroke="#263238" stroke-width="0.120111" stroke-linecap="round" stroke-linejoin="round"/>
<path d="M216.895 116.649C220.508 115.171 222.238 111.044 220.76 107.431C219.282 103.818 215.156 102.088 211.543 103.566C207.93 105.044 206.2 109.171 207.678 112.783C209.156 116.396 213.282 118.127 216.895 116.649Z" fill="#363636" stroke="#263238" stroke-width="0.120111" stroke-linecap="round" stroke-linejoin="round"/>
<path d="M221.208 115.093C223.968 112.333 223.968 107.858 221.208 105.098C218.448 102.338 213.973 102.338 211.213 105.098C208.453 107.858 208.453 112.333 211.213 115.093C213.973 117.853 218.448 117.853 221.208 115.093Z" fill="#949494" stroke="#263238" stroke-width="0.120111" stroke-linecap="round" stroke-linejoin="round"/>
<path d="M262.87 111.471H216.777C216.59 111.481 216.403 111.453 216.227 111.389C216.052 111.324 215.891 111.224 215.755 111.096C215.619 110.967 215.511 110.812 215.437 110.64C215.363 110.468 215.324 110.283 215.324 110.095C215.324 109.908 215.363 109.723 215.437 109.551C215.511 109.379 215.619 109.224 215.755 109.095C215.891 108.966 216.052 108.867 216.227 108.802C216.403 108.738 216.59 108.71 216.777 108.72H262.87C263.057 108.71 263.244 108.738 263.42 108.802C263.596 108.867 263.756 108.966 263.892 109.095C264.028 109.224 264.137 109.379 264.211 109.551C264.285 109.723 264.323 109.908 264.323 110.095C264.323 110.283 264.285 110.468 264.211 110.64C264.137 110.812 264.028 110.967 263.892 111.096C263.756 111.224 263.596 111.324 263.42 111.389C263.244 111.453 263.057 111.481 262.87 111.471Z" fill="white" stroke="#263238" stroke-width="0.120111" stroke-linecap="round" stroke-linejoin="round"/>
<path d="M259.253 111.708L256.506 108.847C256.462 108.8 256.405 108.767 256.342 108.753C256.279 108.739 256.214 108.744 256.154 108.768C256.095 108.792 256.044 108.833 256.008 108.887C255.972 108.94 255.953 109.003 255.954 109.067V112.615L258.505 116.364" fill="white"/>
<path d="M259.253 111.708L256.506 108.847C256.462 108.8 256.405 108.767 256.342 108.753C256.279 108.739 256.214 108.744 256.154 108.768C256.095 108.792 256.044 108.833 256.008 108.887C255.972 108.94 255.953 109.003 255.954 109.067V112.615L258.505 116.364" stroke="#263238" stroke-width="0.120111" stroke-linecap="round" stroke-linejoin="round"/>
<path d="M272.607 111.721C273.51 107.924 271.164 104.113 267.367 103.21C263.569 102.307 259.759 104.653 258.855 108.45C257.952 112.248 260.298 116.059 264.096 116.962C267.893 117.865 271.704 115.519 272.607 111.721Z" fill="#363636" stroke="#263238" stroke-width="0.120111" stroke-linecap="round" stroke-linejoin="round"/>
<path d="M270.405 116.651C274.018 115.173 275.748 111.046 274.27 107.433C272.792 103.82 268.665 102.09 265.053 103.568C261.44 105.046 259.709 109.173 261.187 112.785C262.665 116.398 266.792 118.129 270.405 116.651Z" fill="#949494" stroke="#263238" stroke-width="0.120111" stroke-linecap="round" stroke-linejoin="round"/>
<path d="M272.515 110.867C272.946 108.22 271.15 105.724 268.503 105.293C265.856 104.862 263.36 106.659 262.929 109.306C262.498 111.953 264.294 114.448 266.942 114.879C269.589 115.311 272.084 113.514 272.515 110.867Z" fill="#363636" stroke="#263238" stroke-width="0.120111" stroke-linecap="round" stroke-linejoin="round"/>
<path d="M273.816 111.21C274.435 108.601 272.822 105.983 270.212 105.364C267.602 104.745 264.985 106.358 264.366 108.968C263.746 111.577 265.36 114.195 267.969 114.814C270.579 115.433 273.196 113.82 273.816 111.21Z" fill="#949494" stroke="#263238" stroke-width="0.120111" stroke-linecap="round" stroke-linejoin="round"/>
<path d="M276.462 111.471H269.104C268.917 111.481 268.73 111.453 268.554 111.389C268.378 111.324 268.218 111.224 268.082 111.096C267.946 110.967 267.838 110.812 267.764 110.64C267.69 110.468 267.651 110.283 267.651 110.095C267.651 109.908 267.69 109.723 267.764 109.551C267.838 109.379 267.946 109.224 268.082 109.095C268.218 108.966 268.378 108.867 268.554 108.802C268.73 108.738 268.917 108.71 269.104 108.72H276.462C276.814 108.739 277.145 108.892 277.387 109.148C277.629 109.404 277.764 109.743 277.764 110.095C277.764 110.448 277.629 110.787 277.387 111.043C277.145 111.298 276.814 111.452 276.462 111.471Z" fill="white" stroke="#263238" stroke-width="0.120111" stroke-linecap="round" stroke-linejoin="round"/>
<path d="M257.372 121.686H253.971V125.394H257.372V121.686Z" fill="#949494" stroke="#263238" stroke-width="0.120111" stroke-linecap="round" stroke-linejoin="round"/>
<path d="M259.743 121.686H256.342V125.394H259.743V121.686Z" fill="white" stroke="#263238" stroke-width="0.120111" stroke-linecap="round" stroke-linejoin="round"/>
<path d="M288.332 121.686H284.931V125.394H288.332V121.686Z" fill="#363636" stroke="#263238" stroke-width="0.120111" stroke-linecap="round" stroke-linejoin="round"/>
<path d="M290.703 121.686H287.302V125.394H290.703V121.686Z" fill="#949494" stroke="#263238" stroke-width="0.120111" stroke-linecap="round" stroke-linejoin="round"/>
<path d="M289.076 118.326H251.596V122.414H289.076V118.326Z" fill="#363636" stroke="#263238" stroke-width="0.120111" stroke-linecap="round" stroke-linejoin="round"/>
<path d="M291.447 118.326H253.967V122.414H291.447V118.326Z" fill="#949494" stroke="#263238" stroke-width="0.120111" stroke-linecap="round" stroke-linejoin="round"/>
<path d="M229.257 55.3178L226.51 52.4564C226.466 52.4095 226.409 52.3769 226.346 52.3629C226.283 52.3489 226.218 52.3542 226.158 52.378C226.099 52.4019 226.047 52.4432 226.012 52.4966C225.976 52.55 225.957 52.6129 225.958 52.6772V56.2253L228.509 59.9738" fill="white"/>
<path d="M229.257 55.3178L226.51 52.4564C226.466 52.4095 226.409 52.3769 226.346 52.3629C226.283 52.3489 226.218 52.3542 226.158 52.378C226.099 52.4019 226.047 52.4432 226.012 52.4966C225.976 52.55 225.957 52.6129 225.958 52.6772V56.2253L228.509 59.9738" stroke="#263238" stroke-width="0.120111" stroke-linecap="round" stroke-linejoin="round"/>
<path d="M227.908 74.0642L225.161 71.2028C225.117 71.1558 225.06 71.1232 224.997 71.1092C224.934 71.0952 224.869 71.1005 224.809 71.1244C224.75 71.1482 224.699 71.1896 224.663 71.2429C224.627 71.2963 224.608 71.3593 224.609 71.4235V74.9676L227.156 78.7201" fill="white"/>
<path d="M227.908 74.0642L225.161 71.2028C225.117 71.1558 225.06 71.1232 224.997 71.1092C224.934 71.0952 224.869 71.1005 224.809 71.1244C224.75 71.1482 224.699 71.1896 224.663 71.2429C224.627 71.2963 224.608 71.3593 224.609 71.4235V74.9676L227.156 78.7201" stroke="#263238" stroke-width="0.120111" stroke-linecap="round" stroke-linejoin="round"/>
<path d="M226.407 93.2601L223.661 90.3987C223.617 90.3517 223.56 90.3191 223.497 90.3051C223.434 90.2911 223.369 90.2964 223.309 90.3203C223.249 90.3442 223.198 90.3855 223.163 90.4389C223.127 90.4922 223.108 90.5552 223.109 90.6194V94.1798L225.659 97.9324" fill="white"/>
<path d="M226.407 93.2601L223.661 90.3987C223.617 90.3517 223.56 90.3191 223.497 90.3051C223.434 90.2911 223.369 90.2964 223.309 90.3203C223.249 90.3442 223.198 90.3855 223.163 90.4389C223.127 90.4922 223.108 90.5552 223.109 90.6194V94.1798L225.659 97.9324" stroke="#263238" stroke-width="0.120111" stroke-linecap="round" stroke-linejoin="round"/>
<path d="M224.609 111.708L221.862 108.847C221.818 108.8 221.761 108.767 221.698 108.753C221.636 108.739 221.57 108.744 221.51 108.768C221.451 108.792 221.4 108.833 221.364 108.887C221.328 108.94 221.309 109.003 221.31 109.067V112.615L223.857 116.364" fill="white"/>
<path d="M224.609 111.708L221.862 108.847C221.818 108.8 221.761 108.767 221.698 108.753C221.636 108.739 221.57 108.744 221.51 108.768C221.451 108.792 221.4 108.833 221.364 108.887C221.328 108.94 221.309 109.003 221.31 109.067V112.615L223.857 116.364" stroke="#263238" stroke-width="0.120111" stroke-linecap="round" stroke-linejoin="round"/>
</g>
</g>
<path d="M219.915 88.178C219.546 88.62 219.024 88.9641 218.35 89.2102C217.675 89.4517 216.928 89.5725 216.107 89.5725C215.246 89.5725 214.49 89.3857 213.838 89.012C213.191 88.6337 212.689 88.0868 212.334 87.3713C211.983 86.6558 211.803 85.815 211.794 84.8489V84.1721C211.794 83.1786 211.96 82.3196 212.293 81.595C212.63 80.8658 213.113 80.3098 213.742 79.927C214.376 79.5396 215.116 79.3459 215.964 79.3459C217.144 79.3459 218.067 79.6285 218.732 80.1936C219.398 80.7542 219.792 81.5722 219.915 82.6477H217.919C217.828 82.078 217.625 81.6611 217.311 81.3967C217.001 81.1324 216.572 81.0002 216.025 81.0002C215.328 81.0002 214.797 81.2623 214.433 81.7864C214.068 82.3105 213.883 83.0898 213.879 84.1243V84.76C213.879 85.8036 214.077 86.592 214.474 87.1252C214.87 87.6584 215.451 87.925 216.217 87.925C216.987 87.925 217.536 87.761 217.864 87.4329V85.717H215.998V84.2063H219.915V88.178ZM224.215 86.6399L225.582 82.0393H227.701L224.728 90.5842L224.563 90.9739C224.121 91.94 223.392 92.4231 222.376 92.4231C222.089 92.4231 221.797 92.3798 221.501 92.2932V90.7961L221.802 90.803C222.175 90.803 222.453 90.746 222.636 90.6321C222.823 90.5181 222.968 90.329 223.073 90.0647L223.306 89.4563L220.715 82.0393H222.841L224.215 86.6399ZM230.333 82.0393L230.395 82.8665C230.919 82.2239 231.627 81.9026 232.521 81.9026C233.473 81.9026 234.127 82.2786 234.482 83.0305C235.002 82.2786 235.743 81.9026 236.704 81.9026C237.506 81.9026 238.103 82.1373 238.495 82.6067C238.887 83.0715 239.083 83.7734 239.083 84.7122V89.4358H237.101V84.719C237.101 84.2997 237.019 83.9944 236.854 83.803C236.69 83.607 236.401 83.509 235.986 83.509C235.394 83.509 234.984 83.7916 234.756 84.3567L234.763 89.4358H232.787V84.7258C232.787 84.2974 232.703 83.9875 232.534 83.7961C232.366 83.6047 232.078 83.509 231.673 83.509C231.112 83.509 230.707 83.7415 230.456 84.2063V89.4358H228.48V82.0393H230.333Z" fill="white"/>
<path d="M219.867 45.7692H216.133C215.921 45.7692 215.718 45.8535 215.568 46.0035C215.418 46.1535 215.333 46.357 215.333 46.5692V58.3025C215.333 58.4076 215.354 58.5116 215.394 58.6086C215.434 58.7057 215.493 58.7939 215.568 58.8682C215.642 58.9425 215.73 59.0014 215.827 59.0416C215.924 59.0818 216.028 59.1025 216.133 59.1025H219.867C219.972 59.1025 220.076 59.0818 220.173 59.0416C220.27 59.0014 220.358 58.9425 220.432 58.8682C220.507 58.7939 220.565 58.7057 220.606 58.6086C220.646 58.5116 220.667 58.4076 220.667 58.3025V46.5692C220.667 46.357 220.582 46.1535 220.432 46.0035C220.282 45.8535 220.079 45.7692 219.867 45.7692V45.7692Z" stroke="#F9F8FC" stroke-width="1.5" stroke-linecap="round" stroke-linejoin="round"/>
<path d="M235.867 45.7692H232.133C231.921 45.7692 231.718 45.8535 231.568 46.0035C231.418 46.1535 231.333 46.357 231.333 46.5692V58.3025C231.333 58.4076 231.354 58.5116 231.394 58.6086C231.434 58.7057 231.493 58.7939 231.568 58.8682C231.642 58.9425 231.73 59.0014 231.827 59.0416C231.924 59.0818 232.028 59.1025 232.133 59.1025H235.867C235.972 59.1025 236.076 59.0818 236.173 59.0416C236.27 59.0014 236.358 58.9425 236.432 58.8682C236.507 58.7939 236.565 58.7057 236.606 58.6086C236.646 58.5116 236.667 58.4076 236.667 58.3025V46.5692C236.667 46.357 236.582 46.1535 236.432 46.0035C236.282 45.8535 236.079 45.7692 235.867 45.7692V45.7692Z" stroke="#F9F8FC" stroke-width="1.5" stroke-linecap="round" stroke-linejoin="round"/>
<path d="M211.333 55.6358V49.2358C211.333 49.0236 211.418 48.8201 211.568 48.6701C211.718 48.5201 211.921 48.4358 212.133 48.4358H214.533C214.745 48.4358 214.949 48.5201 215.099 48.6701C215.249 48.8201 215.333 49.0236 215.333 49.2358V55.6358C215.333 55.848 215.249 56.0514 215.099 56.2015C214.949 56.3515 214.745 56.4358 214.533 56.4358H212.133C211.921 56.4358 211.718 56.3515 211.568 56.2015C211.418 56.0514 211.333 55.848 211.333 55.6358V55.6358Z" stroke="#F9F8FC" stroke-width="1.5" stroke-linecap="round" stroke-linejoin="round"/>
<path d="M240.667 55.6358V49.2358C240.667 49.0236 240.582 48.8201 240.432 48.6701C240.282 48.5201 240.079 48.4358 239.867 48.4358H237.467C237.254 48.4358 237.051 48.5201 236.901 48.6701C236.751 48.8201 236.667 49.0236 236.667 49.2358V55.6358C236.667 55.848 236.751 56.0514 236.901 56.2015C237.051 56.3515 237.254 56.4358 237.467 56.4358H239.867C240.079 56.4358 240.282 56.3515 240.432 56.2015C240.582 56.0514 240.667 55.848 240.667 55.6358V55.6358Z" stroke="#F9F8FC" stroke-width="1.5" stroke-linecap="round" stroke-linejoin="round"/>
<path d="M220.667 52.4358H231.333" stroke="#F9F8FC" stroke-width="1.5" stroke-linecap="round" stroke-linejoin="round"/>
<defs>
<linearGradient id="paint0_linear_1607_40409" x1="0" y1="0.0656738" x2="128.135" y2="139.127" gradientUnits="userSpaceOnUse">
<stop stop-color="#FF9D6C"/>
<stop offset="1" stop-color="#BB4E75"/>
</linearGradient>
<linearGradient id="paint1_linear_1607_40409" x1="0" y1="0.0656738" x2="128.135" y2="139.127" gradientUnits="userSpaceOnUse">
<stop stop-color="#FF9D6C"/>
<stop offset="1" stop-color="#BB4E75"/>
</linearGradient>
<linearGradient id="paint2_linear_1607_40409" x1="0" y1="145" x2="127.996" y2="284.05" gradientUnits="userSpaceOnUse">
<stop stop-color="#43CBFF"/>
<stop offset="1" stop-color="#9708CC"/>
</linearGradient>
<linearGradient id="paint3_linear_1607_40409" x1="0" y1="145" x2="127.996" y2="284.05" gradientUnits="userSpaceOnUse">
<stop stop-color="#43CBFF"/>
<stop offset="1" stop-color="#9708CC"/>
</linearGradient>
<linearGradient id="paint4_linear_1607_40409" x1="155.473" y1="0" x2="283.47" y2="139.05" gradientUnits="userSpaceOnUse">
<stop stop-color="#F6CEEC"/>
<stop offset="1" stop-color="#D939CD"/>
</linearGradient>
<linearGradient id="paint5_linear_1607_40409" x1="155.473" y1="0" x2="283.47" y2="139.05" gradientUnits="userSpaceOnUse">
<stop stop-color="#F6CEEC"/>
<stop offset="1" stop-color="#D939CD"/>
</linearGradient>
<clipPath id="clip0_1607_40409">
<rect width="32" height="32" fill="white" transform="translate(54 36.0657)"/>
</clipPath>
</defs>
</svg>
