<svg width="361" height="106" viewBox="0 0 361 106" fill="none" xmlns="http://www.w3.org/2000/svg">
<g filter="url(#filter0_d_1607_44694)">
<rect x="17" y="17" width="327" height="71.7635" rx="6" fill="white"/>
</g>
<rect x="33" y="70" width="295" height="3" rx="1.5" fill="#DDD1FB"/>
<rect x="32.936" y="70.1458" width="129" height="3" rx="1.5" fill="#692CFF"/>
<path d="M44.2676 48.3828C43.793 48.9512 43.1221 49.3936 42.2549 49.71C41.3877 50.0205 40.4268 50.1758 39.3721 50.1758C38.2646 50.1758 37.292 49.9355 36.4541 49.4551C35.6221 48.9688 34.9775 48.2656 34.5205 47.3457C34.0693 46.4258 33.8379 45.3447 33.8262 44.1025V43.2324C33.8262 41.9551 34.04 40.8506 34.4678 39.9189C34.9014 38.9814 35.5225 38.2666 36.3311 37.7744C37.1455 37.2764 38.0977 37.0273 39.1875 37.0273C40.7051 37.0273 41.8916 37.3906 42.7471 38.1172C43.6025 38.8379 44.1094 39.8896 44.2676 41.2725H41.7012C41.584 40.54 41.3232 40.0039 40.9189 39.6641C40.5205 39.3242 39.9697 39.1543 39.2666 39.1543C38.3701 39.1543 37.6875 39.4912 37.2188 40.165C36.75 40.8389 36.5127 41.8408 36.5068 43.1709V43.9883C36.5068 45.3301 36.7617 46.3438 37.2715 47.0293C37.7812 47.7148 38.5283 48.0576 39.5127 48.0576C40.5029 48.0576 41.209 47.8467 41.6309 47.4248V45.2188H39.2314V43.2764H44.2676V48.3828ZM48.9258 50H46.377V40.4902H48.9258V50ZM46.2275 38.0293C46.2275 37.6484 46.3535 37.335 46.6055 37.0889C46.8633 36.8428 47.2119 36.7197 47.6514 36.7197C48.085 36.7197 48.4307 36.8428 48.6885 37.0889C48.9463 37.335 49.0752 37.6484 49.0752 38.0293C49.0752 38.416 48.9434 38.7324 48.6797 38.9785C48.4219 39.2246 48.0791 39.3477 47.6514 39.3477C47.2236 39.3477 46.8779 39.2246 46.6143 38.9785C46.3564 38.7324 46.2275 38.416 46.2275 38.0293ZM54.5859 46.8975L56.3525 40.4902H59.0068L55.7988 50H53.373L50.165 40.4902H52.8193L54.5859 46.8975ZM62.8125 50H60.2637V40.4902H62.8125V50ZM60.1143 38.0293C60.1143 37.6484 60.2402 37.335 60.4922 37.0889C60.75 36.8428 61.0986 36.7197 61.5381 36.7197C61.9717 36.7197 62.3174 36.8428 62.5752 37.0889C62.833 37.335 62.9619 37.6484 62.9619 38.0293C62.9619 38.416 62.8301 38.7324 62.5664 38.9785C62.3086 39.2246 61.9658 39.3477 61.5381 39.3477C61.1104 39.3477 60.7646 39.2246 60.501 38.9785C60.2432 38.7324 60.1143 38.416 60.1143 38.0293ZM67.251 40.4902L67.3301 41.5889C68.0098 40.7393 68.9209 40.3145 70.0635 40.3145C71.0713 40.3145 71.8213 40.6104 72.3135 41.2021C72.8057 41.7939 73.0576 42.6787 73.0693 43.8564V50H70.5293V43.918C70.5293 43.3789 70.4121 42.9893 70.1777 42.749C69.9434 42.5029 69.5537 42.3799 69.0088 42.3799C68.2939 42.3799 67.7578 42.6846 67.4004 43.2939V50H64.8604V40.4902H67.251ZM74.6338 45.1748C74.6338 43.7158 74.9795 42.541 75.6709 41.6504C76.3682 40.7598 77.3057 40.3145 78.4834 40.3145C79.5264 40.3145 80.3379 40.6719 80.918 41.3867L81.0234 40.4902H83.3262V49.6836C83.3262 50.5156 83.1357 51.2393 82.7549 51.8545C82.3799 52.4697 81.8496 52.9385 81.1641 53.2607C80.4785 53.583 79.6758 53.7441 78.7559 53.7441C78.0586 53.7441 77.3789 53.6035 76.7168 53.3223C76.0547 53.0469 75.5537 52.6895 75.2139 52.25L76.3389 50.7031C76.9717 51.4121 77.7393 51.7666 78.6416 51.7666C79.3154 51.7666 79.8398 51.585 80.2148 51.2217C80.5898 50.8643 80.7773 50.3545 80.7773 49.6924V49.1826C80.1914 49.8447 79.4209 50.1758 78.4658 50.1758C77.3232 50.1758 76.3975 49.7305 75.6885 48.8398C74.9854 47.9434 74.6338 46.7568 74.6338 45.2803V45.1748ZM77.1738 45.3594C77.1738 46.2207 77.3467 46.8975 77.6924 47.3896C78.0381 47.876 78.5127 48.1191 79.1162 48.1191C79.8896 48.1191 80.4434 47.8291 80.7773 47.249V43.25C80.4375 42.6699 79.8896 42.3799 79.1338 42.3799C78.5244 42.3799 78.0439 42.6289 77.6924 43.127C77.3467 43.625 77.1738 44.3691 77.1738 45.3594ZM98.3379 45.333C98.3379 46.8564 98.0127 48.0459 97.3623 48.9014C96.7119 49.751 95.8037 50.1758 94.6377 50.1758C93.6064 50.1758 92.7832 49.7803 92.168 48.9893L92.0537 50H89.7686V36.5H92.3086V41.3428C92.8945 40.6572 93.665 40.3145 94.6201 40.3145C95.7803 40.3145 96.6885 40.7422 97.3447 41.5977C98.0068 42.4473 98.3379 43.6455 98.3379 45.1924V45.333ZM95.7979 45.1484C95.7979 44.1875 95.6455 43.4873 95.3408 43.0479C95.0361 42.6025 94.582 42.3799 93.9785 42.3799C93.1699 42.3799 92.6133 42.7109 92.3086 43.373V47.126C92.6191 47.7939 93.1816 48.1279 93.9961 48.1279C94.8164 48.1279 95.3555 47.7236 95.6133 46.915C95.7363 46.5283 95.7979 45.9395 95.7979 45.1484ZM102.592 50H100.043V40.4902H102.592V50ZM99.8936 38.0293C99.8936 37.6484 100.02 37.335 100.271 37.0889C100.529 36.8428 100.878 36.7197 101.317 36.7197C101.751 36.7197 102.097 36.8428 102.354 37.0889C102.612 37.335 102.741 37.6484 102.741 38.0293C102.741 38.416 102.609 38.7324 102.346 38.9785C102.088 39.2246 101.745 39.3477 101.317 39.3477C100.89 39.3477 100.544 39.2246 100.28 38.9785C100.022 38.7324 99.8936 38.416 99.8936 38.0293ZM110.036 42.8721C109.69 42.8252 109.386 42.8018 109.122 42.8018C108.161 42.8018 107.531 43.127 107.232 43.7773V50H104.692V40.4902H107.092L107.162 41.624C107.672 40.751 108.378 40.3145 109.28 40.3145C109.562 40.3145 109.825 40.3525 110.071 40.4287L110.036 42.8721ZM114.747 38.1523V40.4902H116.373V42.3535H114.747V47.0996C114.747 47.4512 114.814 47.7031 114.949 47.8555C115.084 48.0078 115.342 48.084 115.723 48.084C116.004 48.084 116.253 48.0635 116.47 48.0225V49.9473C115.972 50.0996 115.459 50.1758 114.932 50.1758C113.15 50.1758 112.242 49.2764 112.207 47.4775V42.3535H110.818V40.4902H112.207V38.1523H114.747ZM120.267 41.5273C120.94 40.7188 121.787 40.3145 122.807 40.3145C124.869 40.3145 125.915 41.5127 125.944 43.9092V50H123.404V43.9795C123.404 43.4346 123.287 43.0332 123.053 42.7754C122.818 42.5117 122.429 42.3799 121.884 42.3799C121.14 42.3799 120.601 42.667 120.267 43.2412V50H117.727V36.5H120.267V41.5273Z" fill="#0C0029"/>
<path d="M302.299 51H296.709V50.2207L299.662 46.9395C300.1 46.4434 300.4 46.041 300.564 45.7324C300.732 45.4199 300.816 45.0977 300.816 44.7656C300.816 44.3203 300.682 43.9551 300.412 43.6699C300.143 43.3848 299.783 43.2422 299.334 43.2422C298.795 43.2422 298.375 43.3965 298.074 43.7051C297.777 44.0098 297.629 44.4355 297.629 44.9824H296.545C296.545 44.1973 296.797 43.5625 297.301 43.0781C297.809 42.5938 298.486 42.3516 299.334 42.3516C300.127 42.3516 300.754 42.5605 301.215 42.9785C301.676 43.3926 301.906 43.9453 301.906 44.6367C301.906 45.4766 301.371 46.4766 300.301 47.6367L298.016 50.1152H302.299V51ZM303.775 51.7324H302.844L306.406 42.4688H307.332L303.775 51.7324ZM308.891 46.7227L309.324 42.4688H313.695V43.4707H310.244L309.986 45.7969C310.404 45.5508 310.879 45.4277 311.41 45.4277C312.188 45.4277 312.805 45.6855 313.262 46.2012C313.719 46.7129 313.947 47.4062 313.947 48.2812C313.947 49.1602 313.709 49.8535 313.232 50.3613C312.76 50.8652 312.098 51.1172 311.246 51.1172C310.492 51.1172 309.877 50.9082 309.4 50.4902C308.924 50.0723 308.652 49.4941 308.586 48.7559H309.611C309.678 49.2441 309.852 49.6133 310.133 49.8633C310.414 50.1094 310.785 50.2324 311.246 50.2324C311.75 50.2324 312.145 50.0605 312.43 49.7168C312.719 49.373 312.863 48.8984 312.863 48.293C312.863 47.7227 312.707 47.2656 312.395 46.9219C312.086 46.5742 311.674 46.4004 311.158 46.4004C310.686 46.4004 310.314 46.5039 310.045 46.7109L309.758 46.9453L308.891 46.7227Z" fill="#7C7195"/>
<defs>
<filter id="filter0_d_1607_44694" x="0" y="0" width="361" height="105.763" filterUnits="userSpaceOnUse" color-interpolation-filters="sRGB">
<feFlood flood-opacity="0" result="BackgroundImageFix"/>
<feColorMatrix in="SourceAlpha" type="matrix" values="0 0 0 0 0 0 0 0 0 0 0 0 0 0 0 0 0 0 127 0" result="hardAlpha"/>
<feMorphology radius="6" operator="dilate" in="SourceAlpha" result="effect1_dropShadow_1607_44694"/>
<feOffset/>
<feGaussianBlur stdDeviation="5.5"/>
<feComposite in2="hardAlpha" operator="out"/>
<feColorMatrix type="matrix" values="0 0 0 0 0.34902 0 0 0 0 0.27451 0 0 0 0 0.698039 0 0 0 0.06 0"/>
<feBlend mode="normal" in2="BackgroundImageFix" result="effect1_dropShadow_1607_44694"/>
<feBlend mode="normal" in="SourceGraphic" in2="effect1_dropShadow_1607_44694" result="shape"/>
</filter>
</defs>
</svg>
