<svg width="375" height="45" viewBox="0 0 375 45" fill="none" xmlns="http://www.w3.org/2000/svg">
<path d="M34.2192 27.9343H34.3657C34.854 27.9343 35.2935 27.8806 35.6841 27.7732C36.0747 27.6657 36.4092 27.4997 36.6875 27.2751C36.9658 27.0456 37.1782 26.7502 37.3247 26.3889C37.4761 26.0227 37.5518 25.5808 37.5518 25.0632V22.8586C37.5518 22.5168 37.5225 22.2214 37.4639 21.9724C37.4053 21.7185 37.3198 21.5085 37.2075 21.3425C37.0952 21.1765 36.9609 21.0544 36.8047 20.9763C36.6484 20.8933 36.4727 20.8518 36.2773 20.8518C36.082 20.8518 35.9087 20.9079 35.7573 21.0202C35.6108 21.1277 35.4839 21.2741 35.3765 21.4597C35.2739 21.6404 35.1958 21.8454 35.1421 22.0749C35.0884 22.2995 35.0615 22.5266 35.0615 22.7561C35.0615 23.0149 35.0884 23.2566 35.1421 23.4812C35.2007 23.7009 35.2837 23.8938 35.3911 24.0598C35.5034 24.2209 35.6426 24.3479 35.8086 24.4407C35.9795 24.5334 36.1772 24.5798 36.4019 24.5798C36.6265 24.5798 36.8193 24.5407 36.9805 24.4626C37.1465 24.3796 37.2832 24.2722 37.3906 24.1404C37.498 24.0036 37.5762 23.8572 37.625 23.7009C37.6787 23.5447 37.7031 23.3908 37.6982 23.2395L38.416 23.8034C38.416 24.1159 38.3452 24.4236 38.2036 24.7263C38.062 25.029 37.8667 25.3049 37.6177 25.5539C37.3687 25.7981 37.0806 25.9934 36.7534 26.1399C36.4312 26.2864 36.0894 26.3596 35.728 26.3596C35.2446 26.3596 34.8076 26.2741 34.417 26.1032C34.0312 25.9324 33.7017 25.6882 33.4282 25.3708C33.1548 25.0534 32.9448 24.675 32.7983 24.2356C32.6567 23.7912 32.5859 23.2981 32.5859 22.7561C32.5859 22.2336 32.6763 21.7429 32.8569 21.2839C33.0376 20.8249 33.2939 20.4221 33.626 20.0754C33.958 19.7239 34.3511 19.448 34.8052 19.2478C35.2593 19.0476 35.7573 18.9475 36.2993 18.9475C36.812 18.9475 37.293 19.0451 37.7422 19.2405C38.1914 19.4309 38.5869 19.7116 38.9287 20.0827C39.2705 20.4538 39.5391 20.9104 39.7344 21.4524C39.9297 21.9944 40.0273 22.6145 40.0273 23.3127V24.1623C40.0273 24.9192 39.9346 25.6028 39.749 26.2131C39.5635 26.8235 39.2998 27.3606 38.958 27.8244C38.6162 28.2834 38.2109 28.6692 37.7422 28.9817C37.2783 29.2893 36.7632 29.5212 36.1968 29.6775C35.6353 29.8337 35.0396 29.9118 34.4097 29.9118H34.2192V27.9343ZM41.2454 28.6081C41.2454 28.2566 41.3724 27.9636 41.6263 27.7292C41.8802 27.49 42.2073 27.3703 42.6077 27.3703C43.013 27.3703 43.3402 27.49 43.5892 27.7292C43.8431 27.9636 43.97 28.2566 43.97 28.6081C43.97 28.9597 43.8431 29.2551 43.5892 29.4944C43.3402 29.7287 43.013 29.8459 42.6077 29.8459C42.2073 29.8459 41.8802 29.7287 41.6263 29.4944C41.3724 29.2551 41.2454 28.9597 41.2454 28.6081ZM41.2454 22.7634C41.2454 22.4118 41.3724 22.1189 41.6263 21.8845C41.8802 21.6452 42.2073 21.5256 42.6077 21.5256C43.013 21.5256 43.3402 21.6452 43.5892 21.8845C43.8431 22.1189 43.97 22.4118 43.97 22.7634C43.97 23.115 43.8431 23.4104 43.5892 23.6496C43.3402 23.884 43.013 24.0012 42.6077 24.0012C42.2073 24.0012 41.8802 23.884 41.6263 23.6496C41.3724 23.4104 41.2454 23.115 41.2454 22.7634ZM52.8273 25.5979V27.5022H45.1515L45.005 25.9934L49.2897 19.1013H51.2379L49.1212 22.5657L47.3634 25.5979H52.8273ZM51.7506 19.1013V29.7654H49.2824V19.1013H51.7506ZM59.0771 19.1013V29.7654H56.6088V21.8845L54.1772 22.5949V20.7199L58.8501 19.1013H59.0771Z" fill="#0C0029"/>
<path fill-rule="evenodd" clip-rule="evenodd" d="M312 18.7654H311C310.448 18.7654 310 19.2131 310 19.7654V28.432C310 28.9843 310.448 29.432 311 29.432H312C312.552 29.432 313 28.9843 313 28.432V19.7654C313 19.2131 312.552 18.7654 312 18.7654ZM306.333 21.0987H307.333C307.886 21.0987 308.333 21.5464 308.333 22.0987V28.432C308.333 28.9843 307.886 29.432 307.333 29.432H306.333C305.781 29.432 305.333 28.9843 305.333 28.432V22.0987C305.333 21.5464 305.781 21.0987 306.333 21.0987ZM302.667 23.432H301.667C301.114 23.432 300.667 23.8797 300.667 24.432V28.432C300.667 28.9843 301.114 29.432 301.667 29.432H302.667C303.219 29.432 303.667 28.9843 303.667 28.432V24.432C303.667 23.8797 303.219 23.432 302.667 23.432ZM298 25.432H297C296.448 25.432 296 25.8797 296 26.432V28.432C296 28.9843 296.448 29.432 297 29.432H298C298.552 29.432 299 28.9843 299 28.432V26.432C299 25.8797 298.552 25.432 298 25.432Z" fill="#0C0029"/>
<path fill-rule="evenodd" clip-rule="evenodd" d="M330.94 23.421C329.334 21.8942 327.203 21.0428 324.987 21.0427C322.771 21.0427 320.639 21.8941 319.033 23.421C318.912 23.5391 318.719 23.5376 318.6 23.4177L317.443 22.251C317.383 22.1903 317.35 22.108 317.35 22.0224C317.351 21.9368 317.385 21.855 317.446 21.795C321.661 17.7555 328.311 17.7555 332.526 21.795C332.587 21.855 332.622 21.9369 332.622 22.0225C332.623 22.108 332.589 22.1903 332.529 22.251L331.373 23.4177C331.254 23.5374 331.061 23.5389 330.94 23.421ZM324.987 24.8383C326.204 24.8383 327.378 25.2908 328.281 26.108C328.403 26.224 328.595 26.2215 328.714 26.1023L329.869 24.9357C329.93 24.8745 329.963 24.7915 329.962 24.7052C329.962 24.6189 329.926 24.5366 329.864 24.4767C327.116 21.9203 322.86 21.9203 320.112 24.4767C320.05 24.5366 320.014 24.619 320.013 24.7053C320.013 24.7916 320.046 24.8746 320.107 24.9357L321.262 26.1023C321.381 26.2215 321.573 26.224 321.695 26.108C322.597 25.2913 323.77 24.8389 324.987 24.8383ZM327.206 27.6227C327.267 27.5621 327.301 27.4787 327.3 27.3922C327.298 27.3057 327.261 27.2237 327.196 27.1657C325.921 26.0868 324.053 26.0868 322.777 27.1657C322.713 27.2237 322.675 27.3056 322.674 27.3921C322.672 27.4786 322.706 27.562 322.767 27.6227L324.765 29.6384C324.824 29.6976 324.903 29.7309 324.987 29.7309C325.07 29.7309 325.15 29.6976 325.208 29.6384L327.206 27.6227Z" fill="#0C0029"/>
<g clip-path="url(#clip0_1607_48279)">
<path opacity="0.35" d="M338.667 18.2654H355.333C356.53 18.2654 357.5 19.2354 357.5 20.432V26.432C357.5 27.6286 356.53 28.5987 355.333 28.5987H338.667C337.47 28.5987 336.5 27.6286 336.5 26.432V20.432C336.5 19.2354 337.47 18.2654 338.667 18.2654Z" stroke="#0C0029"/>
<path opacity="0.4" d="M359 21.432V25.432C359.805 25.0933 360.328 24.3052 360.328 23.432C360.328 22.5589 359.805 21.7708 359 21.432" fill="#0C0029"/>
<path d="M338 21.0987C338 20.3623 338.597 19.7654 339.333 19.7654H354.667C355.403 19.7654 356 20.3623 356 21.0987V25.7654C356 26.5017 355.403 27.0987 354.667 27.0987H339.333C338.597 27.0987 338 26.5017 338 25.7654V21.0987Z" fill="#0C0029"/>
</g>
<defs>
<clipPath id="clip0_1607_48279">
<rect width="25" height="16" fill="white" transform="translate(335 15.7654)"/>
</clipPath>
</defs>
</svg>
