<svg width="25" height="25" viewBox="0 0 25 25" fill="none" xmlns="http://www.w3.org/2000/svg">
<g clip-path="url(#clip0_1607_42247)">
<path d="M21.9695 15.8438C21.9695 16.3742 21.7588 16.8829 21.3837 17.258C21.0086 17.633 20.4999 17.8438 19.9695 17.8438H7.96948L3.96948 21.8438V5.84375C3.96948 5.31332 4.1802 4.80461 4.55527 4.42954C4.93034 4.05446 5.43905 3.84375 5.96948 3.84375H19.9695C20.4999 3.84375 21.0086 4.05446 21.3837 4.42954C21.7588 4.80461 21.9695 5.31332 21.9695 5.84375V15.8438Z" fill="#692CFF" stroke="#692CFF" stroke-width="2" stroke-linecap="round" stroke-linejoin="round"/>
<circle cx="17.9695" cy="6.84375" r="6" fill="#FFA700"/>
<path d="M18.8591 10.9023H17.9509V4.88184L16.1296 5.55078V4.73047L18.7175 3.75879H18.8591V10.9023Z" fill="#F9F8FC"/>
</g>
<defs>
<clipPath id="clip0_1607_42247">
<rect width="24" height="24" fill="white" transform="translate(0.969482 0.84375)"/>
</clipPath>
</defs>
</svg>
