<svg width="295" height="129" viewBox="0 0 295 129" fill="none" xmlns="http://www.w3.org/2000/svg">
<rect y="0.0656738" width="139.527" height="128.564" rx="3.64479" fill="url(#paint0_linear_1607_39614)"/>
<mask id="mask0_1607_39614" style="mask-type:alpha" maskUnits="userSpaceOnUse" x="0" y="0" width="140" height="129">
<rect y="0.0656738" width="139.527" height="128.564" rx="3.64479" fill="url(#paint1_linear_1607_39614)"/>
</mask>
<g mask="url(#mask0_1607_39614)">
<g style="mix-blend-mode:overlay">
<path d="M-87.3906 125.357H114.162" stroke="#263238" stroke-width="0.186483" stroke-miterlimit="10" stroke-linecap="round"/>
<path d="M75.1644 36.2468H32.2544V114.615H75.1644V36.2468Z" stroke="#263238" stroke-width="0.186483" stroke-miterlimit="10" stroke-linecap="round"/>
<path d="M73.1116 38.9359H34.3047V83.6676H73.1116V38.9359Z" stroke="#263238" stroke-width="0.186483" stroke-miterlimit="10" stroke-linecap="round"/>
<path d="M73.1116 86.8568H34.3047V111.926H73.1116V86.8568Z" stroke="#263238" stroke-width="0.186483" stroke-miterlimit="10" stroke-linecap="round"/>
<path d="M43.3318 38.9504V83.4507" stroke="#263238" stroke-width="0.186483" stroke-miterlimit="10" stroke-linecap="round"/>
<path d="M53.7876 38.9504V83.4507" stroke="#263238" stroke-width="0.186483" stroke-miterlimit="10" stroke-linecap="round"/>
<path d="M64.2432 38.9504V83.4507" stroke="#263238" stroke-width="0.186483" stroke-miterlimit="10" stroke-linecap="round"/>
<path d="M43.3318 86.6545V111.981" stroke="#263238" stroke-width="0.186483" stroke-miterlimit="10" stroke-linecap="round"/>
<path d="M53.7876 86.6545V111.981" stroke="#263238" stroke-width="0.186483" stroke-miterlimit="10" stroke-linecap="round"/>
<path d="M64.2432 86.6545V111.981" stroke="#263238" stroke-width="0.186483" stroke-miterlimit="10" stroke-linecap="round"/>
<path d="M34.2322 47.4745H73.0825" stroke="#263238" stroke-width="0.186483" stroke-miterlimit="10" stroke-linecap="round"/>
<path d="M34.2322 56.8893H73.0825" stroke="#263238" stroke-width="0.186483" stroke-miterlimit="10" stroke-linecap="round"/>
<path d="M34.2322 66.304H73.0825" stroke="#263238" stroke-width="0.186483" stroke-miterlimit="10" stroke-linecap="round"/>
<path d="M34.2322 75.7188H73.0825" stroke="#263238" stroke-width="0.186483" stroke-miterlimit="10" stroke-linecap="round"/>
<path d="M34.2322 96.1531H73.0825" stroke="#263238" stroke-width="0.186483" stroke-miterlimit="10" stroke-linecap="round"/>
<path d="M34.2322 104.443H73.0825" stroke="#263238" stroke-width="0.186483" stroke-miterlimit="10" stroke-linecap="round"/>
<path d="M101.567 90.1416C103.188 90.1416 104.502 86.6967 104.502 82.4473C104.502 78.1978 103.188 74.753 101.567 74.753C99.9458 74.753 98.6318 78.1978 98.6318 82.4473C98.6318 86.6967 99.9458 90.1416 101.567 90.1416Z" fill="#92E3A9" stroke="#263238" stroke-width="0.186483" stroke-miterlimit="10"/>
<path d="M92.4525 77.7023C93.3691 80.5938 95.1301 82.6179 96.3879 82.2073C97.6457 81.7967 97.9175 79.1452 97.0009 76.2565C96.0843 73.3679 94.3205 71.341 93.0655 71.7545C91.8106 72.168 91.533 74.8166 92.4525 77.7023Z" fill="#92E3A9" stroke="#263238" stroke-width="0.186483" stroke-miterlimit="10"/>
<path d="M113.977 95.1092C116.964 94.6032 119.205 93.1372 118.985 91.839C118.765 90.5407 116.166 89.8959 113.179 90.3932C110.192 90.8905 107.942 92.371 108.171 93.6722C108.399 94.9733 110.99 95.6153 113.977 95.1092Z" fill="#92E3A9" stroke="#263238" stroke-width="0.186483" stroke-miterlimit="10"/>
<path d="M89.6882 88.0047C92.1836 90.4799 95.13 91.5526 96.2722 90.4018C97.4143 89.251 96.3155 86.3132 93.8202 83.841C91.3248 81.3687 88.3812 80.2931 87.2391 81.4439C86.0969 82.5947 87.1957 85.5209 89.6882 88.0047Z" fill="#92E3A9" stroke="#263238" stroke-width="0.186483" stroke-miterlimit="10"/>
<path d="M106.875 81.2097C104.464 84.7084 103.744 88.398 105.271 89.4476C106.797 90.4972 109.987 88.5166 112.398 85.0149C114.81 81.5133 115.53 77.8295 114.003 76.777C112.476 75.7245 109.287 77.711 106.875 81.2097Z" fill="#92E3A9" stroke="#263238" stroke-width="0.186483" stroke-miterlimit="10"/>
<path d="M101.361 89.7599L101.133 113.167" stroke="#263238" stroke-width="0.186483" stroke-miterlimit="10" stroke-linecap="round"/>
<path d="M101.633 79.5876L101.361 89.7599" stroke="#263238" stroke-width="0.186483" stroke-miterlimit="10" stroke-linecap="round"/>
<path d="M101.616 77.9278L101.633 78.7056" stroke="#263238" stroke-width="0.186483" stroke-miterlimit="10" stroke-linecap="round"/>
<path d="M105.282 88.9503C103.602 92.4257 102.619 96.1971 102.391 100.051V114.529" stroke="#263238" stroke-width="0.186483" stroke-miterlimit="10" stroke-linecap="round"/>
<path d="M110.322 81.2386C108.308 83.5741 106.613 86.1674 105.282 88.9503" stroke="#263238" stroke-width="0.186483" stroke-miterlimit="10" stroke-linecap="round"/>
<path d="M111.907 79.5615C111.907 79.5615 111.603 79.8507 111.103 80.3711" stroke="#263238" stroke-width="0.186483" stroke-miterlimit="10" stroke-linecap="round"/>
<path d="M96.0874 90.0288C98.1445 92.9136 99.7477 96.0965 100.841 99.4667" stroke="#263238" stroke-width="0.186483" stroke-miterlimit="10" stroke-linecap="round"/>
<path d="M92.7129 86.157C93.9555 87.34 95.0851 88.6362 96.0873 90.0288" stroke="#263238" stroke-width="0.186483" stroke-miterlimit="10" stroke-linecap="round"/>
<path d="M89.1101 83.4102C90.0275 83.9271 90.8889 84.5376 91.6807 85.2318" stroke="#263238" stroke-width="0.186483" stroke-miterlimit="10" stroke-linecap="round"/>
<path d="M96.2114 81.4901C97.8365 86.6052 100.02 94.1636 101.037 100.724" stroke="#263238" stroke-width="0.186483" stroke-miterlimit="10" stroke-linecap="round"/>
<path d="M95.22 78.4628C95.5091 79.3303 95.8445 80.351 96.2089 81.496" stroke="#263238" stroke-width="0.186483" stroke-miterlimit="10" stroke-linecap="round"/>
<path d="M94.2078 75.5221C94.2078 75.5221 94.4969 76.3057 94.948 77.6474" stroke="#263238" stroke-width="0.186483" stroke-miterlimit="10" stroke-linecap="round"/>
<path d="M108.321 92.9608C106.297 93.7328 103.516 95.8783 102.553 98.6918" stroke="#263238" stroke-width="0.186483" stroke-miterlimit="10" stroke-linecap="round"/>
<path d="M112.074 92.2003C110.79 92.2637 109.523 92.52 108.315 92.9608" stroke="#263238" stroke-width="0.186483" stroke-miterlimit="10" stroke-linecap="round"/>
<path d="M114.503 92.2582C114.503 92.2582 114.142 92.209 113.546 92.183" stroke="#263238" stroke-width="0.186483" stroke-miterlimit="10" stroke-linecap="round"/>
<path d="M108.119 106.36C110.863 107.641 113.54 107.71 114.098 106.516C114.656 105.322 112.884 103.315 110.14 102.034C107.396 100.753 104.718 100.684 104.16 101.878C103.602 103.072 105.375 105.079 108.119 106.36Z" fill="#92E3A9" stroke="#263238" stroke-width="0.186483" stroke-miterlimit="10"/>
<path d="M108.205 102.884C107.115 102.209 105.929 101.702 104.686 101.381C104.401 101.206 104.072 101.117 103.737 101.123C103.403 101.129 103.077 101.231 102.798 101.416C102.428 101.661 102.553 103.518 102.553 103.518V113.161" stroke="#263238" stroke-width="0.186483" stroke-miterlimit="10" stroke-linecap="round"/>
<path d="M110.172 104.316C110.172 104.316 109.903 104.067 109.426 103.709" stroke="#263238" stroke-width="0.186483" stroke-miterlimit="10" stroke-linecap="round"/>
<path d="M88.4219 95.1092C85.4378 94.6031 83.194 93.1371 83.4138 91.8389C83.6335 90.5406 86.233 89.8958 89.2199 90.3931C92.2069 90.8904 94.4478 92.3622 94.228 93.6634C94.0083 94.9646 91.4088 95.6152 88.4219 95.1092Z" fill="#92E3A9" stroke="#263238" stroke-width="0.186483" stroke-miterlimit="10"/>
<path d="M94.0139 92.9376C94.3775 93.0726 94.7328 93.229 95.078 93.406C96.2852 94.0415 97.2946 94.9966 97.9958 96.1669C98.697 97.3373 99.063 98.6778 99.0538 100.042V112.796" stroke="#263238" stroke-width="0.186483" stroke-miterlimit="10" stroke-linecap="round"/>
<path d="M90.0151 92.183C91.3802 92.2248 92.7304 92.4794 94.017 92.9377" stroke="#263238" stroke-width="0.186483" stroke-miterlimit="10" stroke-linecap="round"/>
<path d="M87.8955 92.2582C87.8955 92.2582 88.1355 92.2264 88.5432 92.2003" stroke="#263238" stroke-width="0.186483" stroke-miterlimit="10" stroke-linecap="round"/>
<path d="M91.4204 103.844C88.7979 105.36 86.1348 105.657 85.4784 104.515C84.822 103.373 86.4124 101.222 89.0378 99.7095C91.6633 98.1973 94.3235 97.8966 94.9799 99.0387C95.6363 100.181 94.0459 102.332 91.4204 103.844Z" fill="#92E3A9" stroke="#263238" stroke-width="0.186483" stroke-miterlimit="10"/>
<path d="M90.7842 100.58C91.8631 99.7408 93.0672 99.0763 94.3523 98.6108C94.3523 98.6108 97.6082 98.0759 98.3513 100.178" stroke="#263238" stroke-width="0.186483" stroke-miterlimit="10" stroke-linecap="round"/>
<path d="M89.1997 101.985C89.1997 101.985 89.3616 101.809 89.6624 101.528" stroke="#263238" stroke-width="0.186483" stroke-miterlimit="10" stroke-linecap="round"/>
<path d="M97.8511 100.302C97.8511 100.302 101.685 99.5592 101.685 102.156C101.685 104.752 98.9788 106.857 97.8511 109.827C96.7234 112.796 94.6328 112.921 93.5138 109.951C92.3948 106.982 94.014 101.54 97.8511 100.302Z" fill="#92E3A9" stroke="#263238" stroke-width="0.186483" stroke-miterlimit="10"/>
<path d="M100.448 100.438C100.448 100.438 97.1079 101.8 96.1104 106.132L100.448 100.438Z" fill="#92E3A9"/>
<path d="M100.448 100.438C100.448 100.438 97.1079 101.8 96.1104 106.132" stroke="#263238" stroke-width="0.186483" stroke-miterlimit="10"/>
<path d="M100.202 106.117V113.167" stroke="#263238" stroke-width="0.186483" stroke-miterlimit="10" stroke-linecap="round"/>
<path d="M94.0633 126.901C93.1446 123.98 92.6765 120.936 92.6754 117.874C92.6708 116.02 92.8569 114.17 93.2305 112.354H108.845C109.218 114.17 109.404 116.02 109.4 117.874C109.399 120.936 108.931 123.98 108.012 126.901H94.0633Z" fill="#263238"/>
<path d="M109.252 114.936C109.296 115.358 109.33 115.789 109.356 116.226H92.7188C92.7448 115.789 92.7795 115.358 92.8229 114.936H109.252Z" fill="#7A7A7A"/>
<path d="M92.9065 121.529C92.8544 121.101 92.8111 120.661 92.7764 120.239H109.322C109.287 120.673 109.244 121.107 109.191 121.529H92.9065Z" fill="#7A7A7A"/>
<path d="M107.387 117.946C107.383 118.081 107.418 118.213 107.49 118.327C107.561 118.441 107.665 118.531 107.787 118.585C107.91 118.64 108.047 118.656 108.179 118.633C108.311 118.609 108.433 118.547 108.53 118.453C108.626 118.36 108.692 118.239 108.72 118.108C108.748 117.976 108.735 117.84 108.685 117.715C108.634 117.591 108.547 117.484 108.436 117.41C108.324 117.335 108.193 117.295 108.058 117.296C107.883 117.293 107.714 117.361 107.588 117.482C107.463 117.604 107.39 117.771 107.387 117.946Z" fill="#8C8C8C"/>
<path d="M104.018 117.946C104.014 118.08 104.049 118.213 104.121 118.327C104.192 118.44 104.295 118.53 104.418 118.585C104.541 118.64 104.677 118.656 104.809 118.633C104.941 118.61 105.063 118.547 105.16 118.454C105.256 118.361 105.323 118.241 105.351 118.11C105.379 117.978 105.367 117.842 105.317 117.717C105.266 117.593 105.18 117.486 105.069 117.411C104.958 117.336 104.826 117.296 104.692 117.296C104.517 117.293 104.348 117.36 104.221 117.482C104.095 117.604 104.022 117.771 104.018 117.946Z" fill="#8C8C8C"/>
<path d="M100.653 117.946C100.649 118.08 100.684 118.213 100.755 118.327C100.827 118.44 100.93 118.53 101.053 118.585C101.175 118.64 101.311 118.656 101.444 118.633C101.576 118.61 101.698 118.547 101.795 118.454C101.891 118.361 101.958 118.241 101.986 118.11C102.013 117.978 102.002 117.842 101.951 117.717C101.901 117.593 101.815 117.486 101.704 117.411C101.592 117.336 101.461 117.296 101.327 117.296C101.24 117.294 101.154 117.31 101.073 117.342C100.992 117.374 100.918 117.421 100.855 117.481C100.793 117.542 100.743 117.614 100.708 117.694C100.673 117.774 100.655 117.859 100.653 117.946Z" fill="#8C8C8C"/>
<path d="M97.2873 117.946C97.2827 118.08 97.3182 118.213 97.3894 118.327C97.4605 118.44 97.5641 118.53 97.6867 118.585C97.8093 118.64 97.9455 118.656 98.0777 118.633C98.2098 118.61 98.332 118.547 98.4286 118.454C98.5251 118.361 98.5916 118.241 98.6196 118.11C98.6475 117.978 98.6356 117.842 98.5853 117.717C98.5351 117.593 98.4488 117.486 98.3376 117.411C98.2263 117.336 98.0952 117.296 97.961 117.296C97.874 117.294 97.7876 117.31 97.7067 117.342C97.6258 117.374 97.5519 117.421 97.4894 117.481C97.4268 117.542 97.3767 117.614 97.3421 117.694C97.3074 117.774 97.2888 117.859 97.2873 117.946Z" fill="#8C8C8C"/>
<path d="M93.9186 117.946C93.914 118.08 93.9496 118.213 94.0207 118.327C94.0919 118.44 94.1955 118.53 94.3181 118.585C94.4407 118.64 94.5768 118.656 94.709 118.633C94.8412 118.61 94.9634 118.547 95.0599 118.454C95.1565 118.361 95.223 118.241 95.2509 118.11C95.2788 117.978 95.2669 117.842 95.2167 117.717C95.1664 117.593 95.0802 117.486 94.9689 117.411C94.8577 117.336 94.7266 117.296 94.5923 117.296C94.4169 117.293 94.2477 117.36 94.1215 117.482C93.9953 117.604 93.9224 117.771 93.9186 117.946Z" fill="#8C8C8C"/>
</g>
</g>
<path d="M33.5684 77.1125L36.125 84.3313L38.668 77.1125H41.3613V87.0657H39.3037V84.345L39.5088 79.6487L36.8223 87.0657H35.4141L32.7344 79.6555L32.9395 84.345V87.0657H30.8887V77.1125H33.5684ZM45.1074 87.0657H43.125V79.6692H45.1074V87.0657ZM43.0088 77.7551C43.0088 77.4589 43.1068 77.2151 43.3027 77.0237C43.5033 76.8323 43.7744 76.7366 44.1162 76.7366C44.4535 76.7366 44.7223 76.8323 44.9229 77.0237C45.1234 77.2151 45.2236 77.4589 45.2236 77.7551C45.2236 78.0559 45.1211 78.302 44.916 78.4934C44.7155 78.6848 44.4489 78.7805 44.1162 78.7805C43.7835 78.7805 43.5146 78.6848 43.3096 78.4934C43.109 78.302 43.0088 78.0559 43.0088 77.7551ZM48.5596 79.6692L48.6211 80.5237C49.1497 79.8629 49.8584 79.5325 50.7471 79.5325C51.5309 79.5325 52.1143 79.7626 52.4971 80.2229C52.8799 80.6832 53.0758 81.3713 53.085 82.2874V87.0657H51.1094V82.3352C51.1094 81.9159 51.0182 81.6129 50.8359 81.426C50.6536 81.2346 50.3506 81.1389 49.9268 81.1389C49.3708 81.1389 48.9538 81.3759 48.6758 81.8499V87.0657H46.7002V79.6692H48.5596ZM54.2812 83.3127C54.2812 82.1597 54.5387 81.2415 55.0537 80.5579C55.5732 79.8743 56.2819 79.5325 57.1797 79.5325C57.8997 79.5325 58.4945 79.8014 58.9639 80.3391V76.5657H60.9463V87.0657H59.1621L59.0664 86.2795C58.5742 86.8948 57.9408 87.2024 57.166 87.2024C56.2956 87.2024 55.596 86.8606 55.0674 86.177C54.5433 85.4889 54.2812 84.5341 54.2812 83.3127ZM56.2568 83.4563C56.2568 84.149 56.3776 84.6799 56.6191 85.0491C56.8607 85.4182 57.2116 85.6028 57.6719 85.6028C58.2826 85.6028 58.7132 85.3453 58.9639 84.8303V81.9114C58.7178 81.3964 58.2917 81.1389 57.6855 81.1389C56.7331 81.1389 56.2568 81.9114 56.2568 83.4563ZM63.0176 87.0657V81.1184H61.917V79.6692H63.0176V79.0403C63.0176 78.2109 63.2546 77.5683 63.7285 77.1125C64.207 76.6523 64.8747 76.4221 65.7314 76.4221C66.0049 76.4221 66.3398 76.4677 66.7363 76.5588L66.7158 78.0901C66.5518 78.0491 66.3512 78.0286 66.1143 78.0286C65.3714 78.0286 65 78.3772 65 79.0745V79.6692H66.4697V81.1184H65V87.0657H63.0176ZM71.9248 86.3137C71.4372 86.9062 70.7627 87.2024 69.9014 87.2024C69.1084 87.2024 68.5023 86.9745 68.083 86.5188C67.6683 86.0631 67.4564 85.3954 67.4473 84.5159V79.6692H69.4229V84.4475C69.4229 85.2177 69.7738 85.6028 70.4756 85.6028C71.1455 85.6028 71.6058 85.3704 71.8564 84.9055V79.6692H73.8389V87.0657H71.9795L71.9248 86.3137ZM77.4141 87.0657H75.4316V76.5657H77.4141V87.0657ZM80.8662 79.6692L80.9277 80.5237C81.4564 79.8629 82.165 79.5325 83.0537 79.5325C83.8376 79.5325 84.4209 79.7626 84.8037 80.2229C85.1865 80.6832 85.3825 81.3713 85.3916 82.2874V87.0657H83.416V82.3352C83.416 81.9159 83.3249 81.6129 83.1426 81.426C82.9603 81.2346 82.6572 81.1389 82.2334 81.1389C81.6774 81.1389 81.2604 81.3759 80.9824 81.8499V87.0657H79.0068V79.6692H80.8662ZM90.2998 87.2024C89.2152 87.2024 88.3311 86.8697 87.6475 86.2043C86.9684 85.539 86.6289 84.6526 86.6289 83.5452V83.3538C86.6289 82.6109 86.7725 81.9478 87.0596 81.3645C87.3467 80.7766 87.7523 80.3254 88.2764 80.011C88.805 79.692 89.4066 79.5325 90.0811 79.5325C91.0928 79.5325 91.888 79.8515 92.4668 80.4895C93.0501 81.1275 93.3418 82.0321 93.3418 83.2034V84.01H88.6318C88.6956 84.4931 88.887 84.8805 89.2061 85.1721C89.5296 85.4638 89.9375 85.6096 90.4297 85.6096C91.1908 85.6096 91.7855 85.3339 92.2139 84.7825L93.1846 85.8694C92.8883 86.2887 92.4873 86.6168 91.9814 86.8538C91.4756 87.0862 90.915 87.2024 90.2998 87.2024ZM90.0742 81.1321C89.6823 81.1321 89.3633 81.2642 89.1172 81.5286C88.8757 81.7929 88.7207 82.1711 88.6523 82.6633H91.4004V82.5061C91.3913 82.0686 91.2728 81.7314 91.0449 81.4944C90.8171 81.2528 90.4935 81.1321 90.0742 81.1321ZM98.4756 85.0217C98.4756 84.7802 98.3548 84.5911 98.1133 84.4543C97.8763 84.3131 97.4935 84.1877 96.9648 84.0784C95.2057 83.7092 94.3262 82.9618 94.3262 81.8362C94.3262 81.1799 94.5973 80.6331 95.1396 80.1956C95.6865 79.7535 96.3997 79.5325 97.2793 79.5325C98.2181 79.5325 98.9678 79.7535 99.5283 80.1956C100.093 80.6376 100.376 81.2118 100.376 81.9182H98.4004C98.4004 81.6357 98.3092 81.4032 98.127 81.2209C97.9447 81.0341 97.6598 80.9407 97.2725 80.9407C96.9398 80.9407 96.6823 81.0159 96.5 81.1663C96.3177 81.3167 96.2266 81.5081 96.2266 81.7405C96.2266 81.9592 96.3291 82.137 96.5342 82.2737C96.7438 82.4058 97.0947 82.5221 97.5869 82.6223C98.0791 82.718 98.4938 82.8274 98.8311 82.9504C99.8747 83.3333 100.396 83.9963 100.396 84.9397C100.396 85.6142 100.107 86.1611 99.5283 86.5803C98.9495 86.995 98.2021 87.2024 97.2861 87.2024C96.6663 87.2024 96.1149 87.093 95.6318 86.8743C95.1533 86.651 94.7773 86.3479 94.5039 85.9651C94.2305 85.5777 94.0938 85.1607 94.0938 84.7141H95.9668C95.985 85.065 96.1149 85.3339 96.3564 85.5208C96.598 85.7076 96.9215 85.801 97.3271 85.801C97.7054 85.801 97.9902 85.7304 98.1816 85.5891C98.3776 85.4433 98.4756 85.2542 98.4756 85.0217ZM105.681 85.0217C105.681 84.7802 105.56 84.5911 105.318 84.4543C105.081 84.3131 104.699 84.1877 104.17 84.0784C102.411 83.7092 101.531 82.9618 101.531 81.8362C101.531 81.1799 101.802 80.6331 102.345 80.1956C102.892 79.7535 103.605 79.5325 104.484 79.5325C105.423 79.5325 106.173 79.7535 106.733 80.1956C107.299 80.6376 107.581 81.2118 107.581 81.9182H105.605C105.605 81.6357 105.514 81.4032 105.332 81.2209C105.15 81.0341 104.865 80.9407 104.478 80.9407C104.145 80.9407 103.887 81.0159 103.705 81.1663C103.523 81.3167 103.432 81.5081 103.432 81.7405C103.432 81.9592 103.534 82.137 103.739 82.2737C103.949 82.4058 104.3 82.5221 104.792 82.6223C105.284 82.718 105.699 82.8274 106.036 82.9504C107.08 83.3333 107.602 83.9963 107.602 84.9397C107.602 85.6142 107.312 86.1611 106.733 86.5803C106.155 86.995 105.407 87.2024 104.491 87.2024C103.871 87.2024 103.32 87.093 102.837 86.8743C102.358 86.651 101.982 86.3479 101.709 85.9651C101.436 85.5777 101.299 85.1607 101.299 84.7141H103.172C103.19 85.065 103.32 85.3339 103.562 85.5208C103.803 85.7076 104.127 85.801 104.532 85.801C104.91 85.801 105.195 85.7304 105.387 85.5891C105.583 85.4433 105.681 85.2542 105.681 85.0217Z" fill="white"/>
<path d="M85.3095 53.2269C85.1777 52.9965 85.0008 52.795 84.7894 52.6345C84.5779 52.4739 84.3364 52.3575 84.079 52.2923C82.9369 52.0102 81.7538 51.9318 80.5844 52.0607C80.8922 50.3591 80.7836 48.6083 80.268 46.9577C80.1161 46.4871 79.7948 46.0897 79.3665 45.8424C78.9383 45.5952 78.4334 45.5157 77.9499 45.6194C76.7909 45.8757 75.6848 46.33 74.6803 46.9624C73.8782 45.274 72.6851 43.8012 71.1999 42.6662C70.8542 42.4054 70.433 42.2644 70 42.2644C69.567 42.2644 69.1458 42.4054 68.8002 42.6662C67.315 43.8012 66.1219 45.274 65.3198 46.9624C64.3153 46.3301 63.2092 45.8758 62.0503 45.6194C61.5667 45.5155 61.0618 45.5949 60.6334 45.8422C60.2051 46.0895 59.8838 46.4871 59.732 46.9578C59.2165 48.6084 59.108 50.3591 59.4158 52.0607C58.2463 51.9318 57.0633 52.0102 55.921 52.2924C55.6641 52.3586 55.4229 52.4752 55.2117 52.6357C55.0004 52.7961 54.8232 52.9971 54.6906 53.2269C54.5579 53.4566 54.4725 53.7105 54.4391 53.9737C54.4058 54.2369 54.4253 54.5041 54.4965 54.7597C54.9389 56.3413 56.2925 59.3478 60.3888 61.7129C64.4597 64.0631 68.0572 64.0657 69.9934 64.0657L69.999 64.0659H70.001L70.0067 64.0657C71.9429 64.0657 75.5404 64.0631 79.6113 61.7128C83.7075 59.3478 85.0613 56.3413 85.5035 54.7597C85.5757 54.5042 85.5958 54.2369 85.5624 53.9735C85.5291 53.7102 85.4431 53.4562 85.3095 53.2268V53.2269ZM78.3658 47.5754C78.7083 48.6298 79.0433 50.5159 78.328 52.9463C78.3129 52.9875 78.3005 53.0297 78.2909 53.0726C77.9965 54.0143 77.5963 54.9197 77.0982 55.7714C76.4928 56.8144 75.763 57.78 74.9249 58.6471C75.5583 57.1552 76 55.3108 76 53.0657C76.009 51.6459 75.8116 50.2323 75.414 48.8692C76.3055 48.252 77.3078 47.8127 78.3658 47.5754ZM70.0035 44.2691C71.2052 45.1659 74 47.8186 74 53.0657C74 58.3834 71.1635 61.0147 70 61.8703C68.8365 61.0147 66 58.3834 66 53.0657C66 47.8186 68.7949 45.1659 70.0035 44.2691ZM61.6342 47.5757C62.6922 47.8128 63.6945 48.252 64.5859 48.8692C64.1884 50.2323 63.991 51.6459 64 53.0657C64 55.3107 64.4418 57.1552 65.075 58.6471C64.237 57.78 63.5073 56.8144 62.9019 55.7714C62.4032 54.9189 62.0027 54.0125 61.7082 53.0697C61.6992 53.0302 61.6878 52.9913 61.674 52.9532C60.9562 50.5194 61.2915 48.6308 61.634 47.5757H61.6342ZM56.4178 54.2297C57.58 53.951 58.7887 53.9263 59.9613 54.1574C60.2815 55.0647 60.6862 55.9398 61.1699 56.7714C62.2465 58.6201 63.6567 60.2529 65.329 61.5869C63.9469 61.2386 62.6205 60.6979 61.3888 59.9807C57.9072 57.9704 56.7829 55.5092 56.4178 54.2294V54.2297ZM78.6113 59.9807C77.3796 60.6979 76.0532 61.2386 74.6712 61.5869C76.3434 60.2529 77.7536 58.62 78.8302 56.7714C79.3139 55.9398 79.7186 55.0647 80.0388 54.1574C81.2096 53.9281 82.4157 53.9498 83.5775 54.2212C83.2172 55.5093 82.0929 57.9706 78.6113 59.9807Z" fill="#F9F8FC"/>
<rect x="155.473" y="0.0656738" width="139.527" height="128.564" rx="3.64479" fill="url(#paint2_linear_1607_39614)"/>
<mask id="mask1_1607_39614" style="mask-type:alpha" maskUnits="userSpaceOnUse" x="155" y="0" width="141" height="129">
<rect x="155.473" y="0.0656738" width="139.527" height="128.564" rx="3.64479" fill="url(#paint3_linear_1607_39614)"/>
</mask>
<g mask="url(#mask1_1607_39614)">
<g style="mix-blend-mode:overlay">
<path d="M285.33 50.4981C283.613 49.5597 282.829 50.3383 282.205 49.5597C281.581 48.7811 283.922 46.7392 279.23 44.7077C279.23 44.7077 278.916 40.3249 272.501 40.1702C266.087 40.0156 267.809 44.553 266.087 45.6461C264.365 46.7392 263.896 45.0222 262.179 46.1153C260.462 47.2085 261.235 49.3998 259.827 49.7247C258.42 50.0495 256.543 48.317 254.821 49.4102C253.099 50.5033 253.104 51.4469 252.32 51.4469C251.536 51.4469 249.974 50.8178 249.035 51.4469C248.097 52.0759 246.999 52.8545 246.999 52.8545H286.583C286.583 52.8545 287.052 51.4365 285.33 50.4981Z" fill="#92E3A9"/>
<path opacity="0.5" d="M285.33 50.4981C283.613 49.5597 282.829 50.3383 282.205 49.5597C281.581 48.7811 283.922 46.7392 279.23 44.7077C279.23 44.7077 278.916 40.3249 272.501 40.1702C266.087 40.0156 267.809 44.553 266.087 45.6461C264.365 46.7392 263.896 45.0222 262.179 46.1153C260.462 47.2085 261.235 49.3998 259.827 49.7247C258.42 50.0495 256.543 48.317 254.821 49.4102C253.099 50.5033 253.104 51.4469 252.32 51.4469C251.536 51.4469 249.974 50.8178 249.035 51.4469C248.097 52.0759 246.999 52.8545 246.999 52.8545H286.583C286.583 52.8545 287.052 51.4365 285.33 50.4981Z" fill="white"/>
<path d="M227.384 129.563H253.748C253.232 126.341 251.17 126.908 250.896 121.912C250.757 119.395 253.088 116.281 252.887 112.976C252.717 110.253 250.035 107.459 249.824 104.344C249.638 101.534 251.928 98.4147 251.706 95.388C251.495 92.5212 248.777 89.7729 248.535 86.7978C248.293 83.8226 250.541 80.7444 250.278 77.8105C250.015 74.8766 247.246 72.1748 246.952 69.2822C246.648 66.307 248.818 63.0947 248.499 60.2537C248.143 57.2321 245.292 54.6231 244.889 51.8387C244.461 48.745 246.483 45.4244 246.008 42.7484C245.426 39.469 242.399 37.0765 241.734 34.6737C240.538 30.1672 240.703 25.8205 239.274 25.5421C237.764 25.2379 237.423 29.4969 236.279 34.2561C235.701 36.6486 232.716 39.072 232.226 42.3565C231.829 45.0119 233.938 48.2449 233.592 51.3334C233.283 54.0971 230.498 56.7526 230.236 59.7587C229.978 62.5894 232.236 65.7038 232.014 68.6634C231.798 71.5354 229.101 74.2734 228.921 77.1918C228.74 80.1102 231.061 83.1678 230.901 86.0501C230.741 88.9324 228.091 91.7941 227.956 94.6352C227.812 97.6413 230.184 100.673 230.065 103.463C229.942 106.556 227.327 109.382 227.229 112.084C227.116 115.363 229.524 118.385 229.447 120.88C229.287 126.299 226.807 125.181 226.719 129.538L227.384 129.563Z" fill="#92E3A9"/>
<path opacity="0.4" d="M227.384 129.563H253.748C253.232 126.341 251.17 126.908 250.896 121.912C250.757 119.395 253.088 116.281 252.887 112.976C252.717 110.253 250.035 107.459 249.824 104.344C249.638 101.534 251.928 98.4147 251.706 95.388C251.495 92.5212 248.777 89.7729 248.535 86.7978C248.293 83.8226 250.541 80.7444 250.278 77.8105C250.015 74.8766 247.246 72.1748 246.952 69.2822C246.648 66.307 248.818 63.0947 248.499 60.2537C248.143 57.2321 245.292 54.6231 244.889 51.8387C244.461 48.745 246.483 45.4244 246.008 42.7484C245.426 39.469 242.399 37.0765 241.734 34.6737C240.538 30.1672 240.703 25.8205 239.274 25.5421C237.764 25.2379 237.423 29.4969 236.279 34.2561C235.701 36.6486 232.716 39.072 232.226 42.3565C231.829 45.0119 233.938 48.2449 233.592 51.3334C233.283 54.0971 230.498 56.7526 230.236 59.7587C229.978 62.5894 232.236 65.7038 232.014 68.6634C231.798 71.5354 229.101 74.2734 228.921 77.1918C228.74 80.1102 231.061 83.1678 230.901 86.0501C230.741 88.9324 228.091 91.7941 227.956 94.6352C227.812 97.6413 230.184 100.673 230.065 103.463C229.942 106.556 227.327 109.382 227.229 112.084C227.116 115.363 229.524 118.385 229.447 120.88C229.287 126.299 226.807 125.181 226.719 129.538L227.384 129.563Z" fill="white"/>
<path d="M238.712 34.2252V128.367" stroke="#263238" stroke-width="0.256786" stroke-linecap="round" stroke-linejoin="round"/>
<path d="M242.827 44.0941L238.537 47.8014L235.026 43.1196" stroke="#263238" stroke-width="0.256786" stroke-linecap="round" stroke-linejoin="round"/>
<path d="M242.827 60.4806L238.537 64.1879L235.026 59.5061" stroke="#263238" stroke-width="0.256786" stroke-linecap="round" stroke-linejoin="round"/>
<path d="M242.827 75.8925L238.537 79.5998L235.026 74.9128" stroke="#263238" stroke-width="0.256786" stroke-linecap="round" stroke-linejoin="round"/>
<path d="M242.827 94.2279L238.537 97.9352L235.026 93.2534" stroke="#263238" stroke-width="0.256786" stroke-linecap="round" stroke-linejoin="round"/>
<path d="M242.827 112.759L238.537 116.467L235.026 111.785" stroke="#263238" stroke-width="0.256786" stroke-linecap="round" stroke-linejoin="round"/>
<path d="M210.797 129.563H228.647C228.302 127.382 226.904 127.764 226.714 124.381C226.621 122.68 228.199 120.571 228.065 118.333C227.951 116.487 226.131 114.6 226.002 112.491C225.873 110.583 227.425 108.474 227.276 106.422C227.131 104.484 225.291 102.622 225.126 100.606C224.961 98.59 226.487 96.5069 226.306 94.5218C226.126 92.5366 224.244 90.7062 224.053 88.7468C223.862 86.7875 225.322 84.56 225.084 82.6316C224.847 80.5691 222.914 78.8211 222.656 76.9597C222.362 74.8612 223.728 72.6182 223.409 70.8032C223.017 68.5861 220.949 66.9773 220.516 65.3377C219.706 62.2852 219.804 59.3462 218.851 59.1502C217.897 58.9543 217.598 61.8263 216.824 65.0541C216.432 66.6731 214.411 68.3128 214.081 70.5351C213.808 72.3346 215.241 74.5209 215.004 76.6143C214.798 78.486 212.916 80.2855 212.73 82.3222C212.56 84.2351 214.086 86.344 213.937 88.3446C213.787 90.3452 211.962 92.1499 211.838 94.1247C211.714 96.0996 213.287 98.1723 213.179 100.121C213.07 102.07 211.276 104.009 211.183 105.932C211.085 107.969 212.689 110.021 212.611 111.908C212.529 114.002 210.755 115.92 210.693 117.745C210.616 119.968 212.24 122.015 212.194 123.706C212.086 127.377 210.405 126.614 210.343 129.568L210.797 129.563Z" fill="#92E3A9"/>
<path opacity="0.4" d="M210.797 129.563H228.647C228.302 127.382 226.904 127.764 226.714 124.381C226.621 122.68 228.199 120.571 228.065 118.333C227.951 116.487 226.131 114.6 226.002 112.491C225.873 110.583 227.425 108.474 227.276 106.422C227.131 104.484 225.291 102.622 225.126 100.606C224.961 98.59 226.487 96.5069 226.306 94.5218C226.126 92.5366 224.244 90.7062 224.053 88.7468C223.862 86.7875 225.322 84.56 225.084 82.6316C224.847 80.5691 222.914 78.8211 222.656 76.9597C222.362 74.8612 223.728 72.6182 223.409 70.8032C223.017 68.5861 220.949 66.9773 220.516 65.3377C219.706 62.2852 219.804 59.3462 218.851 59.1502C217.897 58.9543 217.598 61.8263 216.824 65.0541C216.432 66.6731 214.411 68.3128 214.081 70.5351C213.808 72.3346 215.241 74.5209 215.004 76.6143C214.798 78.486 212.916 80.2855 212.73 82.3222C212.56 84.2351 214.086 86.344 213.937 88.3446C213.787 90.3452 211.962 92.1499 211.838 94.1247C211.714 96.0996 213.287 98.1723 213.179 100.121C213.07 102.07 211.276 104.009 211.183 105.932C211.085 107.969 212.689 110.021 212.611 111.908C212.529 114.002 210.755 115.92 210.693 117.745C210.616 119.968 212.24 122.015 212.194 123.706C212.086 127.377 210.405 126.614 210.343 129.568L210.797 129.563Z" fill="white"/>
<path d="M218.458 65.0128V128.759" stroke="#263238" stroke-width="0.256786" stroke-linecap="round" stroke-linejoin="round"/>
<path d="M221.248 71.6953L218.34 74.2064L215.963 71.0353" stroke="#263238" stroke-width="0.256786" stroke-linecap="round" stroke-linejoin="round"/>
<path d="M221.248 82.7914L218.34 85.3025L215.963 82.1314" stroke="#263238" stroke-width="0.256786" stroke-linecap="round" stroke-linejoin="round"/>
<path d="M221.248 93.2276L218.34 95.7387L215.963 92.5676" stroke="#263238" stroke-width="0.256786" stroke-linecap="round" stroke-linejoin="round"/>
<path d="M221.248 105.644L218.34 108.155L215.963 104.984" stroke="#263238" stroke-width="0.256786" stroke-linecap="round" stroke-linejoin="round"/>
<path d="M221.248 118.194L218.34 120.7L215.963 117.534" stroke="#263238" stroke-width="0.256786" stroke-linecap="round" stroke-linejoin="round"/>
<path d="M260.786 116.271H265.943C266.353 116.271 266.746 116.434 267.036 116.724C267.326 117.014 267.489 117.407 267.489 117.817V134.689C267.489 134.894 267.408 135.09 267.263 135.235C267.118 135.381 266.921 135.462 266.716 135.462H260.013C259.808 135.462 259.611 135.381 259.466 135.235C259.321 135.09 259.24 134.894 259.24 134.689V117.817C259.24 117.407 259.402 117.014 259.693 116.724C259.983 116.434 260.376 116.271 260.786 116.271Z" fill="white" stroke="#263238" stroke-width="0.256786" stroke-linecap="round" stroke-linejoin="round"/>
<path d="M263.411 116.369C263.03 116.065 262.735 115.668 262.554 115.216C262.373 114.764 262.313 114.273 262.38 113.79C262.612 112.171 264.004 110.666 264.004 110.666C264.485 111.6 264.761 112.627 264.813 113.677C264.798 115.208 263.411 116.369 263.411 116.369Z" fill="#92E3A9" stroke="#263238" stroke-width="0.256786" stroke-linecap="round" stroke-linejoin="round"/>
<path d="M270.181 111.383H275.337C275.747 111.383 276.141 111.546 276.431 111.836C276.721 112.126 276.884 112.519 276.884 112.929V134.683C276.884 134.889 276.802 135.085 276.657 135.23C276.512 135.375 276.316 135.457 276.111 135.457H269.407C269.202 135.457 269.006 135.375 268.861 135.23C268.716 135.085 268.634 134.889 268.634 134.683V112.929C268.634 112.519 268.797 112.126 269.087 111.836C269.377 111.546 269.771 111.383 270.181 111.383Z" fill="white" stroke="#263238" stroke-width="0.256786" stroke-linecap="round" stroke-linejoin="round"/>
<path d="M272.795 111.486C272.419 111.184 272.126 110.791 271.946 110.344C271.765 109.897 271.702 109.411 271.764 108.933C271.991 107.314 273.383 105.809 273.383 105.809C273.865 106.743 274.141 107.77 274.192 108.82C274.182 110.325 272.795 111.486 272.795 111.486Z" fill="#92E3A9" stroke="#263238" stroke-width="0.256786" stroke-linecap="round" stroke-linejoin="round"/>
</g>
</g>
<path d="M190.889 87.0657V77.1125H193.951C194.826 77.1125 195.608 77.3108 196.296 77.7073C196.989 78.0992 197.529 78.6597 197.916 79.3889C198.303 80.1135 198.497 80.9384 198.497 81.8635V82.3215C198.497 83.2467 198.306 84.0693 197.923 84.7893C197.545 85.5094 197.009 86.0676 196.316 86.4641C195.624 86.8606 194.842 87.0611 193.972 87.0657H190.889ZM192.939 78.7737V85.4182H193.931C194.733 85.4182 195.346 85.1562 195.77 84.6321C196.193 84.108 196.41 83.3583 196.419 82.3831V81.8567C196.419 80.845 196.209 80.0793 195.79 79.5598C195.371 79.0357 194.758 78.7737 193.951 78.7737H192.939ZM203.269 87.2024C202.184 87.2024 201.3 86.8697 200.616 86.2043C199.937 85.539 199.598 84.6526 199.598 83.5452V83.3538C199.598 82.6109 199.741 81.9478 200.028 81.3645C200.315 80.7766 200.721 80.3254 201.245 80.011C201.774 79.692 202.375 79.5325 203.05 79.5325C204.062 79.5325 204.857 79.8515 205.436 80.4895C206.019 81.1275 206.311 82.0321 206.311 83.2034V84.01H201.601C201.664 84.4931 201.856 84.8805 202.175 85.1721C202.498 85.4638 202.906 85.6096 203.398 85.6096C204.16 85.6096 204.754 85.3339 205.183 84.7825L206.153 85.8694C205.857 86.2887 205.456 86.6168 204.95 86.8538C204.444 87.0862 203.884 87.2024 203.269 87.2024ZM203.043 81.1321C202.651 81.1321 202.332 81.2642 202.086 81.5286C201.844 81.7929 201.689 82.1711 201.621 82.6633H204.369V82.5061C204.36 82.0686 204.242 81.7314 204.014 81.4944C203.786 81.2528 203.462 81.1321 203.043 81.1321ZM210.843 87.2024C209.758 87.2024 208.874 86.8697 208.19 86.2043C207.511 85.539 207.172 84.6526 207.172 83.5452V83.3538C207.172 82.6109 207.315 81.9478 207.603 81.3645C207.89 80.7766 208.295 80.3254 208.819 80.011C209.348 79.692 209.95 79.5325 210.624 79.5325C211.636 79.5325 212.431 79.8515 213.01 80.4895C213.593 81.1275 213.885 82.0321 213.885 83.2034V84.01H209.175C209.239 84.4931 209.43 84.8805 209.749 85.1721C210.073 85.4638 210.48 85.6096 210.973 85.6096C211.734 85.6096 212.328 85.3339 212.757 84.7825L213.728 85.8694C213.431 86.2887 213.03 86.6168 212.524 86.8538C212.019 87.0862 211.458 87.2024 210.843 87.2024ZM210.617 81.1321C210.225 81.1321 209.906 81.2642 209.66 81.5286C209.419 81.7929 209.264 82.1711 209.195 82.6633H211.943V82.5061C211.934 82.0686 211.816 81.7314 211.588 81.4944C211.36 81.2528 211.036 81.1321 210.617 81.1321ZM221.671 83.4358C221.671 84.5751 221.411 85.4889 220.892 86.177C220.377 86.8606 219.679 87.2024 218.8 87.2024C218.052 87.2024 217.449 86.9426 216.988 86.4231V89.9094H215.013V79.6692H216.845L216.913 80.3938C217.392 79.8196 218.016 79.5325 218.786 79.5325C219.698 79.5325 220.406 79.8697 220.912 80.5442C221.418 81.2187 221.671 82.1484 221.671 83.3333V83.4358ZM219.695 83.2922C219.695 82.6041 219.572 82.0732 219.326 81.6995C219.085 81.3258 218.731 81.1389 218.267 81.1389C217.647 81.1389 217.221 81.3759 216.988 81.8499V84.8782C217.23 85.3658 217.66 85.6096 218.28 85.6096C219.224 85.6096 219.695 84.8372 219.695 83.2922ZM226.928 87.0657V81.1184H225.827V79.6692H226.928V79.0403C226.928 78.2109 227.165 77.5683 227.639 77.1125C228.117 76.6523 228.785 76.4221 229.642 76.4221C229.915 76.4221 230.25 76.4677 230.646 76.5588L230.626 78.0901C230.462 78.0491 230.261 78.0286 230.024 78.0286C229.282 78.0286 228.91 78.3772 228.91 79.0745V79.6692H230.38V81.1184H228.91V87.0657H226.928ZM231.098 83.2991C231.098 82.5653 231.239 81.9114 231.521 81.3372C231.804 80.7629 232.21 80.3186 232.738 80.0042C233.271 79.6897 233.889 79.5325 234.591 79.5325C235.589 79.5325 236.402 79.8378 237.031 80.4485C237.665 81.0592 238.018 81.8886 238.091 82.9368L238.104 83.4426C238.104 84.5774 237.788 85.4889 237.154 86.177C236.521 86.8606 235.671 87.2024 234.604 87.2024C233.538 87.2024 232.686 86.8606 232.048 86.177C231.414 85.4934 231.098 84.5637 231.098 83.3879V83.2991ZM233.073 83.4426C233.073 84.1444 233.205 84.6822 233.47 85.0559C233.734 85.425 234.112 85.6096 234.604 85.6096C235.083 85.6096 235.457 85.4273 235.726 85.0627C235.994 84.6936 236.129 84.1057 236.129 83.2991C236.129 82.6109 235.994 82.0777 235.726 81.6995C235.457 81.3212 235.078 81.1321 234.591 81.1321C234.108 81.1321 233.734 81.3212 233.47 81.6995C233.205 82.0732 233.073 82.6542 233.073 83.4426ZM242.397 85.6096C242.762 85.6096 243.058 85.5094 243.286 85.3088C243.514 85.1083 243.632 84.8417 243.642 84.509H245.494C245.49 85.0103 245.353 85.4706 245.084 85.8899C244.815 86.3046 244.446 86.6282 243.977 86.8606C243.512 87.0885 242.997 87.2024 242.432 87.2024C241.374 87.2024 240.54 86.8674 239.93 86.1975C239.319 85.523 239.014 84.5933 239.014 83.4084V83.2786C239.014 82.1392 239.317 81.2301 239.923 80.551C240.529 79.872 241.361 79.5325 242.418 79.5325C243.343 79.5325 244.084 79.7968 244.64 80.3254C245.2 80.8495 245.485 81.5491 245.494 82.4241H243.642C243.632 82.0413 243.514 81.7314 243.286 81.4944C243.058 81.2528 242.757 81.1321 242.384 81.1321C241.924 81.1321 241.575 81.3007 241.338 81.6379C241.105 81.9706 240.989 82.5129 240.989 83.2649V83.47C240.989 84.231 241.105 84.7779 241.338 85.1106C241.57 85.4433 241.924 85.6096 242.397 85.6096ZM251.052 86.3137C250.564 86.9062 249.89 87.2024 249.028 87.2024C248.235 87.2024 247.629 86.9745 247.21 86.5188C246.795 86.0631 246.583 85.3954 246.574 84.5159V79.6692H248.55V84.4475C248.55 85.2177 248.901 85.6028 249.603 85.6028C250.272 85.6028 250.733 85.3704 250.983 84.9055V79.6692H252.966V87.0657H251.106L251.052 86.3137ZM258.462 85.0217C258.462 84.7802 258.341 84.5911 258.1 84.4543C257.863 84.3131 257.48 84.1877 256.951 84.0784C255.192 83.7092 254.312 82.9618 254.312 81.8362C254.312 81.1799 254.584 80.6331 255.126 80.1956C255.673 79.7535 256.386 79.5325 257.266 79.5325C258.204 79.5325 258.954 79.7535 259.515 80.1956C260.08 80.6376 260.362 81.2118 260.362 81.9182H258.387C258.387 81.6357 258.296 81.4032 258.113 81.2209C257.931 81.0341 257.646 80.9407 257.259 80.9407C256.926 80.9407 256.669 81.0159 256.486 81.1663C256.304 81.3167 256.213 81.5081 256.213 81.7405C256.213 81.9592 256.315 82.137 256.521 82.2737C256.73 82.4058 257.081 82.5221 257.573 82.6223C258.065 82.718 258.48 82.8274 258.817 82.9504C259.861 83.3333 260.383 83.9963 260.383 84.9397C260.383 85.6142 260.093 86.1611 259.515 86.5803C258.936 86.995 258.188 87.2024 257.272 87.2024C256.653 87.2024 256.101 87.093 255.618 86.8743C255.14 86.651 254.764 86.3479 254.49 85.9651C254.217 85.5777 254.08 85.1607 254.08 84.7141H255.953C255.971 85.065 256.101 85.3339 256.343 85.5208C256.584 85.7076 256.908 85.801 257.313 85.801C257.692 85.801 257.977 85.7304 258.168 85.5891C258.364 85.4433 258.462 85.2542 258.462 85.0217Z" fill="white"/>
<path d="M230 64.7323C232.829 64.7323 235.542 63.6085 237.543 61.6081C239.543 59.6077 240.667 56.8946 240.667 54.0657C240.667 51.2367 239.543 48.5236 237.543 46.5232C235.542 44.5228 232.829 43.399 230 43.399C227.171 43.399 224.458 44.5228 222.458 46.5232C220.457 48.5236 219.333 51.2367 219.333 54.0657C219.333 56.8946 220.457 59.6077 222.458 61.6081C224.458 63.6085 227.171 64.7323 230 64.7323ZM230 67.399C222.636 67.399 216.667 61.4297 216.667 54.0657C216.667 46.7017 222.636 40.7323 230 40.7323C237.364 40.7323 243.333 46.7017 243.333 54.0657C243.333 61.4297 237.364 67.399 230 67.399ZM230 59.399C231.415 59.399 232.771 58.8371 233.771 57.8369C234.772 56.8367 235.333 55.4802 235.333 54.0657C235.333 52.6512 234.772 51.2946 233.771 50.2944C232.771 49.2942 231.415 48.7323 230 48.7323C228.586 48.7323 227.229 49.2942 226.229 50.2944C225.229 51.2946 224.667 52.6512 224.667 54.0657C224.667 55.4802 225.229 56.8367 226.229 57.8369C227.229 58.8371 228.586 59.399 230 59.399ZM230 62.0657C227.878 62.0657 225.844 61.2228 224.343 59.7225C222.843 58.2222 222 56.1874 222 54.0657C222 51.9439 222.843 49.9091 224.343 48.4088C225.844 46.9085 227.878 46.0657 230 46.0657C232.122 46.0657 234.157 46.9085 235.657 48.4088C237.157 49.9091 238 51.9439 238 54.0657C238 56.1874 237.157 58.2222 235.657 59.7225C234.157 61.2228 232.122 62.0657 230 62.0657ZM230 56.7323C229.293 56.7323 228.615 56.4514 228.114 55.9513C227.614 55.4512 227.333 54.7729 227.333 54.0657C227.333 53.3584 227.614 52.6801 228.114 52.18C228.615 51.6799 229.293 51.399 230 51.399C230.707 51.399 231.386 51.6799 231.886 52.18C232.386 52.6801 232.667 53.3584 232.667 54.0657C232.667 54.7729 232.386 55.4512 231.886 55.9513C231.386 56.4514 230.707 56.7323 230 56.7323Z" fill="#F9F8FC"/>
<defs>
<linearGradient id="paint0_linear_1607_39614" x1="0" y1="0.0656738" x2="128.135" y2="139.127" gradientUnits="userSpaceOnUse">
<stop stop-color="#97ABFF"/>
<stop offset="1" stop-color="#123597"/>
</linearGradient>
<linearGradient id="paint1_linear_1607_39614" x1="0" y1="0.0656738" x2="128.135" y2="139.127" gradientUnits="userSpaceOnUse">
<stop stop-color="#97ABFF"/>
<stop offset="1" stop-color="#123597"/>
</linearGradient>
<linearGradient id="paint2_linear_1607_39614" x1="155.473" y1="0.0656738" x2="283.608" y2="139.127" gradientUnits="userSpaceOnUse">
<stop stop-color="#6B73FF"/>
<stop offset="1" stop-color="#000DFF"/>
</linearGradient>
<linearGradient id="paint3_linear_1607_39614" x1="155.473" y1="0.0656738" x2="283.608" y2="139.127" gradientUnits="userSpaceOnUse">
<stop stop-color="#6B73FF"/>
<stop offset="1" stop-color="#000DFF"/>
</linearGradient>
</defs>
</svg>
