<svg width="361" height="107" viewBox="0 0 361 107" fill="none" xmlns="http://www.w3.org/2000/svg">
<g filter="url(#filter0_d_1607_44713)">
<rect x="17" y="17.5269" width="327" height="71.7635" rx="6" fill="white"/>
</g>
<rect x="33" y="70.5269" width="295" height="3" rx="1.5" fill="#DDD1FB"/>
<rect x="32.936" y="70.1458" width="298" height="3" rx="1.5" fill="#692CFF"/>
<path d="M36.7793 46.0181V50.5269H34.1426V37.73H39.1348C40.0957 37.73 40.9395 37.9058 41.666 38.2573C42.3984 38.6089 42.9609 39.1099 43.3535 39.7603C43.7461 40.4048 43.9424 41.1401 43.9424 41.9663C43.9424 43.2202 43.5117 44.2104 42.6504 44.937C41.7949 45.6577 40.6084 46.0181 39.0908 46.0181H36.7793ZM36.7793 43.8823H39.1348C39.832 43.8823 40.3623 43.7183 40.7256 43.3901C41.0947 43.062 41.2793 42.5933 41.2793 41.9839C41.2793 41.3569 41.0947 40.8501 40.7256 40.4634C40.3564 40.0767 39.8467 39.8774 39.1963 39.8657H36.7793V43.8823ZM51 50.5269C50.8828 50.2983 50.7979 50.0142 50.7451 49.6743C50.1299 50.3599 49.3301 50.7026 48.3457 50.7026C47.4141 50.7026 46.6406 50.4331 46.0254 49.894C45.416 49.355 45.1113 48.6753 45.1113 47.855C45.1113 46.8472 45.4834 46.0737 46.2275 45.5347C46.9775 44.9956 48.0586 44.7231 49.4707 44.7173H50.6396V44.1724C50.6396 43.7329 50.5254 43.3813 50.2969 43.1177C50.0742 42.854 49.7197 42.7222 49.2334 42.7222C48.8057 42.7222 48.4688 42.8247 48.2227 43.0298C47.9824 43.2349 47.8623 43.5161 47.8623 43.8735H45.3223C45.3223 43.3228 45.4922 42.813 45.832 42.3442C46.1719 41.8755 46.6523 41.5093 47.2734 41.2456C47.8945 40.9761 48.5918 40.8413 49.3652 40.8413C50.5371 40.8413 51.4658 41.1372 52.1514 41.729C52.8428 42.3149 53.1885 43.1411 53.1885 44.2075V48.3296C53.1943 49.2319 53.3203 49.9146 53.5664 50.3774V50.5269H51ZM48.8994 48.7603C49.2744 48.7603 49.6201 48.6782 49.9365 48.5142C50.2529 48.3442 50.4873 48.1187 50.6396 47.8374V46.2026H49.6904C48.4189 46.2026 47.7422 46.6421 47.6602 47.521L47.6514 47.6704C47.6514 47.9868 47.7627 48.2476 47.9854 48.4526C48.208 48.6577 48.5127 48.7603 48.8994 48.7603ZM57.8203 50.5269H55.2715V41.0171H57.8203V50.5269ZM55.1221 38.5562C55.1221 38.1753 55.248 37.8618 55.5 37.6157C55.7578 37.3696 56.1064 37.2466 56.5459 37.2466C56.9795 37.2466 57.3252 37.3696 57.583 37.6157C57.8408 37.8618 57.9697 38.1753 57.9697 38.5562C57.9697 38.9429 57.8379 39.2593 57.5742 39.5054C57.3164 39.7515 56.9736 39.8745 56.5459 39.8745C56.1182 39.8745 55.7725 39.7515 55.5088 39.5054C55.251 39.2593 55.1221 38.9429 55.1221 38.5562ZM62.2588 41.0171L62.3379 42.1157C63.0176 41.2661 63.9287 40.8413 65.0713 40.8413C66.0791 40.8413 66.8291 41.1372 67.3213 41.729C67.8135 42.3208 68.0654 43.2056 68.0771 44.3833V50.5269H65.5371V44.4448C65.5371 43.9058 65.4199 43.5161 65.1855 43.2759C64.9512 43.0298 64.5615 42.9067 64.0166 42.9067C63.3018 42.9067 62.7656 43.2114 62.4082 43.8208V50.5269H59.8682V41.0171H62.2588ZM76.875 41.0171L76.9541 42.0806C77.6279 41.2544 78.5391 40.8413 79.6875 40.8413C80.9121 40.8413 81.7529 41.3247 82.21 42.2915C82.8779 41.3247 83.8301 40.8413 85.0664 40.8413C86.0977 40.8413 86.8652 41.1431 87.3691 41.7466C87.873 42.3442 88.125 43.2466 88.125 44.4536V50.5269H85.5762V44.4624C85.5762 43.9233 85.4707 43.5308 85.2598 43.2847C85.0488 43.0327 84.6768 42.9067 84.1436 42.9067C83.3818 42.9067 82.8545 43.27 82.5615 43.9966L82.5703 50.5269H80.0303V44.4712C80.0303 43.9204 79.9219 43.522 79.7051 43.2759C79.4883 43.0298 79.1191 42.9067 78.5977 42.9067C77.877 42.9067 77.3555 43.2056 77.0332 43.8032V50.5269H74.4932V41.0171H76.875ZM95.5957 50.5269C95.4785 50.2983 95.3936 50.0142 95.3408 49.6743C94.7256 50.3599 93.9258 50.7026 92.9414 50.7026C92.0098 50.7026 91.2363 50.4331 90.6211 49.894C90.0117 49.355 89.707 48.6753 89.707 47.855C89.707 46.8472 90.0791 46.0737 90.8232 45.5347C91.5732 44.9956 92.6543 44.7231 94.0664 44.7173H95.2354V44.1724C95.2354 43.7329 95.1211 43.3813 94.8926 43.1177C94.6699 42.854 94.3154 42.7222 93.8291 42.7222C93.4014 42.7222 93.0645 42.8247 92.8184 43.0298C92.5781 43.2349 92.458 43.5161 92.458 43.8735H89.918C89.918 43.3228 90.0879 42.813 90.4277 42.3442C90.7676 41.8755 91.248 41.5093 91.8691 41.2456C92.4902 40.9761 93.1875 40.8413 93.9609 40.8413C95.1328 40.8413 96.0615 41.1372 96.7471 41.729C97.4385 42.3149 97.7842 43.1411 97.7842 44.2075V48.3296C97.79 49.2319 97.916 49.9146 98.1621 50.3774V50.5269H95.5957ZM93.4951 48.7603C93.8701 48.7603 94.2158 48.6782 94.5322 48.5142C94.8486 48.3442 95.083 48.1187 95.2354 47.8374V46.2026H94.2861C93.0146 46.2026 92.3379 46.6421 92.2559 47.521L92.2471 47.6704C92.2471 47.9868 92.3584 48.2476 92.5811 48.4526C92.8037 48.6577 93.1084 48.7603 93.4951 48.7603ZM102.073 41.0171L102.152 42.1157C102.832 41.2661 103.743 40.8413 104.886 40.8413C105.894 40.8413 106.644 41.1372 107.136 41.729C107.628 42.3208 107.88 43.2056 107.892 44.3833V50.5269H105.352V44.4448C105.352 43.9058 105.234 43.5161 105 43.2759C104.766 43.0298 104.376 42.9067 103.831 42.9067C103.116 42.9067 102.58 43.2114 102.223 43.8208V50.5269H99.6826V41.0171H102.073ZM115.336 50.5269C115.219 50.2983 115.134 50.0142 115.081 49.6743C114.466 50.3599 113.666 50.7026 112.682 50.7026C111.75 50.7026 110.977 50.4331 110.361 49.894C109.752 49.355 109.447 48.6753 109.447 47.855C109.447 46.8472 109.819 46.0737 110.563 45.5347C111.313 44.9956 112.395 44.7231 113.807 44.7173H114.976V44.1724C114.976 43.7329 114.861 43.3813 114.633 43.1177C114.41 42.854 114.056 42.7222 113.569 42.7222C113.142 42.7222 112.805 42.8247 112.559 43.0298C112.318 43.2349 112.198 43.5161 112.198 43.8735H109.658C109.658 43.3228 109.828 42.813 110.168 42.3442C110.508 41.8755 110.988 41.5093 111.609 41.2456C112.23 40.9761 112.928 40.8413 113.701 40.8413C114.873 40.8413 115.802 41.1372 116.487 41.729C117.179 42.3149 117.524 43.1411 117.524 44.2075V48.3296C117.53 49.2319 117.656 49.9146 117.902 50.3774V50.5269H115.336ZM113.235 48.7603C113.61 48.7603 113.956 48.6782 114.272 48.5142C114.589 48.3442 114.823 48.1187 114.976 47.8374V46.2026H114.026C112.755 46.2026 112.078 46.6421 111.996 47.521L111.987 47.6704C111.987 47.9868 112.099 48.2476 112.321 48.4526C112.544 48.6577 112.849 48.7603 113.235 48.7603ZM119.106 45.7017C119.106 44.2427 119.452 43.0679 120.144 42.1772C120.841 41.2866 121.778 40.8413 122.956 40.8413C123.999 40.8413 124.811 41.1987 125.391 41.9136L125.496 41.0171H127.799V50.2104C127.799 51.0425 127.608 51.7661 127.228 52.3813C126.853 52.9966 126.322 53.4653 125.637 53.7876C124.951 54.1099 124.148 54.271 123.229 54.271C122.531 54.271 121.852 54.1304 121.189 53.8491C120.527 53.5737 120.026 53.2163 119.687 52.7769L120.812 51.23C121.444 51.939 122.212 52.2935 123.114 52.2935C123.788 52.2935 124.312 52.1118 124.688 51.7485C125.062 51.3911 125.25 50.8813 125.25 50.2192V49.7095C124.664 50.3716 123.894 50.7026 122.938 50.7026C121.796 50.7026 120.87 50.2573 120.161 49.3667C119.458 48.4702 119.106 47.2837 119.106 45.8071V45.7017ZM121.646 45.8862C121.646 46.7476 121.819 47.4243 122.165 47.9165C122.511 48.4028 122.985 48.646 123.589 48.646C124.362 48.646 124.916 48.356 125.25 47.7759V43.7769C124.91 43.1968 124.362 42.9067 123.606 42.9067C122.997 42.9067 122.517 43.1558 122.165 43.6538C121.819 44.1519 121.646 44.896 121.646 45.8862ZM134.136 50.7026C132.741 50.7026 131.604 50.2749 130.726 49.4194C129.853 48.564 129.416 47.4243 129.416 46.0005V45.7544C129.416 44.7993 129.601 43.9468 129.97 43.1968C130.339 42.4409 130.86 41.8608 131.534 41.4565C132.214 41.0464 132.987 40.8413 133.854 40.8413C135.155 40.8413 136.178 41.2515 136.922 42.0718C137.672 42.8921 138.047 44.0552 138.047 45.561V46.5981H131.991C132.073 47.2192 132.319 47.7173 132.729 48.0923C133.146 48.4673 133.67 48.6548 134.303 48.6548C135.281 48.6548 136.046 48.3003 136.597 47.5913L137.845 48.9888C137.464 49.5278 136.948 49.9497 136.298 50.2544C135.647 50.5532 134.927 50.7026 134.136 50.7026ZM133.846 42.8979C133.342 42.8979 132.932 43.0679 132.615 43.4077C132.305 43.7476 132.105 44.2339 132.018 44.8667H135.551V44.6646C135.539 44.1021 135.387 43.6685 135.094 43.3638C134.801 43.0532 134.385 42.8979 133.846 42.8979ZM141.879 41.0171L141.958 42.0806C142.632 41.2544 143.543 40.8413 144.691 40.8413C145.916 40.8413 146.757 41.3247 147.214 42.2915C147.882 41.3247 148.834 40.8413 150.07 40.8413C151.102 40.8413 151.869 41.1431 152.373 41.7466C152.877 42.3442 153.129 43.2466 153.129 44.4536V50.5269H150.58V44.4624C150.58 43.9233 150.475 43.5308 150.264 43.2847C150.053 43.0327 149.681 42.9067 149.147 42.9067C148.386 42.9067 147.858 43.27 147.565 43.9966L147.574 50.5269H145.034V44.4712C145.034 43.9204 144.926 43.522 144.709 43.2759C144.492 43.0298 144.123 42.9067 143.602 42.9067C142.881 42.9067 142.359 43.2056 142.037 43.8032V50.5269H139.497V41.0171H141.879ZM159.466 50.7026C158.071 50.7026 156.935 50.2749 156.056 49.4194C155.183 48.564 154.746 47.4243 154.746 46.0005V45.7544C154.746 44.7993 154.931 43.9468 155.3 43.1968C155.669 42.4409 156.19 41.8608 156.864 41.4565C157.544 41.0464 158.317 40.8413 159.185 40.8413C160.485 40.8413 161.508 41.2515 162.252 42.0718C163.002 42.8921 163.377 44.0552 163.377 45.561V46.5981H157.321C157.403 47.2192 157.649 47.7173 158.06 48.0923C158.476 48.4673 159 48.6548 159.633 48.6548C160.611 48.6548 161.376 48.3003 161.927 47.5913L163.175 48.9888C162.794 49.5278 162.278 49.9497 161.628 50.2544C160.978 50.5532 160.257 50.7026 159.466 50.7026ZM159.176 42.8979C158.672 42.8979 158.262 43.0679 157.945 43.4077C157.635 43.7476 157.436 44.2339 157.348 44.8667H160.881V44.6646C160.869 44.1021 160.717 43.6685 160.424 43.3638C160.131 43.0532 159.715 42.8979 159.176 42.8979ZM167.165 41.0171L167.244 42.1157C167.924 41.2661 168.835 40.8413 169.978 40.8413C170.985 40.8413 171.735 41.1372 172.228 41.729C172.72 42.3208 172.972 43.2056 172.983 44.3833V50.5269H170.443V44.4448C170.443 43.9058 170.326 43.5161 170.092 43.2759C169.857 43.0298 169.468 42.9067 168.923 42.9067C168.208 42.9067 167.672 43.2114 167.314 43.8208V50.5269H164.774V41.0171H167.165ZM177.958 38.6792V41.0171H179.584V42.8804H177.958V47.6265C177.958 47.978 178.025 48.23 178.16 48.3823C178.295 48.5347 178.553 48.6108 178.934 48.6108C179.215 48.6108 179.464 48.5903 179.681 48.5493V50.4741C179.183 50.6265 178.67 50.7026 178.143 50.7026C176.361 50.7026 175.453 49.8032 175.418 48.0044V42.8804H174.029V41.0171H175.418V38.6792H177.958Z" fill="#0C0029"/>
<path d="M302.235 51.5269H296.645V50.7476L299.598 47.4663C300.036 46.9702 300.336 46.5679 300.5 46.2593C300.668 45.9468 300.752 45.6245 300.752 45.2925C300.752 44.8472 300.618 44.4819 300.348 44.1968C300.079 43.9116 299.719 43.769 299.27 43.769C298.731 43.769 298.311 43.9233 298.01 44.2319C297.713 44.5366 297.565 44.9624 297.565 45.5093H296.481C296.481 44.7241 296.733 44.0894 297.237 43.605C297.745 43.1206 298.422 42.8784 299.27 42.8784C300.063 42.8784 300.69 43.0874 301.151 43.5054C301.612 43.9194 301.842 44.4722 301.842 45.1636C301.842 46.0034 301.307 47.0034 300.237 48.1636L297.952 50.6421H302.235V51.5269ZM308.733 47.8882C308.733 49.1577 308.516 50.1011 308.083 50.7183C307.649 51.3354 306.971 51.644 306.049 51.644C305.139 51.644 304.465 51.3433 304.028 50.7417C303.59 50.1362 303.364 49.2339 303.348 48.0347V46.5874C303.348 45.3335 303.565 44.4019 303.999 43.7925C304.432 43.1831 305.112 42.8784 306.038 42.8784C306.956 42.8784 307.631 43.1733 308.065 43.7632C308.499 44.3491 308.721 45.2554 308.733 46.4819V47.8882ZM307.649 46.4058C307.649 45.4878 307.52 44.8198 307.262 44.4019C307.004 43.98 306.596 43.769 306.038 43.769C305.483 43.769 305.079 43.978 304.825 44.396C304.571 44.814 304.44 45.4565 304.432 46.3237V48.0581C304.432 48.98 304.565 49.6616 304.831 50.103C305.1 50.5405 305.506 50.7593 306.049 50.7593C306.584 50.7593 306.981 50.5522 307.239 50.1382C307.5 49.7241 307.637 49.0718 307.649 48.1812V46.4058ZM310.45 52.2593H309.518L313.081 42.9956H314.006L310.45 52.2593ZM320.657 51.5269H315.067V50.7476L318.02 47.4663C318.458 46.9702 318.758 46.5679 318.922 46.2593C319.09 45.9468 319.174 45.6245 319.174 45.2925C319.174 44.8472 319.04 44.4819 318.77 44.1968C318.5 43.9116 318.141 43.769 317.692 43.769C317.153 43.769 316.733 43.9233 316.432 44.2319C316.135 44.5366 315.987 44.9624 315.987 45.5093H314.903C314.903 44.7241 315.155 44.0894 315.659 43.605C316.167 43.1206 316.844 42.8784 317.692 42.8784C318.485 42.8784 319.112 43.0874 319.573 43.5054C320.034 43.9194 320.264 44.4722 320.264 45.1636C320.264 46.0034 319.729 47.0034 318.659 48.1636L316.374 50.6421H320.657V51.5269ZM327.155 47.8882C327.155 49.1577 326.938 50.1011 326.504 50.7183C326.071 51.3354 325.393 51.644 324.471 51.644C323.561 51.644 322.887 51.3433 322.45 50.7417C322.012 50.1362 321.786 49.2339 321.77 48.0347V46.5874C321.77 45.3335 321.987 44.4019 322.42 43.7925C322.854 43.1831 323.534 42.8784 324.459 42.8784C325.377 42.8784 326.053 43.1733 326.487 43.7632C326.92 44.3491 327.143 45.2554 327.155 46.4819V47.8882ZM326.071 46.4058C326.071 45.4878 325.942 44.8198 325.684 44.4019C325.426 43.98 325.018 43.769 324.459 43.769C323.905 43.769 323.5 43.978 323.247 44.396C322.993 44.814 322.862 45.4565 322.854 46.3237V48.0581C322.854 48.98 322.987 49.6616 323.252 50.103C323.522 50.5405 323.928 50.7593 324.471 50.7593C325.006 50.7593 325.403 50.5522 325.661 50.1382C325.922 49.7241 326.059 49.0718 326.071 48.1812V46.4058Z" fill="#7C7195"/>
<defs>
<filter id="filter0_d_1607_44713" x="0" y="0.526855" width="361" height="105.763" filterUnits="userSpaceOnUse" color-interpolation-filters="sRGB">
<feFlood flood-opacity="0" result="BackgroundImageFix"/>
<feColorMatrix in="SourceAlpha" type="matrix" values="0 0 0 0 0 0 0 0 0 0 0 0 0 0 0 0 0 0 127 0" result="hardAlpha"/>
<feMorphology radius="6" operator="dilate" in="SourceAlpha" result="effect1_dropShadow_1607_44713"/>
<feOffset/>
<feGaussianBlur stdDeviation="5.5"/>
<feComposite in2="hardAlpha" operator="out"/>
<feColorMatrix type="matrix" values="0 0 0 0 0.34902 0 0 0 0 0.27451 0 0 0 0 0.698039 0 0 0 0.06 0"/>
<feBlend mode="normal" in2="BackgroundImageFix" result="effect1_dropShadow_1607_44713"/>
<feBlend mode="normal" in="SourceGraphic" in2="effect1_dropShadow_1607_44713" result="shape"/>
</filter>
</defs>
</svg>
