<svg width="362" height="127" viewBox="0 0 362 127" fill="none" xmlns="http://www.w3.org/2000/svg">
<g filter="url(#filter0_d_1607_44787)">
<rect x="17.2832" y="17.8438" width="327" height="92.0106" rx="6" fill="white"/>
</g>
<path d="M113.032 82.6367C112.927 83.5391 112.593 84.2363 112.03 84.7285C111.472 85.2168 110.728 85.4609 109.798 85.4609C108.79 85.4609 107.981 85.0996 107.372 84.377C106.767 83.6543 106.464 82.6875 106.464 81.4766V80.6562C106.464 79.8633 106.604 79.166 106.886 78.5645C107.171 77.9629 107.573 77.502 108.093 77.1816C108.612 76.8574 109.214 76.6953 109.897 76.6953C110.804 76.6953 111.53 76.9492 112.077 77.457C112.624 77.9609 112.942 78.6602 113.032 79.5547H111.901C111.804 78.875 111.591 78.3828 111.263 78.0781C110.938 77.7734 110.483 77.6211 109.897 77.6211C109.179 77.6211 108.614 77.8867 108.204 78.418C107.798 78.9492 107.595 79.7051 107.595 80.6855V81.5117C107.595 82.4375 107.788 83.1738 108.175 83.7207C108.562 84.2676 109.103 84.541 109.798 84.541C110.423 84.541 110.901 84.4004 111.233 84.1191C111.569 83.834 111.792 83.3398 111.901 82.6367H113.032ZM114.116 82.1152C114.116 81.4941 114.237 80.9355 114.479 80.4395C114.726 79.9434 115.065 79.5605 115.499 79.291C115.937 79.0215 116.435 78.8867 116.993 78.8867C117.856 78.8867 118.554 79.1855 119.085 79.7832C119.62 80.3809 119.888 81.1758 119.888 82.168V82.2441C119.888 82.8613 119.769 83.416 119.53 83.9082C119.296 84.3965 118.958 84.7773 118.517 85.0508C118.079 85.3242 117.575 85.4609 117.005 85.4609C116.146 85.4609 115.448 85.1621 114.913 84.5645C114.382 83.9668 114.116 83.1758 114.116 82.1914V82.1152ZM115.206 82.2441C115.206 82.9473 115.368 83.5117 115.692 83.9375C116.021 84.3633 116.458 84.5762 117.005 84.5762C117.556 84.5762 117.993 84.3613 118.317 83.9316C118.642 83.498 118.804 82.8926 118.804 82.1152C118.804 81.4199 118.638 80.8574 118.306 80.4277C117.978 79.9941 117.54 79.7773 116.993 79.7773C116.458 79.7773 116.026 79.9902 115.698 80.416C115.37 80.8418 115.206 81.4512 115.206 82.2441ZM122.267 79.0039L122.296 79.707C122.761 79.1602 123.388 78.8867 124.177 78.8867C125.063 78.8867 125.667 79.2266 125.987 79.9062C126.198 79.6016 126.472 79.3555 126.808 79.168C127.147 78.9805 127.548 78.8867 128.009 78.8867C129.399 78.8867 130.106 79.623 130.13 81.0957V85.3438H129.046V81.1602C129.046 80.707 128.942 80.3691 128.735 80.1465C128.528 79.9199 128.181 79.8066 127.692 79.8066C127.29 79.8066 126.956 79.9277 126.69 80.1699C126.425 80.4082 126.271 80.7305 126.228 81.1367V85.3438H125.138V81.1895C125.138 80.2676 124.687 79.8066 123.784 79.8066C123.073 79.8066 122.587 80.1094 122.325 80.7148V85.3438H121.241V79.0039H122.267ZM137.126 82.2441C137.126 83.209 136.905 83.9863 136.464 84.5762C136.022 85.166 135.425 85.4609 134.671 85.4609C133.901 85.4609 133.296 85.2168 132.854 84.7285V87.7812H131.771V79.0039H132.761L132.813 79.707C133.255 79.1602 133.868 78.8867 134.653 78.8867C135.415 78.8867 136.017 79.1738 136.458 79.748C136.903 80.3223 137.126 81.1211 137.126 82.1445V82.2441ZM136.042 82.1211C136.042 81.4062 135.89 80.8418 135.585 80.4277C135.28 80.0137 134.862 79.8066 134.331 79.8066C133.675 79.8066 133.183 80.0977 132.854 80.6797V83.709C133.179 84.2871 133.675 84.5762 134.343 84.5762C134.862 84.5762 135.274 84.3711 135.579 83.9609C135.888 83.5469 136.042 82.9336 136.042 82.1211ZM139.687 85.3438H138.603V76.3438H139.687V85.3438ZM144.058 85.4609C143.198 85.4609 142.499 85.1797 141.96 84.6172C141.421 84.0508 141.151 83.2949 141.151 82.3496V82.1504C141.151 81.5215 141.271 80.9609 141.509 80.4688C141.751 79.9727 142.087 79.5859 142.517 79.3086C142.95 79.0273 143.419 78.8867 143.923 78.8867C144.747 78.8867 145.388 79.1582 145.845 79.7012C146.302 80.2441 146.53 81.0215 146.53 82.0332V82.4844H142.235C142.251 83.1094 142.433 83.6152 142.78 84.002C143.132 84.3848 143.577 84.5762 144.116 84.5762C144.499 84.5762 144.823 84.498 145.089 84.3418C145.354 84.1855 145.587 83.9785 145.786 83.7207L146.448 84.2363C145.917 85.0527 145.12 85.4609 144.058 85.4609ZM143.923 79.7773C143.485 79.7773 143.118 79.9375 142.821 80.2578C142.524 80.5742 142.341 81.0195 142.271 81.5938H145.446V81.5117C145.415 80.9609 145.267 80.5352 145.001 80.2344C144.735 79.9297 144.376 79.7773 143.923 79.7773ZM149.261 77.4688V79.0039H150.444V79.8418H149.261V83.7734C149.261 84.0273 149.313 84.2188 149.419 84.3477C149.524 84.4727 149.704 84.5352 149.958 84.5352C150.083 84.5352 150.255 84.5117 150.474 84.4648V85.3438C150.188 85.4219 149.911 85.4609 149.642 85.4609C149.157 85.4609 148.792 85.3145 148.546 85.0215C148.3 84.7285 148.177 84.3125 148.177 83.7734V79.8418H147.022V79.0039H148.177V77.4688H149.261ZM152.894 85.3438H151.81V79.0039H152.894V85.3438ZM151.722 77.3223C151.722 77.1465 151.774 76.998 151.88 76.877C151.989 76.7559 152.149 76.6953 152.36 76.6953C152.571 76.6953 152.731 76.7559 152.841 76.877C152.95 76.998 153.005 77.1465 153.005 77.3223C153.005 77.498 152.95 77.6445 152.841 77.7617C152.731 77.8789 152.571 77.9375 152.36 77.9375C152.149 77.9375 151.989 77.8789 151.88 77.7617C151.774 77.6445 151.722 77.498 151.722 77.3223ZM154.347 82.1152C154.347 81.4941 154.468 80.9355 154.71 80.4395C154.956 79.9434 155.296 79.5605 155.729 79.291C156.167 79.0215 156.665 78.8867 157.224 78.8867C158.087 78.8867 158.784 79.1855 159.315 79.7832C159.851 80.3809 160.118 81.1758 160.118 82.168V82.2441C160.118 82.8613 159.999 83.416 159.761 83.9082C159.526 84.3965 159.188 84.7773 158.747 85.0508C158.31 85.3242 157.806 85.4609 157.235 85.4609C156.376 85.4609 155.679 85.1621 155.144 84.5645C154.612 83.9668 154.347 83.1758 154.347 82.1914V82.1152ZM155.437 82.2441C155.437 82.9473 155.599 83.5117 155.923 83.9375C156.251 84.3633 156.688 84.5762 157.235 84.5762C157.786 84.5762 158.224 84.3613 158.548 83.9316C158.872 83.498 159.034 82.8926 159.034 82.1152C159.034 81.4199 158.868 80.8574 158.536 80.4277C158.208 79.9941 157.771 79.7773 157.224 79.7773C156.688 79.7773 156.257 79.9902 155.929 80.416C155.601 80.8418 155.437 81.4512 155.437 82.2441ZM162.503 79.0039L162.538 79.8008C163.022 79.1914 163.655 78.8867 164.437 78.8867C165.776 78.8867 166.452 79.6426 166.464 81.1543V85.3438H165.38V81.1484C165.376 80.6914 165.271 80.3535 165.063 80.1348C164.86 79.916 164.542 79.8066 164.108 79.8066C163.757 79.8066 163.448 79.9004 163.183 80.0879C162.917 80.2754 162.71 80.5215 162.562 80.8262V85.3438H161.478V79.0039H162.503Z" fill="#7C7195"/>
<path d="M93.4331 63.8438C93.4331 80.4123 80.0016 93.8438 63.4331 93.8438C46.8646 93.8438 33.4331 80.4123 33.4331 63.8438C33.4331 47.2752 46.8646 33.8438 63.4331 33.8438C80.0016 33.8438 93.4331 47.2752 93.4331 63.8438ZM36.4331 63.8438C36.4331 78.7554 48.5214 90.8438 63.4331 90.8438C78.3448 90.8438 90.4331 78.7554 90.4331 63.8438C90.4331 48.9321 78.3448 36.8438 63.4331 36.8438C48.5214 36.8438 36.4331 48.9321 36.4331 63.8438Z" fill="#DDD1FB"/>
<path d="M91.9331 63.8438C92.7615 63.8438 93.437 64.5158 93.3956 65.3432C93.1131 70.9893 91.2399 76.4521 87.9776 81.0939C84.4272 86.1455 79.4047 89.9786 73.5952 92.0702C67.7858 94.1617 61.4725 94.4097 55.5169 92.7805C49.5613 91.1512 44.2535 87.724 40.3177 82.9665C36.382 78.209 34.01 72.3529 33.5256 66.1975C33.0411 60.0421 34.4678 53.8871 37.6108 48.5725C40.7539 43.2579 45.4603 39.0425 51.0877 36.5017C56.2585 34.1669 61.9756 33.3505 67.5746 34.131C68.3951 34.2454 68.9287 35.0348 68.7735 35.8486C68.6182 36.6623 67.833 37.1918 67.0119 37.082C62.0203 36.4144 56.9302 37.1553 52.3222 39.2359C47.2575 41.5227 43.0218 45.3165 40.1931 50.0996C37.3643 54.8828 36.0803 60.4223 36.5163 65.9621C36.9523 71.502 39.0871 76.7724 42.6292 81.0542C46.1714 85.3359 50.9485 88.4205 56.3085 89.8868C61.6686 91.3531 67.3505 91.1299 72.579 89.2475C77.8075 87.3652 82.3278 83.9154 85.5231 79.3689C88.4304 75.2324 90.1119 70.3713 90.3915 65.343C90.4375 64.5159 91.1047 63.8438 91.9331 63.8438Z" fill="#692CFF"/>
<path d="M56.0044 59.4707L51.0562 70.8438H48.3755L53.3325 60.1035H46.9692V58.0469H56.0044V59.4707ZM65.98 61.4482C65.98 62.0693 65.8247 62.6201 65.5142 63.1006C65.2036 63.5811 64.7759 63.9648 64.231 64.252C64.8521 64.5508 65.3442 64.9639 65.7075 65.4912C66.0708 66.0127 66.2524 66.6279 66.2524 67.3369C66.2524 68.4736 65.8657 69.373 65.0923 70.0352C64.3188 70.6914 63.2671 71.0195 61.937 71.0195C60.6069 71.0195 59.5522 70.6885 58.7729 70.0264C57.9937 69.3643 57.604 68.4678 57.604 67.3369C57.604 66.6279 57.7856 66.0098 58.1489 65.4824C58.5122 64.9551 59.0015 64.5449 59.6167 64.252C59.0718 63.9648 58.644 63.5811 58.3335 63.1006C58.0288 62.6201 57.8765 62.0693 57.8765 61.4482C57.8765 60.3584 58.2397 59.4912 58.9663 58.8467C59.6929 58.1963 60.6802 57.8711 61.9282 57.8711C63.1704 57.8711 64.1548 58.1934 64.8813 58.8379C65.6138 59.4766 65.98 60.3467 65.98 61.4482ZM63.7036 67.1523C63.7036 66.5957 63.5425 66.1504 63.2202 65.8164C62.8979 65.4824 62.4644 65.3154 61.9194 65.3154C61.3804 65.3154 60.9497 65.4824 60.6274 65.8164C60.3052 66.1445 60.144 66.5898 60.144 67.1523C60.144 67.6973 60.3022 68.1367 60.6187 68.4707C60.9351 68.8047 61.3745 68.9717 61.937 68.9717C62.4878 68.9717 62.9185 68.8105 63.229 68.4883C63.5454 68.166 63.7036 67.7207 63.7036 67.1523ZM63.4399 61.5713C63.4399 61.0732 63.3081 60.6748 63.0444 60.376C62.7808 60.0713 62.4087 59.9189 61.9282 59.9189C61.4536 59.9189 61.0845 60.0654 60.8208 60.3584C60.5571 60.6514 60.4253 61.0557 60.4253 61.5713C60.4253 62.0811 60.5571 62.4912 60.8208 62.8018C61.0845 63.1123 61.4565 63.2676 61.937 63.2676C62.4175 63.2676 62.7866 63.1123 63.0444 62.8018C63.3081 62.4912 63.4399 62.0811 63.4399 61.5713ZM67.9399 60.5078C67.9399 59.7227 68.1948 59.0869 68.7046 58.6006C69.2144 58.1084 69.8823 57.8623 70.7085 57.8623C71.5464 57.8623 72.2202 58.1055 72.73 58.5918C73.2397 59.0723 73.4946 59.7256 73.4946 60.5518V61.1846C73.4946 61.9756 73.2397 62.6113 72.73 63.0918C72.2202 63.5723 71.5522 63.8125 70.7261 63.8125C69.894 63.8125 69.2202 63.5723 68.7046 63.0918C68.1948 62.6055 67.9399 61.9521 67.9399 61.1318V60.5078ZM69.6274 61.1846C69.6274 61.5361 69.7271 61.8203 69.9263 62.0371C70.1313 62.248 70.3979 62.3535 70.7261 62.3535C71.0542 62.3535 71.3149 62.2451 71.5083 62.0283C71.7017 61.8115 71.7983 61.5215 71.7983 61.1582V60.5078C71.7983 60.1562 71.7017 59.8721 71.5083 59.6553C71.3149 59.4385 71.0483 59.3301 70.7085 59.3301C70.3862 59.3301 70.1255 59.4385 69.9263 59.6553C69.7271 59.8662 69.6274 60.1621 69.6274 60.543V61.1846ZM74.0571 67.7061C74.0571 66.915 74.3149 66.2793 74.8306 65.7988C75.3462 65.3125 76.0142 65.0693 76.8345 65.0693C77.6665 65.0693 78.3374 65.3096 78.8472 65.79C79.3628 66.2646 79.6206 66.9209 79.6206 67.7588V68.3916C79.6206 69.1768 79.3687 69.8125 78.8647 70.2988C78.3608 70.7793 77.6899 71.0195 76.8521 71.0195C76.0083 71.0195 75.3315 70.7764 74.8218 70.29C74.312 69.8037 74.0571 69.1592 74.0571 68.3564V67.7061ZM75.7446 68.3916C75.7446 68.7139 75.8501 68.9893 76.061 69.2178C76.272 69.4463 76.5356 69.5605 76.8521 69.5605C77.5669 69.5605 77.9243 69.165 77.9243 68.374V67.7061C77.9243 67.3545 77.8247 67.0732 77.6255 66.8623C77.4263 66.6455 77.1626 66.5371 76.8345 66.5371C76.5063 66.5371 76.2427 66.6455 76.0435 66.8623C75.8442 67.0732 75.7446 67.3633 75.7446 67.7324V68.3916ZM71.2271 69.8857L69.9878 69.2178L76.2368 59.2158L77.4761 59.8838L71.2271 69.8857Z" fill="#0C0029"/>
<path d="M302.684 65.8438H297.094V65.0645L300.047 61.7832C300.485 61.2871 300.785 60.8848 300.949 60.5762C301.117 60.2637 301.201 59.9414 301.201 59.6094C301.201 59.1641 301.067 58.7988 300.797 58.5137C300.528 58.2285 300.168 58.0859 299.719 58.0859C299.18 58.0859 298.76 58.2402 298.459 58.5488C298.162 58.8535 298.014 59.2793 298.014 59.8262H296.93C296.93 59.041 297.182 58.4062 297.686 57.9219C298.194 57.4375 298.871 57.1953 299.719 57.1953C300.512 57.1953 301.139 57.4043 301.6 57.8223C302.061 58.2363 302.291 58.7891 302.291 59.4805C302.291 60.3203 301.756 61.3203 300.686 62.4805L298.401 64.959H302.684V65.8438ZM309.006 59.5391C309.006 59.9648 308.893 60.3438 308.666 60.6758C308.444 61.0078 308.141 61.2676 307.758 61.4551C308.203 61.6465 308.555 61.9258 308.813 62.293C309.074 62.6602 309.205 63.0762 309.205 63.541C309.205 64.2793 308.955 64.8672 308.455 65.3047C307.959 65.7422 307.305 65.9609 306.492 65.9609C305.672 65.9609 305.014 65.7422 304.518 65.3047C304.026 64.8633 303.779 64.2754 303.779 63.541C303.779 63.0801 303.904 62.6641 304.154 62.293C304.408 61.9219 304.758 61.6406 305.203 61.4492C304.824 61.2617 304.526 61.002 304.307 60.6699C304.088 60.3379 303.979 59.9609 303.979 59.5391C303.979 58.8203 304.209 58.25 304.67 57.8281C305.131 57.4062 305.738 57.1953 306.492 57.1953C307.242 57.1953 307.848 57.4062 308.309 57.8281C308.774 58.25 309.006 58.8203 309.006 59.5391ZM308.121 63.5176C308.121 63.041 307.969 62.6523 307.664 62.3516C307.363 62.0508 306.969 61.9004 306.481 61.9004C305.992 61.9004 305.6 62.0488 305.303 62.3457C305.01 62.6426 304.863 63.0332 304.863 63.5176C304.863 64.002 305.006 64.3828 305.291 64.6602C305.58 64.9375 305.981 65.0762 306.492 65.0762C307 65.0762 307.399 64.9375 307.688 64.6602C307.977 64.3789 308.121 63.998 308.121 63.5176ZM306.492 58.0859C306.067 58.0859 305.721 58.2188 305.455 58.4844C305.194 58.7461 305.063 59.1035 305.063 59.5566C305.063 59.9902 305.192 60.3418 305.449 60.6113C305.711 60.877 306.059 61.0098 306.492 61.0098C306.926 61.0098 307.272 60.877 307.529 60.6113C307.791 60.3418 307.922 59.9902 307.922 59.5566C307.922 59.123 307.787 58.7695 307.518 58.4961C307.248 58.2227 306.906 58.0859 306.492 58.0859ZM310.899 66.5762H309.967L313.529 57.3125H314.455L310.899 66.5762ZM320.092 62.9785H321.276V63.8633H320.092V65.8438H319.002V63.8633H315.117V63.2246L318.938 57.3125H320.092V62.9785ZM316.348 62.9785H319.002V58.7949L318.873 59.0293L316.348 62.9785ZM323.83 61.0508H324.645C325.156 61.043 325.559 60.9082 325.852 60.6465C326.145 60.3848 326.291 60.0312 326.291 59.5859C326.291 58.5859 325.793 58.0859 324.797 58.0859C324.328 58.0859 323.953 58.2207 323.672 58.4902C323.395 58.7559 323.256 59.1094 323.256 59.5508H322.172C322.172 58.875 322.418 58.3145 322.91 57.8691C323.406 57.4199 324.035 57.1953 324.797 57.1953C325.602 57.1953 326.233 57.4082 326.69 57.834C327.147 58.2598 327.375 58.8516 327.375 59.6094C327.375 59.9805 327.254 60.3398 327.012 60.6875C326.774 61.0352 326.447 61.2949 326.033 61.4668C326.502 61.6152 326.863 61.8613 327.117 62.2051C327.375 62.5488 327.504 62.9688 327.504 63.4648C327.504 64.2305 327.254 64.8379 326.754 65.2871C326.254 65.7363 325.604 65.9609 324.803 65.9609C324.002 65.9609 323.35 65.7441 322.846 65.3105C322.346 64.877 322.096 64.3047 322.096 63.5938H323.186C323.186 64.043 323.332 64.4023 323.625 64.6719C323.918 64.9414 324.311 65.0762 324.803 65.0762C325.326 65.0762 325.727 64.9395 326.004 64.666C326.281 64.3926 326.42 64 326.42 63.4883C326.42 62.9922 326.268 62.6113 325.963 62.3457C325.658 62.0801 325.219 61.9434 324.645 61.9355H323.83V61.0508Z" fill="#7C7195"/>
<path d="M111.321 57.8125L113.984 52.0469H116.867L112.666 60.2031V64.8438H109.985V60.2031L105.784 52.0469H108.676L111.321 57.8125ZM116.894 60.001C116.894 59.0576 117.075 58.2168 117.438 57.4785C117.802 56.7402 118.323 56.1689 119.003 55.7646C119.688 55.3604 120.482 55.1582 121.385 55.1582C122.668 55.1582 123.714 55.5508 124.522 56.3359C125.337 57.1211 125.791 58.1875 125.885 59.5352L125.902 60.1855C125.902 61.6445 125.495 62.8164 124.681 63.7012C123.866 64.5801 122.773 65.0195 121.402 65.0195C120.031 65.0195 118.936 64.5801 118.115 63.7012C117.301 62.8223 116.894 61.627 116.894 60.1152V60.001ZM119.434 60.1855C119.434 61.0879 119.604 61.7793 119.943 62.2598C120.283 62.7344 120.77 62.9717 121.402 62.9717C122.018 62.9717 122.498 62.7373 122.844 62.2686C123.189 61.7939 123.362 61.0381 123.362 60.001C123.362 59.1162 123.189 58.4307 122.844 57.9443C122.498 57.458 122.012 57.2148 121.385 57.2148C120.764 57.2148 120.283 57.458 119.943 57.9443C119.604 58.4248 119.434 59.1719 119.434 60.1855ZM133.162 63.877C132.535 64.6387 131.668 65.0195 130.561 65.0195C129.541 65.0195 128.762 64.7266 128.223 64.1406C127.689 63.5547 127.417 62.6963 127.405 61.5654V55.334H129.945V61.4775C129.945 62.4678 130.396 62.9629 131.299 62.9629C132.16 62.9629 132.752 62.6641 133.074 62.0664V55.334H135.623V64.8438H133.232L133.162 63.877ZM142.883 57.7158C142.537 57.6689 142.232 57.6455 141.969 57.6455C141.008 57.6455 140.378 57.9707 140.079 58.6211V64.8438H137.539V55.334H139.938L140.009 56.4678C140.519 55.5947 141.225 55.1582 142.127 55.1582C142.408 55.1582 142.672 55.1963 142.918 55.2725L142.883 57.7158ZM157.165 60.1768C157.165 61.7002 156.84 62.8896 156.189 63.7451C155.539 64.5947 154.631 65.0195 153.465 65.0195C152.434 65.0195 151.61 64.624 150.995 63.833L150.881 64.8438H148.596V51.3438H151.136V56.1865C151.722 55.501 152.492 55.1582 153.447 55.1582C154.607 55.1582 155.516 55.5859 156.172 56.4414C156.834 57.291 157.165 58.4893 157.165 60.0361V60.1768ZM154.625 59.9922C154.625 59.0312 154.473 58.3311 154.168 57.8916C153.863 57.4463 153.409 57.2236 152.806 57.2236C151.997 57.2236 151.44 57.5547 151.136 58.2168V61.9697C151.446 62.6377 152.009 62.9717 152.823 62.9717C153.644 62.9717 154.183 62.5674 154.44 61.7588C154.563 61.3721 154.625 60.7832 154.625 59.9922ZM161.419 64.8438H158.87V55.334H161.419V64.8438ZM158.721 52.873C158.721 52.4922 158.847 52.1787 159.099 51.9326C159.356 51.6865 159.705 51.5635 160.145 51.5635C160.578 51.5635 160.924 51.6865 161.182 51.9326C161.439 52.1787 161.568 52.4922 161.568 52.873C161.568 53.2598 161.437 53.5762 161.173 53.8223C160.915 54.0684 160.572 54.1914 160.145 54.1914C159.717 54.1914 159.371 54.0684 159.107 53.8223C158.85 53.5762 158.721 53.2598 158.721 52.873ZM168.863 57.7158C168.518 57.6689 168.213 57.6455 167.949 57.6455C166.988 57.6455 166.358 57.9707 166.06 58.6211V64.8438H163.52V55.334H165.919L165.989 56.4678C166.499 55.5947 167.205 55.1582 168.107 55.1582C168.389 55.1582 168.652 55.1963 168.898 55.2725L168.863 57.7158ZM173.574 52.9961V55.334H175.2V57.1973H173.574V61.9434C173.574 62.2949 173.642 62.5469 173.776 62.6992C173.911 62.8516 174.169 62.9277 174.55 62.9277C174.831 62.9277 175.08 62.9072 175.297 62.8662V64.791C174.799 64.9434 174.286 65.0195 173.759 65.0195C171.978 65.0195 171.069 64.1201 171.034 62.3213V57.1973H169.646V55.334H171.034V52.9961H173.574ZM179.094 56.3711C179.768 55.5625 180.614 55.1582 181.634 55.1582C183.696 55.1582 184.742 56.3564 184.771 58.7529V64.8438H182.231V58.8232C182.231 58.2783 182.114 57.877 181.88 57.6191C181.646 57.3555 181.256 57.2236 180.711 57.2236C179.967 57.2236 179.428 57.5107 179.094 58.085V64.8438H176.554V51.3438H179.094V56.3711ZM199.73 60.1768C199.73 61.6416 199.396 62.8164 198.729 63.7012C198.066 64.5801 197.17 65.0195 196.039 65.0195C195.078 65.0195 194.302 64.6855 193.71 64.0176V68.5H191.17V55.334H193.525L193.613 56.2656C194.229 55.5273 195.031 55.1582 196.021 55.1582C197.193 55.1582 198.104 55.5918 198.755 56.459C199.405 57.3262 199.73 58.5215 199.73 60.0449V60.1768ZM197.19 59.9922C197.19 59.1074 197.032 58.4248 196.716 57.9443C196.405 57.4639 195.951 57.2236 195.354 57.2236C194.557 57.2236 194.009 57.5283 193.71 58.1377V62.0312C194.021 62.6582 194.574 62.9717 195.371 62.9717C196.584 62.9717 197.19 61.9785 197.19 59.9922ZM203.993 64.8438H201.444V51.3438H203.993V64.8438ZM211.604 64.8438C211.487 64.6152 211.402 64.3311 211.35 63.9912C210.734 64.6768 209.935 65.0195 208.95 65.0195C208.019 65.0195 207.245 64.75 206.63 64.2109C206.021 63.6719 205.716 62.9922 205.716 62.1719C205.716 61.1641 206.088 60.3906 206.832 59.8516C207.582 59.3125 208.663 59.04 210.075 59.0342H211.244V58.4893C211.244 58.0498 211.13 57.6982 210.901 57.4346C210.679 57.1709 210.324 57.0391 209.838 57.0391C209.41 57.0391 209.073 57.1416 208.827 57.3467C208.587 57.5518 208.467 57.833 208.467 58.1904H205.927C205.927 57.6396 206.097 57.1299 206.437 56.6611C206.776 56.1924 207.257 55.8262 207.878 55.5625C208.499 55.293 209.196 55.1582 209.97 55.1582C211.142 55.1582 212.07 55.4541 212.756 56.0459C213.447 56.6318 213.793 57.458 213.793 58.5244V62.6465C213.799 63.5488 213.925 64.2314 214.171 64.6943V64.8438H211.604ZM209.504 63.0771C209.879 63.0771 210.225 62.9951 210.541 62.8311C210.857 62.6611 211.092 62.4355 211.244 62.1543V60.5195H210.295C209.023 60.5195 208.347 60.959 208.265 61.8379L208.256 61.9873C208.256 62.3037 208.367 62.5645 208.59 62.7695C208.812 62.9746 209.117 63.0771 209.504 63.0771ZM218.082 55.334L218.161 56.4326C218.841 55.583 219.752 55.1582 220.895 55.1582C221.902 55.1582 222.652 55.4541 223.145 56.0459C223.637 56.6377 223.889 57.5225 223.9 58.7002V64.8438H221.36V58.7617C221.36 58.2227 221.243 57.833 221.009 57.5928C220.774 57.3467 220.385 57.2236 219.84 57.2236C219.125 57.2236 218.589 57.5283 218.231 58.1377V64.8438H215.691V55.334H218.082Z" fill="#0C0029"/>
<defs>
<filter id="filter0_d_1607_44787" x="0.283203" y="0.84375" width="361" height="126.01" filterUnits="userSpaceOnUse" color-interpolation-filters="sRGB">
<feFlood flood-opacity="0" result="BackgroundImageFix"/>
<feColorMatrix in="SourceAlpha" type="matrix" values="0 0 0 0 0 0 0 0 0 0 0 0 0 0 0 0 0 0 127 0" result="hardAlpha"/>
<feMorphology radius="6" operator="dilate" in="SourceAlpha" result="effect1_dropShadow_1607_44787"/>
<feOffset/>
<feGaussianBlur stdDeviation="5.5"/>
<feComposite in2="hardAlpha" operator="out"/>
<feColorMatrix type="matrix" values="0 0 0 0 0.34902 0 0 0 0 0.27451 0 0 0 0 0.698039 0 0 0 0.06 0"/>
<feBlend mode="normal" in2="BackgroundImageFix" result="effect1_dropShadow_1607_44787"/>
<feBlend mode="normal" in="SourceGraphic" in2="effect1_dropShadow_1607_44787" result="shape"/>
</filter>
</defs>
</svg>
