<svg width="25" height="25" viewBox="0 0 25 25" fill="none" xmlns="http://www.w3.org/2000/svg">
<mask id="mask0_1607_42245" style="mask-type:alpha" maskUnits="userSpaceOnUse" x="2" y="2" width="21" height="21">
<path fill-rule="evenodd" clip-rule="evenodd" d="M2.96948 2.84375H22.4463V22.3207H2.96948V2.84375Z" fill="white"/>
</mask>
<g mask="url(#mask0_1607_42245)">
<path fill-rule="evenodd" clip-rule="evenodd" d="M12.7082 4.34375C8.16524 4.34375 4.46924 8.03875 4.46924 12.5817C4.46924 17.1248 8.16524 20.8207 12.7082 20.8207C17.2502 20.8207 20.9462 17.1248 20.9462 12.5817C20.9462 8.03875 17.2502 4.34375 12.7082 4.34375ZM12.7082 22.3207C7.33824 22.3207 2.96924 17.9517 2.96924 12.5817C2.96924 7.21175 7.33824 2.84375 12.7082 2.84375C18.0782 2.84375 22.4462 7.21175 22.4462 12.5817C22.4462 17.9517 18.0782 22.3207 12.7082 22.3207Z" fill="#7C7195"/>
</g>
<mask id="mask1_1607_42245" style="mask-type:alpha" maskUnits="userSpaceOnUse" x="18" y="18" width="6" height="6">
<path fill-rule="evenodd" clip-rule="evenodd" d="M18.2095 18.5508H23.2335V23.5655H18.2095V18.5508Z" fill="white"/>
</mask>
<g mask="url(#mask1_1607_42245)">
<path fill-rule="evenodd" clip-rule="evenodd" d="M22.4837 23.5655C22.2927 23.5655 22.1007 23.4925 21.9537 23.3465L18.4297 19.8325C18.1367 19.5395 18.1357 19.0645 18.4287 18.7715C18.7207 18.4765 19.1957 18.4785 19.4897 18.7695L23.0137 22.2845C23.3067 22.5775 23.3077 23.0515 23.0147 23.3445C22.8687 23.4925 22.6757 23.5655 22.4837 23.5655Z" fill="#7C7195"/>
</g>
</svg>
