<svg width="117" height="115" viewBox="0 0 117 115" fill="none" xmlns="http://www.w3.org/2000/svg">
<rect y="-0.15625" width="117" height="115" rx="6" fill="#14B5FF"/>
<mask id="mask0_1607_42475" style="mask-type:alpha" maskUnits="userSpaceOnUse" x="0" y="-1" width="117" height="116">
<rect y="-0.15625" width="117" height="115" rx="6" fill="url(#paint0_linear_1607_42475)"/>
</mask>
<g mask="url(#mask0_1607_42475)">
<path d="M91.3497 46.7883C91.3497 46.7883 90.2947 47.5181 87.545 46.1449C84.7952 44.7718 84.9439 42.0739 86.3724 41.1019C87.8009 40.13 88.1018 39.58 86.2064 38.411C84.3109 37.2419 85.8121 33.4959 89.0841 32.3061C92.3562 31.1162 93.508 31.0817 96.2371 32.0674C98.9661 33.0532 103.241 38.4594 103.591 41.9874C103.94 45.5154 100.851 47.6253 97.1744 48.2133C93.4976 48.8013 91.3497 46.7883 91.3497 46.7883Z" fill="#263238" stroke="#263238" stroke-width="0.403612" stroke-linecap="round" stroke-linejoin="round"/>
<path d="M88.4788 77.164C88.4788 77.164 87.9288 80.2008 88.1605 82.3107C88.3923 84.4206 88.5064 87.5993 88.5722 89.7161C88.6379 91.8329 88.1571 94.3787 88.2263 96.0873C88.2954 97.796 88.3612 100.158 88.3197 101.303C88.2781 102.448 87.1471 107.699 87.3097 112.503C87.4722 117.307 90.3431 125.277 90.3431 125.277C90.3431 125.277 91.571 127.926 91.6471 130.205C91.7232 132.485 92.9995 136.431 93.6982 137.881C94.3969 139.33 98.084 151.92 98.4403 155.251C98.7965 158.582 98.2673 159.82 98.2673 159.82C98.2673 159.82 96.0467 164.133 95.5729 164.559C95.099 164.984 93.1517 165.863 92.5256 166.129C91.8996 166.395 92.0587 166.797 92.3112 167.032C92.5637 167.267 94.1893 167.132 94.1893 167.132C94.1893 167.132 96.7973 167.046 97.9318 166.845C99.0663 166.644 100.329 165.461 100.792 164.628C101.256 163.794 104.877 162.535 105.406 161.294C105.936 160.052 104.431 158.872 103.84 158.25C103.248 157.627 102.093 152.439 102.024 150.319C101.954 148.198 102.086 142.491 101.277 137.791C100.467 133.09 99.4295 128.884 99.4295 128.884C99.4295 128.884 99.6335 122.765 99.9172 121.531C100.201 120.296 106.313 105.582 106.942 102.465C107.572 99.349 108.886 94.8179 107.98 91.8329C107.074 88.848 105.237 85.4029 105.258 83.6078C105.278 81.8127 106.71 78.34 106.71 78.34C106.71 78.34 107.534 76.1125 107.499 75.0541C107.464 73.9957 107.769 73.4146 103.48 71.9411C99.1908 70.4676 91.3427 72.2662 90.1217 72.3077C88.9007 72.3492 88.4234 75.5383 88.4788 77.164Z" fill="white" stroke="#263238" stroke-width="0.403612" stroke-linecap="round" stroke-linejoin="round"/>
<path d="M101.104 94.6761C101.104 94.6761 99.9311 98.6019 99.6786 100.812C99.4261 103.022 96.6763 107.706 94.8362 110.867C92.9961 114.028 90.6856 120.707 89.9938 124.073C89.3021 127.438 88.4996 130.645 89.1222 132.174C89.7448 133.702 91.8893 136.725 91.9827 137.213C92.0761 137.701 99.5022 152.37 99.9795 154.473C100.457 156.576 101.259 158.668 101.363 159.561C101.467 160.453 99.0007 164.531 98.7067 165.441C98.4127 166.35 96.7939 166.824 96.6521 167.468C96.5103 168.111 98.1291 167.661 98.5372 167.73C98.9453 167.8 101.069 167.89 101.955 167.533C102.84 167.177 103.843 165.513 104.639 164.918C105.434 164.324 106.278 162.743 107.146 161.899C108.014 161.055 108.53 159.651 108.101 158.769C107.672 157.887 105.424 156.738 105.068 155.853C104.711 154.967 103.774 148.804 103.542 146.773C103.31 144.743 103.615 139.714 101.768 135.619C99.9207 131.523 98.3712 130.524 98.3712 130.524C98.3712 130.524 98.257 129.548 98.2432 129.14C98.2294 128.732 104.915 122.191 106.468 119.936C108.021 117.681 111.542 113.171 111.691 112.756C111.84 112.34 115.43 110.023 115.326 104.482C115.223 98.9409 109.606 92.1096 108.357 91.3383C107.626 90.8963 106.995 90.3074 106.503 89.6089" fill="white"/>
<path d="M101.104 94.6761C101.104 94.6761 99.9311 98.6019 99.6786 100.812C99.4261 103.022 96.6763 107.706 94.8362 110.867C92.9961 114.028 90.6856 120.707 89.9938 124.073C89.3021 127.438 88.4996 130.645 89.1222 132.173C89.7448 133.702 91.8893 136.725 91.9827 137.213C92.0761 137.701 99.5022 152.37 99.9795 154.473C100.457 156.576 101.259 158.668 101.363 159.561C101.467 160.453 99.0007 164.531 98.7067 165.441C98.4127 166.35 96.7939 166.824 96.6521 167.468C96.5103 168.111 98.1291 167.661 98.5372 167.73C98.9453 167.8 101.069 167.89 101.955 167.533C102.84 167.177 103.843 165.513 104.639 164.918C105.434 164.324 106.278 162.743 107.146 161.899C108.014 161.055 108.53 159.651 108.101 158.769C107.672 157.887 105.424 156.738 105.068 155.853C104.711 154.967 103.774 148.804 103.542 146.773C103.31 144.743 103.615 139.714 101.768 135.619C99.9207 131.523 98.3712 130.524 98.3712 130.524C98.3712 130.524 98.257 129.548 98.2432 129.14C98.2294 128.732 104.915 122.191 106.468 119.936C108.021 117.681 111.542 113.171 111.691 112.756C111.84 112.34 115.43 110.023 115.326 104.482C115.223 98.9409 109.606 92.1096 108.357 91.3383C107.626 90.8963 106.995 90.3074 106.503 89.6089" stroke="#263238" stroke-width="0.403612" stroke-linecap="round" stroke-linejoin="round"/>
<path d="M99.5299 101.902C99.7824 101.424 100.018 100.373 101.086 98.9961C104.525 94.5757 111.695 95.0668 111.695 95.0668L107.831 90.342C107.831 90.342 99.6821 97.5364 95.9915 98.2524C89.4889 99.5045 88.2126 97.2148 88.2126 97.2148C88.1731 98.0371 88.1916 98.8612 88.2679 99.6809C88.2679 100.304 90.7514 102.303 94.1791 104.523C96.1403 105.793 96.9773 105.561 97.6829 105.654C98.1429 104.714 99.3362 102.285 99.5299 101.902Z" fill="#14B5FF" stroke="#263238" stroke-width="0.403612" stroke-linecap="round" stroke-linejoin="round"/>
<path d="M98.4265 52.8654C98.9348 53.5946 99.3704 54.3719 99.727 55.1862C100.073 56.1513 100.146 58.0225 100.146 58.0225C100.146 58.0225 95.355 58.5102 94.1686 59.6931C92.9822 60.876 92.1936 63.9164 91.9619 64.3314C91.7301 64.7465 87.2267 66.5278 86.0818 69.1738C84.9369 71.8199 86.2513 74.3033 86.9327 75.1784C87.3487 75.7105 87.8311 76.1871 88.3681 76.5965L88.4684 77.1638C88.4684 77.1638 97.3888 80.6226 106.686 78.3467C107.495 77.1405 108.138 75.8304 108.595 74.452C109.18 72.477 110.059 69.4298 110.059 69.4298C110.059 69.4298 112.988 64.4421 112.826 61.675C112.663 58.908 110.577 57.7562 109.332 57.1439C108.087 56.5317 107.52 56.5525 107.257 56.4003C106.994 56.2481 103.929 51.6997 103.487 50.413C103.044 49.1263 98.4265 52.8654 98.4265 52.8654Z" fill="white" stroke="#263238" stroke-width="0.403612" stroke-linecap="round" stroke-linejoin="round"/>
<path d="M103.487 50.4132C103.034 49.123 98.4333 52.8655 98.4333 52.8655C98.9345 53.5846 99.3654 54.3502 99.72 55.1518C100.969 55.1518 103.67 55.0446 105.87 54.46C104.894 53.0108 103.739 51.1603 103.487 50.4132Z" fill="#263238" stroke="#263238" stroke-width="0.403612" stroke-linecap="round" stroke-linejoin="round"/>
<path d="M93.8748 67.4584C94.578 66.7565 95.3853 66.1673 96.2683 65.7117" stroke="#263238" stroke-width="0.403612" stroke-linecap="round" stroke-linejoin="round"/>
<path d="M87.2302 76.6106C83.7713 78.9661 78.8805 86.0048 79.9666 92.089C82.6783 107.55 102.273 104.043 104.424 90.197" fill="white"/>
<path d="M87.2302 76.6106C83.7713 78.9661 78.8805 86.0048 79.9666 92.089C82.6783 107.55 102.273 104.043 104.424 90.197" stroke="#263238" stroke-width="0.403612" stroke-linecap="round" stroke-linejoin="round"/>
<path d="M80.1187 93.3789C80.1187 93.3789 79.2367 94.1641 79.1191 94.51C79.0015 94.8558 80.0634 95.9488 80.6272 96.4504C81.191 96.9519 81.4158 96.7547 81.0595 95.9765C80.8388 95.4959 80.5809 95.0334 80.2882 94.593L80.1187 93.3789Z" fill="white" stroke="#263238" stroke-width="0.403612" stroke-linecap="round" stroke-linejoin="round"/>
<path d="M80.1948 92.2515C80.1948 92.2515 79.2125 92.9052 79.0499 93.2338C78.8873 93.5624 79.7866 94.7903 80.2778 95.361C80.7689 95.9317 81.0145 95.7726 80.769 94.9528C80.6162 94.4475 80.4242 93.9548 80.1948 93.4794V92.2515Z" fill="white" stroke="#263238" stroke-width="0.403612" stroke-linecap="round" stroke-linejoin="round"/>
<path d="M79.8662 91.269C79.8662 91.269 78.8839 91.9262 78.7213 92.2514C78.5587 92.5765 79.458 93.8078 79.9492 94.3786C80.4403 94.9493 80.6859 94.7902 80.4403 93.9704C80.2876 93.4651 80.0956 92.9724 79.8662 92.4969V91.269Z" fill="white" stroke="#263238" stroke-width="0.403612" stroke-linecap="round" stroke-linejoin="round"/>
<path d="M79.7763 89.8994C79.7763 89.8994 78.8148 90.5912 78.6591 90.9129C78.5035 91.2345 79.4374 92.4451 79.9458 92.9882C80.4543 93.5312 80.6929 93.3756 80.4231 92.5662C80.2577 92.0655 80.0529 91.5786 79.8109 91.11L79.7763 89.8994Z" fill="white" stroke="#263238" stroke-width="0.403612" stroke-linecap="round" stroke-linejoin="round"/>
<path d="M79.9182 88.5505C79.9182 88.5505 79.3163 88.2945 79.0604 88.464C78.8044 88.6335 78.2441 89.7541 78.0711 90.1C77.8982 90.4459 78.0296 90.7019 78.5865 90.4459C78.9397 90.2692 79.2261 89.9828 79.4028 89.6296L79.7902 89.7161L79.9182 88.5505Z" fill="white" stroke="#263238" stroke-width="0.403612" stroke-linecap="round" stroke-linejoin="round"/>
<path d="M82.2148 89.5499C82.1698 89.9753 82.0107 90.3074 81.8689 90.2901C81.7271 90.2728 81.6268 89.9165 81.6717 89.4911C81.7167 89.0656 81.8758 88.7336 82.0176 88.7509C82.1594 88.7682 82.2598 89.1245 82.2148 89.5499Z" fill="white" stroke="#263238" stroke-width="0.403612" stroke-linecap="round" stroke-linejoin="round"/>
<path d="M84.847 69.0668C82.3739 71.7647 82.7406 76.2267 86.4208 77.3888C87.8458 77.8385 89.1187 76.9392 89.1187 76.9392L88.4788 77.164C88.4788 77.164 97.3992 80.6229 106.697 78.3469C107.506 77.1407 108.148 75.8306 108.606 74.4523C108.858 73.5945 109.17 72.5361 109.436 71.6126C107.741 71.1733 104.708 70.0907 104.639 67.9842C104.552 65.4143 107.004 58.251 107.613 56.5181C107.493 56.4957 107.376 56.4561 107.267 56.4005C107.19 56.3285 107.12 56.2485 107.06 56.1619H106.852C106.852 56.1619 105.559 58.8944 104.652 61.1288C103.746 63.3632 101.425 67.0088 98.6028 67.9323C95.7804 68.8558 92.2282 67.4135 93.4665 65.5111C94.7047 63.6088 100.145 58.0296 100.145 58.0296C100.145 58.0296 99.5886 58.0884 98.8035 58.2095L91.9619 64.3317C91.7266 64.7467 86.7909 66.9431 84.847 69.0668Z" fill="#14B5FF" stroke="#263238" stroke-width="0.403612" stroke-linecap="round" stroke-linejoin="round"/>
<path d="M104.442 76.2509C103.84 77.2152 103.009 78.0163 102.024 78.5834C101.039 79.1505 99.9294 79.4661 98.7932 79.5022C95.4658 79.6129 92.716 77.9872 92.4912 74.0891" fill="#14B5FF"/>
<path d="M104.442 76.2509C103.84 77.2152 103.009 78.0163 102.024 78.5834C101.039 79.1505 99.9294 79.4661 98.7932 79.5022C95.4658 79.6129 92.716 77.9872 92.4912 74.0891" stroke="#263238" stroke-width="0.403612" stroke-linecap="round" stroke-linejoin="round"/>
<path d="M93.6118 45.3252C94.5721 44.7349 95.7119 44.5079 96.8251 44.6853" stroke="#263238" stroke-width="0.403612" stroke-linecap="round" stroke-linejoin="round"/>
<path d="M89.9073 40.5345C89.5588 42.4355 89.5776 44.3857 89.9627 46.2796C90.3085 47.8257 91.1317 48.3549 91.2908 49.6555C91.45 50.956 92.3043 52.8099 93.5149 53.7127C94.7255 54.6154 96.4515 56.8014 97.9699 56.2791C99.4883 55.7569 102.352 53.3011 102.812 52.6958C103.272 52.0905 104.604 49.8007 104.196 47.6908C103.788 45.5809 103.137 44.3046 98.3435 42.1048C93.5495 39.905 90.9104 38.7186 89.9073 40.5345Z" fill="white" stroke="#263238" stroke-width="0.403612" stroke-linecap="round" stroke-linejoin="round"/>
<path d="M92.1245 46.916C92.1245 46.916 93.0999 48.4241 92.8405 49.8975C92.6814 50.8072 92.7575 51.5301 93.0584 51.8137C93.6153 52.336 94.8328 51.8137 95.0472 51.3641" stroke="#263238" stroke-width="0.403612" stroke-linecap="round" stroke-linejoin="round"/>
<path d="M91.3428 46.5566C91.3428 46.5566 90.7133 46.2107 90.2844 47.1342" stroke="#263238" stroke-width="0.403612" stroke-linecap="round" stroke-linejoin="round"/>
<path d="M94.4246 53.4638C94.8779 53.5515 95.3475 53.4855 95.7591 53.2763C96.1707 53.067 96.5007 52.7265 96.697 52.3086" stroke="#263238" stroke-width="0.403612" stroke-linecap="round" stroke-linejoin="round"/>
<path d="M94.4106 46.2036L94.8707 47.7532C95.3377 47.7945 95.8078 47.7217 96.2405 47.5409C96.6731 47.3601 97.0553 47.0769 97.3541 46.7155" stroke="#263238" stroke-width="0.403612" stroke-linecap="round" stroke-linejoin="round"/>
<path d="M94.8706 47.7532C94.8706 47.7532 95.9083 47.9884 97.3541 46.7156" stroke="#263238" stroke-width="0.807224" stroke-linecap="round" stroke-linejoin="round"/>
<path d="M90.9519 47.8223L91.0142 49.0744C91.0142 49.0744 91.7059 49.3753 92.4219 48.4898" stroke="#263238" stroke-width="0.403612" stroke-linecap="round" stroke-linejoin="round"/>
<path d="M91.0142 49.0745C91.0142 49.0745 91.5226 49.3512 92.4219 48.49" stroke="#263238" stroke-width="0.807224" stroke-linecap="round" stroke-linejoin="round"/>
<path d="M110.505 65.4384C110.505 65.4384 113.524 70.4745 113.784 70.8723C114.043 71.27 119.681 78.9902 119.681 78.9902C119.681 78.9902 114.839 85.1054 113.085 86.5478C112.02 87.4269 110.837 88.1533 109.571 88.7061C109.571 88.7061 106.043 88.0143 104.981 87.9624C104.054 87.8919 103.126 88.0926 102.311 88.5401C101.508 88.9759 100.384 89.4186 100.806 89.8959C101.228 90.3733 101.782 89.7818 102.19 89.5224C102.551 89.2793 102.965 89.1263 103.397 89.0762C103.743 89.0762 105.195 89.1765 105.195 89.1765C105.195 89.1765 102.612 89.9167 102.377 90.1692C102.141 90.4217 100.945 91.276 101.28 91.5112C101.458 91.6117 101.663 91.654 101.867 91.6323C102.07 91.6106 102.262 91.5259 102.415 91.3902C102.733 91.1342 103.29 90.6984 103.29 90.6984L104.988 90.3145C104.988 90.3145 102.913 91.6081 102.442 92.1926C101.972 92.7772 102.473 93.0885 102.715 92.9985C102.958 92.9086 103.667 92.2341 104.068 91.9782C104.469 91.7222 106.558 90.9163 106.558 90.9163C106.558 90.9163 103.791 93.047 103.701 93.2925C103.611 93.5381 104.13 93.8494 104.524 93.5104C104.919 93.1715 107.637 91.4351 107.637 91.4351C107.637 91.4351 109.616 92.1027 111.376 91.148C112.068 90.7641 113.798 89.9236 113.798 89.9236C113.798 89.9236 121.061 85.524 123.514 83.0059C125.966 80.4879 126.502 79.8099 126.232 79.0836C125.962 78.3572 121.736 68.4199 121.027 67.0572C120.318 65.6944 119.951 64.5114 118.495 62.4396C117.039 60.3677 114.804 56.7221 108.955 57.3274" fill="white"/>
<path d="M110.505 65.4384C110.505 65.4384 113.524 70.4745 113.784 70.8723C114.043 71.27 119.681 78.9902 119.681 78.9902C119.681 78.9902 114.839 85.1054 113.085 86.5478C112.02 87.4269 110.837 88.1533 109.571 88.7061C109.571 88.7061 106.043 88.0143 104.981 87.9624C104.054 87.8919 103.126 88.0926 102.311 88.5401C101.508 88.9759 100.384 89.4186 100.806 89.8959C101.228 90.3733 101.782 89.7818 102.19 89.5224C102.551 89.2793 102.965 89.1263 103.397 89.0762C103.743 89.0762 105.195 89.1765 105.195 89.1765C105.195 89.1765 102.612 89.9167 102.377 90.1692C102.141 90.4217 100.945 91.276 101.28 91.5112C101.458 91.6117 101.663 91.654 101.867 91.6323C102.07 91.6106 102.262 91.5259 102.415 91.3902C102.733 91.1342 103.29 90.6984 103.29 90.6984L104.988 90.3145C104.988 90.3145 102.913 91.6081 102.442 92.1926C101.972 92.7772 102.473 93.0885 102.715 92.9985C102.958 92.9086 103.667 92.2341 104.068 91.9782C104.469 91.7222 106.558 90.9163 106.558 90.9163C106.558 90.9163 103.791 93.047 103.701 93.2925C103.611 93.5381 104.13 93.8494 104.524 93.5104C104.919 93.1715 107.637 91.4351 107.637 91.4351C107.637 91.4351 109.616 92.1027 111.376 91.148C112.068 90.7641 113.798 89.9236 113.798 89.9236C113.798 89.9236 121.061 85.524 123.514 83.0059C125.966 80.4879 126.502 79.8099 126.232 79.0836C125.962 78.3572 121.736 68.4199 121.027 67.0572C120.318 65.6944 119.951 64.5114 118.495 62.4396C117.039 60.3677 114.804 56.7221 108.955 57.3274" stroke="#263238" stroke-width="0.403612" stroke-linecap="round" stroke-linejoin="round"/>
<path d="M89.5095 39.791C89.5095 39.791 90.5679 43.1772 93.3143 43.6753C96.0606 44.1733 99.3119 42.9835 100.062 44.2771C100.813 45.5707 102.197 48.0991 103.632 48.6422C103.632 48.6422 102.439 51.7551 103.224 54.0829C104.009 56.4108 107.125 57.8462 107.506 58.5414C107.886 59.2366 106.254 60.1186 105.908 64.3799C105.562 68.6412 107.087 71.4222 108.903 72.7746C110.719 74.127 113.856 72.6085 113.856 72.6085C113.856 72.6085 111.698 71.6193 113.047 69.5682C114.396 67.5171 120.286 67.32 120.49 62.8269C120.695 58.3339 118.64 56.8708 118.854 56.2724C119.069 55.674 122.344 54.7401 121.5 50.6379C120.656 46.5357 114.583 45.4497 113.953 43.8102C112.265 39.5385 110.785 34.16 106.555 31.6834C103.601 29.954 96.6105 28.6293 93.9541 31.6143C93.9541 31.6143 92.3492 33.0843 92.0345 34.2741" fill="#263238"/>
<path d="M89.5095 39.791C89.5095 39.791 90.5679 43.1772 93.3143 43.6753C96.0606 44.1733 99.3119 42.9835 100.062 44.2771C100.813 45.5707 102.197 48.0991 103.632 48.6422C103.632 48.6422 102.439 51.7551 103.224 54.0829C104.009 56.4108 107.125 57.8462 107.506 58.5414C107.886 59.2366 106.254 60.1186 105.908 64.3799C105.562 68.6412 107.087 71.4222 108.903 72.7746C110.719 74.127 113.856 72.6085 113.856 72.6085C113.856 72.6085 111.698 71.6193 113.047 69.5682C114.396 67.5171 120.286 67.32 120.49 62.8269C120.695 58.3339 118.64 56.8708 118.854 56.2724C119.069 55.674 122.344 54.7401 121.5 50.6379C120.656 46.5357 114.583 45.4497 113.953 43.8102C112.265 39.5385 110.785 34.16 106.555 31.6834C103.601 29.954 96.6105 28.6293 93.9541 31.6143C93.9541 31.6143 92.3492 33.0843 92.0345 34.2741" stroke="#263238" stroke-width="0.403612" stroke-linecap="round" stroke-linejoin="round"/>
</g>
<path d="M17.9453 19.0547C17.8568 20.2786 17.4036 21.2422 16.5859 21.9453C15.7734 22.6484 14.7005 23 13.3672 23C11.9089 23 10.7604 22.5104 9.92188 21.5312C9.08854 20.5469 8.67188 19.1979 8.67188 17.4844V16.7891C8.67188 15.6953 8.86458 14.7318 9.25 13.8984C9.63542 13.0651 10.1849 12.4271 10.8984 11.9844C11.6172 11.5365 12.4505 11.3125 13.3984 11.3125C14.7109 11.3125 15.7682 11.6641 16.5703 12.3672C17.3724 13.0703 17.8359 14.0573 17.9609 15.3281H15.6172C15.5599 14.5938 15.3542 14.0625 15 13.7344C14.651 13.401 14.1172 13.2344 13.3984 13.2344C12.6172 13.2344 12.0312 13.5156 11.6406 14.0781C11.2552 14.6354 11.0573 15.5026 11.0469 16.6797V17.5391C11.0469 18.7682 11.2318 19.6667 11.6016 20.2344C11.9766 20.8021 12.5651 21.0859 13.3672 21.0859C14.0911 21.0859 14.6302 20.9219 14.9844 20.5938C15.3438 20.2604 15.5495 19.7474 15.6016 19.0547H17.9453ZM18.9844 18.5391C18.9844 17.7005 19.1458 16.9531 19.4688 16.2969C19.7917 15.6406 20.2552 15.1328 20.8594 14.7734C21.4688 14.4141 22.1745 14.2344 22.9766 14.2344C24.1172 14.2344 25.0469 14.5833 25.7656 15.2812C26.4896 15.9792 26.8932 16.9271 26.9766 18.125L26.9922 18.7031C26.9922 20 26.6302 21.0417 25.9062 21.8281C25.1823 22.6094 24.2109 23 22.9922 23C21.7734 23 20.7995 22.6094 20.0703 21.8281C19.3464 21.0469 18.9844 19.9844 18.9844 18.6406V18.5391ZM21.2422 18.7031C21.2422 19.5052 21.3932 20.1198 21.6953 20.5469C21.9974 20.9688 22.4297 21.1797 22.9922 21.1797C23.5391 21.1797 23.9661 20.9714 24.2734 20.5547C24.5807 20.1328 24.7344 19.4609 24.7344 18.5391C24.7344 17.7526 24.5807 17.1432 24.2734 16.7109C23.9661 16.2786 23.5339 16.0625 22.9766 16.0625C22.4245 16.0625 21.9974 16.2786 21.6953 16.7109C21.3932 17.138 21.2422 17.8021 21.2422 18.7031ZM30.5 14.3906L30.5703 15.3359C31.1693 14.6016 31.9792 14.2344 33 14.2344C34.0885 14.2344 34.8359 14.6641 35.2422 15.5234C35.8359 14.6641 36.6823 14.2344 37.7812 14.2344C38.6979 14.2344 39.3802 14.5026 39.8281 15.0391C40.276 15.5703 40.5 16.3724 40.5 17.4453V22.8438H38.2344V17.4531C38.2344 16.974 38.1406 16.625 37.9531 16.4062C37.7656 16.1823 37.4349 16.0703 36.9609 16.0703C36.2839 16.0703 35.8151 16.3932 35.5547 17.0391L35.5625 22.8438H33.3047V17.4609C33.3047 16.9714 33.2083 16.6172 33.0156 16.3984C32.8229 16.1797 32.4948 16.0703 32.0312 16.0703C31.3906 16.0703 30.9271 16.3359 30.6406 16.8672V22.8438H28.3828V14.3906H30.5ZM44.3594 14.3906L44.4297 15.3359C45.0286 14.6016 45.8385 14.2344 46.8594 14.2344C47.9479 14.2344 48.6953 14.6641 49.1016 15.5234C49.6953 14.6641 50.5417 14.2344 51.6406 14.2344C52.5573 14.2344 53.2396 14.5026 53.6875 15.0391C54.1354 15.5703 54.3594 16.3724 54.3594 17.4453V22.8438H52.0938V17.4531C52.0938 16.974 52 16.625 51.8125 16.4062C51.625 16.1823 51.2943 16.0703 50.8203 16.0703C50.1432 16.0703 49.6745 16.3932 49.4141 17.0391L49.4219 22.8438H47.1641V17.4609C47.1641 16.9714 47.0677 16.6172 46.875 16.3984C46.6823 16.1797 46.3542 16.0703 45.8906 16.0703C45.25 16.0703 44.7865 16.3359 44.5 16.8672V22.8438H42.2422V14.3906H44.3594ZM55.75 18.5391C55.75 17.7005 55.9115 16.9531 56.2344 16.2969C56.5573 15.6406 57.0208 15.1328 57.625 14.7734C58.2344 14.4141 58.9401 14.2344 59.7422 14.2344C60.8828 14.2344 61.8125 14.5833 62.5312 15.2812C63.2552 15.9792 63.6589 16.9271 63.7422 18.125L63.7578 18.7031C63.7578 20 63.3958 21.0417 62.6719 21.8281C61.9479 22.6094 60.9766 23 59.7578 23C58.5391 23 57.5651 22.6094 56.8359 21.8281C56.112 21.0469 55.75 19.9844 55.75 18.6406V18.5391ZM58.0078 18.7031C58.0078 19.5052 58.1589 20.1198 58.4609 20.5469C58.763 20.9688 59.1953 21.1797 59.7578 21.1797C60.3047 21.1797 60.7318 20.9714 61.0391 20.5547C61.3464 20.1328 61.5 19.4609 61.5 18.5391C61.5 17.7526 61.3464 17.1432 61.0391 16.7109C60.7318 16.2786 60.2995 16.0625 59.7422 16.0625C59.1901 16.0625 58.763 16.2786 58.4609 16.7109C58.1589 17.138 58.0078 17.8021 58.0078 18.7031ZM67.2266 14.3906L67.2969 15.3672C67.901 14.612 68.7109 14.2344 69.7266 14.2344C70.6224 14.2344 71.2891 14.4974 71.7266 15.0234C72.1641 15.5495 72.388 16.3359 72.3984 17.3828V22.8438H70.1406V17.4375C70.1406 16.9583 70.0365 16.612 69.8281 16.3984C69.6198 16.1797 69.2734 16.0703 68.7891 16.0703C68.1536 16.0703 67.6771 16.3411 67.3594 16.8828V22.8438H65.1016V14.3906H67.2266ZM16.4766 37.6953C16.4766 38.9974 16.1797 40.0417 15.5859 40.8281C14.9974 41.6094 14.2005 42 13.1953 42C12.3411 42 11.651 41.7031 11.125 41.1094V45.0938H8.86719V33.3906H10.9609L11.0391 34.2188C11.5859 33.5625 12.2995 33.2344 13.1797 33.2344C14.2214 33.2344 15.0312 33.6198 15.6094 34.3906C16.1875 35.1615 16.4766 36.224 16.4766 37.5781V37.6953ZM14.2188 37.5312C14.2188 36.7448 14.0781 36.138 13.7969 35.7109C13.5208 35.2839 13.1172 35.0703 12.5859 35.0703C11.8776 35.0703 11.3906 35.3411 11.125 35.8828V39.3438C11.401 39.901 11.8932 40.1797 12.6016 40.1797C13.6797 40.1797 14.2188 39.2969 14.2188 37.5312ZM22.6328 35.5078C22.3255 35.4661 22.0547 35.4453 21.8203 35.4453C20.9661 35.4453 20.4062 35.7344 20.1406 36.3125V41.8438H17.8828V33.3906H20.0156L20.0781 34.3984C20.5312 33.6224 21.1589 33.2344 21.9609 33.2344C22.2109 33.2344 22.4453 33.2682 22.6641 33.3359L22.6328 35.5078ZM27.4609 42C26.2214 42 25.2109 41.6198 24.4297 40.8594C23.6536 40.099 23.2656 39.0859 23.2656 37.8203V37.6016C23.2656 36.7526 23.4297 35.9948 23.7578 35.3281C24.0859 34.6562 24.5495 34.1406 25.1484 33.7812C25.7526 33.4167 26.4401 33.2344 27.2109 33.2344C28.3672 33.2344 29.276 33.599 29.9375 34.3281C30.6042 35.0573 30.9375 36.0911 30.9375 37.4297V38.3516H25.5547C25.6276 38.9036 25.8464 39.3464 26.2109 39.6797C26.5807 40.013 27.0469 40.1797 27.6094 40.1797C28.4792 40.1797 29.1589 39.8646 29.6484 39.2344L30.7578 40.4766C30.4193 40.9557 29.9609 41.3307 29.3828 41.6016C28.8047 41.8672 28.1641 42 27.4609 42ZM27.2031 35.0625C26.7552 35.0625 26.3906 35.2135 26.1094 35.5156C25.8333 35.8177 25.6562 36.25 25.5781 36.8125H28.7188V36.6328C28.7083 36.1328 28.5729 35.7474 28.3125 35.4766C28.0521 35.2005 27.6823 35.0625 27.2031 35.0625ZM31.8984 37.5547C31.8984 36.2578 32.2057 35.2135 32.8203 34.4219C33.4401 33.6302 34.2734 33.2344 35.3203 33.2344C36.2474 33.2344 36.9688 33.5521 37.4844 34.1875L37.5781 33.3906H39.625V41.5625C39.625 42.3021 39.4557 42.9453 39.1172 43.4922C38.7839 44.0391 38.3125 44.4557 37.7031 44.7422C37.0938 45.0286 36.3802 45.1719 35.5625 45.1719C34.9427 45.1719 34.3385 45.0469 33.75 44.7969C33.1615 44.5521 32.7161 44.2344 32.4141 43.8438L33.4141 42.4688C33.9766 43.099 34.6589 43.4141 35.4609 43.4141C36.0599 43.4141 36.526 43.2526 36.8594 42.9297C37.1927 42.612 37.3594 42.1589 37.3594 41.5703V41.1172C36.8385 41.7057 36.1536 42 35.3047 42C34.2891 42 33.4661 41.6042 32.8359 40.8125C32.2109 40.0156 31.8984 38.9609 31.8984 37.6484V37.5547ZM34.1562 37.7188C34.1562 38.4844 34.3099 39.0859 34.6172 39.5234C34.9245 39.9557 35.3464 40.1719 35.8828 40.1719C36.5703 40.1719 37.0625 39.9141 37.3594 39.3984V35.8438C37.0573 35.3281 36.5703 35.0703 35.8984 35.0703C35.3568 35.0703 34.9297 35.2917 34.6172 35.7344C34.3099 36.1771 34.1562 36.8385 34.1562 37.7188ZM43.4453 33.3906L43.5156 34.3672C44.1198 33.612 44.9297 33.2344 45.9453 33.2344C46.8411 33.2344 47.5078 33.4974 47.9453 34.0234C48.3828 34.5495 48.6068 35.3359 48.6172 36.3828V41.8438H46.3594V36.4375C46.3594 35.9583 46.2552 35.612 46.0469 35.3984C45.8385 35.1797 45.4922 35.0703 45.0078 35.0703C44.3724 35.0703 43.8958 35.3411 43.5781 35.8828V41.8438H41.3203V33.3906H43.4453ZM55.2344 41.8438C55.1302 41.6406 55.0547 41.388 55.0078 41.0859C54.4609 41.6953 53.75 42 52.875 42C52.0469 42 51.3594 41.7604 50.8125 41.2812C50.2708 40.8021 50 40.1979 50 39.4688C50 38.5729 50.3307 37.8854 50.9922 37.4062C51.6589 36.9271 52.6198 36.6849 53.875 36.6797H54.9141V36.1953C54.9141 35.8047 54.8125 35.4922 54.6094 35.2578C54.4115 35.0234 54.0964 34.9062 53.6641 34.9062C53.2839 34.9062 52.9844 34.9974 52.7656 35.1797C52.5521 35.362 52.4453 35.612 52.4453 35.9297H50.1875C50.1875 35.4401 50.3385 34.987 50.6406 34.5703C50.9427 34.1536 51.3698 33.8281 51.9219 33.5938C52.474 33.3542 53.0938 33.2344 53.7812 33.2344C54.8229 33.2344 55.6484 33.4974 56.2578 34.0234C56.8724 34.5443 57.1797 35.2786 57.1797 36.2266V39.8906C57.1849 40.6927 57.2969 41.2995 57.5156 41.7109V41.8438H55.2344ZM53.3672 40.2734C53.7005 40.2734 54.0078 40.2005 54.2891 40.0547C54.5703 39.9036 54.7786 39.7031 54.9141 39.4531V38H54.0703C52.9401 38 52.3385 38.3906 52.2656 39.1719L52.2578 39.3047C52.2578 39.5859 52.3568 39.8177 52.5547 40C52.7526 40.1823 53.0234 40.2734 53.3672 40.2734ZM60.9922 33.3906L61.0625 34.3672C61.6667 33.612 62.4766 33.2344 63.4922 33.2344C64.388 33.2344 65.0547 33.4974 65.4922 34.0234C65.9297 34.5495 66.1536 35.3359 66.1641 36.3828V41.8438H63.9062V36.4375C63.9062 35.9583 63.8021 35.612 63.5938 35.3984C63.3854 35.1797 63.0391 35.0703 62.5547 35.0703C61.9193 35.0703 61.4427 35.3411 61.125 35.8828V41.8438H58.8672V33.3906H60.9922ZM71.3984 40.1797C71.8151 40.1797 72.1536 40.0651 72.4141 39.8359C72.6745 39.6068 72.8099 39.3021 72.8203 38.9219H74.9375C74.9323 39.4948 74.776 40.0208 74.4688 40.5C74.1615 40.974 73.7396 41.3438 73.2031 41.6094C72.6719 41.8698 72.0833 42 71.4375 42C70.2292 42 69.276 41.6172 68.5781 40.8516C67.8802 40.0807 67.5312 39.0182 67.5312 37.6641V37.5156C67.5312 36.2135 67.8776 35.1745 68.5703 34.3984C69.263 33.6224 70.2135 33.2344 71.4219 33.2344C72.4792 33.2344 73.3255 33.5365 73.9609 34.1406C74.6016 34.7396 74.9271 35.5391 74.9375 36.5391H72.8203C72.8099 36.1016 72.6745 35.7474 72.4141 35.4766C72.1536 35.2005 71.8099 35.0625 71.3828 35.0625C70.8568 35.0625 70.4583 35.2552 70.1875 35.6406C69.9219 36.0208 69.7891 36.6406 69.7891 37.5V37.7344C69.7891 38.6042 69.9219 39.2292 70.1875 39.6094C70.4531 39.9896 70.8568 40.1797 71.3984 40.1797ZM79.3828 38.6484L80.9453 33.3906H83.3672L79.9688 43.1562L79.7812 43.6016C79.276 44.7057 78.4427 45.2578 77.2812 45.2578C76.9531 45.2578 76.6198 45.2083 76.2812 45.1094V43.3984L76.625 43.4062C77.0521 43.4062 77.3698 43.3411 77.5781 43.2109C77.7917 43.0807 77.9583 42.8646 78.0781 42.5625L78.3438 41.8672L75.3828 33.3906H77.8125L79.3828 38.6484ZM13.4453 58.5078C13.4453 58.2318 13.3073 58.0156 13.0312 57.8594C12.7604 57.6979 12.3229 57.5547 11.7188 57.4297C9.70833 57.0078 8.70312 56.1536 8.70312 54.8672C8.70312 54.1172 9.01302 53.4922 9.63281 52.9922C10.2578 52.487 11.0729 52.2344 12.0781 52.2344C13.151 52.2344 14.0078 52.487 14.6484 52.9922C15.2943 53.4974 15.6172 54.1536 15.6172 54.9609H13.3594C13.3594 54.638 13.2552 54.3724 13.0469 54.1641C12.8385 53.9505 12.513 53.8438 12.0703 53.8438C11.6901 53.8438 11.3958 53.9297 11.1875 54.1016C10.9792 54.2734 10.875 54.4922 10.875 54.7578C10.875 55.0078 10.9922 55.2109 11.2266 55.3672C11.4661 55.5182 11.8672 55.651 12.4297 55.7656C12.9922 55.875 13.4661 56 13.8516 56.1406C15.0443 56.5781 15.6406 57.3359 15.6406 58.4141C15.6406 59.1849 15.3099 59.8099 14.6484 60.2891C13.987 60.763 13.1328 61 12.0859 61C11.3776 61 10.7474 60.875 10.1953 60.625C9.64844 60.3698 9.21875 60.0234 8.90625 59.5859C8.59375 59.1432 8.4375 58.6667 8.4375 58.1562H10.5781C10.599 58.5573 10.7474 58.8646 11.0234 59.0781C11.2995 59.2917 11.6693 59.3984 12.1328 59.3984C12.5651 59.3984 12.8906 59.3177 13.1094 59.1562C13.3333 58.9896 13.4453 58.7734 13.4453 58.5078ZM20.2578 57.6484L21.8203 52.3906H24.2422L20.8438 62.1562L20.6562 62.6016C20.151 63.7057 19.3177 64.2578 18.1562 64.2578C17.8281 64.2578 17.4948 64.2083 17.1562 64.1094V62.3984L17.5 62.4062C17.9271 62.4062 18.2448 62.3411 18.4531 62.2109C18.6667 62.0807 18.8333 61.8646 18.9531 61.5625L19.2188 60.8672L16.2578 52.3906H18.6875L20.2578 57.6484ZM27.25 52.3906L27.3203 53.3359C27.9193 52.6016 28.7292 52.2344 29.75 52.2344C30.8385 52.2344 31.5859 52.6641 31.9922 53.5234C32.5859 52.6641 33.4323 52.2344 34.5312 52.2344C35.4479 52.2344 36.1302 52.5026 36.5781 53.0391C37.026 53.5703 37.25 54.3724 37.25 55.4453V60.8438H34.9844V55.4531C34.9844 54.974 34.8906 54.625 34.7031 54.4062C34.5156 54.1823 34.1849 54.0703 33.7109 54.0703C33.0339 54.0703 32.5651 54.3932 32.3047 55.0391L32.3125 60.8438H30.0547V55.4609C30.0547 54.9714 29.9583 54.6172 29.7656 54.3984C29.5729 54.1797 29.2448 54.0703 28.7812 54.0703C28.1406 54.0703 27.6771 54.3359 27.3906 54.8672V60.8438H25.1328V52.3906H27.25ZM46.6016 56.6953C46.6016 57.9974 46.3047 59.0417 45.7109 59.8281C45.1224 60.6094 44.3255 61 43.3203 61C42.4661 61 41.776 60.7031 41.25 60.1094V64.0938H38.9922V52.3906H41.0859L41.1641 53.2188C41.7109 52.5625 42.4245 52.2344 43.3047 52.2344C44.3464 52.2344 45.1562 52.6198 45.7344 53.3906C46.3125 54.1615 46.6016 55.224 46.6016 56.5781V56.6953ZM44.3438 56.5312C44.3438 55.7448 44.2031 55.138 43.9219 54.7109C43.6458 54.2839 43.2422 54.0703 42.7109 54.0703C42.0026 54.0703 41.5156 54.3411 41.25 54.8828V58.3438C41.526 58.901 42.0182 59.1797 42.7266 59.1797C43.8047 59.1797 44.3438 58.2969 44.3438 56.5312ZM50.7109 50.3125V52.3906H52.1562V54.0469H50.7109V58.2656C50.7109 58.5781 50.7708 58.8021 50.8906 58.9375C51.0104 59.0729 51.2396 59.1406 51.5781 59.1406C51.8281 59.1406 52.0495 59.1224 52.2422 59.0859V60.7969C51.7995 60.9323 51.3438 61 50.875 61C49.2917 61 48.4844 60.2005 48.4531 58.6016V54.0469H47.2188V52.3906H48.4531V50.3125H50.7109ZM52.8281 56.5391C52.8281 55.7005 52.9896 54.9531 53.3125 54.2969C53.6354 53.6406 54.099 53.1328 54.7031 52.7734C55.3125 52.4141 56.0182 52.2344 56.8203 52.2344C57.9609 52.2344 58.8906 52.5833 59.6094 53.2812C60.3333 53.9792 60.737 54.9271 60.8203 56.125L60.8359 56.7031C60.8359 58 60.474 59.0417 59.75 59.8281C59.026 60.6094 58.0547 61 56.8359 61C55.6172 61 54.6432 60.6094 53.9141 59.8281C53.1901 59.0469 52.8281 57.9844 52.8281 56.6406V56.5391ZM55.0859 56.7031C55.0859 57.5052 55.237 58.1198 55.5391 58.5469C55.8411 58.9688 56.2734 59.1797 56.8359 59.1797C57.3828 59.1797 57.8099 58.9714 58.1172 58.5547C58.4245 58.1328 58.5781 57.4609 58.5781 56.5391C58.5781 55.7526 58.4245 55.1432 58.1172 54.7109C57.8099 54.2786 57.3776 54.0625 56.8203 54.0625C56.2682 54.0625 55.8411 54.2786 55.5391 54.7109C55.237 55.138 55.0859 55.8021 55.0859 56.7031ZM64.3438 52.3906L64.4141 53.3359C65.013 52.6016 65.8229 52.2344 66.8438 52.2344C67.9323 52.2344 68.6797 52.6641 69.0859 53.5234C69.6797 52.6641 70.526 52.2344 71.625 52.2344C72.5417 52.2344 73.224 52.5026 73.6719 53.0391C74.1198 53.5703 74.3438 54.3724 74.3438 55.4453V60.8438H72.0781V55.4531C72.0781 54.974 71.9844 54.625 71.7969 54.4062C71.6094 54.1823 71.2786 54.0703 70.8047 54.0703C70.1276 54.0703 69.6589 54.3932 69.3984 55.0391L69.4062 60.8438H67.1484V55.4609C67.1484 54.9714 67.0521 54.6172 66.8594 54.3984C66.6667 54.1797 66.3385 54.0703 65.875 54.0703C65.2344 54.0703 64.7708 54.3359 64.4844 54.8672V60.8438H62.2266V52.3906H64.3438ZM80.6641 58.5078C80.6641 58.2318 80.526 58.0156 80.25 57.8594C79.9792 57.6979 79.5417 57.5547 78.9375 57.4297C76.9271 57.0078 75.9219 56.1536 75.9219 54.8672C75.9219 54.1172 76.2318 53.4922 76.8516 52.9922C77.4766 52.487 78.2917 52.2344 79.2969 52.2344C80.3698 52.2344 81.2266 52.487 81.8672 52.9922C82.513 53.4974 82.8359 54.1536 82.8359 54.9609H80.5781C80.5781 54.638 80.474 54.3724 80.2656 54.1641C80.0573 53.9505 79.7318 53.8438 79.2891 53.8438C78.9089 53.8438 78.6146 53.9297 78.4062 54.1016C78.1979 54.2734 78.0938 54.4922 78.0938 54.7578C78.0938 55.0078 78.2109 55.2109 78.4453 55.3672C78.6849 55.5182 79.0859 55.651 79.6484 55.7656C80.2109 55.875 80.6849 56 81.0703 56.1406C82.263 56.5781 82.8594 57.3359 82.8594 58.4141C82.8594 59.1849 82.5286 59.8099 81.8672 60.2891C81.2057 60.763 80.3516 61 79.3047 61C78.5964 61 77.9661 60.875 77.4141 60.625C76.8672 60.3698 76.4375 60.0234 76.125 59.5859C75.8125 59.1432 75.6562 58.6667 75.6562 58.1562H77.7969C77.8177 58.5573 77.9661 58.8646 78.2422 59.0781C78.5182 59.2917 78.888 59.3984 79.3516 59.3984C79.7839 59.3984 80.1094 59.3177 80.3281 59.1562C80.5521 58.9896 80.6641 58.7734 80.6641 58.5078Z" fill="#F9F8FC"/>
<defs>
<linearGradient id="paint0_linear_1607_42475" x1="0" y1="57.3438" x2="117" y2="57.3438" gradientUnits="userSpaceOnUse">
<stop stop-color="#A1C4FD"/>
<stop offset="1" stop-color="#C2E9FB"/>
</linearGradient>
</defs>
</svg>
