<svg width="190" height="29" viewBox="0 0 190 29" fill="none" xmlns="http://www.w3.org/2000/svg">
<rect width="190" height="29" rx="4" fill="#E7E6E9"/>
<rect x="2" y="2" width="71" height="25" rx="4" fill="white"/>
<path d="M18.291 10.127H15.0918V19H13.7861V10.127H10.5938V9.04688H18.291V10.127ZM22.625 12.7383C22.4336 12.7064 22.2262 12.6904 22.0029 12.6904C21.1735 12.6904 20.6107 13.0436 20.3145 13.75V19H19.0498V11.6035H20.2803L20.3008 12.458C20.7155 11.7972 21.3034 11.4668 22.0645 11.4668C22.3105 11.4668 22.4974 11.4987 22.625 11.5625V12.7383ZM26.7266 19.1367C25.724 19.1367 24.9082 18.8086 24.2793 18.1523C23.6504 17.4915 23.3359 16.6097 23.3359 15.5068V15.2744C23.3359 14.5407 23.4749 13.8867 23.7529 13.3125C24.0355 12.7337 24.4274 12.2826 24.9287 11.959C25.4346 11.6309 25.9814 11.4668 26.5693 11.4668C27.5309 11.4668 28.2783 11.7835 28.8115 12.417C29.3447 13.0505 29.6113 13.9574 29.6113 15.1377V15.6641H24.6006C24.6188 16.3932 24.8307 16.9834 25.2363 17.4346C25.6465 17.8812 26.166 18.1045 26.7949 18.1045C27.2415 18.1045 27.6198 18.0133 27.9297 17.8311C28.2396 17.6488 28.5107 17.4072 28.7432 17.1064L29.5156 17.708C28.8958 18.6605 27.9661 19.1367 26.7266 19.1367ZM26.5693 12.5059C26.0589 12.5059 25.6305 12.6927 25.2842 13.0664C24.9378 13.4355 24.7236 13.9551 24.6416 14.625H28.3467V14.5293C28.3102 13.8867 28.137 13.39 27.8271 13.0391C27.5173 12.6836 27.098 12.5059 26.5693 12.5059ZM32.2773 11.6035L32.3184 12.5332C32.8835 11.8223 33.6217 11.4668 34.5332 11.4668C36.0964 11.4668 36.8848 12.3486 36.8984 14.1123V19H35.6338V14.1055C35.6292 13.5723 35.5062 13.1781 35.2646 12.9229C35.0277 12.6676 34.6562 12.54 34.1504 12.54C33.7402 12.54 33.3802 12.6494 33.0703 12.8682C32.7604 13.0869 32.5189 13.374 32.3457 13.7295V19H31.0811V11.6035H32.2773ZM38.498 15.2402C38.498 14.1055 38.7669 13.194 39.3047 12.5059C39.8424 11.8132 40.5465 11.4668 41.417 11.4668C42.2829 11.4668 42.9688 11.763 43.4746 12.3555V8.5H44.7393V19H43.5771L43.5156 18.207C43.0098 18.8268 42.3057 19.1367 41.4033 19.1367C40.5465 19.1367 39.847 18.7858 39.3047 18.084C38.7669 17.3822 38.498 16.4661 38.498 15.3359V15.2402ZM39.7627 15.3838C39.7627 16.2223 39.9359 16.8786 40.2822 17.3525C40.6286 17.8265 41.1071 18.0635 41.7178 18.0635C42.5199 18.0635 43.1055 17.7035 43.4746 16.9834V13.5859C43.0964 12.8887 42.5153 12.54 41.7314 12.54C41.1117 12.54 40.6286 12.7793 40.2822 13.2578C39.9359 13.7363 39.7627 14.445 39.7627 15.3838ZM48.082 19H46.8174V11.6035H48.082V19ZM46.7148 9.6416C46.7148 9.43652 46.7764 9.26335 46.8994 9.12207C47.027 8.98079 47.2139 8.91016 47.46 8.91016C47.7061 8.91016 47.8929 8.98079 48.0205 9.12207C48.1481 9.26335 48.2119 9.43652 48.2119 9.6416C48.2119 9.84668 48.1481 10.0176 48.0205 10.1543C47.8929 10.291 47.7061 10.3594 47.46 10.3594C47.2139 10.3594 47.027 10.291 46.8994 10.1543C46.7764 10.0176 46.7148 9.84668 46.7148 9.6416ZM51.3086 11.6035L51.3496 12.5332C51.9147 11.8223 52.653 11.4668 53.5645 11.4668C55.1276 11.4668 55.916 12.3486 55.9297 14.1123V19H54.665V14.1055C54.6605 13.5723 54.5374 13.1781 54.2959 12.9229C54.0589 12.6676 53.6875 12.54 53.1816 12.54C52.7715 12.54 52.4115 12.6494 52.1016 12.8682C51.7917 13.0869 51.5501 13.374 51.377 13.7295V19H50.1123V11.6035H51.3086ZM57.5361 15.2402C57.5361 14.0872 57.8027 13.1712 58.3359 12.4922C58.8691 11.8086 59.5755 11.4668 60.4551 11.4668C61.3574 11.4668 62.0615 11.7858 62.5674 12.4238L62.6289 11.6035H63.7842V18.8223C63.7842 19.7793 63.4993 20.5335 62.9297 21.085C62.3646 21.6364 61.6035 21.9121 60.6465 21.9121C60.1133 21.9121 59.5915 21.7982 59.0811 21.5703C58.5706 21.3424 58.181 21.0303 57.9121 20.6338L58.5684 19.875C59.1107 20.5449 59.7738 20.8799 60.5576 20.8799C61.1729 20.8799 61.6514 20.7067 61.9932 20.3604C62.3395 20.014 62.5127 19.5264 62.5127 18.8975V18.2617C62.0068 18.8451 61.3164 19.1367 60.4414 19.1367C59.5755 19.1367 58.8737 18.7881 58.3359 18.0908C57.8027 17.3936 57.5361 16.4434 57.5361 15.2402ZM58.8076 15.3838C58.8076 16.2178 58.9785 16.874 59.3203 17.3525C59.6621 17.8265 60.1406 18.0635 60.7559 18.0635C61.5534 18.0635 62.139 17.7012 62.5127 16.9766V13.5996C62.1253 12.8932 61.5443 12.54 60.7695 12.54C60.1543 12.54 59.6735 12.7793 59.3271 13.2578C58.9808 13.7363 58.8076 14.445 58.8076 15.3838Z" fill="#692CFF"/>
<path d="M85.1729 14.5635C84.0472 14.2399 83.2269 13.8434 82.7119 13.374C82.2015 12.9001 81.9463 12.3167 81.9463 11.624C81.9463 10.8402 82.2585 10.193 82.8828 9.68262C83.5117 9.16764 84.3275 8.91016 85.3301 8.91016C86.0137 8.91016 86.6221 9.04232 87.1553 9.30664C87.693 9.57096 88.1077 9.93555 88.3994 10.4004C88.6956 10.8652 88.8438 11.3734 88.8438 11.9248H87.5244C87.5244 11.3232 87.333 10.8516 86.9502 10.5098C86.5674 10.1634 86.0273 9.99023 85.3301 9.99023C84.6829 9.99023 84.1771 10.1338 83.8125 10.4209C83.4525 10.7035 83.2725 11.0977 83.2725 11.6035C83.2725 12.0091 83.4434 12.3532 83.7852 12.6357C84.1315 12.9137 84.7171 13.1689 85.542 13.4014C86.3714 13.6338 87.0186 13.8913 87.4834 14.1738C87.9528 14.4518 88.2992 14.7777 88.5225 15.1514C88.7503 15.5251 88.8643 15.9648 88.8643 16.4707C88.8643 17.2773 88.5498 17.9245 87.9209 18.4121C87.292 18.8952 86.4512 19.1367 85.3984 19.1367C84.7148 19.1367 84.0768 19.0068 83.4844 18.7471C82.8919 18.4827 82.4339 18.1227 82.1104 17.667C81.7913 17.2113 81.6318 16.694 81.6318 16.1152H82.9512C82.9512 16.7168 83.1722 17.193 83.6143 17.5439C84.0609 17.8903 84.6556 18.0635 85.3984 18.0635C86.0911 18.0635 86.6221 17.9222 86.9912 17.6396C87.3604 17.3571 87.5449 16.972 87.5449 16.4844C87.5449 15.9967 87.374 15.6208 87.0322 15.3564C86.6904 15.0876 86.0706 14.8232 85.1729 14.5635ZM94.9209 19C94.848 18.8542 94.7887 18.5944 94.7432 18.2207C94.1553 18.8314 93.4535 19.1367 92.6377 19.1367C91.9085 19.1367 91.3092 18.9316 90.8398 18.5215C90.375 18.1068 90.1426 17.5827 90.1426 16.9492C90.1426 16.179 90.4342 15.582 91.0176 15.1582C91.6055 14.7298 92.4303 14.5156 93.4922 14.5156H94.7227V13.9346C94.7227 13.4925 94.5905 13.1416 94.3262 12.8818C94.0618 12.6175 93.6722 12.4854 93.1572 12.4854C92.7061 12.4854 92.3278 12.5993 92.0225 12.8271C91.7171 13.055 91.5645 13.3307 91.5645 13.6543H90.293C90.293 13.2852 90.4229 12.9297 90.6826 12.5879C90.9469 12.2415 91.3024 11.9681 91.749 11.7676C92.2002 11.5671 92.6947 11.4668 93.2324 11.4668C94.0846 11.4668 94.7523 11.681 95.2354 12.1094C95.7184 12.5332 95.9691 13.1188 95.9873 13.8662V17.2705C95.9873 17.9495 96.0739 18.4896 96.2471 18.8906V19H94.9209ZM92.8223 18.0361C93.2188 18.0361 93.5947 17.9336 93.9502 17.7285C94.3057 17.5234 94.5632 17.2568 94.7227 16.9287V15.4111H93.7314C92.182 15.4111 91.4072 15.8646 91.4072 16.7715C91.4072 17.168 91.5394 17.4779 91.8037 17.7012C92.068 17.9245 92.4076 18.0361 92.8223 18.0361ZM100.301 17.2842L102.133 11.6035H103.425L100.772 19H99.8086L97.1289 11.6035H98.4209L100.301 17.2842ZM107.615 19.1367C106.613 19.1367 105.797 18.8086 105.168 18.1523C104.539 17.4915 104.225 16.6097 104.225 15.5068V15.2744C104.225 14.5407 104.364 13.8867 104.642 13.3125C104.924 12.7337 105.316 12.2826 105.817 11.959C106.323 11.6309 106.87 11.4668 107.458 11.4668C108.42 11.4668 109.167 11.7835 109.7 12.417C110.233 13.0505 110.5 13.9574 110.5 15.1377V15.6641H105.489C105.507 16.3932 105.719 16.9834 106.125 17.4346C106.535 17.8812 107.055 18.1045 107.684 18.1045C108.13 18.1045 108.508 18.0133 108.818 17.8311C109.128 17.6488 109.399 17.4072 109.632 17.1064L110.404 17.708C109.785 18.6605 108.855 19.1367 107.615 19.1367ZM107.458 12.5059C106.948 12.5059 106.519 12.6927 106.173 13.0664C105.826 13.4355 105.612 13.9551 105.53 14.625H109.235V14.5293C109.199 13.8867 109.026 13.39 108.716 13.0391C108.406 12.6836 107.987 12.5059 107.458 12.5059ZM111.662 15.2402C111.662 14.1055 111.931 13.194 112.469 12.5059C113.007 11.8132 113.711 11.4668 114.581 11.4668C115.447 11.4668 116.133 11.763 116.639 12.3555V8.5H117.903V19H116.741L116.68 18.207C116.174 18.8268 115.47 19.1367 114.567 19.1367C113.711 19.1367 113.011 18.7858 112.469 18.084C111.931 17.3822 111.662 16.4661 111.662 15.3359V15.2402ZM112.927 15.3838C112.927 16.2223 113.1 16.8786 113.446 17.3525C113.793 17.8265 114.271 18.0635 114.882 18.0635C115.684 18.0635 116.27 17.7035 116.639 16.9834V13.5859C116.26 12.8887 115.679 12.54 114.896 12.54C114.276 12.54 113.793 12.7793 113.446 13.2578C113.1 13.7363 112.927 14.445 112.927 15.3838Z" fill="#7C7195"/>
<path d="M143.534 17.6943C143.197 18.1774 142.725 18.5397 142.119 18.7812C141.518 19.0182 140.816 19.1367 140.014 19.1367C139.202 19.1367 138.482 18.9476 137.854 18.5693C137.225 18.1865 136.737 17.6442 136.391 16.9424C136.049 16.2406 135.873 15.4271 135.864 14.502V13.6338C135.864 12.1344 136.213 10.9723 136.91 10.1475C137.612 9.32259 138.596 8.91016 139.863 8.91016C140.902 8.91016 141.739 9.17676 142.372 9.70996C143.006 10.2386 143.393 10.9906 143.534 11.9658H142.222C141.976 10.6488 141.192 9.99023 139.87 9.99023C138.991 9.99023 138.323 10.3001 137.867 10.9199C137.416 11.5352 137.188 12.4284 137.184 13.5996V14.4131C137.184 15.5296 137.439 16.4183 137.949 17.0791C138.46 17.7354 139.15 18.0635 140.021 18.0635C140.513 18.0635 140.943 18.0088 141.312 17.8994C141.682 17.79 141.987 17.6055 142.229 17.3457V15.1104H139.925V14.0439H143.534V17.6943ZM149.105 12.7383C148.914 12.7064 148.707 12.6904 148.483 12.6904C147.654 12.6904 147.091 13.0436 146.795 13.75V19H145.53V11.6035H146.761L146.781 12.458C147.196 11.7972 147.784 11.4668 148.545 11.4668C148.791 11.4668 148.978 11.4987 149.105 11.5625V12.7383ZM149.803 15.2334C149.803 14.5088 149.944 13.8571 150.227 13.2783C150.514 12.6995 150.91 12.2529 151.416 11.9385C151.926 11.624 152.507 11.4668 153.159 11.4668C154.166 11.4668 154.98 11.8154 155.6 12.5127C156.224 13.21 156.536 14.1374 156.536 15.2949V15.3838C156.536 16.1038 156.397 16.751 156.119 17.3252C155.846 17.8949 155.451 18.3392 154.937 18.6582C154.426 18.9772 153.838 19.1367 153.173 19.1367C152.17 19.1367 151.357 18.7881 150.732 18.0908C150.113 17.3936 149.803 16.4707 149.803 15.3223V15.2334ZM151.074 15.3838C151.074 16.2041 151.263 16.8626 151.642 17.3594C152.024 17.8561 152.535 18.1045 153.173 18.1045C153.815 18.1045 154.326 17.8538 154.704 17.3525C155.082 16.8467 155.271 16.1403 155.271 15.2334C155.271 14.4222 155.078 13.766 154.69 13.2646C154.308 12.7588 153.797 12.5059 153.159 12.5059C152.535 12.5059 152.031 12.7542 151.648 13.251C151.266 13.7477 151.074 14.4587 151.074 15.3838ZM162.688 18.2686C162.196 18.8473 161.474 19.1367 160.521 19.1367C159.733 19.1367 159.132 18.9089 158.717 18.4531C158.307 17.9928 158.099 17.3138 158.095 16.416V11.6035H159.359V16.3818C159.359 17.5029 159.815 18.0635 160.727 18.0635C161.693 18.0635 162.335 17.7035 162.654 16.9834V11.6035H163.919V19H162.716L162.688 18.2686ZM172.095 15.3838C172.095 16.5094 171.837 17.4163 171.322 18.1045C170.807 18.7926 170.11 19.1367 169.23 19.1367C168.333 19.1367 167.626 18.8519 167.111 18.2822V21.8438H165.847V11.6035H167.002L167.063 12.4238C167.578 11.7858 168.294 11.4668 169.21 11.4668C170.099 11.4668 170.8 11.8018 171.315 12.4717C171.835 13.1416 172.095 14.0736 172.095 15.2676V15.3838ZM170.83 15.2402C170.83 14.4062 170.652 13.7477 170.297 13.2646C169.941 12.7816 169.454 12.54 168.834 12.54C168.068 12.54 167.494 12.8796 167.111 13.5586V17.0928C167.49 17.7673 168.068 18.1045 168.848 18.1045C169.454 18.1045 169.935 17.8652 170.29 17.3867C170.65 16.9036 170.83 16.1882 170.83 15.2402ZM178.015 17.0381C178.015 16.6963 177.885 16.432 177.625 16.2451C177.37 16.0537 176.921 15.8896 176.278 15.7529C175.64 15.6162 175.132 15.4521 174.754 15.2607C174.38 15.0693 174.102 14.8415 173.92 14.5771C173.742 14.3128 173.653 13.9984 173.653 13.6338C173.653 13.0277 173.909 12.515 174.419 12.0957C174.934 11.6764 175.59 11.4668 176.388 11.4668C177.226 11.4668 177.905 11.6833 178.425 12.1162C178.949 12.5492 179.211 13.1029 179.211 13.7773H177.939C177.939 13.431 177.791 13.1325 177.495 12.8818C177.203 12.6312 176.834 12.5059 176.388 12.5059C175.927 12.5059 175.567 12.6061 175.308 12.8066C175.048 13.0072 174.918 13.2692 174.918 13.5928C174.918 13.8981 175.039 14.1283 175.28 14.2832C175.522 14.4382 175.957 14.5863 176.586 14.7275C177.219 14.8688 177.732 15.0374 178.124 15.2334C178.516 15.4294 178.805 15.6663 178.992 15.9443C179.184 16.2178 179.279 16.5527 179.279 16.9492C179.279 17.61 179.015 18.141 178.486 18.542C177.958 18.9385 177.272 19.1367 176.429 19.1367C175.836 19.1367 175.312 19.0319 174.856 18.8223C174.401 18.6126 174.043 18.321 173.783 17.9473C173.528 17.569 173.4 17.1611 173.4 16.7236H174.665C174.688 17.1475 174.856 17.4847 175.171 17.7354C175.49 17.9814 175.909 18.1045 176.429 18.1045C176.907 18.1045 177.29 18.0088 177.577 17.8174C177.869 17.6214 178.015 17.3617 178.015 17.0381Z" fill="#7C7195"/>
</svg>
