<svg width="295" height="130" viewBox="0 0 295 130" fill="none" xmlns="http://www.w3.org/2000/svg">
<rect y="0.629883" width="139.527" height="128.436" rx="3.64479" fill="url(#paint0_linear_1607_40260)"/>
<mask id="mask0_1607_40260" style="mask-type:alpha" maskUnits="userSpaceOnUse" x="0" y="0" width="140" height="130">
<rect y="0.629822" width="139.527" height="128.436" rx="3.64479" fill="url(#paint1_linear_1607_40260)"/>
</mask>
<g mask="url(#mask0_1607_40260)">
<g style="mix-blend-mode:overlay" opacity="0.5">
<path d="M-55 74.328C-55 104.972 -33.5098 117.066 -6.99089 117.066C19.5281 117.066 41.0055 104.972 41.0055 74.328C41.0055 43.6842 19.5153 29.9855 -6.99089 29.9855C-33.4971 29.9855 -55 43.6842 -55 74.328Z" fill="#BC78EC"/>
<path opacity="0.4" d="M-55 74.328C-55 104.972 -33.5098 117.066 -6.99089 117.066C19.5281 117.066 41.0055 104.972 41.0055 74.328C41.0055 43.6842 19.5153 29.9855 -6.99089 29.9855C-33.4971 29.9855 -55 43.6842 -55 74.328Z" fill="white"/>
<path d="M8.33744 74.328C8.33744 46.3959 2.29016 32.5444 -13.8911 30.3165C-11.6377 30.1 -9.33337 29.9855 -6.99084 29.9855C19.5154 29.9855 41.0055 43.6842 41.0055 74.328C41.0055 104.972 19.5154 117.066 -6.99084 117.066C-9.33337 117.066 -11.6377 116.977 -13.8911 116.774C2.29016 114.788 8.33744 102.26 8.33744 74.328Z" fill="#BC78EC"/>
<path opacity="0.3" d="M8.33744 74.328C8.33744 46.3959 2.29016 32.5444 -13.8911 30.3165C-11.6377 30.1 -9.33337 29.9855 -6.99084 29.9855C19.5154 29.9855 41.0055 43.6842 41.0055 74.328C41.0055 104.972 19.5154 117.066 -6.99084 117.066C-9.33337 117.066 -11.6377 116.977 -13.8911 116.774C2.29016 114.788 8.33744 102.26 8.33744 74.328Z" fill="white"/>
<path d="M-54.9491 72.4693C-54.0961 99.5993 -30.5562 108.855 -16.4883 108.855C-14.6932 108.855 -11.2813 108.384 -8.84964 108.384C-6.418 108.384 -1.73294 108.855 0.0621529 108.855C14.3974 108.855 37.3007 99.2683 37.3007 70.9543C37.3007 42.9458 17.1473 30.3165 -7.90754 30.0109H-6.99089C19.5153 30.0109 41.0055 43.7096 41.0055 74.3534C41.0055 104.997 19.5153 117.092 -6.99089 117.092C-33.4971 117.092 -55 104.997 -55 74.3534C-55 73.7042 -54.9745 73.0931 -54.9491 72.4693Z" fill="#BC78EC"/>
<path opacity="0.2" d="M-54.9491 72.4693C-54.0961 99.5993 -30.5562 108.855 -16.4883 108.855C-14.6932 108.855 -11.2813 108.384 -8.84964 108.384C-6.418 108.384 -1.73294 108.855 0.0621529 108.855C14.3974 108.855 37.3007 99.2683 37.3007 70.9543C37.3007 42.9458 17.1473 30.3165 -7.90754 30.0109H-6.99089C19.5153 30.0109 41.0055 43.7096 41.0055 74.3534C41.0055 104.997 19.5153 117.092 -6.99089 117.092C-33.4971 117.092 -55 104.997 -55 74.3534C-55 73.7042 -54.9745 73.0931 -54.9491 72.4693Z" fill="white"/>
<path d="M-4.11372 32.2389L3.01571 28.4196C3.01571 28.4196 12.7423 10.7997 37.2879 23.9255C37.2879 23.9255 35.391 36.1983 19.1461 34.4796C2.90113 32.7609 3.18122 28.5851 -4.82666 34.6451V33.372C-4.81302 33.1383 -4.74051 32.9119 -4.61586 32.7138C-4.4912 32.5157 -4.31847 32.3524 -4.11372 32.2389Z" fill="#BC78EC"/>
<path opacity="0.2" d="M15.4924 25.8606C6.58059 30.151 3.01587 28.4705 3.01587 28.4705C3.01587 28.4705 12.7425 10.8506 37.2881 23.9764C37.2881 23.9764 24.4042 21.5575 15.4924 25.8606Z" fill="white"/>
<path d="M-3.55353 32.1498L2.39191 33.8431C1.19354 34.6927 -0.0857754 35.4219 -1.42743 36.0201C-3.81174 36.479 -6.26168 36.479 -8.64598 36.0201C-9.83531 35.4872 -10.9696 34.8391 -12.0325 34.085L-8.21313 32.1498C-8.21313 32.1498 -5.84514 28.6233 -5.88333 27.2611C-5.92152 25.8988 -7.32195 23.6454 -8.42956 21.914C-8.5862 21.674 -8.68355 21.4002 -8.71357 21.1152C-8.74359 20.8302 -8.70541 20.5421 -8.6022 20.2748C-8.49899 20.0074 -8.3337 19.7684 -8.11995 19.5775C-7.90621 19.3866 -7.65014 19.2493 -7.37287 19.1768C-6.94884 19.0632 -6.49798 19.1078 -6.10442 19.3023C-5.71086 19.4967 -5.40149 19.8277 -5.23404 20.2335C-4.21724 22.5402 -3.42841 24.9409 -2.87878 27.4011C-2.95782 29.0013 -3.18368 30.5909 -3.55353 32.1498Z" fill="#263238"/>
<path opacity="0.4" d="M-3.55353 32.1498L2.39191 33.8431C1.19354 34.6927 -0.0857754 35.4219 -1.42743 36.0201C-3.81174 36.479 -6.26168 36.479 -8.64598 36.0201C-9.83531 35.4872 -10.9696 34.8391 -12.0325 34.085L-8.21313 32.1498C-8.21313 32.1498 -5.84514 28.6233 -5.88333 27.2611C-5.92152 25.8988 -7.32195 23.6454 -8.42956 21.914C-8.5862 21.674 -8.68355 21.4002 -8.71357 21.1152C-8.74359 20.8302 -8.70541 20.5421 -8.6022 20.2748C-8.49899 20.0074 -8.3337 19.7684 -8.11995 19.5775C-7.90621 19.3866 -7.65014 19.2493 -7.37287 19.1768C-6.94884 19.0632 -6.49798 19.1078 -6.10442 19.3023C-5.71086 19.4967 -5.40149 19.8277 -5.23404 20.2335C-4.21724 22.5402 -3.42841 24.9409 -2.87878 27.4011C-2.95782 29.0013 -3.18368 30.5909 -3.55353 32.1498Z" fill="white"/>
<path d="M-12.6435 78.593C-12.7327 79.726 -12.7708 80.8846 -12.7581 82.0431C-12.478 104.552 4.97635 122.579 26.2246 122.312C47.4729 122.044 64.418 103.597 64.1889 81.0882C64.1889 79.9297 64.1125 78.7712 63.9979 77.6381L-12.6435 78.593Z" fill="#BC78EC"/>
<path opacity="0.3" d="M-12.6435 78.593C-12.7327 79.726 -12.7708 80.8846 -12.7581 82.0431C-12.478 104.552 4.97635 122.579 26.2246 122.312C47.4729 122.044 64.418 103.597 64.1889 81.0882C64.1889 79.9297 64.1125 78.7712 63.9979 77.6381L-12.6435 78.593Z" fill="white"/>
<path d="M-12.7581 78.593C-12.7581 78.9876 -12.7581 79.3823 -12.7581 79.7769C-12.6314 89.9807 -8.45655 99.7163 -1.15184 106.842C2.46508 110.37 6.74152 113.152 11.4333 115.027C16.1251 116.903 21.1404 117.836 26.1929 117.773C31.2453 117.71 36.2359 116.653 40.8797 114.662C45.5235 112.67 49.7296 109.784 53.2579 106.167C56.7861 102.55 59.5674 98.2734 61.443 93.5816C63.3186 88.8898 64.2516 83.8745 64.1889 78.8221C64.1889 78.4274 64.1889 78.0328 64.1889 77.6381L-12.7581 78.593Z" fill="#BC78EC"/>
<path opacity="0.8" d="M-11.2175 78.5675C-11.2175 78.9367 -11.2175 79.3186 -11.2175 79.6878C-11.096 89.4797 -7.08959 98.8222 -0.0797386 105.66C6.93011 112.498 16.3692 116.271 26.1611 116.15C35.953 116.028 45.2955 112.022 52.1334 105.012C58.9714 98.0022 62.7446 88.5631 62.6231 78.7712C62.6231 78.402 62.6231 78.0328 62.6231 77.6509L-11.2175 78.5675Z" fill="white"/>
<path d="M20.0756 80.6808L-5.48847 80.9991C-5.78283 81.004 -6.07285 81.0708 -6.33974 81.1951C-6.60662 81.3193 -6.84441 81.4983 -7.03767 81.7204C-7.23094 81.9425 -7.37536 82.2027 -7.46159 82.4842C-7.54781 82.7657 -7.57391 83.0621 -7.53819 83.3543C-6.7713 89.6394 -4.22737 95.5752 -0.20505 100.465C-0.0180812 100.692 0.214597 100.878 0.477897 101.01C0.741197 101.141 1.02923 101.216 1.32333 101.229C1.61743 101.243 1.91103 101.194 2.18507 101.086C2.45911 100.979 2.70748 100.815 2.91407 100.605L20.7377 82.2977C20.8721 82.1666 20.9644 81.9984 21.0026 81.8146C21.0408 81.6308 21.0232 81.4397 20.952 81.2659C20.8809 81.0922 20.7595 80.9436 20.6033 80.8394C20.4472 80.7351 20.2634 80.6799 20.0756 80.6808Z" fill="#BC78EC"/>
<path d="M22.7362 84.2328L4.91263 102.527C4.70912 102.74 4.55229 102.993 4.45217 103.27C4.35205 103.547 4.31087 103.841 4.33124 104.135C4.35162 104.429 4.43311 104.715 4.57049 104.975C4.70788 105.235 4.89814 105.464 5.12906 105.647C10.1197 109.544 16.116 111.942 22.4179 112.56C22.7111 112.586 23.0066 112.551 23.2854 112.457C23.5643 112.363 23.8204 112.211 24.0374 112.012C24.2543 111.813 24.4273 111.571 24.5452 111.302C24.6632 111.032 24.7235 110.741 24.7223 110.446L24.404 84.8821C24.4069 84.6874 24.3502 84.4964 24.2415 84.3348C24.1327 84.1732 23.9772 84.0487 23.7957 83.9781C23.6142 83.9074 23.4154 83.894 23.226 83.9395C23.0367 83.985 22.8658 84.0874 22.7362 84.2328Z" fill="#BC78EC"/>
<path d="M30.6805 82.1831L48.9878 100.007C49.1996 100.212 49.4521 100.37 49.7292 100.472C50.0062 100.573 50.3014 100.615 50.5957 100.594C50.8899 100.574 51.1766 100.492 51.4369 100.353C51.6973 100.215 51.9256 100.023 52.107 99.7902C56.0061 94.8017 58.3999 88.8037 59.0072 82.5014C59.0378 82.2085 59.006 81.9124 58.914 81.6327C58.8221 81.3529 58.672 81.0958 58.4736 80.8782C58.2752 80.6606 58.033 80.4874 57.763 80.37C57.4929 80.2526 57.2011 80.1937 56.9066 80.197L31.3425 80.5153C31.1496 80.5165 30.9616 80.5752 30.8023 80.684C30.6431 80.7928 30.52 80.9466 30.4489 81.1259C30.3777 81.3051 30.3618 81.5015 30.403 81.6899C30.4443 81.8782 30.5409 82.05 30.6805 82.1831Z" fill="#BC78EC"/>
<path d="M27.1414 84.844L27.4597 110.408C27.4647 110.702 27.5315 110.992 27.6557 111.259C27.78 111.526 27.9589 111.764 28.181 111.957C28.4031 112.151 28.6633 112.295 28.9448 112.381C29.2263 112.467 29.5228 112.494 29.815 112.458C36.1 111.691 42.0358 109.147 46.9256 105.125C47.158 104.939 47.3482 104.705 47.4836 104.44C47.6189 104.175 47.6964 103.884 47.7109 103.587C47.7253 103.289 47.6764 102.992 47.5673 102.715C47.4583 102.438 47.2916 102.188 47.0784 101.98L28.771 84.1565C28.6394 84.0155 28.4676 83.9184 28.279 83.8782C28.0904 83.8379 27.894 83.8565 27.7163 83.9315C27.5386 84.0065 27.3882 84.1342 27.2854 84.2973C27.1826 84.4605 27.1323 84.6513 27.1414 84.844Z" fill="#BC78EC"/>
<g opacity="0.3">
<path opacity="0.3" d="M20.0754 80.6809L-5.48872 80.9991C-5.78307 81.0041 -6.0731 81.0709 -6.33998 81.1951C-6.60687 81.3194 -6.84465 81.4984 -7.03792 81.7205C-7.23118 81.9425 -7.37561 82.2027 -7.46183 82.4842C-7.54806 82.7657 -7.57416 83.0622 -7.53843 83.3544C-6.77154 89.6394 -4.22762 95.5752 -0.205294 100.465C-0.0183253 100.692 0.214353 100.878 0.477653 101.01C0.740952 101.141 1.02899 101.216 1.32309 101.229C1.61719 101.243 1.91078 101.194 2.18482 101.086C2.45887 100.979 2.70724 100.815 2.91383 100.605L20.7374 82.2977C20.8719 82.1667 20.9642 81.9985 21.0024 81.8146C21.0406 81.6308 21.023 81.4397 20.9518 81.266C20.8807 81.0922 20.7592 80.9437 20.6031 80.8395C20.4469 80.7352 20.2632 80.68 20.0754 80.6809Z" fill="white"/>
<path opacity="0.3" d="M22.736 84.2329L4.91238 102.528C4.70888 102.74 4.55204 102.993 4.45193 103.27C4.35181 103.547 4.31062 103.841 4.331 104.135C4.35137 104.429 4.43286 104.715 4.57025 104.975C4.70764 105.235 4.89789 105.464 5.12882 105.647C10.1195 109.544 16.1157 111.942 22.4177 112.56C22.7109 112.586 23.0063 112.551 23.2852 112.457C23.5641 112.363 23.8202 112.211 24.0371 112.012C24.2541 111.814 24.427 111.571 24.545 111.302C24.6629 111.032 24.7232 110.741 24.722 110.446L24.4038 84.8822C24.4067 84.6874 24.35 84.4965 24.2412 84.3349C24.1325 84.1733 23.9769 84.0488 23.7954 83.9781C23.6139 83.9075 23.4152 83.894 23.2258 83.9396C23.0364 83.9851 22.8655 84.0874 22.736 84.2329Z" fill="white"/>
<path opacity="0.3" d="M30.6805 82.1832L48.9878 100.007C49.1996 100.212 49.4521 100.371 49.7292 100.472C50.0062 100.573 50.3014 100.615 50.5957 100.594C50.8899 100.574 51.1766 100.492 51.4369 100.353C51.6973 100.215 51.9256 100.023 52.107 99.7903C56.0061 94.8018 58.3999 88.8038 59.0072 82.5014C59.0378 82.2085 59.006 81.9125 58.914 81.6327C58.8221 81.353 58.672 81.0959 58.4736 80.8783C58.2752 80.6606 58.033 80.4874 57.763 80.37C57.4929 80.2526 57.2011 80.1937 56.9066 80.1971L31.3425 80.5154C31.1496 80.5165 30.9616 80.5752 30.8023 80.684C30.6431 80.7928 30.52 80.9467 30.4489 81.1259C30.3777 81.3052 30.3618 81.5016 30.403 81.6899C30.4443 81.8783 30.5409 82.0501 30.6805 82.1832Z" fill="white"/>
<path opacity="0.3" d="M27.1412 84.844L27.4595 110.408C27.4644 110.702 27.5312 110.992 27.6555 111.259C27.7797 111.526 27.9587 111.764 28.1808 111.957C28.4029 112.151 28.6631 112.295 28.9446 112.381C29.226 112.467 29.5225 112.494 29.8147 112.458C36.0997 111.691 42.0356 109.147 46.9254 105.125C47.1578 104.939 47.3479 104.705 47.4833 104.44C47.6187 104.175 47.6962 103.884 47.7106 103.587C47.7251 103.289 47.6761 102.992 47.5671 102.715C47.4581 102.438 47.2914 102.188 47.0781 101.98L28.7708 84.1565C28.6391 84.0155 28.4674 83.9184 28.2788 83.8782C28.0902 83.8379 27.8937 83.8565 27.716 83.9315C27.5383 84.0065 27.3879 84.1342 27.2851 84.2973C27.1823 84.4605 27.1321 84.6513 27.1412 84.844Z" fill="white"/>
</g>
<path d="M49.1534 84.0546C50.1719 84.3475 50.8848 84.984 50.7448 85.4805C50.6047 85.977 49.6626 86.1171 48.6314 85.8115C47.6002 85.506 46.9127 84.8694 47.0527 84.3856C47.1928 83.9018 48.1349 83.7491 49.1534 84.0546Z" fill="#BC78EC"/>
<path opacity="0.6" d="M49.1534 84.0546C50.1719 84.3475 50.8848 84.984 50.7448 85.4805C50.6047 85.977 49.6626 86.1171 48.6314 85.8115C47.6002 85.506 46.9127 84.8694 47.0527 84.3856C47.1928 83.9018 48.1349 83.7491 49.1534 84.0546Z" fill="white"/>
<path d="M41.0819 86.0407C42.0749 86.4099 42.7497 87.0973 42.5715 87.5811C42.3932 88.0649 41.4384 88.1413 40.4454 87.7721C39.4523 87.4029 38.7776 86.7154 38.9558 86.2444C39.1341 85.7733 40.0889 85.6715 41.0819 86.0407Z" fill="#BC78EC"/>
<path opacity="0.6" d="M41.0819 86.0407C42.0749 86.4099 42.7497 87.0973 42.5715 87.5811C42.3932 88.0649 41.4384 88.1413 40.4454 87.7721C39.4523 87.4029 38.7776 86.7154 38.9558 86.2444C39.1341 85.7733 40.0889 85.6715 41.0819 86.0407Z" fill="white"/>
<path d="M4.68343 90.1656C5.67645 89.7836 6.6313 89.8473 6.80953 90.3183C6.98777 90.7894 6.35121 91.4896 5.35818 91.8843C4.36516 92.2789 3.42304 92.2026 3.23208 91.7315C3.04111 91.2604 3.70313 90.522 4.68343 90.1656Z" fill="#BC78EC"/>
<path opacity="0.6" d="M4.68343 90.1656C5.67645 89.7836 6.6313 89.8473 6.80953 90.3183C6.98777 90.7894 6.35121 91.4896 5.35818 91.8843C4.36516 92.2789 3.42304 92.2026 3.23208 91.7315C3.04111 91.2604 3.70313 90.522 4.68343 90.1656Z" fill="white"/>
<path d="M32.5648 98.3516C32.2847 97.3332 32.463 96.3911 32.9595 96.2638C33.456 96.1364 34.0671 96.8621 34.3472 97.8806C34.6272 98.8991 34.4363 99.8539 33.9525 99.9812C33.4687 100.109 32.8322 99.4338 32.5648 98.3516Z" fill="#BC78EC"/>
<path opacity="0.6" d="M32.5648 98.3516C32.2847 97.3332 32.463 96.3911 32.9595 96.2638C33.456 96.1364 34.0671 96.8621 34.3472 97.8806C34.6272 98.8991 34.4363 99.8539 33.9525 99.9812C33.4687 100.109 32.8322 99.4338 32.5648 98.3516Z" fill="white"/>
</g>
</g>
<path d="M49.6621 85.5978L51.918 78.1125H54.2012L50.7354 88.0656H48.5957L45.1436 78.1125H47.4199L49.6621 85.5978ZM57.0996 88.0656H55.1172V80.6691H57.0996V88.0656ZM55.001 78.7551C55.001 78.4588 55.099 78.215 55.2949 78.0236C55.4954 77.8322 55.7666 77.7365 56.1084 77.7365C56.4456 77.7365 56.7145 77.8322 56.915 78.0236C57.1156 78.215 57.2158 78.4588 57.2158 78.7551C57.2158 79.0558 57.1133 79.3019 56.9082 79.4933C56.7077 79.6848 56.4411 79.7805 56.1084 79.7805C55.7757 79.7805 55.5068 79.6848 55.3018 79.4933C55.1012 79.3019 55.001 79.0558 55.001 78.7551ZM61.0986 78.8508V80.6691H62.3633V82.1183H61.0986V85.8098C61.0986 86.0832 61.151 86.2792 61.2559 86.3976C61.3607 86.5161 61.5612 86.5754 61.8574 86.5754C62.0762 86.5754 62.2699 86.5594 62.4385 86.5275V88.0246C62.0511 88.1431 61.6523 88.2023 61.2422 88.2023C59.8568 88.2023 59.1504 87.5028 59.123 86.1037V82.1183H58.043V80.6691H59.123V78.8508H61.0986ZM67.75 88.0656C67.6589 87.8879 67.5928 87.6668 67.5518 87.4025C67.0732 87.9357 66.4512 88.2023 65.6855 88.2023C64.9609 88.2023 64.3594 87.9927 63.8809 87.5734C63.4069 87.1542 63.1699 86.6255 63.1699 85.9875C63.1699 85.2036 63.4593 84.6021 64.0381 84.1828C64.6214 83.7635 65.4622 83.5516 66.5605 83.5471H67.4697V83.1232C67.4697 82.7814 67.3809 82.508 67.2031 82.3029C67.0299 82.0978 66.7542 81.9953 66.376 81.9953C66.0433 81.9953 65.7812 82.0751 65.5898 82.2346C65.403 82.3941 65.3096 82.6128 65.3096 82.8908H63.334C63.334 82.4624 63.4661 82.0659 63.7305 81.7014C63.9948 81.3368 64.3685 81.0519 64.8516 80.8469C65.3346 80.6372 65.877 80.5324 66.4785 80.5324C67.39 80.5324 68.1123 80.7626 68.6455 81.2228C69.1833 81.6786 69.4521 82.3211 69.4521 83.1506V86.3566C69.4567 87.0585 69.5547 87.5894 69.7461 87.9494V88.0656H67.75ZM66.1162 86.6916C66.4079 86.6916 66.6768 86.6278 66.9229 86.5002C67.1689 86.368 67.3512 86.1926 67.4697 85.9738V84.7023H66.7314C65.7425 84.7023 65.2161 85.0441 65.1523 85.7277L65.1455 85.8439C65.1455 86.09 65.2321 86.2928 65.4053 86.4523C65.5785 86.6118 65.8154 86.6916 66.1162 86.6916ZM72.8223 80.6691L72.8838 81.4963C73.4079 80.8537 74.1165 80.5324 75.0098 80.5324C75.9622 80.5324 76.6162 80.9084 76.9717 81.6603C77.4912 80.9084 78.2318 80.5324 79.1934 80.5324C79.9954 80.5324 80.5924 80.7671 80.9844 81.2365C81.3763 81.7014 81.5723 82.4032 81.5723 83.342V88.0656H79.5898V83.3488C79.5898 82.9295 79.5078 82.6242 79.3438 82.4328C79.1797 82.2368 78.8903 82.1389 78.4756 82.1389C77.8831 82.1389 77.473 82.4214 77.2451 82.9865L77.252 88.0656H75.2764V83.3557C75.2764 82.9273 75.1921 82.6174 75.0234 82.426C74.8548 82.2346 74.5677 82.1389 74.1621 82.1389C73.6016 82.1389 73.196 82.3713 72.9453 82.8361V88.0656H70.9697V80.6691H72.8223ZM85.1816 88.0656H83.1992V80.6691H85.1816V88.0656ZM83.083 78.7551C83.083 78.4588 83.181 78.215 83.377 78.0236C83.5775 77.8322 83.8486 77.7365 84.1904 77.7365C84.5277 77.7365 84.7965 77.8322 84.9971 78.0236C85.1976 78.215 85.2979 78.4588 85.2979 78.7551C85.2979 79.0558 85.1953 79.3019 84.9902 79.4933C84.7897 79.6848 84.5231 79.7805 84.1904 79.7805C83.8577 79.7805 83.5889 79.6848 83.3838 79.4933C83.1833 79.3019 83.083 79.0558 83.083 78.7551ZM88.6338 80.6691L88.6953 81.5236C89.224 80.8628 89.9326 80.5324 90.8213 80.5324C91.6051 80.5324 92.1885 80.7626 92.5713 81.2228C92.9541 81.6831 93.1501 82.3713 93.1592 83.2873V88.0656H91.1836V83.3351C91.1836 82.9159 91.0924 82.6128 90.9102 82.426C90.7279 82.2346 90.4248 82.1389 90.001 82.1389C89.445 82.1389 89.028 82.3758 88.75 82.8498V88.0656H86.7744V80.6691H88.6338Z" fill="white"/>
<path d="M65.1973 54.0456C65.3297 54.0238 65.4564 53.9756 65.5698 53.9038C65.6832 53.832 65.781 53.7382 65.8574 53.6278C65.9338 53.5174 65.9871 53.3928 66.0143 53.2613C66.0415 53.1299 66.0419 52.9943 66.0156 52.8627C65.9893 52.7311 65.9367 52.6061 65.8611 52.4953C65.7854 52.3844 65.6883 52.2899 65.5753 52.2174C65.4624 52.1448 65.336 52.0958 65.2037 52.0732C65.0714 52.0505 64.9359 52.0548 64.8053 52.0856C63.6013 52.3256 62.6919 53.1669 62.2079 54.2963C61.7279 55.4149 61.6573 56.8109 62.0319 58.3083C62.0994 58.5621 62.2641 58.7793 62.4903 58.9127C62.7166 59.0462 62.9863 59.0853 63.2411 59.0215C63.4959 58.9578 63.7154 58.7963 63.8522 58.572C63.989 58.3477 64.032 58.0787 63.9719 57.8229C63.6786 56.6536 63.7746 55.7163 64.0453 55.0843C64.3119 54.4643 64.7359 54.1376 65.1973 54.0456ZM61.2959 43.6256C61.239 44.5719 61.3775 45.5198 61.7028 46.4103C62.0281 47.3007 62.5332 48.1147 63.1866 48.8016C61.9164 49.1658 60.7792 49.8908 59.913 50.8886C59.0468 51.8864 58.4887 53.1142 58.3066 54.4229C57.8685 57.5635 58.5138 60.7596 60.1359 63.4843L60.6026 64.2709C60.6203 64.2999 60.6394 64.3279 60.6599 64.3549L62.5479 66.8976C62.9479 67.4361 63.4605 67.881 64.0499 68.2012C64.6394 68.5215 65.2915 68.7094 65.961 68.7519C66.6305 68.7944 67.3012 68.6905 67.9264 68.4474C68.5516 68.2043 69.1164 67.8279 69.5813 67.3443C69.6356 67.2877 69.7009 67.2427 69.773 67.212C69.8452 67.1813 69.9228 67.1654 70.0013 67.1654C70.0797 67.1654 70.1573 67.1813 70.2295 67.212C70.3017 67.2427 70.3669 67.2877 70.4213 67.3443C70.8862 67.8279 71.4509 68.2043 72.0761 68.4474C72.7013 68.6905 73.372 68.7944 74.0415 68.7519C74.711 68.7094 75.3632 68.5215 75.9526 68.2012C76.542 67.881 77.0546 67.4361 77.4546 66.8976L79.3426 64.3549C79.3627 64.3279 79.3814 64.2999 79.3986 64.2709L79.8666 63.4843C81.4892 60.7598 82.1349 57.5637 81.6973 54.4229C81.5682 53.4976 81.2505 52.6086 80.764 51.8111C80.2774 51.0135 79.6324 50.3242 78.8687 49.786C78.105 49.2478 77.239 48.8721 76.3242 48.6821C75.4095 48.4922 74.4654 48.492 73.5506 48.6816L71.0159 49.2069L71.0119 49.2083C71.0519 48.1683 71.2146 47.0483 71.5333 46.0896C71.9199 44.9323 72.4559 44.2363 73.0533 43.9883C73.1779 43.9402 73.2916 43.8676 73.3877 43.7749C73.4839 43.6821 73.5604 43.571 73.6129 43.4482C73.6654 43.3254 73.6927 43.1933 73.6933 43.0597C73.6939 42.9261 73.6677 42.7938 73.6163 42.6705C73.5649 42.5472 73.4893 42.4354 73.394 42.3418C73.2988 42.2482 73.1857 42.1747 73.0615 42.1255C72.9373 42.0763 72.8045 42.0525 72.6709 42.0555C72.5374 42.0585 72.4058 42.0882 72.2839 42.1429C70.8799 42.7269 70.0839 44.1149 69.6359 45.4576L69.5746 45.6469C69.2546 45.0283 68.8359 44.4469 68.3173 43.9269C67.6259 43.2344 66.7953 42.6967 65.8804 42.3494C64.9656 42.002 63.9874 41.853 63.0106 41.9123C62.5642 41.9377 62.1427 42.1262 61.8263 42.4422C61.5099 42.7581 61.3207 43.1792 61.2946 43.6256H61.2959ZM63.2866 43.9016C63.9557 43.8823 64.6216 44.0001 65.2435 44.2477C65.8654 44.4954 66.43 44.8676 66.9026 45.3416C67.3766 45.8142 67.7488 46.3788 67.9965 47.0007C68.2441 47.6226 68.3619 48.2885 68.3426 48.9576C68.1008 48.9641 67.8588 48.953 67.6186 48.9243L66.7959 48.7536C66.014 48.5203 65.3027 48.0955 64.7266 47.5176C64.2526 47.045 63.8804 46.4803 63.6327 45.8585C63.3851 45.2366 63.2673 44.5707 63.2866 43.9016ZM66.0453 50.6403L66.3146 50.6963C66.6346 50.7869 66.9599 50.8536 67.2879 50.8976L68.5813 51.1656C69.518 51.3596 70.4845 51.3596 71.4213 51.1656L73.9573 50.6403C74.604 50.5062 75.2715 50.5063 75.9182 50.6406C76.5649 50.7748 77.1772 51.0404 77.7171 51.4209C78.2571 51.8013 78.7132 52.2886 79.0572 52.8524C79.4013 53.4163 79.6259 54.0447 79.7173 54.6989C80.0921 57.3896 79.5386 60.1278 78.1479 62.4616L77.7066 63.2029L75.8493 65.7056C75.6226 66.0109 75.3321 66.2632 74.998 66.4447C74.6639 66.6263 74.2942 66.7329 73.9147 66.757C73.5352 66.7811 73.155 66.7222 72.8006 66.5844C72.4462 66.4465 72.1261 66.2331 71.8626 65.9589C71.6216 65.7084 71.3326 65.5091 71.0127 65.373C70.6929 65.2368 70.3489 65.1667 70.0013 65.1667C69.6537 65.1667 69.3096 65.2368 68.9898 65.373C68.67 65.5091 68.3809 65.7084 68.1399 65.9589C67.8764 66.2331 67.5564 66.4465 67.2019 66.5844C66.8475 66.7222 66.4673 66.7811 66.0878 66.757C65.7083 66.7329 65.3387 66.6263 65.0046 66.4447C64.6704 66.2632 64.3799 66.0109 64.1533 65.7056L62.2959 63.2029L61.8533 62.4616C60.4637 60.1274 59.9111 57.3893 60.2866 54.6989C60.378 54.0449 60.6026 53.4166 60.9465 52.8528C61.2905 52.2891 61.7465 51.8019 62.2863 51.4215C62.8261 51.041 63.4382 50.7754 64.0848 50.641C64.7313 50.5066 65.3986 50.5064 66.0453 50.6403Z" fill="#F9F8FC"/>
<rect x="155.473" y="0.629883" width="139.527" height="128.436" rx="3.64479" fill="url(#paint2_linear_1607_40260)"/>
<mask id="mask1_1607_40260" style="mask-type:alpha" maskUnits="userSpaceOnUse" x="155" y="0" width="141" height="130">
<rect x="155.473" y="0.629822" width="139.527" height="128.436" rx="3.64479" fill="url(#paint3_linear_1607_40260)"/>
</mask>
<g mask="url(#mask1_1607_40260)">
<g style="mix-blend-mode:overlay" opacity="0.7">
<path d="M159.153 128.601H338.865" stroke="#263238" stroke-width="0.160747" stroke-linecap="round" stroke-linejoin="round"/>
<path d="M171.968 59.5375H161.662C160.672 59.5375 159.869 60.3403 159.869 61.3304V71.6364C159.869 72.6266 160.672 73.4293 161.662 73.4293H171.968C172.958 73.4293 173.761 72.6266 173.761 71.6364V61.3304C173.761 60.3403 172.958 59.5375 171.968 59.5375Z" stroke="#263238" stroke-width="0.160747" stroke-linecap="round" stroke-linejoin="round"/>
<path d="M187.036 59.5375H176.73C175.74 59.5375 174.937 60.3403 174.937 61.3304V71.6364C174.937 72.6266 175.74 73.4293 176.73 73.4293H187.036C188.026 73.4293 188.829 72.6266 188.829 71.6364V61.3304C188.829 60.3403 188.026 59.5375 187.036 59.5375Z" stroke="#263238" stroke-width="0.160747" stroke-linecap="round" stroke-linejoin="round"/>
<path d="M202.104 59.5375H191.798C190.808 59.5375 190.005 60.3403 190.005 61.3304V71.6364C190.005 72.6266 190.808 73.4293 191.798 73.4293H202.104C203.094 73.4293 203.897 72.6266 203.897 71.6364V61.3304C203.897 60.3403 203.094 59.5375 202.104 59.5375Z" stroke="#263238" stroke-width="0.160747" stroke-linecap="round" stroke-linejoin="round"/>
<path d="M217.168 59.5375H206.862C205.872 59.5375 205.069 60.3403 205.069 61.3304V71.6364C205.069 72.6266 205.872 73.4293 206.862 73.4293H217.168C218.158 73.4293 218.961 72.6266 218.961 71.6364V61.3304C218.961 60.3403 218.158 59.5375 217.168 59.5375Z" stroke="#263238" stroke-width="0.160747" stroke-linecap="round" stroke-linejoin="round"/>
<path d="M232.237 59.5375H221.931C220.94 59.5375 220.138 60.3403 220.138 61.3304V71.6364C220.138 72.6266 220.94 73.4293 221.931 73.4293H232.237C233.227 73.4293 234.029 72.6266 234.029 71.6364V61.3304C234.029 60.3403 233.227 59.5375 232.237 59.5375Z" stroke="#263238" stroke-width="0.160747" stroke-linecap="round" stroke-linejoin="round"/>
<path d="M247.305 59.5375H236.999C236.009 59.5375 235.206 60.3403 235.206 61.3304V71.6364C235.206 72.6266 236.009 73.4293 236.999 73.4293H247.305C248.295 73.4293 249.098 72.6266 249.098 71.6364V61.3304C249.098 60.3403 248.295 59.5375 247.305 59.5375Z" stroke="#263238" stroke-width="0.160747" stroke-linecap="round" stroke-linejoin="round"/>
<path d="M262.368 59.5375H252.062C251.072 59.5375 250.27 60.3403 250.27 61.3304V71.6364C250.27 72.6266 251.072 73.4293 252.062 73.4293H262.368C263.359 73.4293 264.161 72.6266 264.161 71.6364V61.3304C264.161 60.3403 263.359 59.5375 262.368 59.5375Z" stroke="#263238" stroke-width="0.160747" stroke-linecap="round" stroke-linejoin="round"/>
<path d="M277.437 59.5375H267.131C266.141 59.5375 265.338 60.3403 265.338 61.3304V71.6364C265.338 72.6266 266.141 73.4293 267.131 73.4293H277.437C278.427 73.4293 279.23 72.6266 279.23 71.6364V61.3304C279.23 60.3403 278.427 59.5375 277.437 59.5375Z" stroke="#263238" stroke-width="0.160747" stroke-linecap="round" stroke-linejoin="round"/>
<path d="M292.505 59.5375H282.199C281.209 59.5375 280.406 60.3403 280.406 61.3304V71.6364C280.406 72.6266 281.209 73.4293 282.199 73.4293H292.505C293.495 73.4293 294.298 72.6266 294.298 71.6364V61.3304C294.298 60.3403 293.495 59.5375 292.505 59.5375Z" stroke="#263238" stroke-width="0.160747" stroke-linecap="round" stroke-linejoin="round"/>
<path d="M171.968 74.3844H161.662C160.672 74.3844 159.869 75.1871 159.869 76.1773V86.4833C159.869 87.4735 160.672 88.2762 161.662 88.2762H171.968C172.958 88.2762 173.761 87.4735 173.761 86.4833V76.1773C173.761 75.1871 172.958 74.3844 171.968 74.3844Z" stroke="#263238" stroke-width="0.160747" stroke-linecap="round" stroke-linejoin="round"/>
<path d="M187.036 74.3844H176.73C175.74 74.3844 174.937 75.1871 174.937 76.1773V86.4833C174.937 87.4735 175.74 88.2762 176.73 88.2762H187.036C188.026 88.2762 188.829 87.4735 188.829 86.4833V76.1773C188.829 75.1871 188.026 74.3844 187.036 74.3844Z" stroke="#263238" stroke-width="0.160747" stroke-linecap="round" stroke-linejoin="round"/>
<path d="M202.104 74.3844H191.798C190.808 74.3844 190.005 75.1871 190.005 76.1773V86.4833C190.005 87.4735 190.808 88.2762 191.798 88.2762H202.104C203.094 88.2762 203.897 87.4735 203.897 86.4833V76.1773C203.897 75.1871 203.094 74.3844 202.104 74.3844Z" stroke="#263238" stroke-width="0.160747" stroke-linecap="round" stroke-linejoin="round"/>
<path d="M217.168 74.3844H206.862C205.872 74.3844 205.069 75.1871 205.069 76.1773V86.4833C205.069 87.4735 205.872 88.2762 206.862 88.2762H217.168C218.158 88.2762 218.961 87.4735 218.961 86.4833V76.1773C218.961 75.1871 218.158 74.3844 217.168 74.3844Z" stroke="#263238" stroke-width="0.160747" stroke-linecap="round" stroke-linejoin="round"/>
<path d="M232.237 74.3844H221.931C220.94 74.3844 220.138 75.1871 220.138 76.1773V86.4833C220.138 87.4735 220.94 88.2762 221.931 88.2762H232.237C233.227 88.2762 234.029 87.4735 234.029 86.4833V76.1773C234.029 75.1871 233.227 74.3844 232.237 74.3844Z" stroke="#263238" stroke-width="0.160747" stroke-linecap="round" stroke-linejoin="round"/>
<path d="M247.305 74.3844H236.999C236.009 74.3844 235.206 75.1871 235.206 76.1773V86.4833C235.206 87.4735 236.009 88.2762 236.999 88.2762H247.305C248.295 88.2762 249.098 87.4735 249.098 86.4833V76.1773C249.098 75.1871 248.295 74.3844 247.305 74.3844Z" stroke="#263238" stroke-width="0.160747" stroke-linecap="round" stroke-linejoin="round"/>
<path d="M262.368 74.3844H252.062C251.072 74.3844 250.27 75.1871 250.27 76.1773V86.4833C250.27 87.4735 251.072 88.2762 252.062 88.2762H262.368C263.359 88.2762 264.161 87.4735 264.161 86.4833V76.1773C264.161 75.1871 263.359 74.3844 262.368 74.3844Z" stroke="#263238" stroke-width="0.160747" stroke-linecap="round" stroke-linejoin="round"/>
<path d="M277.437 74.3844H267.131C266.141 74.3844 265.338 75.1871 265.338 76.1773V86.4833C265.338 87.4735 266.141 88.2762 267.131 88.2762H277.437C278.427 88.2762 279.23 87.4735 279.23 86.4833V76.1773C279.23 75.1871 278.427 74.3844 277.437 74.3844Z" stroke="#263238" stroke-width="0.160747" stroke-linecap="round" stroke-linejoin="round"/>
<path d="M292.505 74.3844H282.199C281.209 74.3844 280.406 75.1871 280.406 76.1773V86.4833C280.406 87.4735 281.209 88.2762 282.199 88.2762H292.505C293.495 88.2762 294.298 87.4735 294.298 86.4833V76.1773C294.298 75.1871 293.495 74.3844 292.505 74.3844Z" stroke="#263238" stroke-width="0.160747" stroke-linecap="round" stroke-linejoin="round"/>
<path d="M171.968 89.2312H161.662C160.672 89.2312 159.869 90.0339 159.869 91.0241V101.33C159.869 102.32 160.672 103.123 161.662 103.123H171.968C172.958 103.123 173.761 102.32 173.761 101.33V91.0241C173.761 90.0339 172.958 89.2312 171.968 89.2312Z" stroke="#263238" stroke-width="0.160747" stroke-linecap="round" stroke-linejoin="round"/>
<path d="M187.036 89.2312H176.73C175.74 89.2312 174.937 90.0339 174.937 91.0241V101.33C174.937 102.32 175.74 103.123 176.73 103.123H187.036C188.026 103.123 188.829 102.32 188.829 101.33V91.0241C188.829 90.0339 188.026 89.2312 187.036 89.2312Z" stroke="#263238" stroke-width="0.160747" stroke-linecap="round" stroke-linejoin="round"/>
<path d="M202.104 89.2312H191.798C190.808 89.2312 190.005 90.0339 190.005 91.0241V101.33C190.005 102.32 190.808 103.123 191.798 103.123H202.104C203.094 103.123 203.897 102.32 203.897 101.33V91.0241C203.897 90.0339 203.094 89.2312 202.104 89.2312Z" stroke="#263238" stroke-width="0.160747" stroke-linecap="round" stroke-linejoin="round"/>
<path d="M217.168 89.2312H206.862C205.872 89.2312 205.069 90.0339 205.069 91.0241V101.33C205.069 102.32 205.872 103.123 206.862 103.123H217.168C218.158 103.123 218.961 102.32 218.961 101.33V91.0241C218.961 90.0339 218.158 89.2312 217.168 89.2312Z" stroke="#263238" stroke-width="0.160747" stroke-linecap="round" stroke-linejoin="round"/>
<path d="M232.237 89.2312H221.931C220.94 89.2312 220.138 90.0339 220.138 91.0241V101.33C220.138 102.32 220.94 103.123 221.931 103.123H232.237C233.227 103.123 234.029 102.32 234.029 101.33V91.0241C234.029 90.0339 233.227 89.2312 232.237 89.2312Z" stroke="#263238" stroke-width="0.160747" stroke-linecap="round" stroke-linejoin="round"/>
<path d="M247.305 89.2312H236.999C236.009 89.2312 235.206 90.0339 235.206 91.0241V101.33C235.206 102.32 236.009 103.123 236.999 103.123H247.305C248.295 103.123 249.098 102.32 249.098 101.33V91.0241C249.098 90.0339 248.295 89.2312 247.305 89.2312Z" stroke="#263238" stroke-width="0.160747" stroke-linecap="round" stroke-linejoin="round"/>
<path d="M262.368 89.2312H252.062C251.072 89.2312 250.27 90.0339 250.27 91.0241V101.33C250.27 102.32 251.072 103.123 252.062 103.123H262.368C263.359 103.123 264.161 102.32 264.161 101.33V91.0241C264.161 90.0339 263.359 89.2312 262.368 89.2312Z" stroke="#263238" stroke-width="0.160747" stroke-linecap="round" stroke-linejoin="round"/>
<path d="M277.437 89.2312H267.131C266.141 89.2312 265.338 90.0339 265.338 91.0241V101.33C265.338 102.32 266.141 103.123 267.131 103.123H277.437C278.427 103.123 279.23 102.32 279.23 101.33V91.0241C279.23 90.0339 278.427 89.2312 277.437 89.2312Z" stroke="#263238" stroke-width="0.160747" stroke-linecap="round" stroke-linejoin="round"/>
<path d="M292.505 89.2312H282.199C281.209 89.2312 280.406 90.0339 280.406 91.0241V101.33C280.406 102.32 281.209 103.123 282.199 103.123H292.505C293.495 103.123 294.298 102.32 294.298 101.33V91.0241C294.298 90.0339 293.495 89.2312 292.505 89.2312Z" stroke="#263238" stroke-width="0.160747" stroke-linecap="round" stroke-linejoin="round"/>
<path d="M171.968 104.078H161.662C160.672 104.078 159.869 104.881 159.869 105.871V116.177C159.869 117.167 160.672 117.97 161.662 117.97H171.968C172.958 117.97 173.761 117.167 173.761 116.177V105.871C173.761 104.881 172.958 104.078 171.968 104.078Z" stroke="#263238" stroke-width="0.160747" stroke-linecap="round" stroke-linejoin="round"/>
<path d="M187.036 104.078H176.73C175.74 104.078 174.937 104.881 174.937 105.871V116.177C174.937 117.167 175.74 117.97 176.73 117.97H187.036C188.026 117.97 188.829 117.167 188.829 116.177V105.871C188.829 104.881 188.026 104.078 187.036 104.078Z" stroke="#263238" stroke-width="0.160747" stroke-linecap="round" stroke-linejoin="round"/>
<path d="M202.104 104.078H191.798C190.808 104.078 190.005 104.881 190.005 105.871V116.177C190.005 117.167 190.808 117.97 191.798 117.97H202.104C203.094 117.97 203.897 117.167 203.897 116.177V105.871C203.897 104.881 203.094 104.078 202.104 104.078Z" stroke="#263238" stroke-width="0.160747" stroke-linecap="round" stroke-linejoin="round"/>
<path d="M217.168 104.078H206.862C205.872 104.078 205.069 104.881 205.069 105.871V116.177C205.069 117.167 205.872 117.97 206.862 117.97H217.168C218.158 117.97 218.961 117.167 218.961 116.177V105.871C218.961 104.881 218.158 104.078 217.168 104.078Z" stroke="#263238" stroke-width="0.160747" stroke-linecap="round" stroke-linejoin="round"/>
<path d="M232.237 104.078H221.931C220.94 104.078 220.138 104.881 220.138 105.871V116.177C220.138 117.167 220.94 117.97 221.931 117.97H232.237C233.227 117.97 234.029 117.167 234.029 116.177V105.871C234.029 104.881 233.227 104.078 232.237 104.078Z" stroke="#263238" stroke-width="0.160747" stroke-linecap="round" stroke-linejoin="round"/>
<path d="M247.305 104.078H236.999C236.009 104.078 235.206 104.881 235.206 105.871V116.177C235.206 117.167 236.009 117.97 236.999 117.97H247.305C248.295 117.97 249.098 117.167 249.098 116.177V105.871C249.098 104.881 248.295 104.078 247.305 104.078Z" stroke="#263238" stroke-width="0.160747" stroke-linecap="round" stroke-linejoin="round"/>
<path d="M262.368 104.078H252.062C251.072 104.078 250.27 104.881 250.27 105.871V116.177C250.27 117.167 251.072 117.97 252.062 117.97H262.368C263.359 117.97 264.161 117.167 264.161 116.177V105.871C264.161 104.881 263.359 104.078 262.368 104.078Z" stroke="#263238" stroke-width="0.160747" stroke-linecap="round" stroke-linejoin="round"/>
<path d="M277.437 104.078H267.131C266.141 104.078 265.338 104.881 265.338 105.871V116.177C265.338 117.167 266.141 117.97 267.131 117.97H277.437C278.427 117.97 279.23 117.167 279.23 116.177V105.871C279.23 104.881 278.427 104.078 277.437 104.078Z" stroke="#263238" stroke-width="0.160747" stroke-linecap="round" stroke-linejoin="round"/>
<path d="M292.505 104.078H282.199C281.209 104.078 280.406 104.881 280.406 105.871V116.177C280.406 117.167 281.209 117.97 282.199 117.97H292.505C293.495 117.97 294.298 117.167 294.298 116.177V105.871C294.298 104.881 293.495 104.078 292.505 104.078Z" stroke="#263238" stroke-width="0.160747" stroke-linecap="round" stroke-linejoin="round"/>
<path d="M191.017 53.1603V-13.8285" stroke="#263238" stroke-width="0.160747" stroke-linecap="round" stroke-linejoin="round"/>
<path d="M195.462 34.732H193.079V48.6064H195.462V34.732Z" fill="#263238" stroke="#263238" stroke-width="0.160747" stroke-linecap="round" stroke-linejoin="round"/>
<path d="M188.959 34.732H186.576V48.6064H188.959V34.732Z" fill="#263238" stroke="#263238" stroke-width="0.160747" stroke-linecap="round" stroke-linejoin="round"/>
<path d="M159.153 53.1603H338.865" stroke="#263238" stroke-width="0.321494" stroke-linecap="round" stroke-linejoin="round"/>
<path d="M296.59 34.732H294.207V48.6064H296.59V34.732Z" fill="#263238" stroke="#263238" stroke-width="0.160747" stroke-linecap="round" stroke-linejoin="round"/>
<path d="M193.444 109.861H198.779C199.25 109.861 199.701 110.048 200.034 110.381C200.367 110.714 200.554 111.165 200.554 111.636V128.384H191.668V111.636C191.668 111.165 191.855 110.714 192.188 110.381C192.521 110.048 192.973 109.861 193.444 109.861Z" fill="white" stroke="#263238" stroke-width="0.160747" stroke-linecap="round" stroke-linejoin="round"/>
<path d="M193.444 109.861H198.779C199.25 109.861 199.701 110.048 200.034 110.381C200.367 110.714 200.554 111.165 200.554 111.636V114.701H191.668V111.636C191.668 111.165 191.855 110.714 192.188 110.381C192.521 110.048 192.973 109.861 193.444 109.861Z" fill="white" stroke="#263238" stroke-width="0.160747" stroke-linecap="round" stroke-linejoin="round"/>
<path d="M193.535 115.396V126.574" stroke="#263238" stroke-width="0.160747" stroke-linecap="round" stroke-linejoin="round"/>
<path d="M196.352 115.396V126.574" stroke="#263238" stroke-width="0.160747" stroke-linecap="round" stroke-linejoin="round"/>
<path d="M336.208 104.538H293.833C293.083 104.538 292.475 105.147 292.475 105.897V127.243C292.475 127.993 293.083 128.601 293.833 128.601H336.208C336.958 128.601 337.566 127.993 337.566 127.243V105.897C337.566 105.147 336.958 104.538 336.208 104.538Z" fill="white" stroke="#263238" stroke-width="0.160747" stroke-linecap="round" stroke-linejoin="round"/>
<path d="M317.05 106.752C316.421 106.722 315.783 106.705 315.14 106.705C303.94 106.705 294.863 111.172 294.863 116.689C294.863 122.207 303.94 126.674 315.14 126.674C315.783 126.674 316.443 126.674 317.05 126.631V106.752Z" fill="#696969" stroke="#263238" stroke-width="0.160747" stroke-linecap="round" stroke-linejoin="round"/>
<path d="M180.398 106.922H169.992V110.173H180.398V106.922Z" fill="#263238" stroke="#263238" stroke-width="0.160747" stroke-linecap="round" stroke-linejoin="round"/>
<path d="M166.272 109.305H184.331L188.199 124.143H162.404L166.272 109.305Z" fill="white" stroke="#263238" stroke-width="0.160747" stroke-linecap="round" stroke-linejoin="round"/>
<path d="M188.199 124.03H162.404V128.597H188.199V124.03Z" fill="#263238" stroke="#263238" stroke-width="0.160747" stroke-linecap="round" stroke-linejoin="round"/>
<path d="M184.418 109.63L184.331 109.292H166.272L166.185 109.63C167.487 115.491 171.078 119.698 175.302 119.698C179.526 119.698 183.111 115.504 184.418 109.63Z" fill="#696969" stroke="#263238" stroke-width="0.160747" stroke-linecap="round" stroke-linejoin="round"/>
<path d="M170.861 120.145H169.341V122.962H170.861V120.145Z" fill="white" stroke="#263238" stroke-width="0.160747" stroke-linecap="round" stroke-linejoin="round"/>
<path d="M174.329 120.145H172.81V122.962H174.329V120.145Z" fill="white" stroke="#263238" stroke-width="0.160747" stroke-linecap="round" stroke-linejoin="round"/>
<path d="M177.798 120.145H176.278V122.962H177.798V120.145Z" fill="white" stroke="#263238" stroke-width="0.160747" stroke-linecap="round" stroke-linejoin="round"/>
<path d="M181.266 120.145H179.747V122.962H181.266V120.145Z" fill="white" stroke="#263238" stroke-width="0.160747" stroke-linecap="round" stroke-linejoin="round"/>
</g>
</g>
<path d="M183.766 84.7502C183.688 85.8211 183.292 86.6642 182.576 87.2795C181.865 87.8947 180.926 88.2023 179.76 88.2023C178.484 88.2023 177.479 87.7739 176.745 86.9172C176.016 86.0558 175.651 84.8755 175.651 83.3762V82.7678C175.651 81.8107 175.82 80.9676 176.157 80.2385C176.494 79.5093 176.975 78.951 177.6 78.5637C178.229 78.1717 178.958 77.9758 179.787 77.9758C180.936 77.9758 181.861 78.2834 182.562 78.8986C183.264 79.5139 183.67 80.3775 183.779 81.4894H181.729C181.678 80.8469 181.498 80.382 181.188 80.0949C180.883 79.8032 180.416 79.6574 179.787 79.6574C179.104 79.6574 178.591 79.9035 178.249 80.3957C177.912 80.8833 177.739 81.6421 177.729 82.6721V83.424C177.729 84.4995 177.891 85.2857 178.215 85.7824C178.543 86.2792 179.058 86.5275 179.76 86.5275C180.393 86.5275 180.865 86.384 181.175 86.0969C181.489 85.8052 181.669 85.3563 181.715 84.7502H183.766ZM189.269 88.0656C189.177 87.8879 189.111 87.6668 189.07 87.4025C188.592 87.9357 187.97 88.2023 187.204 88.2023C186.479 88.2023 185.878 87.9927 185.399 87.5734C184.925 87.1542 184.688 86.6255 184.688 85.9875C184.688 85.2036 184.978 84.6021 185.557 84.1828C186.14 83.7635 186.981 83.5516 188.079 83.5471H188.988V83.1232C188.988 82.7814 188.899 82.508 188.722 82.3029C188.549 82.0978 188.273 81.9953 187.895 81.9953C187.562 81.9953 187.3 82.0751 187.108 82.2346C186.922 82.3941 186.828 82.6128 186.828 82.8908H184.853C184.853 82.4624 184.985 82.0659 185.249 81.7014C185.513 81.3368 185.887 81.0519 186.37 80.8469C186.853 80.6372 187.396 80.5324 187.997 80.5324C188.909 80.5324 189.631 80.7626 190.164 81.2228C190.702 81.6786 190.971 82.3211 190.971 83.1506V86.3566C190.975 87.0585 191.073 87.5894 191.265 87.9494V88.0656H189.269ZM187.635 86.6916C187.926 86.6916 188.195 86.6278 188.441 86.5002C188.688 86.368 188.87 86.1926 188.988 85.9738V84.7023H188.25C187.261 84.7023 186.735 85.0441 186.671 85.7277L186.664 85.8439C186.664 86.09 186.751 86.2928 186.924 86.4523C187.097 86.6118 187.334 86.6916 187.635 86.6916ZM194.573 88.0656H192.591V77.5656H194.573V88.0656ZM195.899 84.299C195.899 83.5653 196.041 82.9113 196.323 82.3371C196.606 81.7629 197.011 81.3185 197.54 81.0041C198.073 80.6896 198.691 80.5324 199.393 80.5324C200.391 80.5324 201.204 80.8377 201.833 81.4484C202.466 82.0591 202.82 82.8885 202.893 83.9367L202.906 84.4426C202.906 85.5773 202.59 86.4888 201.956 87.1769C201.323 87.8605 200.473 88.2023 199.406 88.2023C198.34 88.2023 197.488 87.8605 196.85 87.1769C196.216 86.4933 195.899 85.5637 195.899 84.3879V84.299ZM197.875 84.4426C197.875 85.1444 198.007 85.6821 198.271 86.0558C198.536 86.425 198.914 86.6096 199.406 86.6096C199.885 86.6096 200.258 86.4273 200.527 86.0627C200.796 85.6935 200.931 85.1057 200.931 84.299C200.931 83.6109 200.796 83.0777 200.527 82.6994C200.258 82.3211 199.88 82.132 199.393 82.132C198.91 82.132 198.536 82.3211 198.271 82.6994C198.007 83.0731 197.875 83.6542 197.875 84.4426ZM208.279 82.5217C208.01 82.4852 207.773 82.467 207.568 82.467C206.821 82.467 206.331 82.7199 206.099 83.2258V88.0656H204.123V80.6691H205.989L206.044 81.551C206.44 80.8719 206.99 80.5324 207.691 80.5324C207.91 80.5324 208.115 80.562 208.307 80.6213L208.279 82.5217ZM211.321 88.0656H209.339V80.6691H211.321V88.0656ZM209.223 78.7551C209.223 78.4588 209.321 78.215 209.517 78.0236C209.717 77.8322 209.988 77.7365 210.33 77.7365C210.667 77.7365 210.936 77.8322 211.137 78.0236C211.337 78.215 211.438 78.4588 211.438 78.7551C211.438 79.0558 211.335 79.3019 211.13 79.4933C210.929 79.6848 210.663 79.7805 210.33 79.7805C209.997 79.7805 209.729 79.6848 209.523 79.4933C209.323 79.3019 209.223 79.0558 209.223 78.7551ZM216.359 88.2023C215.275 88.2023 214.391 87.8696 213.707 87.2043C213.028 86.5389 212.688 85.6525 212.688 84.5451V84.3537C212.688 83.6109 212.832 82.9478 213.119 82.3644C213.406 81.7766 213.812 81.3254 214.336 81.0109C214.865 80.6919 215.466 80.5324 216.141 80.5324C217.152 80.5324 217.948 80.8514 218.526 81.4894C219.11 82.1275 219.401 83.0321 219.401 84.2033V85.0099H214.691C214.755 85.493 214.947 85.8804 215.266 86.1721C215.589 86.4637 215.997 86.6096 216.489 86.6096C217.25 86.6096 217.845 86.3338 218.273 85.7824L219.244 86.8693C218.948 87.2886 218.547 87.6167 218.041 87.8537C217.535 88.0861 216.975 88.2023 216.359 88.2023ZM216.134 82.132C215.742 82.132 215.423 82.2642 215.177 82.5285C214.935 82.7928 214.78 83.1711 214.712 83.6633H217.46V83.506C217.451 83.0685 217.332 82.7313 217.104 82.4943C216.877 82.2528 216.553 82.132 216.134 82.132ZM224.535 86.0217C224.535 85.7801 224.414 85.591 224.173 85.4543C223.936 85.313 223.553 85.1877 223.024 85.0783C221.265 84.7092 220.386 83.9618 220.386 82.8361C220.386 82.1799 220.657 81.633 221.199 81.1955C221.746 80.7534 222.459 80.5324 223.339 80.5324C224.278 80.5324 225.027 80.7534 225.588 81.1955C226.153 81.6376 226.436 82.2118 226.436 82.9182H224.46C224.46 82.6356 224.369 82.4032 224.187 82.2209C224.004 82.034 223.719 81.9406 223.332 81.9406C222.999 81.9406 222.742 82.0158 222.56 82.1662C222.377 82.3166 222.286 82.508 222.286 82.7404C222.286 82.9592 222.389 83.1369 222.594 83.2736C222.803 83.4058 223.154 83.522 223.646 83.6223C224.139 83.718 224.553 83.8273 224.891 83.9504C225.934 84.3332 226.456 84.9963 226.456 85.9396C226.456 86.6141 226.167 87.161 225.588 87.5803C225.009 87.995 224.262 88.2023 223.346 88.2023C222.726 88.2023 222.174 88.093 221.691 87.8742C221.213 87.6509 220.837 87.3478 220.563 86.965C220.29 86.5777 220.153 86.1607 220.153 85.7141H222.026C222.045 86.065 222.174 86.3338 222.416 86.5207C222.658 86.7075 222.981 86.801 223.387 86.801C223.765 86.801 224.05 86.7303 224.241 86.5891C224.437 86.4432 224.535 86.2541 224.535 86.0217ZM233.586 78.8508V80.6691H234.851V82.1183H233.586V85.8098C233.586 86.0832 233.638 86.2792 233.743 86.3976C233.848 86.5161 234.049 86.5754 234.345 86.5754C234.563 86.5754 234.757 86.5594 234.926 86.5275V88.0246C234.538 88.1431 234.14 88.2023 233.729 88.2023C232.344 88.2023 231.638 87.5028 231.61 86.1037V82.1183H230.53V80.6691H231.61V78.8508H233.586ZM240.107 82.5217C239.839 82.4852 239.602 82.467 239.396 82.467C238.649 82.467 238.159 82.7199 237.927 83.2258V88.0656H235.951V80.6691H237.817L237.872 81.551C238.269 80.8719 238.818 80.5324 239.52 80.5324C239.738 80.5324 239.943 80.562 240.135 80.6213L240.107 82.5217ZM245.146 88.0656C245.054 87.8879 244.988 87.6668 244.947 87.4025C244.469 87.9357 243.847 88.2023 243.081 88.2023C242.356 88.2023 241.755 87.9927 241.276 87.5734C240.802 87.1542 240.565 86.6255 240.565 85.9875C240.565 85.2036 240.855 84.6021 241.434 84.1828C242.017 83.7635 242.858 83.5516 243.956 83.5471H244.865V83.1232C244.865 82.7814 244.776 82.508 244.599 82.3029C244.425 82.0978 244.15 81.9953 243.771 81.9953C243.439 81.9953 243.177 82.0751 242.985 82.2346C242.799 82.3941 242.705 82.6128 242.705 82.8908H240.729C240.729 82.4624 240.862 82.0659 241.126 81.7014C241.39 81.3368 241.764 81.0519 242.247 80.8469C242.73 80.6372 243.272 80.5324 243.874 80.5324C244.785 80.5324 245.508 80.7626 246.041 81.2228C246.579 81.6786 246.848 82.3211 246.848 83.1506V86.3566C246.852 87.0585 246.95 87.5894 247.142 87.9494V88.0656H245.146ZM243.512 86.6916C243.803 86.6916 244.072 86.6278 244.318 86.5002C244.564 86.368 244.747 86.1926 244.865 85.9738V84.7023H244.127C243.138 84.7023 242.612 85.0441 242.548 85.7277L242.541 85.8439C242.541 86.09 242.628 86.2928 242.801 86.4523C242.974 86.6118 243.211 86.6916 243.512 86.6916ZM251.441 86.6096C251.806 86.6096 252.102 86.5093 252.33 86.3088C252.558 86.1083 252.676 85.8417 252.686 85.509H254.538C254.534 86.0103 254.397 86.4706 254.128 86.8898C253.859 87.3045 253.49 87.6281 253.021 87.8605C252.556 88.0884 252.041 88.2023 251.476 88.2023C250.418 88.2023 249.584 87.8674 248.974 87.1974C248.363 86.523 248.058 85.5933 248.058 84.4084V84.2785C248.058 83.1392 248.361 82.23 248.967 81.551C249.573 80.8719 250.405 80.5324 251.462 80.5324C252.387 80.5324 253.128 80.7967 253.684 81.3254C254.244 81.8495 254.529 82.549 254.538 83.424H252.686C252.676 83.0412 252.558 82.7313 252.33 82.4943C252.102 82.2528 251.801 82.132 251.428 82.132C250.967 82.132 250.619 82.3006 250.382 82.6379C250.149 82.9706 250.033 83.5129 250.033 84.2648V84.4699C250.033 85.231 250.149 85.7779 250.382 86.1105C250.614 86.4432 250.967 86.6096 251.441 86.6096ZM258.353 85.0988L257.642 85.8098V88.0656H255.666V77.5656H257.642V83.383L258.024 82.8908L259.918 80.6691H262.29L259.617 83.7521L262.522 88.0656H260.253L258.353 85.0988ZM266.412 88.2023C265.327 88.2023 264.443 87.8696 263.76 87.2043C263.081 86.5389 262.741 85.6525 262.741 84.5451V84.3537C262.741 83.6109 262.885 82.9478 263.172 82.3644C263.459 81.7766 263.865 81.3254 264.389 81.0109C264.917 80.6919 265.519 80.5324 266.193 80.5324C267.205 80.5324 268 80.8514 268.579 81.4894C269.162 82.1275 269.454 83.0321 269.454 84.2033V85.0099H264.744C264.808 85.493 264.999 85.8804 265.318 86.1721C265.642 86.4637 266.05 86.6096 266.542 86.6096C267.303 86.6096 267.898 86.3338 268.326 85.7824L269.297 86.8693C269.001 87.2886 268.6 87.6167 268.094 87.8537C267.588 88.0861 267.027 88.2023 266.412 88.2023ZM266.187 82.132C265.795 82.132 265.476 82.2642 265.229 82.5285C264.988 82.7928 264.833 83.1711 264.765 83.6633H267.513V83.506C267.504 83.0685 267.385 82.7313 267.157 82.4943C266.929 82.2528 266.606 82.132 266.187 82.132ZM274.738 82.5217C274.469 82.4852 274.232 82.467 274.027 82.467C273.28 82.467 272.79 82.7199 272.558 83.2258V88.0656H270.582V80.6691H272.448L272.503 81.551C272.899 80.8719 273.449 80.5324 274.15 80.5324C274.369 80.5324 274.574 80.562 274.766 80.6213L274.738 82.5217Z" fill="white"/>
<path d="M235.667 43.0656H214.333C213.98 43.0656 213.641 43.2061 213.391 43.4561C213.14 43.7062 213 44.0453 213 44.3989V65.7323C213 66.0859 213.14 66.425 213.391 66.6751C213.641 66.9251 213.98 67.0656 214.333 67.0656H235.667C236.02 67.0656 236.359 66.9251 236.609 66.6751C236.86 66.425 237 66.0859 237 65.7323V44.3989C237 44.0453 236.86 43.7062 236.609 43.4561C236.359 43.2061 236.02 43.0656 235.667 43.0656ZM234.333 64.3989H215.667V45.7323H234.333V64.3989Z" fill="#F9F8FC"/>
<path d="M225 61.7323C228.682 61.7323 231.667 58.7475 231.667 55.0656C231.667 51.3837 228.682 48.3989 225 48.3989C221.318 48.3989 218.333 51.3837 218.333 55.0656C218.333 58.7475 221.318 61.7323 225 61.7323Z" fill="#F9F8FC"/>
<defs>
<linearGradient id="paint0_linear_1607_40260" x1="0" y1="0.629883" x2="127.996" y2="139.68" gradientUnits="userSpaceOnUse">
<stop stop-color="#3B2667"/>
<stop offset="1" stop-color="#BC78EC"/>
</linearGradient>
<linearGradient id="paint1_linear_1607_40260" x1="0" y1="0.629822" x2="127.996" y2="139.68" gradientUnits="userSpaceOnUse">
<stop stop-color="#3B2667"/>
<stop offset="1" stop-color="#BC78EC"/>
</linearGradient>
<linearGradient id="paint2_linear_1607_40260" x1="155.473" y1="0.629883" x2="283.47" y2="139.68" gradientUnits="userSpaceOnUse">
<stop stop-color="#FF7AF5"/>
<stop offset="1" stop-color="#513162"/>
</linearGradient>
<linearGradient id="paint3_linear_1607_40260" x1="155.473" y1="0.629822" x2="283.47" y2="139.68" gradientUnits="userSpaceOnUse">
<stop stop-color="#FF7AF5"/>
<stop offset="1" stop-color="#513162"/>
</linearGradient>
</defs>
</svg>
