<svg width="295" height="129" viewBox="0 0 295 129" fill="none" xmlns="http://www.w3.org/2000/svg">
<rect y="0.0656738" width="139.527" height="128.564" rx="3.64479" fill="url(#paint0_linear_1607_40084)"/>
<mask id="mask0_1607_40084" style="mask-type:alpha" maskUnits="userSpaceOnUse" x="0" y="0" width="140" height="129">
<rect y="0.0656738" width="139.527" height="128.564" rx="3.64479" fill="url(#paint1_linear_1607_40084)"/>
</mask>
<g mask="url(#mask0_1607_40084)">
<g style="mix-blend-mode:overlay" opacity="0.4">
<path d="M110.038 55.8453C110.038 55.8453 110.038 53.3029 106.476 49.7412C102.914 46.1794 100.624 44.1447 100.624 44.1447C100.624 44.1447 98.8407 49.997 102.151 53.5588C105.461 57.1205 110.038 60.4305 110.038 60.4305V55.8453Z" fill="#92E3A9"/>
<path d="M104.869 71.7354C104.869 71.7354 104.869 69.193 101.307 65.6312C97.7457 62.0695 95.4551 60.0347 95.4551 60.0347C95.4551 60.0347 93.6722 65.8871 96.9821 69.4528C100.292 73.0186 104.869 76.3245 104.869 76.3245V71.7354Z" fill="#92E3A9"/>
<path d="M109.814 60.1786C109.814 60.1786 110.082 57.6482 114.004 54.4822C117.925 51.3162 120.4 49.5373 120.4 49.5373C120.4 49.5373 121.555 55.5335 117.889 58.7315C114.224 61.9295 109.319 64.7278 109.319 64.7278L109.814 60.1786Z" fill="#92E3A9"/>
<path d="M103.57 78.947C103.57 78.947 104.101 76.4605 108.331 73.7222C112.56 70.984 115.226 69.4729 115.226 69.4729C115.226 69.4729 115.742 75.5691 111.761 78.3594C107.779 81.1496 102.61 83.4242 102.61 83.4242L103.57 78.947Z" fill="#92E3A9"/>
<path d="M104.741 99.4061C104.741 99.4061 104.741 96.8637 108.307 93.3019C111.873 89.7402 114.155 87.7054 114.155 87.7054C114.155 87.7054 115.938 93.5538 112.648 97.1116C109.358 100.669 104.757 103.983 104.757 103.983L104.741 99.4061Z" fill="#92E3A9"/>
<path d="M104.685 104.403C104.685 104.403 105.045 101.885 102.027 97.8511C99.0085 93.8176 97.0258 91.4791 97.0258 91.4791C97.0258 91.4791 94.4314 97.0196 97.2016 101.013C99.9719 105.007 104.033 108.936 104.033 108.936L104.685 104.403Z" fill="#92E3A9"/>
<path d="M101.172 119.202C101.172 119.202 101.172 116.659 104.733 113.098C108.295 109.536 110.586 107.501 110.586 107.501C110.586 107.501 112.365 113.353 109.059 116.915C105.753 120.477 101.172 123.787 101.172 123.787V119.202Z" fill="#92E3A9"/>
<path d="M103.55 132.621C103.55 132.621 102.906 130.159 105.449 125.826C107.991 121.492 109.694 118.926 109.694 118.926C109.694 118.926 112.892 124.123 110.602 128.42C108.311 132.717 104.709 137.063 104.709 137.063L103.55 132.621Z" fill="#92E3A9"/>
<path d="M110.362 55.1938C110.18 57.8426 109.855 60.4795 109.386 63.0928C107.975 70.3683 104.457 75.0854 103.05 81.6333C101.643 88.1812 105.685 96.6719 104.601 105.111C103.518 113.549 100.232 118.246 101.171 123.879C102.111 129.511 107.168 145.066 107.168 145.066" stroke="#263238" stroke-width="0.0283378" stroke-linecap="round" stroke-linejoin="round"/>
<path d="M109.778 61.8696L113.62 58.9235" stroke="#263238" stroke-width="0.0283378" stroke-linecap="round" stroke-linejoin="round"/>
<path d="M109.958 58.4797L108.351 55.6215" stroke="#263238" stroke-width="0.0283378" stroke-linecap="round" stroke-linejoin="round"/>
<path d="M103.262 81.3334C103.262 81.3334 106.46 78.9349 109.778 76.5124" stroke="#263238" stroke-width="0.0283378" stroke-linecap="round" stroke-linejoin="round"/>
<path d="M104.869 76.3246C104.869 76.3246 102.191 71.0759 99.1567 67.5941" stroke="#263238" stroke-width="0.0283378" stroke-linecap="round" stroke-linejoin="round"/>
<path d="M104.869 103.028C106.704 99.6462 109.02 96.5491 111.745 93.8336" stroke="#263238" stroke-width="0.0283378" stroke-linecap="round" stroke-linejoin="round"/>
<path d="M104.253 106.598C103.278 104.303 102.113 102.092 100.772 99.9898C98.8967 97.2235 98.6289 96.8677 98.6289 96.8677" stroke="#263238" stroke-width="0.0283378" stroke-linecap="round" stroke-linejoin="round"/>
<path d="M101.172 123.895C101.985 121.873 102.953 119.916 104.066 118.043C105.177 116.295 106.431 114.642 107.815 113.102" stroke="#263238" stroke-width="0.0283378" stroke-linecap="round" stroke-linejoin="round"/>
<path d="M104.709 137.051C104.709 137.051 104.333 134.004 105.673 131.418C107.012 128.832 108.531 125.422 109.154 124.095" stroke="#263238" stroke-width="0.0283378" stroke-linecap="round" stroke-linejoin="round"/>
<path d="M80.968 89.8401C80.968 89.8401 80.6921 88.2411 82.539 85.6228C84.3858 83.0044 85.6011 81.4774 85.6011 81.4774C85.6011 81.4774 87.352 84.9552 85.665 87.5456C84.4133 89.3831 83.0092 91.1121 81.4676 92.7143L80.968 89.8401Z" fill="#92E3A9"/>
<path d="M85.9367 99.2423C85.9367 99.2423 85.6609 97.6433 87.5077 95.0249C89.3546 92.4066 90.5698 90.8795 90.5698 90.8795C90.5698 90.8795 92.3207 94.3573 90.6338 96.9477C89.3806 98.784 87.9752 100.512 86.4324 102.112L85.9367 99.2423Z" fill="#92E3A9"/>
<path d="M81.5794 92.5304C81.5794 92.5304 81.1357 90.9754 78.3334 89.4164C75.5312 87.8574 73.7763 87.0179 73.7763 87.0179C73.7763 87.0179 73.7083 90.9114 76.3507 92.5144C78.2772 93.6263 80.2937 94.5744 82.3789 95.3487L81.5794 92.5304Z" fill="#92E3A9"/>
<path d="M87.5319 103.624C87.5319 103.624 86.9283 102.12 83.9782 100.861C81.028 99.6021 79.1812 98.9465 79.1812 98.9465C79.1812 98.9465 79.5209 102.824 82.3192 104.143C84.3503 105.046 86.4537 105.776 88.6073 106.326L87.5319 103.624Z" fill="#92E3A9"/>
<path d="M89.019 116.579C89.019 116.579 88.7432 114.98 86.1208 113.138C83.4984 111.295 81.8435 110.263 81.8435 110.263C81.8435 110.263 81.3638 114.125 83.8222 116C85.6205 117.307 87.5245 118.462 89.5147 119.454L89.019 116.579Z" fill="#92E3A9"/>
<path d="M89.599 119.705C89.599 119.705 89.0993 118.166 90.5544 115.308C92.0095 112.45 92.9968 110.771 92.9968 110.771C92.9968 110.771 95.2234 113.969 93.9202 116.767C92.9417 118.763 91.797 120.672 90.4984 122.476L89.599 119.705Z" fill="#92E3A9"/>
<path d="M94.0679 132.573C94.0679 132.573 94.2518 130.974 96.7622 128.976C99.2726 126.977 100.872 125.862 100.872 125.862C100.872 125.862 101.571 129.691 99.2207 131.706C97.5009 133.117 95.6663 134.382 93.7361 135.488L94.0679 132.573Z" fill="#92E3A9"/>
<path d="M93.4081 128.604C93.4081 128.604 93.1323 127.005 90.5099 125.162C87.8876 123.319 86.2326 122.288 86.2326 122.288C86.2326 122.288 85.7529 126.149 88.2114 128.024C90.0092 129.336 91.9133 130.495 93.9038 131.49L93.4081 128.604Z" fill="#92E3A9"/>
<path d="M80.6963 89.4644C81.0956 91.1065 81.5854 92.7253 82.1634 94.3134C83.8383 98.7106 86.5606 101.285 88.1596 105.251C89.7586 109.216 88.1396 114.968 89.7346 120.141C91.3296 125.314 93.9 127.904 93.924 131.538C93.948 135.172 92.6168 145.002 92.6168 145.002" stroke="#263238" stroke-width="0.0283378" stroke-linecap="round" stroke-linejoin="round"/>
<path d="M81.7834 93.5898L79.0571 92.1587" stroke="#263238" stroke-width="0.0283378" stroke-linecap="round" stroke-linejoin="round"/>
<path d="M81.3037 91.4791L82.0033 89.5164" stroke="#263238" stroke-width="0.0283378" stroke-linecap="round" stroke-linejoin="round"/>
<path d="M87.9836 105.107C87.9836 105.107 85.7091 103.943 83.3745 102.788" stroke="#263238" stroke-width="0.0283378" stroke-linecap="round" stroke-linejoin="round"/>
<path d="M86.4326 102.112C86.4326 102.112 87.5399 98.5147 89.067 96.0162" stroke="#263238" stroke-width="0.0283378" stroke-linecap="round" stroke-linejoin="round"/>
<path d="M89.3307 118.862C87.8137 116.941 86.0255 115.251 84.022 113.845" stroke="#263238" stroke-width="0.0283378" stroke-linecap="round" stroke-linejoin="round"/>
<path d="M90.1104 121.037C90.4732 119.491 90.9639 117.979 91.5774 116.515C92.4529 114.577 92.5808 114.321 92.5808 114.321" stroke="#263238" stroke-width="0.0283378" stroke-linecap="round" stroke-linejoin="round"/>
<path d="M93.916 131.538C93.1851 130.359 92.3659 129.236 91.4655 128.18C90.5779 127.213 89.6126 126.32 88.5793 125.51" stroke="#263238" stroke-width="0.0283378" stroke-linecap="round" stroke-linejoin="round"/>
<path d="M2.84074 89.8401C2.84074 89.8401 3.11657 88.2411 1.26973 85.6228C-0.577118 83.0044 -1.79236 81.4774 -1.79236 81.4774C-1.79236 81.4774 -3.54327 84.9552 -1.85632 87.5456C-0.603313 89.3833 0.802106 91.1123 2.34506 92.7143L2.84074 89.8401Z" fill="#92E3A9"/>
<path d="M2.23309 92.5304C2.23309 92.5304 2.67282 90.9754 5.47507 89.4164C8.27732 87.8574 10.0322 87.0179 10.0322 87.0179C10.0322 87.0179 10.1042 90.9114 7.45783 92.5144C5.53251 93.6259 3.51737 94.574 1.43359 95.3487L2.23309 92.5304Z" fill="#92E3A9"/>
<path d="M-3.72301 103.624C-3.72301 103.624 -3.11939 102.12 -0.169232 100.861C2.78092 99.6021 4.62777 98.9465 4.62777 98.9465C4.62777 98.9465 4.28798 102.824 1.48973 104.143C-0.541355 105.046 -2.6448 105.776 -4.79834 106.326L-3.72301 103.624Z" fill="#92E3A9"/>
<path d="M-5.20616 116.579C-5.20616 116.579 -4.93033 114.98 -2.31197 113.138C0.306396 111.295 1.96536 110.263 1.96536 110.263C1.96536 110.263 2.44906 114.125 -0.0333924 116C-1.83102 117.308 -3.73516 118.463 -5.72583 119.454L-5.20616 116.579Z" fill="#92E3A9"/>
<path d="M3.11666 89.4644C2.71428 91.1061 2.2232 92.7248 1.64558 94.3134C-0.025377 98.7106 -2.75167 101.285 -4.35067 105.251C-5.94967 109.216 -4.35068 114.968 -5.92969 120.141C-7.50871 125.314 -10.0751 127.892 -10.1031 131.538C-10.1311 135.184 -8.7959 145.002 -8.7959 145.002" stroke="#263238" stroke-width="0.0283378" stroke-linecap="round" stroke-linejoin="round"/>
<path d="M2.02539 93.5898L4.75168 92.1587" stroke="#263238" stroke-width="0.0283378" stroke-linecap="round" stroke-linejoin="round"/>
<path d="M2.50514 91.4791L1.80957 89.5164" stroke="#263238" stroke-width="0.0283378" stroke-linecap="round" stroke-linejoin="round"/>
<path d="M-4.1748 105.107C-4.1748 105.107 -1.89623 103.943 0.434314 102.788" stroke="#263238" stroke-width="0.0283378" stroke-linecap="round" stroke-linejoin="round"/>
</g>
</g>
<path d="M35.6895 84.1946L37.0293 77.1125H39.0732L36.8652 87.0657H34.8008L33.1807 80.4075L31.5605 87.0657H29.4961L27.2881 77.1125H29.332L30.6787 84.1809L32.3193 77.1125H34.0557L35.6895 84.1946ZM44.1113 87.0657C44.0202 86.8879 43.9541 86.6669 43.9131 86.4026C43.4346 86.9358 42.8125 87.2024 42.0469 87.2024C41.3223 87.2024 40.7207 86.9928 40.2422 86.5735C39.7682 86.1542 39.5312 85.6256 39.5312 84.9875C39.5312 84.2037 39.8206 83.6021 40.3994 83.1829C40.9827 82.7636 41.8236 82.5517 42.9219 82.5471H43.8311V82.1233C43.8311 81.7815 43.7422 81.5081 43.5645 81.303C43.3913 81.0979 43.1156 80.9954 42.7373 80.9954C42.4046 80.9954 42.1426 81.0751 41.9512 81.2346C41.7643 81.3941 41.6709 81.6129 41.6709 81.8909H39.6953C39.6953 81.4625 39.8275 81.066 40.0918 80.7014C40.3561 80.3368 40.7298 80.052 41.2129 79.8469C41.696 79.6373 42.2383 79.5325 42.8398 79.5325C43.7513 79.5325 44.4736 79.7626 45.0068 80.2229C45.5446 80.6786 45.8135 81.3212 45.8135 82.1506V85.3567C45.818 86.0585 45.916 86.5894 46.1074 86.9495V87.0657H44.1113ZM42.4775 85.6917C42.7692 85.6917 43.0381 85.6278 43.2842 85.5002C43.5303 85.3681 43.7126 85.1926 43.8311 84.9739V83.7024H43.0928C42.1038 83.7024 41.5775 84.0442 41.5137 84.7278L41.5068 84.844C41.5068 85.0901 41.5934 85.2929 41.7666 85.4524C41.9398 85.6119 42.1768 85.6917 42.4775 85.6917ZM49.6963 77.8508V79.6692H50.9609V81.1184H49.6963V84.8098C49.6963 85.0833 49.7487 85.2792 49.8535 85.3977C49.9583 85.5162 50.1589 85.5754 50.4551 85.5754C50.6738 85.5754 50.8675 85.5595 51.0361 85.5276V87.0247C50.6488 87.1431 50.25 87.2024 49.8398 87.2024C48.4544 87.2024 47.748 86.5028 47.7207 85.1038V81.1184H46.6406V79.6692H47.7207V77.8508H49.6963ZM55.4658 87.2024C54.3812 87.2024 53.4971 86.8697 52.8135 86.2043C52.1344 85.539 51.7949 84.6526 51.7949 83.5452V83.3538C51.7949 82.6109 51.9385 81.9478 52.2256 81.3645C52.5127 80.7766 52.9183 80.3254 53.4424 80.011C53.971 79.692 54.5726 79.5325 55.2471 79.5325C56.2588 79.5325 57.054 79.8515 57.6328 80.4895C58.2161 81.1275 58.5078 82.0321 58.5078 83.2034V84.01H53.7979C53.8617 84.4931 54.0531 84.8805 54.3721 85.1721C54.6956 85.4638 55.1035 85.6096 55.5957 85.6096C56.3568 85.6096 56.9515 85.3339 57.3799 84.7825L58.3506 85.8694C58.0544 86.2887 57.6533 86.6168 57.1475 86.8538C56.6416 87.0862 56.0811 87.2024 55.4658 87.2024ZM55.2402 81.1321C54.8483 81.1321 54.5293 81.2642 54.2832 81.5286C54.0417 81.7929 53.8867 82.1711 53.8184 82.6633H56.5664V82.5061C56.5573 82.0686 56.4388 81.7314 56.2109 81.4944C55.9831 81.2528 55.6595 81.1321 55.2402 81.1321ZM63.792 81.5217C63.5231 81.4853 63.2861 81.467 63.0811 81.467C62.3337 81.467 61.8438 81.72 61.6113 82.2258V87.0657H59.6357V79.6692H61.502L61.5566 80.551C61.9531 79.872 62.5023 79.5325 63.2041 79.5325C63.4229 79.5325 63.6279 79.5621 63.8193 79.6213L63.792 81.5217ZM70.6006 77.8508V79.6692H71.8652V81.1184H70.6006V84.8098C70.6006 85.0833 70.653 85.2792 70.7578 85.3977C70.8626 85.5162 71.0632 85.5754 71.3594 85.5754C71.5781 85.5754 71.7718 85.5595 71.9404 85.5276V87.0247C71.5531 87.1431 71.1543 87.2024 70.7441 87.2024C69.3587 87.2024 68.6523 86.5028 68.625 85.1038V81.1184H67.5449V79.6692H68.625V77.8508H70.6006ZM77.1221 81.5217C76.8532 81.4853 76.6162 81.467 76.4111 81.467C75.6637 81.467 75.1738 81.72 74.9414 82.2258V87.0657H72.9658V79.6692H74.832L74.8867 80.551C75.2832 79.872 75.8324 79.5325 76.5342 79.5325C76.7529 79.5325 76.958 79.5621 77.1494 79.6213L77.1221 81.5217ZM82.1602 87.0657C82.069 86.8879 82.0029 86.6669 81.9619 86.4026C81.4834 86.9358 80.8613 87.2024 80.0957 87.2024C79.3711 87.2024 78.7695 86.9928 78.291 86.5735C77.8171 86.1542 77.5801 85.6256 77.5801 84.9875C77.5801 84.2037 77.8695 83.6021 78.4482 83.1829C79.0316 82.7636 79.8724 82.5517 80.9707 82.5471H81.8799V82.1233C81.8799 81.7815 81.791 81.5081 81.6133 81.303C81.4401 81.0979 81.1644 80.9954 80.7861 80.9954C80.4535 80.9954 80.1914 81.0751 80 81.2346C79.8132 81.3941 79.7197 81.6129 79.7197 81.8909H77.7441C77.7441 81.4625 77.8763 81.066 78.1406 80.7014C78.4049 80.3368 78.7786 80.052 79.2617 79.8469C79.7448 79.6373 80.2871 79.5325 80.8887 79.5325C81.8001 79.5325 82.5225 79.7626 83.0557 80.2229C83.5934 80.6786 83.8623 81.3212 83.8623 82.1506V85.3567C83.8669 86.0585 83.9648 86.5894 84.1562 86.9495V87.0657H82.1602ZM80.5264 85.6917C80.818 85.6917 81.0869 85.6278 81.333 85.5002C81.5791 85.3681 81.7614 85.1926 81.8799 84.9739V83.7024H81.1416C80.1527 83.7024 79.6263 84.0442 79.5625 84.7278L79.5557 84.844C79.5557 85.0901 79.6423 85.2929 79.8154 85.4524C79.9886 85.6119 80.2256 85.6917 80.5264 85.6917ZM88.4561 85.6096C88.8206 85.6096 89.1169 85.5094 89.3447 85.3088C89.5726 85.1083 89.6911 84.8417 89.7002 84.509H91.5527C91.5482 85.0103 91.4115 85.4706 91.1426 85.8899C90.8737 86.3046 90.5046 86.6282 90.0352 86.8606C89.5703 87.0885 89.0553 87.2024 88.4902 87.2024C87.4329 87.2024 86.599 86.8674 85.9883 86.1975C85.3776 85.523 85.0723 84.5933 85.0723 83.4084V83.2786C85.0723 82.1392 85.3753 81.2301 85.9814 80.551C86.5876 79.872 87.4193 79.5325 88.4766 79.5325C89.4017 79.5325 90.1423 79.7968 90.6982 80.3254C91.2588 80.8495 91.5436 81.5491 91.5527 82.4241H89.7002C89.6911 82.0413 89.5726 81.7314 89.3447 81.4944C89.1169 81.2528 88.8161 81.1321 88.4424 81.1321C87.9821 81.1321 87.6335 81.3007 87.3965 81.6379C87.1641 81.9706 87.0479 82.5129 87.0479 83.2649V83.47C87.0479 84.231 87.1641 84.7779 87.3965 85.1106C87.6289 85.4433 87.9821 85.6096 88.4561 85.6096ZM95.3672 84.0989L94.6562 84.8098V87.0657H92.6807V76.5657H94.6562V82.3831L95.0391 81.8909L96.9326 79.6692H99.3047L96.6318 82.7522L99.5371 87.0657H97.2676L95.3672 84.0989ZM103.427 87.2024C102.342 87.2024 101.458 86.8697 100.774 86.2043C100.095 85.539 99.7559 84.6526 99.7559 83.5452V83.3538C99.7559 82.6109 99.8994 81.9478 100.187 81.3645C100.474 80.7766 100.879 80.3254 101.403 80.011C101.932 79.692 102.534 79.5325 103.208 79.5325C104.22 79.5325 105.015 79.8515 105.594 80.4895C106.177 81.1275 106.469 82.0321 106.469 83.2034V84.01H101.759C101.823 84.4931 102.014 84.8805 102.333 85.1721C102.657 85.4638 103.064 85.6096 103.557 85.6096C104.318 85.6096 104.912 85.3339 105.341 84.7825L106.312 85.8694C106.015 86.2887 105.614 86.6168 105.108 86.8538C104.603 87.0862 104.042 87.2024 103.427 87.2024ZM103.201 81.1321C102.809 81.1321 102.49 81.2642 102.244 81.5286C102.003 81.7929 101.848 82.1711 101.779 82.6633H104.527V82.5061C104.518 82.0686 104.4 81.7314 104.172 81.4944C103.944 81.2528 103.62 81.1321 103.201 81.1321ZM111.753 81.5217C111.484 81.4853 111.247 81.467 111.042 81.467C110.295 81.467 109.805 81.72 109.572 82.2258V87.0657H107.597V79.6692H109.463L109.518 80.551C109.914 79.872 110.463 79.5325 111.165 79.5325C111.384 79.5325 111.589 79.5621 111.78 79.6213L111.753 81.5217Z" fill="white"/>
<path d="M78.556 41.0657L61.0925 41.0808H61.0922C60.4932 41.0808 60.0002 41.5735 60.0002 42.1725C60.0002 42.2062 60.0017 42.2393 60.0049 42.2729L62.1884 66.257C62.2395 66.8129 62.7091 67.2442 63.2674 67.2486L76.3727 67.2657C76.934 67.2657 77.4085 66.8329 77.4604 66.2741L79.6439 42.2582C79.647 42.225 79.6485 42.1914 79.6485 42.158C79.6485 41.5593 79.1555 41.066 78.5565 41.066L78.556 41.0657ZM77.3642 43.2494L76.9677 47.6164H62.6808L62.2843 43.2643L77.3642 43.2494ZM62.8795 49.8018H76.769L75.3812 65.0799L64.2672 65.0736L62.8795 49.8018Z" fill="#F9F8FC"/>
<rect x="155.473" y="0.0656738" width="139.527" height="128.564" rx="3.64479" fill="url(#paint2_linear_1607_40084)"/>
<mask id="mask1_1607_40084" style="mask-type:alpha" maskUnits="userSpaceOnUse" x="155" y="0" width="141" height="129">
<rect x="155.473" y="0.0656738" width="139.527" height="128.564" rx="3.64479" fill="url(#paint3_linear_1607_40084)"/>
</mask>
<g mask="url(#mask1_1607_40084)">
<g style="mix-blend-mode:overlay" opacity="0.3">
<path d="M190.129 108.384C190.129 108.384 180.233 107.284 176.534 102.501C172.834 97.7181 167.109 99.5166 167.58 101.889C168.051 104.26 172.23 106.208 168.436 107.088C164.643 107.967 159.075 102.218 155.305 102.156C151.535 102.093 152.399 106.357 153.812 106.868C155.226 107.378 155.179 109.727 152.336 110.622C149.493 111.517 136.408 102.815 136.298 109.892C136.188 116.968 144.726 114.274 143.273 116.614C141.82 118.955 130 119.701 129.489 122.528C128.979 125.356 136.558 123.581 136.047 125.466C135.537 127.351 130.322 129.149 132.12 132.479C133.919 135.809 138.325 127.861 140.649 130.257C142.974 132.652 141.003 137.812 143.791 138.802C146.579 139.791 152.375 133.304 154.221 136.139C156.066 138.974 159.31 142.359 162.656 139.579C166.002 136.799 168.939 131.662 169.811 134.977C170.682 138.291 174.947 138.362 178.316 134.639C181.686 130.916 185.95 129.573 187.317 132.424C188.684 135.275 193.451 132.526 194.44 129.715C195.43 126.903 196.443 122.646 199.247 124.123C202.051 125.599 203.512 123.251 204.03 120.424C204.548 117.596 206.001 115.264 208.342 116.245C210.682 117.227 212.214 110.646 212.214 110.646C212.214 110.646 217.46 106.954 217.955 105.548C218.45 104.143 216.109 103.192 213.243 103.585C210.376 103.978 203.331 103.899 201.925 103.404C200.519 102.91 195.32 102.823 195.296 104.237C195.273 105.65 191.998 109.373 190.129 108.384Z" fill="#92E3A9" stroke="#263238" stroke-width="0.439459" stroke-miterlimit="10"/>
<path d="M197.017 113.457C195.124 114.282 193.231 115.13 191.425 115.955C183.123 119.764 166.944 123.981 155.297 125.521" stroke="#263238" stroke-width="0.439459" stroke-miterlimit="10"/>
<path d="M216.133 105.501C216.133 105.501 209.441 108.148 201.682 111.447" stroke="#263238" stroke-width="0.439459" stroke-miterlimit="10"/>
<path d="M198.108 83.2828C208.656 81.2565 215.716 71.9025 213.879 62.3915C212.041 52.8805 202.019 46.8173 191.479 48.8436C180.94 50.8699 173.879 60.2239 175.709 69.7349C177.539 79.2459 187.568 85.3169 198.108 83.2828ZM193.105 49.9824C202.004 48.2703 210.431 53.1633 211.954 60.9072C213.478 68.6511 207.431 76.3243 198.532 78.0364C189.634 79.7486 181.207 74.8556 179.683 67.1117C178.159 59.3678 184.199 51.7024 193.105 49.9824Z" fill="white" stroke="#263238" stroke-width="0.439459" stroke-linecap="round" stroke-linejoin="round"/>
<path d="M188.77 82.7565L189.445 81.1464" stroke="#263238" stroke-width="0.439459" stroke-linecap="round" stroke-linejoin="round"/>
<path d="M183.202 80.1255L183.877 79.1359" stroke="#263238" stroke-width="0.439459" stroke-linecap="round" stroke-linejoin="round"/>
<path d="M178.096 75.429L179.345 74.2038" stroke="#263238" stroke-width="0.439459" stroke-linecap="round" stroke-linejoin="round"/>
<path d="M197.001 83.1493L196.844 81.7042" stroke="#263238" stroke-width="0.439459" stroke-linecap="round" stroke-linejoin="round"/>
<path d="M205.2 80.212L205.043 79.3795" stroke="#263238" stroke-width="0.439459" stroke-linecap="round" stroke-linejoin="round"/>
<path d="M175.379 66.4441L177.068 66.2399" stroke="#263238" stroke-width="0.439459" stroke-linecap="round" stroke-linejoin="round"/>
<path d="M186.587 52.1815L185.597 50.8935" stroke="#263238" stroke-width="0.439459" stroke-linecap="round" stroke-linejoin="round"/>
<path d="M179.361 58.2682L178.152 57.7578" stroke="#263238" stroke-width="0.439459" stroke-linecap="round" stroke-linejoin="round"/>
<path d="M211.578 73.5519L211.028 73.2927" stroke="#263238" stroke-width="0.439459" stroke-linecap="round" stroke-linejoin="round"/>
<path d="M213.659 0.558228C213.659 1.86982 211.766 2.99292 211.546 4.24954C211.326 5.50615 212.701 7.22615 212.285 8.43564C211.868 9.64514 209.74 10.1478 209.143 11.2866C208.546 12.4254 209.324 14.4281 208.546 15.4884C207.769 16.5487 205.593 16.3288 204.666 17.232C203.74 18.1352 203.881 20.3028 202.805 21.0489C201.729 21.795 199.75 20.939 198.58 21.5123C197.409 22.0856 196.875 24.1826 195.634 24.5675C194.393 24.9523 192.768 23.5072 191.472 23.6878C190.176 23.8685 189.029 25.6984 187.718 25.6827C186.406 25.667 185.283 23.7899 184.034 23.57C182.785 23.3501 181.058 24.7245 179.848 24.3083C178.639 23.892 178.128 21.7636 176.997 21.1667C175.866 20.5699 173.816 21.3474 172.788 20.5698C171.759 19.7923 171.947 17.6168 171.052 16.6901C170.156 15.7633 167.973 15.9047 167.235 14.8287C166.497 13.7527 167.345 11.7735 166.771 10.6112C166.198 9.44879 164.101 8.89903 163.716 7.65812C163.331 6.41721 164.769 4.79146 164.588 3.49557C164.407 2.19969 162.577 1.05303 162.601 -0.258566C162.625 -1.57016 164.494 -2.69326 164.706 -3.94203C164.918 -5.19079 163.559 -6.91864 163.968 -8.12813C164.376 -9.33763 166.52 -9.84813 167.109 -10.9791C167.698 -12.11 166.936 -14.1599 167.706 -15.1888C168.476 -16.2176 170.659 -16.0291 171.586 -16.9244C172.513 -17.8198 172.371 -20.0032 173.447 -20.7414C174.523 -21.4797 176.51 -20.6315 177.673 -21.2048C178.835 -21.7781 179.385 -23.8751 180.626 -24.2599C181.867 -24.6448 183.492 -23.2075 184.78 -23.3882C186.068 -23.5688 187.223 -25.3988 188.534 -25.3752C189.846 -25.3516 190.969 -23.4824 192.226 -23.2625C193.482 -23.0426 195.202 -24.417 196.412 -24.0479C197.621 -23.6788 198.124 -21.4954 199.263 -20.9064C200.402 -20.3173 202.404 -21.087 203.465 -20.3095C204.525 -19.5319 204.305 -17.3643 205.208 -16.4375C206.111 -15.5108 208.279 -15.6521 209.025 -14.5762C209.771 -13.5002 208.915 -11.5131 209.481 -10.3508C210.046 -9.1884 212.159 -8.63863 212.544 -7.39772C212.929 -6.15681 211.483 -4.53106 211.664 -3.24303C211.845 -1.955 213.675 -0.753366 213.659 0.558228Z" fill="#92E3A9" stroke="#263238" stroke-width="0.439459" stroke-miterlimit="10"/>
<path d="M213.533 -0.894678C213.533 0.416916 211.64 1.54001 211.42 2.78877C211.2 4.03753 212.575 5.76538 212.166 6.97488C211.758 8.18437 209.614 8.69487 209.025 9.82583C208.436 10.9568 209.198 13.0066 208.42 14.0355C207.642 15.0644 205.475 14.8759 204.548 15.7712C203.621 16.6665 203.763 18.8499 202.687 19.5882C201.611 20.3264 199.624 19.4782 198.461 20.0516C197.299 20.6249 196.749 22.7297 195.508 23.1067C194.267 23.4837 192.642 22.0543 191.354 22.2349C190.066 22.4156 188.911 24.2455 187.599 24.2219C186.288 24.1984 185.165 22.3292 183.908 22.1171C182.652 21.9051 180.932 23.2638 179.722 22.8554C178.513 22.447 178.01 20.3029 176.871 19.7138C175.732 19.1248 173.73 19.8866 172.669 19.1169C171.609 18.3473 171.829 16.1639 170.926 15.2371C170.023 14.3104 167.855 14.4518 167.109 13.3758C166.363 12.2998 167.219 10.3128 166.645 9.1504C166.072 7.98803 163.975 7.44611 163.59 6.19735C163.205 4.94859 164.65 3.33854 164.47 2.04266C164.289 0.746771 162.459 -0.399893 162.475 -1.71149C162.491 -3.02308 164.368 -4.14618 164.588 -5.4028C164.808 -6.65941 163.433 -8.37941 163.849 -9.5889C164.266 -10.7984 166.394 -11.301 166.991 -12.4399C167.588 -13.5787 166.81 -15.5814 167.588 -16.6417C168.365 -17.7019 170.541 -17.482 171.468 -18.3852C172.394 -19.2884 172.253 -21.4561 173.329 -22.2022C174.405 -22.9483 176.384 -22.0922 177.547 -22.6577C178.709 -23.2232 179.259 -25.3359 180.5 -25.7129C181.74 -26.0898 183.366 -24.6604 184.662 -24.8411C185.958 -25.0217 187.105 -26.8517 188.416 -26.836C189.728 -26.8203 190.851 -24.9432 192.1 -24.7233C193.348 -24.5034 195.076 -25.8778 196.286 -25.4615C197.495 -25.0453 198.006 -22.9169 199.137 -22.32C200.268 -21.7231 202.318 -22.4928 203.346 -21.7231C204.375 -20.9534 204.187 -18.7701 205.082 -17.8433C205.977 -16.9165 208.161 -17.0579 208.899 -15.9819C209.637 -14.906 208.789 -12.9268 209.362 -11.7566C209.936 -10.5863 212.033 -10.0523 212.418 -8.81137C212.802 -7.57046 211.365 -5.94471 211.546 -4.64882C211.726 -3.35294 213.556 -2.20627 213.533 -0.894678Z" fill="#92E3A9" stroke="#263238" stroke-width="0.439459" stroke-miterlimit="10"/>
<path d="M210.706 -0.94191C210.706 0.228313 209.025 1.22576 208.829 2.34101C208.632 3.45625 209.858 4.98775 209.488 6.05588C209.119 7.124 207.227 7.62664 206.685 8.59267C206.143 9.55869 206.842 11.4201 206.158 12.339C205.475 13.2579 203.535 13.1243 202.711 13.9097C201.886 14.6951 201.996 16.6507 201.053 17.3105C200.111 17.9702 198.328 17.2084 197.299 17.7189C196.27 18.2294 195.776 20.075 194.668 20.4363C193.561 20.7976 192.124 19.4938 190.977 19.6509C189.83 19.808 188.801 21.4416 187.639 21.418C186.477 21.3945 185.471 19.7373 184.356 19.5409C183.241 19.3446 181.709 20.5698 180.633 20.2007C179.557 19.8315 179.11 17.9388 178.097 17.3968C177.083 16.8549 175.269 17.5618 174.358 16.8706C173.447 16.1795 173.612 14.2474 172.787 13.4228C171.963 12.5981 170.054 12.7081 169.395 11.7656C168.735 10.8232 169.489 9.0482 168.986 8.01149C168.483 6.97478 166.63 6.48784 166.269 5.3883C165.907 4.28876 167.203 2.8358 167.054 1.68913C166.905 0.542471 165.271 -0.486382 165.287 -1.64875C165.303 -2.81112 166.968 -3.81641 167.164 -4.93166C167.36 -6.04691 166.143 -7.57841 166.504 -8.65439C166.866 -9.73037 168.774 -10.178 169.308 -11.1912C169.842 -12.2043 169.151 -14.0186 169.842 -14.9296C170.533 -15.8407 172.465 -15.6757 173.29 -16.5004C174.115 -17.325 174.005 -19.2335 174.947 -19.8933C175.89 -20.553 177.665 -19.799 178.701 -20.3017C179.738 -20.8043 180.217 -22.6578 181.325 -23.0191C182.432 -23.3804 183.869 -22.0845 185.024 -22.2337C186.178 -22.3829 187.191 -24.0244 188.362 -24.0087C189.532 -23.993 190.529 -22.3201 191.637 -22.1316C192.744 -21.9431 194.283 -23.1526 195.359 -22.7835C196.435 -22.4143 196.891 -20.5216 197.896 -19.9875C198.901 -19.4534 200.724 -20.1446 201.635 -19.4534C202.546 -18.7623 202.42 -16.8303 203.205 -16.0056C203.991 -15.1809 205.939 -15.2909 206.606 -14.3484C207.274 -13.406 206.504 -11.631 207.015 -10.5943C207.525 -9.55758 209.371 -9.0785 209.732 -7.97111C210.093 -6.86371 208.789 -5.42645 208.947 -4.27194C209.104 -3.11742 210.729 -2.11213 210.706 -0.94191Z" fill="white"/>
<path d="M192.069 2.10555C192.069 2.10555 196.538 5.43559 198.65 5.76545C200.763 6.09531 203.425 1.18665 201.855 -1.92348C200.284 -5.03361 193.168 -3.01516 191.393 -2.33973C189.618 -1.6643 189.391 -0.776813 192.069 2.10555Z" fill="#92E3A9"/>
<path d="M183.492 -1.32666C183.492 -1.32666 177.994 -0.494157 176.266 0.778167C174.539 2.05049 176.156 7.39112 179.471 8.4671C182.785 9.54307 186.359 3.06364 187.136 1.32793C187.914 -0.407767 187.419 -1.19314 183.492 -1.32666Z" fill="#92E3A9"/>
</g>
</g>
<path d="M203.889 87.0657V77.1125H206.951C207.826 77.1125 208.608 77.3108 209.296 77.7073C209.989 78.0992 210.529 78.6597 210.916 79.3889C211.303 80.1135 211.497 80.9384 211.497 81.8635V82.3215C211.497 83.2467 211.306 84.0693 210.923 84.7893C210.545 85.5094 210.009 86.0676 209.316 86.4641C208.624 86.8606 207.842 87.0611 206.972 87.0657H203.889ZM205.939 78.7737V85.4182H206.931C207.733 85.4182 208.346 85.1562 208.77 84.6321C209.193 84.108 209.41 83.3583 209.419 82.3831V81.8567C209.419 80.845 209.209 80.0793 208.79 79.5598C208.371 79.0357 207.758 78.7737 206.951 78.7737H205.939ZM214.949 87.0657H212.967V79.6692H214.949V87.0657ZM212.851 77.7551C212.851 77.4589 212.949 77.2151 213.145 77.0237C213.345 76.8323 213.616 76.7366 213.958 76.7366C214.295 76.7366 214.564 76.8323 214.765 77.0237C214.965 77.2151 215.065 77.4589 215.065 77.7551C215.065 78.0559 214.963 78.302 214.758 78.4934C214.557 78.6848 214.291 78.7805 213.958 78.7805C213.625 78.7805 213.356 78.6848 213.151 78.4934C212.951 78.302 212.851 78.0559 212.851 77.7551ZM219.987 87.2024C218.903 87.2024 218.019 86.8697 217.335 86.2043C216.656 85.539 216.316 84.6526 216.316 83.5452V83.3538C216.316 82.6109 216.46 81.9478 216.747 81.3645C217.034 80.7766 217.44 80.3254 217.964 80.011C218.493 79.692 219.094 79.5325 219.769 79.5325C220.78 79.5325 221.576 79.8515 222.154 80.4895C222.738 81.1275 223.029 82.0321 223.029 83.2034V84.01H218.319C218.383 84.4931 218.575 84.8805 218.894 85.1721C219.217 85.4638 219.625 85.6096 220.117 85.6096C220.878 85.6096 221.473 85.3339 221.901 84.7825L222.872 85.8694C222.576 86.2887 222.175 86.6168 221.669 86.8538C221.163 87.0862 220.603 87.2024 219.987 87.2024ZM219.762 81.1321C219.37 81.1321 219.051 81.2642 218.805 81.5286C218.563 81.7929 218.408 82.1711 218.34 82.6633H221.088V82.5061C221.079 82.0686 220.96 81.7314 220.732 81.4944C220.505 81.2528 220.181 81.1321 219.762 81.1321ZM226.522 77.8508V79.6692H227.787V81.1184H226.522V84.8098C226.522 85.0833 226.575 85.2792 226.68 85.3977C226.785 85.5162 226.985 85.5754 227.281 85.5754C227.5 85.5754 227.694 85.5595 227.862 85.5276V87.0247C227.475 87.1431 227.076 87.2024 226.666 87.2024C225.281 87.2024 224.574 86.5028 224.547 85.1038V81.1184H223.467V79.6692H224.547V77.8508H226.522ZM230.973 87.0657H228.99V79.6692H230.973V87.0657ZM228.874 77.7551C228.874 77.4589 228.972 77.2151 229.168 77.0237C229.368 76.8323 229.64 76.7366 229.981 76.7366C230.319 76.7366 230.588 76.8323 230.788 77.0237C230.989 77.2151 231.089 77.4589 231.089 77.7551C231.089 78.0559 230.986 78.302 230.781 78.4934C230.581 78.6848 230.314 78.7805 229.981 78.7805C229.649 78.7805 229.38 78.6848 229.175 78.4934C228.974 78.302 228.874 78.0559 228.874 77.7551ZM234.425 79.6692L234.486 80.5237C235.015 79.8629 235.724 79.5325 236.612 79.5325C237.396 79.5325 237.979 79.7626 238.362 80.2229C238.745 80.6832 238.941 81.3713 238.95 82.2874V87.0657H236.975V82.3352C236.975 81.9159 236.883 81.6129 236.701 81.426C236.519 81.2346 236.216 81.1389 235.792 81.1389C235.236 81.1389 234.819 81.3759 234.541 81.8499V87.0657H232.565V79.6692H234.425ZM240.167 83.3127C240.167 82.178 240.436 81.2642 240.974 80.5715C241.516 79.8788 242.245 79.5325 243.161 79.5325C243.972 79.5325 244.604 79.8105 245.055 80.3665L245.137 79.6692H246.928V86.8196C246.928 87.4667 246.78 88.0295 246.483 88.5081C246.192 88.9866 245.779 89.3512 245.246 89.6018C244.713 89.8525 244.089 89.9778 243.373 89.9778C242.831 89.9778 242.302 89.8684 241.787 89.6497C241.272 89.4355 240.882 89.1575 240.618 88.8157L241.493 87.6125C241.985 88.164 242.582 88.4397 243.284 88.4397C243.808 88.4397 244.216 88.2984 244.508 88.0159C244.799 87.7379 244.945 87.3414 244.945 86.8264V86.4299C244.49 86.9449 243.89 87.2024 243.147 87.2024C242.259 87.2024 241.539 86.856 240.987 86.1633C240.44 85.4661 240.167 84.5432 240.167 83.3948V83.3127ZM242.143 83.4563C242.143 84.1262 242.277 84.6526 242.546 85.0354C242.815 85.4137 243.184 85.6028 243.653 85.6028C244.255 85.6028 244.686 85.3772 244.945 84.926V81.8157C244.681 81.3645 244.255 81.1389 243.667 81.1389C243.193 81.1389 242.819 81.3326 242.546 81.72C242.277 82.1073 242.143 82.6861 242.143 83.4563Z" fill="white"/>
<path d="M225.624 48.6093C224.601 49.6153 223.959 50.9379 223.795 52.3517C222.803 51.1499 222.253 49.6358 222.25 48.0652L222.25 48.0649C222.247 47.1252 221.933 46.213 221.356 45.4711C220.819 44.7807 220.083 44.2742 219.25 44.0185V42.0657V41.8157H219H217H216.75V42.0657V44.0185C215.917 44.2742 215.181 44.7807 214.644 45.4711C214.067 46.213 213.753 47.1252 213.75 48.0649V48.0657V52.8157H212H211.75V53.0657V54.0657C211.75 57.845 213.251 61.4696 215.924 64.1419C218.596 66.8143 222.221 68.3157 226 68.3157C229.779 68.3157 233.404 66.8143 236.076 64.1419C238.749 61.4696 240.25 57.845 240.25 54.0657V53.0657V52.8157H240H236.245C236.203 51.7844 235.906 50.7782 235.379 49.8876C234.863 49.0147 234.143 48.2819 233.283 47.7507C233.904 46.9974 234.248 46.0492 234.25 45.0661L234.25 44.8157H234H232H231.75L231.75 45.0654C231.75 45.5295 231.565 45.9744 231.237 46.3025C230.909 46.6307 230.464 46.8152 230 46.8157H230C228.363 46.8178 226.792 47.4618 225.624 48.6093ZM219.75 48.0657L219.75 48.0662C219.754 49.7431 220.214 51.3844 221.076 52.8157H216.25V48.0657C216.25 47.6015 216.434 47.1564 216.763 46.8282C217.091 46.5 217.536 46.3157 218 46.3157C218.464 46.3157 218.909 46.5 219.237 46.8282C219.566 47.1564 219.75 47.6015 219.75 48.0657ZM230 49.3157C230.994 49.317 231.947 49.7125 232.65 50.4155C233.294 51.0593 233.68 51.9129 233.741 52.8157H226.259C226.32 51.9129 226.706 51.0593 227.35 50.4155C228.053 49.7125 229.006 49.317 230 49.3157ZM226 65.8157C223.054 65.812 220.217 64.7035 218.049 62.7092C215.948 60.7764 214.623 58.1479 214.316 55.3157H237.685C237.378 58.1481 236.053 60.7767 233.952 62.7095C231.783 64.7038 228.946 65.8122 226 65.8157Z" fill="#F9F8FC" stroke="#F9F8FC" stroke-width="0.5"/>
<defs>
<linearGradient id="paint0_linear_1607_40084" x1="0" y1="0.0656738" x2="128.135" y2="139.127" gradientUnits="userSpaceOnUse">
<stop stop-color="#72EDF2"/>
<stop offset="1" stop-color="#5151E5"/>
</linearGradient>
<linearGradient id="paint1_linear_1607_40084" x1="0" y1="0.0656738" x2="128.135" y2="139.127" gradientUnits="userSpaceOnUse">
<stop stop-color="#72EDF2"/>
<stop offset="1" stop-color="#5151E5"/>
</linearGradient>
<linearGradient id="paint2_linear_1607_40084" x1="155.473" y1="0.0656738" x2="283.608" y2="139.127" gradientUnits="userSpaceOnUse">
<stop stop-color="#79F1A4"/>
<stop offset="1" stop-color="#0E5CAD"/>
</linearGradient>
<linearGradient id="paint3_linear_1607_40084" x1="155.473" y1="0.0656738" x2="283.608" y2="139.127" gradientUnits="userSpaceOnUse">
<stop stop-color="#79F1A4"/>
<stop offset="1" stop-color="#0E5CAD"/>
</linearGradient>
</defs>
</svg>
