<svg width="327" height="371" viewBox="0 0 327 371" fill="none" xmlns="http://www.w3.org/2000/svg">
<rect x="309" y="51" width="4" height="272" rx="2" fill="#CCECFB"/>
<circle cx="311" cy="19" r="15" stroke="#14B5FF" stroke-width="2"/>
<path d="M311 13.1667V24.8333" stroke="#14B5FF" stroke-width="2" stroke-linecap="round" stroke-linejoin="round"/>
<path d="M305.167 19H316.833" stroke="#14B5FF" stroke-width="2" stroke-linecap="round" stroke-linejoin="round"/>
<circle cx="311" cy="355" r="15" stroke="#14B5FF" stroke-width="2"/>
<path d="M305.167 355H316.833" stroke="#14B5FF" stroke-width="2" stroke-linecap="round" stroke-linejoin="round"/>
<circle cx="311" cy="223" r="12" fill="#14B5FF"/>
<path d="M259 79H279" stroke="#CAC8D0" stroke-width="2"/>
<path d="M259 103H279" stroke="#CAC8D0" stroke-width="2"/>
<path d="M259 127H279" stroke="#CAC8D0" stroke-width="2"/>
<path d="M259 151H279" stroke="#CAC8D0" stroke-width="2"/>
<path d="M259 175H279" stroke="#CAC8D0" stroke-width="2"/>
<path d="M259 199H279" stroke="#CAC8D0" stroke-width="2"/>
<path d="M259 223H279" stroke="#CAC8D0" stroke-width="2"/>
<path d="M259 247H279" stroke="#CAC8D0" stroke-width="2"/>
<path d="M259 271H279" stroke="#CAC8D0" stroke-width="2"/>
<path d="M259 295H279" stroke="#CAC8D0" stroke-width="2"/>
<path d="M203.99 43L12.0073 43.1667C5.42234 43.1667 0 48.6019 0 55.2092C0 55.5801 0.0160742 55.9457 0.050901 56.3167L24.0548 320.874C24.6173 327.005 29.7798 331.763 35.9175 331.812L179.989 332C186.158 332 191.375 327.226 191.945 321.062L215.949 56.1539C215.984 55.7883 216 55.4174 216 55.0491C216 48.4445 210.575 43 203.99 43Z" fill="#CCECFB"/>
<mask id="mask0_1607_41198" style="mask-type:alpha" maskUnits="userSpaceOnUse" x="0" y="43" width="216" height="289">
<path d="M203.99 43L12.0073 43.1667C5.42234 43.1667 0 48.6019 0 55.2092C0 55.5801 0.0160742 55.9457 0.050901 56.3167L24.0548 320.874C24.6173 327.005 29.7798 331.763 35.9175 331.812L179.989 332C186.158 332 191.375 327.226 191.945 321.062L215.949 56.1539C215.984 55.7883 216 55.4174 216 55.0491C216 48.4445 210.575 43 203.99 43Z" fill="#CCECFB"/>
</mask>
<g mask="url(#mask0_1607_41198)">
<path d="M-6.32953 230.429C-0.320967 207.606 211.982 246.134 220.994 230.429C230.007 214.723 220.994 360 220.994 360H-6.32953C-6.32953 360 -12.3381 253.251 -6.32953 230.429Z" fill="url(#paint0_linear_1607_41198)"/>
</g>
<path d="M79.5801 6.08008V8.22656H79.1152C77.1465 8.26302 75.5788 8.84635 74.4121 9.97656C73.2454 11.1068 72.571 12.6973 72.3887 14.748C73.4368 13.5449 74.8678 12.9434 76.6816 12.9434C78.4134 12.9434 79.7943 13.554 80.8242 14.7754C81.8633 15.9967 82.3828 17.5736 82.3828 19.5059C82.3828 21.5566 81.8223 23.1973 80.7012 24.4277C79.5892 25.6582 78.0944 26.2734 76.2168 26.2734C74.3118 26.2734 72.7669 25.5443 71.582 24.0859C70.3971 22.6185 69.8047 20.7318 69.8047 18.4258V17.4551C69.8047 13.791 70.584 10.9928 72.1426 9.06055C73.7103 7.11914 76.0391 6.12565 79.1289 6.08008H79.5801ZM76.2578 15.0488C75.3919 15.0488 74.5944 15.3086 73.8652 15.8281C73.1361 16.3477 72.6302 16.9993 72.3477 17.7832V18.7129C72.3477 20.3535 72.7168 21.6751 73.4551 22.6777C74.1934 23.6803 75.1139 24.1816 76.2168 24.1816C77.3561 24.1816 78.2493 23.7624 78.8965 22.9238C79.5527 22.0853 79.8809 20.987 79.8809 19.6289C79.8809 18.2617 79.5482 17.1589 78.8828 16.3203C78.2266 15.4727 77.3516 15.0488 76.2578 15.0488ZM97.8594 17.5098C97.8594 20.472 97.3535 22.6732 96.3418 24.1133C95.3301 25.5534 93.7487 26.2734 91.5977 26.2734C89.474 26.2734 87.9017 25.5716 86.8809 24.168C85.86 22.7552 85.3314 20.6497 85.2949 17.8516V14.4746C85.2949 11.5488 85.8008 9.375 86.8125 7.95312C87.8242 6.53125 89.4102 5.82031 91.5703 5.82031C93.7122 5.82031 95.2891 6.50846 96.3008 7.88477C97.3125 9.25195 97.832 11.3665 97.8594 14.2285V17.5098ZM95.3301 14.0508C95.3301 11.9089 95.0293 10.3503 94.4277 9.375C93.8262 8.39062 92.8737 7.89844 91.5703 7.89844C90.276 7.89844 89.3327 8.38607 88.7402 9.36133C88.1478 10.3366 87.8424 11.8359 87.8242 13.8594V17.9062C87.8242 20.0573 88.1341 21.6478 88.7539 22.6777C89.3828 23.6986 90.3307 24.209 91.5977 24.209C92.8464 24.209 93.7715 23.7259 94.373 22.7598C94.9837 21.7936 95.3027 20.2715 95.3301 18.1934V14.0508ZM113.582 17.5098C113.582 20.472 113.076 22.6732 112.064 24.1133C111.053 25.5534 109.471 26.2734 107.32 26.2734C105.197 26.2734 103.624 25.5716 102.604 24.168C101.583 22.7552 101.054 20.6497 101.018 17.8516V14.4746C101.018 11.5488 101.523 9.375 102.535 7.95312C103.547 6.53125 105.133 5.82031 107.293 5.82031C109.435 5.82031 111.012 6.50846 112.023 7.88477C113.035 9.25195 113.555 11.3665 113.582 14.2285V17.5098ZM111.053 14.0508C111.053 11.9089 110.752 10.3503 110.15 9.375C109.549 8.39062 108.596 7.89844 107.293 7.89844C105.999 7.89844 105.055 8.38607 104.463 9.36133C103.87 10.3366 103.565 11.8359 103.547 13.8594V17.9062C103.547 20.0573 103.857 21.6478 104.477 22.6777C105.105 23.6986 106.053 24.209 107.32 24.209C108.569 24.209 109.494 23.7259 110.096 22.7598C110.706 21.7936 111.025 20.2715 111.053 18.1934V14.0508ZM119.461 11.207L119.529 12.8477C120.614 11.5716 122.077 10.9336 123.918 10.9336C125.987 10.9336 127.395 11.7266 128.143 13.3125C128.635 12.6016 129.273 12.0273 130.057 11.5898C130.85 11.1523 131.784 10.9336 132.859 10.9336C136.104 10.9336 137.754 12.6517 137.809 16.0879V26H135.279V16.2383C135.279 15.181 135.038 14.3926 134.555 13.873C134.072 13.3444 133.26 13.0801 132.121 13.0801C131.182 13.0801 130.403 13.3626 129.783 13.9277C129.163 14.4837 128.803 15.2357 128.703 16.1836V26H126.16V16.3066C126.16 14.1556 125.107 13.0801 123.002 13.0801C121.343 13.0801 120.208 13.7865 119.598 15.1992V26H117.068V11.207H119.461ZM144.385 26H141.855V5H144.385V26Z" fill="#3C3253"/>
<defs>
<linearGradient id="paint0_linear_1607_41198" x1="-9" y1="223" x2="110.468" y2="427.055" gradientUnits="userSpaceOnUse">
<stop stop-color="#72EDF2"/>
<stop offset="1" stop-color="#5151E5"/>
</linearGradient>
</defs>
</svg>
