<svg width="25" height="24" viewBox="0 0 25 24" fill="none" xmlns="http://www.w3.org/2000/svg">
<path d="M23.5748 8.47113C23.5713 8.46761 23.5669 8.46564 23.5619 8.46564C21.7444 8.46645 16.9769 8.76621 14.3011 11.76C11.6146 14.7538 11.82 19.5445 12.0104 21.3453C12.0544 21.7622 12.4104 22.0604 12.8296 22.0604V22.0604C14.6415 22.0604 19.4184 21.7529 22.1088 18.766C24.9233 15.6296 24.5638 10.5287 24.3728 8.95449C24.339 8.67594 24.1007 8.47662 23.8201 8.47662C23.7497 8.47662 23.6722 8.47662 23.5881 8.47662C23.5831 8.47662 23.5783 8.47464 23.5748 8.47113V8.47113Z" fill="#B6B3BF" fill-opacity="0.4"/>
<path d="M1.42958 8.46875V8.46875C1.0099 8.46875 0.653208 8.76636 0.607485 9.18354C0.409647 10.9886 0.186484 15.7976 2.90106 18.7582C5.59147 21.756 10.3683 22.0525 12.1802 22.0525V22.0525C12.5997 22.0525 12.9561 21.7547 13.0013 21.3376C13.1966 19.5321 13.4145 14.7215 10.7087 11.7521C8.01832 8.76524 3.24148 8.46875 1.42958 8.46875Z" fill="#B6B3BF" fill-opacity="0.4"/>
<path d="M13.7775 5.44168C13.1262 4.80067 12.1214 4.80067 11.47 5.44168C9.92173 6.96537 7.36377 10.0134 7.36377 13.5207C7.36377 17.0279 9.92173 20.076 11.47 21.5997C12.1214 22.2407 13.1262 22.2407 13.7775 21.5997C15.3258 20.076 17.8838 17.028 17.8838 13.5207C17.8838 10.0134 15.3258 6.96537 13.7775 5.44168Z" fill="#B6B3BF"/>
</svg>
